<svg width="31" height="30" viewBox="0 0 31 30" fill="none" xmlns="http://www.w3.org/2000/svg">
<path d="M30.1084 1.84783C30.1084 10.5978 30.1084 19.4022 30.1084 28.1522C30.1084 28.2065 30.054 28.2609 30.054 28.3152C29.8362 29.2935 28.965 30 27.985 30C25.6438 30 23.357 30 21.0158 30C20.9614 30 20.8525 30 20.7436 30C20.7436 25.7065 20.7436 21.413 20.7436 17.0652C20.7981 17.0652 20.9069 17.0652 20.9614 17.0652C21.9959 17.0652 23.0848 17.0652 24.1193 17.0652C24.2826 17.0652 24.3371 17.0109 24.3915 16.8478C24.446 16.1957 24.5549 15.5978 24.6093 14.9457C24.6638 14.2391 24.7726 13.5326 24.8271 12.8261C24.8815 12.5543 24.8815 12.5 24.5549 12.5C23.4115 12.5 22.2137 12.5 21.0703 12.5C20.9614 12.5 20.9069 12.5 20.7981 12.5C20.7981 12.337 20.7981 12.2283 20.7981 12.1196C20.7981 11.413 20.7981 10.7065 20.7981 10C20.7981 9.78261 20.7981 9.56522 20.8525 9.34783C20.9614 8.8587 21.2336 8.6413 21.9959 8.58696C22.8126 8.53261 23.6837 8.53261 24.5004 8.53261C24.7726 8.53261 24.8271 8.53261 24.8271 8.20652C24.8271 6.90217 24.8271 5.59783 24.8271 4.29348C24.8271 4.02174 24.7726 4.02174 24.5549 4.02174C23.4659 4.02174 22.4314 4.02174 21.3425 4.02174C20.4169 4.02174 19.4913 4.07609 18.6202 4.40217C17.6402 4.72826 16.8235 5.27174 16.279 6.19565C15.6801 7.17391 15.4623 8.26087 15.4079 9.34783C15.3534 10.3261 15.4079 11.3043 15.4079 12.2826C15.4079 12.337 15.4079 12.4457 15.4079 12.5C15.299 12.5 15.2445 12.5 15.1901 12.5C14.4278 12.5 13.72 12.5 12.9578 12.5C12.74 12.5 12.6855 12.5543 12.6855 12.7717C12.6855 14.1304 12.6855 15.4348 12.6855 16.7935C12.6855 17.0109 12.74 17.0652 12.9578 17.0652C13.72 17.0652 14.4823 17.0652 15.1901 17.0652C15.2445 17.0652 15.299 17.0652 15.3534 17.0652C15.3534 21.3587 15.3534 25.6522 15.3534 30C15.2445 30 15.1356 30 15.0812 30C10.7799 30 6.53308 30 2.23181 30C1.03399 30 0.108398 29.0761 0.108398 27.8804C0.108398 19.2935 0.108398 10.7609 0.108398 2.17391C0.108398 1.19565 0.70731 0.380435 1.68735 0.108696C1.79624 0.108696 1.85069 0.0543478 1.95958 0C10.7255 0 19.5458 0 28.3117 0C28.3661 0 28.4206 0.0543478 28.475 0.0543478C29.2917 0.271739 29.8362 0.76087 30.054 1.57609C30.054 1.68478 30.1084 1.73913 30.1084 1.84783Z" fill="white"/>
</svg>
