<svg width="30" height="30" viewBox="0 0 30 30" fill="none" xmlns="http://www.w3.org/2000/svg">
<path d="M0.000368381 14.9565C0.000368381 11.6522 0.0292976 8.34783 0.000368381 5.04348C-0.0285609 2.66667 1.64934 0.550725 3.9926 0.0869565C4.36869 0 4.77369 0 5.14978 0C11.7167 0 18.2547 0 24.8217 0C26.6731 0 28.1196 0.724638 29.1611 2.23188C29.7396 3.04348 30 3.97101 30 4.95652C30 11.6522 30 18.3188 30 25.0145C30 27.6232 28.0039 29.7391 25.4292 29.971C25.1688 30 24.8795 30 24.6192 30C18.139 30 11.6589 30 5.1787 30C3.35616 30 1.88077 29.2754 0.839317 27.7391C0.260732 26.8986 0.000368381 25.971 0.000368381 24.9565C0.000368381 21.6232 0.000368381 18.2899 0.000368381 14.9565ZM3.35616 13.3333C3.35616 13.3913 3.35616 13.4493 3.35616 13.4783C3.35616 17.3623 3.35616 21.2174 3.35616 25.1014C3.35616 25.8551 4.05046 26.5797 4.77369 26.6377C4.9762 26.6667 5.20763 26.6667 5.41014 26.6667C11.8324 26.6667 18.2258 26.6667 24.6481 26.6667C24.8217 26.6667 24.9952 26.6667 25.1399 26.6377C26.0367 26.5507 26.6442 25.8841 26.6442 24.9855C26.6442 21.2174 26.6442 17.4203 26.6442 13.6522C26.6442 13.5652 26.6442 13.4493 26.6442 13.3333C24.8795 13.3333 23.1727 13.3333 21.4659 13.3333C22.623 17.3913 19.354 21.6522 15.0147 21.6522C13.1632 21.6522 11.5721 21.0145 10.2703 19.6812C8.5345 17.913 7.98484 15.7681 8.5345 13.3333C6.79874 13.3333 5.09192 13.3333 3.35616 13.3333ZM26.6442 9.97101C26.6442 9.82609 26.6442 9.71014 26.6442 9.62319C26.6442 8.08696 26.6442 6.52174 26.6442 4.98551C26.6442 4.05797 25.9499 3.33333 24.9952 3.33333C18.3126 3.33333 11.6589 3.33333 4.9762 3.33333C4.02153 3.33333 3.32723 4.05797 3.32723 5.01449C3.32723 6.55072 3.32723 8.11594 3.32723 9.65217C3.32723 9.73913 3.32723 9.85507 3.32723 9.97101C3.41402 9.97101 3.47188 9.97101 3.52974 9.97101C5.84408 9.97101 8.12949 9.97101 10.4438 9.97101C10.5595 9.97101 10.7042 9.91304 10.791 9.82609C13.3078 7.82609 16.6925 7.7971 19.2094 9.7971C19.354 9.91304 19.5276 9.97101 19.7012 9.97101C21.8998 9.97101 24.1274 9.97101 26.326 9.97101C26.4128 9.97101 26.5285 9.97101 26.6442 9.97101ZM15.0147 18.2899C16.8951 18.2899 18.3415 16.7826 18.3415 14.8986C18.3415 13.1014 16.8083 11.6232 14.9857 11.6232C13.1632 11.6232 11.6299 13.1594 11.6589 14.9855C11.6878 16.8116 13.1921 18.3188 15.0147 18.2899Z" fill="white"/>
<path d="M21.668 8.28994C21.668 7.18849 21.668 6.08705 21.668 4.9856C22.7673 4.9856 23.8666 4.9856 24.9948 4.9856C24.9948 6.08705 24.9948 7.18849 24.9948 8.28994C23.8955 8.28994 22.7962 8.28994 21.668 8.28994Z" fill="white"/>
</svg>
