<svg width="30" height="30" viewBox="0 0 30 30" fill="none" xmlns="http://www.w3.org/2000/svg">
<path d="M29.9981 14.9954C30.0844 23.0765 23.2649 30.2933 14.4168 29.9908C6.60455 29.7315 -0.0854969 23.2062 0.00082621 14.8226C0.0871493 6.65502 6.73403 0 15.0211 0C23.567 0 30.1276 7.04395 29.9981 14.9954ZM6.38874 18.6686C6.4319 18.7983 6.47506 18.8847 6.51822 18.9711C8.07204 22.5147 11.7408 24.7619 15.7548 24.3297C17.7402 24.1137 19.4667 23.2926 20.9773 21.9529C22.5312 20.5269 23.3512 18.7119 23.8692 16.724C24.344 14.8658 24.085 13.0508 23.4376 11.279C23.3944 11.1925 23.3512 11.0629 23.3512 10.9765C23.6534 10.8036 23.9555 10.6308 24.344 10.4579C24.1713 10.3715 24.1281 10.285 24.0418 10.2418C23.7829 10.1554 23.4807 10.0257 23.1786 9.98253C22.9196 9.93932 22.747 9.80968 22.6607 9.59361C23.2218 9.37753 23.826 9.24789 24.3008 8.81574C24.1713 8.72932 24.085 8.64289 23.9987 8.64289C23.2649 8.3836 22.488 8.21074 21.7111 8.21074C21.5816 8.21074 21.4521 8.16753 21.3658 8.0811C21.0637 7.90824 20.7615 7.64895 20.4162 7.51931C19.4667 7.08717 18.5603 7.13038 17.7402 7.7786C17.136 8.21074 16.7475 8.85896 16.4454 9.55039C16.0569 10.5875 15.8843 11.6247 15.9706 12.705C16.0138 13.1804 16.0569 13.6558 16.1001 14.1311C16.0138 14.1311 15.9706 14.1311 15.8843 14.1311C14.3305 14.1311 12.9061 13.699 11.6113 12.8347C10.4459 12.0568 9.5827 11.0197 9.10792 9.68003C9.02159 9.46396 8.93527 9.24789 8.80579 9.03182C8.76262 8.94539 8.63314 8.85896 8.54682 8.81574C8.50366 8.90217 8.41733 8.9886 8.37417 9.11825C8.33101 9.20467 8.33101 9.2911 8.33101 9.37753C8.24469 10.069 8.33101 10.7604 8.50366 11.4518C8.80579 12.8779 9.36689 14.1743 10.4028 15.2547C10.7912 15.6436 11.2228 15.9461 11.6544 16.2918C11.6976 16.2918 11.6544 16.2918 11.6544 16.2918C11.4386 16.2054 11.2228 16.119 11.007 15.9893C9.7985 15.3411 8.80579 14.4768 8.20152 13.2236C8.07204 12.9643 7.94255 12.7483 7.76991 12.5322C7.72675 12.4458 7.59726 12.4458 7.51094 12.4025C7.46778 12.489 7.42462 12.5754 7.38145 12.6618C7.33829 12.7483 7.38145 12.8779 7.38145 13.0075C7.42462 14.1743 7.81307 15.2547 8.33101 16.2918C9.49637 18.539 11.3523 19.749 13.8989 19.9219C14.201 19.9219 14.46 19.9651 14.7621 19.9651C11.7408 20.8726 9.02159 20.4836 6.38874 18.6686Z" fill="white"/>
</svg>
