<svg width="35" height="30" viewBox="0 0 35 30" fill="none" xmlns="http://www.w3.org/2000/svg">
<path d="M29.0769 0H5.92308C4.35218 0 2.84562 0.772616 1.73483 2.14788C0.624036 3.52315 0 5.38841 0 7.33333V22.6667C0 24.6116 0.624036 26.4768 1.73483 27.8521C2.84562 29.2274 4.35218 30 5.92308 30H29.0769C30.6478 30 32.1544 29.2274 33.2652 27.8521C34.376 26.4768 35 24.6116 35 22.6667V7.33333C35 5.38841 34.376 3.52315 33.2652 2.14788C32.1544 0.772616 30.6478 0 29.0769 0ZM18.9808 18.3333L13.7308 21.6667V8.33333L18.9808 11.6667L24.2308 15L18.9808 18.3333Z" fill="white"/>
</svg>
