<svg width="118" height="118" viewBox="0 0 118 118" fill="none" xmlns="http://www.w3.org/2000/svg">
<circle cx="59" cy="59" r="59" fill="#596F62"/>
<path d="M28.315 20.65C28.255 20.58 28.225 20.495 28.225 20.395C28.225 20.295 28.255 20.21 28.315 20.14C28.375 20.07 28.45 20.035 28.54 20.035H34.48C34.69 20.035 34.795 20.15 34.795 20.38C34.795 20.63 34.69 20.755 34.48 20.755H31.9V30.67C31.9 30.89 31.775 31 31.525 31C31.275 31 31.15 30.89 31.15 30.67V20.755H28.54C28.45 20.755 28.375 20.72 28.315 20.65ZM34.2518 29.11C34.2518 28.36 34.5468 27.84 35.1368 27.55C35.7368 27.25 36.6068 27.1 37.7468 27.1H38.5568V26.71C38.5568 26.11 38.3968 25.595 38.0768 25.165C37.7668 24.725 37.2968 24.505 36.6668 24.505C36.2868 24.505 35.9318 24.575 35.6018 24.715C35.2718 24.855 35.1018 24.925 35.0918 24.925C34.9918 24.925 34.9118 24.88 34.8518 24.79C34.7918 24.7 34.7618 24.61 34.7618 24.52C34.7618 24.35 34.9668 24.195 35.3768 24.055C35.7968 23.905 36.2368 23.83 36.6968 23.83C37.5868 23.83 38.2418 24.105 38.6618 24.655C39.0818 25.195 39.2918 25.88 39.2918 26.71V30.67C39.2918 30.76 39.2568 30.84 39.1868 30.91C39.1168 30.97 39.0318 31 38.9318 31C38.8318 31 38.7468 30.97 38.6768 30.91C38.6068 30.84 38.5718 30.76 38.5718 30.67V29.95C37.9118 30.71 37.1618 31.09 36.3218 31.09C35.7118 31.09 35.2118 30.925 34.8218 30.595C34.4418 30.255 34.2518 29.76 34.2518 29.11ZM34.9868 29.08C34.9868 29.53 35.1168 29.87 35.3768 30.1C35.6468 30.32 35.9968 30.43 36.4268 30.43C36.9368 30.43 37.4168 30.25 37.8668 29.89C38.3268 29.52 38.5568 29.16 38.5568 28.81V27.7H37.8218C37.3918 27.7 37.0318 27.715 36.7418 27.745C36.4518 27.775 36.1618 27.835 35.8718 27.925C35.5818 28.005 35.3618 28.145 35.2118 28.345C35.0618 28.535 34.9868 28.78 34.9868 29.08ZM41.2068 34.195V24.22C41.2068 24.02 41.3268 23.92 41.5668 23.92C41.6668 23.92 41.7518 23.95 41.8218 24.01C41.8918 24.06 41.9268 24.13 41.9268 24.22V24.97C42.3568 24.21 43.0268 23.83 43.9368 23.83C44.6768 23.83 45.3118 24.1 45.8418 24.64C46.3718 25.17 46.6368 25.815 46.6368 26.575V28.315C46.6368 29.045 46.3668 29.69 45.8268 30.25C45.2968 30.81 44.6768 31.09 43.9668 31.09C43.5268 31.09 43.1218 30.98 42.7518 30.76C42.3818 30.54 42.1118 30.27 41.9418 29.95V34.195C41.9418 34.275 41.9018 34.35 41.8218 34.42C41.7518 34.49 41.6668 34.525 41.5668 34.525C41.4668 34.525 41.3818 34.49 41.3118 34.42C41.2418 34.36 41.2068 34.285 41.2068 34.195ZM41.9418 28.825C41.9418 29.115 42.1418 29.45 42.5418 29.83C42.9418 30.21 43.3968 30.4 43.9068 30.4C44.4368 30.4 44.9018 30.19 45.3018 29.77C45.7018 29.34 45.9018 28.855 45.9018 28.315V26.575C45.9018 26.045 45.6968 25.57 45.2868 25.15C44.8868 24.73 44.4168 24.52 43.8768 24.52C43.3668 24.52 42.9168 24.71 42.5268 25.09C42.1368 25.46 41.9418 25.955 41.9418 26.575V28.825ZM51.3289 30.67V19.825C51.3289 19.735 51.3639 19.66 51.4339 19.6C51.5039 19.54 51.5889 19.51 51.6889 19.51C51.7989 19.51 51.8889 19.54 51.9589 19.6C52.0289 19.66 52.0639 19.735 52.0639 19.825V24.97C52.2339 24.65 52.4889 24.38 52.8289 24.16C53.1789 23.94 53.5889 23.83 54.0589 23.83C54.7889 23.83 55.4189 24.1 55.9489 24.64C56.4789 25.18 56.7439 25.825 56.7439 26.575V30.67C56.7439 30.89 56.6189 31 56.3689 31C56.1289 31 56.0089 30.89 56.0089 30.67V26.575C56.0089 26.045 55.8089 25.57 55.4089 25.15C55.0089 24.73 54.5389 24.52 53.9989 24.52C53.4889 24.52 53.0389 24.71 52.6489 25.09C52.2589 25.46 52.0639 25.955 52.0639 26.575V30.67C52.0639 30.75 52.0239 30.825 51.9439 30.895C51.8739 30.965 51.7889 31 51.6889 31C51.5889 31 51.5039 30.97 51.4339 30.91C51.3639 30.84 51.3289 30.76 51.3289 30.67ZM58.3831 28.315V26.53C58.3831 25.79 58.6531 25.155 59.1931 24.625C59.7331 24.095 60.3831 23.83 61.1431 23.83C61.8831 23.83 62.5231 24.09 63.0631 24.61C63.6031 25.13 63.8731 25.775 63.8731 26.545C63.8731 26.815 63.8381 27.035 63.7681 27.205C63.7081 27.365 63.6081 27.48 63.4681 27.55C63.3281 27.62 63.1981 27.665 63.0781 27.685C62.9681 27.695 62.8081 27.7 62.5981 27.7H59.1181V28.33C59.1181 28.96 59.3431 29.465 59.7931 29.845C60.2431 30.225 60.8231 30.415 61.5331 30.415C61.8931 30.415 62.1981 30.365 62.4481 30.265C62.6981 30.165 62.8881 30.065 63.0181 29.965C63.1481 29.865 63.2481 29.815 63.3181 29.815C63.4081 29.815 63.4881 29.855 63.5581 29.935C63.6281 30.015 63.6631 30.095 63.6631 30.175C63.6631 30.365 63.4531 30.565 63.0331 30.775C62.6231 30.985 62.1131 31.09 61.5031 31.09C60.5831 31.09 59.8331 30.835 59.2531 30.325C58.6731 29.815 58.3831 29.145 58.3831 28.315ZM59.1181 27.085H62.3131C62.6531 27.085 62.8781 27.05 62.9881 26.98C63.0981 26.91 63.1531 26.765 63.1531 26.545C63.1531 26.015 62.9631 25.54 62.5831 25.12C62.2031 24.7 61.7231 24.49 61.1431 24.49C60.5831 24.49 60.1031 24.685 59.7031 25.075C59.3131 25.465 59.1181 25.93 59.1181 26.47V27.085ZM65.4207 30.67V24.22C65.4207 24.02 65.5407 23.92 65.7807 23.92C65.8807 23.92 65.9657 23.95 66.0357 24.01C66.1057 24.06 66.1407 24.13 66.1407 24.22V24.985C66.3207 24.655 66.5857 24.38 66.9357 24.16C67.2957 23.94 67.7107 23.83 68.1807 23.83H68.7207C68.8107 23.83 68.8857 23.865 68.9457 23.935C69.0157 23.995 69.0507 24.075 69.0507 24.175C69.0507 24.275 69.0157 24.36 68.9457 24.43C68.8857 24.49 68.8107 24.52 68.7207 24.52H68.1807C67.6407 24.52 67.1657 24.725 66.7557 25.135C66.3557 25.535 66.1557 26.06 66.1557 26.71V30.67C66.1557 30.75 66.1157 30.825 66.0357 30.895C65.9657 30.965 65.8807 31 65.7807 31C65.6807 31 65.5957 30.97 65.5257 30.91C65.4557 30.84 65.4207 30.76 65.4207 30.67ZM69.6038 28.315V26.53C69.6038 25.79 69.8738 25.155 70.4138 24.625C70.9538 24.095 71.6038 23.83 72.3638 23.83C73.1038 23.83 73.7438 24.09 74.2838 24.61C74.8238 25.13 75.0938 25.775 75.0938 26.545C75.0938 26.815 75.0588 27.035 74.9888 27.205C74.9288 27.365 74.8288 27.48 74.6888 27.55C74.5488 27.62 74.4188 27.665 74.2988 27.685C74.1888 27.695 74.0288 27.7 73.8188 27.7H70.3388V28.33C70.3388 28.96 70.5638 29.465 71.0138 29.845C71.4638 30.225 72.0438 30.415 72.7538 30.415C73.1138 30.415 73.4188 30.365 73.6688 30.265C73.9188 30.165 74.1088 30.065 74.2388 29.965C74.3688 29.865 74.4688 29.815 74.5388 29.815C74.6288 29.815 74.7088 29.855 74.7788 29.935C74.8488 30.015 74.8838 30.095 74.8838 30.175C74.8838 30.365 74.6738 30.565 74.2538 30.775C73.8438 30.985 73.3338 31.09 72.7238 31.09C71.8038 31.09 71.0538 30.835 70.4738 30.325C69.8938 29.815 69.6038 29.145 69.6038 28.315ZM70.3388 27.085H73.5338C73.8738 27.085 74.0988 27.05 74.2088 26.98C74.3188 26.91 74.3738 26.765 74.3738 26.545C74.3738 26.015 74.1838 25.54 73.8038 25.12C73.4238 24.7 72.9438 24.49 72.3638 24.49C71.8038 24.49 71.3238 24.685 70.9238 25.075C70.5338 25.465 70.3388 25.93 70.3388 26.47V27.085ZM79.6143 28.855V20.8C79.6143 20.71 79.6493 20.635 79.7193 20.575C79.7993 20.515 79.8843 20.485 79.9743 20.485C80.0743 20.485 80.1593 20.515 80.2293 20.575C80.3093 20.635 80.3493 20.71 80.3493 20.8V23.92H82.3443C82.4243 23.92 82.4893 23.955 82.5393 24.025C82.5993 24.085 82.6293 24.16 82.6293 24.25C82.6293 24.33 82.5993 24.405 82.5393 24.475C82.4793 24.535 82.4143 24.565 82.3443 24.565H80.3493V28.855C80.3493 29.385 80.4643 29.76 80.6943 29.98C80.9243 30.2 81.3243 30.31 81.8943 30.31H82.2693C82.3693 30.31 82.4493 30.345 82.5093 30.415C82.5793 30.475 82.6143 30.555 82.6143 30.655C82.6143 30.745 82.5793 30.825 82.5093 30.895C82.4493 30.965 82.3693 31 82.2693 31H81.8943C80.3743 31 79.6143 30.285 79.6143 28.855ZM83.4755 28.315V26.575C83.4755 25.835 83.7455 25.195 84.2855 24.655C84.8255 24.105 85.4705 23.83 86.2205 23.83C86.9605 23.83 87.6055 24.1 88.1555 24.64C88.7055 25.18 88.9805 25.825 88.9805 26.575V28.315C88.9805 29.045 88.7005 29.69 88.1405 30.25C87.5905 30.81 86.9505 31.09 86.2205 31.09C85.4905 31.09 84.8505 30.815 84.3005 30.265C83.7505 29.705 83.4755 29.055 83.4755 28.315ZM84.2105 28.315C84.2105 28.855 84.4055 29.34 84.7955 29.77C85.1955 30.19 85.6705 30.4 86.2205 30.4C86.7705 30.4 87.2455 30.19 87.6455 29.77C88.0455 29.34 88.2455 28.855 88.2455 28.315V26.575C88.2455 26.045 88.0455 25.57 87.6455 25.15C87.2455 24.73 86.7705 24.52 86.2205 24.52C85.6705 24.52 85.1955 24.73 84.7955 25.15C84.4055 25.57 84.2105 26.045 84.2105 26.575V28.315Z" fill="white"/>
<path d="M12.02 49.303V38.27C12.02 38.0547 12.1163 37.8847 12.309 37.76C12.5017 37.6353 12.7283 37.573 12.989 37.573H19.041C19.2677 37.573 19.4377 37.6693 19.551 37.862C19.6757 38.0547 19.738 38.2757 19.738 38.525C19.738 38.797 19.6757 39.0293 19.551 39.222C19.4263 39.4147 19.2563 39.511 19.041 39.511H14.23V42.911H16.814C17.0293 42.911 17.1993 43.0017 17.324 43.183C17.4487 43.353 17.511 43.557 17.511 43.795C17.511 44.0103 17.4487 44.2087 17.324 44.39C17.2107 44.56 17.0407 44.645 16.814 44.645H14.23V48.062H19.041C19.2563 48.062 19.4263 48.1583 19.551 48.351C19.6757 48.5437 19.738 48.776 19.738 49.048C19.738 49.2973 19.6757 49.5183 19.551 49.711C19.4377 49.9037 19.2677 50 19.041 50H12.989C12.7283 50 12.5017 49.9377 12.309 49.813C12.1163 49.6883 12.02 49.5183 12.02 49.303ZM21.0346 49.303V38.27C21.0346 38.0433 21.1423 37.8733 21.3576 37.76C21.573 37.6353 21.8336 37.573 22.1396 37.573C22.5476 37.573 22.8593 37.6467 23.0746 37.794C23.29 37.9413 23.528 38.2587 23.7886 38.746L27.0696 45.087V38.253C27.0696 38.0263 27.1773 37.8563 27.3926 37.743C27.608 37.6297 27.8686 37.573 28.1746 37.573C28.4806 37.573 28.7413 37.6297 28.9566 37.743C29.172 37.8563 29.2796 38.0263 29.2796 38.253V49.303C29.2796 49.5183 29.1663 49.6883 28.9396 49.813C28.7243 49.9377 28.4693 50 28.1746 50C27.574 50 27.149 49.7677 26.8996 49.303L23.2446 42.469V49.303C23.2446 49.5183 23.1313 49.6883 22.9046 49.813C22.6893 49.9377 22.4343 50 22.1396 50C21.8336 50 21.573 49.9377 21.3576 49.813C21.1423 49.6883 21.0346 49.5183 21.0346 49.303ZM31.3276 49.303V38.253C31.3276 38.0717 31.3956 37.913 31.5316 37.777C31.6676 37.641 31.8376 37.573 32.0416 37.573H35.4076C38.0936 37.573 39.4366 38.7573 39.4366 41.126C39.4366 42.0553 39.2326 42.8033 38.8246 43.37C38.428 43.9367 37.8896 44.322 37.2096 44.526L39.4366 48.657C39.4933 48.725 39.5216 48.8157 39.5216 48.929C39.5216 49.2123 39.3743 49.4787 39.0796 49.728C38.785 49.966 38.4733 50.085 38.1446 50.085C37.816 50.085 37.561 49.9093 37.3796 49.558L34.9656 44.866H33.5376V49.303C33.5376 49.5183 33.43 49.6883 33.2146 49.813C32.9993 49.9377 32.7386 50 32.4326 50C32.138 50 31.8773 49.9377 31.6506 49.813C31.4353 49.6883 31.3276 49.5183 31.3276 49.303ZM33.5376 43.132H35.4076C36.6203 43.132 37.2266 42.5313 37.2266 41.33C37.2266 40.1173 36.6203 39.511 35.4076 39.511H33.5376V43.132ZM40.8869 46.209V41.466C40.8869 40.1173 41.2439 39.1313 41.9579 38.508C42.6833 37.8847 43.6523 37.573 44.8649 37.573C46.0776 37.573 47.0466 37.8847 47.7719 38.508C48.4973 39.1313 48.8599 40.1173 48.8599 41.466V46.209C48.8599 47.5577 48.4973 48.5437 47.7719 49.167C47.0466 49.7903 46.0776 50.102 44.8649 50.102C43.6523 50.102 42.6833 49.7903 41.9579 49.167C41.2439 48.5437 40.8869 47.5577 40.8869 46.209ZM43.0969 46.209C43.0969 47.5123 43.6863 48.164 44.8649 48.164C46.0549 48.164 46.6499 47.5123 46.6499 46.209V41.466C46.6499 40.1627 46.0549 39.511 44.8649 39.511C43.6863 39.511 43.0969 40.1627 43.0969 41.466V46.209ZM50.7514 49.303V38.253C50.7514 38.0263 50.8591 37.8563 51.0744 37.743C51.2898 37.6297 51.5504 37.573 51.8564 37.573C52.1624 37.573 52.4231 37.6297 52.6384 37.743C52.8538 37.8563 52.9614 38.0263 52.9614 38.253V48.062H57.1094C57.3134 48.062 57.4721 48.1583 57.5854 48.351C57.7101 48.5437 57.7724 48.7703 57.7724 49.031C57.7724 49.2917 57.7101 49.5183 57.5854 49.711C57.4721 49.9037 57.3134 50 57.1094 50H51.7204C51.4598 50 51.2331 49.9377 51.0404 49.813C50.8478 49.6883 50.7514 49.5183 50.7514 49.303ZM58.9858 49.303V38.253C58.9858 38.0263 59.0935 37.8563 59.3088 37.743C59.5242 37.6297 59.7848 37.573 60.0908 37.573C60.3968 37.573 60.6575 37.6297 60.8728 37.743C61.0882 37.8563 61.1958 38.0263 61.1958 38.253V48.062H65.3438C65.5478 48.062 65.7065 48.1583 65.8198 48.351C65.9445 48.5437 66.0068 48.7703 66.0068 49.031C66.0068 49.2917 65.9445 49.5183 65.8198 49.711C65.7065 49.9037 65.5478 50 65.3438 50H59.9548C59.6942 50 59.4675 49.9377 59.2748 49.813C59.0822 49.6883 58.9858 49.5183 58.9858 49.303ZM70.6235 49.303V38.27C70.6235 38.0433 70.7312 37.8733 70.9465 37.76C71.1618 37.6353 71.4225 37.573 71.7285 37.573C72.1365 37.573 72.4482 37.6467 72.6635 37.794C72.8788 37.9413 73.1168 38.2587 73.3775 38.746L76.6585 45.087V38.253C76.6585 38.0263 76.7662 37.8563 76.9815 37.743C77.1968 37.6297 77.4575 37.573 77.7635 37.573C78.0695 37.573 78.3302 37.6297 78.5455 37.743C78.7608 37.8563 78.8685 38.0263 78.8685 38.253V49.303C78.8685 49.5183 78.7552 49.6883 78.5285 49.813C78.3132 49.9377 78.0582 50 77.7635 50C77.1628 50 76.7378 49.7677 76.4885 49.303L72.8335 42.469V49.303C72.8335 49.5183 72.7202 49.6883 72.4935 49.813C72.2782 49.9377 72.0232 50 71.7285 50C71.4225 50 71.1618 49.9377 70.9465 49.813C70.7312 49.6883 70.6235 49.5183 70.6235 49.303ZM80.7805 46.209V41.466C80.7805 40.1173 81.1375 39.1313 81.8515 38.508C82.5768 37.8847 83.5458 37.573 84.7585 37.573C85.9712 37.573 86.9402 37.8847 87.6655 38.508C88.3908 39.1313 88.7535 40.1173 88.7535 41.466V46.209C88.7535 47.5577 88.3908 48.5437 87.6655 49.167C86.9402 49.7903 85.9712 50.102 84.7585 50.102C83.5458 50.102 82.5768 49.7903 81.8515 49.167C81.1375 48.5437 80.7805 47.5577 80.7805 46.209ZM82.9905 46.209C82.9905 47.5123 83.5798 48.164 84.7585 48.164C85.9485 48.164 86.5435 47.5123 86.5435 46.209V41.466C86.5435 40.1627 85.9485 39.511 84.7585 39.511C83.5798 39.511 82.9905 40.1627 82.9905 41.466V46.209ZM89.778 38.457C89.778 38.219 89.931 38.015 90.237 37.845C90.543 37.6637 90.8603 37.573 91.189 37.573C91.597 37.573 91.8407 37.7203 91.92 38.015L94.606 47.229L96.051 41.313C96.153 40.905 96.5157 40.701 97.139 40.701C97.751 40.701 98.108 40.905 98.21 41.313L99.655 47.229L102.341 38.015C102.42 37.7203 102.664 37.573 103.072 37.573C103.401 37.573 103.718 37.6637 104.024 37.845C104.33 38.015 104.483 38.219 104.483 38.457C104.483 38.525 104.472 38.593 104.449 38.661L101.083 49.354C100.913 49.8527 100.431 50.102 99.638 50.102C99.298 50.102 98.992 50.0397 98.72 49.915C98.448 49.779 98.2837 49.592 98.227 49.354L97.139 44.764L96.034 49.354C95.9773 49.592 95.813 49.779 95.541 49.915C95.269 50.0397 94.963 50.102 94.623 50.102C94.2717 50.102 93.96 50.0397 93.688 49.915C93.416 49.779 93.246 49.592 93.178 49.354L89.812 38.661C89.7893 38.593 89.778 38.525 89.778 38.457ZM105.67 49.762C105.454 49.5353 105.347 49.2633 105.347 48.946C105.347 48.6287 105.454 48.3567 105.67 48.13C105.896 47.9033 106.174 47.79 106.503 47.79C106.82 47.79 107.092 47.9033 107.319 48.13C107.545 48.3567 107.659 48.6287 107.659 48.946C107.659 49.252 107.545 49.524 107.319 49.762C107.092 49.9887 106.82 50.102 106.503 50.102C106.174 50.102 105.896 49.9887 105.67 49.762ZM105.432 38.44C105.432 38.1453 105.528 37.9187 105.721 37.76C105.925 37.59 106.18 37.505 106.486 37.505C106.792 37.505 107.047 37.59 107.251 37.76C107.455 37.93 107.557 38.1567 107.557 38.44C107.557 39.188 107.517 40.4347 107.438 42.18C107.358 43.9253 107.319 45.172 107.319 45.92C107.319 46.124 107.228 46.2827 107.047 46.396C106.877 46.5093 106.69 46.566 106.486 46.566C105.93 46.566 105.653 46.3507 105.653 45.92C105.653 45.172 105.613 43.9253 105.534 42.18C105.466 40.4347 105.432 39.188 105.432 38.44Z" fill="white"/>
</svg>
