<svg width="264" height="42" viewBox="0 0 264 42" fill="none" xmlns="http://www.w3.org/2000/svg">
<path d="M0.588 30.152C0.588 29.984 0.602 29.858 0.63 29.774L8.988 2.558C9.324 1.55 10.262 1.046 11.802 1.046C13.37 1.046 14.322 1.55 14.658 2.558L22.974 29.774C23.03 29.942 23.058 30.068 23.058 30.152C23.058 30.656 22.75 31.09 22.134 31.454C21.546 31.818 20.916 32 20.244 32C19.432 32 18.928 31.692 18.732 31.076L17.01 25.112H6.636L4.914 31.076C4.718 31.692 4.2 32 3.36 32C2.688 32 2.058 31.818 1.47 31.454C0.882 31.09 0.588 30.656 0.588 30.152ZM7.602 21.542H16.002L11.802 7.136L7.602 21.542ZM25.936 30.53V1.676C25.936 1.256 26.132 0.919998 26.524 0.667998C26.916 0.387998 27.434 0.247998 28.078 0.247998C28.722 0.247998 29.254 0.387998 29.674 0.667998C30.122 0.919998 30.346 1.256 30.346 1.676V15.032C30.822 14.136 31.536 13.38 32.488 12.764C33.44 12.148 34.532 11.84 35.764 11.84C37.836 11.84 39.6 12.652 41.056 14.276C42.54 15.9 43.282 17.846 43.282 20.114V23.978C43.282 26.162 42.54 28.108 41.056 29.816C39.572 31.496 37.85 32.336 35.89 32.336C34.63 32.336 33.468 32.014 32.404 31.37C31.34 30.726 30.57 29.956 30.094 29.06V30.53C30.094 30.894 29.884 31.23 29.464 31.538C29.072 31.846 28.61 32 28.078 32C27.462 32 26.944 31.846 26.524 31.538C26.132 31.23 25.936 30.894 25.936 30.53ZM30.346 24.944C30.346 25.56 30.78 26.302 31.648 27.17C32.544 28.01 33.538 28.43 34.63 28.43C35.778 28.43 36.772 27.982 37.612 27.086C38.452 26.162 38.872 25.126 38.872 23.978V20.114C38.872 18.994 38.438 17.986 37.57 17.09C36.73 16.194 35.736 15.746 34.588 15.746C33.496 15.746 32.516 16.152 31.648 16.964C30.78 17.776 30.346 18.826 30.346 20.114V24.944ZM46.3421 23.978V20.114C46.3421 17.902 47.1961 15.97 48.9041 14.318C50.6121 12.666 52.6561 11.84 55.0361 11.84C57.3601 11.84 59.3901 12.666 61.1261 14.318C62.8621 15.942 63.7301 17.874 63.7301 20.114V23.978C63.7301 26.162 62.8481 28.108 61.0841 29.816C59.3481 31.496 57.3321 32.336 55.0361 32.336C52.7121 32.336 50.6821 31.496 48.9461 29.816C47.2101 28.136 46.3421 26.19 46.3421 23.978ZM50.7521 23.978C50.7521 25.126 51.1721 26.162 52.0121 27.086C52.8521 27.982 53.8601 28.43 55.0361 28.43C56.1841 28.43 57.1781 27.982 58.0181 27.086C58.8861 26.162 59.3201 25.126 59.3201 23.978V20.114C59.3201 18.994 58.8861 17.986 58.0181 17.09C57.1781 16.194 56.1841 15.746 55.0361 15.746C53.8601 15.746 52.8521 16.194 52.0121 17.09C51.1721 17.986 50.7521 18.994 50.7521 20.114V23.978ZM67.4389 24.062V13.562C67.4389 13.17 67.6629 12.834 68.1109 12.554C68.5589 12.246 69.0769 12.092 69.6649 12.092C70.2529 12.092 70.7569 12.246 71.1769 12.554C71.6249 12.834 71.8489 13.17 71.8489 13.562V24.062C71.8489 25.182 72.2689 26.19 73.1089 27.086C73.9769 27.982 74.9849 28.43 76.1329 28.43C77.3089 28.43 78.3169 27.996 79.1569 27.128C79.9969 26.232 80.4169 25.21 80.4169 24.062V13.52C80.4169 13.128 80.6269 12.792 81.0469 12.512C81.4949 12.232 82.0269 12.092 82.6429 12.092C83.2589 12.092 83.7629 12.232 84.1549 12.512C84.5749 12.792 84.7849 13.128 84.7849 13.52V24.062C84.7849 26.274 83.9309 28.206 82.2229 29.858C80.5149 31.51 78.4849 32.336 76.1329 32.336C73.7809 32.336 71.7369 31.51 70.0009 29.858C68.2929 28.206 67.4389 26.274 67.4389 24.062ZM89.1801 25.448V4.406C89.1801 4.014 89.4041 3.678 89.8521 3.398C90.3001 3.118 90.8041 2.978 91.3641 2.978C91.9241 2.978 92.4281 3.118 92.8761 3.398C93.3521 3.678 93.5901 4.014 93.5901 4.406V12.092H98.7141C99.0781 12.092 99.3721 12.26 99.5961 12.596C99.8201 12.904 99.9321 13.282 99.9321 13.73C99.9321 14.178 99.8201 14.57 99.5961 14.906C99.3721 15.214 99.0781 15.368 98.7141 15.368H93.5901V25.448C93.5901 26.456 93.8001 27.17 94.2201 27.59C94.6681 28.01 95.4381 28.22 96.5301 28.22H98.0001C98.5881 28.22 99.0501 28.402 99.3861 28.766C99.7221 29.13 99.8901 29.578 99.8901 30.11C99.8901 30.642 99.7221 31.09 99.3861 31.454C99.0501 31.818 98.5881 32 98.0001 32H96.5301C91.6301 32 89.1801 29.816 89.1801 25.448ZM110.361 27.38C110.361 26.848 110.557 26.316 110.949 25.784C111.341 25.252 111.789 24.986 112.293 24.986C112.601 24.986 112.965 25.168 113.385 25.532C113.833 25.868 114.267 26.246 114.687 26.666C115.107 27.058 115.737 27.436 116.577 27.8C117.445 28.136 118.411 28.304 119.475 28.304C121.071 28.304 122.345 27.926 123.297 27.17C124.277 26.414 124.767 25.308 124.767 23.852C124.767 22.508 124.291 21.388 123.339 20.492C122.415 19.596 121.281 18.882 119.937 18.35C118.621 17.818 117.291 17.244 115.947 16.628C114.603 16.012 113.455 15.088 112.503 13.856C111.579 12.624 111.117 11.084 111.117 9.236C111.117 7.752 111.397 6.464 111.957 5.372C112.545 4.28 113.329 3.44 114.309 2.852C115.289 2.264 116.311 1.844 117.375 1.592C118.467 1.312 119.615 1.172 120.819 1.172C121.575 1.172 122.359 1.228 123.171 1.34C124.011 1.424 124.837 1.578 125.649 1.802C126.461 2.026 127.133 2.348 127.665 2.768C128.197 3.188 128.463 3.664 128.463 4.196C128.463 4.728 128.295 5.26 127.959 5.792C127.623 6.324 127.175 6.59 126.615 6.59C126.335 6.59 125.957 6.464 125.481 6.212C125.005 5.932 124.361 5.666 123.549 5.414C122.765 5.134 121.855 4.994 120.819 4.994C119.223 4.994 117.949 5.316 116.997 5.96C116.045 6.576 115.569 7.528 115.569 8.816C115.569 9.656 115.821 10.384 116.325 11C116.829 11.588 117.473 12.078 118.257 12.47C119.069 12.862 119.965 13.254 120.945 13.646C121.925 14.01 122.891 14.444 123.843 14.948C124.823 15.452 125.705 16.04 126.489 16.712C127.301 17.356 127.959 18.252 128.463 19.4C128.967 20.548 129.219 21.878 129.219 23.39C129.219 26.302 128.337 28.528 126.573 30.068C124.837 31.58 122.527 32.336 119.643 32.336C117.067 32.336 114.869 31.804 113.049 30.74C111.257 29.648 110.361 28.528 110.361 27.38ZM132.987 30.53V1.676C132.987 1.256 133.183 0.919998 133.575 0.667998C133.995 0.387998 134.527 0.247998 135.171 0.247998C135.787 0.247998 136.305 0.387998 136.725 0.667998C137.173 0.919998 137.397 1.256 137.397 1.676V15.032C137.845 14.136 138.531 13.38 139.455 12.764C140.407 12.148 141.513 11.84 142.773 11.84C144.761 11.84 146.469 12.652 147.897 14.276C149.353 15.9 150.081 17.846 150.081 20.114V30.53C150.081 30.978 149.857 31.342 149.409 31.622C148.961 31.874 148.443 32 147.855 32C147.295 32 146.791 31.874 146.343 31.622C145.895 31.342 145.671 30.978 145.671 30.53V20.114C145.671 18.994 145.251 17.986 144.411 17.09C143.571 16.194 142.577 15.746 141.429 15.746C140.365 15.746 139.427 16.152 138.615 16.964C137.803 17.748 137.397 18.798 137.397 20.114V30.53C137.397 30.894 137.173 31.23 136.725 31.538C136.277 31.846 135.759 32 135.171 32C134.555 32 134.037 31.846 133.617 31.538C133.197 31.23 132.987 30.894 132.987 30.53ZM153.259 26.792C153.259 24.552 154.099 22.998 155.779 22.13C157.459 21.234 159.895 20.786 163.087 20.786H164.935V20.03C164.935 18.798 164.585 17.734 163.885 16.838C163.213 15.942 162.177 15.494 160.777 15.494C159.573 15.494 158.509 15.704 157.585 16.124C156.689 16.544 156.199 16.754 156.115 16.754C155.639 16.754 155.247 16.53 154.939 16.082C154.659 15.606 154.519 15.088 154.519 14.528C154.519 13.8 155.191 13.17 156.535 12.638C157.907 12.106 159.349 11.84 160.861 11.84C163.745 11.84 165.873 12.624 167.245 14.192C168.645 15.732 169.345 17.664 169.345 19.988V30.53C169.345 30.922 169.135 31.272 168.715 31.58C168.323 31.86 167.819 32 167.203 32C166.643 32 166.167 31.86 165.775 31.58C165.383 31.272 165.187 30.922 165.187 30.53V29.06C163.311 31.244 161.197 32.336 158.845 32.336C157.221 32.336 155.877 31.86 154.813 30.908C153.777 29.956 153.259 28.584 153.259 26.792ZM157.711 26.246C157.711 27.142 157.963 27.828 158.467 28.304C158.971 28.752 159.629 28.976 160.441 28.976C161.505 28.976 162.513 28.528 163.465 27.632C164.445 26.736 164.935 25.784 164.935 24.776V23.222H163.885C162.625 23.222 161.589 23.278 160.777 23.39C159.993 23.502 159.279 23.796 158.635 24.272C158.019 24.748 157.711 25.406 157.711 26.246ZM173.837 30.53V13.52C173.837 13.1 174.033 12.764 174.425 12.512C174.845 12.232 175.363 12.092 175.979 12.092C176.539 12.092 177.015 12.232 177.407 12.512C177.799 12.764 177.995 13.1 177.995 13.52V15.368C178.471 14.388 179.185 13.562 180.137 12.89C181.117 12.19 182.181 11.84 183.329 11.84H184.673C185.121 11.84 185.513 12.036 185.849 12.428C186.185 12.792 186.353 13.24 186.353 13.772C186.353 14.304 186.185 14.766 185.849 15.158C185.513 15.55 185.121 15.746 184.673 15.746H183.329C181.985 15.746 180.795 16.32 179.759 17.468C178.751 18.616 178.247 20.1 178.247 21.92V30.53C178.247 30.894 178.023 31.23 177.575 31.538C177.127 31.846 176.595 32 175.979 32C175.363 32 174.845 31.846 174.425 31.538C174.033 31.23 173.837 30.894 173.837 30.53ZM187.712 26.792C187.712 24.552 188.552 22.998 190.232 22.13C191.912 21.234 194.348 20.786 197.54 20.786H199.388V20.03C199.388 18.798 199.038 17.734 198.338 16.838C197.666 15.942 196.63 15.494 195.23 15.494C194.026 15.494 192.962 15.704 192.038 16.124C191.142 16.544 190.652 16.754 190.568 16.754C190.092 16.754 189.7 16.53 189.392 16.082C189.112 15.606 188.972 15.088 188.972 14.528C188.972 13.8 189.644 13.17 190.988 12.638C192.36 12.106 193.802 11.84 195.314 11.84C198.198 11.84 200.326 12.624 201.698 14.192C203.098 15.732 203.798 17.664 203.798 19.988V30.53C203.798 30.922 203.588 31.272 203.168 31.58C202.776 31.86 202.272 32 201.656 32C201.096 32 200.62 31.86 200.228 31.58C199.836 31.272 199.64 30.922 199.64 30.53V29.06C197.764 31.244 195.65 32.336 193.298 32.336C191.674 32.336 190.33 31.86 189.266 30.908C188.23 29.956 187.712 28.584 187.712 26.792ZM192.164 26.246C192.164 27.142 192.416 27.828 192.92 28.304C193.424 28.752 194.082 28.976 194.894 28.976C195.958 28.976 196.966 28.528 197.918 27.632C198.898 26.736 199.388 25.784 199.388 24.776V23.222H198.338C197.078 23.222 196.042 23.278 195.23 23.39C194.446 23.502 193.732 23.796 193.088 24.272C192.472 24.748 192.164 25.406 192.164 26.246ZM208.29 30.53V13.52C208.29 13.1 208.486 12.764 208.878 12.512C209.298 12.232 209.83 12.092 210.474 12.092C211.034 12.092 211.496 12.232 211.86 12.512C212.252 12.764 212.448 13.1 212.448 13.52V15.032C212.896 14.136 213.61 13.38 214.59 12.764C215.598 12.148 216.76 11.84 218.076 11.84C220.064 11.84 221.772 12.652 223.2 14.276C224.656 15.9 225.384 17.846 225.384 20.114V30.53C225.384 30.978 225.16 31.342 224.712 31.622C224.292 31.874 223.774 32 223.158 32C222.598 32 222.094 31.874 221.646 31.622C221.198 31.342 220.974 30.978 220.974 30.53V20.114C220.974 18.994 220.554 17.986 219.714 17.09C218.874 16.194 217.88 15.746 216.732 15.746C215.668 15.746 214.73 16.152 213.918 16.964C213.106 17.748 212.7 18.798 212.7 20.114V30.53C212.7 30.894 212.476 31.23 212.028 31.538C211.58 31.846 211.062 32 210.474 32C209.858 32 209.34 31.846 208.92 31.538C208.5 31.23 208.29 30.894 208.29 30.53ZM229.623 41.45C228.251 41.45 227.565 40.82 227.565 39.56C227.565 38.3 227.971 37.67 228.783 37.67C230.043 37.67 231.289 37.068 232.521 35.864C233.753 34.66 234.509 32.966 234.789 30.782L227.733 14.486C227.621 14.346 227.565 14.15 227.565 13.898C227.565 13.366 227.887 12.89 228.531 12.47C229.175 12.022 229.819 11.798 230.463 11.798C231.163 11.798 231.611 12.064 231.807 12.596L237.099 26.246L241.635 12.596C241.887 12.064 242.307 11.798 242.895 11.798C243.483 11.798 244.113 12.022 244.785 12.47C245.485 12.89 245.835 13.394 245.835 13.982C245.835 14.234 245.807 14.402 245.751 14.486L239.535 30.908L238.821 32.798C238.653 33.19 238.387 33.792 238.023 34.604C237.687 35.416 237.393 36.032 237.141 36.452L236.133 38.006C235.713 38.65 235.293 39.126 234.873 39.434C234.453 39.77 233.977 40.106 233.445 40.442C232.913 40.806 232.325 41.058 231.681 41.198C231.037 41.366 230.351 41.45 229.623 41.45ZM247.39 26.792C247.39 24.552 248.23 22.998 249.91 22.13C251.59 21.234 254.026 20.786 257.218 20.786H259.066V20.03C259.066 18.798 258.716 17.734 258.016 16.838C257.344 15.942 256.308 15.494 254.908 15.494C253.704 15.494 252.64 15.704 251.716 16.124C250.82 16.544 250.33 16.754 250.246 16.754C249.77 16.754 249.378 16.53 249.07 16.082C248.79 15.606 248.65 15.088 248.65 14.528C248.65 13.8 249.322 13.17 250.666 12.638C252.038 12.106 253.48 11.84 254.992 11.84C257.876 11.84 260.004 12.624 261.376 14.192C262.776 15.732 263.476 17.664 263.476 19.988V30.53C263.476 30.922 263.266 31.272 262.846 31.58C262.454 31.86 261.95 32 261.334 32C260.774 32 260.298 31.86 259.906 31.58C259.514 31.272 259.318 30.922 259.318 30.53V29.06C257.442 31.244 255.328 32.336 252.976 32.336C251.352 32.336 250.008 31.86 248.944 30.908C247.908 29.956 247.39 28.584 247.39 26.792ZM251.842 26.246C251.842 27.142 252.094 27.828 252.598 28.304C253.102 28.752 253.76 28.976 254.572 28.976C255.636 28.976 256.644 28.528 257.596 27.632C258.576 26.736 259.066 25.784 259.066 24.776V23.222H258.016C256.756 23.222 255.72 23.278 254.908 23.39C254.124 23.502 253.41 23.796 252.766 24.272C252.15 24.748 251.842 25.406 251.842 26.246Z" fill="#982649"/>
</svg>
