<svg width="107" height="17" viewBox="0 0 107 17" fill="none" xmlns="http://www.w3.org/2000/svg">
<path d="M0.238 12.252C0.238 12.184 0.243667 12.133 0.255 12.099L3.638 1.083C3.774 0.674999 4.15367 0.470999 4.777 0.470999C5.41167 0.470999 5.797 0.674999 5.933 1.083L9.299 12.099C9.32167 12.167 9.333 12.218 9.333 12.252C9.333 12.456 9.20833 12.6317 8.959 12.779C8.721 12.9263 8.466 13 8.194 13C7.86533 13 7.66133 12.8753 7.582 12.626L6.885 10.212H2.686L1.989 12.626C1.90967 12.8753 1.7 13 1.36 13C1.088 13 0.833 12.9263 0.595 12.779C0.357 12.6317 0.238 12.456 0.238 12.252ZM3.077 8.767H6.477L4.777 2.936L3.077 8.767ZM10.4979 12.405V0.725999C10.4979 0.555999 10.5772 0.419999 10.7359 0.317999C10.8946 0.204666 11.1042 0.147999 11.3649 0.147999C11.6256 0.147999 11.8409 0.204666 12.0109 0.317999C12.1922 0.419999 12.2829 0.555999 12.2829 0.725999V6.132C12.4756 5.76933 12.7646 5.46333 13.1499 5.214C13.5352 4.96467 13.9772 4.84 14.4759 4.84C15.3146 4.84 16.0286 5.16867 16.6179 5.826C17.2186 6.48333 17.5189 7.271 17.5189 8.189V9.753C17.5189 10.637 17.2186 11.4247 16.6179 12.116C16.0172 12.796 15.3202 13.136 14.5269 13.136C14.0169 13.136 13.5466 13.0057 13.1159 12.745C12.6852 12.4843 12.3736 12.1727 12.1809 11.81V12.405C12.1809 12.5523 12.0959 12.6883 11.9259 12.813C11.7672 12.9377 11.5802 13 11.3649 13C11.1156 13 10.9059 12.9377 10.7359 12.813C10.5772 12.6883 10.4979 12.5523 10.4979 12.405ZM12.2829 10.144C12.2829 10.3933 12.4586 10.6937 12.8099 11.045C13.1726 11.385 13.5749 11.555 14.0169 11.555C14.4816 11.555 14.8839 11.3737 15.2239 11.011C15.5639 10.637 15.7339 10.2177 15.7339 9.753V8.189C15.7339 7.73567 15.5582 7.32767 15.2069 6.965C14.8669 6.60233 14.4646 6.421 13.9999 6.421C13.5579 6.421 13.1612 6.58533 12.8099 6.914C12.4586 7.24267 12.2829 7.66767 12.2829 8.189V10.144ZM18.7575 9.753V8.189C18.7575 7.29367 19.1032 6.51167 19.7945 5.843C20.4858 5.17433 21.3132 4.84 22.2765 4.84C23.2172 4.84 24.0388 5.17433 24.7415 5.843C25.4442 6.50033 25.7955 7.28233 25.7955 8.189V9.753C25.7955 10.637 25.4385 11.4247 24.7245 12.116C24.0218 12.796 23.2058 13.136 22.2765 13.136C21.3358 13.136 20.5142 12.796 19.8115 12.116C19.1088 11.436 18.7575 10.6483 18.7575 9.753ZM20.5425 9.753C20.5425 10.2177 20.7125 10.637 21.0525 11.011C21.3925 11.3737 21.8005 11.555 22.2765 11.555C22.7412 11.555 23.1435 11.3737 23.4835 11.011C23.8348 10.637 24.0105 10.2177 24.0105 9.753V8.189C24.0105 7.73567 23.8348 7.32767 23.4835 6.965C23.1435 6.60233 22.7412 6.421 22.2765 6.421C21.8005 6.421 21.3925 6.60233 21.0525 6.965C20.7125 7.32767 20.5425 7.73567 20.5425 8.189V9.753ZM27.2967 9.787V5.537C27.2967 5.37833 27.3874 5.24233 27.5687 5.129C27.75 5.00433 27.9597 4.942 28.1977 4.942C28.4357 4.942 28.6397 5.00433 28.8097 5.129C28.991 5.24233 29.0817 5.37833 29.0817 5.537V9.787C29.0817 10.2403 29.2517 10.6483 29.5917 11.011C29.943 11.3737 30.351 11.555 30.8157 11.555C31.2917 11.555 31.6997 11.3793 32.0397 11.028C32.3797 10.6653 32.5497 10.2517 32.5497 9.787V5.52C32.5497 5.36133 32.6347 5.22533 32.8047 5.112C32.986 4.99867 33.2014 4.942 33.4507 4.942C33.7 4.942 33.904 4.99867 34.0627 5.112C34.2327 5.22533 34.3177 5.36133 34.3177 5.52V9.787C34.3177 10.6823 33.972 11.4643 33.2807 12.133C32.5894 12.8017 31.7677 13.136 30.8157 13.136C29.8637 13.136 29.0364 12.8017 28.3337 12.133C27.6424 11.4643 27.2967 10.6823 27.2967 9.787ZM36.0967 10.348V1.831C36.0967 1.67233 36.1874 1.53633 36.3687 1.423C36.55 1.30967 36.754 1.253 36.9807 1.253C37.2074 1.253 37.4114 1.30967 37.5927 1.423C37.7854 1.53633 37.8817 1.67233 37.8817 1.831V4.942H39.9557C40.103 4.942 40.222 5.01 40.3127 5.146C40.4034 5.27067 40.4487 5.42367 40.4487 5.605C40.4487 5.78633 40.4034 5.945 40.3127 6.081C40.222 6.20567 40.103 6.268 39.9557 6.268H37.8817V10.348C37.8817 10.756 37.9667 11.045 38.1367 11.215C38.318 11.385 38.6297 11.47 39.0717 11.47H39.6667C39.9047 11.47 40.0917 11.5437 40.2277 11.691C40.3637 11.8383 40.4317 12.0197 40.4317 12.235C40.4317 12.4503 40.3637 12.6317 40.2277 12.779C40.0917 12.9263 39.9047 13 39.6667 13H39.0717C37.0884 13 36.0967 12.116 36.0967 10.348ZM44.6698 11.13C44.6698 10.9147 44.7491 10.6993 44.9078 10.484C45.0664 10.2687 45.2478 10.161 45.4518 10.161C45.5764 10.161 45.7238 10.2347 45.8938 10.382C46.0751 10.518 46.2508 10.671 46.4208 10.841C46.5908 10.9997 46.8458 11.1527 47.1858 11.3C47.5371 11.436 47.9281 11.504 48.3588 11.504C49.0048 11.504 49.5204 11.351 49.9058 11.045C50.3024 10.739 50.5008 10.2913 50.5008 9.702C50.5008 9.158 50.3081 8.70467 49.9228 8.342C49.5488 7.97933 49.0898 7.69033 48.5458 7.475C48.0131 7.25967 47.4748 7.02733 46.9308 6.778C46.3868 6.52867 45.9221 6.15467 45.5368 5.656C45.1628 5.15733 44.9758 4.534 44.9758 3.786C44.9758 3.18533 45.0891 2.664 45.3158 2.222C45.5538 1.78 45.8711 1.44 46.2678 1.202C46.6644 0.964 47.0781 0.793999 47.5088 0.691999C47.9508 0.578666 48.4154 0.522 48.9028 0.522C49.2088 0.522 49.5261 0.544666 49.8548 0.59C50.1948 0.623999 50.5291 0.686332 50.8578 0.776999C51.1864 0.867666 51.4584 0.997999 51.6738 1.168C51.8891 1.338 51.9968 1.53067 51.9968 1.746C51.9968 1.96133 51.9288 2.17667 51.7928 2.392C51.6568 2.60733 51.4754 2.715 51.2488 2.715C51.1354 2.715 50.9824 2.664 50.7898 2.562C50.5971 2.44867 50.3364 2.341 50.0078 2.239C49.6904 2.12567 49.3221 2.069 48.9028 2.069C48.2568 2.069 47.7411 2.19933 47.3558 2.46C46.9704 2.70933 46.7778 3.09467 46.7778 3.616C46.7778 3.956 46.8798 4.25067 47.0838 4.5C47.2878 4.738 47.5484 4.93633 47.8658 5.095C48.1944 5.25367 48.5571 5.41233 48.9538 5.571C49.3504 5.71833 49.7414 5.894 50.1268 6.098C50.5234 6.302 50.8804 6.54 51.1978 6.812C51.5264 7.07267 51.7928 7.43533 51.9968 7.9C52.2008 8.36467 52.3028 8.903 52.3028 9.515C52.3028 10.6937 51.9458 11.5947 51.2318 12.218C50.5291 12.83 49.5941 13.136 48.4268 13.136C47.3841 13.136 46.4944 12.9207 45.7578 12.49C45.0324 12.048 44.6698 11.5947 44.6698 11.13ZM53.828 12.405V0.725999C53.828 0.555999 53.9073 0.419999 54.066 0.317999C54.236 0.204666 54.4513 0.147999 54.712 0.147999C54.9613 0.147999 55.171 0.204666 55.341 0.317999C55.5223 0.419999 55.613 0.555999 55.613 0.725999V6.132C55.7943 5.76933 56.072 5.46333 56.446 5.214C56.8313 4.96467 57.279 4.84 57.789 4.84C58.5936 4.84 59.285 5.16867 59.863 5.826C60.4523 6.48333 60.747 7.271 60.747 8.189V12.405C60.747 12.5863 60.6563 12.7337 60.475 12.847C60.2936 12.949 60.084 13 59.846 13C59.6193 13 59.4153 12.949 59.234 12.847C59.0526 12.7337 58.962 12.5863 58.962 12.405V8.189C58.962 7.73567 58.792 7.32767 58.452 6.965C58.112 6.60233 57.7096 6.421 57.245 6.421C56.8143 6.421 56.4346 6.58533 56.106 6.914C55.7773 7.23133 55.613 7.65633 55.613 8.189V12.405C55.613 12.5523 55.5223 12.6883 55.341 12.813C55.1596 12.9377 54.95 13 54.712 13C54.4626 13 54.253 12.9377 54.083 12.813C53.913 12.6883 53.828 12.5523 53.828 12.405ZM62.0334 10.892C62.0334 9.98533 62.3734 9.35633 63.0534 9.005C63.7334 8.64233 64.7194 8.461 66.0114 8.461H66.7594V8.155C66.7594 7.65633 66.6177 7.22567 66.3344 6.863C66.0624 6.50033 65.6431 6.319 65.0764 6.319C64.5891 6.319 64.1584 6.404 63.7844 6.574C63.4217 6.744 63.2234 6.829 63.1894 6.829C62.9967 6.829 62.8381 6.73833 62.7134 6.557C62.6001 6.36433 62.5434 6.15467 62.5434 5.928C62.5434 5.63333 62.8154 5.37833 63.3594 5.163C63.9147 4.94767 64.4984 4.84 65.1104 4.84C66.2777 4.84 67.1391 5.15733 67.6944 5.792C68.2611 6.41533 68.5444 7.19733 68.5444 8.138V12.405C68.5444 12.5637 68.4594 12.7053 68.2894 12.83C68.1307 12.9433 67.9267 13 67.6774 13C67.4507 13 67.2581 12.9433 67.0994 12.83C66.9407 12.7053 66.8614 12.5637 66.8614 12.405V11.81C66.1021 12.694 65.2464 13.136 64.2944 13.136C63.6371 13.136 63.0931 12.9433 62.6624 12.558C62.2431 12.1727 62.0334 11.6173 62.0334 10.892ZM63.8354 10.671C63.8354 11.0337 63.9374 11.3113 64.1414 11.504C64.3454 11.6853 64.6117 11.776 64.9404 11.776C65.3711 11.776 65.7791 11.5947 66.1644 11.232C66.5611 10.8693 66.7594 10.484 66.7594 10.076V9.447H66.3344C65.8244 9.447 65.4051 9.46967 65.0764 9.515C64.7591 9.56033 64.4701 9.67933 64.2094 9.872C63.9601 10.0647 63.8354 10.331 63.8354 10.671ZM70.3627 12.405V5.52C70.3627 5.35 70.4421 5.214 70.6007 5.112C70.7707 4.99867 70.9804 4.942 71.2297 4.942C71.4564 4.942 71.6491 4.99867 71.8077 5.112C71.9664 5.214 72.0457 5.35 72.0457 5.52V6.268C72.2384 5.87133 72.5274 5.537 72.9127 5.265C73.3094 4.98167 73.7401 4.84 74.2047 4.84H74.7487C74.9301 4.84 75.0887 4.91933 75.2247 5.078C75.3607 5.22533 75.4287 5.40667 75.4287 5.622C75.4287 5.83733 75.3607 6.02433 75.2247 6.183C75.0887 6.34167 74.9301 6.421 74.7487 6.421H74.2047C73.6607 6.421 73.1791 6.65333 72.7597 7.118C72.3517 7.58267 72.1477 8.18333 72.1477 8.92V12.405C72.1477 12.5523 72.0571 12.6883 71.8757 12.813C71.6944 12.9377 71.4791 13 71.2297 13C70.9804 13 70.7707 12.9377 70.6007 12.813C70.4421 12.6883 70.3627 12.5523 70.3627 12.405ZM75.9787 10.892C75.9787 9.98533 76.3187 9.35633 76.9987 9.005C77.6787 8.64233 78.6647 8.461 79.9567 8.461H80.7047V8.155C80.7047 7.65633 80.563 7.22567 80.2797 6.863C80.0077 6.50033 79.5884 6.319 79.0217 6.319C78.5344 6.319 78.1037 6.404 77.7297 6.574C77.367 6.744 77.1687 6.829 77.1347 6.829C76.942 6.829 76.7834 6.73833 76.6587 6.557C76.5454 6.36433 76.4887 6.15467 76.4887 5.928C76.4887 5.63333 76.7607 5.37833 77.3047 5.163C77.86 4.94767 78.4437 4.84 79.0557 4.84C80.223 4.84 81.0844 5.15733 81.6397 5.792C82.2064 6.41533 82.4897 7.19733 82.4897 8.138V12.405C82.4897 12.5637 82.4047 12.7053 82.2347 12.83C82.076 12.9433 81.872 13 81.6227 13C81.396 13 81.2034 12.9433 81.0447 12.83C80.886 12.7053 80.8067 12.5637 80.8067 12.405V11.81C80.0474 12.694 79.1917 13.136 78.2397 13.136C77.5824 13.136 77.0384 12.9433 76.6077 12.558C76.1884 12.1727 75.9787 11.6173 75.9787 10.892ZM77.7807 10.671C77.7807 11.0337 77.8827 11.3113 78.0867 11.504C78.2907 11.6853 78.557 11.776 78.8857 11.776C79.3164 11.776 79.7244 11.5947 80.1097 11.232C80.5064 10.8693 80.7047 10.484 80.7047 10.076V9.447H80.2797C79.7697 9.447 79.3504 9.46967 79.0217 9.515C78.7044 9.56033 78.4154 9.67933 78.1547 9.872C77.9054 10.0647 77.7807 10.331 77.7807 10.671ZM84.308 12.405V5.52C84.308 5.35 84.3874 5.214 84.546 5.112C84.716 4.99867 84.9314 4.942 85.192 4.942C85.4187 4.942 85.6057 4.99867 85.753 5.112C85.9117 5.214 85.991 5.35 85.991 5.52V6.132C86.1724 5.76933 86.4614 5.46333 86.858 5.214C87.266 4.96467 87.7364 4.84 88.269 4.84C89.0737 4.84 89.765 5.16867 90.343 5.826C90.9324 6.48333 91.227 7.271 91.227 8.189V12.405C91.227 12.5863 91.1364 12.7337 90.955 12.847C90.785 12.949 90.5754 13 90.326 13C90.0994 13 89.8954 12.949 89.714 12.847C89.5327 12.7337 89.442 12.5863 89.442 12.405V8.189C89.442 7.73567 89.272 7.32767 88.932 6.965C88.592 6.60233 88.1897 6.421 87.725 6.421C87.2944 6.421 86.9147 6.58533 86.586 6.914C86.2574 7.23133 86.093 7.65633 86.093 8.189V12.405C86.093 12.5523 86.0024 12.6883 85.821 12.813C85.6397 12.9377 85.43 13 85.192 13C84.9427 13 84.733 12.9377 84.563 12.813C84.393 12.6883 84.308 12.5523 84.308 12.405ZM92.9425 16.825C92.3871 16.825 92.1095 16.57 92.1095 16.06C92.1095 15.55 92.2738 15.295 92.6025 15.295C93.1125 15.295 93.6168 15.0513 94.1155 14.564C94.6141 14.0767 94.9201 13.391 95.0335 12.507L92.1775 5.911C92.1321 5.85433 92.1095 5.775 92.1095 5.673C92.1095 5.45767 92.2398 5.265 92.5005 5.095C92.7611 4.91367 93.0218 4.823 93.2825 4.823C93.5658 4.823 93.7471 4.93067 93.8265 5.146L95.9685 10.671L97.8045 5.146C97.9065 4.93067 98.0765 4.823 98.3145 4.823C98.5525 4.823 98.8075 4.91367 99.0795 5.095C99.3628 5.265 99.5045 5.469 99.5045 5.707C99.5045 5.809 99.4931 5.877 99.4705 5.911L96.9545 12.558L96.6655 13.323C96.5975 13.4817 96.4898 13.7253 96.3425 14.054C96.2065 14.3827 96.0875 14.632 95.9855 14.802L95.5775 15.431C95.4075 15.6917 95.2375 15.8843 95.0675 16.009C94.8975 16.145 94.7048 16.281 94.4895 16.417C94.2741 16.5643 94.0361 16.6663 93.7755 16.723C93.5148 16.791 93.2371 16.825 92.9425 16.825ZM100.134 10.892C100.134 9.98533 100.474 9.35633 101.154 9.005C101.834 8.64233 102.82 8.461 104.112 8.461H104.86V8.155C104.86 7.65633 104.718 7.22567 104.435 6.863C104.163 6.50033 103.744 6.319 103.177 6.319C102.69 6.319 102.259 6.404 101.885 6.574C101.522 6.744 101.324 6.829 101.29 6.829C101.097 6.829 100.939 6.73833 100.814 6.557C100.701 6.36433 100.644 6.15467 100.644 5.928C100.644 5.63333 100.916 5.37833 101.46 5.163C102.015 4.94767 102.599 4.84 103.211 4.84C104.378 4.84 105.24 5.15733 105.795 5.792C106.362 6.41533 106.645 7.19733 106.645 8.138V12.405C106.645 12.5637 106.56 12.7053 106.39 12.83C106.231 12.9433 106.027 13 105.778 13C105.551 13 105.359 12.9433 105.2 12.83C105.041 12.7053 104.962 12.5637 104.962 12.405V11.81C104.203 12.694 103.347 13.136 102.395 13.136C101.738 13.136 101.194 12.9433 100.763 12.558C100.344 12.1727 100.134 11.6173 100.134 10.892ZM101.936 10.671C101.936 11.0337 102.038 11.3113 102.242 11.504C102.446 11.6853 102.712 11.776 103.041 11.776C103.472 11.776 103.88 11.5947 104.265 11.232C104.662 10.8693 104.86 10.484 104.86 10.076V9.447H104.435C103.925 9.447 103.506 9.46967 103.177 9.515C102.86 9.56033 102.571 9.67933 102.31 9.872C102.061 10.0647 101.936 10.331 101.936 10.671Z" fill="#982649"/>
</svg>
