<svg width="98" height="41" viewBox="0 0 98 41" fill="none" xmlns="http://www.w3.org/2000/svg">
<path d="M0.529016 16.252C0.529016 16.184 0.534682 16.133 0.546016 16.099L3.92902 5.083C4.06502 4.675 4.44468 4.471 5.06802 4.471C5.70268 4.471 6.08802 4.675 6.22402 5.083L9.59002 16.099C9.61268 16.167 9.62402 16.218 9.62402 16.252C9.62402 16.456 9.49935 16.6317 9.25002 16.779C9.01202 16.9263 8.75702 17 8.48502 17C8.15635 17 7.95235 16.8753 7.87302 16.626L7.17602 14.212H2.97702L2.28002 16.626C2.20068 16.8753 1.99102 17 1.65102 17C1.37902 17 1.12402 16.9263 0.886016 16.779C0.648016 16.6317 0.529016 16.456 0.529016 16.252ZM3.36802 12.767H6.76802L5.06802 6.936L3.36802 12.767ZM10.4659 13.753V12.189C10.4659 11.271 10.7606 10.4833 11.3499 9.826C11.9506 9.16867 12.6702 8.84 13.5089 8.84C14.0076 8.84 14.4496 8.96467 14.8349 9.214C15.2202 9.46333 15.5149 9.76933 15.7189 10.132V4.726C15.7189 4.556 15.8039 4.42 15.9739 4.318C16.1439 4.20467 16.3592 4.148 16.6199 4.148C16.8806 4.148 17.0902 4.20467 17.2489 4.318C17.4189 4.42 17.5039 4.556 17.5039 4.726V16.405C17.5039 16.5523 17.4189 16.6883 17.2489 16.813C17.0789 16.9377 16.8692 17 16.6199 17C16.4046 17 16.2119 16.9377 16.0419 16.813C15.8832 16.6883 15.8039 16.5523 15.8039 16.405V15.81C15.6226 16.1727 15.3109 16.4843 14.8689 16.745C14.4382 17.0057 13.9679 17.136 13.4579 17.136C12.6646 17.136 11.9676 16.796 11.3669 16.116C10.7662 15.4247 10.4659 14.637 10.4659 13.753ZM12.2509 13.753C12.2509 14.2177 12.4209 14.637 12.7609 15.011C13.1009 15.3737 13.5032 15.555 13.9679 15.555C14.4099 15.555 14.8122 15.385 15.1749 15.045C15.5376 14.6937 15.7189 14.3933 15.7189 14.144V12.189C15.7189 11.6677 15.5432 11.2427 15.1919 10.914C14.8406 10.5853 14.4382 10.421 13.9849 10.421C13.5202 10.421 13.1122 10.6023 12.7609 10.965C12.4209 11.3277 12.2509 11.7357 12.2509 12.189V13.753ZM18.8781 14.892C18.8781 13.9853 19.2181 13.3563 19.8981 13.005C20.5781 12.6423 21.5641 12.461 22.8561 12.461H23.6041V12.155C23.6041 11.6563 23.4625 11.2257 23.1791 10.863C22.9071 10.5003 22.4878 10.319 21.9211 10.319C21.4338 10.319 21.0031 10.404 20.6291 10.574C20.2665 10.744 20.0681 10.829 20.0341 10.829C19.8415 10.829 19.6828 10.7383 19.5581 10.557C19.4448 10.3643 19.3881 10.1547 19.3881 9.928C19.3881 9.63333 19.6601 9.37833 20.2041 9.163C20.7595 8.94767 21.3431 8.84 21.9551 8.84C23.1225 8.84 23.9838 9.15733 24.5391 9.792C25.1058 10.4153 25.3891 11.1973 25.3891 12.138V16.405C25.3891 16.5637 25.3041 16.7053 25.1341 16.83C24.9755 16.9433 24.7715 17 24.5221 17C24.2955 17 24.1028 16.9433 23.9441 16.83C23.7855 16.7053 23.7061 16.5637 23.7061 16.405V15.81C22.9468 16.694 22.0911 17.136 21.1391 17.136C20.4818 17.136 19.9378 16.9433 19.5071 16.558C19.0878 16.1727 18.8781 15.6173 18.8781 14.892ZM20.6801 14.671C20.6801 15.0337 20.7821 15.3113 20.9861 15.504C21.1901 15.6853 21.4565 15.776 21.7851 15.776C22.2158 15.776 22.6238 15.5947 23.0091 15.232C23.4058 14.8693 23.6041 14.484 23.6041 14.076V13.447H23.1791C22.6691 13.447 22.2498 13.4697 21.9211 13.515C21.6038 13.5603 21.3148 13.6793 21.0541 13.872C20.8048 14.0647 20.6801 14.331 20.6801 14.671ZM26.3093 9.639C26.3093 9.435 26.4396 9.25933 26.7003 9.112C26.9609 8.95333 27.2216 8.874 27.4823 8.874C27.7656 8.874 27.9469 8.98167 28.0263 9.197L30.0493 14.569L32.0723 9.231C32.1629 8.993 32.3443 8.874 32.6163 8.874C32.8316 8.874 33.0809 8.95333 33.3643 9.112C33.6476 9.27067 33.7893 9.44633 33.7893 9.639C33.7893 9.71833 33.7666 9.81467 33.7213 9.928L30.8653 16.813C30.7633 17.051 30.4913 17.17 30.0493 17.17C29.6073 17.17 29.3353 17.051 29.2333 16.813L26.3943 9.928C26.3376 9.81467 26.3093 9.71833 26.3093 9.639ZM34.826 13.787V9.537C34.826 9.37833 34.9167 9.24233 35.098 9.129C35.2793 9.00433 35.489 8.942 35.727 8.942C35.965 8.942 36.169 9.00433 36.339 9.129C36.5203 9.24233 36.611 9.37833 36.611 9.537V13.787C36.611 14.2403 36.781 14.6483 37.121 15.011C37.4723 15.3737 37.8803 15.555 38.345 15.555C38.821 15.555 39.229 15.3793 39.569 15.028C39.909 14.6653 40.079 14.2517 40.079 13.787V9.52C40.079 9.36133 40.164 9.22533 40.334 9.112C40.5153 8.99867 40.7307 8.942 40.98 8.942C41.2293 8.942 41.4333 8.99867 41.592 9.112C41.762 9.22533 41.847 9.36133 41.847 9.52V13.787C41.847 14.6823 41.5013 15.4643 40.81 16.133C40.1187 16.8017 39.297 17.136 38.345 17.136C37.393 17.136 36.5657 16.8017 35.863 16.133C35.1717 15.4643 34.826 14.6823 34.826 13.787ZM47.1143 13.311V8.364C47.1143 7.06067 47.46 6.103 48.1513 5.491C48.8427 4.879 49.7493 4.573 50.8713 4.573C52.016 4.573 52.9453 4.862 53.6593 5.44C54.3847 6.00667 54.7473 6.766 54.7473 7.718C54.7473 8.04667 54.6737 8.27333 54.5263 8.398C54.3903 8.52267 54.1637 8.585 53.8463 8.585C53.257 8.585 52.9567 8.38667 52.9453 7.99C52.8207 6.77733 52.1463 6.171 50.9223 6.171C49.585 6.171 48.9163 6.902 48.9163 8.364V13.311C48.9163 14.773 49.585 15.504 50.9223 15.504C51.5683 15.504 52.067 15.3227 52.4183 14.96C52.7697 14.5973 52.9453 14.0477 52.9453 13.311V11.917H51.2283C51.047 11.917 50.9053 11.849 50.8033 11.713C50.7013 11.5657 50.6503 11.39 50.6503 11.186C50.6503 11.0047 50.7013 10.8403 50.8033 10.693C50.9053 10.5457 51.047 10.472 51.2283 10.472H54.1523C54.3337 10.472 54.4753 10.5343 54.5773 10.659C54.6907 10.7723 54.7473 10.914 54.7473 11.084V13.311C54.7473 14.6143 54.396 15.572 53.6933 16.184C53.002 16.796 52.0783 17.102 50.9223 17.102C49.7663 17.102 48.8427 16.796 48.1513 16.184C47.46 15.572 47.1143 14.6143 47.1143 13.311ZM56.4926 16.405V9.52C56.4926 9.35 56.572 9.214 56.7306 9.112C56.9006 8.99867 57.1103 8.942 57.3596 8.942C57.5863 8.942 57.779 8.99867 57.9376 9.112C58.0963 9.214 58.1756 9.35 58.1756 9.52V10.268C58.3683 9.87133 58.6573 9.537 59.0426 9.265C59.4393 8.98167 59.87 8.84 60.3346 8.84H60.8786C61.06 8.84 61.2186 8.91933 61.3546 9.078C61.4906 9.22533 61.5586 9.40667 61.5586 9.622C61.5586 9.83733 61.4906 10.0243 61.3546 10.183C61.2186 10.3417 61.06 10.421 60.8786 10.421H60.3346C59.7906 10.421 59.309 10.6533 58.8896 11.118C58.4816 11.5827 58.2776 12.1833 58.2776 12.92V16.405C58.2776 16.5523 58.187 16.6883 58.0056 16.813C57.8243 16.9377 57.609 17 57.3596 17C57.1103 17 56.9006 16.9377 56.7306 16.813C56.572 16.6883 56.4926 16.5523 56.4926 16.405ZM62.0964 13.753V12.189C62.0964 11.2937 62.442 10.5117 63.1334 9.843C63.8247 9.17433 64.652 8.84 65.6154 8.84C66.556 8.84 67.3777 9.17433 68.0804 9.843C68.783 10.5003 69.1344 11.2823 69.1344 12.189V13.753C69.1344 14.637 68.7774 15.4247 68.0634 16.116C67.3607 16.796 66.5447 17.136 65.6154 17.136C64.6747 17.136 63.853 16.796 63.1504 16.116C62.4477 15.436 62.0964 14.6483 62.0964 13.753ZM63.8814 13.753C63.8814 14.2177 64.0514 14.637 64.3914 15.011C64.7314 15.3737 65.1394 15.555 65.6154 15.555C66.08 15.555 66.4824 15.3737 66.8224 15.011C67.1737 14.637 67.3494 14.2177 67.3494 13.753V12.189C67.3494 11.7357 67.1737 11.3277 66.8224 10.965C66.4824 10.6023 66.08 10.421 65.6154 10.421C65.1394 10.421 64.7314 10.6023 64.3914 10.965C64.0514 11.3277 63.8814 11.7357 63.8814 12.189V13.753ZM70.6356 13.787V9.537C70.6356 9.37833 70.7262 9.24233 70.9076 9.129C71.0889 9.00433 71.2986 8.942 71.5366 8.942C71.7746 8.942 71.9786 9.00433 72.1486 9.129C72.3299 9.24233 72.4206 9.37833 72.4206 9.537V13.787C72.4206 14.2403 72.5906 14.6483 72.9306 15.011C73.2819 15.3737 73.6899 15.555 74.1546 15.555C74.6306 15.555 75.0386 15.3793 75.3786 15.028C75.7186 14.6653 75.8886 14.2517 75.8886 13.787V9.52C75.8886 9.36133 75.9736 9.22533 76.1436 9.112C76.3249 8.99867 76.5402 8.942 76.7896 8.942C77.0389 8.942 77.2429 8.99867 77.4016 9.112C77.5716 9.22533 77.6566 9.36133 77.6566 9.52V13.787C77.6566 14.6823 77.3109 15.4643 76.6196 16.133C75.9282 16.8017 75.1066 17.136 74.1546 17.136C73.2026 17.136 72.3752 16.8017 71.6726 16.133C70.9812 15.4643 70.6356 14.6823 70.6356 13.787ZM79.4696 20.23V9.52C79.4696 9.35 79.5489 9.214 79.7076 9.112C79.8776 8.99867 80.0816 8.942 80.3196 8.942C80.5576 8.942 80.7559 8.99867 80.9146 9.112C81.0732 9.214 81.1526 9.35 81.1526 9.52V10.132C81.3566 9.76933 81.6569 9.46333 82.0536 9.214C82.4616 8.96467 82.9206 8.84 83.4306 8.84C84.2806 8.84 85.0002 9.16867 85.5896 9.826C86.1902 10.4833 86.4906 11.271 86.4906 12.189V13.753C86.4906 14.637 86.1902 15.4247 85.5896 16.116C84.9889 16.796 84.2919 17.136 83.4986 17.136C83.0112 17.136 82.5579 17.0057 82.1386 16.745C81.7306 16.4843 81.4359 16.1727 81.2546 15.81V20.23C81.2546 20.3887 81.1639 20.5247 80.9826 20.638C80.8012 20.7627 80.5859 20.825 80.3366 20.825C80.0872 20.825 79.8776 20.7627 79.7076 20.638C79.5489 20.5247 79.4696 20.3887 79.4696 20.23ZM81.2546 14.144C81.2546 14.3933 81.4246 14.6937 81.7646 15.045C82.1159 15.385 82.5182 15.555 82.9716 15.555C83.4249 15.555 83.8272 15.3737 84.1786 15.011C84.5299 14.637 84.7056 14.2177 84.7056 13.753V12.189C84.7056 11.7357 84.5299 11.3277 84.1786 10.965C83.8272 10.6023 83.4136 10.421 82.9376 10.421C82.4956 10.421 82.1046 10.5853 81.7646 10.914C81.4246 11.2313 81.2546 11.6563 81.2546 12.189V14.144ZM87.5762 15.776C87.5762 15.606 87.6329 15.4303 87.7462 15.249C87.8709 15.0677 88.0182 14.977 88.1882 14.977C88.2902 14.977 88.4319 15.045 88.6132 15.181C88.7945 15.3057 89.0382 15.436 89.3442 15.572C89.6502 15.6967 90.0185 15.759 90.4492 15.759C91.4125 15.759 91.8942 15.453 91.8942 14.841C91.8942 14.5123 91.7525 14.2573 91.4692 14.076C91.1859 13.8833 90.8402 13.736 90.4322 13.634C90.0355 13.5207 89.6389 13.396 89.2422 13.26C88.8455 13.124 88.5055 12.8917 88.2222 12.563C87.9389 12.2343 87.7972 11.8093 87.7972 11.288C87.7972 10.6193 88.0352 10.047 88.5112 9.571C88.9872 9.08367 89.7182 8.84 90.7042 8.84C91.3502 8.84 91.9339 8.942 92.4552 9.146C92.9879 9.33867 93.2542 9.571 93.2542 9.843C93.2542 10.0017 93.1862 10.1887 93.0502 10.404C92.9255 10.608 92.7669 10.71 92.5742 10.71C92.5062 10.71 92.2739 10.6307 91.8772 10.472C91.4805 10.302 91.1009 10.217 90.7382 10.217C90.2849 10.217 89.9392 10.319 89.7012 10.523C89.4745 10.727 89.3612 10.9537 89.3612 11.203C89.3612 11.475 89.5029 11.6903 89.7862 11.849C90.0695 12.0077 90.4152 12.138 90.8232 12.24C91.2312 12.342 91.6335 12.4667 92.0302 12.614C92.4382 12.7613 92.7839 13.0163 93.0672 13.379C93.3505 13.7417 93.4922 14.2063 93.4922 14.773C93.4922 15.5097 93.2315 16.0877 92.7102 16.507C92.1889 16.9263 91.4522 17.136 90.5002 17.136C89.6955 17.136 89.0042 16.9943 88.4262 16.711C87.8595 16.4277 87.5762 16.116 87.5762 15.776ZM95.1292 16.813C94.9366 16.609 94.8402 16.3653 94.8402 16.082C94.8402 15.7987 94.9366 15.5607 95.1292 15.368C95.3219 15.164 95.5656 15.062 95.8602 15.062C96.1322 15.062 96.3646 15.164 96.5572 15.368C96.7612 15.5607 96.8632 15.7987 96.8632 16.082C96.8632 16.354 96.7612 16.592 96.5572 16.796C96.3646 17 96.1322 17.102 95.8602 17.102C95.5656 17.102 95.3219 17.0057 95.1292 16.813ZM95.1292 11.577C94.9366 11.373 94.8402 11.1293 94.8402 10.846C94.8402 10.5627 94.9366 10.3247 95.1292 10.132C95.3219 9.928 95.5656 9.826 95.8602 9.826C96.1322 9.826 96.3646 9.928 96.5572 10.132C96.7612 10.3247 96.8632 10.5627 96.8632 10.846C96.8632 11.118 96.7612 11.356 96.5572 11.56C96.3646 11.764 96.1322 11.866 95.8602 11.866C95.5656 11.866 95.3219 11.7697 95.1292 11.577Z" fill="#596F62"/>
<path d="M21.3077 32.577C21.3077 32.4297 21.3727 32.2997 21.5027 32.187L22.5687 30.679C22.664 30.549 22.7723 30.484 22.8937 30.484C22.989 30.484 23.0757 30.5143 23.1537 30.575C23.2317 30.6357 23.2707 30.7137 23.2707 30.809V39.662C23.2707 39.766 23.2273 39.8483 23.1407 39.909C23.054 39.9697 22.9543 40 22.8417 40C22.7203 40 22.6163 39.9697 22.5297 39.909C22.4517 39.8483 22.4127 39.766 22.4127 39.662V31.953L21.8927 32.798C21.8233 32.902 21.741 32.954 21.6457 32.954C21.5503 32.954 21.468 32.9193 21.3987 32.85C21.338 32.772 21.3077 32.681 21.3077 32.577ZM27.5944 39.662V30.393C27.5944 30.3063 27.6334 30.2327 27.7114 30.172C27.7894 30.1113 27.8891 30.081 28.0104 30.081C28.1317 30.081 28.2314 30.1113 28.3094 30.172C28.3961 30.2327 28.4394 30.3063 28.4394 30.393V34.761C28.5867 34.4837 28.8077 34.2497 29.1024 34.059C29.4057 33.8683 29.7567 33.773 30.1554 33.773C30.7794 33.773 31.3167 34.0113 31.7674 34.488C32.2267 34.9647 32.4564 35.5367 32.4564 36.204V39.662C32.4564 39.766 32.4131 39.8483 32.3264 39.909C32.2484 39.9697 32.1487 40 32.0274 40C31.9234 40 31.8281 39.9697 31.7414 39.909C31.6547 39.8483 31.6114 39.766 31.6114 39.662V36.204C31.6114 35.7793 31.4511 35.398 31.1304 35.06C30.8097 34.722 30.4327 34.553 29.9994 34.553C29.5921 34.553 29.2281 34.7047 28.9074 35.008C28.5954 35.3113 28.4394 35.71 28.4394 36.204V39.662C28.4394 39.7487 28.3961 39.8267 28.3094 39.896C28.2227 39.9653 28.1231 40 28.0104 40C27.8977 40 27.7981 39.9653 27.7114 39.896C27.6334 39.8267 27.5944 39.7487 27.5944 39.662ZM33.7966 37.621V36.204C33.7966 35.5453 34.0393 34.9777 34.5246 34.501C35.0099 34.0157 35.5863 33.773 36.2536 33.773C36.9209 33.773 37.5016 34.0113 37.9956 34.488C38.4896 34.9647 38.7366 35.5367 38.7366 36.204V37.621C38.7366 38.271 38.4853 38.8473 37.9826 39.35C37.4886 39.844 36.9123 40.091 36.2536 40.091C35.6036 40.091 35.0316 39.844 34.5376 39.35C34.0436 38.8473 33.7966 38.271 33.7966 37.621ZM34.6416 37.621C34.6416 38.063 34.7976 38.4573 35.1096 38.804C35.4303 39.142 35.8116 39.311 36.2536 39.311C36.7043 39.311 37.0899 39.142 37.4106 38.804C37.7313 38.4573 37.8916 38.063 37.8916 37.621V36.204C37.8916 35.7793 37.7269 35.398 37.3976 35.06C37.0769 34.722 36.6956 34.553 36.2536 34.553C35.8116 34.553 35.4303 34.722 35.1096 35.06C34.7976 35.398 34.6416 35.7793 34.6416 36.204V37.621ZM40.0597 37.647V34.176C40.0597 34.098 40.0987 34.0243 40.1767 33.955C40.2633 33.8857 40.3673 33.851 40.4887 33.851C40.5927 33.851 40.688 33.8857 40.7747 33.955C40.8613 34.0243 40.9047 34.098 40.9047 34.176V37.647C40.9047 38.0803 41.065 38.466 41.3857 38.804C41.7063 39.142 42.0877 39.311 42.5297 39.311C42.9717 39.311 43.353 39.142 43.6737 38.804C43.9943 38.466 44.1547 38.0803 44.1547 37.647V34.163C44.1547 34.0763 44.198 34.0027 44.2847 33.942C44.3713 33.8813 44.471 33.851 44.5837 33.851C44.6963 33.851 44.7917 33.8813 44.8697 33.942C44.9563 34.0027 44.9997 34.0763 44.9997 34.163V37.647C44.9997 38.297 44.7527 38.869 44.2587 39.363C43.7733 39.8483 43.197 40.091 42.5297 40.091C41.8537 40.091 41.273 39.8483 40.7877 39.363C40.3023 38.869 40.0597 38.297 40.0597 37.647ZM46.5739 39.662V34.163C46.5739 34.0763 46.6129 34.0027 46.6909 33.942C46.7689 33.8813 46.8685 33.851 46.9899 33.851C47.1025 33.851 47.1979 33.8813 47.2759 33.942C47.3539 34.0027 47.3929 34.0763 47.3929 34.163V34.8C47.5489 34.514 47.7785 34.2713 48.0819 34.072C48.3852 33.8727 48.7362 33.773 49.1349 33.773H49.5899C49.6765 33.773 49.7545 33.812 49.8239 33.89C49.8932 33.968 49.9279 34.059 49.9279 34.163C49.9279 34.267 49.8932 34.358 49.8239 34.436C49.7545 34.514 49.6765 34.553 49.5899 34.553H49.1349C48.6842 34.553 48.2855 34.7307 47.9389 35.086C47.5922 35.4327 47.4189 35.8877 47.4189 36.451V39.662C47.4189 39.7487 47.3755 39.8267 47.2889 39.896C47.2109 39.9653 47.1112 40 46.9899 40C46.8772 40 46.7775 39.9653 46.6909 39.896C46.6129 39.8267 46.5739 39.7487 46.5739 39.662ZM53.5451 37.296V33.266C53.5451 32.3213 53.7965 31.6237 54.2991 31.173C54.8105 30.7223 55.4691 30.497 56.2751 30.497C57.0985 30.497 57.7485 30.7093 58.2251 31.134C58.7105 31.55 58.9531 32.0613 58.9531 32.668C58.9531 32.876 58.9185 33.0147 58.8491 33.084C58.7885 33.1533 58.6801 33.188 58.5241 33.188C58.2555 33.188 58.1125 33.0797 58.0951 32.863C58.0865 32.733 58.0691 32.6073 58.0431 32.486C58.0171 32.3647 57.9651 32.2303 57.8871 32.083C57.8091 31.927 57.7051 31.7927 57.5751 31.68C57.4538 31.5673 57.2805 31.4763 57.0551 31.407C56.8298 31.329 56.5698 31.29 56.2751 31.29C55.0271 31.29 54.4031 31.9487 54.4031 33.266V37.296C54.4031 38.622 55.0445 39.285 56.3271 39.285C56.6911 39.285 56.9945 39.2373 57.2371 39.142C57.4798 39.038 57.6575 38.8907 57.7701 38.7C57.8828 38.5093 57.9565 38.349 57.9911 38.219C58.0345 38.0803 58.0691 37.9027 58.0951 37.686C58.1211 37.4607 58.2641 37.348 58.5241 37.348C58.6801 37.348 58.7885 37.387 58.8491 37.465C58.9185 37.5343 58.9531 37.673 58.9531 37.881C58.9531 38.4963 58.7061 39.0163 58.2121 39.441C57.7268 39.8657 57.0681 40.078 56.2361 40.078C55.4388 40.078 54.7888 39.8527 54.2861 39.402C53.7921 38.9513 53.5451 38.2493 53.5451 37.296ZM60.3888 39.662V30.393C60.3888 30.3063 60.4278 30.2327 60.5058 30.172C60.5838 30.1113 60.6835 30.081 60.8048 30.081C60.9262 30.081 61.0258 30.1113 61.1038 30.172C61.1905 30.2327 61.2338 30.3063 61.2338 30.393V39.662C61.2338 39.7487 61.1905 39.8267 61.1038 39.896C61.0258 39.9653 60.9262 40 60.8048 40C60.6922 40 60.5925 39.9653 60.5058 39.896C60.4278 39.8267 60.3888 39.7487 60.3888 39.662ZM62.5472 38.375C62.5472 37.7077 62.8029 37.244 63.3142 36.984C63.8342 36.724 64.5882 36.594 65.5762 36.594H66.2392V36.282C66.2392 35.8053 66.1136 35.3937 65.8622 35.047C65.6109 34.6917 65.2252 34.514 64.7052 34.514C64.3586 34.514 64.0422 34.579 63.7562 34.709C63.4789 34.8303 63.3316 34.891 63.3142 34.891C63.2102 34.891 63.1279 34.8433 63.0672 34.748C63.0066 34.6527 62.9762 34.5487 62.9762 34.436C62.9762 34.2713 63.1626 34.1197 63.5352 33.981C63.9079 33.8423 64.3066 33.773 64.7312 33.773C65.5459 33.773 66.1396 34.0113 66.5122 34.488C66.8936 34.956 67.0842 35.554 67.0842 36.282V39.662C67.0842 39.7573 67.0452 39.8397 66.9672 39.909C66.8892 39.9697 66.7896 40 66.6682 40C66.5556 40 66.4602 39.9697 66.3822 39.909C66.3129 39.8397 66.2782 39.7573 66.2782 39.662V39.09C65.6976 39.7573 65.0432 40.091 64.3152 40.091C63.7952 40.091 63.3706 39.948 63.0412 39.662C62.7119 39.3673 62.5472 38.9383 62.5472 38.375ZM63.3922 38.297C63.3922 38.661 63.4962 38.934 63.7042 39.116C63.9122 39.2893 64.1852 39.376 64.5232 39.376C64.9306 39.376 65.3162 39.2243 65.6802 38.921C66.0529 38.6177 66.2392 38.3143 66.2392 38.011V37.179H65.6932C65.3466 37.179 65.0519 37.192 64.8092 37.218C64.5752 37.244 64.3412 37.2917 64.1072 37.361C63.8732 37.4303 63.6956 37.543 63.5742 37.699C63.4529 37.855 63.3922 38.0543 63.3922 38.297ZM68.2864 39.155C68.2864 39.0683 68.3168 38.9817 68.3774 38.895C68.4381 38.8083 68.5074 38.765 68.5854 38.765C68.6461 38.765 68.7414 38.817 68.8714 38.921C69.0014 39.0163 69.1878 39.116 69.4304 39.22C69.6731 39.324 69.9634 39.376 70.3014 39.376C70.7608 39.376 71.0988 39.2893 71.3154 39.116C71.5321 38.9427 71.6404 38.7217 71.6404 38.453C71.6404 38.141 71.5278 37.894 71.3024 37.712C71.0858 37.5213 70.8214 37.3827 70.5094 37.296C70.1974 37.2093 69.8811 37.114 69.5604 37.01C69.2484 36.906 68.9798 36.737 68.7544 36.503C68.5378 36.2603 68.4294 35.9397 68.4294 35.541C68.4294 35.0643 68.5984 34.6527 68.9364 34.306C69.2831 33.9507 69.7988 33.773 70.4834 33.773C70.9081 33.773 71.3024 33.8423 71.6664 33.981C72.0391 34.111 72.2254 34.254 72.2254 34.41C72.2254 34.4967 72.1908 34.592 72.1214 34.696C72.0521 34.8 71.9698 34.852 71.8744 34.852C71.8484 34.852 71.6881 34.7913 71.3934 34.67C71.0988 34.5487 70.7998 34.488 70.4964 34.488C70.0631 34.488 69.7381 34.592 69.5214 34.8C69.3048 35.008 69.1964 35.242 69.1964 35.502C69.1964 35.7707 69.3048 35.983 69.5214 36.139C69.7468 36.295 70.0154 36.4163 70.3274 36.503C70.6481 36.581 70.9644 36.6763 71.2764 36.789C71.5971 36.893 71.8658 37.0837 72.0824 37.361C72.3078 37.6297 72.4204 37.9807 72.4204 38.414C72.4204 38.934 72.2341 39.3457 71.8614 39.649C71.4974 39.9437 70.9861 40.091 70.3274 40.091C69.7554 40.091 69.2701 39.9913 68.8714 39.792C68.4814 39.584 68.2864 39.3717 68.2864 39.155ZM73.2884 39.155C73.2884 39.0683 73.3187 38.9817 73.3794 38.895C73.44 38.8083 73.5094 38.765 73.5874 38.765C73.648 38.765 73.7434 38.817 73.8734 38.921C74.0034 39.0163 74.1897 39.116 74.4324 39.22C74.675 39.324 74.9654 39.376 75.3034 39.376C75.7627 39.376 76.1007 39.2893 76.3174 39.116C76.534 38.9427 76.6424 38.7217 76.6424 38.453C76.6424 38.141 76.5297 37.894 76.3044 37.712C76.0877 37.5213 75.8234 37.3827 75.5114 37.296C75.1994 37.2093 74.883 37.114 74.5624 37.01C74.2504 36.906 73.9817 36.737 73.7564 36.503C73.5397 36.2603 73.4314 35.9397 73.4314 35.541C73.4314 35.0643 73.6004 34.6527 73.9384 34.306C74.285 33.9507 74.8007 33.773 75.4854 33.773C75.91 33.773 76.3044 33.8423 76.6684 33.981C77.041 34.111 77.2274 34.254 77.2274 34.41C77.2274 34.4967 77.1927 34.592 77.1234 34.696C77.054 34.8 76.9717 34.852 76.8764 34.852C76.8504 34.852 76.69 34.7913 76.3954 34.67C76.1007 34.5487 75.8017 34.488 75.4984 34.488C75.065 34.488 74.74 34.592 74.5234 34.8C74.3067 35.008 74.1984 35.242 74.1984 35.502C74.1984 35.7707 74.3067 35.983 74.5234 36.139C74.7487 36.295 75.0174 36.4163 75.3294 36.503C75.65 36.581 75.9664 36.6763 76.2784 36.789C76.599 36.893 76.8677 37.0837 77.0844 37.361C77.3097 37.6297 77.4224 37.9807 77.4224 38.414C77.4224 38.934 77.236 39.3457 76.8634 39.649C76.4994 39.9437 75.988 40.091 75.3294 40.091C74.7574 40.091 74.272 39.9913 73.8734 39.792C73.4834 39.584 73.2884 39.3717 73.2884 39.155Z" fill="black"/>
</svg>
