<svg width="138" height="58" viewBox="0 0 138 58" fill="none" xmlns="http://www.w3.org/2000/svg">
<path d="M0.570375 23.944C0.570375 23.848 0.578375 23.776 0.594375 23.728L5.37038 8.176C5.56238 7.6 6.09838 7.312 6.97838 7.312C7.87438 7.312 8.41838 7.6 8.61038 8.176L13.3624 23.728C13.3944 23.824 13.4104 23.896 13.4104 23.944C13.4104 24.232 13.2344 24.48 12.8824 24.688C12.5464 24.896 12.1864 25 11.8024 25C11.3384 25 11.0504 24.824 10.9384 24.472L9.95438 21.064H4.02638L3.04238 24.472C2.93038 24.824 2.63438 25 2.15438 25C1.77038 25 1.41038 24.896 1.07438 24.688C0.738375 24.48 0.570375 24.232 0.570375 23.944ZM4.57838 19.024H9.37838L6.97838 10.792L4.57838 19.024ZM14.5989 20.416V18.208C14.5989 16.912 15.0149 15.8 15.8469 14.872C16.6949 13.944 17.7109 13.48 18.8949 13.48C19.5989 13.48 20.2229 13.656 20.7669 14.008C21.3109 14.36 21.7269 14.792 22.0149 15.304V7.672C22.0149 7.432 22.1349 7.24 22.3749 7.096C22.6149 6.936 22.9189 6.856 23.2869 6.856C23.6549 6.856 23.9509 6.936 24.1749 7.096C24.4149 7.24 24.5349 7.432 24.5349 7.672V24.16C24.5349 24.368 24.4149 24.56 24.1749 24.736C23.9349 24.912 23.6389 25 23.2869 25C22.9829 25 22.7109 24.912 22.4709 24.736C22.2469 24.56 22.1349 24.368 22.1349 24.16V23.32C21.8789 23.832 21.4389 24.272 20.8149 24.64C20.2069 25.008 19.5429 25.192 18.8229 25.192C17.7029 25.192 16.7189 24.712 15.8709 23.752C15.0229 22.776 14.5989 21.664 14.5989 20.416ZM17.1189 20.416C17.1189 21.072 17.3589 21.664 17.8389 22.192C18.3189 22.704 18.8869 22.96 19.5429 22.96C20.1669 22.96 20.7349 22.72 21.2469 22.24C21.7589 21.744 22.0149 21.32 22.0149 20.968V18.208C22.0149 17.472 21.7669 16.872 21.2709 16.408C20.7749 15.944 20.2069 15.712 19.5669 15.712C18.9109 15.712 18.3349 15.968 17.8389 16.48C17.3589 16.992 17.1189 17.568 17.1189 18.208V20.416ZM26.475 22.024C26.475 20.744 26.955 19.856 27.915 19.36C28.875 18.848 30.267 18.592 32.091 18.592H33.147V18.16C33.147 17.456 32.947 16.848 32.547 16.336C32.163 15.824 31.571 15.568 30.771 15.568C30.083 15.568 29.475 15.688 28.947 15.928C28.435 16.168 28.155 16.288 28.107 16.288C27.835 16.288 27.611 16.16 27.435 15.904C27.275 15.632 27.195 15.336 27.195 15.016C27.195 14.6 27.579 14.24 28.347 13.936C29.131 13.632 29.955 13.48 30.819 13.48C32.467 13.48 33.683 13.928 34.467 14.824C35.267 15.704 35.667 16.808 35.667 18.136V24.16C35.667 24.384 35.547 24.584 35.307 24.76C35.083 24.92 34.795 25 34.443 25C34.123 25 33.851 24.92 33.627 24.76C33.403 24.584 33.291 24.384 33.291 24.16V23.32C32.219 24.568 31.011 25.192 29.667 25.192C28.739 25.192 27.971 24.92 27.363 24.376C26.771 23.832 26.475 23.048 26.475 22.024ZM29.019 21.712C29.019 22.224 29.163 22.616 29.451 22.888C29.739 23.144 30.115 23.272 30.579 23.272C31.187 23.272 31.763 23.016 32.307 22.504C32.867 21.992 33.147 21.448 33.147 20.872V19.984H32.547C31.827 19.984 31.235 20.016 30.771 20.08C30.323 20.144 29.915 20.312 29.547 20.584C29.195 20.856 29.019 21.232 29.019 21.712ZM36.966 14.608C36.966 14.32 37.15 14.072 37.518 13.864C37.886 13.64 38.254 13.528 38.622 13.528C39.022 13.528 39.278 13.68 39.39 13.984L42.246 21.568L45.102 14.032C45.23 13.696 45.486 13.528 45.87 13.528C46.174 13.528 46.526 13.64 46.926 13.864C47.326 14.088 47.526 14.336 47.526 14.608C47.526 14.72 47.494 14.856 47.43 15.016L43.398 24.736C43.254 25.072 42.87 25.24 42.246 25.24C41.622 25.24 41.238 25.072 41.094 24.736L37.086 15.016C37.006 14.856 36.966 14.72 36.966 14.608ZM48.9896 20.464V14.464C48.9896 14.24 49.1176 14.048 49.3736 13.888C49.6296 13.712 49.9256 13.624 50.2616 13.624C50.5976 13.624 50.8856 13.712 51.1256 13.888C51.3816 14.048 51.5096 14.24 51.5096 14.464V20.464C51.5096 21.104 51.7496 21.68 52.2296 22.192C52.7256 22.704 53.3016 22.96 53.9576 22.96C54.6296 22.96 55.2056 22.712 55.6856 22.216C56.1656 21.704 56.4056 21.12 56.4056 20.464V14.44C56.4056 14.216 56.5256 14.024 56.7656 13.864C57.0216 13.704 57.3256 13.624 57.6776 13.624C58.0296 13.624 58.3176 13.704 58.5416 13.864C58.7816 14.024 58.9016 14.216 58.9016 14.44V20.464C58.9016 21.728 58.4136 22.832 57.4376 23.776C56.4616 24.72 55.3016 25.192 53.9576 25.192C52.6136 25.192 51.4456 24.72 50.4536 23.776C49.4776 22.832 48.9896 21.728 48.9896 20.464ZM66.3379 19.792V12.808C66.3379 10.968 66.8259 9.616 67.8019 8.752C68.7779 7.888 70.0579 7.456 71.6419 7.456C73.2579 7.456 74.5699 7.864 75.5779 8.68C76.6019 9.48 77.1139 10.552 77.1139 11.896C77.1139 12.36 77.0099 12.68 76.8019 12.856C76.6099 13.032 76.2899 13.12 75.8419 13.12C75.0099 13.12 74.5859 12.84 74.5699 12.28C74.3939 10.568 73.4419 9.712 71.7139 9.712C69.8259 9.712 68.8819 10.744 68.8819 12.808V19.792C68.8819 21.856 69.8259 22.888 71.7139 22.888C72.6259 22.888 73.3299 22.632 73.8259 22.12C74.3219 21.608 74.5699 20.832 74.5699 19.792V17.824H72.1459C71.8899 17.824 71.6899 17.728 71.5459 17.536C71.4019 17.328 71.3299 17.08 71.3299 16.792C71.3299 16.536 71.4019 16.304 71.5459 16.096C71.6899 15.888 71.8899 15.784 72.1459 15.784H76.2739C76.5299 15.784 76.7299 15.872 76.8739 16.048C77.0339 16.208 77.1139 16.408 77.1139 16.648V19.792C77.1139 21.632 76.6179 22.984 75.6259 23.848C74.6499 24.712 73.3459 25.144 71.7139 25.144C70.0819 25.144 68.7779 24.712 67.8019 23.848C66.8259 22.984 66.3379 21.632 66.3379 19.792ZM79.5778 24.16V14.44C79.5778 14.2 79.6898 14.008 79.9138 13.864C80.1538 13.704 80.4498 13.624 80.8018 13.624C81.1218 13.624 81.3938 13.704 81.6178 13.864C81.8418 14.008 81.9538 14.2 81.9538 14.44V15.496C82.2258 14.936 82.6338 14.464 83.1778 14.08C83.7378 13.68 84.3458 13.48 85.0018 13.48H85.7698C86.0258 13.48 86.2498 13.592 86.4418 13.816C86.6338 14.024 86.7298 14.28 86.7298 14.584C86.7298 14.888 86.6338 15.152 86.4418 15.376C86.2498 15.6 86.0258 15.712 85.7698 15.712H85.0018C84.2338 15.712 83.5538 16.04 82.9618 16.696C82.3858 17.352 82.0978 18.2 82.0978 19.24V24.16C82.0978 24.368 81.9698 24.56 81.7138 24.736C81.4578 24.912 81.1538 25 80.8018 25C80.4498 25 80.1538 24.912 79.9138 24.736C79.6898 24.56 79.5778 24.368 79.5778 24.16ZM87.489 20.416V18.208C87.489 16.944 87.977 15.84 88.953 14.896C89.929 13.952 91.097 13.48 92.457 13.48C93.785 13.48 94.945 13.952 95.937 14.896C96.929 15.824 97.425 16.928 97.425 18.208V20.416C97.425 21.664 96.921 22.776 95.913 23.752C94.921 24.712 93.769 25.192 92.457 25.192C91.129 25.192 89.969 24.712 88.977 23.752C87.985 22.792 87.489 21.68 87.489 20.416ZM90.009 20.416C90.009 21.072 90.249 21.664 90.729 22.192C91.209 22.704 91.785 22.96 92.457 22.96C93.113 22.96 93.681 22.704 94.161 22.192C94.657 21.664 94.905 21.072 94.905 20.416V18.208C94.905 17.568 94.657 16.992 94.161 16.48C93.681 15.968 93.113 15.712 92.457 15.712C91.785 15.712 91.209 15.968 90.729 16.48C90.249 16.992 90.009 17.568 90.009 18.208V20.416ZM99.5443 20.464V14.464C99.5443 14.24 99.6723 14.048 99.9283 13.888C100.184 13.712 100.48 13.624 100.816 13.624C101.152 13.624 101.44 13.712 101.68 13.888C101.936 14.048 102.064 14.24 102.064 14.464V20.464C102.064 21.104 102.304 21.68 102.784 22.192C103.28 22.704 103.856 22.96 104.512 22.96C105.184 22.96 105.76 22.712 106.24 22.216C106.72 21.704 106.96 21.12 106.96 20.464V14.44C106.96 14.216 107.08 14.024 107.32 13.864C107.576 13.704 107.88 13.624 108.232 13.624C108.584 13.624 108.872 13.704 109.096 13.864C109.336 14.024 109.456 14.216 109.456 14.44V20.464C109.456 21.728 108.968 22.832 107.992 23.776C107.016 24.72 105.856 25.192 104.512 25.192C103.168 25.192 102 24.72 101.008 23.776C100.032 22.832 99.5443 21.728 99.5443 20.464ZM112.016 29.56V14.44C112.016 14.2 112.128 14.008 112.352 13.864C112.592 13.704 112.88 13.624 113.216 13.624C113.552 13.624 113.832 13.704 114.056 13.864C114.28 14.008 114.392 14.2 114.392 14.44V15.304C114.68 14.792 115.104 14.36 115.664 14.008C116.24 13.656 116.888 13.48 117.608 13.48C118.808 13.48 119.824 13.944 120.656 14.872C121.504 15.8 121.928 16.912 121.928 18.208V20.416C121.928 21.664 121.504 22.776 120.656 23.752C119.808 24.712 118.824 25.192 117.704 25.192C117.016 25.192 116.376 25.008 115.784 24.64C115.208 24.272 114.792 23.832 114.536 23.32V29.56C114.536 29.784 114.408 29.976 114.152 30.136C113.896 30.312 113.592 30.4 113.24 30.4C112.888 30.4 112.592 30.312 112.352 30.136C112.128 29.976 112.016 29.784 112.016 29.56ZM114.536 20.968C114.536 21.32 114.776 21.744 115.256 22.24C115.752 22.72 116.32 22.96 116.96 22.96C117.6 22.96 118.168 22.704 118.664 22.192C119.16 21.664 119.408 21.072 119.408 20.416V18.208C119.408 17.568 119.16 16.992 118.664 16.48C118.168 15.968 117.584 15.712 116.912 15.712C116.288 15.712 115.736 15.944 115.256 16.408C114.776 16.856 114.536 17.456 114.536 18.208V20.968ZM123.461 23.272C123.461 23.032 123.541 22.784 123.701 22.528C123.877 22.272 124.085 22.144 124.325 22.144C124.469 22.144 124.669 22.24 124.925 22.432C125.181 22.608 125.525 22.792 125.957 22.984C126.389 23.16 126.909 23.248 127.517 23.248C128.877 23.248 129.557 22.816 129.557 21.952C129.557 21.488 129.357 21.128 128.957 20.872C128.557 20.6 128.069 20.392 127.493 20.248C126.933 20.088 126.373 19.912 125.812 19.72C125.253 19.528 124.773 19.2 124.373 18.736C123.973 18.272 123.773 17.672 123.773 16.936C123.773 15.992 124.109 15.184 124.781 14.512C125.453 13.824 126.485 13.48 127.877 13.48C128.789 13.48 129.613 13.624 130.349 13.912C131.101 14.184 131.477 14.512 131.477 14.896C131.477 15.12 131.381 15.384 131.189 15.688C131.013 15.976 130.789 16.12 130.517 16.12C130.421 16.12 130.093 16.008 129.533 15.784C128.973 15.544 128.437 15.424 127.925 15.424C127.285 15.424 126.797 15.568 126.461 15.856C126.141 16.144 125.98 16.464 125.98 16.816C125.98 17.2 126.181 17.504 126.581 17.728C126.981 17.952 127.469 18.136 128.045 18.28C128.621 18.424 129.189 18.6 129.749 18.808C130.325 19.016 130.813 19.376 131.213 19.888C131.613 20.4 131.813 21.056 131.813 21.856C131.813 22.896 131.445 23.712 130.709 24.304C129.973 24.896 128.933 25.192 127.589 25.192C126.453 25.192 125.477 24.992 124.661 24.592C123.861 24.192 123.461 23.752 123.461 23.272ZM134.124 24.736C133.852 24.448 133.716 24.104 133.716 23.704C133.716 23.304 133.852 22.968 134.124 22.696C134.396 22.408 134.74 22.264 135.156 22.264C135.54 22.264 135.868 22.408 136.14 22.696C136.428 22.968 136.572 23.304 136.572 23.704C136.572 24.088 136.428 24.424 136.14 24.712C135.868 25 135.54 25.144 135.156 25.144C134.74 25.144 134.396 25.008 134.124 24.736ZM134.124 17.344C133.852 17.056 133.716 16.712 133.716 16.312C133.716 15.912 133.852 15.576 134.124 15.304C134.396 15.016 134.74 14.872 135.156 14.872C135.54 14.872 135.868 15.016 136.14 15.304C136.428 15.576 136.572 15.912 136.572 16.312C136.572 16.696 136.428 17.032 136.14 17.32C135.868 17.608 135.54 17.752 135.156 17.752C134.74 17.752 134.396 17.616 134.124 17.344Z" fill="#596F62"/>
<path d="M16.4526 38.296C16.4526 38.024 16.5726 37.784 16.8126 37.576L18.7806 34.792C18.9566 34.552 19.1566 34.432 19.3806 34.432C19.5566 34.432 19.7166 34.488 19.8606 34.6C20.0046 34.712 20.0766 34.856 20.0766 35.032V51.376C20.0766 51.568 19.9966 51.72 19.8366 51.832C19.6766 51.944 19.4926 52 19.2846 52C19.0606 52 18.8686 51.944 18.7086 51.832C18.5646 51.72 18.4926 51.568 18.4926 51.376V37.144L17.5326 38.704C17.4046 38.896 17.2526 38.992 17.0766 38.992C16.9006 38.992 16.7486 38.928 16.6206 38.8C16.5086 38.656 16.4526 38.488 16.4526 38.296ZM28.0589 51.376V34.264C28.0589 34.104 28.1309 33.968 28.2749 33.856C28.4189 33.744 28.6029 33.688 28.8269 33.688C29.0509 33.688 29.2349 33.744 29.3789 33.856C29.5389 33.968 29.6189 34.104 29.6189 34.264V42.328C29.8909 41.816 30.2989 41.384 30.8429 41.032C31.4029 40.68 32.0509 40.504 32.7869 40.504C33.9389 40.504 34.9309 40.944 35.7629 41.824C36.6109 42.704 37.0349 43.76 37.0349 44.992V51.376C37.0349 51.568 36.9549 51.72 36.7949 51.832C36.6509 51.944 36.4669 52 36.2429 52C36.0509 52 35.8749 51.944 35.7149 51.832C35.5549 51.72 35.4749 51.568 35.4749 51.376V44.992C35.4749 44.208 35.1789 43.504 34.5869 42.88C33.9949 42.256 33.2989 41.944 32.4989 41.944C31.7469 41.944 31.0749 42.224 30.4829 42.784C29.9069 43.344 29.6189 44.08 29.6189 44.992V51.376C29.6189 51.536 29.5389 51.68 29.3789 51.808C29.2189 51.936 29.0349 52 28.8269 52C28.6189 52 28.4349 51.936 28.2749 51.808C28.1309 51.68 28.0589 51.536 28.0589 51.376ZM39.5091 47.608V44.992C39.5091 43.776 39.9571 42.728 40.8531 41.848C41.7491 40.952 42.8131 40.504 44.0451 40.504C45.2771 40.504 46.3491 40.944 47.2611 41.824C48.1731 42.704 48.6291 43.76 48.6291 44.992V47.608C48.6291 48.808 48.1651 49.872 47.2371 50.8C46.3251 51.712 45.2611 52.168 44.0451 52.168C42.8451 52.168 41.7891 51.712 40.8771 50.8C39.9651 49.872 39.5091 48.808 39.5091 47.608ZM41.0691 47.608C41.0691 48.424 41.3571 49.152 41.9331 49.792C42.5251 50.416 43.2291 50.728 44.0451 50.728C44.8771 50.728 45.5891 50.416 46.1811 49.792C46.7731 49.152 47.0691 48.424 47.0691 47.608V44.992C47.0691 44.208 46.7651 43.504 46.1571 42.88C45.5651 42.256 44.8611 41.944 44.0451 41.944C43.2291 41.944 42.5251 42.256 41.9331 42.88C41.3571 43.504 41.0691 44.208 41.0691 44.992V47.608ZM51.0717 47.656V41.248C51.0717 41.104 51.1437 40.968 51.2877 40.84C51.4477 40.712 51.6397 40.648 51.8637 40.648C52.0557 40.648 52.2317 40.712 52.3917 40.84C52.5517 40.968 52.6317 41.104 52.6317 41.248V47.656C52.6317 48.456 52.9277 49.168 53.5197 49.792C54.1117 50.416 54.8157 50.728 55.6317 50.728C56.4477 50.728 57.1517 50.416 57.7437 49.792C58.3357 49.168 58.6317 48.456 58.6317 47.656V41.224C58.6317 41.064 58.7117 40.928 58.8717 40.816C59.0317 40.704 59.2157 40.648 59.4237 40.648C59.6317 40.648 59.8077 40.704 59.9517 40.816C60.1117 40.928 60.1917 41.064 60.1917 41.224V47.656C60.1917 48.856 59.7357 49.912 58.8237 50.824C57.9277 51.72 56.8637 52.168 55.6317 52.168C54.3837 52.168 53.3117 51.72 52.4157 50.824C51.5197 49.912 51.0717 48.856 51.0717 47.656ZM63.0979 51.376V41.224C63.0979 41.064 63.1699 40.928 63.3139 40.816C63.4579 40.704 63.6419 40.648 63.8659 40.648C64.0739 40.648 64.2499 40.704 64.3939 40.816C64.5379 40.928 64.6099 41.064 64.6099 41.224V42.4C64.8979 41.872 65.3219 41.424 65.8819 41.056C66.4419 40.688 67.0899 40.504 67.8259 40.504H68.6659C68.8259 40.504 68.9699 40.576 69.0979 40.72C69.2259 40.864 69.2899 41.032 69.2899 41.224C69.2899 41.416 69.2259 41.584 69.0979 41.728C68.9699 41.872 68.8259 41.944 68.6659 41.944H67.8259C66.9939 41.944 66.2579 42.272 65.6179 42.928C64.9779 43.568 64.6579 44.408 64.6579 45.448V51.376C64.6579 51.536 64.5779 51.68 64.4179 51.808C64.2739 51.936 64.0899 52 63.8659 52C63.6579 52 63.4739 51.936 63.3139 51.808C63.1699 51.68 63.0979 51.536 63.0979 51.376ZM75.9679 47.008V39.568C75.9679 37.824 76.4319 36.536 77.3599 35.704C78.3039 34.872 79.5199 34.456 81.0079 34.456C82.5279 34.456 83.7279 34.848 84.6079 35.632C85.5039 36.4 85.9519 37.344 85.9519 38.464C85.9519 38.848 85.8879 39.104 85.7599 39.232C85.6479 39.36 85.4479 39.424 85.1599 39.424C84.6639 39.424 84.3999 39.224 84.3679 38.824C84.3519 38.584 84.3199 38.352 84.2719 38.128C84.2239 37.904 84.1279 37.656 83.9839 37.384C83.8399 37.096 83.6479 36.848 83.4079 36.64C83.1839 36.432 82.8639 36.264 82.4479 36.136C82.0319 35.992 81.5519 35.92 81.0079 35.92C78.7039 35.92 77.5519 37.136 77.5519 39.568V47.008C77.5519 49.456 78.7359 50.68 81.1039 50.68C81.7759 50.68 82.3359 50.592 82.7839 50.416C83.2319 50.224 83.5599 49.952 83.7679 49.6C83.9759 49.248 84.1119 48.952 84.1759 48.712C84.2559 48.456 84.3199 48.128 84.3679 47.728C84.4159 47.312 84.6799 47.104 85.1599 47.104C85.4479 47.104 85.6479 47.176 85.7599 47.32C85.8879 47.448 85.9519 47.704 85.9519 48.088C85.9519 49.224 85.4959 50.184 84.5839 50.968C83.6879 51.752 82.4719 52.144 80.9359 52.144C79.4639 52.144 78.2639 51.728 77.3359 50.896C76.4239 50.064 75.9679 48.768 75.9679 47.008ZM88.6024 51.376V34.264C88.6024 34.104 88.6744 33.968 88.8184 33.856C88.9624 33.744 89.1464 33.688 89.3704 33.688C89.5944 33.688 89.7784 33.744 89.9224 33.856C90.0824 33.968 90.1624 34.104 90.1624 34.264V51.376C90.1624 51.536 90.0824 51.68 89.9224 51.808C89.7784 51.936 89.5944 52 89.3704 52C89.1624 52 88.9784 51.936 88.8184 51.808C88.6744 51.68 88.6024 51.536 88.6024 51.376ZM92.5872 49C92.5872 47.768 93.0592 46.912 94.0032 46.432C94.9632 45.952 96.3552 45.712 98.1792 45.712H99.4032V45.136C99.4032 44.256 99.1712 43.496 98.7072 42.856C98.2432 42.2 97.5312 41.872 96.5712 41.872C95.9312 41.872 95.3472 41.992 94.8192 42.232C94.3072 42.456 94.0352 42.568 94.0032 42.568C93.8112 42.568 93.6592 42.48 93.5472 42.304C93.4352 42.128 93.3792 41.936 93.3792 41.728C93.3792 41.424 93.7232 41.144 94.4112 40.888C95.0992 40.632 95.8352 40.504 96.6192 40.504C98.1232 40.504 99.2192 40.944 99.9072 41.824C100.611 42.688 100.963 43.792 100.963 45.136V51.376C100.963 51.552 100.891 51.704 100.747 51.832C100.603 51.944 100.419 52 100.195 52C99.9872 52 99.8112 51.944 99.6672 51.832C99.5392 51.704 99.4752 51.552 99.4752 51.376V50.32C98.4032 51.552 97.1952 52.168 95.8512 52.168C94.8912 52.168 94.1072 51.904 93.4992 51.376C92.8912 50.832 92.5872 50.04 92.5872 49ZM94.1472 48.856C94.1472 49.528 94.3392 50.032 94.7232 50.368C95.1072 50.688 95.6112 50.848 96.2352 50.848C96.9872 50.848 97.6992 50.568 98.3712 50.008C99.0592 49.448 99.4032 48.888 99.4032 48.328V46.792H98.3952C97.7552 46.792 97.2112 46.816 96.7632 46.864C96.3312 46.912 95.8992 47 95.4672 47.128C95.0352 47.256 94.7072 47.464 94.4832 47.752C94.2592 48.04 94.1472 48.408 94.1472 48.856ZM103.183 50.44C103.183 50.28 103.239 50.12 103.351 49.96C103.463 49.8 103.591 49.72 103.735 49.72C103.847 49.72 104.023 49.816 104.263 50.008C104.503 50.184 104.847 50.368 105.295 50.56C105.743 50.752 106.279 50.848 106.903 50.848C107.751 50.848 108.375 50.688 108.775 50.368C109.175 50.048 109.375 49.64 109.375 49.144C109.375 48.568 109.167 48.112 108.751 47.776C108.351 47.424 107.863 47.168 107.287 47.008C106.711 46.848 106.127 46.672 105.535 46.48C104.959 46.288 104.463 45.976 104.047 45.544C103.647 45.096 103.447 44.504 103.447 43.768C103.447 42.888 103.759 42.128 104.383 41.488C105.023 40.832 105.975 40.504 107.239 40.504C108.023 40.504 108.751 40.632 109.423 40.888C110.111 41.128 110.455 41.392 110.455 41.68C110.455 41.84 110.391 42.016 110.263 42.208C110.135 42.4 109.983 42.496 109.807 42.496C109.759 42.496 109.463 42.384 108.919 42.16C108.375 41.936 107.823 41.824 107.263 41.824C106.463 41.824 105.863 42.016 105.463 42.4C105.063 42.784 104.863 43.216 104.863 43.696C104.863 44.192 105.063 44.584 105.463 44.872C105.879 45.16 106.375 45.384 106.951 45.544C107.543 45.688 108.127 45.864 108.703 46.072C109.295 46.264 109.791 46.616 110.191 47.128C110.607 47.624 110.815 48.272 110.815 49.072C110.815 50.032 110.471 50.792 109.783 51.352C109.111 51.896 108.167 52.168 106.951 52.168C105.895 52.168 104.999 51.984 104.263 51.616C103.543 51.232 103.183 50.84 103.183 50.44ZM112.417 50.44C112.417 50.28 112.473 50.12 112.585 49.96C112.697 49.8 112.825 49.72 112.969 49.72C113.081 49.72 113.257 49.816 113.497 50.008C113.737 50.184 114.081 50.368 114.529 50.56C114.977 50.752 115.513 50.848 116.137 50.848C116.985 50.848 117.609 50.688 118.009 50.368C118.409 50.048 118.609 49.64 118.609 49.144C118.609 48.568 118.401 48.112 117.985 47.776C117.585 47.424 117.097 47.168 116.521 47.008C115.945 46.848 115.361 46.672 114.769 46.48C114.193 46.288 113.697 45.976 113.281 45.544C112.881 45.096 112.681 44.504 112.681 43.768C112.681 42.888 112.993 42.128 113.617 41.488C114.257 40.832 115.209 40.504 116.473 40.504C117.257 40.504 117.985 40.632 118.657 40.888C119.345 41.128 119.689 41.392 119.689 41.68C119.689 41.84 119.625 42.016 119.497 42.208C119.369 42.4 119.217 42.496 119.041 42.496C118.993 42.496 118.697 42.384 118.153 42.16C117.609 41.936 117.057 41.824 116.497 41.824C115.697 41.824 115.097 42.016 114.697 42.4C114.297 42.784 114.097 43.216 114.097 43.696C114.097 44.192 114.297 44.584 114.697 44.872C115.113 45.16 115.609 45.384 116.185 45.544C116.777 45.688 117.361 45.864 117.937 46.072C118.529 46.264 119.025 46.616 119.425 47.128C119.841 47.624 120.049 48.272 120.049 49.072C120.049 50.032 119.705 50.792 119.017 51.352C118.345 51.896 117.401 52.168 116.185 52.168C115.129 52.168 114.233 51.984 113.497 51.616C112.777 51.232 112.417 50.84 112.417 50.44Z" fill="black"/>
</svg>
