<svg width="164" height="25" viewBox="0 0 164 25" fill="none" xmlns="http://www.w3.org/2000/svg">
<path d="M0.0369688 16.12C0.0369688 15.816 0.148969 15.512 0.372969 15.208C0.596969 14.904 0.852969 14.752 1.14097 14.752C1.33297 14.752 1.58097 14.896 1.88497 15.184C2.20497 15.456 2.62897 15.752 3.15697 16.072C3.70097 16.392 4.32497 16.576 5.02897 16.624V10.984C4.54897 10.808 4.18097 10.672 3.92497 10.576C3.66897 10.464 3.32497 10.312 2.89297 10.12C2.47697 9.912 2.14897 9.704 1.90897 9.496C1.68497 9.272 1.44497 9.008 1.18897 8.704C0.932969 8.4 0.748969 8.048 0.636969 7.648C0.524969 7.232 0.468969 6.776 0.468969 6.28C0.468969 4.888 0.900969 3.832 1.76497 3.112C2.64497 2.392 3.73297 1.96 5.02897 1.816V1.12C5.02897 0.975999 5.09297 0.848 5.22097 0.735999C5.36497 0.624 5.53297 0.568 5.72497 0.568C5.90097 0.568 6.06097 0.624 6.20497 0.735999C6.36497 0.848 6.44497 0.975999 6.44497 1.12V1.768C7.42097 1.8 8.31697 1.968 9.13297 2.272C9.96497 2.56 10.381 2.968 10.381 3.496C10.381 3.784 10.285 4.088 10.093 4.408C9.90097 4.712 9.64497 4.864 9.32497 4.864C9.19697 4.864 8.84497 4.728 8.26897 4.456C7.69297 4.184 7.08497 4.024 6.44497 3.976V8.848C7.08497 9.088 7.61297 9.32 8.02897 9.544C8.46097 9.752 8.90897 10.048 9.37297 10.432C9.85297 10.816 10.213 11.304 10.453 11.896C10.693 12.472 10.813 13.152 10.813 13.936C10.813 15.36 10.421 16.496 9.63697 17.344C8.85297 18.176 7.78897 18.688 6.44497 18.88V19.696C6.44497 19.84 6.36497 19.968 6.20497 20.08C6.06097 20.192 5.90097 20.248 5.72497 20.248C5.53297 20.248 5.36497 20.192 5.22097 20.08C5.09297 19.968 5.02897 19.84 5.02897 19.696V18.952C3.63697 18.936 2.45297 18.624 1.47697 18.016C0.516969 17.392 0.0369688 16.76 0.0369688 16.12ZM2.86897 6.04C2.86897 6.664 3.06097 7.144 3.44497 7.48C3.82897 7.8 4.40497 8.104 5.17297 8.392V4.024C3.63697 4.216 2.86897 4.888 2.86897 6.04ZM6.30097 16.576C7.70897 16.32 8.41297 15.528 8.41297 14.2C8.41297 13.496 8.22897 12.944 7.86097 12.544C7.49297 12.144 6.97297 11.8 6.30097 11.512V16.576ZM12.3645 18.16V15.832C12.3645 15.112 12.6285 14.408 13.1565 13.72C13.7005 13.032 14.3645 12.408 15.1485 11.848L17.4525 10.168C18.2205 9.608 18.8685 8.992 19.3965 8.32C19.9405 7.648 20.2125 6.976 20.2125 6.304C20.2125 5.632 19.9885 5.048 19.5405 4.552C19.1085 4.04 18.4685 3.784 17.6205 3.784C16.9005 3.784 16.3165 3.984 15.8685 4.384C15.4205 4.784 15.1965 5.376 15.1965 6.16C15.1965 6.416 15.0685 6.64 14.8125 6.832C14.5725 7.024 14.2525 7.12 13.8525 7.12C13.0845 7.12 12.7005 6.648 12.7005 5.704C12.7005 4.456 13.1805 3.44 14.1405 2.656C15.1165 1.856 16.2765 1.456 17.6205 1.456C19.0445 1.456 20.2525 1.904 21.2445 2.8C22.2525 3.68 22.7565 4.824 22.7565 6.232C22.7565 7.192 22.4845 8.096 21.9405 8.944C21.4125 9.776 20.7645 10.488 19.9965 11.08C19.2445 11.656 18.4845 12.208 17.7165 12.736C16.9645 13.248 16.3165 13.768 15.7725 14.296C15.2445 14.824 14.9805 15.336 14.9805 15.832V16.744H22.0365C22.2605 16.744 22.4525 16.856 22.6125 17.08C22.7885 17.288 22.8765 17.544 22.8765 17.848C22.8765 18.152 22.7885 18.424 22.6125 18.664C22.4525 18.888 22.2605 19 22.0365 19H13.4925C13.2365 19 12.9805 18.92 12.7245 18.76C12.4845 18.6 12.3645 18.4 12.3645 18.16ZM24.0553 14.896C24.0553 14.112 24.4713 13.72 25.3033 13.72C26.1673 13.72 26.5993 14.056 26.5993 14.728C26.5993 15.4 26.8633 15.928 27.3913 16.312C27.9353 16.696 28.6073 16.888 29.4073 16.888C31.3273 16.888 32.2873 15.88 32.2873 13.864V13.408C32.2873 12.4 32.0393 11.648 31.5433 11.152C31.0473 10.64 30.3433 10.384 29.4313 10.384H25.9513C25.2313 10.384 24.8713 10.056 24.8713 9.4C24.8713 9.24 24.8873 9.048 24.9193 8.824L25.4713 2.296C25.5193 1.736 25.7113 1.456 26.0473 1.456H33.1753C33.4313 1.456 33.6233 1.568 33.7513 1.792C33.8953 2.016 33.9673 2.28 33.9673 2.584C33.9673 2.888 33.8953 3.152 33.7513 3.376C33.6233 3.6 33.4313 3.712 33.1753 3.712H27.6313L27.2953 8.368H29.4313C31.0793 8.368 32.3913 8.776 33.3673 9.592C34.3433 10.392 34.8313 11.664 34.8313 13.408V13.864C34.8313 15.672 34.3353 17.008 33.3433 17.872C32.3673 18.72 31.0713 19.144 29.4553 19.144C27.7913 19.144 26.4713 18.736 25.4953 17.92C24.5353 17.088 24.0553 16.08 24.0553 14.896ZM36.705 13.792V6.808C36.705 4.968 37.193 3.616 38.169 2.752C39.145 1.888 40.449 1.456 42.081 1.456C43.713 1.456 45.017 1.888 45.993 2.752C46.985 3.616 47.481 4.968 47.481 6.808V13.792C47.481 15.632 46.985 16.984 45.993 17.848C45.017 18.712 43.713 19.144 42.081 19.144C40.449 19.144 39.145 18.712 38.169 17.848C37.193 16.984 36.705 15.632 36.705 13.792ZM39.249 13.792C39.249 15.856 40.193 16.888 42.081 16.888C42.993 16.888 43.697 16.632 44.193 16.12C44.689 15.608 44.937 14.832 44.937 13.792V6.808C44.937 5.768 44.689 4.992 44.193 4.48C43.697 3.968 42.993 3.712 42.081 3.712C40.193 3.712 39.249 4.744 39.249 6.808V13.792ZM41.361 11.056C41.169 10.864 41.073 10.616 41.073 10.312C41.073 10.008 41.169 9.768 41.361 9.592C41.553 9.4 41.801 9.304 42.105 9.304C42.409 9.304 42.649 9.4 42.825 9.592C43.017 9.768 43.113 10.008 43.113 10.312C43.113 10.616 43.017 10.864 42.825 11.056C42.649 11.248 42.409 11.344 42.105 11.344C41.801 11.344 41.553 11.248 41.361 11.056ZM54.8245 23.56V8.44C54.8245 8.2 54.9365 8.008 55.1605 7.864C55.4005 7.704 55.6885 7.624 56.0245 7.624C56.3605 7.624 56.6405 7.704 56.8645 7.864C57.0885 8.008 57.2005 8.2 57.2005 8.44V9.304C57.4885 8.792 57.9125 8.36 58.4725 8.008C59.0485 7.656 59.6965 7.48 60.4165 7.48C61.6165 7.48 62.6325 7.944 63.4645 8.872C64.3125 9.8 64.7365 10.912 64.7365 12.208V14.416C64.7365 15.664 64.3125 16.776 63.4645 17.752C62.6165 18.712 61.6325 19.192 60.5125 19.192C59.8245 19.192 59.1845 19.008 58.5925 18.64C58.0165 18.272 57.6005 17.832 57.3445 17.32V23.56C57.3445 23.784 57.2165 23.976 56.9605 24.136C56.7045 24.312 56.4005 24.4 56.0485 24.4C55.6965 24.4 55.4005 24.312 55.1605 24.136C54.9365 23.976 54.8245 23.784 54.8245 23.56ZM57.3445 14.968C57.3445 15.32 57.5845 15.744 58.0645 16.24C58.5605 16.72 59.1285 16.96 59.7685 16.96C60.4085 16.96 60.9765 16.704 61.4725 16.192C61.9685 15.664 62.2165 15.072 62.2165 14.416V12.208C62.2165 11.568 61.9685 10.992 61.4725 10.48C60.9765 9.968 60.3925 9.712 59.7205 9.712C59.0965 9.712 58.5445 9.944 58.0645 10.408C57.5845 10.856 57.3445 11.456 57.3445 12.208V14.968ZM66.5091 14.416V12.136C66.5091 10.872 66.9971 9.784 67.9731 8.872C68.9491 7.944 70.1251 7.48 71.5011 7.48C72.8131 7.48 73.9331 7.904 74.8611 8.752C75.8051 9.584 76.2771 10.64 76.2771 11.92C76.2771 12.4 76.2211 12.792 76.1091 13.096C75.9971 13.384 75.8211 13.592 75.5811 13.72C75.3411 13.832 75.1171 13.904 74.9091 13.936C74.7011 13.968 74.4291 13.984 74.0931 13.984H69.0291V14.536C69.0291 15.336 69.3171 15.976 69.8931 16.456C70.4691 16.92 71.2211 17.152 72.1491 17.152C72.8051 17.152 73.4211 17 73.9971 16.696C74.5891 16.392 74.9491 16.24 75.0771 16.24C75.3491 16.24 75.5811 16.368 75.7731 16.624C75.9651 16.88 76.0611 17.128 76.0611 17.368C76.0611 17.768 75.6771 18.176 74.9091 18.592C74.1411 18.992 73.1971 19.192 72.0771 19.192C70.4451 19.192 69.1091 18.752 68.0691 17.872C67.0291 16.992 66.5091 15.84 66.5091 14.416ZM69.0291 12.424H73.0131C73.3651 12.424 73.5971 12.376 73.7091 12.28C73.8371 12.184 73.9011 11.992 73.9011 11.704C73.9011 11.064 73.6691 10.52 73.2051 10.072C72.7411 9.624 72.1651 9.4 71.4771 9.4C70.8051 9.4 70.2291 9.616 69.7491 10.048C69.2691 10.464 69.0291 11 69.0291 11.656V12.424ZM78.3083 18.16V8.44C78.3083 8.2 78.4203 8.008 78.6443 7.864C78.8843 7.704 79.1803 7.624 79.5323 7.624C79.8523 7.624 80.1243 7.704 80.3483 7.864C80.5723 8.008 80.6843 8.2 80.6843 8.44V9.496C80.9563 8.936 81.3643 8.464 81.9083 8.08C82.4683 7.68 83.0763 7.48 83.7323 7.48H84.5003C84.7563 7.48 84.9803 7.592 85.1723 7.816C85.3643 8.024 85.4603 8.28 85.4603 8.584C85.4603 8.888 85.3643 9.152 85.1723 9.376C84.9803 9.6 84.7563 9.712 84.5003 9.712H83.7323C82.9643 9.712 82.2843 10.04 81.6923 10.696C81.1163 11.352 80.8283 12.2 80.8283 13.24V18.16C80.8283 18.368 80.7003 18.56 80.4443 18.736C80.1883 18.912 79.8843 19 79.5323 19C79.1803 19 78.8843 18.912 78.6443 18.736C78.4203 18.56 78.3083 18.368 78.3083 18.16ZM91.8574 13.792V6.808C91.8574 4.952 92.3454 3.6 93.3214 2.752C94.2974 1.888 95.6014 1.456 97.2334 1.456C98.8654 1.456 100.169 1.888 101.145 2.752C102.137 3.6 102.633 4.952 102.633 6.808V13.792C102.633 15.472 102.225 16.744 101.409 17.608C100.593 18.472 99.4894 18.968 98.0974 19.096V20.776C98.0974 21.032 98.0094 21.232 97.8334 21.376C97.6734 21.536 97.4734 21.616 97.2334 21.616C97.0094 21.616 96.8094 21.536 96.6334 21.376C96.4734 21.232 96.3934 21.032 96.3934 20.776V19.096C95.0014 18.968 93.8974 18.48 93.0814 17.632C92.2654 16.768 91.8574 15.488 91.8574 13.792ZM94.4014 13.792C94.4014 15.488 95.0654 16.472 96.3934 16.744V15.28C96.3934 14.736 96.6734 14.464 97.2334 14.464C97.4734 14.464 97.6734 14.536 97.8334 14.68C98.0094 14.808 98.0974 15.008 98.0974 15.28V16.72C99.4254 16.432 100.089 15.456 100.089 13.792V6.808C100.089 5.768 99.8414 4.992 99.3454 4.48C98.8494 3.968 98.1454 3.712 97.2334 3.712C95.3454 3.712 94.4014 4.744 94.4014 6.808V13.792ZM105.142 14.464V8.464C105.142 8.24 105.27 8.048 105.526 7.888C105.782 7.712 106.078 7.624 106.414 7.624C106.75 7.624 107.038 7.712 107.278 7.888C107.534 8.048 107.662 8.24 107.662 8.464V14.464C107.662 15.104 107.902 15.68 108.382 16.192C108.878 16.704 109.454 16.96 110.11 16.96C110.782 16.96 111.358 16.712 111.838 16.216C112.318 15.704 112.558 15.12 112.558 14.464V8.44C112.558 8.216 112.678 8.024 112.918 7.864C113.174 7.704 113.478 7.624 113.83 7.624C114.182 7.624 114.47 7.704 114.694 7.864C114.934 8.024 115.054 8.216 115.054 8.44V14.464C115.054 15.728 114.566 16.832 113.59 17.776C112.614 18.72 111.454 19.192 110.11 19.192C108.766 19.192 107.598 18.72 106.606 17.776C105.63 16.832 105.142 15.728 105.142 14.464ZM116.87 16.024C116.87 14.744 117.35 13.856 118.31 13.36C119.27 12.848 120.662 12.592 122.486 12.592H123.542V12.16C123.542 11.456 123.342 10.848 122.942 10.336C122.558 9.824 121.966 9.568 121.166 9.568C120.478 9.568 119.87 9.688 119.342 9.928C118.83 10.168 118.55 10.288 118.502 10.288C118.23 10.288 118.006 10.16 117.83 9.904C117.67 9.632 117.59 9.336 117.59 9.016C117.59 8.6 117.974 8.24 118.742 7.936C119.526 7.632 120.35 7.48 121.214 7.48C122.862 7.48 124.078 7.928 124.862 8.824C125.662 9.704 126.062 10.808 126.062 12.136V18.16C126.062 18.384 125.942 18.584 125.702 18.76C125.478 18.92 125.19 19 124.838 19C124.518 19 124.246 18.92 124.022 18.76C123.798 18.584 123.686 18.384 123.686 18.16V17.32C122.614 18.568 121.406 19.192 120.062 19.192C119.134 19.192 118.366 18.92 117.758 18.376C117.166 17.832 116.87 17.048 116.87 16.024ZM119.414 15.712C119.414 16.224 119.558 16.616 119.846 16.888C120.134 17.144 120.51 17.272 120.974 17.272C121.582 17.272 122.158 17.016 122.702 16.504C123.262 15.992 123.542 15.448 123.542 14.872V13.984H122.942C122.222 13.984 121.63 14.016 121.166 14.08C120.718 14.144 120.31 14.312 119.942 14.584C119.59 14.856 119.414 15.232 119.414 15.712ZM128.629 18.16V8.44C128.629 8.2 128.741 8.008 128.965 7.864C129.205 7.704 129.501 7.624 129.853 7.624C130.173 7.624 130.445 7.704 130.669 7.864C130.893 8.008 131.005 8.2 131.005 8.44V9.496C131.277 8.936 131.685 8.464 132.229 8.08C132.789 7.68 133.397 7.48 134.053 7.48H134.821C135.077 7.48 135.301 7.592 135.493 7.816C135.685 8.024 135.781 8.28 135.781 8.584C135.781 8.888 135.685 9.152 135.493 9.376C135.301 9.6 135.077 9.712 134.821 9.712H134.053C133.285 9.712 132.605 10.04 132.013 10.696C131.437 11.352 131.149 12.2 131.149 13.24V18.16C131.149 18.368 131.021 18.56 130.765 18.736C130.509 18.912 130.205 19 129.853 19C129.501 19 129.205 18.912 128.965 18.736C128.741 18.56 128.629 18.368 128.629 18.16ZM137.253 15.256V3.232C137.253 3.008 137.381 2.816 137.637 2.656C137.893 2.496 138.181 2.416 138.501 2.416C138.821 2.416 139.109 2.496 139.365 2.656C139.637 2.816 139.773 3.008 139.773 3.232V7.624H142.701C142.909 7.624 143.077 7.72 143.205 7.912C143.333 8.088 143.397 8.304 143.397 8.56C143.397 8.816 143.333 9.04 143.205 9.232C143.077 9.408 142.909 9.496 142.701 9.496H139.773V15.256C139.773 15.832 139.893 16.24 140.133 16.48C140.389 16.72 140.829 16.84 141.453 16.84H142.293C142.629 16.84 142.893 16.944 143.085 17.152C143.277 17.36 143.373 17.616 143.373 17.92C143.373 18.224 143.277 18.48 143.085 18.688C142.893 18.896 142.629 19 142.293 19H141.453C138.653 19 137.253 17.752 137.253 15.256ZM144.579 14.416V12.136C144.579 10.872 145.067 9.784 146.043 8.872C147.019 7.944 148.195 7.48 149.571 7.48C150.883 7.48 152.003 7.904 152.931 8.752C153.875 9.584 154.347 10.64 154.347 11.92C154.347 12.4 154.291 12.792 154.179 13.096C154.067 13.384 153.891 13.592 153.651 13.72C153.411 13.832 153.187 13.904 152.979 13.936C152.771 13.968 152.499 13.984 152.163 13.984H147.099V14.536C147.099 15.336 147.387 15.976 147.963 16.456C148.539 16.92 149.291 17.152 150.219 17.152C150.875 17.152 151.491 17 152.067 16.696C152.659 16.392 153.019 16.24 153.147 16.24C153.419 16.24 153.651 16.368 153.843 16.624C154.035 16.88 154.131 17.128 154.131 17.368C154.131 17.768 153.747 18.176 152.979 18.592C152.211 18.992 151.267 19.192 150.147 19.192C148.515 19.192 147.179 18.752 146.139 17.872C145.099 16.992 144.579 15.84 144.579 14.416ZM147.099 12.424H151.083C151.435 12.424 151.667 12.376 151.779 12.28C151.907 12.184 151.971 11.992 151.971 11.704C151.971 11.064 151.739 10.52 151.275 10.072C150.811 9.624 150.235 9.4 149.547 9.4C148.875 9.4 148.299 9.616 147.819 10.048C147.339 10.464 147.099 11 147.099 11.656V12.424ZM156.379 18.16V8.44C156.379 8.2 156.491 8.008 156.715 7.864C156.955 7.704 157.251 7.624 157.603 7.624C157.923 7.624 158.195 7.704 158.419 7.864C158.643 8.008 158.755 8.2 158.755 8.44V9.496C159.027 8.936 159.435 8.464 159.979 8.08C160.539 7.68 161.147 7.48 161.803 7.48H162.571C162.827 7.48 163.051 7.592 163.243 7.816C163.435 8.024 163.531 8.28 163.531 8.584C163.531 8.888 163.435 9.152 163.243 9.376C163.051 9.6 162.827 9.712 162.571 9.712H161.803C161.035 9.712 160.355 10.04 159.763 10.696C159.187 11.352 158.899 12.2 158.899 13.24V18.16C158.899 18.368 158.771 18.56 158.515 18.736C158.259 18.912 157.955 19 157.603 19C157.251 19 156.955 18.912 156.715 18.736C156.491 18.56 156.379 18.368 156.379 18.16Z" fill="#982649"/>
</svg>
