<svg width="164" height="25" viewBox="0 0 164 25" fill="none" xmlns="http://www.w3.org/2000/svg">
<path d="M0.189313 16.12C0.189313 15.816 0.301313 15.512 0.525313 15.208C0.749313 14.904 1.00531 14.752 1.29331 14.752C1.48531 14.752 1.73331 14.896 2.03731 15.184C2.35731 15.456 2.78131 15.752 3.30931 16.072C3.85331 16.392 4.47731 16.576 5.18131 16.624V10.984C4.70131 10.808 4.33331 10.672 4.07731 10.576C3.82131 10.464 3.47731 10.312 3.04531 10.12C2.62931 9.912 2.30131 9.704 2.06131 9.496C1.83731 9.272 1.59731 9.008 1.34131 8.704C1.08531 8.4 0.901313 8.048 0.789313 7.648C0.677313 7.232 0.621313 6.776 0.621313 6.28C0.621313 4.888 1.05331 3.832 1.91731 3.112C2.79731 2.392 3.88531 1.96 5.18131 1.816V1.12C5.18131 0.975999 5.24531 0.848 5.37331 0.735999C5.51731 0.624 5.68531 0.568 5.87731 0.568C6.05331 0.568 6.21331 0.624 6.35731 0.735999C6.51731 0.848 6.59731 0.975999 6.59731 1.12V1.768C7.57331 1.8 8.46931 1.968 9.28531 2.272C10.1173 2.56 10.5333 2.968 10.5333 3.496C10.5333 3.784 10.4373 4.088 10.2453 4.408C10.0533 4.712 9.79731 4.864 9.47731 4.864C9.34931 4.864 8.99731 4.728 8.42131 4.456C7.84531 4.184 7.23731 4.024 6.59731 3.976V8.848C7.23731 9.088 7.76531 9.32 8.18131 9.544C8.61331 9.752 9.06131 10.048 9.52531 10.432C10.0053 10.816 10.3653 11.304 10.6053 11.896C10.8453 12.472 10.9653 13.152 10.9653 13.936C10.9653 15.36 10.5733 16.496 9.78931 17.344C9.00531 18.176 7.94131 18.688 6.59731 18.88V19.696C6.59731 19.84 6.51731 19.968 6.35731 20.08C6.21331 20.192 6.05331 20.248 5.87731 20.248C5.68531 20.248 5.51731 20.192 5.37331 20.08C5.24531 19.968 5.18131 19.84 5.18131 19.696V18.952C3.78931 18.936 2.60531 18.624 1.62931 18.016C0.669313 17.392 0.189313 16.76 0.189313 16.12ZM3.02131 6.04C3.02131 6.664 3.21331 7.144 3.59731 7.48C3.98131 7.8 4.55731 8.104 5.32531 8.392V4.024C3.78931 4.216 3.02131 4.888 3.02131 6.04ZM6.45331 16.576C7.86131 16.32 8.56531 15.528 8.56531 14.2C8.56531 13.496 8.38131 12.944 8.01331 12.544C7.64531 12.144 7.12531 11.8 6.45331 11.512V16.576ZM11.8689 14.128C11.8689 13.952 11.9169 13.776 12.0129 13.6L17.8209 2.152C18.0609 1.688 18.4289 1.456 18.9249 1.456C19.1969 1.456 19.4769 1.552 19.7649 1.744C20.0529 1.936 20.1969 2.168 20.1969 2.44C20.1969 2.536 20.1569 2.664 20.0769 2.824L15.1329 12.688H18.6609V9.376C18.6609 8.816 19.0849 8.536 19.9329 8.536C20.2849 8.536 20.5809 8.608 20.8209 8.752C21.0769 8.896 21.2049 9.104 21.2049 9.376V12.688H22.3809C22.6529 12.688 22.8609 12.808 23.0049 13.048C23.1649 13.288 23.2449 13.568 23.2449 13.888C23.2449 14.176 23.1569 14.448 22.9809 14.704C22.8049 14.944 22.6049 15.064 22.3809 15.064H21.2049V18.16C21.2049 18.416 21.0769 18.624 20.8209 18.784C20.5649 18.928 20.2689 19 19.9329 19C19.5809 19 19.2769 18.928 19.0209 18.784C18.7809 18.624 18.6609 18.416 18.6609 18.16V15.064H12.7569C12.5009 15.064 12.2849 14.984 12.1089 14.824C11.9489 14.648 11.8689 14.416 11.8689 14.128ZM23.903 14.896C23.903 14.112 24.319 13.72 25.151 13.72C26.015 13.72 26.447 14.056 26.447 14.728C26.447 15.4 26.711 15.928 27.239 16.312C27.783 16.696 28.455 16.888 29.255 16.888C31.175 16.888 32.135 15.88 32.135 13.864V13.408C32.135 12.4 31.887 11.648 31.391 11.152C30.895 10.64 30.191 10.384 29.279 10.384H25.799C25.079 10.384 24.719 10.056 24.719 9.4C24.719 9.24 24.735 9.048 24.767 8.824L25.319 2.296C25.367 1.736 25.559 1.456 25.895 1.456H33.023C33.279 1.456 33.471 1.568 33.599 1.792C33.743 2.016 33.815 2.28 33.815 2.584C33.815 2.888 33.743 3.152 33.599 3.376C33.471 3.6 33.279 3.712 33.023 3.712H27.479L27.143 8.368H29.279C30.927 8.368 32.239 8.776 33.215 9.592C34.191 10.392 34.679 11.664 34.679 13.408V13.864C34.679 15.672 34.183 17.008 33.191 17.872C32.215 18.72 30.919 19.144 29.303 19.144C27.639 19.144 26.319 18.736 25.343 17.92C24.383 17.088 23.903 16.08 23.903 14.896ZM36.5527 13.792V6.808C36.5527 4.968 37.0407 3.616 38.0167 2.752C38.9927 1.888 40.2967 1.456 41.9287 1.456C43.5607 1.456 44.8647 1.888 45.8407 2.752C46.8327 3.616 47.3287 4.968 47.3287 6.808V13.792C47.3287 15.632 46.8327 16.984 45.8407 17.848C44.8647 18.712 43.5607 19.144 41.9287 19.144C40.2967 19.144 38.9927 18.712 38.0167 17.848C37.0407 16.984 36.5527 15.632 36.5527 13.792ZM39.0967 13.792C39.0967 15.856 40.0407 16.888 41.9287 16.888C42.8407 16.888 43.5447 16.632 44.0407 16.12C44.5367 15.608 44.7847 14.832 44.7847 13.792V6.808C44.7847 5.768 44.5367 4.992 44.0407 4.48C43.5447 3.968 42.8407 3.712 41.9287 3.712C40.0407 3.712 39.0967 4.744 39.0967 6.808V13.792ZM41.2087 11.056C41.0167 10.864 40.9207 10.616 40.9207 10.312C40.9207 10.008 41.0167 9.768 41.2087 9.592C41.4007 9.4 41.6487 9.304 41.9527 9.304C42.2567 9.304 42.4967 9.4 42.6727 9.592C42.8647 9.768 42.9607 10.008 42.9607 10.312C42.9607 10.616 42.8647 10.864 42.6727 11.056C42.4967 11.248 42.2567 11.344 41.9527 11.344C41.6487 11.344 41.4007 11.248 41.2087 11.056ZM54.6721 23.56V8.44C54.6721 8.2 54.7841 8.008 55.0081 7.864C55.2481 7.704 55.5361 7.624 55.8721 7.624C56.2081 7.624 56.4881 7.704 56.7121 7.864C56.9361 8.008 57.0481 8.2 57.0481 8.44V9.304C57.3361 8.792 57.7601 8.36 58.3201 8.008C58.8961 7.656 59.5441 7.48 60.2641 7.48C61.4641 7.48 62.4801 7.944 63.3121 8.872C64.1601 9.8 64.5841 10.912 64.5841 12.208V14.416C64.5841 15.664 64.1601 16.776 63.3121 17.752C62.4641 18.712 61.4801 19.192 60.3601 19.192C59.6721 19.192 59.0321 19.008 58.4401 18.64C57.8641 18.272 57.4481 17.832 57.1921 17.32V23.56C57.1921 23.784 57.0641 23.976 56.8081 24.136C56.5521 24.312 56.2481 24.4 55.8961 24.4C55.5441 24.4 55.2481 24.312 55.0081 24.136C54.7841 23.976 54.6721 23.784 54.6721 23.56ZM57.1921 14.968C57.1921 15.32 57.4321 15.744 57.9121 16.24C58.4081 16.72 58.9761 16.96 59.6161 16.96C60.2561 16.96 60.8241 16.704 61.3201 16.192C61.8161 15.664 62.0641 15.072 62.0641 14.416V12.208C62.0641 11.568 61.8161 10.992 61.3201 10.48C60.8241 9.968 60.2401 9.712 59.5681 9.712C58.9441 9.712 58.3921 9.944 57.9121 10.408C57.4321 10.856 57.1921 11.456 57.1921 12.208V14.968ZM66.3568 14.416V12.136C66.3568 10.872 66.8448 9.784 67.8208 8.872C68.7968 7.944 69.9728 7.48 71.3488 7.48C72.6608 7.48 73.7808 7.904 74.7088 8.752C75.6528 9.584 76.1248 10.64 76.1248 11.92C76.1248 12.4 76.0688 12.792 75.9568 13.096C75.8448 13.384 75.6688 13.592 75.4288 13.72C75.1888 13.832 74.9648 13.904 74.7568 13.936C74.5488 13.968 74.2768 13.984 73.9408 13.984H68.8768V14.536C68.8768 15.336 69.1648 15.976 69.7408 16.456C70.3168 16.92 71.0688 17.152 71.9968 17.152C72.6528 17.152 73.2688 17 73.8448 16.696C74.4368 16.392 74.7968 16.24 74.9248 16.24C75.1968 16.24 75.4288 16.368 75.6208 16.624C75.8128 16.88 75.9088 17.128 75.9088 17.368C75.9088 17.768 75.5248 18.176 74.7568 18.592C73.9888 18.992 73.0448 19.192 71.9248 19.192C70.2928 19.192 68.9568 18.752 67.9168 17.872C66.8768 16.992 66.3568 15.84 66.3568 14.416ZM68.8768 12.424H72.8608C73.2128 12.424 73.4448 12.376 73.5568 12.28C73.6848 12.184 73.7488 11.992 73.7488 11.704C73.7488 11.064 73.5168 10.52 73.0528 10.072C72.5888 9.624 72.0128 9.4 71.3248 9.4C70.6528 9.4 70.0768 9.616 69.5968 10.048C69.1168 10.464 68.8768 11 68.8768 11.656V12.424ZM78.1559 18.16V8.44C78.1559 8.2 78.2679 8.008 78.4919 7.864C78.7319 7.704 79.0279 7.624 79.3799 7.624C79.6999 7.624 79.9719 7.704 80.1959 7.864C80.4199 8.008 80.5319 8.2 80.5319 8.44V9.496C80.8039 8.936 81.2119 8.464 81.7559 8.08C82.3159 7.68 82.9239 7.48 83.5799 7.48H84.3479C84.6039 7.48 84.8279 7.592 85.0199 7.816C85.2119 8.024 85.3079 8.28 85.3079 8.584C85.3079 8.888 85.2119 9.152 85.0199 9.376C84.8279 9.6 84.6039 9.712 84.3479 9.712H83.5799C82.8119 9.712 82.1319 10.04 81.5399 10.696C80.9639 11.352 80.6759 12.2 80.6759 13.24V18.16C80.6759 18.368 80.5479 18.56 80.2919 18.736C80.0359 18.912 79.7319 19 79.3799 19C79.0279 19 78.7319 18.912 78.4919 18.736C78.2679 18.56 78.1559 18.368 78.1559 18.16ZM91.7051 13.792V6.808C91.7051 4.952 92.1931 3.6 93.1691 2.752C94.1451 1.888 95.4491 1.456 97.0811 1.456C98.7131 1.456 100.017 1.888 100.993 2.752C101.985 3.6 102.481 4.952 102.481 6.808V13.792C102.481 15.472 102.073 16.744 101.257 17.608C100.441 18.472 99.3371 18.968 97.9451 19.096V20.776C97.9451 21.032 97.8571 21.232 97.6811 21.376C97.5211 21.536 97.3211 21.616 97.0811 21.616C96.8571 21.616 96.6571 21.536 96.4811 21.376C96.3211 21.232 96.2411 21.032 96.2411 20.776V19.096C94.8491 18.968 93.7451 18.48 92.9291 17.632C92.1131 16.768 91.7051 15.488 91.7051 13.792ZM94.2491 13.792C94.2491 15.488 94.9131 16.472 96.2411 16.744V15.28C96.2411 14.736 96.5211 14.464 97.0811 14.464C97.3211 14.464 97.5211 14.536 97.6811 14.68C97.8571 14.808 97.9451 15.008 97.9451 15.28V16.72C99.2731 16.432 99.9371 15.456 99.9371 13.792V6.808C99.9371 5.768 99.6891 4.992 99.1931 4.48C98.6971 3.968 97.9931 3.712 97.0811 3.712C95.1931 3.712 94.2491 4.744 94.2491 6.808V13.792ZM104.99 14.464V8.464C104.99 8.24 105.118 8.048 105.374 7.888C105.63 7.712 105.926 7.624 106.262 7.624C106.598 7.624 106.886 7.712 107.126 7.888C107.382 8.048 107.51 8.24 107.51 8.464V14.464C107.51 15.104 107.75 15.68 108.23 16.192C108.726 16.704 109.302 16.96 109.958 16.96C110.63 16.96 111.206 16.712 111.686 16.216C112.166 15.704 112.406 15.12 112.406 14.464V8.44C112.406 8.216 112.526 8.024 112.766 7.864C113.022 7.704 113.326 7.624 113.678 7.624C114.03 7.624 114.318 7.704 114.542 7.864C114.782 8.024 114.902 8.216 114.902 8.44V14.464C114.902 15.728 114.414 16.832 113.438 17.776C112.462 18.72 111.302 19.192 109.958 19.192C108.614 19.192 107.446 18.72 106.454 17.776C105.478 16.832 104.99 15.728 104.99 14.464ZM116.717 16.024C116.717 14.744 117.197 13.856 118.157 13.36C119.117 12.848 120.509 12.592 122.333 12.592H123.389V12.16C123.389 11.456 123.189 10.848 122.789 10.336C122.405 9.824 121.813 9.568 121.013 9.568C120.325 9.568 119.717 9.688 119.189 9.928C118.677 10.168 118.397 10.288 118.349 10.288C118.077 10.288 117.853 10.16 117.677 9.904C117.517 9.632 117.437 9.336 117.437 9.016C117.437 8.6 117.821 8.24 118.589 7.936C119.373 7.632 120.197 7.48 121.061 7.48C122.709 7.48 123.925 7.928 124.709 8.824C125.509 9.704 125.909 10.808 125.909 12.136V18.16C125.909 18.384 125.789 18.584 125.549 18.76C125.325 18.92 125.037 19 124.685 19C124.365 19 124.093 18.92 123.869 18.76C123.645 18.584 123.533 18.384 123.533 18.16V17.32C122.461 18.568 121.253 19.192 119.909 19.192C118.981 19.192 118.213 18.92 117.605 18.376C117.013 17.832 116.717 17.048 116.717 16.024ZM119.261 15.712C119.261 16.224 119.405 16.616 119.693 16.888C119.981 17.144 120.357 17.272 120.821 17.272C121.429 17.272 122.005 17.016 122.549 16.504C123.109 15.992 123.389 15.448 123.389 14.872V13.984H122.789C122.069 13.984 121.477 14.016 121.013 14.08C120.565 14.144 120.157 14.312 119.789 14.584C119.437 14.856 119.261 15.232 119.261 15.712ZM128.476 18.16V8.44C128.476 8.2 128.588 8.008 128.812 7.864C129.052 7.704 129.348 7.624 129.7 7.624C130.02 7.624 130.292 7.704 130.516 7.864C130.74 8.008 130.852 8.2 130.852 8.44V9.496C131.124 8.936 131.532 8.464 132.076 8.08C132.636 7.68 133.244 7.48 133.9 7.48H134.668C134.924 7.48 135.148 7.592 135.34 7.816C135.532 8.024 135.628 8.28 135.628 8.584C135.628 8.888 135.532 9.152 135.34 9.376C135.148 9.6 134.924 9.712 134.668 9.712H133.9C133.132 9.712 132.452 10.04 131.86 10.696C131.284 11.352 130.996 12.2 130.996 13.24V18.16C130.996 18.368 130.868 18.56 130.612 18.736C130.356 18.912 130.052 19 129.7 19C129.348 19 129.052 18.912 128.812 18.736C128.588 18.56 128.476 18.368 128.476 18.16ZM137.101 15.256V3.232C137.101 3.008 137.229 2.816 137.485 2.656C137.741 2.496 138.029 2.416 138.349 2.416C138.669 2.416 138.957 2.496 139.213 2.656C139.485 2.816 139.621 3.008 139.621 3.232V7.624H142.549C142.757 7.624 142.925 7.72 143.053 7.912C143.181 8.088 143.245 8.304 143.245 8.56C143.245 8.816 143.181 9.04 143.053 9.232C142.925 9.408 142.757 9.496 142.549 9.496H139.621V15.256C139.621 15.832 139.741 16.24 139.981 16.48C140.237 16.72 140.677 16.84 141.301 16.84H142.141C142.477 16.84 142.741 16.944 142.933 17.152C143.125 17.36 143.221 17.616 143.221 17.92C143.221 18.224 143.125 18.48 142.933 18.688C142.741 18.896 142.477 19 142.141 19H141.301C138.501 19 137.101 17.752 137.101 15.256ZM144.427 14.416V12.136C144.427 10.872 144.915 9.784 145.891 8.872C146.867 7.944 148.043 7.48 149.419 7.48C150.731 7.48 151.851 7.904 152.779 8.752C153.723 9.584 154.195 10.64 154.195 11.92C154.195 12.4 154.139 12.792 154.027 13.096C153.915 13.384 153.739 13.592 153.499 13.72C153.259 13.832 153.035 13.904 152.827 13.936C152.619 13.968 152.347 13.984 152.011 13.984H146.947V14.536C146.947 15.336 147.235 15.976 147.811 16.456C148.387 16.92 149.139 17.152 150.067 17.152C150.723 17.152 151.339 17 151.915 16.696C152.507 16.392 152.867 16.24 152.995 16.24C153.267 16.24 153.499 16.368 153.691 16.624C153.883 16.88 153.979 17.128 153.979 17.368C153.979 17.768 153.595 18.176 152.827 18.592C152.059 18.992 151.115 19.192 149.995 19.192C148.363 19.192 147.027 18.752 145.987 17.872C144.947 16.992 144.427 15.84 144.427 14.416ZM146.947 12.424H150.931C151.283 12.424 151.515 12.376 151.627 12.28C151.755 12.184 151.819 11.992 151.819 11.704C151.819 11.064 151.587 10.52 151.123 10.072C150.659 9.624 150.083 9.4 149.395 9.4C148.723 9.4 148.147 9.616 147.667 10.048C147.187 10.464 146.947 11 146.947 11.656V12.424ZM156.226 18.16V8.44C156.226 8.2 156.338 8.008 156.562 7.864C156.802 7.704 157.098 7.624 157.45 7.624C157.77 7.624 158.042 7.704 158.266 7.864C158.49 8.008 158.602 8.2 158.602 8.44V9.496C158.874 8.936 159.282 8.464 159.826 8.08C160.386 7.68 160.994 7.48 161.65 7.48H162.418C162.674 7.48 162.898 7.592 163.09 7.816C163.282 8.024 163.378 8.28 163.378 8.584C163.378 8.888 163.282 9.152 163.09 9.376C162.898 9.6 162.674 9.712 162.418 9.712H161.65C160.882 9.712 160.202 10.04 159.61 10.696C159.034 11.352 158.746 12.2 158.746 13.24V18.16C158.746 18.368 158.618 18.56 158.362 18.736C158.106 18.912 157.802 19 157.45 19C157.098 19 156.802 18.912 156.562 18.736C156.338 18.56 156.226 18.368 156.226 18.16Z" fill="#982649"/>
</svg>
