<svg width="142" height="37" viewBox="0 0 142 37" fill="none" xmlns="http://www.w3.org/2000/svg">
<path d="M0.376 26.776V2.944C0.376 2.56 0.544 2.26 0.88 2.044C1.216 1.804 1.612 1.684 2.068 1.684H8.62C10.828 1.684 12.592 2.14 13.912 3.052C15.232 3.964 15.892 5.584 15.892 7.912C15.892 10.888 14.872 12.832 12.832 13.744C14.056 14.224 14.98 14.92 15.604 15.832C16.228 16.72 16.54 18.028 16.54 19.756V20.44C16.54 23.08 15.892 25 14.596 26.2C13.3 27.4 11.56 28 9.376 28H2.068C1.564 28 1.156 27.88 0.844 27.64C0.532 27.4 0.376 27.112 0.376 26.776ZM4.156 24.616H8.656C11.368 24.616 12.724 23.128 12.724 20.152V19.576C12.724 18.04 12.376 16.936 11.68 16.264C11.008 15.592 10 15.256 8.656 15.256H4.156V24.616ZM4.156 12.232H8.44C10.864 12.232 12.076 10.996 12.076 8.524C12.076 6.22 10.84 5.068 8.368 5.068H4.156V12.232ZM19.5544 4.672C19.5544 4.12 19.7704 3.652 20.2024 3.268C20.6344 2.884 21.1504 2.692 21.7504 2.692C22.3504 2.692 22.8664 2.884 23.2984 3.268C23.7304 3.652 23.9464 4.12 23.9464 4.672C23.9464 5.2 23.7304 5.668 23.2984 6.076C22.8664 6.46 22.3504 6.652 21.7504 6.652C21.1504 6.652 20.6344 6.46 20.2024 6.076C19.7704 5.668 19.5544 5.2 19.5544 4.672ZM19.8784 26.74V12.16C19.8784 11.8 20.0464 11.512 20.3824 11.296C20.7424 11.056 21.1984 10.936 21.7504 10.936C22.3024 10.936 22.7584 11.056 23.1184 11.296C23.4784 11.512 23.6584 11.8 23.6584 12.16V26.74C23.6584 27.052 23.4664 27.34 23.0824 27.604C22.7224 27.868 22.2784 28 21.7504 28C21.2224 28 20.7784 27.868 20.4184 27.604C20.0584 27.34 19.8784 27.052 19.8784 26.74ZM26.9288 21.124V17.812C26.9288 15.916 27.6608 14.26 29.1248 12.844C30.5888 11.428 32.3408 10.72 34.3808 10.72C36.3728 10.72 38.1128 11.428 39.6008 12.844C41.0888 14.236 41.8328 15.892 41.8328 17.812V21.124C41.8328 22.996 41.0768 24.664 39.5648 26.128C38.0768 27.568 36.3488 28.288 34.3808 28.288C32.3888 28.288 30.6488 27.568 29.1608 26.128C27.6728 24.688 26.9288 23.02 26.9288 21.124ZM30.7088 21.124C30.7088 22.108 31.0688 22.996 31.7888 23.788C32.5088 24.556 33.3728 24.94 34.3808 24.94C35.3648 24.94 36.2168 24.556 36.9368 23.788C37.6808 22.996 38.0528 22.108 38.0528 21.124V17.812C38.0528 16.852 37.6808 15.988 36.9368 15.22C36.2168 14.452 35.3648 14.068 34.3808 14.068C33.3728 14.068 32.5088 14.452 31.7888 15.22C31.0688 15.988 30.7088 16.852 30.7088 17.812V21.124ZM43.8598 31.132C43.8598 29.452 44.7838 28.168 46.6318 27.28C45.5038 26.8 44.9398 26.008 44.9398 24.904C44.9398 23.848 45.5398 22.936 46.7398 22.168C45.3238 21.064 44.6158 19.552 44.6158 17.632V16.624C44.6158 14.896 45.2278 13.48 46.4518 12.376C47.6998 11.272 49.3198 10.72 51.3118 10.72C52.9918 10.72 54.3838 11.128 55.4878 11.944C56.1838 10.336 56.9638 9.532 57.8278 9.532C58.2838 9.532 58.6558 9.676 58.9438 9.964C59.2318 10.228 59.3758 10.516 59.3758 10.828C59.3758 11.212 59.1718 11.512 58.7638 11.728C57.9958 12.064 57.3958 12.544 56.9638 13.168C57.7318 14.128 58.1158 15.28 58.1158 16.624V17.632C58.1158 19.36 57.4798 20.788 56.2078 21.916C54.9358 23.044 53.3038 23.608 51.3118 23.608C50.3758 23.608 49.5478 23.464 48.8278 23.176C48.3718 23.488 48.1438 23.824 48.1438 24.184C48.1438 24.664 48.5158 25.012 49.2598 25.228C50.0278 25.444 50.9398 25.612 51.9958 25.732C53.0758 25.852 54.1438 26.032 55.1998 26.272C56.2798 26.488 57.1918 26.968 57.9358 27.712C58.7038 28.456 59.0878 29.44 59.0878 30.664C59.0878 32.464 58.3678 33.82 56.9278 34.732C55.5118 35.644 53.7118 36.1 51.5278 36.1C49.3438 36.1 47.5198 35.644 46.0558 34.732C44.5918 33.844 43.8598 32.644 43.8598 31.132ZM47.4238 30.736C47.4238 31.6 47.7958 32.284 48.5398 32.788C49.3078 33.316 50.2918 33.58 51.4918 33.58C52.6678 33.58 53.6158 33.328 54.3358 32.824C55.0558 32.32 55.4158 31.636 55.4158 30.772C55.4158 30.22 55.2478 29.752 54.9118 29.368C54.5758 29.008 54.0718 28.732 53.3998 28.54C52.7518 28.372 52.1878 28.252 51.7078 28.18C51.2518 28.132 50.6278 28.084 49.8358 28.036C48.2278 28.636 47.4238 29.536 47.4238 30.736ZM48.2878 17.596C48.2878 18.652 48.5638 19.516 49.1158 20.188C49.6678 20.86 50.4238 21.196 51.3838 21.196C52.3198 21.196 53.0638 20.872 53.6158 20.224C54.1678 19.552 54.4438 18.688 54.4438 17.632V16.624C54.4438 15.616 54.1678 14.788 53.6158 14.14C53.0638 13.468 52.3078 13.132 51.3478 13.132C50.4118 13.132 49.6678 13.468 49.1158 14.14C48.5638 14.788 48.2878 15.616 48.2878 16.624V17.596ZM61.8198 26.74V12.16C61.8198 11.8 61.9878 11.512 62.3238 11.296C62.6838 11.056 63.1278 10.936 63.6558 10.936C64.1358 10.936 64.5438 11.056 64.8798 11.296C65.2158 11.512 65.3838 11.8 65.3838 12.16V13.744C65.7918 12.904 66.4038 12.196 67.2198 11.62C68.0598 11.02 68.9718 10.72 69.9558 10.72H71.1078C71.4918 10.72 71.8278 10.888 72.1158 11.224C72.4038 11.536 72.5478 11.92 72.5478 12.376C72.5478 12.832 72.4038 13.228 72.1158 13.564C71.8278 13.9 71.4918 14.068 71.1078 14.068H69.9558C68.8038 14.068 67.7838 14.56 66.8958 15.544C66.0318 16.528 65.5998 17.8 65.5998 19.36V26.74C65.5998 27.052 65.4078 27.34 65.0238 27.604C64.6398 27.868 64.1838 28 63.6558 28C63.1278 28 62.6838 27.868 62.3238 27.604C61.9878 27.34 61.8198 27.052 61.8198 26.74ZM73.7125 23.536C73.7125 21.616 74.4325 20.284 75.8725 19.54C77.3125 18.772 79.4005 18.388 82.1365 18.388H83.7205V17.74C83.7205 16.684 83.4205 15.772 82.8205 15.004C82.2445 14.236 81.3565 13.852 80.1565 13.852C79.1245 13.852 78.2125 14.032 77.4205 14.392C76.6525 14.752 76.2325 14.932 76.1605 14.932C75.7525 14.932 75.4165 14.74 75.1525 14.356C74.9125 13.948 74.7925 13.504 74.7925 13.024C74.7925 12.4 75.3685 11.86 76.5205 11.404C77.6965 10.948 78.9325 10.72 80.2285 10.72C82.7005 10.72 84.5245 11.392 85.7005 12.736C86.9005 14.056 87.5005 15.712 87.5005 17.704V26.74C87.5005 27.076 87.3205 27.376 86.9605 27.64C86.6245 27.88 86.1925 28 85.6645 28C85.1845 28 84.7765 27.88 84.4405 27.64C84.1045 27.376 83.9365 27.076 83.9365 26.74V25.48C82.3285 27.352 80.5165 28.288 78.5005 28.288C77.1085 28.288 75.9565 27.88 75.0445 27.064C74.1565 26.248 73.7125 25.072 73.7125 23.536ZM77.5285 23.068C77.5285 23.836 77.7445 24.424 78.1765 24.832C78.6085 25.216 79.1725 25.408 79.8685 25.408C80.7805 25.408 81.6445 25.024 82.4605 24.256C83.3005 23.488 83.7205 22.672 83.7205 21.808V20.476H82.8205C81.7405 20.476 80.8525 20.524 80.1565 20.62C79.4845 20.716 78.8725 20.968 78.3205 21.376C77.7925 21.784 77.5285 22.348 77.5285 23.068ZM91.3871 34.84V12.16C91.3871 11.8 91.5551 11.512 91.8911 11.296C92.2511 11.056 92.6831 10.936 93.1871 10.936C93.6911 10.936 94.1111 11.056 94.4471 11.296C94.7831 11.512 94.9511 11.8 94.9511 12.16V13.456C95.3831 12.688 96.0191 12.04 96.8591 11.512C97.7231 10.984 98.6951 10.72 99.7751 10.72C101.575 10.72 103.099 11.416 104.347 12.808C105.619 14.2 106.255 15.868 106.255 17.812V21.124C106.255 22.996 105.619 24.664 104.347 26.128C103.075 27.568 101.599 28.288 99.9191 28.288C98.8871 28.288 97.9271 28.012 97.0391 27.46C96.1751 26.908 95.5511 26.248 95.1671 25.48V34.84C95.1671 35.176 94.9751 35.464 94.5911 35.704C94.2071 35.968 93.7511 36.1 93.2231 36.1C92.6951 36.1 92.2511 35.968 91.8911 35.704C91.5551 35.464 91.3871 35.176 91.3871 34.84ZM95.1671 21.952C95.1671 22.48 95.5271 23.116 96.2471 23.86C96.9911 24.58 97.8431 24.94 98.8031 24.94C99.7631 24.94 100.615 24.556 101.359 23.788C102.103 22.996 102.475 22.108 102.475 21.124V17.812C102.475 16.852 102.103 15.988 101.359 15.22C100.615 14.452 99.7391 14.068 98.7311 14.068C97.7951 14.068 96.9671 14.416 96.2471 15.112C95.5271 15.784 95.1671 16.684 95.1671 17.812V21.952ZM109.598 26.74V2.008C109.598 1.648 109.766 1.36 110.102 1.144C110.462 0.903998 110.918 0.783998 111.47 0.783998C111.998 0.783998 112.442 0.903998 112.802 1.144C113.186 1.36 113.378 1.648 113.378 2.008V13.456C113.762 12.688 114.35 12.04 115.142 11.512C115.958 10.984 116.906 10.72 117.986 10.72C119.69 10.72 121.154 11.416 122.378 12.808C123.626 14.2 124.25 15.868 124.25 17.812V26.74C124.25 27.124 124.058 27.436 123.674 27.676C123.29 27.892 122.846 28 122.342 28C121.862 28 121.43 27.892 121.046 27.676C120.662 27.436 120.47 27.124 120.47 26.74V17.812C120.47 16.852 120.11 15.988 119.39 15.22C118.67 14.452 117.818 14.068 116.834 14.068C115.922 14.068 115.118 14.416 114.422 15.112C113.726 15.784 113.378 16.684 113.378 17.812V26.74C113.378 27.052 113.186 27.34 112.802 27.604C112.418 27.868 111.974 28 111.47 28C110.942 28 110.498 27.868 110.138 27.604C109.778 27.34 109.598 27.052 109.598 26.74ZM127.882 36.1C126.706 36.1 126.118 35.56 126.118 34.48C126.118 33.4 126.466 32.86 127.162 32.86C128.242 32.86 129.31 32.344 130.366 31.312C131.422 30.28 132.07 28.828 132.31 26.956L126.262 12.988C126.166 12.868 126.118 12.7 126.118 12.484C126.118 12.028 126.394 11.62 126.946 11.26C127.498 10.876 128.05 10.684 128.602 10.684C129.202 10.684 129.586 10.912 129.754 11.368L134.29 23.068L138.178 11.368C138.394 10.912 138.754 10.684 139.258 10.684C139.762 10.684 140.302 10.876 140.878 11.26C141.478 11.62 141.778 12.052 141.778 12.556C141.778 12.772 141.754 12.916 141.706 12.988L136.378 27.064L135.766 28.684C135.622 29.02 135.394 29.536 135.082 30.232C134.794 30.928 134.542 31.456 134.326 31.816L133.462 33.148C133.102 33.7 132.742 34.108 132.382 34.372C132.022 34.66 131.614 34.948 131.158 35.236C130.702 35.548 130.198 35.764 129.646 35.884C129.094 36.028 128.506 36.1 127.882 36.1Z" fill="#982649"/>
</svg>
