<svg width="798" height="58" viewBox="0 0 798 58" fill="none" xmlns="http://www.w3.org/2000/svg">
<path d="M271.932 24.16V8.272C271.932 8 272.052 7.8 272.292 7.672C272.548 7.528 272.852 7.456 273.204 7.456C273.556 7.456 273.852 7.528 274.092 7.672C274.348 7.8 274.476 8 274.476 8.272V24.16C274.476 24.416 274.348 24.624 274.092 24.784C273.852 24.928 273.556 25 273.204 25C272.868 25 272.572 24.928 272.316 24.784C272.06 24.624 271.932 24.416 271.932 24.16ZM277.386 24.16V14.44C277.386 14.2 277.498 14.008 277.722 13.864C277.962 13.704 278.266 13.624 278.634 13.624C278.954 13.624 279.218 13.704 279.426 13.864C279.65 14.008 279.762 14.2 279.762 14.44V15.304C280.018 14.792 280.426 14.36 280.986 14.008C281.562 13.656 282.226 13.48 282.978 13.48C284.114 13.48 285.09 13.944 285.906 14.872C286.738 15.8 287.154 16.912 287.154 18.208V24.16C287.154 24.416 287.026 24.624 286.77 24.784C286.53 24.928 286.234 25 285.882 25C285.562 25 285.274 24.928 285.018 24.784C284.762 24.624 284.634 24.416 284.634 24.16V18.208C284.634 17.568 284.394 16.992 283.914 16.48C283.434 15.968 282.866 15.712 282.21 15.712C281.602 15.712 281.066 15.944 280.602 16.408C280.138 16.856 279.906 17.456 279.906 18.208V24.16C279.906 24.368 279.778 24.56 279.522 24.736C279.266 24.912 278.97 25 278.634 25C278.282 25 277.986 24.912 277.746 24.736C277.506 24.56 277.386 24.368 277.386 24.16ZM289.667 21.256V9.232C289.667 9.008 289.795 8.816 290.051 8.656C290.307 8.496 290.595 8.416 290.915 8.416C291.235 8.416 291.523 8.496 291.779 8.656C292.051 8.816 292.187 9.008 292.187 9.232V13.624H295.115C295.323 13.624 295.491 13.72 295.619 13.912C295.747 14.088 295.811 14.304 295.811 14.56C295.811 14.816 295.747 15.04 295.619 15.232C295.491 15.408 295.323 15.496 295.115 15.496H292.187V21.256C292.187 21.832 292.307 22.24 292.547 22.48C292.803 22.72 293.243 22.84 293.867 22.84H294.707C295.043 22.84 295.307 22.944 295.499 23.152C295.691 23.36 295.787 23.616 295.787 23.92C295.787 24.224 295.691 24.48 295.499 24.688C295.307 24.896 295.043 25 294.707 25H293.867C291.067 25 289.667 23.752 289.667 21.256ZM296.993 20.416V18.136C296.993 16.872 297.481 15.784 298.457 14.872C299.433 13.944 300.609 13.48 301.985 13.48C303.297 13.48 304.417 13.904 305.345 14.752C306.289 15.584 306.761 16.64 306.761 17.92C306.761 18.4 306.705 18.792 306.593 19.096C306.481 19.384 306.305 19.592 306.065 19.72C305.825 19.832 305.601 19.904 305.393 19.936C305.185 19.968 304.913 19.984 304.577 19.984H299.513V20.536C299.513 21.336 299.801 21.976 300.377 22.456C300.953 22.92 301.705 23.152 302.633 23.152C303.289 23.152 303.905 23 304.481 22.696C305.073 22.392 305.433 22.24 305.561 22.24C305.833 22.24 306.065 22.368 306.257 22.624C306.449 22.88 306.545 23.128 306.545 23.368C306.545 23.768 306.161 24.176 305.393 24.592C304.625 24.992 303.681 25.192 302.561 25.192C300.929 25.192 299.593 24.752 298.553 23.872C297.513 22.992 296.993 21.84 296.993 20.416ZM299.513 18.424H303.497C303.849 18.424 304.081 18.376 304.193 18.28C304.321 18.184 304.385 17.992 304.385 17.704C304.385 17.064 304.153 16.52 303.689 16.072C303.225 15.624 302.649 15.4 301.961 15.4C301.289 15.4 300.713 15.616 300.233 16.048C299.753 16.464 299.513 17 299.513 17.656V18.424ZM308.793 24.16V14.44C308.793 14.2 308.905 14.008 309.129 13.864C309.369 13.704 309.665 13.624 310.017 13.624C310.337 13.624 310.609 13.704 310.833 13.864C311.057 14.008 311.169 14.2 311.169 14.44V15.496C311.441 14.936 311.849 14.464 312.393 14.08C312.953 13.68 313.561 13.48 314.217 13.48H314.985C315.241 13.48 315.465 13.592 315.657 13.816C315.849 14.024 315.945 14.28 315.945 14.584C315.945 14.888 315.849 15.152 315.657 15.376C315.465 15.6 315.241 15.712 314.985 15.712H314.217C313.449 15.712 312.769 16.04 312.177 16.696C311.601 17.352 311.313 18.2 311.313 19.24V24.16C311.313 24.368 311.185 24.56 310.929 24.736C310.673 24.912 310.369 25 310.017 25C309.665 25 309.369 24.912 309.129 24.736C308.905 24.56 308.793 24.368 308.793 24.16ZM317.441 24.16V14.44C317.441 14.2 317.553 14.008 317.777 13.864C318.017 13.704 318.321 13.624 318.689 13.624C318.993 13.624 319.257 13.704 319.481 13.864C319.705 14.008 319.817 14.2 319.817 14.44V15.304C320.505 14.088 321.569 13.48 323.009 13.48C323.713 13.48 324.337 13.704 324.881 14.152C325.441 14.584 325.865 15.16 326.153 15.88C326.553 15.096 327.073 14.504 327.713 14.104C328.369 13.688 329.057 13.48 329.777 13.48C330.913 13.48 331.889 13.912 332.705 14.776C333.537 15.624 333.953 16.768 333.953 18.208V24.16C333.953 24.368 333.825 24.56 333.569 24.736C333.313 24.912 333.017 25 332.681 25C332.361 25 332.073 24.912 331.817 24.736C331.561 24.56 331.433 24.368 331.433 24.16V18.208C331.433 17.424 331.209 16.808 330.761 16.36C330.313 15.912 329.793 15.688 329.201 15.688C328.609 15.688 328.081 15.912 327.617 16.36C327.169 16.808 326.945 17.408 326.945 18.16V24.184C326.945 24.456 326.817 24.664 326.561 24.808C326.321 24.936 326.025 25 325.673 25C325.353 25 325.065 24.936 324.809 24.808C324.553 24.664 324.425 24.456 324.425 24.184V18.184C324.425 17.464 324.201 16.872 323.753 16.408C323.321 15.944 322.801 15.712 322.193 15.712C321.585 15.712 321.057 15.936 320.609 16.384C320.177 16.832 319.961 17.44 319.961 18.208V24.16C319.961 24.368 319.833 24.56 319.577 24.736C319.321 24.912 319.025 25 318.689 25C318.337 25 318.041 24.912 317.801 24.736C317.561 24.56 317.441 24.368 317.441 24.16ZM336.064 20.416V18.136C336.064 16.872 336.552 15.784 337.528 14.872C338.504 13.944 339.68 13.48 341.056 13.48C342.368 13.48 343.488 13.904 344.416 14.752C345.36 15.584 345.832 16.64 345.832 17.92C345.832 18.4 345.776 18.792 345.664 19.096C345.552 19.384 345.376 19.592 345.136 19.72C344.896 19.832 344.672 19.904 344.464 19.936C344.256 19.968 343.984 19.984 343.648 19.984H338.584V20.536C338.584 21.336 338.872 21.976 339.448 22.456C340.024 22.92 340.776 23.152 341.704 23.152C342.36 23.152 342.976 23 343.552 22.696C344.144 22.392 344.504 22.24 344.632 22.24C344.904 22.24 345.136 22.368 345.328 22.624C345.52 22.88 345.616 23.128 345.616 23.368C345.616 23.768 345.232 24.176 344.464 24.592C343.696 24.992 342.752 25.192 341.632 25.192C340 25.192 338.664 24.752 337.624 23.872C336.584 22.992 336.064 21.84 336.064 20.416ZM338.584 18.424H342.568C342.92 18.424 343.152 18.376 343.264 18.28C343.392 18.184 343.456 17.992 343.456 17.704C343.456 17.064 343.224 16.52 342.76 16.072C342.296 15.624 341.72 15.4 341.032 15.4C340.36 15.4 339.784 15.616 339.304 16.048C338.824 16.464 338.584 17 338.584 17.656V18.424ZM347.431 20.416V18.208C347.431 16.912 347.847 15.8 348.679 14.872C349.527 13.944 350.543 13.48 351.727 13.48C352.431 13.48 353.055 13.656 353.599 14.008C354.143 14.36 354.559 14.792 354.847 15.304V7.672C354.847 7.432 354.967 7.24 355.207 7.096C355.447 6.936 355.751 6.856 356.119 6.856C356.487 6.856 356.783 6.936 357.007 7.096C357.247 7.24 357.367 7.432 357.367 7.672V24.16C357.367 24.368 357.247 24.56 357.007 24.736C356.767 24.912 356.471 25 356.119 25C355.815 25 355.543 24.912 355.303 24.736C355.079 24.56 354.967 24.368 354.967 24.16V23.32C354.711 23.832 354.271 24.272 353.647 24.64C353.039 25.008 352.375 25.192 351.655 25.192C350.535 25.192 349.551 24.712 348.703 23.752C347.855 22.776 347.431 21.664 347.431 20.416ZM349.951 20.416C349.951 21.072 350.191 21.664 350.671 22.192C351.151 22.704 351.719 22.96 352.375 22.96C352.999 22.96 353.567 22.72 354.079 22.24C354.591 21.744 354.847 21.32 354.847 20.968V18.208C354.847 17.472 354.599 16.872 354.103 16.408C353.607 15.944 353.039 15.712 352.399 15.712C351.743 15.712 351.167 15.968 350.671 16.48C350.191 16.992 349.951 17.568 349.951 18.208V20.416ZM359.811 9.448C359.811 9.08 359.955 8.768 360.243 8.512C360.531 8.256 360.875 8.128 361.275 8.128C361.675 8.128 362.019 8.256 362.307 8.512C362.595 8.768 362.739 9.08 362.739 9.448C362.739 9.8 362.595 10.112 362.307 10.384C362.019 10.64 361.675 10.768 361.275 10.768C360.875 10.768 360.531 10.64 360.243 10.384C359.955 10.112 359.811 9.8 359.811 9.448ZM360.027 24.16V14.44C360.027 14.2 360.139 14.008 360.363 13.864C360.603 13.704 360.907 13.624 361.275 13.624C361.643 13.624 361.947 13.704 362.187 13.864C362.427 14.008 362.547 14.2 362.547 14.44V24.16C362.547 24.368 362.419 24.56 362.163 24.736C361.923 24.912 361.627 25 361.275 25C360.923 25 360.627 24.912 360.387 24.736C360.147 24.56 360.027 24.368 360.027 24.16ZM364.463 22.024C364.463 20.744 364.943 19.856 365.903 19.36C366.863 18.848 368.255 18.592 370.079 18.592H371.135V18.16C371.135 17.456 370.935 16.848 370.535 16.336C370.151 15.824 369.559 15.568 368.759 15.568C368.071 15.568 367.463 15.688 366.935 15.928C366.423 16.168 366.143 16.288 366.095 16.288C365.823 16.288 365.599 16.16 365.423 15.904C365.263 15.632 365.183 15.336 365.183 15.016C365.183 14.6 365.567 14.24 366.335 13.936C367.119 13.632 367.943 13.48 368.807 13.48C370.455 13.48 371.671 13.928 372.455 14.824C373.255 15.704 373.655 16.808 373.655 18.136V24.16C373.655 24.384 373.535 24.584 373.295 24.76C373.071 24.92 372.783 25 372.431 25C372.111 25 371.839 24.92 371.615 24.76C371.391 24.584 371.279 24.384 371.279 24.16V23.32C370.207 24.568 368.999 25.192 367.655 25.192C366.727 25.192 365.959 24.92 365.351 24.376C364.759 23.832 364.463 23.048 364.463 22.024ZM367.007 21.712C367.007 22.224 367.151 22.616 367.439 22.888C367.727 23.144 368.103 23.272 368.567 23.272C369.175 23.272 369.751 23.016 370.295 22.504C370.855 21.992 371.135 21.448 371.135 20.872V19.984H370.535C369.815 19.984 369.223 20.016 368.759 20.08C368.311 20.144 367.903 20.312 367.535 20.584C367.183 20.856 367.007 21.232 367.007 21.712ZM376.198 21.256V9.232C376.198 9.008 376.326 8.816 376.582 8.656C376.838 8.496 377.126 8.416 377.446 8.416C377.766 8.416 378.054 8.496 378.31 8.656C378.582 8.816 378.718 9.008 378.718 9.232V13.624H381.646C381.854 13.624 382.022 13.72 382.15 13.912C382.278 14.088 382.342 14.304 382.342 14.56C382.342 14.816 382.278 15.04 382.15 15.232C382.022 15.408 381.854 15.496 381.646 15.496H378.718V21.256C378.718 21.832 378.838 22.24 379.078 22.48C379.334 22.72 379.774 22.84 380.398 22.84H381.238C381.574 22.84 381.838 22.944 382.03 23.152C382.222 23.36 382.318 23.616 382.318 23.92C382.318 24.224 382.222 24.48 382.03 24.688C381.838 24.896 381.574 25 381.238 25H380.398C377.598 25 376.198 23.752 376.198 21.256ZM383.525 20.416V18.136C383.525 16.872 384.013 15.784 384.989 14.872C385.965 13.944 387.141 13.48 388.517 13.48C389.829 13.48 390.949 13.904 391.877 14.752C392.821 15.584 393.293 16.64 393.293 17.92C393.293 18.4 393.237 18.792 393.125 19.096C393.013 19.384 392.837 19.592 392.597 19.72C392.357 19.832 392.133 19.904 391.925 19.936C391.717 19.968 391.445 19.984 391.109 19.984H386.045V20.536C386.045 21.336 386.333 21.976 386.909 22.456C387.485 22.92 388.237 23.152 389.165 23.152C389.821 23.152 390.437 23 391.013 22.696C391.605 22.392 391.965 22.24 392.093 22.24C392.365 22.24 392.597 22.368 392.789 22.624C392.981 22.88 393.077 23.128 393.077 23.368C393.077 23.768 392.693 24.176 391.925 24.592C391.157 24.992 390.213 25.192 389.093 25.192C387.461 25.192 386.125 24.752 385.085 23.872C384.045 22.992 383.525 21.84 383.525 20.416ZM386.045 18.424H390.029C390.381 18.424 390.613 18.376 390.725 18.28C390.853 18.184 390.917 17.992 390.917 17.704C390.917 17.064 390.685 16.52 390.221 16.072C389.757 15.624 389.181 15.4 388.493 15.4C387.821 15.4 387.245 15.616 386.765 16.048C386.285 16.464 386.045 17 386.045 17.656V18.424ZM400.225 19.792V12.808C400.225 10.968 400.713 9.616 401.689 8.752C402.665 7.888 403.945 7.456 405.529 7.456C407.145 7.456 408.457 7.864 409.465 8.68C410.489 9.48 411.001 10.552 411.001 11.896C411.001 12.36 410.897 12.68 410.689 12.856C410.497 13.032 410.177 13.12 409.729 13.12C408.897 13.12 408.473 12.84 408.457 12.28C408.281 10.568 407.329 9.712 405.601 9.712C403.713 9.712 402.769 10.744 402.769 12.808V19.792C402.769 21.856 403.713 22.888 405.601 22.888C406.513 22.888 407.217 22.632 407.713 22.12C408.209 21.608 408.457 20.832 408.457 19.792V17.824H406.033C405.777 17.824 405.577 17.728 405.433 17.536C405.289 17.328 405.217 17.08 405.217 16.792C405.217 16.536 405.289 16.304 405.433 16.096C405.577 15.888 405.777 15.784 406.033 15.784H410.161C410.417 15.784 410.617 15.872 410.761 16.048C410.921 16.208 411.001 16.408 411.001 16.648V19.792C411.001 21.632 410.505 22.984 409.513 23.848C408.537 24.712 407.233 25.144 405.601 25.144C403.969 25.144 402.665 24.712 401.689 23.848C400.713 22.984 400.225 21.632 400.225 19.792ZM413.465 24.16V14.44C413.465 14.2 413.577 14.008 413.801 13.864C414.041 13.704 414.337 13.624 414.689 13.624C415.009 13.624 415.281 13.704 415.505 13.864C415.729 14.008 415.841 14.2 415.841 14.44V15.496C416.113 14.936 416.521 14.464 417.065 14.08C417.625 13.68 418.233 13.48 418.889 13.48H419.657C419.913 13.48 420.137 13.592 420.329 13.816C420.521 14.024 420.617 14.28 420.617 14.584C420.617 14.888 420.521 15.152 420.329 15.376C420.137 15.6 419.913 15.712 419.657 15.712H418.889C418.121 15.712 417.441 16.04 416.849 16.696C416.273 17.352 415.985 18.2 415.985 19.24V24.16C415.985 24.368 415.857 24.56 415.601 24.736C415.345 24.912 415.041 25 414.689 25C414.337 25 414.041 24.912 413.801 24.736C413.577 24.56 413.465 24.368 413.465 24.16ZM421.376 20.416V18.208C421.376 16.944 421.864 15.84 422.84 14.896C423.816 13.952 424.984 13.48 426.344 13.48C427.672 13.48 428.832 13.952 429.824 14.896C430.816 15.824 431.312 16.928 431.312 18.208V20.416C431.312 21.664 430.808 22.776 429.8 23.752C428.808 24.712 427.656 25.192 426.344 25.192C425.016 25.192 423.856 24.712 422.864 23.752C421.872 22.792 421.376 21.68 421.376 20.416ZM423.896 20.416C423.896 21.072 424.136 21.664 424.616 22.192C425.096 22.704 425.672 22.96 426.344 22.96C427 22.96 427.568 22.704 428.048 22.192C428.544 21.664 428.792 21.072 428.792 20.416V18.208C428.792 17.568 428.544 16.992 428.048 16.48C427.568 15.968 427 15.712 426.344 15.712C425.672 15.712 425.096 15.968 424.616 16.48C424.136 16.992 423.896 17.568 423.896 18.208V20.416ZM433.431 20.464V14.464C433.431 14.24 433.559 14.048 433.815 13.888C434.071 13.712 434.367 13.624 434.703 13.624C435.039 13.624 435.327 13.712 435.567 13.888C435.823 14.048 435.951 14.24 435.951 14.464V20.464C435.951 21.104 436.191 21.68 436.671 22.192C437.167 22.704 437.743 22.96 438.399 22.96C439.071 22.96 439.647 22.712 440.127 22.216C440.607 21.704 440.847 21.12 440.847 20.464V14.44C440.847 14.216 440.967 14.024 441.207 13.864C441.463 13.704 441.767 13.624 442.119 13.624C442.471 13.624 442.759 13.704 442.983 13.864C443.223 14.024 443.343 14.216 443.343 14.44V20.464C443.343 21.728 442.855 22.832 441.879 23.776C440.903 24.72 439.743 25.192 438.399 25.192C437.055 25.192 435.887 24.72 434.895 23.776C433.919 22.832 433.431 21.728 433.431 20.464ZM445.903 29.56V14.44C445.903 14.2 446.015 14.008 446.239 13.864C446.479 13.704 446.767 13.624 447.103 13.624C447.439 13.624 447.719 13.704 447.943 13.864C448.167 14.008 448.279 14.2 448.279 14.44V15.304C448.567 14.792 448.991 14.36 449.551 14.008C450.127 13.656 450.775 13.48 451.495 13.48C452.695 13.48 453.711 13.944 454.543 14.872C455.391 15.8 455.815 16.912 455.815 18.208V20.416C455.815 21.664 455.391 22.776 454.543 23.752C453.695 24.712 452.711 25.192 451.591 25.192C450.903 25.192 450.263 25.008 449.671 24.64C449.095 24.272 448.679 23.832 448.423 23.32V29.56C448.423 29.784 448.295 29.976 448.039 30.136C447.783 30.312 447.479 30.4 447.127 30.4C446.775 30.4 446.479 30.312 446.239 30.136C446.015 29.976 445.903 29.784 445.903 29.56ZM448.423 20.968C448.423 21.32 448.663 21.744 449.143 22.24C449.639 22.72 450.207 22.96 450.847 22.96C451.487 22.96 452.055 22.704 452.551 22.192C453.047 21.664 453.295 21.072 453.295 20.416V18.208C453.295 17.568 453.047 16.992 452.551 16.48C452.055 15.968 451.471 15.712 450.799 15.712C450.175 15.712 449.623 15.944 449.143 16.408C448.663 16.856 448.423 17.456 448.423 18.208V20.968ZM457.347 23.272C457.347 23.032 457.427 22.784 457.587 22.528C457.763 22.272 457.971 22.144 458.211 22.144C458.355 22.144 458.555 22.24 458.811 22.432C459.067 22.608 459.411 22.792 459.843 22.984C460.275 23.16 460.795 23.248 461.403 23.248C462.763 23.248 463.443 22.816 463.443 21.952C463.443 21.488 463.243 21.128 462.843 20.872C462.443 20.6 461.955 20.392 461.379 20.248C460.819 20.088 460.259 19.912 459.699 19.72C459.139 19.528 458.659 19.2 458.259 18.736C457.859 18.272 457.659 17.672 457.659 16.936C457.659 15.992 457.995 15.184 458.667 14.512C459.339 13.824 460.371 13.48 461.763 13.48C462.675 13.48 463.499 13.624 464.235 13.912C464.987 14.184 465.363 14.512 465.363 14.896C465.363 15.12 465.267 15.384 465.075 15.688C464.899 15.976 464.675 16.12 464.403 16.12C464.307 16.12 463.979 16.008 463.419 15.784C462.859 15.544 462.323 15.424 461.811 15.424C461.171 15.424 460.683 15.568 460.347 15.856C460.027 16.144 459.867 16.464 459.867 16.816C459.867 17.2 460.067 17.504 460.467 17.728C460.867 17.952 461.355 18.136 461.931 18.28C462.507 18.424 463.075 18.6 463.635 18.808C464.211 19.016 464.699 19.376 465.099 19.888C465.499 20.4 465.699 21.056 465.699 21.856C465.699 22.896 465.331 23.712 464.595 24.304C463.859 24.896 462.819 25.192 461.475 25.192C460.339 25.192 459.363 24.992 458.547 24.592C457.747 24.192 457.347 23.752 457.347 23.272ZM468.01 24.736C467.738 24.448 467.602 24.104 467.602 23.704C467.602 23.304 467.738 22.968 468.01 22.696C468.282 22.408 468.626 22.264 469.042 22.264C469.426 22.264 469.754 22.408 470.026 22.696C470.314 22.968 470.458 23.304 470.458 23.704C470.458 24.088 470.314 24.424 470.026 24.712C469.754 25 469.426 25.144 469.042 25.144C468.626 25.144 468.282 25.008 468.01 24.736ZM468.01 17.344C467.738 17.056 467.602 16.712 467.602 16.312C467.602 15.912 467.738 15.576 468.01 15.304C468.282 15.016 468.626 14.872 469.042 14.872C469.426 14.872 469.754 15.016 470.026 15.304C470.314 15.576 470.458 15.912 470.458 16.312C470.458 16.696 470.314 17.032 470.026 17.32C469.754 17.608 469.426 17.752 469.042 17.752C468.626 17.752 468.282 17.616 468.01 17.344Z" fill="#596F62"/>
<path d="M311.718 38.296C311.718 38.024 311.838 37.784 312.078 37.576L314.046 34.792C314.222 34.552 314.422 34.432 314.646 34.432C314.822 34.432 314.982 34.488 315.126 34.6C315.27 34.712 315.342 34.856 315.342 35.032V51.376C315.342 51.568 315.262 51.72 315.102 51.832C314.942 51.944 314.758 52 314.55 52C314.326 52 314.134 51.944 313.974 51.832C313.83 51.72 313.758 51.568 313.758 51.376V37.144L312.798 38.704C312.67 38.896 312.518 38.992 312.342 38.992C312.166 38.992 312.014 38.928 311.886 38.8C311.774 38.656 311.718 38.488 311.718 38.296ZM317.968 51.04C317.968 50.72 318.072 50.456 318.28 50.248C318.488 50.024 318.752 49.912 319.072 49.912C319.36 49.912 319.608 50.024 319.816 50.248C320.04 50.472 320.152 50.736 320.152 51.04C320.152 51.328 320.04 51.584 319.816 51.808C319.608 52.032 319.36 52.144 319.072 52.144C318.752 52.144 318.488 52.04 318.28 51.832C318.072 51.608 317.968 51.344 317.968 51.04ZM321.781 48.064C321.781 47.536 322.037 47.272 322.549 47.272C323.093 47.272 323.365 47.496 323.365 47.944C323.365 48.792 323.685 49.464 324.325 49.96C324.965 50.44 325.773 50.68 326.749 50.68C327.837 50.68 328.677 50.384 329.269 49.792C329.861 49.184 330.157 48.272 330.157 47.056V46.6C330.157 45.416 329.861 44.528 329.269 43.936C328.677 43.344 327.845 43.048 326.773 43.048H323.437C322.893 43.048 322.621 42.848 322.621 42.448C322.621 42.416 322.621 42.336 322.621 42.208C322.637 42.08 322.645 42 322.645 41.968L323.125 35.056C323.173 34.656 323.341 34.456 323.629 34.456H330.349C330.701 34.456 330.877 34.696 330.877 35.176C330.877 35.672 330.701 35.92 330.349 35.92H324.541L324.157 41.68H326.773C328.293 41.68 329.501 42.072 330.397 42.856C331.293 43.64 331.741 44.888 331.741 46.6V47.056C331.741 48.8 331.285 50.088 330.373 50.92C329.477 51.736 328.277 52.144 326.773 52.144C325.237 52.144 324.021 51.752 323.125 50.968C322.229 50.184 321.781 49.216 321.781 48.064ZM338.793 51.376V34.264C338.793 34.104 338.865 33.968 339.009 33.856C339.153 33.744 339.337 33.688 339.561 33.688C339.785 33.688 339.969 33.744 340.113 33.856C340.273 33.968 340.353 34.104 340.353 34.264V42.328C340.625 41.816 341.033 41.384 341.577 41.032C342.137 40.68 342.785 40.504 343.521 40.504C344.673 40.504 345.665 40.944 346.497 41.824C347.345 42.704 347.769 43.76 347.769 44.992V51.376C347.769 51.568 347.689 51.72 347.529 51.832C347.385 51.944 347.201 52 346.977 52C346.785 52 346.609 51.944 346.449 51.832C346.289 51.72 346.209 51.568 346.209 51.376V44.992C346.209 44.208 345.913 43.504 345.321 42.88C344.729 42.256 344.033 41.944 343.233 41.944C342.481 41.944 341.809 42.224 341.217 42.784C340.641 43.344 340.353 44.08 340.353 44.992V51.376C340.353 51.536 340.273 51.68 340.113 51.808C339.953 51.936 339.769 52 339.561 52C339.353 52 339.169 51.936 339.009 51.808C338.865 51.68 338.793 51.536 338.793 51.376ZM350.244 47.608V44.992C350.244 43.776 350.692 42.728 351.588 41.848C352.484 40.952 353.548 40.504 354.78 40.504C356.012 40.504 357.084 40.944 357.996 41.824C358.908 42.704 359.364 43.76 359.364 44.992V47.608C359.364 48.808 358.9 49.872 357.972 50.8C357.06 51.712 355.996 52.168 354.78 52.168C353.58 52.168 352.524 51.712 351.612 50.8C350.7 49.872 350.244 48.808 350.244 47.608ZM351.804 47.608C351.804 48.424 352.092 49.152 352.668 49.792C353.26 50.416 353.964 50.728 354.78 50.728C355.612 50.728 356.324 50.416 356.916 49.792C357.508 49.152 357.804 48.424 357.804 47.608V44.992C357.804 44.208 357.5 43.504 356.892 42.88C356.3 42.256 355.596 41.944 354.78 41.944C353.964 41.944 353.26 42.256 352.668 42.88C352.092 43.504 351.804 44.208 351.804 44.992V47.608ZM361.806 47.656V41.248C361.806 41.104 361.878 40.968 362.022 40.84C362.182 40.712 362.374 40.648 362.598 40.648C362.79 40.648 362.966 40.712 363.126 40.84C363.286 40.968 363.366 41.104 363.366 41.248V47.656C363.366 48.456 363.662 49.168 364.254 49.792C364.846 50.416 365.55 50.728 366.366 50.728C367.182 50.728 367.886 50.416 368.478 49.792C369.07 49.168 369.366 48.456 369.366 47.656V41.224C369.366 41.064 369.446 40.928 369.606 40.816C369.766 40.704 369.95 40.648 370.158 40.648C370.366 40.648 370.542 40.704 370.686 40.816C370.846 40.928 370.926 41.064 370.926 41.224V47.656C370.926 48.856 370.47 49.912 369.558 50.824C368.662 51.72 367.598 52.168 366.366 52.168C365.118 52.168 364.046 51.72 363.15 50.824C362.254 49.912 361.806 48.856 361.806 47.656ZM373.832 51.376V41.224C373.832 41.064 373.904 40.928 374.048 40.816C374.192 40.704 374.376 40.648 374.6 40.648C374.808 40.648 374.984 40.704 375.128 40.816C375.272 40.928 375.344 41.064 375.344 41.224V42.4C375.632 41.872 376.056 41.424 376.616 41.056C377.176 40.688 377.824 40.504 378.56 40.504H379.4C379.56 40.504 379.704 40.576 379.832 40.72C379.96 40.864 380.024 41.032 380.024 41.224C380.024 41.416 379.96 41.584 379.832 41.728C379.704 41.872 379.56 41.944 379.4 41.944H378.56C377.728 41.944 376.992 42.272 376.352 42.928C375.712 43.568 375.392 44.408 375.392 45.448V51.376C375.392 51.536 375.312 51.68 375.152 51.808C375.008 51.936 374.824 52 374.6 52C374.392 52 374.208 51.936 374.048 51.808C373.904 51.68 373.832 51.536 373.832 51.376ZM386.702 47.008V39.568C386.702 37.824 387.166 36.536 388.094 35.704C389.038 34.872 390.254 34.456 391.742 34.456C393.262 34.456 394.462 34.848 395.342 35.632C396.238 36.4 396.686 37.344 396.686 38.464C396.686 38.848 396.622 39.104 396.494 39.232C396.382 39.36 396.182 39.424 395.894 39.424C395.398 39.424 395.134 39.224 395.102 38.824C395.086 38.584 395.054 38.352 395.006 38.128C394.958 37.904 394.862 37.656 394.718 37.384C394.574 37.096 394.382 36.848 394.142 36.64C393.918 36.432 393.598 36.264 393.182 36.136C392.766 35.992 392.286 35.92 391.742 35.92C389.438 35.92 388.286 37.136 388.286 39.568V47.008C388.286 49.456 389.47 50.68 391.838 50.68C392.51 50.68 393.07 50.592 393.518 50.416C393.966 50.224 394.294 49.952 394.502 49.6C394.71 49.248 394.846 48.952 394.91 48.712C394.99 48.456 395.054 48.128 395.102 47.728C395.15 47.312 395.414 47.104 395.894 47.104C396.182 47.104 396.382 47.176 396.494 47.32C396.622 47.448 396.686 47.704 396.686 48.088C396.686 49.224 396.23 50.184 395.318 50.968C394.422 51.752 393.206 52.144 391.67 52.144C390.198 52.144 388.998 51.728 388.07 50.896C387.158 50.064 386.702 48.768 386.702 47.008ZM399.337 51.376V34.264C399.337 34.104 399.409 33.968 399.553 33.856C399.697 33.744 399.881 33.688 400.105 33.688C400.329 33.688 400.513 33.744 400.657 33.856C400.817 33.968 400.897 34.104 400.897 34.264V51.376C400.897 51.536 400.817 51.68 400.657 51.808C400.513 51.936 400.329 52 400.105 52C399.897 52 399.713 51.936 399.553 51.808C399.409 51.68 399.337 51.536 399.337 51.376ZM403.322 49C403.322 47.768 403.794 46.912 404.738 46.432C405.698 45.952 407.09 45.712 408.914 45.712H410.138V45.136C410.138 44.256 409.906 43.496 409.442 42.856C408.978 42.2 408.266 41.872 407.306 41.872C406.666 41.872 406.082 41.992 405.554 42.232C405.042 42.456 404.77 42.568 404.738 42.568C404.546 42.568 404.394 42.48 404.282 42.304C404.17 42.128 404.114 41.936 404.114 41.728C404.114 41.424 404.458 41.144 405.146 40.888C405.834 40.632 406.57 40.504 407.354 40.504C408.858 40.504 409.954 40.944 410.642 41.824C411.346 42.688 411.698 43.792 411.698 45.136V51.376C411.698 51.552 411.626 51.704 411.482 51.832C411.338 51.944 411.154 52 410.93 52C410.722 52 410.546 51.944 410.402 51.832C410.274 51.704 410.21 51.552 410.21 51.376V50.32C409.138 51.552 407.93 52.168 406.586 52.168C405.626 52.168 404.842 51.904 404.234 51.376C403.626 50.832 403.322 50.04 403.322 49ZM404.882 48.856C404.882 49.528 405.074 50.032 405.458 50.368C405.842 50.688 406.346 50.848 406.97 50.848C407.722 50.848 408.434 50.568 409.106 50.008C409.794 49.448 410.138 48.888 410.138 48.328V46.792H409.13C408.49 46.792 407.946 46.816 407.498 46.864C407.066 46.912 406.634 47 406.202 47.128C405.77 47.256 405.442 47.464 405.218 47.752C404.994 48.04 404.882 48.408 404.882 48.856ZM413.917 50.44C413.917 50.28 413.973 50.12 414.085 49.96C414.197 49.8 414.325 49.72 414.469 49.72C414.581 49.72 414.757 49.816 414.997 50.008C415.237 50.184 415.581 50.368 416.029 50.56C416.477 50.752 417.013 50.848 417.637 50.848C418.485 50.848 419.109 50.688 419.509 50.368C419.909 50.048 420.109 49.64 420.109 49.144C420.109 48.568 419.901 48.112 419.485 47.776C419.085 47.424 418.597 47.168 418.021 47.008C417.445 46.848 416.861 46.672 416.269 46.48C415.693 46.288 415.197 45.976 414.781 45.544C414.381 45.096 414.181 44.504 414.181 43.768C414.181 42.888 414.493 42.128 415.117 41.488C415.757 40.832 416.709 40.504 417.973 40.504C418.757 40.504 419.485 40.632 420.157 40.888C420.845 41.128 421.189 41.392 421.189 41.68C421.189 41.84 421.125 42.016 420.997 42.208C420.869 42.4 420.717 42.496 420.541 42.496C420.493 42.496 420.197 42.384 419.653 42.16C419.109 41.936 418.557 41.824 417.997 41.824C417.197 41.824 416.597 42.016 416.197 42.4C415.797 42.784 415.597 43.216 415.597 43.696C415.597 44.192 415.797 44.584 416.197 44.872C416.613 45.16 417.109 45.384 417.685 45.544C418.277 45.688 418.861 45.864 419.437 46.072C420.029 46.264 420.525 46.616 420.925 47.128C421.341 47.624 421.549 48.272 421.549 49.072C421.549 50.032 421.205 50.792 420.517 51.352C419.845 51.896 418.901 52.168 417.685 52.168C416.629 52.168 415.733 51.984 414.997 51.616C414.277 51.232 413.917 50.84 413.917 50.44ZM423.151 50.44C423.151 50.28 423.207 50.12 423.319 49.96C423.431 49.8 423.559 49.72 423.703 49.72C423.815 49.72 423.991 49.816 424.231 50.008C424.471 50.184 424.815 50.368 425.263 50.56C425.711 50.752 426.247 50.848 426.871 50.848C427.719 50.848 428.343 50.688 428.743 50.368C429.143 50.048 429.343 49.64 429.343 49.144C429.343 48.568 429.135 48.112 428.719 47.776C428.319 47.424 427.831 47.168 427.255 47.008C426.679 46.848 426.095 46.672 425.503 46.48C424.927 46.288 424.431 45.976 424.015 45.544C423.615 45.096 423.415 44.504 423.415 43.768C423.415 42.888 423.727 42.128 424.351 41.488C424.991 40.832 425.943 40.504 427.207 40.504C427.991 40.504 428.719 40.632 429.391 40.888C430.079 41.128 430.423 41.392 430.423 41.68C430.423 41.84 430.359 42.016 430.231 42.208C430.103 42.4 429.951 42.496 429.775 42.496C429.727 42.496 429.431 42.384 428.887 42.16C428.343 41.936 427.791 41.824 427.231 41.824C426.431 41.824 425.831 42.016 425.431 42.4C425.031 42.784 424.831 43.216 424.831 43.696C424.831 44.192 425.031 44.584 425.431 44.872C425.847 45.16 426.343 45.384 426.919 45.544C427.511 45.688 428.095 45.864 428.671 46.072C429.263 46.264 429.759 46.616 430.159 47.128C430.575 47.624 430.783 48.272 430.783 49.072C430.783 50.032 430.439 50.792 429.751 51.352C429.079 51.896 428.135 52.168 426.919 52.168C425.863 52.168 424.967 51.984 424.231 51.616C423.511 51.232 423.151 50.84 423.151 50.44Z" fill="black"/>
<path d="M547.061 24.16V8.272C547.061 8.048 547.149 7.856 547.325 7.696C547.517 7.536 547.757 7.456 548.045 7.456H552.725C554.325 7.456 555.597 7.88 556.541 8.728C557.501 9.576 557.981 10.912 557.981 12.736V12.928C557.981 14.752 557.485 16.096 556.493 16.96C555.517 17.808 554.213 18.232 552.581 18.232H549.605V24.16C549.605 24.416 549.477 24.624 549.221 24.784C548.981 24.928 548.685 25 548.333 25C547.997 25 547.701 24.928 547.445 24.784C547.189 24.624 547.061 24.416 547.061 24.16ZM549.605 16.216H552.581C553.493 16.216 554.197 15.96 554.693 15.448C555.189 14.92 555.437 14.136 555.437 13.096V12.808C555.437 11.768 555.189 10.992 554.693 10.48C554.197 9.968 553.493 9.712 552.581 9.712H549.605V16.216ZM559.711 24.16V14.44C559.711 14.2 559.823 14.008 560.047 13.864C560.287 13.704 560.583 13.624 560.935 13.624C561.255 13.624 561.527 13.704 561.751 13.864C561.975 14.008 562.087 14.2 562.087 14.44V15.496C562.359 14.936 562.767 14.464 563.311 14.08C563.871 13.68 564.479 13.48 565.135 13.48H565.903C566.159 13.48 566.383 13.592 566.575 13.816C566.767 14.024 566.863 14.28 566.863 14.584C566.863 14.888 566.767 15.152 566.575 15.376C566.383 15.6 566.159 15.712 565.903 15.712H565.135C564.367 15.712 563.687 16.04 563.095 16.696C562.519 17.352 562.231 18.2 562.231 19.24V24.16C562.231 24.368 562.103 24.56 561.847 24.736C561.591 24.912 561.287 25 560.935 25C560.583 25 560.287 24.912 560.047 24.736C559.823 24.56 559.711 24.368 559.711 24.16ZM568.143 9.448C568.143 9.08 568.287 8.768 568.575 8.512C568.863 8.256 569.207 8.128 569.607 8.128C570.007 8.128 570.351 8.256 570.639 8.512C570.927 8.768 571.071 9.08 571.071 9.448C571.071 9.8 570.927 10.112 570.639 10.384C570.351 10.64 570.007 10.768 569.607 10.768C569.207 10.768 568.863 10.64 568.575 10.384C568.287 10.112 568.143 9.8 568.143 9.448ZM568.359 24.16V14.44C568.359 14.2 568.471 14.008 568.695 13.864C568.935 13.704 569.239 13.624 569.607 13.624C569.975 13.624 570.279 13.704 570.519 13.864C570.759 14.008 570.879 14.2 570.879 14.44V24.16C570.879 24.368 570.751 24.56 570.495 24.736C570.255 24.912 569.959 25 569.607 25C569.255 25 568.959 24.912 568.719 24.736C568.479 24.56 568.359 24.368 568.359 24.16ZM572.411 14.608C572.411 14.32 572.595 14.072 572.963 13.864C573.331 13.64 573.699 13.528 574.067 13.528C574.467 13.528 574.723 13.68 574.835 13.984L577.691 21.568L580.547 14.032C580.675 13.696 580.931 13.528 581.315 13.528C581.619 13.528 581.971 13.64 582.371 13.864C582.771 14.088 582.971 14.336 582.971 14.608C582.971 14.72 582.939 14.856 582.875 15.016L578.843 24.736C578.699 25.072 578.315 25.24 577.691 25.24C577.067 25.24 576.683 25.072 576.539 24.736L572.531 15.016C572.451 14.856 572.411 14.72 572.411 14.608ZM583.811 22.024C583.811 20.744 584.291 19.856 585.251 19.36C586.211 18.848 587.603 18.592 589.427 18.592H590.483V18.16C590.483 17.456 590.283 16.848 589.883 16.336C589.499 15.824 588.907 15.568 588.107 15.568C587.419 15.568 586.811 15.688 586.283 15.928C585.771 16.168 585.491 16.288 585.443 16.288C585.171 16.288 584.947 16.16 584.771 15.904C584.611 15.632 584.531 15.336 584.531 15.016C584.531 14.6 584.915 14.24 585.683 13.936C586.467 13.632 587.291 13.48 588.155 13.48C589.803 13.48 591.019 13.928 591.803 14.824C592.603 15.704 593.003 16.808 593.003 18.136V24.16C593.003 24.384 592.883 24.584 592.643 24.76C592.419 24.92 592.131 25 591.779 25C591.459 25 591.187 24.92 590.963 24.76C590.739 24.584 590.627 24.384 590.627 24.16V23.32C589.555 24.568 588.347 25.192 587.003 25.192C586.075 25.192 585.307 24.92 584.699 24.376C584.107 23.832 583.811 23.048 583.811 22.024ZM586.355 21.712C586.355 22.224 586.499 22.616 586.787 22.888C587.075 23.144 587.451 23.272 587.915 23.272C588.523 23.272 589.099 23.016 589.643 22.504C590.203 21.992 590.483 21.448 590.483 20.872V19.984H589.883C589.163 19.984 588.571 20.016 588.107 20.08C587.659 20.144 587.251 20.312 586.883 20.584C586.531 20.856 586.355 21.232 586.355 21.712ZM595.546 21.256V9.232C595.546 9.008 595.674 8.816 595.93 8.656C596.186 8.496 596.474 8.416 596.794 8.416C597.114 8.416 597.402 8.496 597.658 8.656C597.93 8.816 598.066 9.008 598.066 9.232V13.624H600.994C601.202 13.624 601.37 13.72 601.498 13.912C601.626 14.088 601.69 14.304 601.69 14.56C601.69 14.816 601.626 15.04 601.498 15.232C601.37 15.408 601.202 15.496 600.994 15.496H598.066V21.256C598.066 21.832 598.186 22.24 598.426 22.48C598.682 22.72 599.122 22.84 599.746 22.84H600.586C600.922 22.84 601.186 22.944 601.378 23.152C601.57 23.36 601.666 23.616 601.666 23.92C601.666 24.224 601.57 24.48 601.378 24.688C601.186 24.896 600.922 25 600.586 25H599.746C596.946 25 595.546 23.752 595.546 21.256ZM602.872 20.416V18.136C602.872 16.872 603.36 15.784 604.336 14.872C605.312 13.944 606.488 13.48 607.864 13.48C609.176 13.48 610.296 13.904 611.224 14.752C612.168 15.584 612.64 16.64 612.64 17.92C612.64 18.4 612.584 18.792 612.472 19.096C612.36 19.384 612.184 19.592 611.944 19.72C611.704 19.832 611.48 19.904 611.272 19.936C611.064 19.968 610.792 19.984 610.456 19.984H605.392V20.536C605.392 21.336 605.68 21.976 606.256 22.456C606.832 22.92 607.584 23.152 608.512 23.152C609.168 23.152 609.784 23 610.36 22.696C610.952 22.392 611.312 22.24 611.44 22.24C611.712 22.24 611.944 22.368 612.136 22.624C612.328 22.88 612.424 23.128 612.424 23.368C612.424 23.768 612.04 24.176 611.272 24.592C610.504 24.992 609.56 25.192 608.44 25.192C606.808 25.192 605.472 24.752 604.432 23.872C603.392 22.992 602.872 21.84 602.872 20.416ZM605.392 18.424H609.376C609.728 18.424 609.96 18.376 610.072 18.28C610.2 18.184 610.264 17.992 610.264 17.704C610.264 17.064 610.032 16.52 609.568 16.072C609.104 15.624 608.528 15.4 607.84 15.4C607.168 15.4 606.592 15.616 606.112 16.048C605.632 16.464 605.392 17 605.392 17.656V18.424ZM618.492 23.944C618.492 23.848 618.5 23.776 618.516 23.728L623.292 8.176C623.484 7.6 624.02 7.312 624.9 7.312C625.796 7.312 626.34 7.6 626.532 8.176L631.284 23.728C631.316 23.824 631.332 23.896 631.332 23.944C631.332 24.232 631.156 24.48 630.804 24.688C630.468 24.896 630.108 25 629.724 25C629.26 25 628.972 24.824 628.86 24.472L627.876 21.064H621.948L620.964 24.472C620.852 24.824 620.556 25 620.076 25C619.692 25 619.332 24.896 618.996 24.688C618.66 24.48 618.492 24.232 618.492 23.944ZM622.5 19.024H627.3L624.9 10.792L622.5 19.024ZM632.521 20.416V18.208C632.521 16.912 632.937 15.8 633.769 14.872C634.617 13.944 635.633 13.48 636.817 13.48C637.521 13.48 638.145 13.656 638.689 14.008C639.233 14.36 639.649 14.792 639.937 15.304V7.672C639.937 7.432 640.057 7.24 640.297 7.096C640.537 6.936 640.841 6.856 641.209 6.856C641.577 6.856 641.873 6.936 642.097 7.096C642.337 7.24 642.457 7.432 642.457 7.672V24.16C642.457 24.368 642.337 24.56 642.097 24.736C641.857 24.912 641.561 25 641.209 25C640.905 25 640.633 24.912 640.393 24.736C640.169 24.56 640.057 24.368 640.057 24.16V23.32C639.801 23.832 639.361 24.272 638.737 24.64C638.129 25.008 637.465 25.192 636.745 25.192C635.625 25.192 634.641 24.712 633.793 23.752C632.945 22.776 632.521 21.664 632.521 20.416ZM635.041 20.416C635.041 21.072 635.281 21.664 635.761 22.192C636.241 22.704 636.809 22.96 637.465 22.96C638.089 22.96 638.657 22.72 639.169 22.24C639.681 21.744 639.937 21.32 639.937 20.968V18.208C639.937 17.472 639.689 16.872 639.193 16.408C638.697 15.944 638.129 15.712 637.489 15.712C636.833 15.712 636.257 15.968 635.761 16.48C635.281 16.992 635.041 17.568 635.041 18.208V20.416ZM644.013 14.608C644.013 14.32 644.197 14.072 644.565 13.864C644.933 13.64 645.301 13.528 645.669 13.528C646.069 13.528 646.325 13.68 646.437 13.984L649.293 21.568L652.149 14.032C652.277 13.696 652.533 13.528 652.917 13.528C653.221 13.528 653.573 13.64 653.973 13.864C654.373 14.088 654.573 14.336 654.573 14.608C654.573 14.72 654.541 14.856 654.477 15.016L650.445 24.736C650.301 25.072 649.917 25.24 649.293 25.24C648.669 25.24 648.285 25.072 648.141 24.736L644.133 15.016C644.053 14.856 644.013 14.72 644.013 14.608ZM655.413 22.024C655.413 20.744 655.893 19.856 656.853 19.36C657.813 18.848 659.205 18.592 661.029 18.592H662.085V18.16C662.085 17.456 661.885 16.848 661.485 16.336C661.101 15.824 660.509 15.568 659.709 15.568C659.021 15.568 658.413 15.688 657.885 15.928C657.373 16.168 657.093 16.288 657.045 16.288C656.773 16.288 656.549 16.16 656.373 15.904C656.213 15.632 656.133 15.336 656.133 15.016C656.133 14.6 656.517 14.24 657.285 13.936C658.069 13.632 658.893 13.48 659.757 13.48C661.405 13.48 662.621 13.928 663.405 14.824C664.205 15.704 664.605 16.808 664.605 18.136V24.16C664.605 24.384 664.485 24.584 664.245 24.76C664.021 24.92 663.733 25 663.381 25C663.061 25 662.789 24.92 662.565 24.76C662.341 24.584 662.229 24.384 662.229 24.16V23.32C661.157 24.568 659.949 25.192 658.605 25.192C657.677 25.192 656.909 24.92 656.301 24.376C655.709 23.832 655.413 23.048 655.413 22.024ZM657.957 21.712C657.957 22.224 658.101 22.616 658.389 22.888C658.677 23.144 659.053 23.272 659.517 23.272C660.125 23.272 660.701 23.016 661.245 22.504C661.805 21.992 662.085 21.448 662.085 20.872V19.984H661.485C660.765 19.984 660.173 20.016 659.709 20.08C659.261 20.144 658.853 20.312 658.485 20.584C658.133 20.856 657.957 21.232 657.957 21.712ZM667.172 24.16V14.44C667.172 14.2 667.284 14.008 667.508 13.864C667.748 13.704 668.052 13.624 668.42 13.624C668.74 13.624 669.004 13.704 669.212 13.864C669.436 14.008 669.548 14.2 669.548 14.44V15.304C669.804 14.792 670.212 14.36 670.772 14.008C671.348 13.656 672.012 13.48 672.764 13.48C673.9 13.48 674.876 13.944 675.692 14.872C676.524 15.8 676.94 16.912 676.94 18.208V24.16C676.94 24.416 676.812 24.624 676.556 24.784C676.316 24.928 676.02 25 675.668 25C675.348 25 675.06 24.928 674.804 24.784C674.548 24.624 674.42 24.416 674.42 24.16V18.208C674.42 17.568 674.18 16.992 673.7 16.48C673.22 15.968 672.652 15.712 671.996 15.712C671.388 15.712 670.852 15.944 670.388 16.408C669.924 16.856 669.692 17.456 669.692 18.208V24.16C669.692 24.368 669.564 24.56 669.308 24.736C669.052 24.912 668.756 25 668.42 25C668.068 25 667.772 24.912 667.532 24.736C667.292 24.56 667.172 24.368 667.172 24.16ZM679.092 20.416V18.256C679.092 16.832 679.508 15.68 680.34 14.8C681.172 13.92 682.412 13.48 684.06 13.48C685.1 13.48 685.972 13.664 686.676 14.032C687.38 14.384 687.732 14.784 687.732 15.232C687.732 15.504 687.628 15.776 687.42 16.048C687.228 16.32 686.996 16.456 686.724 16.456C686.644 16.456 686.356 16.336 685.86 16.096C685.38 15.84 684.844 15.712 684.252 15.712C682.492 15.712 681.612 16.56 681.612 18.256V20.416C681.612 22.112 682.5 22.96 684.276 22.96C684.884 22.96 685.428 22.832 685.908 22.576C686.404 22.304 686.7 22.168 686.796 22.168C687.116 22.168 687.372 22.296 687.564 22.552C687.772 22.808 687.876 23.08 687.876 23.368C687.876 23.816 687.508 24.232 686.772 24.616C686.036 25 685.14 25.192 684.084 25.192C682.42 25.192 681.172 24.76 680.34 23.896C679.508 23.016 679.092 21.856 679.092 20.416ZM689.146 20.416V18.136C689.146 16.872 689.634 15.784 690.61 14.872C691.586 13.944 692.762 13.48 694.138 13.48C695.45 13.48 696.57 13.904 697.498 14.752C698.442 15.584 698.914 16.64 698.914 17.92C698.914 18.4 698.858 18.792 698.746 19.096C698.634 19.384 698.458 19.592 698.218 19.72C697.978 19.832 697.754 19.904 697.546 19.936C697.338 19.968 697.066 19.984 696.73 19.984H691.666V20.536C691.666 21.336 691.954 21.976 692.53 22.456C693.106 22.92 693.858 23.152 694.786 23.152C695.442 23.152 696.058 23 696.634 22.696C697.226 22.392 697.586 22.24 697.714 22.24C697.986 22.24 698.218 22.368 698.41 22.624C698.602 22.88 698.698 23.128 698.698 23.368C698.698 23.768 698.314 24.176 697.546 24.592C696.778 24.992 695.834 25.192 694.714 25.192C693.082 25.192 691.746 24.752 690.706 23.872C689.666 22.992 689.146 21.84 689.146 20.416ZM691.666 18.424H695.65C696.002 18.424 696.234 18.376 696.346 18.28C696.474 18.184 696.538 17.992 696.538 17.704C696.538 17.064 696.306 16.52 695.842 16.072C695.378 15.624 694.802 15.4 694.114 15.4C693.442 15.4 692.866 15.616 692.386 16.048C691.906 16.464 691.666 17 691.666 17.656V18.424ZM700.513 20.416V18.208C700.513 16.912 700.929 15.8 701.761 14.872C702.609 13.944 703.625 13.48 704.809 13.48C705.513 13.48 706.137 13.656 706.681 14.008C707.225 14.36 707.641 14.792 707.929 15.304V7.672C707.929 7.432 708.049 7.24 708.289 7.096C708.529 6.936 708.833 6.856 709.201 6.856C709.569 6.856 709.865 6.936 710.089 7.096C710.329 7.24 710.449 7.432 710.449 7.672V24.16C710.449 24.368 710.329 24.56 710.089 24.736C709.849 24.912 709.553 25 709.201 25C708.897 25 708.625 24.912 708.385 24.736C708.161 24.56 708.049 24.368 708.049 24.16V23.32C707.793 23.832 707.353 24.272 706.729 24.64C706.121 25.008 705.457 25.192 704.737 25.192C703.617 25.192 702.633 24.712 701.785 23.752C700.937 22.776 700.513 21.664 700.513 20.416ZM703.033 20.416C703.033 21.072 703.273 21.664 703.753 22.192C704.233 22.704 704.801 22.96 705.457 22.96C706.081 22.96 706.649 22.72 707.161 22.24C707.673 21.744 707.929 21.32 707.929 20.968V18.208C707.929 17.472 707.681 16.872 707.185 16.408C706.689 15.944 706.121 15.712 705.481 15.712C704.825 15.712 704.249 15.968 703.753 16.48C703.273 16.992 703.033 17.568 703.033 18.208V20.416ZM718.178 24.16V8.272C718.178 8 718.298 7.8 718.538 7.672C718.794 7.528 719.098 7.456 719.45 7.456C719.802 7.456 720.098 7.528 720.338 7.672C720.594 7.8 720.722 8 720.722 8.272V22.744H726.962C727.202 22.744 727.386 22.856 727.514 23.08C727.658 23.304 727.73 23.568 727.73 23.872C727.73 24.176 727.658 24.44 727.514 24.664C727.386 24.888 727.202 25 726.962 25H719.306C719.002 25 718.738 24.928 718.514 24.784C718.29 24.624 718.178 24.416 718.178 24.16ZM728.685 20.416V18.136C728.685 16.872 729.173 15.784 730.149 14.872C731.125 13.944 732.301 13.48 733.677 13.48C734.989 13.48 736.109 13.904 737.037 14.752C737.981 15.584 738.453 16.64 738.453 17.92C738.453 18.4 738.397 18.792 738.285 19.096C738.173 19.384 737.997 19.592 737.757 19.72C737.517 19.832 737.293 19.904 737.085 19.936C736.877 19.968 736.605 19.984 736.269 19.984H731.205V20.536C731.205 21.336 731.493 21.976 732.069 22.456C732.645 22.92 733.397 23.152 734.325 23.152C734.981 23.152 735.597 23 736.173 22.696C736.765 22.392 737.125 22.24 737.253 22.24C737.525 22.24 737.757 22.368 737.949 22.624C738.141 22.88 738.237 23.128 738.237 23.368C738.237 23.768 737.853 24.176 737.085 24.592C736.317 24.992 735.373 25.192 734.253 25.192C732.621 25.192 731.285 24.752 730.245 23.872C729.205 22.992 728.685 21.84 728.685 20.416ZM731.205 18.424H735.189C735.541 18.424 735.773 18.376 735.885 18.28C736.013 18.184 736.077 17.992 736.077 17.704C736.077 17.064 735.845 16.52 735.381 16.072C734.917 15.624 734.341 15.4 733.653 15.4C732.981 15.4 732.405 15.616 731.925 16.048C731.445 16.464 731.205 17 731.205 17.656V18.424ZM739.812 23.272C739.812 23.032 739.892 22.784 740.052 22.528C740.228 22.272 740.436 22.144 740.676 22.144C740.82 22.144 741.02 22.24 741.276 22.432C741.532 22.608 741.876 22.792 742.308 22.984C742.74 23.16 743.26 23.248 743.868 23.248C745.228 23.248 745.908 22.816 745.908 21.952C745.908 21.488 745.708 21.128 745.308 20.872C744.908 20.6 744.42 20.392 743.844 20.248C743.284 20.088 742.724 19.912 742.164 19.72C741.604 19.528 741.124 19.2 740.724 18.736C740.324 18.272 740.124 17.672 740.124 16.936C740.124 15.992 740.46 15.184 741.132 14.512C741.804 13.824 742.836 13.48 744.228 13.48C745.14 13.48 745.964 13.624 746.7 13.912C747.452 14.184 747.828 14.512 747.828 14.896C747.828 15.12 747.732 15.384 747.54 15.688C747.364 15.976 747.14 16.12 746.868 16.12C746.772 16.12 746.444 16.008 745.884 15.784C745.324 15.544 744.788 15.424 744.276 15.424C743.636 15.424 743.148 15.568 742.812 15.856C742.492 16.144 742.332 16.464 742.332 16.816C742.332 17.2 742.532 17.504 742.932 17.728C743.332 17.952 743.82 18.136 744.396 18.28C744.972 18.424 745.54 18.6 746.1 18.808C746.676 19.016 747.164 19.376 747.564 19.888C747.964 20.4 748.164 21.056 748.164 21.856C748.164 22.896 747.796 23.712 747.06 24.304C746.324 24.896 745.284 25.192 743.94 25.192C742.804 25.192 741.828 24.992 741.012 24.592C740.212 24.192 739.812 23.752 739.812 23.272ZM749.515 23.272C749.515 23.032 749.595 22.784 749.755 22.528C749.931 22.272 750.139 22.144 750.379 22.144C750.523 22.144 750.723 22.24 750.979 22.432C751.235 22.608 751.579 22.792 752.011 22.984C752.443 23.16 752.963 23.248 753.571 23.248C754.931 23.248 755.611 22.816 755.611 21.952C755.611 21.488 755.411 21.128 755.011 20.872C754.611 20.6 754.123 20.392 753.547 20.248C752.987 20.088 752.427 19.912 751.867 19.72C751.307 19.528 750.827 19.2 750.427 18.736C750.027 18.272 749.827 17.672 749.827 16.936C749.827 15.992 750.163 15.184 750.835 14.512C751.507 13.824 752.539 13.48 753.931 13.48C754.843 13.48 755.667 13.624 756.403 13.912C757.155 14.184 757.531 14.512 757.531 14.896C757.531 15.12 757.435 15.384 757.243 15.688C757.067 15.976 756.843 16.12 756.571 16.12C756.475 16.12 756.147 16.008 755.587 15.784C755.027 15.544 754.491 15.424 753.979 15.424C753.339 15.424 752.851 15.568 752.515 15.856C752.195 16.144 752.035 16.464 752.035 16.816C752.035 17.2 752.235 17.504 752.635 17.728C753.035 17.952 753.523 18.136 754.099 18.28C754.675 18.424 755.243 18.6 755.803 18.808C756.379 19.016 756.867 19.376 757.267 19.888C757.667 20.4 757.867 21.056 757.867 21.856C757.867 22.896 757.499 23.712 756.763 24.304C756.027 24.896 754.987 25.192 753.643 25.192C752.507 25.192 751.531 24.992 750.715 24.592C749.915 24.192 749.515 23.752 749.515 23.272ZM759.434 20.416V18.208C759.434 16.944 759.922 15.84 760.898 14.896C761.874 13.952 763.042 13.48 764.402 13.48C765.73 13.48 766.89 13.952 767.882 14.896C768.874 15.824 769.37 16.928 769.37 18.208V20.416C769.37 21.664 768.866 22.776 767.858 23.752C766.866 24.712 765.714 25.192 764.402 25.192C763.074 25.192 761.914 24.712 760.922 23.752C759.93 22.792 759.434 21.68 759.434 20.416ZM761.954 20.416C761.954 21.072 762.194 21.664 762.674 22.192C763.154 22.704 763.73 22.96 764.402 22.96C765.058 22.96 765.626 22.704 766.106 22.192C766.602 21.664 766.85 21.072 766.85 20.416V18.208C766.85 17.568 766.602 16.992 766.106 16.48C765.626 15.968 765.058 15.712 764.402 15.712C763.73 15.712 763.154 15.968 762.674 16.48C762.194 16.992 761.954 17.568 761.954 18.208V20.416ZM771.586 24.16V14.44C771.586 14.2 771.698 14.008 771.922 13.864C772.162 13.704 772.466 13.624 772.834 13.624C773.154 13.624 773.418 13.704 773.626 13.864C773.85 14.008 773.962 14.2 773.962 14.44V15.304C774.218 14.792 774.626 14.36 775.186 14.008C775.762 13.656 776.426 13.48 777.178 13.48C778.314 13.48 779.29 13.944 780.106 14.872C780.938 15.8 781.354 16.912 781.354 18.208V24.16C781.354 24.416 781.226 24.624 780.97 24.784C780.73 24.928 780.434 25 780.082 25C779.762 25 779.474 24.928 779.218 24.784C778.962 24.624 778.834 24.416 778.834 24.16V18.208C778.834 17.568 778.594 16.992 778.114 16.48C777.634 15.968 777.066 15.712 776.41 15.712C775.802 15.712 775.266 15.944 774.802 16.408C774.338 16.856 774.106 17.456 774.106 18.208V24.16C774.106 24.368 773.978 24.56 773.722 24.736C773.466 24.912 773.17 25 772.834 25C772.482 25 772.186 24.912 771.946 24.736C771.706 24.56 771.586 24.368 771.586 24.16ZM783.218 23.272C783.218 23.032 783.298 22.784 783.458 22.528C783.634 22.272 783.842 22.144 784.082 22.144C784.226 22.144 784.426 22.24 784.682 22.432C784.938 22.608 785.282 22.792 785.714 22.984C786.146 23.16 786.666 23.248 787.274 23.248C788.634 23.248 789.314 22.816 789.314 21.952C789.314 21.488 789.114 21.128 788.714 20.872C788.314 20.6 787.826 20.392 787.25 20.248C786.69 20.088 786.13 19.912 785.57 19.72C785.01 19.528 784.53 19.2 784.13 18.736C783.73 18.272 783.53 17.672 783.53 16.936C783.53 15.992 783.866 15.184 784.538 14.512C785.21 13.824 786.242 13.48 787.634 13.48C788.546 13.48 789.37 13.624 790.106 13.912C790.858 14.184 791.234 14.512 791.234 14.896C791.234 15.12 791.138 15.384 790.946 15.688C790.77 15.976 790.546 16.12 790.274 16.12C790.178 16.12 789.85 16.008 789.29 15.784C788.73 15.544 788.194 15.424 787.682 15.424C787.042 15.424 786.554 15.568 786.218 15.856C785.898 16.144 785.738 16.464 785.738 16.816C785.738 17.2 785.938 17.504 786.338 17.728C786.738 17.952 787.226 18.136 787.802 18.28C788.378 18.424 788.946 18.6 789.506 18.808C790.082 19.016 790.57 19.376 790.97 19.888C791.37 20.4 791.57 21.056 791.57 21.856C791.57 22.896 791.202 23.712 790.466 24.304C789.73 24.896 788.69 25.192 787.346 25.192C786.21 25.192 785.234 24.992 784.418 24.592C783.618 24.192 783.218 23.752 783.218 23.272ZM793.881 24.736C793.609 24.448 793.473 24.104 793.473 23.704C793.473 23.304 793.609 22.968 793.881 22.696C794.153 22.408 794.497 22.264 794.913 22.264C795.297 22.264 795.625 22.408 795.897 22.696C796.185 22.968 796.329 23.304 796.329 23.704C796.329 24.088 796.185 24.424 795.897 24.712C795.625 25 795.297 25.144 794.913 25.144C794.497 25.144 794.153 25.008 793.881 24.736ZM793.881 17.344C793.609 17.056 793.473 16.712 793.473 16.312C793.473 15.912 793.609 15.576 793.881 15.304C794.153 15.016 794.497 14.872 794.913 14.872C795.297 14.872 795.625 15.016 795.897 15.304C796.185 15.576 796.329 15.912 796.329 16.312C796.329 16.696 796.185 17.032 795.897 17.32C795.625 17.608 795.297 17.752 794.913 17.752C794.497 17.752 794.153 17.616 793.881 17.344Z" fill="#596F62"/>
<path d="M618.453 38.296C618.453 38.024 618.573 37.784 618.813 37.576L620.781 34.792C620.957 34.552 621.157 34.432 621.381 34.432C621.557 34.432 621.717 34.488 621.861 34.6C622.005 34.712 622.077 34.856 622.077 35.032V51.376C622.077 51.568 621.997 51.72 621.837 51.832C621.677 51.944 621.493 52 621.285 52C621.061 52 620.869 51.944 620.709 51.832C620.565 51.72 620.493 51.568 620.493 51.376V37.144L619.533 38.704C619.405 38.896 619.253 38.992 619.077 38.992C618.901 38.992 618.749 38.928 618.621 38.8C618.509 38.656 618.453 38.488 618.453 38.296ZM630.059 51.376V34.264C630.059 34.104 630.131 33.968 630.275 33.856C630.419 33.744 630.603 33.688 630.827 33.688C631.051 33.688 631.235 33.744 631.379 33.856C631.539 33.968 631.619 34.104 631.619 34.264V42.328C631.891 41.816 632.299 41.384 632.843 41.032C633.403 40.68 634.051 40.504 634.787 40.504C635.939 40.504 636.931 40.944 637.763 41.824C638.611 42.704 639.035 43.76 639.035 44.992V51.376C639.035 51.568 638.955 51.72 638.795 51.832C638.651 51.944 638.467 52 638.243 52C638.051 52 637.875 51.944 637.715 51.832C637.555 51.72 637.475 51.568 637.475 51.376V44.992C637.475 44.208 637.179 43.504 636.587 42.88C635.995 42.256 635.299 41.944 634.499 41.944C633.747 41.944 633.075 42.224 632.483 42.784C631.907 43.344 631.619 44.08 631.619 44.992V51.376C631.619 51.536 631.539 51.68 631.379 51.808C631.219 51.936 631.035 52 630.827 52C630.619 52 630.435 51.936 630.275 51.808C630.131 51.68 630.059 51.536 630.059 51.376ZM641.509 47.608V44.992C641.509 43.776 641.957 42.728 642.853 41.848C643.749 40.952 644.813 40.504 646.045 40.504C647.277 40.504 648.349 40.944 649.261 41.824C650.173 42.704 650.629 43.76 650.629 44.992V47.608C650.629 48.808 650.165 49.872 649.237 50.8C648.325 51.712 647.261 52.168 646.045 52.168C644.845 52.168 643.789 51.712 642.877 50.8C641.965 49.872 641.509 48.808 641.509 47.608ZM643.069 47.608C643.069 48.424 643.357 49.152 643.933 49.792C644.525 50.416 645.229 50.728 646.045 50.728C646.877 50.728 647.589 50.416 648.181 49.792C648.773 49.152 649.069 48.424 649.069 47.608V44.992C649.069 44.208 648.765 43.504 648.157 42.88C647.565 42.256 646.861 41.944 646.045 41.944C645.229 41.944 644.525 42.256 643.933 42.88C643.357 43.504 643.069 44.208 643.069 44.992V47.608ZM653.072 47.656V41.248C653.072 41.104 653.144 40.968 653.288 40.84C653.448 40.712 653.64 40.648 653.864 40.648C654.056 40.648 654.232 40.712 654.392 40.84C654.552 40.968 654.632 41.104 654.632 41.248V47.656C654.632 48.456 654.928 49.168 655.52 49.792C656.112 50.416 656.816 50.728 657.632 50.728C658.448 50.728 659.152 50.416 659.744 49.792C660.336 49.168 660.632 48.456 660.632 47.656V41.224C660.632 41.064 660.712 40.928 660.872 40.816C661.032 40.704 661.216 40.648 661.424 40.648C661.632 40.648 661.808 40.704 661.952 40.816C662.112 40.928 662.192 41.064 662.192 41.224V47.656C662.192 48.856 661.736 49.912 660.824 50.824C659.928 51.72 658.864 52.168 657.632 52.168C656.384 52.168 655.312 51.72 654.416 50.824C653.52 49.912 653.072 48.856 653.072 47.656ZM665.098 51.376V41.224C665.098 41.064 665.17 40.928 665.314 40.816C665.458 40.704 665.642 40.648 665.866 40.648C666.074 40.648 666.25 40.704 666.394 40.816C666.538 40.928 666.61 41.064 666.61 41.224V42.4C666.898 41.872 667.322 41.424 667.882 41.056C668.442 40.688 669.09 40.504 669.826 40.504H670.666C670.826 40.504 670.97 40.576 671.098 40.72C671.226 40.864 671.29 41.032 671.29 41.224C671.29 41.416 671.226 41.584 671.098 41.728C670.97 41.872 670.826 41.944 670.666 41.944H669.826C668.994 41.944 668.258 42.272 667.618 42.928C666.978 43.568 666.658 44.408 666.658 45.448V51.376C666.658 51.536 666.578 51.68 666.418 51.808C666.274 51.936 666.09 52 665.866 52C665.658 52 665.474 51.936 665.314 51.808C665.17 51.68 665.098 51.536 665.098 51.376ZM677.968 47.008V39.568C677.968 37.824 678.432 36.536 679.36 35.704C680.304 34.872 681.52 34.456 683.008 34.456C684.528 34.456 685.728 34.848 686.608 35.632C687.504 36.4 687.952 37.344 687.952 38.464C687.952 38.848 687.888 39.104 687.76 39.232C687.648 39.36 687.448 39.424 687.16 39.424C686.664 39.424 686.4 39.224 686.368 38.824C686.352 38.584 686.32 38.352 686.272 38.128C686.224 37.904 686.128 37.656 685.984 37.384C685.84 37.096 685.648 36.848 685.408 36.64C685.184 36.432 684.864 36.264 684.448 36.136C684.032 35.992 683.552 35.92 683.008 35.92C680.704 35.92 679.552 37.136 679.552 39.568V47.008C679.552 49.456 680.736 50.68 683.104 50.68C683.776 50.68 684.336 50.592 684.784 50.416C685.232 50.224 685.56 49.952 685.768 49.6C685.976 49.248 686.112 48.952 686.176 48.712C686.256 48.456 686.32 48.128 686.368 47.728C686.416 47.312 686.68 47.104 687.16 47.104C687.448 47.104 687.648 47.176 687.76 47.32C687.888 47.448 687.952 47.704 687.952 48.088C687.952 49.224 687.496 50.184 686.584 50.968C685.688 51.752 684.472 52.144 682.936 52.144C681.464 52.144 680.264 51.728 679.336 50.896C678.424 50.064 677.968 48.768 677.968 47.008ZM690.602 51.376V34.264C690.602 34.104 690.674 33.968 690.818 33.856C690.962 33.744 691.146 33.688 691.37 33.688C691.594 33.688 691.778 33.744 691.922 33.856C692.082 33.968 692.162 34.104 692.162 34.264V51.376C692.162 51.536 692.082 51.68 691.922 51.808C691.778 51.936 691.594 52 691.37 52C691.162 52 690.978 51.936 690.818 51.808C690.674 51.68 690.602 51.536 690.602 51.376ZM694.587 49C694.587 47.768 695.059 46.912 696.003 46.432C696.963 45.952 698.355 45.712 700.179 45.712H701.403V45.136C701.403 44.256 701.171 43.496 700.707 42.856C700.243 42.2 699.531 41.872 698.571 41.872C697.931 41.872 697.347 41.992 696.819 42.232C696.307 42.456 696.035 42.568 696.003 42.568C695.811 42.568 695.659 42.48 695.547 42.304C695.435 42.128 695.379 41.936 695.379 41.728C695.379 41.424 695.723 41.144 696.411 40.888C697.099 40.632 697.835 40.504 698.619 40.504C700.123 40.504 701.219 40.944 701.907 41.824C702.611 42.688 702.963 43.792 702.963 45.136V51.376C702.963 51.552 702.891 51.704 702.747 51.832C702.603 51.944 702.419 52 702.195 52C701.987 52 701.811 51.944 701.667 51.832C701.539 51.704 701.475 51.552 701.475 51.376V50.32C700.403 51.552 699.195 52.168 697.851 52.168C696.891 52.168 696.107 51.904 695.499 51.376C694.891 50.832 694.587 50.04 694.587 49ZM696.147 48.856C696.147 49.528 696.339 50.032 696.723 50.368C697.107 50.688 697.611 50.848 698.235 50.848C698.987 50.848 699.699 50.568 700.371 50.008C701.059 49.448 701.403 48.888 701.403 48.328V46.792H700.395C699.755 46.792 699.211 46.816 698.763 46.864C698.331 46.912 697.899 47 697.467 47.128C697.035 47.256 696.707 47.464 696.483 47.752C696.259 48.04 696.147 48.408 696.147 48.856ZM705.183 50.44C705.183 50.28 705.239 50.12 705.351 49.96C705.463 49.8 705.591 49.72 705.735 49.72C705.847 49.72 706.023 49.816 706.263 50.008C706.503 50.184 706.847 50.368 707.295 50.56C707.743 50.752 708.279 50.848 708.903 50.848C709.751 50.848 710.375 50.688 710.775 50.368C711.175 50.048 711.375 49.64 711.375 49.144C711.375 48.568 711.167 48.112 710.751 47.776C710.351 47.424 709.863 47.168 709.287 47.008C708.711 46.848 708.127 46.672 707.535 46.48C706.959 46.288 706.463 45.976 706.047 45.544C705.647 45.096 705.447 44.504 705.447 43.768C705.447 42.888 705.759 42.128 706.383 41.488C707.023 40.832 707.975 40.504 709.239 40.504C710.023 40.504 710.751 40.632 711.423 40.888C712.111 41.128 712.455 41.392 712.455 41.68C712.455 41.84 712.391 42.016 712.263 42.208C712.135 42.4 711.983 42.496 711.807 42.496C711.759 42.496 711.463 42.384 710.919 42.16C710.375 41.936 709.823 41.824 709.263 41.824C708.463 41.824 707.863 42.016 707.463 42.4C707.063 42.784 706.863 43.216 706.863 43.696C706.863 44.192 707.063 44.584 707.463 44.872C707.879 45.16 708.375 45.384 708.951 45.544C709.543 45.688 710.127 45.864 710.703 46.072C711.295 46.264 711.791 46.616 712.191 47.128C712.607 47.624 712.815 48.272 712.815 49.072C712.815 50.032 712.471 50.792 711.783 51.352C711.111 51.896 710.167 52.168 708.951 52.168C707.895 52.168 706.999 51.984 706.263 51.616C705.543 51.232 705.183 50.84 705.183 50.44ZM714.417 50.44C714.417 50.28 714.473 50.12 714.585 49.96C714.697 49.8 714.825 49.72 714.969 49.72C715.081 49.72 715.257 49.816 715.497 50.008C715.737 50.184 716.081 50.368 716.529 50.56C716.977 50.752 717.513 50.848 718.137 50.848C718.985 50.848 719.609 50.688 720.009 50.368C720.409 50.048 720.609 49.64 720.609 49.144C720.609 48.568 720.401 48.112 719.985 47.776C719.585 47.424 719.097 47.168 718.521 47.008C717.945 46.848 717.361 46.672 716.769 46.48C716.193 46.288 715.697 45.976 715.281 45.544C714.881 45.096 714.681 44.504 714.681 43.768C714.681 42.888 714.993 42.128 715.617 41.488C716.257 40.832 717.209 40.504 718.473 40.504C719.257 40.504 719.985 40.632 720.657 40.888C721.345 41.128 721.689 41.392 721.689 41.68C721.689 41.84 721.625 42.016 721.497 42.208C721.369 42.4 721.217 42.496 721.041 42.496C720.993 42.496 720.697 42.384 720.153 42.16C719.609 41.936 719.057 41.824 718.497 41.824C717.697 41.824 717.097 42.016 716.697 42.4C716.297 42.784 716.097 43.216 716.097 43.696C716.097 44.192 716.297 44.584 716.697 44.872C717.113 45.16 717.609 45.384 718.185 45.544C718.777 45.688 719.361 45.864 719.937 46.072C720.529 46.264 721.025 46.616 721.425 47.128C721.841 47.624 722.049 48.272 722.049 49.072C722.049 50.032 721.705 50.792 721.017 51.352C720.345 51.896 719.401 52.168 718.185 52.168C717.129 52.168 716.233 51.984 715.497 51.616C714.777 51.232 714.417 50.84 714.417 50.44Z" fill="black"/>
<path d="M0.570375 23.944C0.570375 23.848 0.578375 23.776 0.594375 23.728L5.37038 8.176C5.56238 7.6 6.09838 7.312 6.97838 7.312C7.87438 7.312 8.41838 7.6 8.61038 8.176L13.3624 23.728C13.3944 23.824 13.4104 23.896 13.4104 23.944C13.4104 24.232 13.2344 24.48 12.8824 24.688C12.5464 24.896 12.1864 25 11.8024 25C11.3384 25 11.0504 24.824 10.9384 24.472L9.95438 21.064H4.02638L3.04238 24.472C2.93038 24.824 2.63438 25 2.15438 25C1.77038 25 1.41038 24.896 1.07438 24.688C0.738375 24.48 0.570375 24.232 0.570375 23.944ZM4.57838 19.024H9.37838L6.97838 10.792L4.57838 19.024ZM14.5989 20.416V18.208C14.5989 16.912 15.0149 15.8 15.8469 14.872C16.6949 13.944 17.7109 13.48 18.8949 13.48C19.5989 13.48 20.2229 13.656 20.7669 14.008C21.3109 14.36 21.7269 14.792 22.0149 15.304V7.672C22.0149 7.432 22.1349 7.24 22.3749 7.096C22.6149 6.936 22.9189 6.856 23.2869 6.856C23.6549 6.856 23.9509 6.936 24.1749 7.096C24.4149 7.24 24.5349 7.432 24.5349 7.672V24.16C24.5349 24.368 24.4149 24.56 24.1749 24.736C23.9349 24.912 23.6389 25 23.2869 25C22.9829 25 22.7109 24.912 22.4709 24.736C22.2469 24.56 22.1349 24.368 22.1349 24.16V23.32C21.8789 23.832 21.4389 24.272 20.8149 24.64C20.2069 25.008 19.5429 25.192 18.8229 25.192C17.7029 25.192 16.7189 24.712 15.8709 23.752C15.0229 22.776 14.5989 21.664 14.5989 20.416ZM17.1189 20.416C17.1189 21.072 17.3589 21.664 17.8389 22.192C18.3189 22.704 18.8869 22.96 19.5429 22.96C20.1669 22.96 20.7349 22.72 21.2469 22.24C21.7589 21.744 22.0149 21.32 22.0149 20.968V18.208C22.0149 17.472 21.7669 16.872 21.2709 16.408C20.7749 15.944 20.2069 15.712 19.5669 15.712C18.9109 15.712 18.3349 15.968 17.8389 16.48C17.3589 16.992 17.1189 17.568 17.1189 18.208V20.416ZM26.475 22.024C26.475 20.744 26.955 19.856 27.915 19.36C28.875 18.848 30.267 18.592 32.091 18.592H33.147V18.16C33.147 17.456 32.947 16.848 32.547 16.336C32.163 15.824 31.571 15.568 30.771 15.568C30.083 15.568 29.475 15.688 28.947 15.928C28.435 16.168 28.155 16.288 28.107 16.288C27.835 16.288 27.611 16.16 27.435 15.904C27.275 15.632 27.195 15.336 27.195 15.016C27.195 14.6 27.579 14.24 28.347 13.936C29.131 13.632 29.955 13.48 30.819 13.48C32.467 13.48 33.683 13.928 34.467 14.824C35.267 15.704 35.667 16.808 35.667 18.136V24.16C35.667 24.384 35.547 24.584 35.307 24.76C35.083 24.92 34.795 25 34.443 25C34.123 25 33.851 24.92 33.627 24.76C33.403 24.584 33.291 24.384 33.291 24.16V23.32C32.219 24.568 31.011 25.192 29.667 25.192C28.739 25.192 27.971 24.92 27.363 24.376C26.771 23.832 26.475 23.048 26.475 22.024ZM29.019 21.712C29.019 22.224 29.163 22.616 29.451 22.888C29.739 23.144 30.115 23.272 30.579 23.272C31.187 23.272 31.763 23.016 32.307 22.504C32.867 21.992 33.147 21.448 33.147 20.872V19.984H32.547C31.827 19.984 31.235 20.016 30.771 20.08C30.323 20.144 29.915 20.312 29.547 20.584C29.195 20.856 29.019 21.232 29.019 21.712ZM36.966 14.608C36.966 14.32 37.15 14.072 37.518 13.864C37.886 13.64 38.254 13.528 38.622 13.528C39.022 13.528 39.278 13.68 39.39 13.984L42.246 21.568L45.102 14.032C45.23 13.696 45.486 13.528 45.87 13.528C46.174 13.528 46.526 13.64 46.926 13.864C47.326 14.088 47.526 14.336 47.526 14.608C47.526 14.72 47.494 14.856 47.43 15.016L43.398 24.736C43.254 25.072 42.87 25.24 42.246 25.24C41.622 25.24 41.238 25.072 41.094 24.736L37.086 15.016C37.006 14.856 36.966 14.72 36.966 14.608ZM48.9896 20.464V14.464C48.9896 14.24 49.1176 14.048 49.3736 13.888C49.6296 13.712 49.9256 13.624 50.2616 13.624C50.5976 13.624 50.8856 13.712 51.1256 13.888C51.3816 14.048 51.5096 14.24 51.5096 14.464V20.464C51.5096 21.104 51.7496 21.68 52.2296 22.192C52.7256 22.704 53.3016 22.96 53.9576 22.96C54.6296 22.96 55.2056 22.712 55.6856 22.216C56.1656 21.704 56.4056 21.12 56.4056 20.464V14.44C56.4056 14.216 56.5256 14.024 56.7656 13.864C57.0216 13.704 57.3256 13.624 57.6776 13.624C58.0296 13.624 58.3176 13.704 58.5416 13.864C58.7816 14.024 58.9016 14.216 58.9016 14.44V20.464C58.9016 21.728 58.4136 22.832 57.4376 23.776C56.4616 24.72 55.3016 25.192 53.9576 25.192C52.6136 25.192 51.4456 24.72 50.4536 23.776C49.4776 22.832 48.9896 21.728 48.9896 20.464ZM66.3379 19.792V12.808C66.3379 10.968 66.8259 9.616 67.8019 8.752C68.7779 7.888 70.0579 7.456 71.6419 7.456C73.2579 7.456 74.5699 7.864 75.5779 8.68C76.6019 9.48 77.1139 10.552 77.1139 11.896C77.1139 12.36 77.0099 12.68 76.8019 12.856C76.6099 13.032 76.2899 13.12 75.8419 13.12C75.0099 13.12 74.5859 12.84 74.5699 12.28C74.3939 10.568 73.4419 9.712 71.7139 9.712C69.8259 9.712 68.8819 10.744 68.8819 12.808V19.792C68.8819 21.856 69.8259 22.888 71.7139 22.888C72.6259 22.888 73.3299 22.632 73.8259 22.12C74.3219 21.608 74.5699 20.832 74.5699 19.792V17.824H72.1459C71.8899 17.824 71.6899 17.728 71.5459 17.536C71.4019 17.328 71.3299 17.08 71.3299 16.792C71.3299 16.536 71.4019 16.304 71.5459 16.096C71.6899 15.888 71.8899 15.784 72.1459 15.784H76.2739C76.5299 15.784 76.7299 15.872 76.8739 16.048C77.0339 16.208 77.1139 16.408 77.1139 16.648V19.792C77.1139 21.632 76.6179 22.984 75.6259 23.848C74.6499 24.712 73.3459 25.144 71.7139 25.144C70.0819 25.144 68.7779 24.712 67.8019 23.848C66.8259 22.984 66.3379 21.632 66.3379 19.792ZM79.5778 24.16V14.44C79.5778 14.2 79.6898 14.008 79.9138 13.864C80.1538 13.704 80.4498 13.624 80.8018 13.624C81.1218 13.624 81.3938 13.704 81.6178 13.864C81.8418 14.008 81.9538 14.2 81.9538 14.44V15.496C82.2258 14.936 82.6338 14.464 83.1778 14.08C83.7378 13.68 84.3458 13.48 85.0018 13.48H85.7698C86.0258 13.48 86.2498 13.592 86.4418 13.816C86.6338 14.024 86.7298 14.28 86.7298 14.584C86.7298 14.888 86.6338 15.152 86.4418 15.376C86.2498 15.6 86.0258 15.712 85.7698 15.712H85.0018C84.2338 15.712 83.5538 16.04 82.9618 16.696C82.3858 17.352 82.0978 18.2 82.0978 19.24V24.16C82.0978 24.368 81.9698 24.56 81.7138 24.736C81.4578 24.912 81.1538 25 80.8018 25C80.4498 25 80.1538 24.912 79.9138 24.736C79.6898 24.56 79.5778 24.368 79.5778 24.16ZM87.489 20.416V18.208C87.489 16.944 87.977 15.84 88.953 14.896C89.929 13.952 91.097 13.48 92.457 13.48C93.785 13.48 94.945 13.952 95.937 14.896C96.929 15.824 97.425 16.928 97.425 18.208V20.416C97.425 21.664 96.921 22.776 95.913 23.752C94.921 24.712 93.769 25.192 92.457 25.192C91.129 25.192 89.969 24.712 88.977 23.752C87.985 22.792 87.489 21.68 87.489 20.416ZM90.009 20.416C90.009 21.072 90.249 21.664 90.729 22.192C91.209 22.704 91.785 22.96 92.457 22.96C93.113 22.96 93.681 22.704 94.161 22.192C94.657 21.664 94.905 21.072 94.905 20.416V18.208C94.905 17.568 94.657 16.992 94.161 16.48C93.681 15.968 93.113 15.712 92.457 15.712C91.785 15.712 91.209 15.968 90.729 16.48C90.249 16.992 90.009 17.568 90.009 18.208V20.416ZM99.5443 20.464V14.464C99.5443 14.24 99.6723 14.048 99.9283 13.888C100.184 13.712 100.48 13.624 100.816 13.624C101.152 13.624 101.44 13.712 101.68 13.888C101.936 14.048 102.064 14.24 102.064 14.464V20.464C102.064 21.104 102.304 21.68 102.784 22.192C103.28 22.704 103.856 22.96 104.512 22.96C105.184 22.96 105.76 22.712 106.24 22.216C106.72 21.704 106.96 21.12 106.96 20.464V14.44C106.96 14.216 107.08 14.024 107.32 13.864C107.576 13.704 107.88 13.624 108.232 13.624C108.584 13.624 108.872 13.704 109.096 13.864C109.336 14.024 109.456 14.216 109.456 14.44V20.464C109.456 21.728 108.968 22.832 107.992 23.776C107.016 24.72 105.856 25.192 104.512 25.192C103.168 25.192 102 24.72 101.008 23.776C100.032 22.832 99.5443 21.728 99.5443 20.464ZM112.016 29.56V14.44C112.016 14.2 112.128 14.008 112.352 13.864C112.592 13.704 112.88 13.624 113.216 13.624C113.552 13.624 113.832 13.704 114.056 13.864C114.28 14.008 114.392 14.2 114.392 14.44V15.304C114.68 14.792 115.104 14.36 115.664 14.008C116.24 13.656 116.888 13.48 117.608 13.48C118.808 13.48 119.824 13.944 120.656 14.872C121.504 15.8 121.928 16.912 121.928 18.208V20.416C121.928 21.664 121.504 22.776 120.656 23.752C119.808 24.712 118.824 25.192 117.704 25.192C117.016 25.192 116.376 25.008 115.784 24.64C115.208 24.272 114.792 23.832 114.536 23.32V29.56C114.536 29.784 114.408 29.976 114.152 30.136C113.896 30.312 113.592 30.4 113.24 30.4C112.888 30.4 112.592 30.312 112.352 30.136C112.128 29.976 112.016 29.784 112.016 29.56ZM114.536 20.968C114.536 21.32 114.776 21.744 115.256 22.24C115.752 22.72 116.32 22.96 116.96 22.96C117.6 22.96 118.168 22.704 118.664 22.192C119.16 21.664 119.408 21.072 119.408 20.416V18.208C119.408 17.568 119.16 16.992 118.664 16.48C118.168 15.968 117.584 15.712 116.912 15.712C116.288 15.712 115.736 15.944 115.256 16.408C114.776 16.856 114.536 17.456 114.536 18.208V20.968ZM123.461 23.272C123.461 23.032 123.541 22.784 123.701 22.528C123.877 22.272 124.085 22.144 124.325 22.144C124.469 22.144 124.669 22.24 124.925 22.432C125.181 22.608 125.525 22.792 125.957 22.984C126.389 23.16 126.909 23.248 127.517 23.248C128.877 23.248 129.557 22.816 129.557 21.952C129.557 21.488 129.357 21.128 128.957 20.872C128.557 20.6 128.069 20.392 127.493 20.248C126.933 20.088 126.373 19.912 125.812 19.72C125.253 19.528 124.773 19.2 124.373 18.736C123.973 18.272 123.773 17.672 123.773 16.936C123.773 15.992 124.109 15.184 124.781 14.512C125.453 13.824 126.485 13.48 127.877 13.48C128.789 13.48 129.613 13.624 130.349 13.912C131.101 14.184 131.477 14.512 131.477 14.896C131.477 15.12 131.381 15.384 131.189 15.688C131.013 15.976 130.789 16.12 130.517 16.12C130.421 16.12 130.093 16.008 129.533 15.784C128.973 15.544 128.437 15.424 127.925 15.424C127.285 15.424 126.797 15.568 126.461 15.856C126.141 16.144 125.98 16.464 125.98 16.816C125.98 17.2 126.181 17.504 126.581 17.728C126.981 17.952 127.469 18.136 128.045 18.28C128.621 18.424 129.189 18.6 129.749 18.808C130.325 19.016 130.813 19.376 131.213 19.888C131.613 20.4 131.813 21.056 131.813 21.856C131.813 22.896 131.445 23.712 130.709 24.304C129.973 24.896 128.933 25.192 127.589 25.192C126.453 25.192 125.477 24.992 124.661 24.592C123.861 24.192 123.461 23.752 123.461 23.272ZM134.124 24.736C133.852 24.448 133.716 24.104 133.716 23.704C133.716 23.304 133.852 22.968 134.124 22.696C134.396 22.408 134.74 22.264 135.156 22.264C135.54 22.264 135.868 22.408 136.14 22.696C136.428 22.968 136.572 23.304 136.572 23.704C136.572 24.088 136.428 24.424 136.14 24.712C135.868 25 135.54 25.144 135.156 25.144C134.74 25.144 134.396 25.008 134.124 24.736ZM134.124 17.344C133.852 17.056 133.716 16.712 133.716 16.312C133.716 15.912 133.852 15.576 134.124 15.304C134.396 15.016 134.74 14.872 135.156 14.872C135.54 14.872 135.868 15.016 136.14 15.304C136.428 15.576 136.572 15.912 136.572 16.312C136.572 16.696 136.428 17.032 136.14 17.32C135.868 17.608 135.54 17.752 135.156 17.752C134.74 17.752 134.396 17.616 134.124 17.344Z" fill="#596F62"/>
<path d="M16.4526 38.296C16.4526 38.024 16.5726 37.784 16.8126 37.576L18.7806 34.792C18.9566 34.552 19.1566 34.432 19.3806 34.432C19.5566 34.432 19.7166 34.488 19.8606 34.6C20.0046 34.712 20.0766 34.856 20.0766 35.032V51.376C20.0766 51.568 19.9966 51.72 19.8366 51.832C19.6766 51.944 19.4926 52 19.2846 52C19.0606 52 18.8686 51.944 18.7086 51.832C18.5646 51.72 18.4926 51.568 18.4926 51.376V37.144L17.5326 38.704C17.4046 38.896 17.2526 38.992 17.0766 38.992C16.9006 38.992 16.7486 38.928 16.6206 38.8C16.5086 38.656 16.4526 38.488 16.4526 38.296ZM28.0589 51.376V34.264C28.0589 34.104 28.1309 33.968 28.2749 33.856C28.4189 33.744 28.6029 33.688 28.8269 33.688C29.0509 33.688 29.2349 33.744 29.3789 33.856C29.5389 33.968 29.6189 34.104 29.6189 34.264V42.328C29.8909 41.816 30.2989 41.384 30.8429 41.032C31.4029 40.68 32.0509 40.504 32.7869 40.504C33.9389 40.504 34.9309 40.944 35.7629 41.824C36.6109 42.704 37.0349 43.76 37.0349 44.992V51.376C37.0349 51.568 36.9549 51.72 36.7949 51.832C36.6509 51.944 36.4669 52 36.2429 52C36.0509 52 35.8749 51.944 35.7149 51.832C35.5549 51.72 35.4749 51.568 35.4749 51.376V44.992C35.4749 44.208 35.1789 43.504 34.5869 42.88C33.9949 42.256 33.2989 41.944 32.4989 41.944C31.7469 41.944 31.0749 42.224 30.4829 42.784C29.9069 43.344 29.6189 44.08 29.6189 44.992V51.376C29.6189 51.536 29.5389 51.68 29.3789 51.808C29.2189 51.936 29.0349 52 28.8269 52C28.6189 52 28.4349 51.936 28.2749 51.808C28.1309 51.68 28.0589 51.536 28.0589 51.376ZM39.5091 47.608V44.992C39.5091 43.776 39.9571 42.728 40.8531 41.848C41.7491 40.952 42.8131 40.504 44.0451 40.504C45.2771 40.504 46.3491 40.944 47.2611 41.824C48.1731 42.704 48.6291 43.76 48.6291 44.992V47.608C48.6291 48.808 48.1651 49.872 47.2371 50.8C46.3251 51.712 45.2611 52.168 44.0451 52.168C42.8451 52.168 41.7891 51.712 40.8771 50.8C39.9651 49.872 39.5091 48.808 39.5091 47.608ZM41.0691 47.608C41.0691 48.424 41.3571 49.152 41.9331 49.792C42.5251 50.416 43.2291 50.728 44.0451 50.728C44.8771 50.728 45.5891 50.416 46.1811 49.792C46.7731 49.152 47.0691 48.424 47.0691 47.608V44.992C47.0691 44.208 46.7651 43.504 46.1571 42.88C45.5651 42.256 44.8611 41.944 44.0451 41.944C43.2291 41.944 42.5251 42.256 41.9331 42.88C41.3571 43.504 41.0691 44.208 41.0691 44.992V47.608ZM51.0717 47.656V41.248C51.0717 41.104 51.1437 40.968 51.2877 40.84C51.4477 40.712 51.6397 40.648 51.8637 40.648C52.0557 40.648 52.2317 40.712 52.3917 40.84C52.5517 40.968 52.6317 41.104 52.6317 41.248V47.656C52.6317 48.456 52.9277 49.168 53.5197 49.792C54.1117 50.416 54.8157 50.728 55.6317 50.728C56.4477 50.728 57.1517 50.416 57.7437 49.792C58.3357 49.168 58.6317 48.456 58.6317 47.656V41.224C58.6317 41.064 58.7117 40.928 58.8717 40.816C59.0317 40.704 59.2157 40.648 59.4237 40.648C59.6317 40.648 59.8077 40.704 59.9517 40.816C60.1117 40.928 60.1917 41.064 60.1917 41.224V47.656C60.1917 48.856 59.7357 49.912 58.8237 50.824C57.9277 51.72 56.8637 52.168 55.6317 52.168C54.3837 52.168 53.3117 51.72 52.4157 50.824C51.5197 49.912 51.0717 48.856 51.0717 47.656ZM63.0979 51.376V41.224C63.0979 41.064 63.1699 40.928 63.3139 40.816C63.4579 40.704 63.6419 40.648 63.8659 40.648C64.0739 40.648 64.2499 40.704 64.3939 40.816C64.5379 40.928 64.6099 41.064 64.6099 41.224V42.4C64.8979 41.872 65.3219 41.424 65.8819 41.056C66.4419 40.688 67.0899 40.504 67.8259 40.504H68.6659C68.8259 40.504 68.9699 40.576 69.0979 40.72C69.2259 40.864 69.2899 41.032 69.2899 41.224C69.2899 41.416 69.2259 41.584 69.0979 41.728C68.9699 41.872 68.8259 41.944 68.6659 41.944H67.8259C66.9939 41.944 66.2579 42.272 65.6179 42.928C64.9779 43.568 64.6579 44.408 64.6579 45.448V51.376C64.6579 51.536 64.5779 51.68 64.4179 51.808C64.2739 51.936 64.0899 52 63.8659 52C63.6579 52 63.4739 51.936 63.3139 51.808C63.1699 51.68 63.0979 51.536 63.0979 51.376ZM75.9679 47.008V39.568C75.9679 37.824 76.4319 36.536 77.3599 35.704C78.3039 34.872 79.5199 34.456 81.0079 34.456C82.5279 34.456 83.7279 34.848 84.6079 35.632C85.5039 36.4 85.9519 37.344 85.9519 38.464C85.9519 38.848 85.8879 39.104 85.7599 39.232C85.6479 39.36 85.4479 39.424 85.1599 39.424C84.6639 39.424 84.3999 39.224 84.3679 38.824C84.3519 38.584 84.3199 38.352 84.2719 38.128C84.2239 37.904 84.1279 37.656 83.9839 37.384C83.8399 37.096 83.6479 36.848 83.4079 36.64C83.1839 36.432 82.8639 36.264 82.4479 36.136C82.0319 35.992 81.5519 35.92 81.0079 35.92C78.7039 35.92 77.5519 37.136 77.5519 39.568V47.008C77.5519 49.456 78.7359 50.68 81.1039 50.68C81.7759 50.68 82.3359 50.592 82.7839 50.416C83.2319 50.224 83.5599 49.952 83.7679 49.6C83.9759 49.248 84.1119 48.952 84.1759 48.712C84.2559 48.456 84.3199 48.128 84.3679 47.728C84.4159 47.312 84.6799 47.104 85.1599 47.104C85.4479 47.104 85.6479 47.176 85.7599 47.32C85.8879 47.448 85.9519 47.704 85.9519 48.088C85.9519 49.224 85.4959 50.184 84.5839 50.968C83.6879 51.752 82.4719 52.144 80.9359 52.144C79.4639 52.144 78.2639 51.728 77.3359 50.896C76.4239 50.064 75.9679 48.768 75.9679 47.008ZM88.6024 51.376V34.264C88.6024 34.104 88.6744 33.968 88.8184 33.856C88.9624 33.744 89.1464 33.688 89.3704 33.688C89.5944 33.688 89.7784 33.744 89.9224 33.856C90.0824 33.968 90.1624 34.104 90.1624 34.264V51.376C90.1624 51.536 90.0824 51.68 89.9224 51.808C89.7784 51.936 89.5944 52 89.3704 52C89.1624 52 88.9784 51.936 88.8184 51.808C88.6744 51.68 88.6024 51.536 88.6024 51.376ZM92.5872 49C92.5872 47.768 93.0592 46.912 94.0032 46.432C94.9632 45.952 96.3552 45.712 98.1792 45.712H99.4032V45.136C99.4032 44.256 99.1712 43.496 98.7072 42.856C98.2432 42.2 97.5312 41.872 96.5712 41.872C95.9312 41.872 95.3472 41.992 94.8192 42.232C94.3072 42.456 94.0352 42.568 94.0032 42.568C93.8112 42.568 93.6592 42.48 93.5472 42.304C93.4352 42.128 93.3792 41.936 93.3792 41.728C93.3792 41.424 93.7232 41.144 94.4112 40.888C95.0992 40.632 95.8352 40.504 96.6192 40.504C98.1232 40.504 99.2192 40.944 99.9072 41.824C100.611 42.688 100.963 43.792 100.963 45.136V51.376C100.963 51.552 100.891 51.704 100.747 51.832C100.603 51.944 100.419 52 100.195 52C99.9872 52 99.8112 51.944 99.6672 51.832C99.5392 51.704 99.4752 51.552 99.4752 51.376V50.32C98.4032 51.552 97.1952 52.168 95.8512 52.168C94.8912 52.168 94.1072 51.904 93.4992 51.376C92.8912 50.832 92.5872 50.04 92.5872 49ZM94.1472 48.856C94.1472 49.528 94.3392 50.032 94.7232 50.368C95.1072 50.688 95.6112 50.848 96.2352 50.848C96.9872 50.848 97.6992 50.568 98.3712 50.008C99.0592 49.448 99.4032 48.888 99.4032 48.328V46.792H98.3952C97.7552 46.792 97.2112 46.816 96.7632 46.864C96.3312 46.912 95.8992 47 95.4672 47.128C95.0352 47.256 94.7072 47.464 94.4832 47.752C94.2592 48.04 94.1472 48.408 94.1472 48.856ZM103.183 50.44C103.183 50.28 103.239 50.12 103.351 49.96C103.463 49.8 103.591 49.72 103.735 49.72C103.847 49.72 104.023 49.816 104.263 50.008C104.503 50.184 104.847 50.368 105.295 50.56C105.743 50.752 106.279 50.848 106.903 50.848C107.751 50.848 108.375 50.688 108.775 50.368C109.175 50.048 109.375 49.64 109.375 49.144C109.375 48.568 109.167 48.112 108.751 47.776C108.351 47.424 107.863 47.168 107.287 47.008C106.711 46.848 106.127 46.672 105.535 46.48C104.959 46.288 104.463 45.976 104.047 45.544C103.647 45.096 103.447 44.504 103.447 43.768C103.447 42.888 103.759 42.128 104.383 41.488C105.023 40.832 105.975 40.504 107.239 40.504C108.023 40.504 108.751 40.632 109.423 40.888C110.111 41.128 110.455 41.392 110.455 41.68C110.455 41.84 110.391 42.016 110.263 42.208C110.135 42.4 109.983 42.496 109.807 42.496C109.759 42.496 109.463 42.384 108.919 42.16C108.375 41.936 107.823 41.824 107.263 41.824C106.463 41.824 105.863 42.016 105.463 42.4C105.063 42.784 104.863 43.216 104.863 43.696C104.863 44.192 105.063 44.584 105.463 44.872C105.879 45.16 106.375 45.384 106.951 45.544C107.543 45.688 108.127 45.864 108.703 46.072C109.295 46.264 109.791 46.616 110.191 47.128C110.607 47.624 110.815 48.272 110.815 49.072C110.815 50.032 110.471 50.792 109.783 51.352C109.111 51.896 108.167 52.168 106.951 52.168C105.895 52.168 104.999 51.984 104.263 51.616C103.543 51.232 103.183 50.84 103.183 50.44ZM112.417 50.44C112.417 50.28 112.473 50.12 112.585 49.96C112.697 49.8 112.825 49.72 112.969 49.72C113.081 49.72 113.257 49.816 113.497 50.008C113.737 50.184 114.081 50.368 114.529 50.56C114.977 50.752 115.513 50.848 116.137 50.848C116.985 50.848 117.609 50.688 118.009 50.368C118.409 50.048 118.609 49.64 118.609 49.144C118.609 48.568 118.401 48.112 117.985 47.776C117.585 47.424 117.097 47.168 116.521 47.008C115.945 46.848 115.361 46.672 114.769 46.48C114.193 46.288 113.697 45.976 113.281 45.544C112.881 45.096 112.681 44.504 112.681 43.768C112.681 42.888 112.993 42.128 113.617 41.488C114.257 40.832 115.209 40.504 116.473 40.504C117.257 40.504 117.985 40.632 118.657 40.888C119.345 41.128 119.689 41.392 119.689 41.68C119.689 41.84 119.625 42.016 119.497 42.208C119.369 42.4 119.217 42.496 119.041 42.496C118.993 42.496 118.697 42.384 118.153 42.16C117.609 41.936 117.057 41.824 116.497 41.824C115.697 41.824 115.097 42.016 114.697 42.4C114.297 42.784 114.097 43.216 114.097 43.696C114.097 44.192 114.297 44.584 114.697 44.872C115.113 45.16 115.609 45.384 116.185 45.544C116.777 45.688 117.361 45.864 117.937 46.072C118.529 46.264 119.025 46.616 119.425 47.128C119.841 47.624 120.049 48.272 120.049 49.072C120.049 50.032 119.705 50.792 119.017 51.352C118.345 51.896 117.401 52.168 116.185 52.168C115.129 52.168 114.233 51.984 113.497 51.616C112.777 51.232 112.417 50.84 112.417 50.44Z" fill="black"/>
</svg>
