<svg width="305" height="34" viewBox="0 0 305 34" fill="none" xmlns="http://www.w3.org/2000/svg">
<path d="M0.772 31.2922V3.44621C0.772 3.05421 0.954 2.71821 1.318 2.43821C1.71 2.15821 2.186 2.01821 2.746 2.01821H10.18C13.036 2.01821 15.318 2.77421 17.026 4.28621C18.762 5.79821 19.63 8.16421 19.63 11.3842V23.3542C19.63 26.5742 18.762 28.9402 17.026 30.4522C15.318 31.9642 13.036 32.7202 10.18 32.7202H2.746C2.186 32.7202 1.71 32.5802 1.318 32.3002C0.954 32.0202 0.772 31.6842 0.772 31.2922ZM5.224 28.7722H10.18C13.512 28.7722 15.178 26.9662 15.178 23.3542V11.3842C15.178 7.77221 13.512 5.96621 10.18 5.96621H5.224V28.7722ZM23.1262 27.5122C23.1262 25.2722 23.9662 23.7182 25.6462 22.8502C27.3262 21.9542 29.7622 21.5062 32.9542 21.5062H34.8022V20.7502C34.8022 19.5182 34.4522 18.4542 33.7522 17.5582C33.0802 16.6622 32.0442 16.2142 30.6442 16.2142C29.4402 16.2142 28.3762 16.4242 27.4522 16.8442C26.5562 17.2642 26.0662 17.4742 25.9822 17.4742C25.5062 17.4742 25.1142 17.2502 24.8062 16.8022C24.5262 16.3262 24.3862 15.8082 24.3862 15.2482C24.3862 14.5202 25.0582 13.8902 26.4022 13.3582C27.7742 12.8262 29.2162 12.5602 30.7282 12.5602C33.6122 12.5602 35.7402 13.3442 37.1122 14.9122C38.5122 16.4522 39.2122 18.3842 39.2122 20.7082V31.2502C39.2122 31.6422 39.0022 31.9922 38.5822 32.3002C38.1902 32.5802 37.6862 32.7202 37.0702 32.7202C36.5102 32.7202 36.0342 32.5802 35.6422 32.3002C35.2502 31.9922 35.0542 31.6422 35.0542 31.2502V29.7802C33.1782 31.9642 31.0642 33.0562 28.7122 33.0562C27.0882 33.0562 25.7442 32.5802 24.6802 31.6282C23.6442 30.6762 23.1262 29.3042 23.1262 27.5122ZM27.5782 26.9662C27.5782 27.8622 27.8302 28.5482 28.3342 29.0242C28.8382 29.4722 29.4962 29.6962 30.3082 29.6962C31.3722 29.6962 32.3802 29.2482 33.3322 28.3522C34.3122 27.4562 34.8022 26.5042 34.8022 25.4962V23.9422H33.7522C32.4922 23.9422 31.4562 23.9982 30.6442 24.1102C29.8602 24.2222 29.1462 24.5162 28.5022 24.9922C27.8862 25.4682 27.5782 26.1262 27.5782 26.9662ZM43.7045 31.2502V14.2402C43.7045 13.8202 43.9005 13.4842 44.2925 13.2322C44.7125 12.9522 45.2445 12.8122 45.8885 12.8122C46.4485 12.8122 46.9105 12.9522 47.2745 13.2322C47.6665 13.4842 47.8625 13.8202 47.8625 14.2402V15.7522C48.3105 14.8562 49.0245 14.1002 50.0045 13.4842C51.0125 12.8682 52.1745 12.5602 53.4905 12.5602C55.4785 12.5602 57.1865 13.3722 58.6145 14.9962C60.0705 16.6202 60.7985 18.5662 60.7985 20.8342V31.2502C60.7985 31.6982 60.5745 32.0622 60.1265 32.3422C59.7065 32.5942 59.1885 32.7202 58.5725 32.7202C58.0125 32.7202 57.5085 32.5942 57.0605 32.3422C56.6125 32.0622 56.3885 31.6982 56.3885 31.2502V20.8342C56.3885 19.7142 55.9685 18.7062 55.1285 17.8102C54.2885 16.9142 53.2945 16.4662 52.1465 16.4662C51.0825 16.4662 50.1445 16.8722 49.3325 17.6842C48.5205 18.4682 48.1145 19.5182 48.1145 20.8342V31.2502C48.1145 31.6142 47.8905 31.9502 47.4425 32.2582C46.9945 32.5662 46.4765 32.7202 45.8885 32.7202C45.2725 32.7202 44.7545 32.5662 44.3345 32.2582C43.9145 31.9502 43.7045 31.6142 43.7045 31.2502ZM64.5657 24.6982V20.9182C64.5657 18.4262 65.2937 16.4102 66.7497 14.8702C68.2057 13.3302 70.3757 12.5602 73.2597 12.5602C75.0797 12.5602 76.6057 12.8822 77.8377 13.5262C79.0697 14.1422 79.6857 14.8422 79.6857 15.6262C79.6857 16.1022 79.5037 16.5782 79.1397 17.0542C78.8037 17.5302 78.3977 17.7682 77.9217 17.7682C77.7817 17.7682 77.2777 17.5582 76.4097 17.1382C75.5697 16.6902 74.6317 16.4662 73.5957 16.4662C70.5157 16.4662 68.9757 17.9502 68.9757 20.9182V24.6982C68.9757 27.6662 70.5297 29.1502 73.6377 29.1502C74.7017 29.1502 75.6537 28.9262 76.4937 28.4782C77.3617 28.0022 77.8797 27.7642 78.0477 27.7642C78.6077 27.7642 79.0557 27.9882 79.3917 28.4362C79.7557 28.8842 79.9377 29.3602 79.9377 29.8642C79.9377 30.6482 79.2937 31.3762 78.0057 32.0482C76.7177 32.7202 75.1497 33.0562 73.3017 33.0562C70.3897 33.0562 68.2057 32.3002 66.7497 30.7882C65.2937 29.2482 64.5657 27.2182 64.5657 24.6982ZM82.1595 24.6982V20.7082C82.1595 18.4962 83.0135 16.5922 84.7215 14.9962C86.4295 13.3722 88.4875 12.5602 90.8955 12.5602C93.1915 12.5602 95.1515 13.3022 96.7755 14.7862C98.4275 16.2422 99.2535 18.0902 99.2535 20.3302C99.2535 21.1702 99.1555 21.8562 98.9595 22.3882C98.7635 22.8922 98.4555 23.2562 98.0355 23.4802C97.6155 23.6762 97.2235 23.8022 96.8595 23.8582C96.4955 23.9142 96.0195 23.9422 95.4315 23.9422H86.5695V24.9082C86.5695 26.3082 87.0735 27.4282 88.0815 28.2682C89.0895 29.0802 90.4055 29.4862 92.0295 29.4862C93.1775 29.4862 94.2555 29.2202 95.2635 28.6882C96.2995 28.1562 96.9295 27.8902 97.1535 27.8902C97.6295 27.8902 98.0355 28.1142 98.3715 28.5622C98.7075 29.0102 98.8755 29.4442 98.8755 29.8642C98.8755 30.5642 98.2035 31.2782 96.8595 32.0062C95.5155 32.7062 93.8635 33.0562 91.9035 33.0562C89.0475 33.0562 86.7095 32.2862 84.8895 30.7462C83.0695 29.2062 82.1595 27.1902 82.1595 24.6982ZM86.5695 21.2122H93.5415C94.1575 21.2122 94.5635 21.1282 94.7595 20.9602C94.9835 20.7922 95.0955 20.4562 95.0955 19.9522C95.0955 18.8322 94.6895 17.8802 93.8775 17.0962C93.0655 16.3122 92.0575 15.9202 90.8535 15.9202C89.6775 15.9202 88.6695 16.2982 87.8295 17.0542C86.9895 17.7822 86.5695 18.7202 86.5695 19.8682V21.2122ZM111.678 31.2502V3.44621C111.678 2.97021 111.888 2.62021 112.308 2.39621C112.756 2.14421 113.288 2.01821 113.904 2.01821C114.52 2.01821 115.038 2.14421 115.458 2.39621C115.906 2.62021 116.13 2.97021 116.13 3.44621V31.2502C116.13 31.6982 115.906 32.0622 115.458 32.3422C115.038 32.5942 114.52 32.7202 113.904 32.7202C113.316 32.7202 112.798 32.5942 112.35 32.3422C111.902 32.0622 111.678 31.6982 111.678 31.2502ZM121.224 31.2502V14.2402C121.224 13.8202 121.42 13.4842 121.812 13.2322C122.232 12.9522 122.764 12.8122 123.408 12.8122C123.968 12.8122 124.43 12.9522 124.794 13.2322C125.186 13.4842 125.382 13.8202 125.382 14.2402V15.7522C125.83 14.8562 126.544 14.1002 127.524 13.4842C128.532 12.8682 129.694 12.5602 131.01 12.5602C132.998 12.5602 134.706 13.3722 136.134 14.9962C137.59 16.6202 138.318 18.5662 138.318 20.8342V31.2502C138.318 31.6982 138.094 32.0622 137.646 32.3422C137.226 32.5942 136.708 32.7202 136.092 32.7202C135.532 32.7202 135.028 32.5942 134.58 32.3422C134.132 32.0622 133.908 31.6982 133.908 31.2502V20.8342C133.908 19.7142 133.488 18.7062 132.648 17.8102C131.808 16.9142 130.814 16.4662 129.666 16.4662C128.602 16.4662 127.664 16.8722 126.852 17.6842C126.04 18.4682 125.634 19.5182 125.634 20.8342V31.2502C125.634 31.6142 125.41 31.9502 124.962 32.2582C124.514 32.5662 123.996 32.7202 123.408 32.7202C122.792 32.7202 122.274 32.5662 121.854 32.2582C121.434 31.9502 121.224 31.6142 121.224 31.2502ZM142.799 31.2922V8.99021C142.799 6.75021 143.527 4.86021 144.983 3.32021C146.439 1.75221 148.189 0.968213 150.233 0.968213H152.165C152.697 0.968213 153.117 1.16421 153.425 1.55621C153.733 1.92021 153.887 2.35421 153.887 2.85821C153.887 3.36221 153.733 3.81021 153.425 4.20221C153.117 4.56621 152.697 4.74821 152.165 4.74821H151.073C149.953 4.74821 149.029 5.11221 148.301 5.84021C147.573 6.56821 147.209 7.47821 147.209 8.57021V12.8122H152.669C153.033 12.8122 153.327 12.9802 153.551 13.3162C153.775 13.6242 153.887 14.0022 153.887 14.4502C153.887 14.8982 153.775 15.2902 153.551 15.6262C153.327 15.9342 153.033 16.0882 152.669 16.0882H147.209V31.2922C147.209 31.7122 146.985 32.0622 146.537 32.3422C146.089 32.5942 145.557 32.7202 144.941 32.7202C144.325 32.7202 143.807 32.5942 143.387 32.3422C142.995 32.0622 142.799 31.7122 142.799 31.2922ZM155.207 24.6982V20.8342C155.207 18.6222 156.061 16.6902 157.769 15.0382C159.477 13.3862 161.521 12.5602 163.901 12.5602C166.225 12.5602 168.255 13.3862 169.991 15.0382C171.727 16.6622 172.595 18.5942 172.595 20.8342V24.6982C172.595 26.8822 171.713 28.8282 169.949 30.5362C168.213 32.2162 166.197 33.0562 163.901 33.0562C161.577 33.0562 159.547 32.2162 157.811 30.5362C156.075 28.8562 155.207 26.9102 155.207 24.6982ZM159.617 24.6982C159.617 25.8462 160.037 26.8822 160.877 27.8062C161.717 28.7022 162.725 29.1502 163.901 29.1502C165.049 29.1502 166.043 28.7022 166.883 27.8062C167.751 26.8822 168.185 25.8462 168.185 24.6982V20.8342C168.185 19.7142 167.751 18.7062 166.883 17.8102C166.043 16.9142 165.049 16.4662 163.901 16.4662C162.725 16.4662 161.717 16.9142 160.877 17.8102C160.037 18.7062 159.617 19.7142 159.617 20.8342V24.6982ZM176.472 31.2502V14.2402C176.472 13.8202 176.668 13.4842 177.06 13.2322C177.48 12.9522 177.998 12.8122 178.614 12.8122C179.174 12.8122 179.65 12.9522 180.042 13.2322C180.434 13.4842 180.63 13.8202 180.63 14.2402V16.0882C181.106 15.1082 181.82 14.2822 182.772 13.6102C183.752 12.9102 184.816 12.5602 185.964 12.5602H187.308C187.756 12.5602 188.148 12.7562 188.484 13.1482C188.82 13.5122 188.988 13.9602 188.988 14.4922C188.988 15.0242 188.82 15.4862 188.484 15.8782C188.148 16.2702 187.756 16.4662 187.308 16.4662H185.964C184.62 16.4662 183.43 17.0402 182.394 18.1882C181.386 19.3362 180.882 20.8202 180.882 22.6402V31.2502C180.882 31.6142 180.658 31.9502 180.21 32.2582C179.762 32.5662 179.23 32.7202 178.614 32.7202C177.998 32.7202 177.48 32.5662 177.06 32.2582C176.668 31.9502 176.472 31.6142 176.472 31.2502ZM191.607 31.2502V14.2402C191.607 13.8202 191.803 13.4842 192.195 13.2322C192.615 12.9522 193.147 12.8122 193.791 12.8122C194.323 12.8122 194.785 12.9522 195.177 13.2322C195.569 13.4842 195.765 13.8202 195.765 14.2402V15.7522C196.969 13.6242 198.831 12.5602 201.351 12.5602C202.583 12.5602 203.675 12.9522 204.627 13.7362C205.607 14.4922 206.349 15.5002 206.853 16.7602C207.553 15.3882 208.463 14.3522 209.583 13.6522C210.731 12.9242 211.935 12.5602 213.195 12.5602C215.183 12.5602 216.891 13.3162 218.319 14.8282C219.775 16.3122 220.503 18.3142 220.503 20.8342V31.2502C220.503 31.6142 220.279 31.9502 219.831 32.2582C219.383 32.5662 218.865 32.7202 218.277 32.7202C217.717 32.7202 217.213 32.5662 216.765 32.2582C216.317 31.9502 216.093 31.6142 216.093 31.2502V20.8342C216.093 19.4622 215.701 18.3842 214.917 17.6002C214.133 16.8162 213.223 16.4242 212.187 16.4242C211.151 16.4242 210.227 16.8162 209.415 17.6002C208.631 18.3842 208.239 19.4342 208.239 20.7502V31.2922C208.239 31.7682 208.015 32.1322 207.567 32.3842C207.147 32.6082 206.629 32.7202 206.013 32.7202C205.453 32.7202 204.949 32.6082 204.501 32.3842C204.053 32.1322 203.829 31.7682 203.829 31.2922V20.7922C203.829 19.5322 203.437 18.4962 202.653 17.6842C201.897 16.8722 200.987 16.4662 199.923 16.4662C198.859 16.4662 197.935 16.8582 197.151 17.6422C196.395 18.4262 196.017 19.4902 196.017 20.8342V31.2502C196.017 31.6142 195.793 31.9502 195.345 32.2582C194.897 32.5662 194.379 32.7202 193.791 32.7202C193.175 32.7202 192.657 32.5662 192.237 32.2582C191.817 31.9502 191.607 31.6142 191.607 31.2502ZM223.693 27.5122C223.693 25.2722 224.533 23.7182 226.213 22.8502C227.893 21.9542 230.329 21.5062 233.521 21.5062H235.369V20.7502C235.369 19.5182 235.019 18.4542 234.319 17.5582C233.647 16.6622 232.611 16.2142 231.211 16.2142C230.007 16.2142 228.943 16.4242 228.019 16.8442C227.123 17.2642 226.633 17.4742 226.549 17.4742C226.073 17.4742 225.681 17.2502 225.373 16.8022C225.093 16.3262 224.953 15.8082 224.953 15.2482C224.953 14.5202 225.625 13.8902 226.969 13.3582C228.341 12.8262 229.783 12.5602 231.295 12.5602C234.179 12.5602 236.307 13.3442 237.679 14.9122C239.079 16.4522 239.779 18.3842 239.779 20.7082V31.2502C239.779 31.6422 239.569 31.9922 239.149 32.3002C238.757 32.5802 238.253 32.7202 237.637 32.7202C237.077 32.7202 236.601 32.5802 236.209 32.3002C235.817 31.9922 235.621 31.6422 235.621 31.2502V29.7802C233.745 31.9642 231.631 33.0562 229.279 33.0562C227.655 33.0562 226.311 32.5802 225.247 31.6282C224.211 30.6762 223.693 29.3042 223.693 27.5122ZM228.145 26.9662C228.145 27.8622 228.397 28.5482 228.901 29.0242C229.405 29.4722 230.063 29.6962 230.875 29.6962C231.939 29.6962 232.947 29.2482 233.899 28.3522C234.879 27.4562 235.369 26.5042 235.369 25.4962V23.9422H234.319C233.059 23.9422 232.023 23.9982 231.211 24.1102C230.427 24.2222 229.713 24.5162 229.069 24.9922C228.453 25.4682 228.145 26.1262 228.145 26.9662ZM244.229 26.1682V5.12621C244.229 4.73421 244.453 4.39821 244.901 4.11821C245.349 3.83821 245.853 3.69821 246.413 3.69821C246.973 3.69821 247.477 3.83821 247.925 4.11821C248.401 4.39821 248.639 4.73421 248.639 5.12621V12.8122H253.763C254.127 12.8122 254.421 12.9802 254.645 13.3162C254.869 13.6242 254.981 14.0022 254.981 14.4502C254.981 14.8982 254.869 15.2902 254.645 15.6262C254.421 15.9342 254.127 16.0882 253.763 16.0882H248.639V26.1682C248.639 27.1762 248.849 27.8902 249.269 28.3102C249.717 28.7302 250.487 28.9402 251.579 28.9402H253.049C253.637 28.9402 254.099 29.1222 254.435 29.4862C254.771 29.8502 254.939 30.2982 254.939 30.8302C254.939 31.3622 254.771 31.8102 254.435 32.1742C254.099 32.5382 253.637 32.7202 253.049 32.7202H251.579C246.679 32.7202 244.229 30.5362 244.229 26.1682ZM257.715 5.50421C257.715 4.86021 257.967 4.31421 258.471 3.86621C258.975 3.41821 259.577 3.19421 260.277 3.19421C260.977 3.19421 261.579 3.41821 262.083 3.86621C262.587 4.31421 262.839 4.86021 262.839 5.50421C262.839 6.12021 262.587 6.66621 262.083 7.14221C261.579 7.59021 260.977 7.81421 260.277 7.81421C259.577 7.81421 258.975 7.59021 258.471 7.14221C257.967 6.66621 257.715 6.12021 257.715 5.50421ZM258.093 31.2502V14.2402C258.093 13.8202 258.289 13.4842 258.681 13.2322C259.101 12.9522 259.633 12.8122 260.277 12.8122C260.921 12.8122 261.453 12.9522 261.873 13.2322C262.293 13.4842 262.503 13.8202 262.503 14.2402V31.2502C262.503 31.6142 262.279 31.9502 261.831 32.2582C261.411 32.5662 260.893 32.7202 260.277 32.7202C259.661 32.7202 259.143 32.5662 258.723 32.2582C258.303 31.9502 258.093 31.6142 258.093 31.2502ZM266.319 24.6982V20.8342C266.319 18.6222 267.173 16.6902 268.881 15.0382C270.589 13.3862 272.633 12.5602 275.013 12.5602C277.337 12.5602 279.367 13.3862 281.103 15.0382C282.839 16.6622 283.707 18.5942 283.707 20.8342V24.6982C283.707 26.8822 282.825 28.8282 281.061 30.5362C279.325 32.2162 277.309 33.0562 275.013 33.0562C272.689 33.0562 270.659 32.2162 268.923 30.5362C267.187 28.8562 266.319 26.9102 266.319 24.6982ZM270.729 24.6982C270.729 25.8462 271.149 26.8822 271.989 27.8062C272.829 28.7022 273.837 29.1502 275.013 29.1502C276.161 29.1502 277.155 28.7022 277.995 27.8062C278.863 26.8822 279.297 25.8462 279.297 24.6982V20.8342C279.297 19.7142 278.863 18.7062 277.995 17.8102C277.155 16.9142 276.161 16.4662 275.013 16.4662C273.837 16.4662 272.829 16.9142 271.989 17.8102C271.149 18.7062 270.729 19.7142 270.729 20.8342V24.6982ZM287.583 31.2502V14.2402C287.583 13.8202 287.779 13.4842 288.171 13.2322C288.591 12.9522 289.123 12.8122 289.767 12.8122C290.327 12.8122 290.789 12.9522 291.153 13.2322C291.545 13.4842 291.741 13.8202 291.741 14.2402V15.7522C292.189 14.8562 292.903 14.1002 293.883 13.4842C294.891 12.8682 296.053 12.5602 297.369 12.5602C299.357 12.5602 301.065 13.3722 302.493 14.9962C303.949 16.6202 304.677 18.5662 304.677 20.8342V31.2502C304.677 31.6982 304.453 32.0622 304.005 32.3422C303.585 32.5942 303.067 32.7202 302.451 32.7202C301.891 32.7202 301.387 32.5942 300.939 32.3422C300.491 32.0622 300.267 31.6982 300.267 31.2502V20.8342C300.267 19.7142 299.847 18.7062 299.007 17.8102C298.167 16.9142 297.173 16.4662 296.025 16.4662C294.961 16.4662 294.023 16.8722 293.211 17.6842C292.399 18.4682 291.993 19.5182 291.993 20.8342V31.2502C291.993 31.6142 291.769 31.9502 291.321 32.2582C290.873 32.5662 290.355 32.7202 289.767 32.7202C289.151 32.7202 288.633 32.5662 288.213 32.2582C287.793 31.9502 287.583 31.6142 287.583 31.2502Z" fill="#982649"/>
</svg>
