<svg width="124" height="14" viewBox="0 0 124 14" fill="none" xmlns="http://www.w3.org/2000/svg">
<path d="M0.122 12.422V1.151C0.122 0.992333 0.195667 0.856333 0.343 0.743C0.501667 0.629667 0.694333 0.573 0.921 0.573H3.93C5.086 0.573 6.00967 0.879 6.701 1.491C7.40367 2.103 7.755 3.06067 7.755 4.364V9.209C7.755 10.5123 7.40367 11.47 6.701 12.082C6.00967 12.694 5.086 13 3.93 13H0.921C0.694333 13 0.501667 12.9433 0.343 12.83C0.195667 12.7167 0.122 12.5807 0.122 12.422ZM1.924 11.402H3.93C5.27867 11.402 5.953 10.671 5.953 9.209V4.364C5.953 2.902 5.27867 2.171 3.93 2.171H1.924V11.402ZM9.17012 10.892C9.17012 9.98533 9.51012 9.35633 10.1901 9.005C10.8701 8.64233 11.8561 8.461 13.1481 8.461H13.8961V8.155C13.8961 7.65633 13.7545 7.22567 13.4711 6.863C13.1991 6.50033 12.7798 6.319 12.2131 6.319C11.7258 6.319 11.2951 6.404 10.9211 6.574C10.5585 6.744 10.3601 6.829 10.3261 6.829C10.1335 6.829 9.97478 6.73833 9.85012 6.557C9.73678 6.36433 9.68012 6.15467 9.68012 5.928C9.68012 5.63333 9.95212 5.37833 10.4961 5.163C11.0515 4.94767 11.6351 4.84 12.2471 4.84C13.4145 4.84 14.2758 5.15733 14.8311 5.792C15.3978 6.41533 15.6811 7.19733 15.6811 8.138V12.405C15.6811 12.5637 15.5961 12.7053 15.4261 12.83C15.2675 12.9433 15.0635 13 14.8141 13C14.5875 13 14.3948 12.9433 14.2361 12.83C14.0775 12.7053 13.9981 12.5637 13.9981 12.405V11.81C13.2388 12.694 12.3831 13.136 11.4311 13.136C10.7738 13.136 10.2298 12.9433 9.79912 12.558C9.37978 12.1727 9.17012 11.6173 9.17012 10.892ZM10.9721 10.671C10.9721 11.0337 11.0741 11.3113 11.2781 11.504C11.4821 11.6853 11.7485 11.776 12.0771 11.776C12.5078 11.776 12.9158 11.5947 13.3011 11.232C13.6978 10.8693 13.8961 10.484 13.8961 10.076V9.447H13.4711C12.9611 9.447 12.5418 9.46967 12.2131 9.515C11.8958 9.56033 11.6068 9.67933 11.3461 9.872C11.0968 10.0647 10.9721 10.331 10.9721 10.671ZM17.4995 12.405V5.52C17.4995 5.35 17.5788 5.214 17.7375 5.112C17.9075 4.99867 18.1228 4.942 18.3835 4.942C18.6101 4.942 18.7971 4.99867 18.9445 5.112C19.1031 5.214 19.1825 5.35 19.1825 5.52V6.132C19.3638 5.76933 19.6528 5.46333 20.0495 5.214C20.4575 4.96467 20.9278 4.84 21.4605 4.84C22.2651 4.84 22.9565 5.16867 23.5345 5.826C24.1238 6.48333 24.4185 7.271 24.4185 8.189V12.405C24.4185 12.5863 24.3278 12.7337 24.1465 12.847C23.9765 12.949 23.7668 13 23.5175 13C23.2908 13 23.0868 12.949 22.9055 12.847C22.7241 12.7337 22.6335 12.5863 22.6335 12.405V8.189C22.6335 7.73567 22.4635 7.32767 22.1235 6.965C21.7835 6.60233 21.3811 6.421 20.9165 6.421C20.4858 6.421 20.1061 6.58533 19.7775 6.914C19.4488 7.23133 19.2845 7.65633 19.2845 8.189V12.405C19.2845 12.5523 19.1938 12.6883 19.0125 12.813C18.8311 12.9377 18.6215 13 18.3835 13C18.1341 13 17.9245 12.9377 17.7545 12.813C17.5845 12.6883 17.4995 12.5523 17.4995 12.405ZM25.9433 9.753V8.223C25.9433 7.21433 26.2379 6.39833 26.8273 5.775C27.4166 5.15167 28.2949 4.84 29.4623 4.84C30.1989 4.84 30.8166 4.97033 31.3153 5.231C31.8139 5.48033 32.0633 5.76367 32.0633 6.081C32.0633 6.27367 31.9896 6.46633 31.8423 6.659C31.7063 6.85167 31.5419 6.948 31.3493 6.948C31.2926 6.948 31.0886 6.863 30.7373 6.693C30.3973 6.51167 30.0176 6.421 29.5983 6.421C28.3516 6.421 27.7283 7.02167 27.7283 8.223V9.753C27.7283 10.9543 28.3573 11.555 29.6153 11.555C30.0459 11.555 30.4313 11.4643 30.7713 11.283C31.1226 11.0903 31.3323 10.994 31.4003 10.994C31.6269 10.994 31.8083 11.0847 31.9443 11.266C32.0916 11.4473 32.1653 11.64 32.1653 11.844C32.1653 12.1613 31.9046 12.456 31.3833 12.728C30.8619 13 30.2273 13.136 29.4793 13.136C28.3006 13.136 27.4166 12.83 26.8273 12.218C26.2379 11.5947 25.9433 10.773 25.9433 9.753ZM33.0645 9.753V8.138C33.0645 7.24267 33.4102 6.472 34.1015 5.826C34.7929 5.16867 35.6259 4.84 36.6005 4.84C37.5299 4.84 38.3232 5.14033 38.9805 5.741C39.6492 6.33033 39.9835 7.07833 39.9835 7.985C39.9835 8.325 39.9439 8.60267 39.8645 8.818C39.7852 9.022 39.6605 9.16933 39.4905 9.26C39.3205 9.33933 39.1619 9.39033 39.0145 9.413C38.8672 9.43567 38.6745 9.447 38.4365 9.447H34.8495V9.838C34.8495 10.4047 35.0535 10.858 35.4615 11.198C35.8695 11.5267 36.4022 11.691 37.0595 11.691C37.5242 11.691 37.9605 11.5833 38.3685 11.368C38.7879 11.1527 39.0429 11.045 39.1335 11.045C39.3262 11.045 39.4905 11.1357 39.6265 11.317C39.7625 11.4983 39.8305 11.674 39.8305 11.844C39.8305 12.1273 39.5585 12.4163 39.0145 12.711C38.4705 12.9943 37.8019 13.136 37.0085 13.136C35.8525 13.136 34.9062 12.8243 34.1695 12.201C33.4329 11.5777 33.0645 10.7617 33.0645 9.753ZM34.8495 8.342H37.6715C37.9209 8.342 38.0852 8.308 38.1645 8.24C38.2552 8.172 38.3005 8.036 38.3005 7.832C38.3005 7.37867 38.1362 6.99333 37.8075 6.676C37.4789 6.35867 37.0709 6.2 36.5835 6.2C36.1075 6.2 35.6995 6.353 35.3595 6.659C35.0195 6.95367 34.8495 7.33333 34.8495 7.798V8.342ZM45.0126 12.405V1.151C45.0126 0.958333 45.0976 0.816666 45.2676 0.725999C45.449 0.624 45.6643 0.573 45.9136 0.573C46.163 0.573 46.3726 0.624 46.5426 0.725999C46.724 0.816666 46.8146 0.958333 46.8146 1.151V12.405C46.8146 12.5863 46.724 12.7337 46.5426 12.847C46.3726 12.949 46.163 13 45.9136 13C45.6756 13 45.466 12.949 45.2846 12.847C45.1033 12.7337 45.0126 12.5863 45.0126 12.405ZM48.8764 12.405V5.52C48.8764 5.35 48.9557 5.214 49.1144 5.112C49.2844 4.99867 49.4997 4.942 49.7604 4.942C49.9871 4.942 50.1741 4.99867 50.3214 5.112C50.4801 5.214 50.5594 5.35 50.5594 5.52V6.132C50.7407 5.76933 51.0297 5.46333 51.4264 5.214C51.8344 4.96467 52.3047 4.84 52.8374 4.84C53.6421 4.84 54.3334 5.16867 54.9114 5.826C55.5007 6.48333 55.7954 7.271 55.7954 8.189V12.405C55.7954 12.5863 55.7047 12.7337 55.5234 12.847C55.3534 12.949 55.1437 13 54.8944 13C54.6677 13 54.4637 12.949 54.2824 12.847C54.1011 12.7337 54.0104 12.5863 54.0104 12.405V8.189C54.0104 7.73567 53.8404 7.32767 53.5004 6.965C53.1604 6.60233 52.7581 6.421 52.2934 6.421C51.8627 6.421 51.4831 6.58533 51.1544 6.914C50.8257 7.23133 50.6614 7.65633 50.6614 8.189V12.405C50.6614 12.5523 50.5707 12.6883 50.3894 12.813C50.2081 12.9377 49.9984 13 49.7604 13C49.5111 13 49.3014 12.9377 49.1314 12.813C48.9614 12.6883 48.8764 12.5523 48.8764 12.405ZM57.6092 12.422V3.395C57.6092 2.48833 57.9039 1.72333 58.4932 1.1C59.0826 0.465333 59.7909 0.147999 60.6182 0.147999H61.4002C61.6156 0.147999 61.7856 0.227333 61.9102 0.385999C62.0349 0.533333 62.0972 0.708999 62.0972 0.913C62.0972 1.117 62.0349 1.29833 61.9102 1.457C61.7856 1.60433 61.6156 1.678 61.4002 1.678H60.9582C60.5049 1.678 60.1309 1.82533 59.8362 2.12C59.5416 2.41467 59.3942 2.783 59.3942 3.225V4.942H61.6042C61.7516 4.942 61.8706 5.01 61.9612 5.146C62.0519 5.27067 62.0972 5.42367 62.0972 5.605C62.0972 5.78633 62.0519 5.945 61.9612 6.081C61.8706 6.20567 61.7516 6.268 61.6042 6.268H59.3942V12.422C59.3942 12.592 59.3036 12.7337 59.1222 12.847C58.9409 12.949 58.7256 13 58.4762 13C58.2269 13 58.0172 12.949 57.8472 12.847C57.6886 12.7337 57.6092 12.592 57.6092 12.422ZM62.6315 9.753V8.189C62.6315 7.29367 62.9772 6.51167 63.6685 5.843C64.3599 5.17433 65.1872 4.84 66.1505 4.84C67.0912 4.84 67.9129 5.17433 68.6155 5.843C69.3182 6.50033 69.6695 7.28233 69.6695 8.189V9.753C69.6695 10.637 69.3125 11.4247 68.5985 12.116C67.8959 12.796 67.0799 13.136 66.1505 13.136C65.2099 13.136 64.3882 12.796 63.6855 12.116C62.9829 11.436 62.6315 10.6483 62.6315 9.753ZM64.4165 9.753C64.4165 10.2177 64.5865 10.637 64.9265 11.011C65.2665 11.3737 65.6745 11.555 66.1505 11.555C66.6152 11.555 67.0175 11.3737 67.3575 11.011C67.7089 10.637 67.8845 10.2177 67.8845 9.753V8.189C67.8845 7.73567 67.7089 7.32767 67.3575 6.965C67.0175 6.60233 66.6152 6.421 66.1505 6.421C65.6745 6.421 65.2665 6.60233 64.9265 6.965C64.5865 7.32767 64.4165 7.73567 64.4165 8.189V9.753ZM71.2387 12.405V5.52C71.2387 5.35 71.318 5.214 71.4767 5.112C71.6467 4.99867 71.8564 4.942 72.1057 4.942C72.3324 4.942 72.525 4.99867 72.6837 5.112C72.8424 5.214 72.9217 5.35 72.9217 5.52V6.268C73.1144 5.87133 73.4034 5.537 73.7887 5.265C74.1854 4.98167 74.616 4.84 75.0807 4.84H75.6247C75.806 4.84 75.9647 4.91933 76.1007 5.078C76.2367 5.22533 76.3047 5.40667 76.3047 5.622C76.3047 5.83733 76.2367 6.02433 76.1007 6.183C75.9647 6.34167 75.806 6.421 75.6247 6.421H75.0807C74.5367 6.421 74.055 6.65333 73.6357 7.118C73.2277 7.58267 73.0237 8.18333 73.0237 8.92V12.405C73.0237 12.5523 72.933 12.6883 72.7517 12.813C72.5704 12.9377 72.355 13 72.1057 13C71.8564 13 71.6467 12.9377 71.4767 12.813C71.318 12.6883 71.2387 12.5523 71.2387 12.405ZM77.3647 12.405V5.52C77.3647 5.35 77.444 5.214 77.6027 5.112C77.7727 4.99867 77.988 4.942 78.2487 4.942C78.464 4.942 78.651 4.99867 78.8097 5.112C78.9684 5.214 79.0477 5.35 79.0477 5.52V6.132C79.535 5.27067 80.2887 4.84 81.3087 4.84C81.8074 4.84 82.2494 4.99867 82.6347 5.316C83.0314 5.622 83.3317 6.03 83.5357 6.54C83.819 5.98467 84.1874 5.56533 84.6407 5.282C85.1054 4.98733 85.5927 4.84 86.1027 4.84C86.9074 4.84 87.5987 5.146 88.1767 5.758C88.766 6.35867 89.0607 7.169 89.0607 8.189V12.405C89.0607 12.5523 88.97 12.6883 88.7887 12.813C88.6074 12.9377 88.3977 13 88.1597 13C87.933 13 87.729 12.9377 87.5477 12.813C87.3664 12.6883 87.2757 12.5523 87.2757 12.405V8.189C87.2757 7.63367 87.117 7.19733 86.7997 6.88C86.4824 6.56267 86.114 6.404 85.6947 6.404C85.2754 6.404 84.9014 6.56267 84.5727 6.88C84.2554 7.19733 84.0967 7.62233 84.0967 8.155V12.422C84.0967 12.6147 84.006 12.762 83.8247 12.864C83.6547 12.9547 83.445 13 83.1957 13C82.969 13 82.765 12.9547 82.5837 12.864C82.4024 12.762 82.3117 12.6147 82.3117 12.422V8.172C82.3117 7.662 82.153 7.24267 81.8357 6.914C81.5297 6.58533 81.1614 6.421 80.7307 6.421C80.3 6.421 79.926 6.57967 79.6087 6.897C79.3027 7.21433 79.1497 7.645 79.1497 8.189V12.405C79.1497 12.5523 79.059 12.6883 78.8777 12.813C78.6964 12.9377 78.4867 13 78.2487 13C77.9994 13 77.7897 12.9377 77.6197 12.813C77.4497 12.6883 77.3647 12.5523 77.3647 12.405ZM90.3518 10.892C90.3518 9.98533 90.6918 9.35633 91.3718 9.005C92.0518 8.64233 93.0378 8.461 94.3298 8.461H95.0778V8.155C95.0778 7.65633 94.9361 7.22567 94.6528 6.863C94.3808 6.50033 93.9614 6.319 93.3948 6.319C92.9074 6.319 92.4768 6.404 92.1028 6.574C91.7401 6.744 91.5418 6.829 91.5078 6.829C91.3151 6.829 91.1564 6.73833 91.0318 6.557C90.9184 6.36433 90.8618 6.15467 90.8618 5.928C90.8618 5.63333 91.1338 5.37833 91.6778 5.163C92.2331 4.94767 92.8168 4.84 93.4288 4.84C94.5961 4.84 95.4574 5.15733 96.0128 5.792C96.5794 6.41533 96.8628 7.19733 96.8628 8.138V12.405C96.8628 12.5637 96.7778 12.7053 96.6078 12.83C96.4491 12.9433 96.2451 13 95.9958 13C95.7691 13 95.5764 12.9433 95.4178 12.83C95.2591 12.7053 95.1798 12.5637 95.1798 12.405V11.81C94.4204 12.694 93.5648 13.136 92.6128 13.136C91.9554 13.136 91.4114 12.9433 90.9808 12.558C90.5614 12.1727 90.3518 11.6173 90.3518 10.892ZM92.1538 10.671C92.1538 11.0337 92.2558 11.3113 92.4598 11.504C92.6638 11.6853 92.9301 11.776 93.2588 11.776C93.6894 11.776 94.0974 11.5947 94.4828 11.232C94.8794 10.8693 95.0778 10.484 95.0778 10.076V9.447H94.6528C94.1428 9.447 93.7234 9.46967 93.3948 9.515C93.0774 9.56033 92.7884 9.67933 92.5278 9.872C92.2784 10.0647 92.1538 10.331 92.1538 10.671ZM98.6641 10.348V1.831C98.6641 1.67233 98.7548 1.53633 98.9361 1.423C99.1174 1.30967 99.3214 1.253 99.5481 1.253C99.7748 1.253 99.9788 1.30967 100.16 1.423C100.353 1.53633 100.449 1.67233 100.449 1.831V4.942H102.523C102.67 4.942 102.789 5.01 102.88 5.146C102.971 5.27067 103.016 5.42367 103.016 5.605C103.016 5.78633 102.971 5.945 102.88 6.081C102.789 6.20567 102.67 6.268 102.523 6.268H100.449V10.348C100.449 10.756 100.534 11.045 100.704 11.215C100.885 11.385 101.197 11.47 101.639 11.47H102.234C102.472 11.47 102.659 11.5437 102.795 11.691C102.931 11.8383 102.999 12.0197 102.999 12.235C102.999 12.4503 102.931 12.6317 102.795 12.779C102.659 12.9263 102.472 13 102.234 13H101.639C99.6558 13 98.6641 12.116 98.6641 10.348ZM104.123 1.984C104.123 1.72333 104.225 1.50233 104.429 1.321C104.633 1.13967 104.876 1.049 105.16 1.049C105.443 1.049 105.687 1.13967 105.891 1.321C106.095 1.50233 106.197 1.72333 106.197 1.984C106.197 2.23333 106.095 2.45433 105.891 2.647C105.687 2.82833 105.443 2.919 105.16 2.919C104.876 2.919 104.633 2.82833 104.429 2.647C104.225 2.45433 104.123 2.23333 104.123 1.984ZM104.276 12.405V5.52C104.276 5.35 104.355 5.214 104.514 5.112C104.684 4.99867 104.899 4.942 105.16 4.942C105.42 4.942 105.636 4.99867 105.806 5.112C105.976 5.214 106.061 5.35 106.061 5.52V12.405C106.061 12.5523 105.97 12.6883 105.789 12.813C105.619 12.9377 105.409 13 105.16 13C104.91 13 104.701 12.9377 104.531 12.813C104.361 12.6883 104.276 12.5523 104.276 12.405ZM107.605 9.753V8.189C107.605 7.29367 107.951 6.51167 108.642 5.843C109.333 5.17433 110.161 4.84 111.124 4.84C112.065 4.84 112.886 5.17433 113.589 5.843C114.292 6.50033 114.643 7.28233 114.643 8.189V9.753C114.643 10.637 114.286 11.4247 113.572 12.116C112.869 12.796 112.053 13.136 111.124 13.136C110.183 13.136 109.362 12.796 108.659 12.116C107.956 11.436 107.605 10.6483 107.605 9.753ZM109.39 9.753C109.39 10.2177 109.56 10.637 109.9 11.011C110.24 11.3737 110.648 11.555 111.124 11.555C111.589 11.555 111.991 11.3737 112.331 11.011C112.682 10.637 112.858 10.2177 112.858 9.753V8.189C112.858 7.73567 112.682 7.32767 112.331 6.965C111.991 6.60233 111.589 6.421 111.124 6.421C110.648 6.421 110.24 6.60233 109.9 6.965C109.56 7.32767 109.39 7.73567 109.39 8.189V9.753ZM116.212 12.405V5.52C116.212 5.35 116.292 5.214 116.45 5.112C116.62 4.99867 116.836 4.942 117.096 4.942C117.323 4.942 117.51 4.99867 117.657 5.112C117.816 5.214 117.895 5.35 117.895 5.52V6.132C118.077 5.76933 118.366 5.46333 118.762 5.214C119.17 4.96467 119.641 4.84 120.173 4.84C120.978 4.84 121.669 5.16867 122.247 5.826C122.837 6.48333 123.131 7.271 123.131 8.189V12.405C123.131 12.5863 123.041 12.7337 122.859 12.847C122.689 12.949 122.48 13 122.23 13C122.004 13 121.8 12.949 121.618 12.847C121.437 12.7337 121.346 12.5863 121.346 12.405V8.189C121.346 7.73567 121.176 7.32767 120.836 6.965C120.496 6.60233 120.094 6.421 119.629 6.421C119.199 6.421 118.819 6.58533 118.49 6.914C118.162 7.23133 117.997 7.65633 117.997 8.189V12.405C117.997 12.5523 117.907 12.6883 117.725 12.813C117.544 12.9377 117.334 13 117.096 13C116.847 13 116.637 12.9377 116.467 12.813C116.297 12.6883 116.212 12.5523 116.212 12.405Z" fill="#982649"/>
</svg>
