<svg width="234" height="64" viewBox="0 0 234 64" fill="none" xmlns="http://www.w3.org/2000/svg">
<path d="M27.5753 30.1V9.97C27.5753 9.69 27.6853 9.47 27.9053 9.31C28.1453 9.15 28.4153 9.07 28.7153 9.07H39.3953C39.6753 9.07 39.8853 9.18 40.0253 9.4C40.1853 9.62 40.2653 9.88 40.2653 10.18C40.2653 10.5 40.1853 10.78 40.0253 11.02C39.8653 11.24 39.6553 11.35 39.3953 11.35H30.0953V18.97H34.7753C35.0353 18.97 35.2453 19.08 35.4053 19.3C35.5653 19.5 35.6453 19.75 35.6453 20.05C35.6453 20.31 35.5653 20.55 35.4053 20.77C35.2653 20.97 35.0553 21.07 34.7753 21.07H30.0953V28.72H39.3953C39.6553 28.72 39.8653 28.84 40.0253 29.08C40.1853 29.3 40.2653 29.57 40.2653 29.89C40.2653 30.19 40.1853 30.45 40.0253 30.67C39.8853 30.89 39.6753 31 39.3953 31H28.7153C28.4153 31 28.1453 30.92 27.9053 30.76C27.6853 30.6 27.5753 30.38 27.5753 30.1ZM41.2108 23.8C41.2108 23.5 41.2908 23.25 41.4508 23.05C41.6108 22.83 41.8208 22.72 42.0808 22.72H49.8808C50.1208 22.72 50.3308 22.83 50.5108 23.05C50.6908 23.25 50.7808 23.5 50.7808 23.8C50.7808 24.1 50.6908 24.35 50.5108 24.55C50.3308 24.75 50.1208 24.85 49.8808 24.85H42.0808C41.5008 24.85 41.2108 24.5 41.2108 23.8ZM53.9634 30.1V17.65C53.9634 17.39 54.0734 17.18 54.2934 17.02C54.5334 16.86 54.8334 16.78 55.1934 16.78C55.5134 16.78 55.7834 16.86 56.0034 17.02C56.2234 17.18 56.3334 17.39 56.3334 17.65V18.88C56.6934 18.22 57.2134 17.68 57.8934 17.26C58.5934 16.82 59.4034 16.6 60.3234 16.6C61.2434 16.6 62.0634 16.88 62.7834 17.44C63.5234 17.98 64.0734 18.7 64.4334 19.6C64.9334 18.62 65.5934 17.88 66.4134 17.38C67.2334 16.86 68.0934 16.6 68.9934 16.6C70.3934 16.6 71.5934 17.12 72.5934 18.16C73.6134 19.2 74.1234 20.6 74.1234 22.36V30.1C74.1234 30.32 73.9934 30.53 73.7334 30.73C73.4934 30.91 73.2034 31 72.8634 31C72.5434 31 72.2534 30.91 71.9934 30.73C71.7534 30.53 71.6334 30.32 71.6334 30.1V22.36C71.6334 21.28 71.3134 20.43 70.6734 19.81C70.0534 19.17 69.3234 18.85 68.4834 18.85C67.6434 18.85 66.8934 19.17 66.2334 19.81C65.5934 20.45 65.2734 21.27 65.2734 22.27V30.13C65.2734 30.41 65.1434 30.63 64.8834 30.79C64.6434 30.93 64.3534 31 64.0134 31C63.6934 31 63.4034 30.93 63.1434 30.79C62.9034 30.63 62.7834 30.41 62.7834 30.13V22.3C62.7834 21.3 62.4734 20.48 61.8534 19.84C61.2534 19.18 60.5234 18.85 59.6634 18.85C58.8034 18.85 58.0534 19.17 57.4134 19.81C56.7734 20.45 56.4534 21.3 56.4534 22.36V30.1C56.4534 30.32 56.3234 30.53 56.0634 30.73C55.8234 30.91 55.5334 31 55.1934 31C54.8534 31 54.5634 30.91 54.3234 30.73C54.0834 30.55 53.9634 30.34 53.9634 30.1ZM76.6173 27.25C76.6173 25.69 77.2173 24.61 78.4173 24.01C79.6173 23.39 81.3573 23.08 83.6373 23.08H85.0773V22.45C85.0773 21.45 84.7973 20.58 84.2373 19.84C83.6973 19.1 82.8773 18.73 81.7773 18.73C80.9373 18.73 80.1973 18.88 79.5573 19.18C78.9173 19.46 78.5673 19.6 78.5073 19.6C78.2273 19.6 77.9973 19.47 77.8173 19.21C77.6573 18.93 77.5773 18.64 77.5773 18.34C77.5773 17.88 78.0273 17.48 78.9273 17.14C79.8473 16.78 80.8173 16.6 81.8373 16.6C83.7973 16.6 85.2373 17.16 86.1573 18.28C87.0973 19.38 87.5673 20.76 87.5673 22.42V30.1C87.5673 30.36 87.4473 30.58 87.2073 30.76C86.9873 30.92 86.6973 31 86.3373 31C86.0173 31 85.7473 30.92 85.5273 30.76C85.3073 30.58 85.1973 30.36 85.1973 30.1V28.9C83.8373 30.46 82.3273 31.24 80.6673 31.24C79.4673 31.24 78.4873 30.9 77.7273 30.22C76.9873 29.54 76.6173 28.55 76.6173 27.25ZM79.1373 26.98C79.1373 27.72 79.3473 28.28 79.7673 28.66C80.1873 29.04 80.7473 29.23 81.4473 29.23C82.2873 29.23 83.0973 28.9 83.8773 28.24C84.6773 27.56 85.0773 26.87 85.0773 26.17V24.61H84.0273C83.4473 24.61 82.9473 24.63 82.5273 24.67C82.1073 24.69 81.6673 24.75 81.2073 24.85C80.7673 24.93 80.3973 25.06 80.0973 25.24C79.8173 25.4 79.5873 25.63 79.4073 25.93C79.2273 26.21 79.1373 26.56 79.1373 26.98ZM91.1146 12.46C90.8146 12.16 90.6646 11.82 90.6646 11.44C90.6646 11.06 90.8146 10.73 91.1146 10.45C91.4146 10.17 91.7846 10.03 92.2246 10.03C92.6446 10.03 93.0046 10.17 93.3046 10.45C93.6046 10.73 93.7546 11.06 93.7546 11.44C93.7546 11.82 93.6046 12.16 93.3046 12.46C93.0046 12.74 92.6446 12.88 92.2246 12.88C91.8046 12.88 91.4346 12.74 91.1146 12.46ZM90.9946 30.1V17.65C90.9946 17.39 91.1146 17.18 91.3546 17.02C91.5946 16.86 91.8846 16.78 92.2246 16.78C92.5846 16.78 92.8846 16.86 93.1246 17.02C93.3646 17.18 93.4846 17.39 93.4846 17.65V30.1C93.4846 30.32 93.3546 30.53 93.0946 30.73C92.8546 30.91 92.5646 31 92.2246 31C91.8846 31 91.5946 30.91 91.3546 30.73C91.1146 30.55 90.9946 30.34 90.9946 30.1ZM97.2998 30.1V9.07C97.2998 8.81 97.4098 8.6 97.6298 8.44C97.8698 8.28 98.1698 8.2 98.5298 8.2C98.8898 8.2 99.1898 8.28 99.4298 8.44C99.6698 8.6 99.7898 8.81 99.7898 9.07V30.1C99.7898 30.32 99.6598 30.53 99.3998 30.73C99.1598 30.91 98.8698 31 98.5298 31C98.1898 31 97.8998 30.91 97.6598 30.73C97.4198 30.55 97.2998 30.34 97.2998 30.1ZM108.338 29.95C108.338 29.91 108.358 29.83 108.398 29.71L114.518 9.76C114.698 9.18 115.218 8.89 116.078 8.89C116.938 8.89 117.458 9.18 117.638 9.76L123.758 29.71C123.758 29.75 123.758 29.79 123.758 29.83C123.778 29.87 123.788 29.9 123.788 29.92C123.788 30.2 123.618 30.45 123.278 30.67C122.958 30.89 122.608 31 122.228 31C121.748 31 121.448 30.81 121.328 30.43L120.008 25.96H112.118L110.798 30.43C110.678 30.81 110.368 31 109.868 31C109.508 31 109.158 30.9 108.818 30.7C108.498 30.5 108.338 30.25 108.338 29.95ZM112.688 23.89H119.408L116.078 12.61L112.688 23.89ZM125.552 25.42V22.36C125.552 20.78 126.082 19.43 127.142 18.31C128.202 17.17 129.462 16.6 130.922 16.6C131.822 16.6 132.612 16.82 133.292 17.26C133.972 17.7 134.492 18.24 134.852 18.88V9.07C134.852 8.81 134.972 8.6 135.212 8.44C135.452 8.28 135.752 8.2 136.112 8.2C136.472 8.2 136.762 8.28 136.982 8.44C137.222 8.6 137.342 8.81 137.342 9.07V30.1C137.342 30.34 137.222 30.55 136.982 30.73C136.742 30.91 136.452 31 136.112 31C135.812 31 135.542 30.91 135.302 30.73C135.082 30.55 134.972 30.34 134.972 30.1V28.9C134.632 29.54 134.082 30.09 133.322 30.55C132.562 31.01 131.732 31.24 130.832 31.24C129.432 31.24 128.202 30.65 127.142 29.47C126.082 28.29 125.552 26.94 125.552 25.42ZM128.042 25.42C128.042 26.34 128.382 27.17 129.062 27.91C129.742 28.63 130.532 28.99 131.432 28.99C132.312 28.99 133.102 28.66 133.802 28C134.502 27.32 134.852 26.73 134.852 26.23V22.36C134.852 21.32 134.512 20.48 133.832 19.84C133.152 19.18 132.362 18.85 131.462 18.85C130.542 18.85 129.742 19.21 129.062 19.93C128.382 20.65 128.042 21.46 128.042 22.36V25.42ZM140.376 25.42V22.36C140.376 20.78 140.906 19.43 141.966 18.31C143.026 17.17 144.286 16.6 145.746 16.6C146.646 16.6 147.436 16.82 148.116 17.26C148.796 17.7 149.316 18.24 149.676 18.88V9.07C149.676 8.81 149.796 8.6 150.036 8.44C150.276 8.28 150.576 8.2 150.936 8.2C151.296 8.2 151.586 8.28 151.806 8.44C152.046 8.6 152.166 8.81 152.166 9.07V30.1C152.166 30.34 152.046 30.55 151.806 30.73C151.566 30.91 151.276 31 150.936 31C150.636 31 150.366 30.91 150.126 30.73C149.906 30.55 149.796 30.34 149.796 30.1V28.9C149.456 29.54 148.906 30.09 148.146 30.55C147.386 31.01 146.556 31.24 145.656 31.24C144.256 31.24 143.026 30.65 141.966 29.47C140.906 28.29 140.376 26.94 140.376 25.42ZM142.866 25.42C142.866 26.34 143.206 27.17 143.886 27.91C144.566 28.63 145.356 28.99 146.256 28.99C147.136 28.99 147.926 28.66 148.626 28C149.326 27.32 149.676 26.73 149.676 26.23V22.36C149.676 21.32 149.336 20.48 148.656 19.84C147.976 19.18 147.186 18.85 146.286 18.85C145.366 18.85 144.566 19.21 143.886 19.93C143.206 20.65 142.866 21.46 142.866 22.36V25.42ZM155.741 30.1V17.65C155.741 17.39 155.851 17.18 156.071 17.02C156.311 16.86 156.611 16.78 156.971 16.78C157.291 16.78 157.561 16.86 157.781 17.02C158.001 17.18 158.111 17.39 158.111 17.65V19.06C158.471 18.38 159.001 17.8 159.701 17.32C160.401 16.84 161.181 16.6 162.041 16.6H163.061C163.321 16.6 163.541 16.72 163.721 16.96C163.921 17.18 164.021 17.44 164.021 17.74C164.021 18.04 163.921 18.3 163.721 18.52C163.541 18.74 163.321 18.85 163.061 18.85H162.041C161.021 18.85 160.131 19.26 159.371 20.08C158.611 20.9 158.231 21.96 158.231 23.26V30.1C158.231 30.32 158.101 30.53 157.841 30.73C157.601 30.91 157.311 31 156.971 31C156.631 31 156.341 30.91 156.101 30.73C155.861 30.55 155.741 30.34 155.741 30.1ZM165.074 25.42V22.27C165.074 20.73 165.654 19.4 166.814 18.28C167.994 17.16 169.404 16.6 171.044 16.6C172.604 16.6 173.954 17.13 175.094 18.19C176.234 19.23 176.804 20.54 176.804 22.12C176.804 22.7 176.734 23.17 176.594 23.53C176.454 23.87 176.234 24.12 175.934 24.28C175.654 24.42 175.384 24.51 175.124 24.55C174.884 24.59 174.554 24.61 174.134 24.61H167.564V25.51C167.564 26.61 167.954 27.49 168.734 28.15C169.534 28.81 170.564 29.14 171.824 29.14C172.484 29.14 173.054 29.04 173.534 28.84C174.034 28.64 174.434 28.45 174.734 28.27C175.034 28.07 175.274 27.97 175.454 27.97C175.734 27.97 175.974 28.1 176.174 28.36C176.374 28.6 176.474 28.85 176.474 29.11C176.474 29.57 176.014 30.04 175.094 30.52C174.194 31 173.074 31.24 171.734 31.24C169.774 31.24 168.174 30.71 166.934 29.65C165.694 28.57 165.074 27.16 165.074 25.42ZM167.564 22.93H173.114C173.634 22.93 173.984 22.87 174.164 22.75C174.344 22.61 174.434 22.35 174.434 21.97C174.434 21.07 174.104 20.28 173.444 19.6C172.784 18.92 171.974 18.58 171.014 18.58C170.074 18.58 169.264 18.9 168.584 19.54C167.904 20.16 167.564 20.93 167.564 21.85V22.93ZM178.689 28.96C178.689 28.7 178.769 28.45 178.929 28.21C179.109 27.95 179.319 27.82 179.559 27.82C179.719 27.82 179.949 27.94 180.249 28.18C180.549 28.42 180.979 28.66 181.539 28.9C182.099 29.12 182.759 29.23 183.519 29.23C184.519 29.23 185.239 29.05 185.679 28.69C186.139 28.33 186.369 27.88 186.369 27.34C186.369 26.68 186.119 26.16 185.619 25.78C185.119 25.38 184.509 25.08 183.789 24.88C183.069 24.68 182.349 24.46 181.629 24.22C180.909 23.98 180.299 23.58 179.799 23.02C179.299 22.46 179.049 21.72 179.049 20.8C179.049 19.66 179.449 18.68 180.249 17.86C181.069 17.02 182.309 16.6 183.969 16.6C185.029 16.6 185.999 16.77 186.879 17.11C187.759 17.43 188.199 17.8 188.199 18.22C188.199 18.46 188.099 18.73 187.899 19.03C187.719 19.33 187.489 19.48 187.209 19.48C187.129 19.48 186.739 19.34 186.039 19.06C185.359 18.76 184.679 18.61 183.999 18.61C183.079 18.61 182.389 18.83 181.929 19.27C181.489 19.69 181.269 20.17 181.269 20.71C181.269 21.27 181.519 21.71 182.019 22.03C182.519 22.35 183.129 22.6 183.849 22.78C184.589 22.96 185.319 23.18 186.039 23.44C186.759 23.7 187.369 24.15 187.869 24.79C188.369 25.41 188.619 26.22 188.619 27.22C188.619 28.46 188.179 29.44 187.299 30.16C186.419 30.88 185.189 31.24 183.609 31.24C182.249 31.24 181.089 31 180.129 30.52C179.169 30.02 178.689 29.5 178.689 28.96ZM190.437 28.96C190.437 28.7 190.517 28.45 190.677 28.21C190.857 27.95 191.067 27.82 191.307 27.82C191.467 27.82 191.697 27.94 191.997 28.18C192.297 28.42 192.727 28.66 193.287 28.9C193.847 29.12 194.507 29.23 195.267 29.23C196.267 29.23 196.987 29.05 197.427 28.69C197.887 28.33 198.117 27.88 198.117 27.34C198.117 26.68 197.867 26.16 197.367 25.78C196.867 25.38 196.257 25.08 195.537 24.88C194.817 24.68 194.097 24.46 193.377 24.22C192.657 23.98 192.047 23.58 191.547 23.02C191.047 22.46 190.797 21.72 190.797 20.8C190.797 19.66 191.197 18.68 191.997 17.86C192.817 17.02 194.057 16.6 195.717 16.6C196.777 16.6 197.747 16.77 198.627 17.11C199.507 17.43 199.947 17.8 199.947 18.22C199.947 18.46 199.847 18.73 199.647 19.03C199.467 19.33 199.237 19.48 198.957 19.48C198.877 19.48 198.487 19.34 197.787 19.06C197.107 18.76 196.427 18.61 195.747 18.61C194.827 18.61 194.137 18.83 193.677 19.27C193.237 19.69 193.017 20.17 193.017 20.71C193.017 21.27 193.267 21.71 193.767 22.03C194.267 22.35 194.877 22.6 195.597 22.78C196.337 22.96 197.067 23.18 197.787 23.44C198.507 23.7 199.117 24.15 199.617 24.79C200.117 25.41 200.367 26.22 200.367 27.22C200.367 28.46 199.927 29.44 199.047 30.16C198.167 30.88 196.937 31.24 195.357 31.24C193.997 31.24 192.837 31 191.877 30.52C190.917 30.02 190.437 29.5 190.437 28.96ZM202.875 29.62C202.875 29.18 203.025 28.81 203.325 28.51C203.625 28.19 203.995 28.03 204.435 28.03C204.855 28.03 205.215 28.19 205.515 28.51C205.815 28.81 205.965 29.18 205.965 29.62C205.965 30.04 205.815 30.41 205.515 30.73C205.215 31.03 204.855 31.18 204.435 31.18C203.995 31.18 203.625 31.03 203.325 30.73C203.025 30.41 202.875 30.04 202.875 29.62ZM202.875 19.93C202.875 19.49 203.025 19.12 203.325 18.82C203.625 18.5 203.995 18.34 204.435 18.34C204.855 18.34 205.215 18.5 205.515 18.82C205.815 19.12 205.965 19.49 205.965 19.93C205.965 20.35 205.815 20.72 205.515 21.04C205.215 21.34 204.855 21.49 204.435 21.49C203.995 21.49 203.625 21.34 203.325 21.04C203.025 20.72 202.875 20.35 202.875 19.93Z" fill="#596F62"/>
<path d="M0.726 55.69C0.726 55.4553 0.806667 55.228 0.968 55.008C1.144 54.788 1.33467 54.678 1.54 54.678C1.672 54.678 1.84067 54.7733 2.046 54.964C2.25133 55.14 2.464 55.3453 2.684 55.58C2.904 55.8 3.24867 56.0053 3.718 56.196C4.18733 56.372 4.71533 56.46 5.302 56.46C6.25533 56.46 7.00333 56.2327 7.546 55.778C8.08867 55.3087 8.36 54.6267 8.36 53.732C8.36 52.9253 8.11067 52.2727 7.612 51.774C7.11333 51.2607 6.512 50.872 5.808 50.608C5.104 50.344 4.39267 50.0653 3.674 49.772C2.97 49.464 2.36867 49.002 1.87 48.386C1.37133 47.7553 1.122 46.9487 1.122 45.966C1.122 45.2033 1.26867 44.5433 1.562 43.986C1.85533 43.414 2.244 42.9887 2.728 42.71C3.22667 42.4167 3.74 42.204 4.268 42.072C4.796 41.94 5.36067 41.874 5.962 41.874C6.87133 41.874 7.73667 42.006 8.558 42.27C9.394 42.5193 9.812 42.8713 9.812 43.326C9.812 43.5313 9.73867 43.7513 9.592 43.986C9.44533 44.2207 9.25467 44.338 9.02 44.338C8.96133 44.338 8.624 44.1987 8.008 43.92C7.392 43.6413 6.71 43.502 5.962 43.502C5.06733 43.502 4.34133 43.6853 3.784 44.052C3.24133 44.4187 2.97 44.998 2.97 45.79C2.97 46.4647 3.21933 47.0147 3.718 47.44C4.21667 47.8507 4.818 48.1807 5.522 48.43C6.24067 48.6793 6.952 48.9653 7.656 49.288C8.36 49.6107 8.96133 50.1313 9.46 50.85C9.95867 51.554 10.208 52.456 10.208 53.556C10.208 55.0813 9.768 56.2327 8.888 57.01C8.008 57.7873 6.842 58.176 5.39 58.176C4.08467 58.176 2.97733 57.8973 2.068 57.34C1.17333 56.7827 0.726 56.2327 0.726 55.69ZM12.363 57.34V41.918C12.363 41.7273 12.4436 41.5733 12.605 41.456C12.781 41.3387 13.001 41.28 13.265 41.28C13.529 41.28 13.749 41.3387 13.925 41.456C14.101 41.5733 14.189 41.7273 14.189 41.918V49.112C14.4383 48.6427 14.805 48.2467 15.289 47.924C15.7876 47.6013 16.3743 47.44 17.049 47.44C18.0903 47.44 18.9923 47.858 19.755 48.694C20.5323 49.5153 20.921 50.5053 20.921 51.664V57.34C20.921 57.5453 20.8256 57.7067 20.635 57.824C20.459 57.9413 20.2463 58 19.997 58C19.7623 58 19.5496 57.9413 19.359 57.824C19.183 57.7067 19.095 57.5453 19.095 57.34V51.664C19.095 51.004 18.8456 50.41 18.347 49.882C17.8483 49.354 17.2616 49.09 16.587 49.09C15.9563 49.09 15.399 49.332 14.915 49.816C14.431 50.2853 14.189 50.9013 14.189 51.664V57.34C14.189 57.5013 14.0936 57.6553 13.903 57.802C13.727 57.934 13.5143 58 13.265 58C13.0156 58 12.803 57.934 12.627 57.802C12.451 57.67 12.363 57.516 12.363 57.34ZM22.7449 55.25C22.7449 54.106 23.1849 53.314 24.0649 52.874C24.9449 52.4193 26.2209 52.192 27.8929 52.192H28.9489V51.73C28.9489 50.9967 28.7436 50.3587 28.3329 49.816C27.9369 49.2733 27.3356 49.002 26.5289 49.002C25.9129 49.002 25.3702 49.112 24.9009 49.332C24.4316 49.5373 24.1749 49.64 24.1309 49.64C23.9256 49.64 23.7569 49.5447 23.6249 49.354C23.5076 49.1487 23.4489 48.936 23.4489 48.716C23.4489 48.3787 23.7789 48.0853 24.4389 47.836C25.1136 47.572 25.8249 47.44 26.5729 47.44C28.0102 47.44 29.0662 47.8507 29.7409 48.672C30.4302 49.4787 30.7749 50.4907 30.7749 51.708V57.34C30.7749 57.5307 30.6869 57.692 30.5109 57.824C30.3496 57.9413 30.1369 58 29.8729 58C29.6382 58 29.4402 57.9413 29.2789 57.824C29.1176 57.692 29.0369 57.5307 29.0369 57.34V56.46C28.0396 57.604 26.9322 58.176 25.7149 58.176C24.8349 58.176 24.1162 57.9267 23.5589 57.428C23.0162 56.9293 22.7449 56.2033 22.7449 55.25ZM24.5929 55.052C24.5929 55.5947 24.7469 56.0053 25.0549 56.284C25.3629 56.5627 25.7736 56.702 26.2869 56.702C26.9029 56.702 27.4969 56.46 28.0689 55.976C28.6556 55.4773 28.9489 54.9713 28.9489 54.458V53.314H28.1789C27.7536 53.314 27.3869 53.3287 27.0789 53.358C26.7709 53.3727 26.4482 53.4167 26.1109 53.49C25.7882 53.5487 25.5169 53.644 25.2969 53.776C25.0916 53.8933 24.9229 54.062 24.7909 54.282C24.6589 54.4873 24.5929 54.744 24.5929 55.052ZM33.2882 57.34V48.21C33.2882 48.0193 33.3689 47.8653 33.5302 47.748C33.7062 47.6307 33.9262 47.572 34.1902 47.572C34.4249 47.572 34.6229 47.6307 34.7842 47.748C34.9456 47.8653 35.0262 48.0193 35.0262 48.21V49.244C35.2902 48.7453 35.6789 48.32 36.1922 47.968C36.7056 47.616 37.2776 47.44 37.9082 47.44H38.6562C38.8469 47.44 39.0082 47.528 39.1402 47.704C39.2869 47.8653 39.3602 48.056 39.3602 48.276C39.3602 48.496 39.2869 48.6867 39.1402 48.848C39.0082 49.0093 38.8469 49.09 38.6562 49.09H37.9082C37.1602 49.09 36.5076 49.3907 35.9502 49.992C35.3929 50.5933 35.1142 51.3707 35.1142 52.324V57.34C35.1142 57.5013 35.0189 57.6553 34.8282 57.802C34.6522 57.934 34.4396 58 34.1902 58C33.9409 58 33.7282 57.934 33.5522 57.802C33.3762 57.67 33.2882 57.516 33.2882 57.34ZM40.1687 55.25C40.1687 54.106 40.6087 53.314 41.4887 52.874C42.3687 52.4193 43.6447 52.192 45.3167 52.192H46.3727V51.73C46.3727 50.9967 46.1674 50.3587 45.7567 49.816C45.3607 49.2733 44.7594 49.002 43.9527 49.002C43.3367 49.002 42.7941 49.112 42.3247 49.332C41.8554 49.5373 41.5987 49.64 41.5547 49.64C41.3494 49.64 41.1807 49.5447 41.0487 49.354C40.9314 49.1487 40.8727 48.936 40.8727 48.716C40.8727 48.3787 41.2027 48.0853 41.8627 47.836C42.5374 47.572 43.2487 47.44 43.9967 47.44C45.4341 47.44 46.4901 47.8507 47.1647 48.672C47.8541 49.4787 48.1987 50.4907 48.1987 51.708V57.34C48.1987 57.5307 48.1107 57.692 47.9347 57.824C47.7734 57.9413 47.5607 58 47.2967 58C47.0621 58 46.8641 57.9413 46.7027 57.824C46.5414 57.692 46.4607 57.5307 46.4607 57.34V56.46C45.4634 57.604 44.3561 58.176 43.1387 58.176C42.2587 58.176 41.5401 57.9267 40.9827 57.428C40.4401 56.9293 40.1687 56.2033 40.1687 55.25ZM42.0167 55.052C42.0167 55.5947 42.1707 56.0053 42.4787 56.284C42.7867 56.5627 43.1974 56.702 43.7107 56.702C44.3267 56.702 44.9207 56.46 45.4927 55.976C46.0794 55.4773 46.3727 54.9713 46.3727 54.458V53.314H45.6027C45.1774 53.314 44.8107 53.3287 44.5027 53.358C44.1947 53.3727 43.8721 53.4167 43.5347 53.49C43.2121 53.5487 42.9407 53.644 42.7207 53.776C42.5154 53.8933 42.3467 54.062 42.2147 54.282C42.0827 54.4873 42.0167 54.744 42.0167 55.052ZM50.7121 57.34V48.21C50.7121 48.0193 50.7927 47.8653 50.9541 47.748C51.1301 47.6307 51.3501 47.572 51.6141 47.572C51.8341 47.572 52.0247 47.638 52.1861 47.77C52.3621 47.8873 52.4501 48.034 52.4501 48.21V49.112C52.6847 48.6427 53.0587 48.2467 53.5721 47.924C54.1001 47.6013 54.7087 47.44 55.3981 47.44C56.4394 47.44 57.3414 47.858 58.1041 48.694C58.8814 49.5153 59.2701 50.5053 59.2701 51.664V57.34C59.2701 57.5453 59.1747 57.7067 58.9841 57.824C58.8081 57.9413 58.5954 58 58.3461 58C58.1114 58 57.8987 57.9413 57.7081 57.824C57.5321 57.7067 57.4441 57.5453 57.4441 57.34V51.664C57.4441 51.004 57.1947 50.41 56.6961 49.882C56.1974 49.354 55.6107 49.09 54.9361 49.09C54.3054 49.09 53.7481 49.332 53.2641 49.816C52.7801 50.2853 52.5381 50.9013 52.5381 51.664V57.34C52.5381 57.5013 52.4427 57.6553 52.2521 57.802C52.0614 57.934 51.8487 58 51.6141 58C51.3647 58 51.1521 57.934 50.9761 57.802C50.8001 57.67 50.7121 57.516 50.7121 57.34ZM60.5492 48.32C60.5492 48.0853 60.6812 47.88 60.9452 47.704C61.2092 47.528 61.4732 47.44 61.7372 47.44C62.0452 47.44 62.2432 47.5647 62.3312 47.814L65.2352 55.47L67.8532 47.814C67.9558 47.5647 68.1465 47.44 68.4252 47.44C68.6745 47.44 68.9312 47.528 69.1952 47.704C69.4738 47.88 69.6132 48.0927 69.6132 48.342C69.6132 48.4153 69.5912 48.4887 69.5472 48.562L66.2032 57.516L65.7852 58.616C65.7118 58.8213 65.5652 59.1733 65.3452 59.672C65.1252 60.1707 64.9418 60.53 64.7952 60.75C64.6485 60.97 64.4432 61.256 64.1792 61.608C63.9152 61.9747 63.6585 62.2387 63.4092 62.4C63.1598 62.5613 62.8592 62.708 62.5072 62.84C62.1698 62.972 61.8105 63.038 61.4292 63.038C60.8572 63.038 60.5712 62.7667 60.5712 62.224C60.5712 61.696 60.7472 61.432 61.0992 61.432C61.7592 61.432 62.3972 61.058 63.0132 60.31C63.6438 59.5767 64.0692 58.6307 64.2892 57.472L60.6372 48.562C60.5785 48.474 60.5492 48.3933 60.5492 48.32ZM70.5047 55.25C70.5047 54.106 70.9447 53.314 71.8247 52.874C72.7047 52.4193 73.9807 52.192 75.6527 52.192H76.7087V51.73C76.7087 50.9967 76.5033 50.3587 76.0927 49.816C75.6967 49.2733 75.0953 49.002 74.2887 49.002C73.6727 49.002 73.13 49.112 72.6607 49.332C72.1913 49.5373 71.9347 49.64 71.8907 49.64C71.6853 49.64 71.5167 49.5447 71.3847 49.354C71.2673 49.1487 71.2087 48.936 71.2087 48.716C71.2087 48.3787 71.5387 48.0853 72.1987 47.836C72.8733 47.572 73.5847 47.44 74.3327 47.44C75.77 47.44 76.826 47.8507 77.5007 48.672C78.19 49.4787 78.5347 50.4907 78.5347 51.708V57.34C78.5347 57.5307 78.4467 57.692 78.2707 57.824C78.1093 57.9413 77.8967 58 77.6327 58C77.398 58 77.2 57.9413 77.0387 57.824C76.8773 57.692 76.7967 57.5307 76.7967 57.34V56.46C75.7993 57.604 74.692 58.176 73.4747 58.176C72.5947 58.176 71.876 57.9267 71.3187 57.428C70.776 56.9293 70.5047 56.2033 70.5047 55.25ZM72.3527 55.052C72.3527 55.5947 72.5067 56.0053 72.8147 56.284C73.1227 56.5627 73.5333 56.702 74.0467 56.702C74.6627 56.702 75.2567 56.46 75.8287 55.976C76.4153 55.4773 76.7087 54.9713 76.7087 54.458V53.314H75.9387C75.5133 53.314 75.1467 53.3287 74.8387 53.358C74.5307 53.3727 74.208 53.4167 73.8707 53.49C73.548 53.5487 73.2767 53.644 73.0567 53.776C72.8513 53.8933 72.6827 54.062 72.5507 54.282C72.4187 54.4873 72.3527 54.744 72.3527 55.052ZM80.652 53.908V51.664C80.652 50.5053 81.0407 49.5153 81.818 48.694C82.5953 47.858 83.5193 47.44 84.59 47.44C85.25 47.44 85.8293 47.6013 86.328 47.924C86.8267 48.2467 87.208 48.6427 87.472 49.112V41.918C87.472 41.7273 87.56 41.5733 87.736 41.456C87.912 41.3387 88.132 41.28 88.396 41.28C88.66 41.28 88.8727 41.3387 89.034 41.456C89.21 41.5733 89.298 41.7273 89.298 41.918V57.34C89.298 57.516 89.21 57.67 89.034 57.802C88.858 57.934 88.6453 58 88.396 58C88.176 58 87.978 57.934 87.802 57.802C87.6407 57.67 87.56 57.516 87.56 57.34V56.46C87.3107 56.9293 86.9073 57.3327 86.35 57.67C85.7927 58.0073 85.184 58.176 84.524 58.176C83.4973 58.176 82.5953 57.7433 81.818 56.878C81.0407 56.0127 80.652 55.0227 80.652 53.908ZM82.478 53.908C82.478 54.5827 82.7273 55.1913 83.226 55.734C83.7247 56.262 84.304 56.526 84.964 56.526C85.6093 56.526 86.1887 56.284 86.702 55.8C87.2153 55.3013 87.472 54.8687 87.472 54.502V51.664C87.472 50.9013 87.2227 50.2853 86.724 49.816C86.2253 49.332 85.646 49.09 84.986 49.09C84.3113 49.09 83.7247 49.354 83.226 49.882C82.7273 50.41 82.478 51.004 82.478 51.664V53.908ZM91.2371 55.25C91.2371 54.106 91.6771 53.314 92.5571 52.874C93.4371 52.4193 94.7131 52.192 96.3851 52.192H97.4411V51.73C97.4411 50.9967 97.2358 50.3587 96.8251 49.816C96.4291 49.2733 95.8278 49.002 95.0211 49.002C94.4051 49.002 93.8624 49.112 93.3931 49.332C92.9238 49.5373 92.6671 49.64 92.6231 49.64C92.4178 49.64 92.2491 49.5447 92.1171 49.354C91.9998 49.1487 91.9411 48.936 91.9411 48.716C91.9411 48.3787 92.2711 48.0853 92.9311 47.836C93.6058 47.572 94.3171 47.44 95.0651 47.44C96.5024 47.44 97.5584 47.8507 98.2331 48.672C98.9224 49.4787 99.2671 50.4907 99.2671 51.708V57.34C99.2671 57.5307 99.1791 57.692 99.0031 57.824C98.8418 57.9413 98.6291 58 98.3651 58C98.1304 58 97.9324 57.9413 97.7711 57.824C97.6098 57.692 97.5291 57.5307 97.5291 57.34V56.46C96.5318 57.604 95.4244 58.176 94.2071 58.176C93.3271 58.176 92.6084 57.9267 92.0511 57.428C91.5084 56.9293 91.2371 56.2033 91.2371 55.25ZM93.0851 55.052C93.0851 55.5947 93.2391 56.0053 93.5471 56.284C93.8551 56.5627 94.2658 56.702 94.7791 56.702C95.3951 56.702 95.9891 56.46 96.5611 55.976C97.1478 55.4773 97.4411 54.9713 97.4411 54.458V53.314H96.6711C96.2458 53.314 95.8791 53.3287 95.5711 53.358C95.2631 53.3727 94.9404 53.4167 94.6031 53.49C94.2804 53.5487 94.0091 53.644 93.7891 53.776C93.5838 53.8933 93.4151 54.062 93.2831 54.282C93.1511 54.4873 93.0851 54.744 93.0851 55.052ZM101.78 57.34V48.21C101.78 48.0193 101.861 47.8653 102.022 47.748C102.198 47.6307 102.418 47.572 102.682 47.572C102.902 47.572 103.093 47.638 103.254 47.77C103.43 47.8873 103.518 48.034 103.518 48.21V49.112C103.753 48.6427 104.127 48.2467 104.64 47.924C105.168 47.6013 105.777 47.44 106.466 47.44C107.508 47.44 108.41 47.858 109.172 48.694C109.95 49.5153 110.338 50.5053 110.338 51.664V57.34C110.338 57.5453 110.243 57.7067 110.052 57.824C109.876 57.9413 109.664 58 109.414 58C109.18 58 108.967 57.9413 108.776 57.824C108.6 57.7067 108.512 57.5453 108.512 57.34V51.664C108.512 51.004 108.263 50.41 107.764 49.882C107.266 49.354 106.679 49.09 106.004 49.09C105.374 49.09 104.816 49.332 104.332 49.816C103.848 50.2853 103.606 50.9013 103.606 51.664V57.34C103.606 57.5013 103.511 57.6553 103.32 57.802C103.13 57.934 102.917 58 102.682 58C102.433 58 102.22 57.934 102.044 57.802C101.868 57.67 101.78 57.516 101.78 57.34ZM112.471 53.908V51.708C112.471 50.4467 112.838 49.42 113.571 48.628C114.319 47.836 115.412 47.44 116.849 47.44C117.758 47.44 118.521 47.6013 119.137 47.924C119.768 48.2467 120.083 48.5913 120.083 48.958C120.083 49.1633 120.002 49.3687 119.841 49.574C119.694 49.7647 119.518 49.86 119.313 49.86C119.254 49.86 118.998 49.7353 118.543 49.486C118.103 49.222 117.582 49.09 116.981 49.09C116.101 49.09 115.434 49.3173 114.979 49.772C114.524 50.2267 114.297 50.872 114.297 51.708V53.908C114.297 55.6533 115.199 56.526 117.003 56.526C117.619 56.526 118.154 56.394 118.609 56.13C119.064 55.866 119.328 55.734 119.401 55.734C119.636 55.734 119.826 55.8293 119.973 56.02C120.134 56.2107 120.215 56.4087 120.215 56.614C120.215 56.9807 119.892 57.3327 119.247 57.67C118.602 58.0073 117.81 58.176 116.871 58.176C115.419 58.176 114.319 57.7873 113.571 57.01C112.838 56.218 112.471 55.184 112.471 53.908ZM121.515 53.908V51.598C121.515 50.4687 121.941 49.4933 122.791 48.672C123.657 47.8507 124.691 47.44 125.893 47.44C127.037 47.44 128.027 47.8287 128.863 48.606C129.699 49.3687 130.117 50.3293 130.117 51.488C130.117 51.9133 130.066 52.258 129.963 52.522C129.861 52.7713 129.699 52.9547 129.479 53.072C129.274 53.1747 129.076 53.2407 128.885 53.27C128.709 53.2993 128.467 53.314 128.159 53.314H123.341V53.974C123.341 54.7807 123.627 55.426 124.199 55.91C124.786 56.394 125.541 56.636 126.465 56.636C126.949 56.636 127.367 56.5627 127.719 56.416C128.086 56.2693 128.379 56.13 128.599 55.998C128.819 55.8513 128.995 55.778 129.127 55.778C129.333 55.778 129.509 55.8733 129.655 56.064C129.802 56.24 129.875 56.4233 129.875 56.614C129.875 56.9513 129.538 57.296 128.863 57.648C128.203 58 127.382 58.176 126.399 58.176C124.962 58.176 123.789 57.7873 122.879 57.01C121.97 56.218 121.515 55.184 121.515 53.908ZM123.341 52.082H127.411C127.793 52.082 128.049 52.038 128.181 51.95C128.313 51.8473 128.379 51.6567 128.379 51.378C128.379 50.718 128.137 50.1387 127.653 49.64C127.169 49.1413 126.575 48.892 125.871 48.892C125.182 48.892 124.588 49.1267 124.089 49.596C123.591 50.0507 123.341 50.6153 123.341 51.29V52.082ZM131.918 53.292C131.918 51.0333 132.505 49.2 133.678 47.792C134.866 46.3693 136.641 45.658 139.002 45.658C141.217 45.658 142.925 46.2813 144.128 47.528C145.331 48.7747 145.932 50.5347 145.932 52.808C145.932 54.1427 145.697 55.25 145.228 56.13C144.773 56.9953 144.062 57.428 143.094 57.428C142.537 57.428 142.053 57.2887 141.642 57.01C141.246 56.7167 141.004 56.3647 140.916 55.954C140.505 56.394 140.095 56.724 139.684 56.944C139.288 57.1493 138.797 57.252 138.21 57.252C137.403 57.252 136.736 57.054 136.208 56.658C135.695 56.262 135.438 55.646 135.438 54.81C135.438 53.8567 135.805 53.1967 136.538 52.83C137.286 52.4487 138.371 52.258 139.794 52.258H140.674V51.862C140.674 50.6887 139.985 50.102 138.606 50.102C138.063 50.102 137.587 50.1973 137.176 50.388C136.765 50.564 136.545 50.652 136.516 50.652C136.369 50.652 136.237 50.564 136.12 50.388C136.017 50.212 135.966 50.0507 135.966 49.904C135.966 49.5813 136.267 49.31 136.868 49.09C137.484 48.8553 138.144 48.738 138.848 48.738C139.831 48.738 140.615 48.9873 141.202 49.486C141.803 49.97 142.104 50.6667 142.104 51.576V55.25C142.148 55.5873 142.273 55.8513 142.478 56.042C142.683 56.2327 142.925 56.328 143.204 56.328C144.157 56.328 144.634 55.228 144.634 53.028C144.634 51.048 144.165 49.53 143.226 48.474C142.287 47.418 140.872 46.89 138.98 46.89C137.924 46.89 137.007 47.066 136.23 47.418C135.467 47.7553 134.873 48.232 134.448 48.848C134.023 49.4493 133.707 50.1167 133.502 50.85C133.311 51.5833 133.216 52.39 133.216 53.27C133.216 54.0913 133.304 54.8467 133.48 55.536C133.656 56.2107 133.927 56.8413 134.294 57.428C134.675 58 135.203 58.4473 135.878 58.77C136.567 59.0927 137.374 59.254 138.298 59.254C139.046 59.254 139.735 59.144 140.366 58.924C140.997 58.704 141.327 58.594 141.356 58.594C141.503 58.594 141.627 58.66 141.73 58.792C141.833 58.924 141.884 59.0487 141.884 59.166C141.884 59.5033 141.466 59.7967 140.63 60.046C139.809 60.31 138.965 60.442 138.1 60.442C137.279 60.442 136.501 60.2953 135.768 60.002C135.049 59.7087 134.397 59.276 133.81 58.704C133.223 58.1467 132.761 57.406 132.424 56.482C132.087 55.5433 131.918 54.48 131.918 53.292ZM136.978 54.81C136.978 55.69 137.469 56.13 138.452 56.13C139.097 56.13 139.633 55.9393 140.058 55.558C140.498 55.1767 140.718 54.766 140.718 54.326V53.248H139.926C138.958 53.248 138.225 53.358 137.726 53.578C137.227 53.798 136.978 54.2087 136.978 54.81ZM147.201 60.068C147.201 58.9973 147.795 58.198 148.983 57.67C148.235 57.3913 147.861 56.9 147.861 56.196C147.861 55.5213 148.227 54.9787 148.961 54.568C148.125 53.8933 147.707 52.9693 147.707 51.796V51.07C147.707 49.9993 148.066 49.1267 148.785 48.452C149.503 47.7773 150.449 47.44 151.623 47.44C152.62 47.44 153.478 47.726 154.197 48.298C154.637 47.3447 155.135 46.868 155.693 46.868C155.927 46.868 156.118 46.9413 156.265 47.088C156.411 47.22 156.485 47.374 156.485 47.55C156.485 47.77 156.36 47.9387 156.111 48.056C155.612 48.188 155.216 48.496 154.923 48.98C155.377 49.5227 155.605 50.2193 155.605 51.07V51.796C155.605 52.852 155.231 53.7247 154.483 54.414C153.735 55.1033 152.781 55.448 151.623 55.448C151.021 55.448 150.479 55.338 149.995 55.118C149.628 55.338 149.445 55.5873 149.445 55.866C149.445 56.1447 149.613 56.3647 149.951 56.526C150.288 56.6727 150.706 56.768 151.205 56.812C151.703 56.8413 152.246 56.9073 152.833 57.01C153.419 57.1127 153.962 57.2447 154.461 57.406C154.959 57.5673 155.377 57.8533 155.715 58.264C156.052 58.6747 156.221 59.1953 156.221 59.826C156.221 60.8673 155.803 61.6593 154.967 62.202C154.145 62.7593 153.075 63.038 151.755 63.038C150.435 63.038 149.342 62.7667 148.477 62.224C147.626 61.696 147.201 60.9773 147.201 60.068ZM148.939 59.87C148.939 60.442 149.188 60.8967 149.687 61.234C150.2 61.586 150.882 61.762 151.733 61.762C152.554 61.762 153.207 61.586 153.691 61.234C154.189 60.8967 154.439 60.442 154.439 59.87C154.439 59.6353 154.395 59.43 154.307 59.254C154.233 59.078 154.109 58.9313 153.933 58.814C153.757 58.6967 153.581 58.594 153.405 58.506C153.229 58.4327 153.001 58.3667 152.723 58.308C152.444 58.264 152.209 58.2273 152.019 58.198C151.843 58.1833 151.601 58.1613 151.293 58.132C150.999 58.1027 150.794 58.0807 150.677 58.066C149.518 58.4473 148.939 59.0487 148.939 59.87ZM149.489 51.774C149.489 52.478 149.679 53.0573 150.061 53.512C150.457 53.9667 150.992 54.194 151.667 54.194C152.312 54.194 152.833 53.974 153.229 53.534C153.625 53.0793 153.823 52.5 153.823 51.796V51.07C153.823 50.3953 153.625 49.8307 153.229 49.376C152.833 48.9213 152.305 48.694 151.645 48.694C150.97 48.694 150.442 48.9213 150.061 49.376C149.679 49.816 149.489 50.3807 149.489 51.07V51.774ZM158.069 57.34V48.21C158.069 48.0193 158.15 47.8653 158.311 47.748C158.487 47.6307 158.707 47.572 158.971 47.572C159.206 47.572 159.404 47.6307 159.565 47.748C159.727 47.8653 159.807 48.0193 159.807 48.21V49.112C160.071 48.628 160.453 48.232 160.951 47.924C161.465 47.6013 162.059 47.44 162.733 47.44C163.408 47.44 164.009 47.6453 164.537 48.056C165.08 48.452 165.483 48.98 165.747 49.64C166.114 48.9213 166.598 48.3787 167.199 48.012C167.801 47.6307 168.431 47.44 169.091 47.44C170.118 47.44 170.998 47.8213 171.731 48.584C172.479 49.3467 172.853 50.3733 172.853 51.664V57.34C172.853 57.5013 172.758 57.6553 172.567 57.802C172.391 57.934 172.179 58 171.929 58C171.695 58 171.482 57.934 171.291 57.802C171.115 57.6553 171.027 57.5013 171.027 57.34V51.664C171.027 50.872 170.793 50.2487 170.323 49.794C169.869 49.3247 169.333 49.09 168.717 49.09C168.101 49.09 167.551 49.3247 167.067 49.794C166.598 50.2633 166.363 50.8647 166.363 51.598V57.362C166.363 57.5673 166.268 57.7287 166.077 57.846C165.901 57.9487 165.689 58 165.439 58C165.205 58 164.992 57.9487 164.801 57.846C164.625 57.7287 164.537 57.5673 164.537 57.362V51.62C164.537 50.8867 164.31 50.2853 163.855 49.816C163.415 49.332 162.88 49.09 162.249 49.09C161.619 49.09 161.069 49.3247 160.599 49.794C160.13 50.2633 159.895 50.8867 159.895 51.664V57.34C159.895 57.5013 159.8 57.6553 159.609 57.802C159.433 57.934 159.221 58 158.971 58C158.722 58 158.509 57.934 158.333 57.802C158.157 57.67 158.069 57.516 158.069 57.34ZM174.682 55.25C174.682 54.106 175.122 53.314 176.002 52.874C176.882 52.4193 178.158 52.192 179.83 52.192H180.886V51.73C180.886 50.9967 180.681 50.3587 180.27 49.816C179.874 49.2733 179.273 49.002 178.466 49.002C177.85 49.002 177.308 49.112 176.838 49.332C176.369 49.5373 176.112 49.64 176.068 49.64C175.863 49.64 175.694 49.5447 175.562 49.354C175.445 49.1487 175.386 48.936 175.386 48.716C175.386 48.3787 175.716 48.0853 176.376 47.836C177.051 47.572 177.762 47.44 178.51 47.44C179.948 47.44 181.004 47.8507 181.678 48.672C182.368 49.4787 182.712 50.4907 182.712 51.708V57.34C182.712 57.5307 182.624 57.692 182.448 57.824C182.287 57.9413 182.074 58 181.81 58C181.576 58 181.378 57.9413 181.216 57.824C181.055 57.692 180.974 57.5307 180.974 57.34V56.46C179.977 57.604 178.87 58.176 177.652 58.176C176.772 58.176 176.054 57.9267 175.496 57.428C174.954 56.9293 174.682 56.2033 174.682 55.25ZM176.53 55.052C176.53 55.5947 176.684 56.0053 176.992 56.284C177.3 56.5627 177.711 56.702 178.224 56.702C178.84 56.702 179.434 56.46 180.006 55.976C180.593 55.4773 180.886 54.9713 180.886 54.458V53.314H180.116C179.691 53.314 179.324 53.3287 179.016 53.358C178.708 53.3727 178.386 53.4167 178.048 53.49C177.726 53.5487 177.454 53.644 177.234 53.776C177.029 53.8933 176.86 54.062 176.728 54.282C176.596 54.4873 176.53 54.744 176.53 55.052ZM185.314 44.404C185.094 44.184 184.984 43.9347 184.984 43.656C184.984 43.3773 185.094 43.1353 185.314 42.93C185.534 42.7247 185.805 42.622 186.128 42.622C186.436 42.622 186.7 42.7247 186.92 42.93C187.14 43.1353 187.25 43.3773 187.25 43.656C187.25 43.9347 187.14 44.184 186.92 44.404C186.7 44.6093 186.436 44.712 186.128 44.712C185.82 44.712 185.548 44.6093 185.314 44.404ZM185.226 57.34V48.21C185.226 48.0193 185.314 47.8653 185.49 47.748C185.666 47.6307 185.878 47.572 186.128 47.572C186.392 47.572 186.612 47.6307 186.788 47.748C186.964 47.8653 187.052 48.0193 187.052 48.21V57.34C187.052 57.5013 186.956 57.6553 186.766 57.802C186.59 57.934 186.377 58 186.128 58C185.878 58 185.666 57.934 185.49 57.802C185.314 57.67 185.226 57.516 185.226 57.34ZM189.85 57.34V41.918C189.85 41.7273 189.93 41.5733 190.092 41.456C190.268 41.3387 190.488 41.28 190.752 41.28C191.016 41.28 191.236 41.3387 191.412 41.456C191.588 41.5733 191.676 41.7273 191.676 41.918V57.34C191.676 57.5013 191.58 57.6553 191.39 57.802C191.214 57.934 191.001 58 190.752 58C190.502 58 190.29 57.934 190.114 57.802C189.938 57.67 189.85 57.516 189.85 57.34ZM193.98 56.988C193.98 56.6653 194.09 56.394 194.31 56.174C194.53 55.9393 194.801 55.822 195.124 55.822C195.432 55.822 195.696 55.9393 195.916 56.174C196.136 56.394 196.246 56.6653 196.246 56.988C196.246 57.296 196.136 57.5673 195.916 57.802C195.696 58.022 195.432 58.132 195.124 58.132C194.801 58.132 194.53 58.022 194.31 57.802C194.09 57.5673 193.98 57.296 193.98 56.988ZM197.957 53.908V51.708C197.957 50.4467 198.324 49.42 199.057 48.628C199.805 47.836 200.898 47.44 202.335 47.44C203.245 47.44 204.007 47.6013 204.623 47.924C205.254 48.2467 205.569 48.5913 205.569 48.958C205.569 49.1633 205.489 49.3687 205.327 49.574C205.181 49.7647 205.005 49.86 204.799 49.86C204.741 49.86 204.484 49.7353 204.029 49.486C203.589 49.222 203.069 49.09 202.467 49.09C201.587 49.09 200.92 49.3173 200.465 49.772C200.011 50.2267 199.783 50.872 199.783 51.708V53.908C199.783 55.6533 200.685 56.526 202.489 56.526C203.105 56.526 203.641 56.394 204.095 56.13C204.55 55.866 204.814 55.734 204.887 55.734C205.122 55.734 205.313 55.8293 205.459 56.02C205.621 56.2107 205.701 56.4087 205.701 56.614C205.701 56.9807 205.379 57.3327 204.733 57.67C204.088 58.0073 203.296 58.176 202.357 58.176C200.905 58.176 199.805 57.7873 199.057 57.01C198.324 56.218 197.957 55.184 197.957 53.908ZM207.002 53.908V51.664C207.002 50.5347 207.427 49.552 208.278 48.716C209.143 47.8653 210.162 47.44 211.336 47.44C212.509 47.44 213.528 47.858 214.394 48.694C215.259 49.53 215.692 50.52 215.692 51.664V53.908C215.692 55.0227 215.252 56.0127 214.372 56.878C213.506 57.7433 212.494 58.176 211.336 58.176C210.177 58.176 209.165 57.7507 208.3 56.9C207.434 56.0347 207.002 55.0373 207.002 53.908ZM208.828 53.908C208.828 54.5973 209.077 55.206 209.576 55.734C210.074 56.262 210.661 56.526 211.336 56.526C212.025 56.526 212.619 56.262 213.118 55.734C213.616 55.1913 213.866 54.5827 213.866 53.908V51.664C213.866 51.004 213.616 50.41 213.118 49.882C212.619 49.354 212.025 49.09 211.336 49.09C210.646 49.09 210.052 49.354 209.554 49.882C209.07 50.41 208.828 51.004 208.828 51.664V53.908ZM217.882 57.34V48.21C217.882 48.0193 217.963 47.8653 218.124 47.748C218.3 47.6307 218.52 47.572 218.784 47.572C219.019 47.572 219.217 47.6307 219.378 47.748C219.539 47.8653 219.62 48.0193 219.62 48.21V49.112C219.884 48.628 220.265 48.232 220.764 47.924C221.277 47.6013 221.871 47.44 222.546 47.44C223.221 47.44 223.822 47.6453 224.35 48.056C224.893 48.452 225.296 48.98 225.56 49.64C225.927 48.9213 226.411 48.3787 227.012 48.012C227.613 47.6307 228.244 47.44 228.904 47.44C229.931 47.44 230.811 47.8213 231.544 48.584C232.292 49.3467 232.666 50.3733 232.666 51.664V57.34C232.666 57.5013 232.571 57.6553 232.38 57.802C232.204 57.934 231.991 58 231.742 58C231.507 58 231.295 57.934 231.104 57.802C230.928 57.6553 230.84 57.5013 230.84 57.34V51.664C230.84 50.872 230.605 50.2487 230.136 49.794C229.681 49.3247 229.146 49.09 228.53 49.09C227.914 49.09 227.364 49.3247 226.88 49.794C226.411 50.2633 226.176 50.8647 226.176 51.598V57.362C226.176 57.5673 226.081 57.7287 225.89 57.846C225.714 57.9487 225.501 58 225.252 58C225.017 58 224.805 57.9487 224.614 57.846C224.438 57.7287 224.35 57.5673 224.35 57.362V51.62C224.35 50.8867 224.123 50.2853 223.668 49.816C223.228 49.332 222.693 49.09 222.062 49.09C221.431 49.09 220.881 49.3247 220.412 49.794C219.943 50.2633 219.708 50.8867 219.708 51.664V57.34C219.708 57.5013 219.613 57.6553 219.422 57.802C219.246 57.934 219.033 58 218.784 58C218.535 58 218.322 57.934 218.146 57.802C217.97 57.67 217.882 57.516 217.882 57.34Z" fill="black"/>
</svg>
