<svg width="199" height="36" viewBox="0 0 199 36" fill="none" xmlns="http://www.w3.org/2000/svg">
<path d="M0.124 19.188V8.712C0.124 5.952 0.856 3.924 2.32 2.628C3.784 1.332 5.704 0.684 8.08 0.684C10.504 0.684 12.472 1.296 13.984 2.52C15.52 3.72 16.288 5.328 16.288 7.344C16.288 8.04 16.132 8.52 15.82 8.784C15.532 9.048 15.052 9.18 14.38 9.18C13.132 9.18 12.496 8.76 12.472 7.92C12.208 5.352 10.78 4.068 8.188 4.068C5.356 4.068 3.94 5.616 3.94 8.712V19.188C3.94 22.284 5.356 23.832 8.188 23.832C9.556 23.832 10.612 23.448 11.356 22.68C12.1 21.912 12.472 20.748 12.472 19.188V16.236H8.836C8.452 16.236 8.152 16.092 7.936 15.804C7.72 15.492 7.612 15.12 7.612 14.688C7.612 14.304 7.72 13.956 7.936 13.644C8.152 13.332 8.452 13.176 8.836 13.176H15.028C15.412 13.176 15.712 13.308 15.928 13.572C16.168 13.812 16.288 14.112 16.288 14.472V19.188C16.288 21.948 15.544 23.976 14.056 25.272C12.592 26.568 10.636 27.216 8.188 27.216C5.74 27.216 3.784 26.568 2.32 25.272C0.856 23.976 0.124 21.948 0.124 19.188ZM19.9839 25.74V11.16C19.9839 10.8 20.1519 10.512 20.4879 10.296C20.8479 10.056 21.2919 9.936 21.8199 9.936C22.2999 9.936 22.7079 10.056 23.0439 10.296C23.3799 10.512 23.5479 10.8 23.5479 11.16V12.744C23.9559 11.904 24.5679 11.196 25.3839 10.62C26.2239 10.02 27.1359 9.72 28.1199 9.72H29.2719C29.6559 9.72 29.9919 9.888 30.2799 10.224C30.5679 10.536 30.7119 10.92 30.7119 11.376C30.7119 11.832 30.5679 12.228 30.2799 12.564C29.9919 12.9 29.6559 13.068 29.2719 13.068H28.1199C26.9679 13.068 25.9479 13.56 25.0599 14.544C24.1959 15.528 23.7639 16.8 23.7639 18.36V25.74C23.7639 26.052 23.5719 26.34 23.1879 26.604C22.8039 26.868 22.3479 27 21.8199 27C21.2919 27 20.8479 26.868 20.4879 26.604C20.1519 26.34 19.9839 26.052 19.9839 25.74ZM31.8507 20.124V16.812C31.8507 14.916 32.5827 13.26 34.0467 11.844C35.5107 10.428 37.2627 9.72 39.3027 9.72C41.2947 9.72 43.0347 10.428 44.5227 11.844C46.0107 13.236 46.7547 14.892 46.7547 16.812V20.124C46.7547 21.996 45.9987 23.664 44.4867 25.128C42.9987 26.568 41.2707 27.288 39.3027 27.288C37.3107 27.288 35.5707 26.568 34.0827 25.128C32.5947 23.688 31.8507 22.02 31.8507 20.124ZM35.6307 20.124C35.6307 21.108 35.9907 21.996 36.7107 22.788C37.4307 23.556 38.2947 23.94 39.3027 23.94C40.2867 23.94 41.1387 23.556 41.8587 22.788C42.6027 21.996 42.9747 21.108 42.9747 20.124V16.812C42.9747 15.852 42.6027 14.988 41.8587 14.22C41.1387 13.452 40.2867 13.068 39.3027 13.068C38.2947 13.068 37.4307 13.452 36.7107 14.22C35.9907 14.988 35.6307 15.852 35.6307 16.812V20.124ZM49.9337 20.196V11.196C49.9337 10.86 50.1257 10.572 50.5097 10.332C50.8937 10.068 51.3377 9.936 51.8417 9.936C52.3457 9.936 52.7777 10.068 53.1377 10.332C53.5217 10.572 53.7137 10.86 53.7137 11.196V20.196C53.7137 21.156 54.0737 22.02 54.7937 22.788C55.5377 23.556 56.4017 23.94 57.3857 23.94C58.3937 23.94 59.2577 23.568 59.9777 22.824C60.6977 22.056 61.0577 21.18 61.0577 20.196V11.16C61.0577 10.824 61.2377 10.536 61.5977 10.296C61.9817 10.056 62.4377 9.936 62.9657 9.936C63.4937 9.936 63.9257 10.056 64.2617 10.296C64.6217 10.536 64.8017 10.824 64.8017 11.16V20.196C64.8017 22.092 64.0697 23.748 62.6057 25.164C61.1417 26.58 59.4017 27.288 57.3857 27.288C55.3697 27.288 53.6177 26.58 52.1297 25.164C50.6657 23.748 49.9337 22.092 49.9337 20.196ZM68.641 33.84V11.16C68.641 10.8 68.809 10.512 69.145 10.296C69.505 10.056 69.937 9.936 70.441 9.936C70.945 9.936 71.365 10.056 71.701 10.296C72.037 10.512 72.205 10.8 72.205 11.16V12.456C72.637 11.688 73.273 11.04 74.113 10.512C74.977 9.984 75.949 9.72 77.029 9.72C78.829 9.72 80.353 10.416 81.601 11.808C82.873 13.2 83.509 14.868 83.509 16.812V20.124C83.509 21.996 82.873 23.664 81.601 25.128C80.329 26.568 78.853 27.288 77.173 27.288C76.141 27.288 75.181 27.012 74.293 26.46C73.429 25.908 72.805 25.248 72.421 24.48V33.84C72.421 34.176 72.229 34.464 71.845 34.704C71.461 34.968 71.005 35.1 70.477 35.1C69.949 35.1 69.505 34.968 69.145 34.704C68.809 34.464 68.641 34.176 68.641 33.84ZM72.421 20.952C72.421 21.48 72.781 22.116 73.501 22.86C74.245 23.58 75.097 23.94 76.057 23.94C77.017 23.94 77.869 23.556 78.613 22.788C79.357 21.996 79.729 21.108 79.729 20.124V16.812C79.729 15.852 79.357 14.988 78.613 14.22C77.869 13.452 76.993 13.068 75.985 13.068C75.049 13.068 74.221 13.416 73.501 14.112C72.781 14.784 72.421 15.684 72.421 16.812V20.952ZM85.8079 24.408C85.8079 24.048 85.9279 23.676 86.1679 23.292C86.4319 22.908 86.7439 22.716 87.1039 22.716C87.3199 22.716 87.6199 22.86 88.0039 23.148C88.3879 23.412 88.9039 23.688 89.5519 23.976C90.1999 24.24 90.9799 24.372 91.8919 24.372C93.9319 24.372 94.9519 23.724 94.9519 22.428C94.9519 21.732 94.6519 21.192 94.0519 20.808C93.4519 20.4 92.7199 20.088 91.8559 19.872C91.0159 19.632 90.1759 19.368 89.3359 19.08C88.4959 18.792 87.7759 18.3 87.1759 17.604C86.5759 16.908 86.2759 16.008 86.2759 14.904C86.2759 13.488 86.7799 12.276 87.7879 11.268C88.7959 10.236 90.3439 9.72 92.4319 9.72C93.7999 9.72 95.0359 9.936 96.1399 10.368C97.2679 10.776 97.8319 11.268 97.8319 11.844C97.8319 12.18 97.6879 12.576 97.3999 13.032C97.1359 13.464 96.7999 13.68 96.3919 13.68C96.2479 13.68 95.7559 13.512 94.9159 13.176C94.0759 12.816 93.2719 12.636 92.5039 12.636C91.5439 12.636 90.8119 12.852 90.3079 13.284C89.8279 13.716 89.5879 14.196 89.5879 14.724C89.5879 15.3 89.8879 15.756 90.4879 16.092C91.0879 16.428 91.8199 16.704 92.6839 16.92C93.5479 17.136 94.3999 17.4 95.2399 17.712C96.1039 18.024 96.8359 18.564 97.4359 19.332C98.0359 20.1 98.3359 21.084 98.3359 22.284C98.3359 23.844 97.7839 25.068 96.6799 25.956C95.5759 26.844 94.0159 27.288 91.9999 27.288C90.2959 27.288 88.8319 26.988 87.6079 26.388C86.4079 25.788 85.8079 25.128 85.8079 24.408ZM107.534 19.548C107.534 17.916 107.978 16.476 108.866 15.228C109.754 13.956 110.858 12.972 112.178 12.276C111.314 11.292 110.654 10.356 110.198 9.468C109.742 8.58 109.514 7.572 109.514 6.444C109.514 4.476 110.198 2.928 111.566 1.8C112.934 0.647999 114.638 0.0719991 116.678 0.0719991C118.598 0.0719991 120.182 0.515999 121.43 1.404C122.678 2.292 123.302 3.156 123.302 3.996C123.302 4.452 123.11 4.86 122.726 5.22C122.366 5.58 121.958 5.76 121.502 5.76C121.142 5.76 120.77 5.544 120.386 5.112C120.026 4.68 119.546 4.248 118.946 3.816C118.37 3.384 117.638 3.168 116.75 3.168C115.67 3.168 114.806 3.48 114.158 4.104C113.51 4.704 113.186 5.544 113.186 6.624C113.186 7.152 113.282 7.68 113.474 8.208C113.666 8.712 113.978 9.264 114.41 9.864C114.866 10.44 115.226 10.872 115.49 11.16L116.75 12.564L123.122 19.404C123.626 18.228 123.938 16.404 124.058 13.932C124.106 13.5 124.25 13.188 124.49 12.996C124.73 12.78 125.162 12.672 125.786 12.672C126.41 12.672 126.83 12.816 127.046 13.104C127.262 13.392 127.37 13.86 127.37 14.508C127.37 17.124 126.734 19.56 125.462 21.816L128.522 25.056C128.69 25.248 128.774 25.476 128.774 25.74C128.774 26.124 128.594 26.484 128.234 26.82C127.874 27.132 127.466 27.288 127.01 27.288C126.674 27.288 126.35 27.132 126.038 26.82L123.554 24.228C121.634 26.316 119.21 27.36 116.282 27.36C113.666 27.36 111.554 26.604 109.946 25.092C108.338 23.556 107.534 21.708 107.534 19.548ZM111.386 19.224C111.386 20.592 111.854 21.732 112.79 22.644C113.75 23.556 115.07 24.012 116.75 24.012C118.718 24.012 120.23 23.304 121.286 21.888L114.338 14.544C112.37 15.888 111.386 17.448 111.386 19.224ZM138.821 25.74V1.944C138.821 1.56 138.989 1.26 139.325 1.044C139.661 0.804 140.057 0.684 140.513 0.684H153.149C153.557 0.684 153.857 0.852 154.049 1.188C154.265 1.5 154.373 1.884 154.373 2.34C154.373 2.82 154.265 3.228 154.049 3.564C153.833 3.9 153.533 4.068 153.149 4.068H142.637V12.312H148.217C148.601 12.312 148.901 12.468 149.117 12.78C149.333 13.068 149.441 13.428 149.441 13.86C149.441 14.244 149.333 14.592 149.117 14.904C148.925 15.192 148.625 15.336 148.217 15.336H142.637V25.74C142.637 26.148 142.445 26.46 142.061 26.676C141.701 26.892 141.257 27 140.729 27C140.225 27 139.781 26.892 139.397 26.676C139.013 26.46 138.821 26.148 138.821 25.74ZM152.262 20.124V16.704C152.262 14.808 152.994 13.176 154.458 11.808C155.922 10.416 157.686 9.72 159.75 9.72C161.718 9.72 163.398 10.356 164.79 11.628C166.206 12.876 166.914 14.46 166.914 16.38C166.914 17.1 166.83 17.688 166.662 18.144C166.494 18.576 166.23 18.888 165.87 19.08C165.51 19.248 165.174 19.356 164.862 19.404C164.55 19.452 164.142 19.476 163.638 19.476H156.042V20.304C156.042 21.504 156.474 22.464 157.338 23.184C158.202 23.88 159.33 24.228 160.722 24.228C161.706 24.228 162.63 24 163.494 23.544C164.382 23.088 164.922 22.86 165.114 22.86C165.522 22.86 165.87 23.052 166.158 23.436C166.446 23.82 166.59 24.192 166.59 24.552C166.59 25.152 166.014 25.764 164.862 26.388C163.71 26.988 162.294 27.288 160.614 27.288C158.166 27.288 156.162 26.628 154.602 25.308C153.042 23.988 152.262 22.26 152.262 20.124ZM156.042 17.136H162.018C162.546 17.136 162.894 17.064 163.062 16.92C163.254 16.776 163.35 16.488 163.35 16.056C163.35 15.096 163.002 14.28 162.306 13.608C161.61 12.936 160.746 12.6 159.714 12.6C158.706 12.6 157.842 12.924 157.122 13.572C156.402 14.196 156.042 15 156.042 15.984V17.136ZM169.312 20.124V16.704C169.312 14.808 170.044 13.176 171.508 11.808C172.972 10.416 174.736 9.72 176.8 9.72C178.768 9.72 180.448 10.356 181.84 11.628C183.256 12.876 183.964 14.46 183.964 16.38C183.964 17.1 183.88 17.688 183.712 18.144C183.544 18.576 183.28 18.888 182.92 19.08C182.56 19.248 182.224 19.356 181.912 19.404C181.6 19.452 181.192 19.476 180.688 19.476H173.092V20.304C173.092 21.504 173.524 22.464 174.388 23.184C175.252 23.88 176.38 24.228 177.772 24.228C178.756 24.228 179.68 24 180.544 23.544C181.432 23.088 181.972 22.86 182.164 22.86C182.572 22.86 182.92 23.052 183.208 23.436C183.496 23.82 183.64 24.192 183.64 24.552C183.64 25.152 183.064 25.764 181.912 26.388C180.76 26.988 179.344 27.288 177.664 27.288C175.216 27.288 173.212 26.628 171.652 25.308C170.092 23.988 169.312 22.26 169.312 20.124ZM173.092 17.136H179.068C179.596 17.136 179.944 17.064 180.112 16.92C180.304 16.776 180.4 16.488 180.4 16.056C180.4 15.096 180.052 14.28 179.356 13.608C178.66 12.936 177.796 12.6 176.764 12.6C175.756 12.6 174.892 12.924 174.172 13.572C173.452 14.196 173.092 15 173.092 15.984V17.136ZM186.003 24.408C186.003 24.048 186.123 23.676 186.363 23.292C186.627 22.908 186.939 22.716 187.299 22.716C187.515 22.716 187.815 22.86 188.199 23.148C188.583 23.412 189.099 23.688 189.747 23.976C190.395 24.24 191.175 24.372 192.087 24.372C194.127 24.372 195.147 23.724 195.147 22.428C195.147 21.732 194.847 21.192 194.247 20.808C193.647 20.4 192.915 20.088 192.051 19.872C191.211 19.632 190.371 19.368 189.531 19.08C188.691 18.792 187.971 18.3 187.371 17.604C186.771 16.908 186.471 16.008 186.471 14.904C186.471 13.488 186.975 12.276 187.983 11.268C188.991 10.236 190.539 9.72 192.627 9.72C193.995 9.72 195.231 9.936 196.335 10.368C197.463 10.776 198.027 11.268 198.027 11.844C198.027 12.18 197.883 12.576 197.595 13.032C197.331 13.464 196.995 13.68 196.587 13.68C196.443 13.68 195.951 13.512 195.111 13.176C194.271 12.816 193.467 12.636 192.699 12.636C191.739 12.636 191.007 12.852 190.503 13.284C190.023 13.716 189.783 14.196 189.783 14.724C189.783 15.3 190.083 15.756 190.683 16.092C191.283 16.428 192.015 16.704 192.879 16.92C193.743 17.136 194.595 17.4 195.435 17.712C196.299 18.024 197.031 18.564 197.631 19.332C198.231 20.1 198.531 21.084 198.531 22.284C198.531 23.844 197.979 25.068 196.875 25.956C195.771 26.844 194.211 27.288 192.195 27.288C190.491 27.288 189.027 26.988 187.803 26.388C186.603 25.788 186.003 25.128 186.003 24.408Z" fill="#982649"/>
</svg>
