<svg width="143" height="44" viewBox="0 0 143 44" fill="none" xmlns="http://www.w3.org/2000/svg">
<path d="M1.32659 16.405V5.151C1.32659 4.95833 1.41159 4.81667 1.58159 4.726C1.76292 4.624 1.97826 4.573 2.22759 4.573C2.47692 4.573 2.68659 4.624 2.85659 4.726C3.03792 4.81667 3.12859 4.95833 3.12859 5.151V16.405C3.12859 16.5863 3.03792 16.7337 2.85659 16.847C2.68659 16.949 2.47692 17 2.22759 17C1.98959 17 1.77992 16.949 1.59859 16.847C1.41726 16.7337 1.32659 16.5863 1.32659 16.405ZM5.19037 16.405V9.52C5.19037 9.35 5.2697 9.214 5.42837 9.112C5.59837 8.99867 5.8137 8.942 6.07437 8.942C6.30104 8.942 6.48804 8.99867 6.63537 9.112C6.79404 9.214 6.87337 9.35 6.87337 9.52V10.132C7.0547 9.76933 7.3437 9.46333 7.74037 9.214C8.14837 8.96467 8.6187 8.84 9.15137 8.84C9.95604 8.84 10.6474 9.16867 11.2254 9.826C11.8147 10.4833 12.1094 11.271 12.1094 12.189V16.405C12.1094 16.5863 12.0187 16.7337 11.8374 16.847C11.6674 16.949 11.4577 17 11.2084 17C10.9817 17 10.7777 16.949 10.5964 16.847C10.415 16.7337 10.3244 16.5863 10.3244 16.405V12.189C10.3244 11.7357 10.1544 11.3277 9.81437 10.965C9.47437 10.6023 9.07204 10.421 8.60737 10.421C8.1767 10.421 7.79704 10.5853 7.46837 10.914C7.1397 11.2313 6.97537 11.6563 6.97537 12.189V16.405C6.97537 16.5523 6.8847 16.6883 6.70337 16.813C6.52204 16.9377 6.31237 17 6.07437 17C5.82504 17 5.61537 16.9377 5.44537 16.813C5.27537 16.6883 5.19037 16.5523 5.19037 16.405ZM13.8892 14.348V5.831C13.8892 5.67233 13.9799 5.53633 14.1612 5.423C14.3425 5.30967 14.5465 5.253 14.7732 5.253C14.9999 5.253 15.2039 5.30967 15.3852 5.423C15.5779 5.53633 15.6742 5.67233 15.6742 5.831V8.942H17.7482C17.8955 8.942 18.0145 9.01 18.1052 9.146C18.1959 9.27067 18.2412 9.42367 18.2412 9.605C18.2412 9.78633 18.1959 9.945 18.1052 10.081C18.0145 10.2057 17.8955 10.268 17.7482 10.268H15.6742V14.348C15.6742 14.756 15.7592 15.045 15.9292 15.215C16.1105 15.385 16.4222 15.47 16.8642 15.47H17.4592C17.6972 15.47 17.8842 15.5437 18.0202 15.691C18.1562 15.8383 18.2242 16.0197 18.2242 16.235C18.2242 16.4503 18.1562 16.6317 18.0202 16.779C17.8842 16.9263 17.6972 17 17.4592 17H16.8642C14.8809 17 13.8892 16.116 13.8892 14.348ZM19.0787 13.753V12.138C19.0787 11.2427 19.4244 10.472 20.1157 9.826C20.807 9.16867 21.64 8.84 22.6147 8.84C23.544 8.84 24.3374 9.14033 24.9947 9.741C25.6634 10.3303 25.9977 11.0783 25.9977 11.985C25.9977 12.325 25.958 12.6027 25.8787 12.818C25.7994 13.022 25.6747 13.1693 25.5047 13.26C25.3347 13.3393 25.176 13.3903 25.0287 13.413C24.8814 13.4357 24.6887 13.447 24.4507 13.447H20.8637V13.838C20.8637 14.4047 21.0677 14.858 21.4757 15.198C21.8837 15.5267 22.4164 15.691 23.0737 15.691C23.5384 15.691 23.9747 15.5833 24.3827 15.368C24.802 15.1527 25.057 15.045 25.1477 15.045C25.3404 15.045 25.5047 15.1357 25.6407 15.317C25.7767 15.4983 25.8447 15.674 25.8447 15.844C25.8447 16.1273 25.5727 16.4163 25.0287 16.711C24.4847 16.9943 23.816 17.136 23.0227 17.136C21.8667 17.136 20.9204 16.8243 20.1837 16.201C19.447 15.5777 19.0787 14.7617 19.0787 13.753ZM20.8637 12.342H23.6857C23.935 12.342 24.0994 12.308 24.1787 12.24C24.2694 12.172 24.3147 12.036 24.3147 11.832C24.3147 11.3787 24.1504 10.9933 23.8217 10.676C23.493 10.3587 23.085 10.2 22.5977 10.2C22.1217 10.2 21.7137 10.353 21.3737 10.659C21.0337 10.9537 20.8637 11.3333 20.8637 11.798V12.342ZM27.4365 16.405V9.52C27.4365 9.35 27.5158 9.214 27.6745 9.112C27.8445 8.99867 28.0541 8.942 28.3035 8.942C28.5301 8.942 28.7228 8.99867 28.8815 9.112C29.0401 9.214 29.1195 9.35 29.1195 9.52V10.268C29.3121 9.87133 29.6011 9.537 29.9865 9.265C30.3831 8.98167 30.8138 8.84 31.2785 8.84H31.8225C32.0038 8.84 32.1625 8.91933 32.2985 9.078C32.4345 9.22533 32.5025 9.40667 32.5025 9.622C32.5025 9.83733 32.4345 10.0243 32.2985 10.183C32.1625 10.3417 32.0038 10.421 31.8225 10.421H31.2785C30.7345 10.421 30.2528 10.6533 29.8335 11.118C29.4255 11.5827 29.2215 12.1833 29.2215 12.92V16.405C29.2215 16.5523 29.1308 16.6883 28.9495 16.813C28.7681 16.9377 28.5528 17 28.3035 17C28.0541 17 27.8445 16.9377 27.6745 16.813C27.5158 16.6883 27.4365 16.5523 27.4365 16.405ZM33.5624 16.405V9.52C33.5624 9.35 33.6418 9.214 33.8004 9.112C33.9704 8.99867 34.1858 8.942 34.4464 8.942C34.6618 8.942 34.8488 8.99867 35.0074 9.112C35.1661 9.214 35.2454 9.35 35.2454 9.52V10.132C35.7328 9.27067 36.4864 8.84 37.5064 8.84C38.0051 8.84 38.4471 8.99867 38.8324 9.316C39.2291 9.622 39.5294 10.03 39.7334 10.54C40.0168 9.98467 40.3851 9.56533 40.8384 9.282C41.3031 8.98733 41.7904 8.84 42.3004 8.84C43.1051 8.84 43.7964 9.146 44.3744 9.758C44.9638 10.3587 45.2584 11.169 45.2584 12.189V16.405C45.2584 16.5523 45.1678 16.6883 44.9864 16.813C44.8051 16.9377 44.5954 17 44.3574 17C44.1308 17 43.9268 16.9377 43.7454 16.813C43.5641 16.6883 43.4734 16.5523 43.4734 16.405V12.189C43.4734 11.6337 43.3148 11.1973 42.9974 10.88C42.6801 10.5627 42.3118 10.404 41.8924 10.404C41.4731 10.404 41.0991 10.5627 40.7704 10.88C40.4531 11.1973 40.2944 11.6223 40.2944 12.155V16.422C40.2944 16.6147 40.2038 16.762 40.0224 16.864C39.8524 16.9547 39.6428 17 39.3934 17C39.1668 17 38.9628 16.9547 38.7814 16.864C38.6001 16.762 38.5094 16.6147 38.5094 16.422V12.172C38.5094 11.662 38.3508 11.2427 38.0334 10.914C37.7274 10.5853 37.3591 10.421 36.9284 10.421C36.4978 10.421 36.1238 10.5797 35.8064 10.897C35.5004 11.2143 35.3474 11.645 35.3474 12.189V16.405C35.3474 16.5523 35.2568 16.6883 35.0754 16.813C34.8941 16.9377 34.6844 17 34.4464 17C34.1971 17 33.9874 16.9377 33.8174 16.813C33.6474 16.6883 33.5624 16.5523 33.5624 16.405ZM46.7535 13.753V12.138C46.7535 11.2427 47.0992 10.472 47.7905 9.826C48.4818 9.16867 49.3148 8.84 50.2895 8.84C51.2188 8.84 52.0122 9.14033 52.6695 9.741C53.3382 10.3303 53.6725 11.0783 53.6725 11.985C53.6725 12.325 53.6328 12.6027 53.5535 12.818C53.4742 13.022 53.3495 13.1693 53.1795 13.26C53.0095 13.3393 52.8508 13.3903 52.7035 13.413C52.5562 13.4357 52.3635 13.447 52.1255 13.447H48.5385V13.838C48.5385 14.4047 48.7425 14.858 49.1505 15.198C49.5585 15.5267 50.0912 15.691 50.7485 15.691C51.2132 15.691 51.6495 15.5833 52.0575 15.368C52.4768 15.1527 52.7318 15.045 52.8225 15.045C53.0152 15.045 53.1795 15.1357 53.3155 15.317C53.4515 15.4983 53.5195 15.674 53.5195 15.844C53.5195 16.1273 53.2475 16.4163 52.7035 16.711C52.1595 16.9943 51.4908 17.136 50.6975 17.136C49.5415 17.136 48.5952 16.8243 47.8585 16.201C47.1218 15.5777 46.7535 14.7617 46.7535 13.753ZM48.5385 12.342H51.3605C51.6098 12.342 51.7742 12.308 51.8535 12.24C51.9442 12.172 51.9895 12.036 51.9895 11.832C51.9895 11.3787 51.8252 10.9933 51.4965 10.676C51.1678 10.3587 50.7598 10.2 50.2725 10.2C49.7965 10.2 49.3885 10.353 49.0485 10.659C48.7085 10.9537 48.5385 11.3333 48.5385 11.798V12.342ZM54.8053 13.753V12.189C54.8053 11.271 55.0999 10.4833 55.6893 9.826C56.2899 9.16867 57.0096 8.84 57.8483 8.84C58.3469 8.84 58.7889 8.96467 59.1743 9.214C59.5596 9.46333 59.8543 9.76933 60.0583 10.132V4.726C60.0583 4.556 60.1433 4.42 60.3133 4.318C60.4833 4.20467 60.6986 4.148 60.9593 4.148C61.2199 4.148 61.4296 4.20467 61.5883 4.318C61.7583 4.42 61.8433 4.556 61.8433 4.726V16.405C61.8433 16.5523 61.7583 16.6883 61.5883 16.813C61.4183 16.9377 61.2086 17 60.9593 17C60.7439 17 60.5513 16.9377 60.3813 16.813C60.2226 16.6883 60.1433 16.5523 60.1433 16.405V15.81C59.9619 16.1727 59.6503 16.4843 59.2083 16.745C58.7776 17.0057 58.3073 17.136 57.7973 17.136C57.0039 17.136 56.3069 16.796 55.7063 16.116C55.1056 15.4247 54.8053 14.637 54.8053 13.753ZM56.5903 13.753C56.5903 14.2177 56.7603 14.637 57.1003 15.011C57.4403 15.3737 57.8426 15.555 58.3073 15.555C58.7493 15.555 59.1516 15.385 59.5143 15.045C59.8769 14.6937 60.0583 14.3933 60.0583 14.144V12.189C60.0583 11.6677 59.8826 11.2427 59.5313 10.914C59.1799 10.5853 58.7776 10.421 58.3243 10.421C57.8596 10.421 57.4516 10.6023 57.1003 10.965C56.7603 11.3277 56.5903 11.7357 56.5903 12.189V13.753ZM63.5745 5.984C63.5745 5.72333 63.6765 5.50233 63.8805 5.321C64.0845 5.13967 64.3281 5.049 64.6115 5.049C64.8948 5.049 65.1385 5.13967 65.3425 5.321C65.5465 5.50233 65.6485 5.72333 65.6485 5.984C65.6485 6.23333 65.5465 6.45433 65.3425 6.647C65.1385 6.82833 64.8948 6.919 64.6115 6.919C64.3281 6.919 64.0845 6.82833 63.8805 6.647C63.6765 6.45433 63.5745 6.23333 63.5745 5.984ZM63.7275 16.405V9.52C63.7275 9.35 63.8068 9.214 63.9655 9.112C64.1355 8.99867 64.3508 8.942 64.6115 8.942C64.8721 8.942 65.0875 8.99867 65.2575 9.112C65.4275 9.214 65.5125 9.35 65.5125 9.52V16.405C65.5125 16.5523 65.4218 16.6883 65.2405 16.813C65.0705 16.9377 64.8608 17 64.6115 17C64.3621 17 64.1525 16.9377 63.9825 16.813C63.8125 16.6883 63.7275 16.5523 63.7275 16.405ZM66.8698 14.892C66.8698 13.9853 67.2098 13.3563 67.8898 13.005C68.5698 12.6423 69.5558 12.461 70.8478 12.461H71.5958V12.155C71.5958 11.6563 71.4542 11.2257 71.1708 10.863C70.8988 10.5003 70.4795 10.319 69.9128 10.319C69.4255 10.319 68.9948 10.404 68.6208 10.574C68.2582 10.744 68.0598 10.829 68.0258 10.829C67.8332 10.829 67.6745 10.7383 67.5498 10.557C67.4365 10.3643 67.3798 10.1547 67.3798 9.928C67.3798 9.63333 67.6518 9.37833 68.1958 9.163C68.7512 8.94767 69.3348 8.84 69.9468 8.84C71.1142 8.84 71.9755 9.15733 72.5308 9.792C73.0975 10.4153 73.3808 11.1973 73.3808 12.138V16.405C73.3808 16.5637 73.2958 16.7053 73.1258 16.83C72.9672 16.9433 72.7632 17 72.5138 17C72.2872 17 72.0945 16.9433 71.9358 16.83C71.7772 16.7053 71.6978 16.5637 71.6978 16.405V15.81C70.9385 16.694 70.0828 17.136 69.1308 17.136C68.4735 17.136 67.9295 16.9433 67.4988 16.558C67.0795 16.1727 66.8698 15.6173 66.8698 14.892ZM68.6718 14.671C68.6718 15.0337 68.7738 15.3113 68.9778 15.504C69.1818 15.6853 69.4482 15.776 69.7768 15.776C70.2075 15.776 70.6155 15.5947 71.0008 15.232C71.3975 14.8693 71.5958 14.484 71.5958 14.076V13.447H71.1708C70.6608 13.447 70.2415 13.4697 69.9128 13.515C69.5955 13.5603 69.3065 13.6793 69.0458 13.872C68.7965 14.0647 68.6718 14.331 68.6718 14.671ZM75.1822 14.348V5.831C75.1822 5.67233 75.2728 5.53633 75.4542 5.423C75.6355 5.30967 75.8395 5.253 76.0662 5.253C76.2928 5.253 76.4968 5.30967 76.6782 5.423C76.8708 5.53633 76.9672 5.67233 76.9672 5.831V8.942H79.0412C79.1885 8.942 79.3075 9.01 79.3982 9.146C79.4888 9.27067 79.5342 9.42367 79.5342 9.605C79.5342 9.78633 79.4888 9.945 79.3982 10.081C79.3075 10.2057 79.1885 10.268 79.0412 10.268H76.9672V14.348C76.9672 14.756 77.0522 15.045 77.2222 15.215C77.4035 15.385 77.7152 15.47 78.1572 15.47H78.7522C78.9902 15.47 79.1772 15.5437 79.3132 15.691C79.4492 15.8383 79.5172 16.0197 79.5172 16.235C79.5172 16.4503 79.4492 16.6317 79.3132 16.779C79.1772 16.9263 78.9902 17 78.7522 17H78.1572C76.1738 17 75.1822 16.116 75.1822 14.348ZM80.3717 13.753V12.138C80.3717 11.2427 80.7173 10.472 81.4087 9.826C82.1 9.16867 82.933 8.84 83.9077 8.84C84.837 8.84 85.6303 9.14033 86.2877 9.741C86.9563 10.3303 87.2907 11.0783 87.2907 11.985C87.2907 12.325 87.251 12.6027 87.1717 12.818C87.0923 13.022 86.9677 13.1693 86.7977 13.26C86.6277 13.3393 86.469 13.3903 86.3217 13.413C86.1743 13.4357 85.9817 13.447 85.7437 13.447H82.1567V13.838C82.1567 14.4047 82.3607 14.858 82.7687 15.198C83.1767 15.5267 83.7093 15.691 84.3667 15.691C84.8313 15.691 85.2677 15.5833 85.6757 15.368C86.095 15.1527 86.35 15.045 86.4407 15.045C86.6333 15.045 86.7977 15.1357 86.9337 15.317C87.0697 15.4983 87.1377 15.674 87.1377 15.844C87.1377 16.1273 86.8657 16.4163 86.3217 16.711C85.7777 16.9943 85.109 17.136 84.3157 17.136C83.1597 17.136 82.2133 16.8243 81.4767 16.201C80.74 15.5777 80.3717 14.7617 80.3717 13.753ZM82.1567 12.342H84.9787C85.228 12.342 85.3923 12.308 85.4717 12.24C85.5623 12.172 85.6077 12.036 85.6077 11.832C85.6077 11.3787 85.4433 10.9933 85.1147 10.676C84.786 10.3587 84.378 10.2 83.8907 10.2C83.4147 10.2 83.0067 10.353 82.6667 10.659C82.3267 10.9537 82.1567 11.3333 82.1567 11.798V12.342ZM92.2008 13.311V8.364C92.2008 7.06067 92.5464 6.103 93.2378 5.491C93.9291 4.879 94.8358 4.573 95.9578 4.573C97.1024 4.573 98.0318 4.862 98.7458 5.44C99.4711 6.00667 99.8338 6.766 99.8338 7.718C99.8338 8.04667 99.7601 8.27333 99.6128 8.398C99.4768 8.52267 99.2501 8.585 98.9328 8.585C98.3434 8.585 98.0431 8.38667 98.0318 7.99C97.9071 6.77733 97.2328 6.171 96.0088 6.171C94.6714 6.171 94.0028 6.902 94.0028 8.364V13.311C94.0028 14.773 94.6714 15.504 96.0088 15.504C96.6548 15.504 97.1534 15.3227 97.5048 14.96C97.8561 14.5973 98.0318 14.0477 98.0318 13.311V11.917H96.3148C96.1334 11.917 95.9918 11.849 95.8898 11.713C95.7878 11.5657 95.7368 11.39 95.7368 11.186C95.7368 11.0047 95.7878 10.8403 95.8898 10.693C95.9918 10.5457 96.1334 10.472 96.3148 10.472H99.2388C99.4201 10.472 99.5618 10.5343 99.6638 10.659C99.7771 10.7723 99.8338 10.914 99.8338 11.084V13.311C99.8338 14.6143 99.4824 15.572 98.7798 16.184C98.0884 16.796 97.1648 17.102 96.0088 17.102C94.8528 17.102 93.9291 16.796 93.2378 16.184C92.5464 15.572 92.2008 14.6143 92.2008 13.311ZM101.579 16.405V9.52C101.579 9.35 101.658 9.214 101.817 9.112C101.987 8.99867 102.197 8.942 102.446 8.942C102.673 8.942 102.865 8.99867 103.024 9.112C103.183 9.214 103.262 9.35 103.262 9.52V10.268C103.455 9.87133 103.744 9.537 104.129 9.265C104.526 8.98167 104.956 8.84 105.421 8.84H105.965C106.146 8.84 106.305 8.91933 106.441 9.078C106.577 9.22533 106.645 9.40667 106.645 9.622C106.645 9.83733 106.577 10.0243 106.441 10.183C106.305 10.3417 106.146 10.421 105.965 10.421H105.421C104.877 10.421 104.395 10.6533 103.976 11.118C103.568 11.5827 103.364 12.1833 103.364 12.92V16.405C103.364 16.5523 103.273 16.6883 103.092 16.813C102.911 16.9377 102.695 17 102.446 17C102.197 17 101.987 16.9377 101.817 16.813C101.658 16.6883 101.579 16.5523 101.579 16.405ZM107.183 13.753V12.189C107.183 11.2937 107.528 10.5117 108.22 9.843C108.911 9.17433 109.738 8.84 110.702 8.84C111.642 8.84 112.464 9.17433 113.167 9.843C113.869 10.5003 114.221 11.2823 114.221 12.189V13.753C114.221 14.637 113.864 15.4247 113.15 16.116C112.447 16.796 111.631 17.136 110.702 17.136C109.761 17.136 108.939 16.796 108.237 16.116C107.534 15.436 107.183 14.6483 107.183 13.753ZM108.968 13.753C108.968 14.2177 109.138 14.637 109.478 15.011C109.818 15.3737 110.226 15.555 110.702 15.555C111.166 15.555 111.569 15.3737 111.909 15.011C112.26 14.637 112.436 14.2177 112.436 13.753V12.189C112.436 11.7357 112.26 11.3277 111.909 10.965C111.569 10.6023 111.166 10.421 110.702 10.421C110.226 10.421 109.818 10.6023 109.478 10.965C109.138 11.3277 108.968 11.7357 108.968 12.189V13.753ZM115.722 13.787V9.537C115.722 9.37833 115.813 9.24233 115.994 9.129C116.175 9.00433 116.385 8.942 116.623 8.942C116.861 8.942 117.065 9.00433 117.235 9.129C117.416 9.24233 117.507 9.37833 117.507 9.537V13.787C117.507 14.2403 117.677 14.6483 118.017 15.011C118.368 15.3737 118.776 15.555 119.241 15.555C119.717 15.555 120.125 15.3793 120.465 15.028C120.805 14.6653 120.975 14.2517 120.975 13.787V9.52C120.975 9.36133 121.06 9.22533 121.23 9.112C121.411 8.99867 121.627 8.942 121.876 8.942C122.125 8.942 122.329 8.99867 122.488 9.112C122.658 9.22533 122.743 9.36133 122.743 9.52V13.787C122.743 14.6823 122.397 15.4643 121.706 16.133C121.015 16.8017 120.193 17.136 119.241 17.136C118.289 17.136 117.462 16.8017 116.759 16.133C116.068 15.4643 115.722 14.6823 115.722 13.787ZM124.556 20.23V9.52C124.556 9.35 124.635 9.214 124.794 9.112C124.964 8.99867 125.168 8.942 125.406 8.942C125.644 8.942 125.842 8.99867 126.001 9.112C126.16 9.214 126.239 9.35 126.239 9.52V10.132C126.443 9.76933 126.743 9.46333 127.14 9.214C127.548 8.96467 128.007 8.84 128.517 8.84C129.367 8.84 130.087 9.16867 130.676 9.826C131.277 10.4833 131.577 11.271 131.577 12.189V13.753C131.577 14.637 131.277 15.4247 130.676 16.116C130.075 16.796 129.378 17.136 128.585 17.136C128.098 17.136 127.644 17.0057 127.225 16.745C126.817 16.4843 126.522 16.1727 126.341 15.81V20.23C126.341 20.3887 126.25 20.5247 126.069 20.638C125.888 20.7627 125.672 20.825 125.423 20.825C125.174 20.825 124.964 20.7627 124.794 20.638C124.635 20.5247 124.556 20.3887 124.556 20.23ZM126.341 14.144C126.341 14.3933 126.511 14.6937 126.851 15.045C127.202 15.385 127.605 15.555 128.058 15.555C128.511 15.555 128.914 15.3737 129.265 15.011C129.616 14.637 129.792 14.2177 129.792 13.753V12.189C129.792 11.7357 129.616 11.3277 129.265 10.965C128.914 10.6023 128.5 10.421 128.024 10.421C127.582 10.421 127.191 10.5853 126.851 10.914C126.511 11.2313 126.341 11.6563 126.341 12.189V14.144ZM132.663 15.776C132.663 15.606 132.719 15.4303 132.833 15.249C132.957 15.0677 133.105 14.977 133.275 14.977C133.377 14.977 133.518 15.045 133.7 15.181C133.881 15.3057 134.125 15.436 134.431 15.572C134.737 15.6967 135.105 15.759 135.536 15.759C136.499 15.759 136.981 15.453 136.981 14.841C136.981 14.5123 136.839 14.2573 136.556 14.076C136.272 13.8833 135.927 13.736 135.519 13.634C135.122 13.5207 134.725 13.396 134.329 13.26C133.932 13.124 133.592 12.8917 133.309 12.563C133.025 12.2343 132.884 11.8093 132.884 11.288C132.884 10.6193 133.122 10.047 133.598 9.571C134.074 9.08367 134.805 8.84 135.791 8.84C136.437 8.84 137.02 8.942 137.542 9.146C138.074 9.33867 138.341 9.571 138.341 9.843C138.341 10.0017 138.273 10.1887 138.137 10.404C138.012 10.608 137.853 10.71 137.661 10.71C137.593 10.71 137.36 10.6307 136.964 10.472C136.567 10.302 136.187 10.217 135.825 10.217C135.371 10.217 135.026 10.319 134.788 10.523C134.561 10.727 134.448 10.9537 134.448 11.203C134.448 11.475 134.589 11.6903 134.873 11.849C135.156 12.0077 135.502 12.138 135.91 12.24C136.318 12.342 136.72 12.4667 137.117 12.614C137.525 12.7613 137.87 13.0163 138.154 13.379C138.437 13.7417 138.579 14.2063 138.579 14.773C138.579 15.5097 138.318 16.0877 137.797 16.507C137.275 16.9263 136.539 17.136 135.587 17.136C134.782 17.136 134.091 16.9943 133.513 16.711C132.946 16.4277 132.663 16.116 132.663 15.776ZM140.216 16.813C140.023 16.609 139.927 16.3653 139.927 16.082C139.927 15.7987 140.023 15.5607 140.216 15.368C140.408 15.164 140.652 15.062 140.947 15.062C141.219 15.062 141.451 15.164 141.644 15.368C141.848 15.5607 141.95 15.7987 141.95 16.082C141.95 16.354 141.848 16.592 141.644 16.796C141.451 17 141.219 17.102 140.947 17.102C140.652 17.102 140.408 17.0057 140.216 16.813ZM140.216 11.577C140.023 11.373 139.927 11.1293 139.927 10.846C139.927 10.5627 140.023 10.3247 140.216 10.132C140.408 9.928 140.652 9.826 140.947 9.826C141.219 9.826 141.451 9.928 141.644 10.132C141.848 10.3247 141.95 10.5627 141.95 10.846C141.95 11.118 141.848 11.356 141.644 11.56C141.451 11.764 141.219 11.866 140.947 11.866C140.652 11.866 140.408 11.7697 140.216 11.577Z" fill="#596F62"/>
<path d="M38.6182 32.577C38.6182 32.4297 38.6832 32.2997 38.8132 32.187L39.8792 30.679C39.9746 30.549 40.0829 30.484 40.2042 30.484C40.2996 30.484 40.3862 30.5143 40.4642 30.575C40.5422 30.6357 40.5812 30.7137 40.5812 30.809V39.662C40.5812 39.766 40.5379 39.8483 40.4512 39.909C40.3646 39.9697 40.2649 40 40.1522 40C40.0309 40 39.9269 39.9697 39.8402 39.909C39.7622 39.8483 39.7232 39.766 39.7232 39.662V31.953L39.2032 32.798C39.1339 32.902 39.0516 32.954 38.9562 32.954C38.8609 32.954 38.7786 32.9193 38.7092 32.85C38.6486 32.772 38.6182 32.681 38.6182 32.577ZM42.0034 39.48C42.0034 39.3067 42.0597 39.1637 42.1724 39.051C42.2851 38.9297 42.4281 38.869 42.6014 38.869C42.7574 38.869 42.8917 38.9297 43.0044 39.051C43.1257 39.1723 43.1864 39.3153 43.1864 39.48C43.1864 39.636 43.1257 39.7747 43.0044 39.896C42.8917 40.0173 42.7574 40.078 42.6014 40.078C42.4281 40.078 42.2851 40.0217 42.1724 39.909C42.0597 39.7877 42.0034 39.6447 42.0034 39.48ZM44.0691 37.868C44.0691 37.582 44.2077 37.439 44.4851 37.439C44.7797 37.439 44.9271 37.5603 44.9271 37.803C44.9271 38.2623 45.1004 38.6263 45.4471 38.895C45.7937 39.155 46.2314 39.285 46.7601 39.285C47.3494 39.285 47.8044 39.1247 48.1251 38.804C48.4457 38.4747 48.6061 37.9807 48.6061 37.322V37.075C48.6061 36.4337 48.4457 35.9527 48.1251 35.632C47.8044 35.3113 47.3537 35.151 46.7731 35.151H44.9661C44.6714 35.151 44.5241 35.0427 44.5241 34.826C44.5241 34.8087 44.5241 34.7653 44.5241 34.696C44.5327 34.6267 44.5371 34.5833 44.5371 34.566L44.7971 30.822C44.8231 30.6053 44.9141 30.497 45.0701 30.497H48.7101C48.9007 30.497 48.9961 30.627 48.9961 30.887C48.9961 31.1557 48.9007 31.29 48.7101 31.29H45.5641L45.3561 34.41H46.7731C47.5964 34.41 48.2507 34.6223 48.7361 35.047C49.2214 35.4717 49.4641 36.1477 49.4641 37.075V37.322C49.4641 38.2667 49.2171 38.9643 48.7231 39.415C48.2377 39.857 47.5877 40.078 46.7731 40.078C45.9411 40.078 45.2824 39.8657 44.7971 39.441C44.3117 39.0163 44.0691 38.492 44.0691 37.868ZM53.2838 39.662V30.393C53.2838 30.3063 53.3228 30.2327 53.4008 30.172C53.4788 30.1113 53.5785 30.081 53.6998 30.081C53.8212 30.081 53.9208 30.1113 53.9988 30.172C54.0855 30.2327 54.1288 30.3063 54.1288 30.393V34.761C54.2762 34.4837 54.4972 34.2497 54.7918 34.059C55.0952 33.8683 55.4462 33.773 55.8448 33.773C56.4688 33.773 57.0062 34.0113 57.4568 34.488C57.9162 34.9647 58.1458 35.5367 58.1458 36.204V39.662C58.1458 39.766 58.1025 39.8483 58.0158 39.909C57.9378 39.9697 57.8382 40 57.7168 40C57.6128 40 57.5175 39.9697 57.4308 39.909C57.3442 39.8483 57.3008 39.766 57.3008 39.662V36.204C57.3008 35.7793 57.1405 35.398 56.8198 35.06C56.4992 34.722 56.1222 34.553 55.6888 34.553C55.2815 34.553 54.9175 34.7047 54.5968 35.008C54.2848 35.3113 54.1288 35.71 54.1288 36.204V39.662C54.1288 39.7487 54.0855 39.8267 53.9988 39.896C53.9122 39.9653 53.8125 40 53.6998 40C53.5872 40 53.4875 39.9653 53.4008 39.896C53.3228 39.8267 53.2838 39.7487 53.2838 39.662ZM59.4861 37.621V36.204C59.4861 35.5453 59.7287 34.9777 60.2141 34.501C60.6994 34.0157 61.2757 33.773 61.9431 33.773C62.6104 33.773 63.1911 34.0113 63.6851 34.488C64.1791 34.9647 64.4261 35.5367 64.4261 36.204V37.621C64.4261 38.271 64.1747 38.8473 63.6721 39.35C63.1781 39.844 62.6017 40.091 61.9431 40.091C61.2931 40.091 60.7211 39.844 60.2271 39.35C59.7331 38.8473 59.4861 38.271 59.4861 37.621ZM60.3311 37.621C60.3311 38.063 60.4871 38.4573 60.7991 38.804C61.1197 39.142 61.5011 39.311 61.9431 39.311C62.3937 39.311 62.7794 39.142 63.1001 38.804C63.4207 38.4573 63.5811 38.063 63.5811 37.621V36.204C63.5811 35.7793 63.4164 35.398 63.0871 35.06C62.7664 34.722 62.3851 34.553 61.9431 34.553C61.5011 34.553 61.1197 34.722 60.7991 35.06C60.4871 35.398 60.3311 35.7793 60.3311 36.204V37.621ZM65.7491 37.647V34.176C65.7491 34.098 65.7881 34.0243 65.8661 33.955C65.9528 33.8857 66.0568 33.851 66.1781 33.851C66.2821 33.851 66.3775 33.8857 66.4641 33.955C66.5508 34.0243 66.5941 34.098 66.5941 34.176V37.647C66.5941 38.0803 66.7545 38.466 67.0751 38.804C67.3958 39.142 67.7771 39.311 68.2191 39.311C68.6611 39.311 69.0425 39.142 69.3631 38.804C69.6838 38.466 69.8441 38.0803 69.8441 37.647V34.163C69.8441 34.0763 69.8875 34.0027 69.9741 33.942C70.0608 33.8813 70.1605 33.851 70.2731 33.851C70.3858 33.851 70.4811 33.8813 70.5591 33.942C70.6458 34.0027 70.6891 34.0763 70.6891 34.163V37.647C70.6891 38.297 70.4421 38.869 69.9481 39.363C69.4628 39.8483 68.8865 40.091 68.2191 40.091C67.5431 40.091 66.9625 39.8483 66.4771 39.363C65.9918 38.869 65.7491 38.297 65.7491 37.647ZM72.2633 39.662V34.163C72.2633 34.0763 72.3023 34.0027 72.3803 33.942C72.4583 33.8813 72.558 33.851 72.6793 33.851C72.792 33.851 72.8873 33.8813 72.9653 33.942C73.0433 34.0027 73.0823 34.0763 73.0823 34.163V34.8C73.2383 34.514 73.468 34.2713 73.7713 34.072C74.0747 33.8727 74.4257 33.773 74.8243 33.773H75.2793C75.366 33.773 75.444 33.812 75.5133 33.89C75.5827 33.968 75.6173 34.059 75.6173 34.163C75.6173 34.267 75.5827 34.358 75.5133 34.436C75.444 34.514 75.366 34.553 75.2793 34.553H74.8243C74.3737 34.553 73.975 34.7307 73.6283 35.086C73.2817 35.4327 73.1083 35.8877 73.1083 36.451V39.662C73.1083 39.7487 73.065 39.8267 72.9783 39.896C72.9003 39.9653 72.8007 40 72.6793 40C72.5667 40 72.467 39.9653 72.3803 39.896C72.3023 39.8267 72.2633 39.7487 72.2633 39.662ZM79.2346 37.296V33.266C79.2346 32.3213 79.4859 31.6237 79.9886 31.173C80.4999 30.7223 81.1586 30.497 81.9646 30.497C82.7879 30.497 83.4379 30.7093 83.9146 31.134C84.3999 31.55 84.6426 32.0613 84.6426 32.668C84.6426 32.876 84.6079 33.0147 84.5386 33.084C84.4779 33.1533 84.3696 33.188 84.2136 33.188C83.9449 33.188 83.8019 33.0797 83.7846 32.863C83.7759 32.733 83.7586 32.6073 83.7326 32.486C83.7066 32.3647 83.6546 32.2303 83.5766 32.083C83.4986 31.927 83.3946 31.7927 83.2646 31.68C83.1433 31.5673 82.9699 31.4763 82.7446 31.407C82.5193 31.329 82.2593 31.29 81.9646 31.29C80.7166 31.29 80.0926 31.9487 80.0926 33.266V37.296C80.0926 38.622 80.7339 39.285 82.0166 39.285C82.3806 39.285 82.6839 39.2373 82.9266 39.142C83.1693 39.038 83.3469 38.8907 83.4596 38.7C83.5723 38.5093 83.6459 38.349 83.6806 38.219C83.7239 38.0803 83.7586 37.9027 83.7846 37.686C83.8106 37.4607 83.9536 37.348 84.2136 37.348C84.3696 37.348 84.4779 37.387 84.5386 37.465C84.6079 37.5343 84.6426 37.673 84.6426 37.881C84.6426 38.4963 84.3956 39.0163 83.9016 39.441C83.4163 39.8657 82.7576 40.078 81.9256 40.078C81.1283 40.078 80.4783 39.8527 79.9756 39.402C79.4816 38.9513 79.2346 38.2493 79.2346 37.296ZM86.0783 39.662V30.393C86.0783 30.3063 86.1173 30.2327 86.1953 30.172C86.2733 30.1113 86.3729 30.081 86.4943 30.081C86.6156 30.081 86.7153 30.1113 86.7933 30.172C86.8799 30.2327 86.9233 30.3063 86.9233 30.393V39.662C86.9233 39.7487 86.8799 39.8267 86.7933 39.896C86.7153 39.9653 86.6156 40 86.4943 40C86.3816 40 86.2819 39.9653 86.1953 39.896C86.1173 39.8267 86.0783 39.7487 86.0783 39.662ZM88.2367 38.375C88.2367 37.7077 88.4923 37.244 89.0037 36.984C89.5237 36.724 90.2777 36.594 91.2657 36.594H91.9287V36.282C91.9287 35.8053 91.803 35.3937 91.5517 35.047C91.3003 34.6917 90.9147 34.514 90.3947 34.514C90.048 34.514 89.7317 34.579 89.4457 34.709C89.1683 34.8303 89.021 34.891 89.0037 34.891C88.8997 34.891 88.8173 34.8433 88.7567 34.748C88.696 34.6527 88.6657 34.5487 88.6657 34.436C88.6657 34.2713 88.852 34.1197 89.2247 33.981C89.5973 33.8423 89.996 33.773 90.4207 33.773C91.2353 33.773 91.829 34.0113 92.2017 34.488C92.583 34.956 92.7737 35.554 92.7737 36.282V39.662C92.7737 39.7573 92.7347 39.8397 92.6567 39.909C92.5787 39.9697 92.479 40 92.3577 40C92.245 40 92.1497 39.9697 92.0717 39.909C92.0023 39.8397 91.9677 39.7573 91.9677 39.662V39.09C91.387 39.7573 90.7327 40.091 90.0047 40.091C89.4847 40.091 89.06 39.948 88.7307 39.662C88.4013 39.3673 88.2367 38.9383 88.2367 38.375ZM89.0817 38.297C89.0817 38.661 89.1857 38.934 89.3937 39.116C89.6017 39.2893 89.8747 39.376 90.2127 39.376C90.62 39.376 91.0057 39.2243 91.3697 38.921C91.7423 38.6177 91.9287 38.3143 91.9287 38.011V37.179H91.3827C91.036 37.179 90.7413 37.192 90.4987 37.218C90.2647 37.244 90.0307 37.2917 89.7967 37.361C89.5627 37.4303 89.385 37.543 89.2637 37.699C89.1423 37.855 89.0817 38.0543 89.0817 38.297ZM93.9759 39.155C93.9759 39.0683 94.0062 38.9817 94.0669 38.895C94.1275 38.8083 94.1969 38.765 94.2749 38.765C94.3355 38.765 94.4309 38.817 94.5609 38.921C94.6909 39.0163 94.8772 39.116 95.1199 39.22C95.3625 39.324 95.6529 39.376 95.9909 39.376C96.4502 39.376 96.7882 39.2893 97.0049 39.116C97.2215 38.9427 97.3299 38.7217 97.3299 38.453C97.3299 38.141 97.2172 37.894 96.9919 37.712C96.7752 37.5213 96.5109 37.3827 96.1989 37.296C95.8869 37.2093 95.5705 37.114 95.2499 37.01C94.9379 36.906 94.6692 36.737 94.4439 36.503C94.2272 36.2603 94.1189 35.9397 94.1189 35.541C94.1189 35.0643 94.2879 34.6527 94.6259 34.306C94.9725 33.9507 95.4882 33.773 96.1729 33.773C96.5975 33.773 96.9919 33.8423 97.3559 33.981C97.7285 34.111 97.9149 34.254 97.9149 34.41C97.9149 34.4967 97.8802 34.592 97.8109 34.696C97.7415 34.8 97.6592 34.852 97.5639 34.852C97.5379 34.852 97.3775 34.7913 97.0829 34.67C96.7882 34.5487 96.4892 34.488 96.1859 34.488C95.7525 34.488 95.4275 34.592 95.2109 34.8C94.9942 35.008 94.8859 35.242 94.8859 35.502C94.8859 35.7707 94.9942 35.983 95.2109 36.139C95.4362 36.295 95.7049 36.4163 96.0169 36.503C96.3375 36.581 96.6539 36.6763 96.9659 36.789C97.2865 36.893 97.5552 37.0837 97.7719 37.361C97.9972 37.6297 98.1099 37.9807 98.1099 38.414C98.1099 38.934 97.9235 39.3457 97.5509 39.649C97.1869 39.9437 96.6755 40.091 96.0169 40.091C95.4449 40.091 94.9595 39.9913 94.5609 39.792C94.1709 39.584 93.9759 39.3717 93.9759 39.155ZM98.9778 39.155C98.9778 39.0683 99.0082 38.9817 99.0688 38.895C99.1295 38.8083 99.1988 38.765 99.2768 38.765C99.3375 38.765 99.4328 38.817 99.5628 38.921C99.6928 39.0163 99.8792 39.116 100.122 39.22C100.364 39.324 100.655 39.376 100.993 39.376C101.452 39.376 101.79 39.2893 102.007 39.116C102.223 38.9427 102.332 38.7217 102.332 38.453C102.332 38.141 102.219 37.894 101.994 37.712C101.777 37.5213 101.513 37.3827 101.201 37.296C100.889 37.2093 100.572 37.114 100.252 37.01C99.9398 36.906 99.6712 36.737 99.4458 36.503C99.2292 36.2603 99.1208 35.9397 99.1208 35.541C99.1208 35.0643 99.2898 34.6527 99.6278 34.306C99.9745 33.9507 100.49 33.773 101.175 33.773C101.599 33.773 101.994 33.8423 102.358 33.981C102.73 34.111 102.917 34.254 102.917 34.41C102.917 34.4967 102.882 34.592 102.813 34.696C102.743 34.8 102.661 34.852 102.566 34.852C102.54 34.852 102.379 34.7913 102.085 34.67C101.79 34.5487 101.491 34.488 101.188 34.488C100.754 34.488 100.429 34.592 100.213 34.8C99.9962 35.008 99.8878 35.242 99.8878 35.502C99.8878 35.7707 99.9962 35.983 100.213 36.139C100.438 36.295 100.707 36.4163 101.019 36.503C101.339 36.581 101.656 36.6763 101.968 36.789C102.288 36.893 102.557 37.0837 102.774 37.361C102.999 37.6297 103.112 37.9807 103.112 38.414C103.112 38.934 102.925 39.3457 102.553 39.649C102.189 39.9437 101.677 40.091 101.019 40.091C100.447 40.091 99.9615 39.9913 99.5628 39.792C99.1728 39.584 98.9778 39.3717 98.9778 39.155Z" fill="black"/>
</svg>
