<svg width="202" height="58" viewBox="0 0 202 58" fill="none" xmlns="http://www.w3.org/2000/svg">
<path d="M1.93166 24.16V8.272C1.93166 8 2.05166 7.8 2.29166 7.672C2.54766 7.528 2.85166 7.456 3.20366 7.456C3.55566 7.456 3.85166 7.528 4.09166 7.672C4.34766 7.8 4.47566 8 4.47566 8.272V24.16C4.47566 24.416 4.34766 24.624 4.09166 24.784C3.85166 24.928 3.55566 25 3.20366 25C2.86766 25 2.57166 24.928 2.31566 24.784C2.05966 24.624 1.93166 24.416 1.93166 24.16ZM7.38641 24.16V14.44C7.38641 14.2 7.49841 14.008 7.72241 13.864C7.96241 13.704 8.26641 13.624 8.63441 13.624C8.95441 13.624 9.21841 13.704 9.42641 13.864C9.65041 14.008 9.76241 14.2 9.76241 14.44V15.304C10.0184 14.792 10.4264 14.36 10.9864 14.008C11.5624 13.656 12.2264 13.48 12.9784 13.48C14.1144 13.48 15.0904 13.944 15.9064 14.872C16.7384 15.8 17.1544 16.912 17.1544 18.208V24.16C17.1544 24.416 17.0264 24.624 16.7704 24.784C16.5304 24.928 16.2344 25 15.8824 25C15.5624 25 15.2744 24.928 15.0184 24.784C14.7624 24.624 14.6344 24.416 14.6344 24.16V18.208C14.6344 17.568 14.3944 16.992 13.9144 16.48C13.4344 15.968 12.8664 15.712 12.2104 15.712C11.6024 15.712 11.0664 15.944 10.6024 16.408C10.1384 16.856 9.90641 17.456 9.90641 18.208V24.16C9.90641 24.368 9.77841 24.56 9.52241 24.736C9.26641 24.912 8.97041 25 8.63441 25C8.28241 25 7.98641 24.912 7.74641 24.736C7.50641 24.56 7.38641 24.368 7.38641 24.16ZM19.6671 21.256V9.232C19.6671 9.008 19.7951 8.816 20.0511 8.656C20.3071 8.496 20.5951 8.416 20.9151 8.416C21.2351 8.416 21.5231 8.496 21.7791 8.656C22.0511 8.816 22.1871 9.008 22.1871 9.232V13.624H25.1151C25.3231 13.624 25.4911 13.72 25.6191 13.912C25.7471 14.088 25.8111 14.304 25.8111 14.56C25.8111 14.816 25.7471 15.04 25.6191 15.232C25.4911 15.408 25.3231 15.496 25.1151 15.496H22.1871V21.256C22.1871 21.832 22.3071 22.24 22.5471 22.48C22.8031 22.72 23.2431 22.84 23.8671 22.84H24.7071C25.0431 22.84 25.3071 22.944 25.4991 23.152C25.6911 23.36 25.7871 23.616 25.7871 23.92C25.7871 24.224 25.6911 24.48 25.4991 24.688C25.3071 24.896 25.0431 25 24.7071 25H23.8671C21.0671 25 19.6671 23.752 19.6671 21.256ZM26.9935 20.416V18.136C26.9935 16.872 27.4815 15.784 28.4575 14.872C29.4335 13.944 30.6095 13.48 31.9855 13.48C33.2975 13.48 34.4175 13.904 35.3455 14.752C36.2895 15.584 36.7615 16.64 36.7615 17.92C36.7615 18.4 36.7055 18.792 36.5935 19.096C36.4815 19.384 36.3055 19.592 36.0655 19.72C35.8255 19.832 35.6015 19.904 35.3935 19.936C35.1855 19.968 34.9135 19.984 34.5775 19.984H29.5135V20.536C29.5135 21.336 29.8015 21.976 30.3775 22.456C30.9535 22.92 31.7055 23.152 32.6335 23.152C33.2895 23.152 33.9055 23 34.4815 22.696C35.0735 22.392 35.4335 22.24 35.5615 22.24C35.8335 22.24 36.0655 22.368 36.2575 22.624C36.4495 22.88 36.5455 23.128 36.5455 23.368C36.5455 23.768 36.1615 24.176 35.3935 24.592C34.6255 24.992 33.6815 25.192 32.5615 25.192C30.9295 25.192 29.5935 24.752 28.5535 23.872C27.5135 22.992 26.9935 21.84 26.9935 20.416ZM29.5135 18.424H33.4975C33.8495 18.424 34.0815 18.376 34.1935 18.28C34.3215 18.184 34.3855 17.992 34.3855 17.704C34.3855 17.064 34.1535 16.52 33.6895 16.072C33.2255 15.624 32.6495 15.4 31.9615 15.4C31.2895 15.4 30.7135 15.616 30.2335 16.048C29.7535 16.464 29.5135 17 29.5135 17.656V18.424ZM38.7927 24.16V14.44C38.7927 14.2 38.9047 14.008 39.1287 13.864C39.3687 13.704 39.6647 13.624 40.0167 13.624C40.3367 13.624 40.6087 13.704 40.8327 13.864C41.0567 14.008 41.1687 14.2 41.1687 14.44V15.496C41.4407 14.936 41.8487 14.464 42.3927 14.08C42.9527 13.68 43.5607 13.48 44.2167 13.48H44.9847C45.2407 13.48 45.4647 13.592 45.6567 13.816C45.8487 14.024 45.9447 14.28 45.9447 14.584C45.9447 14.888 45.8487 15.152 45.6567 15.376C45.4647 15.6 45.2407 15.712 44.9847 15.712H44.2167C43.4487 15.712 42.7687 16.04 42.1767 16.696C41.6007 17.352 41.3127 18.2 41.3127 19.24V24.16C41.3127 24.368 41.1847 24.56 40.9287 24.736C40.6727 24.912 40.3687 25 40.0167 25C39.6647 25 39.3687 24.912 39.1287 24.736C38.9047 24.56 38.7927 24.368 38.7927 24.16ZM47.4411 24.16V14.44C47.4411 14.2 47.5531 14.008 47.7771 13.864C48.0171 13.704 48.3211 13.624 48.6891 13.624C48.9931 13.624 49.2571 13.704 49.4811 13.864C49.7051 14.008 49.8171 14.2 49.8171 14.44V15.304C50.5051 14.088 51.5691 13.48 53.0091 13.48C53.7131 13.48 54.3371 13.704 54.8811 14.152C55.4411 14.584 55.8651 15.16 56.1531 15.88C56.5531 15.096 57.0731 14.504 57.7131 14.104C58.3691 13.688 59.0571 13.48 59.7771 13.48C60.9131 13.48 61.8891 13.912 62.7051 14.776C63.5371 15.624 63.9531 16.768 63.9531 18.208V24.16C63.9531 24.368 63.8251 24.56 63.5691 24.736C63.3131 24.912 63.0171 25 62.6811 25C62.3611 25 62.0731 24.912 61.8171 24.736C61.5611 24.56 61.4331 24.368 61.4331 24.16V18.208C61.4331 17.424 61.2091 16.808 60.7611 16.36C60.3131 15.912 59.7931 15.688 59.2011 15.688C58.6091 15.688 58.0811 15.912 57.6171 16.36C57.1691 16.808 56.9451 17.408 56.9451 18.16V24.184C56.9451 24.456 56.8171 24.664 56.5611 24.808C56.3211 24.936 56.0251 25 55.6731 25C55.3531 25 55.0651 24.936 54.8091 24.808C54.5531 24.664 54.4251 24.456 54.4251 24.184V18.184C54.4251 17.464 54.2011 16.872 53.7531 16.408C53.3211 15.944 52.8011 15.712 52.1931 15.712C51.5851 15.712 51.0571 15.936 50.6091 16.384C50.1771 16.832 49.9611 17.44 49.9611 18.208V24.16C49.9611 24.368 49.8331 24.56 49.5771 24.736C49.3211 24.912 49.0251 25 48.6891 25C48.3371 25 48.0411 24.912 47.8011 24.736C47.5611 24.56 47.4411 24.368 47.4411 24.16ZM66.0638 20.416V18.136C66.0638 16.872 66.5518 15.784 67.5278 14.872C68.5038 13.944 69.6798 13.48 71.0558 13.48C72.3678 13.48 73.4878 13.904 74.4158 14.752C75.3598 15.584 75.8318 16.64 75.8318 17.92C75.8318 18.4 75.7758 18.792 75.6638 19.096C75.5518 19.384 75.3758 19.592 75.1358 19.72C74.8958 19.832 74.6718 19.904 74.4638 19.936C74.2558 19.968 73.9838 19.984 73.6478 19.984H68.5838V20.536C68.5838 21.336 68.8718 21.976 69.4478 22.456C70.0238 22.92 70.7758 23.152 71.7038 23.152C72.3598 23.152 72.9758 23 73.5518 22.696C74.1438 22.392 74.5038 22.24 74.6318 22.24C74.9038 22.24 75.1358 22.368 75.3278 22.624C75.5198 22.88 75.6158 23.128 75.6158 23.368C75.6158 23.768 75.2318 24.176 74.4638 24.592C73.6958 24.992 72.7518 25.192 71.6318 25.192C69.9998 25.192 68.6638 24.752 67.6238 23.872C66.5838 22.992 66.0638 21.84 66.0638 20.416ZM68.5838 18.424H72.5678C72.9198 18.424 73.1518 18.376 73.2638 18.28C73.3918 18.184 73.4558 17.992 73.4558 17.704C73.4558 17.064 73.2238 16.52 72.7598 16.072C72.2958 15.624 71.7198 15.4 71.0318 15.4C70.3598 15.4 69.7838 15.616 69.3038 16.048C68.8238 16.464 68.5838 17 68.5838 17.656V18.424ZM77.431 20.416V18.208C77.431 16.912 77.847 15.8 78.679 14.872C79.527 13.944 80.543 13.48 81.727 13.48C82.431 13.48 83.055 13.656 83.599 14.008C84.143 14.36 84.559 14.792 84.847 15.304V7.672C84.847 7.432 84.967 7.24 85.207 7.096C85.447 6.936 85.751 6.856 86.119 6.856C86.487 6.856 86.783 6.936 87.007 7.096C87.247 7.24 87.367 7.432 87.367 7.672V24.16C87.367 24.368 87.247 24.56 87.007 24.736C86.767 24.912 86.471 25 86.119 25C85.815 25 85.543 24.912 85.303 24.736C85.079 24.56 84.967 24.368 84.967 24.16V23.32C84.711 23.832 84.271 24.272 83.647 24.64C83.039 25.008 82.375 25.192 81.655 25.192C80.535 25.192 79.551 24.712 78.703 23.752C77.855 22.776 77.431 21.664 77.431 20.416ZM79.951 20.416C79.951 21.072 80.191 21.664 80.671 22.192C81.151 22.704 81.719 22.96 82.375 22.96C82.999 22.96 83.567 22.72 84.079 22.24C84.591 21.744 84.847 21.32 84.847 20.968V18.208C84.847 17.472 84.599 16.872 84.103 16.408C83.607 15.944 83.039 15.712 82.399 15.712C81.743 15.712 81.167 15.968 80.671 16.48C80.191 16.992 79.951 17.568 79.951 18.208V20.416ZM89.811 9.448C89.811 9.08 89.955 8.768 90.243 8.512C90.531 8.256 90.875 8.128 91.275 8.128C91.675 8.128 92.019 8.256 92.307 8.512C92.595 8.768 92.739 9.08 92.739 9.448C92.739 9.8 92.595 10.112 92.307 10.384C92.019 10.64 91.675 10.768 91.275 10.768C90.875 10.768 90.531 10.64 90.243 10.384C89.955 10.112 89.811 9.8 89.811 9.448ZM90.027 24.16V14.44C90.027 14.2 90.139 14.008 90.363 13.864C90.603 13.704 90.907 13.624 91.275 13.624C91.643 13.624 91.947 13.704 92.187 13.864C92.427 14.008 92.547 14.2 92.547 14.44V24.16C92.547 24.368 92.419 24.56 92.163 24.736C91.923 24.912 91.627 25 91.275 25C90.923 25 90.627 24.912 90.387 24.736C90.147 24.56 90.027 24.368 90.027 24.16ZM94.4633 22.024C94.4633 20.744 94.9433 19.856 95.9033 19.36C96.8633 18.848 98.2553 18.592 100.079 18.592H101.135V18.16C101.135 17.456 100.935 16.848 100.535 16.336C100.151 15.824 99.5593 15.568 98.7593 15.568C98.0713 15.568 97.4633 15.688 96.9353 15.928C96.4233 16.168 96.1433 16.288 96.0953 16.288C95.8233 16.288 95.5993 16.16 95.4233 15.904C95.2633 15.632 95.1833 15.336 95.1833 15.016C95.1833 14.6 95.5673 14.24 96.3353 13.936C97.1193 13.632 97.9433 13.48 98.8073 13.48C100.455 13.48 101.671 13.928 102.455 14.824C103.255 15.704 103.655 16.808 103.655 18.136V24.16C103.655 24.384 103.535 24.584 103.295 24.76C103.071 24.92 102.783 25 102.431 25C102.111 25 101.839 24.92 101.615 24.76C101.391 24.584 101.279 24.384 101.279 24.16V23.32C100.207 24.568 98.9993 25.192 97.6553 25.192C96.7273 25.192 95.9593 24.92 95.3513 24.376C94.7593 23.832 94.4633 23.048 94.4633 22.024ZM97.0073 21.712C97.0073 22.224 97.1513 22.616 97.4393 22.888C97.7273 23.144 98.1033 23.272 98.5673 23.272C99.1753 23.272 99.7513 23.016 100.295 22.504C100.855 21.992 101.135 21.448 101.135 20.872V19.984H100.535C99.8153 19.984 99.2233 20.016 98.7593 20.08C98.3113 20.144 97.9033 20.312 97.5353 20.584C97.1833 20.856 97.0073 21.232 97.0073 21.712ZM106.198 21.256V9.232C106.198 9.008 106.326 8.816 106.582 8.656C106.838 8.496 107.126 8.416 107.446 8.416C107.766 8.416 108.054 8.496 108.31 8.656C108.582 8.816 108.718 9.008 108.718 9.232V13.624H111.646C111.854 13.624 112.022 13.72 112.15 13.912C112.278 14.088 112.342 14.304 112.342 14.56C112.342 14.816 112.278 15.04 112.15 15.232C112.022 15.408 111.854 15.496 111.646 15.496H108.718V21.256C108.718 21.832 108.838 22.24 109.078 22.48C109.334 22.72 109.774 22.84 110.398 22.84H111.238C111.574 22.84 111.838 22.944 112.03 23.152C112.222 23.36 112.318 23.616 112.318 23.92C112.318 24.224 112.222 24.48 112.03 24.688C111.838 24.896 111.574 25 111.238 25H110.398C107.598 25 106.198 23.752 106.198 21.256ZM113.525 20.416V18.136C113.525 16.872 114.013 15.784 114.989 14.872C115.965 13.944 117.141 13.48 118.517 13.48C119.829 13.48 120.949 13.904 121.877 14.752C122.821 15.584 123.293 16.64 123.293 17.92C123.293 18.4 123.237 18.792 123.125 19.096C123.013 19.384 122.837 19.592 122.597 19.72C122.357 19.832 122.133 19.904 121.925 19.936C121.717 19.968 121.445 19.984 121.109 19.984H116.045V20.536C116.045 21.336 116.333 21.976 116.909 22.456C117.485 22.92 118.237 23.152 119.165 23.152C119.821 23.152 120.437 23 121.013 22.696C121.605 22.392 121.965 22.24 122.093 22.24C122.365 22.24 122.597 22.368 122.789 22.624C122.981 22.88 123.077 23.128 123.077 23.368C123.077 23.768 122.693 24.176 121.925 24.592C121.157 24.992 120.213 25.192 119.093 25.192C117.461 25.192 116.125 24.752 115.085 23.872C114.045 22.992 113.525 21.84 113.525 20.416ZM116.045 18.424H120.029C120.381 18.424 120.613 18.376 120.725 18.28C120.853 18.184 120.917 17.992 120.917 17.704C120.917 17.064 120.685 16.52 120.221 16.072C119.757 15.624 119.181 15.4 118.493 15.4C117.821 15.4 117.245 15.616 116.765 16.048C116.285 16.464 116.045 17 116.045 17.656V18.424ZM130.225 19.792V12.808C130.225 10.968 130.713 9.616 131.689 8.752C132.665 7.888 133.945 7.456 135.529 7.456C137.145 7.456 138.457 7.864 139.465 8.68C140.489 9.48 141.001 10.552 141.001 11.896C141.001 12.36 140.897 12.68 140.689 12.856C140.497 13.032 140.177 13.12 139.729 13.12C138.897 13.12 138.473 12.84 138.457 12.28C138.281 10.568 137.329 9.712 135.601 9.712C133.713 9.712 132.769 10.744 132.769 12.808V19.792C132.769 21.856 133.713 22.888 135.601 22.888C136.513 22.888 137.217 22.632 137.713 22.12C138.209 21.608 138.457 20.832 138.457 19.792V17.824H136.033C135.777 17.824 135.577 17.728 135.433 17.536C135.289 17.328 135.217 17.08 135.217 16.792C135.217 16.536 135.289 16.304 135.433 16.096C135.577 15.888 135.777 15.784 136.033 15.784H140.161C140.417 15.784 140.617 15.872 140.761 16.048C140.921 16.208 141.001 16.408 141.001 16.648V19.792C141.001 21.632 140.505 22.984 139.513 23.848C138.537 24.712 137.233 25.144 135.601 25.144C133.969 25.144 132.665 24.712 131.689 23.848C130.713 22.984 130.225 21.632 130.225 19.792ZM143.465 24.16V14.44C143.465 14.2 143.577 14.008 143.801 13.864C144.041 13.704 144.337 13.624 144.689 13.624C145.009 13.624 145.281 13.704 145.505 13.864C145.729 14.008 145.841 14.2 145.841 14.44V15.496C146.113 14.936 146.521 14.464 147.065 14.08C147.625 13.68 148.233 13.48 148.889 13.48H149.657C149.913 13.48 150.137 13.592 150.329 13.816C150.521 14.024 150.617 14.28 150.617 14.584C150.617 14.888 150.521 15.152 150.329 15.376C150.137 15.6 149.913 15.712 149.657 15.712H148.889C148.121 15.712 147.441 16.04 146.849 16.696C146.273 17.352 145.985 18.2 145.985 19.24V24.16C145.985 24.368 145.857 24.56 145.601 24.736C145.345 24.912 145.041 25 144.689 25C144.337 25 144.041 24.912 143.801 24.736C143.577 24.56 143.465 24.368 143.465 24.16ZM151.376 20.416V18.208C151.376 16.944 151.864 15.84 152.84 14.896C153.816 13.952 154.984 13.48 156.344 13.48C157.672 13.48 158.832 13.952 159.824 14.896C160.816 15.824 161.312 16.928 161.312 18.208V20.416C161.312 21.664 160.808 22.776 159.8 23.752C158.808 24.712 157.656 25.192 156.344 25.192C155.016 25.192 153.856 24.712 152.864 23.752C151.872 22.792 151.376 21.68 151.376 20.416ZM153.896 20.416C153.896 21.072 154.136 21.664 154.616 22.192C155.096 22.704 155.672 22.96 156.344 22.96C157 22.96 157.568 22.704 158.048 22.192C158.544 21.664 158.792 21.072 158.792 20.416V18.208C158.792 17.568 158.544 16.992 158.048 16.48C157.568 15.968 157 15.712 156.344 15.712C155.672 15.712 155.096 15.968 154.616 16.48C154.136 16.992 153.896 17.568 153.896 18.208V20.416ZM163.431 20.464V14.464C163.431 14.24 163.559 14.048 163.815 13.888C164.071 13.712 164.367 13.624 164.703 13.624C165.039 13.624 165.327 13.712 165.567 13.888C165.823 14.048 165.951 14.24 165.951 14.464V20.464C165.951 21.104 166.191 21.68 166.671 22.192C167.167 22.704 167.743 22.96 168.399 22.96C169.071 22.96 169.647 22.712 170.127 22.216C170.607 21.704 170.847 21.12 170.847 20.464V14.44C170.847 14.216 170.967 14.024 171.207 13.864C171.463 13.704 171.767 13.624 172.119 13.624C172.471 13.624 172.759 13.704 172.983 13.864C173.223 14.024 173.343 14.216 173.343 14.44V20.464C173.343 21.728 172.855 22.832 171.879 23.776C170.903 24.72 169.743 25.192 168.399 25.192C167.055 25.192 165.887 24.72 164.895 23.776C163.919 22.832 163.431 21.728 163.431 20.464ZM175.903 29.56V14.44C175.903 14.2 176.015 14.008 176.239 13.864C176.479 13.704 176.767 13.624 177.103 13.624C177.439 13.624 177.719 13.704 177.943 13.864C178.167 14.008 178.279 14.2 178.279 14.44V15.304C178.567 14.792 178.991 14.36 179.551 14.008C180.127 13.656 180.775 13.48 181.495 13.48C182.695 13.48 183.711 13.944 184.543 14.872C185.391 15.8 185.815 16.912 185.815 18.208V20.416C185.815 21.664 185.391 22.776 184.543 23.752C183.695 24.712 182.711 25.192 181.591 25.192C180.903 25.192 180.263 25.008 179.671 24.64C179.095 24.272 178.679 23.832 178.423 23.32V29.56C178.423 29.784 178.295 29.976 178.039 30.136C177.783 30.312 177.479 30.4 177.127 30.4C176.775 30.4 176.479 30.312 176.239 30.136C176.015 29.976 175.903 29.784 175.903 29.56ZM178.423 20.968C178.423 21.32 178.663 21.744 179.143 22.24C179.639 22.72 180.207 22.96 180.847 22.96C181.487 22.96 182.055 22.704 182.551 22.192C183.047 21.664 183.295 21.072 183.295 20.416V18.208C183.295 17.568 183.047 16.992 182.551 16.48C182.055 15.968 181.471 15.712 180.799 15.712C180.175 15.712 179.623 15.944 179.143 16.408C178.663 16.856 178.423 17.456 178.423 18.208V20.968ZM187.347 23.272C187.347 23.032 187.427 22.784 187.587 22.528C187.763 22.272 187.971 22.144 188.211 22.144C188.355 22.144 188.555 22.24 188.811 22.432C189.067 22.608 189.411 22.792 189.843 22.984C190.275 23.16 190.795 23.248 191.403 23.248C192.763 23.248 193.443 22.816 193.443 21.952C193.443 21.488 193.243 21.128 192.843 20.872C192.443 20.6 191.955 20.392 191.379 20.248C190.819 20.088 190.259 19.912 189.699 19.72C189.139 19.528 188.659 19.2 188.259 18.736C187.859 18.272 187.659 17.672 187.659 16.936C187.659 15.992 187.995 15.184 188.667 14.512C189.339 13.824 190.371 13.48 191.763 13.48C192.675 13.48 193.499 13.624 194.235 13.912C194.987 14.184 195.363 14.512 195.363 14.896C195.363 15.12 195.267 15.384 195.075 15.688C194.899 15.976 194.675 16.12 194.403 16.12C194.307 16.12 193.979 16.008 193.419 15.784C192.859 15.544 192.323 15.424 191.811 15.424C191.171 15.424 190.683 15.568 190.347 15.856C190.027 16.144 189.867 16.464 189.867 16.816C189.867 17.2 190.067 17.504 190.467 17.728C190.867 17.952 191.355 18.136 191.931 18.28C192.507 18.424 193.075 18.6 193.635 18.808C194.211 19.016 194.699 19.376 195.099 19.888C195.499 20.4 195.699 21.056 195.699 21.856C195.699 22.896 195.331 23.712 194.595 24.304C193.859 24.896 192.819 25.192 191.475 25.192C190.339 25.192 189.363 24.992 188.547 24.592C187.747 24.192 187.347 23.752 187.347 23.272ZM198.01 24.736C197.738 24.448 197.602 24.104 197.602 23.704C197.602 23.304 197.738 22.968 198.01 22.696C198.282 22.408 198.626 22.264 199.042 22.264C199.426 22.264 199.754 22.408 200.026 22.696C200.314 22.968 200.458 23.304 200.458 23.704C200.458 24.088 200.314 24.424 200.026 24.712C199.754 25 199.426 25.144 199.042 25.144C198.626 25.144 198.282 25.008 198.01 24.736ZM198.01 17.344C197.738 17.056 197.602 16.712 197.602 16.312C197.602 15.912 197.738 15.576 198.01 15.304C198.282 15.016 198.626 14.872 199.042 14.872C199.426 14.872 199.754 15.016 200.026 15.304C200.314 15.576 200.458 15.912 200.458 16.312C200.458 16.696 200.314 17.032 200.026 17.32C199.754 17.608 199.426 17.752 199.042 17.752C198.626 17.752 198.282 17.616 198.01 17.344Z" fill="#596F62"/>
<path d="M41.7183 38.296C41.7183 38.024 41.8383 37.784 42.0783 37.576L44.0463 34.792C44.2223 34.552 44.4223 34.432 44.6463 34.432C44.8223 34.432 44.9823 34.488 45.1263 34.6C45.2703 34.712 45.3423 34.856 45.3423 35.032V51.376C45.3423 51.568 45.2623 51.72 45.1023 51.832C44.9423 51.944 44.7583 52 44.5503 52C44.3263 52 44.1343 51.944 43.9743 51.832C43.8303 51.72 43.7583 51.568 43.7583 51.376V37.144L42.7983 38.704C42.6703 38.896 42.5183 38.992 42.3423 38.992C42.1663 38.992 42.0143 38.928 41.8863 38.8C41.7743 38.656 41.7183 38.488 41.7183 38.296ZM47.9678 51.04C47.9678 50.72 48.0718 50.456 48.2798 50.248C48.4878 50.024 48.7518 49.912 49.0718 49.912C49.3598 49.912 49.6078 50.024 49.8158 50.248C50.0398 50.472 50.1518 50.736 50.1518 51.04C50.1518 51.328 50.0398 51.584 49.8158 51.808C49.6078 52.032 49.3598 52.144 49.0718 52.144C48.7518 52.144 48.4878 52.04 48.2798 51.832C48.0718 51.608 47.9678 51.344 47.9678 51.04ZM51.7814 48.064C51.7814 47.536 52.0374 47.272 52.5494 47.272C53.0934 47.272 53.3654 47.496 53.3654 47.944C53.3654 48.792 53.6854 49.464 54.3254 49.96C54.9654 50.44 55.7734 50.68 56.7494 50.68C57.8374 50.68 58.6774 50.384 59.2694 49.792C59.8614 49.184 60.1574 48.272 60.1574 47.056V46.6C60.1574 45.416 59.8614 44.528 59.2694 43.936C58.6774 43.344 57.8454 43.048 56.7734 43.048H53.4374C52.8934 43.048 52.6214 42.848 52.6214 42.448C52.6214 42.416 52.6214 42.336 52.6214 42.208C52.6374 42.08 52.6454 42 52.6454 41.968L53.1254 35.056C53.1734 34.656 53.3414 34.456 53.6294 34.456H60.3494C60.7014 34.456 60.8774 34.696 60.8774 35.176C60.8774 35.672 60.7014 35.92 60.3494 35.92H54.5414L54.1574 41.68H56.7734C58.2934 41.68 59.5014 42.072 60.3974 42.856C61.2934 43.64 61.7414 44.888 61.7414 46.6V47.056C61.7414 48.8 61.2854 50.088 60.3734 50.92C59.4774 51.736 58.2774 52.144 56.7734 52.144C55.2374 52.144 54.0214 51.752 53.1254 50.968C52.2294 50.184 51.7814 49.216 51.7814 48.064ZM68.7933 51.376V34.264C68.7933 34.104 68.8653 33.968 69.0093 33.856C69.1533 33.744 69.3373 33.688 69.5613 33.688C69.7853 33.688 69.9693 33.744 70.1133 33.856C70.2733 33.968 70.3533 34.104 70.3533 34.264V42.328C70.6253 41.816 71.0333 41.384 71.5773 41.032C72.1373 40.68 72.7853 40.504 73.5213 40.504C74.6733 40.504 75.6653 40.944 76.4973 41.824C77.3453 42.704 77.7693 43.76 77.7693 44.992V51.376C77.7693 51.568 77.6893 51.72 77.5293 51.832C77.3853 51.944 77.2013 52 76.9773 52C76.7853 52 76.6093 51.944 76.4493 51.832C76.2893 51.72 76.2093 51.568 76.2093 51.376V44.992C76.2093 44.208 75.9133 43.504 75.3213 42.88C74.7293 42.256 74.0333 41.944 73.2333 41.944C72.4813 41.944 71.8093 42.224 71.2173 42.784C70.6413 43.344 70.3533 44.08 70.3533 44.992V51.376C70.3533 51.536 70.2733 51.68 70.1133 51.808C69.9533 51.936 69.7693 52 69.5613 52C69.3533 52 69.1693 51.936 69.0093 51.808C68.8653 51.68 68.7933 51.536 68.7933 51.376ZM80.2435 47.608V44.992C80.2435 43.776 80.6915 42.728 81.5875 41.848C82.4835 40.952 83.5475 40.504 84.7795 40.504C86.0115 40.504 87.0835 40.944 87.9955 41.824C88.9075 42.704 89.3635 43.76 89.3635 44.992V47.608C89.3635 48.808 88.8995 49.872 87.9715 50.8C87.0595 51.712 85.9955 52.168 84.7795 52.168C83.5795 52.168 82.5235 51.712 81.6115 50.8C80.6995 49.872 80.2435 48.808 80.2435 47.608ZM81.8035 47.608C81.8035 48.424 82.0915 49.152 82.6675 49.792C83.2595 50.416 83.9635 50.728 84.7795 50.728C85.6115 50.728 86.3235 50.416 86.9155 49.792C87.5075 49.152 87.8035 48.424 87.8035 47.608V44.992C87.8035 44.208 87.4995 43.504 86.8915 42.88C86.2995 42.256 85.5955 41.944 84.7795 41.944C83.9635 41.944 83.2595 42.256 82.6675 42.88C82.0915 43.504 81.8035 44.208 81.8035 44.992V47.608ZM91.8061 47.656V41.248C91.8061 41.104 91.8781 40.968 92.0221 40.84C92.1821 40.712 92.3741 40.648 92.5981 40.648C92.7901 40.648 92.9661 40.712 93.1261 40.84C93.2861 40.968 93.3661 41.104 93.3661 41.248V47.656C93.3661 48.456 93.6621 49.168 94.2541 49.792C94.8461 50.416 95.5501 50.728 96.3661 50.728C97.1821 50.728 97.8861 50.416 98.4781 49.792C99.0701 49.168 99.3661 48.456 99.3661 47.656V41.224C99.3661 41.064 99.4461 40.928 99.6061 40.816C99.7661 40.704 99.9501 40.648 100.158 40.648C100.366 40.648 100.542 40.704 100.686 40.816C100.846 40.928 100.926 41.064 100.926 41.224V47.656C100.926 48.856 100.47 49.912 99.5581 50.824C98.6621 51.72 97.5981 52.168 96.3661 52.168C95.1181 52.168 94.0461 51.72 93.1501 50.824C92.2541 49.912 91.8061 48.856 91.8061 47.656ZM103.832 51.376V41.224C103.832 41.064 103.904 40.928 104.048 40.816C104.192 40.704 104.376 40.648 104.6 40.648C104.808 40.648 104.984 40.704 105.128 40.816C105.272 40.928 105.344 41.064 105.344 41.224V42.4C105.632 41.872 106.056 41.424 106.616 41.056C107.176 40.688 107.824 40.504 108.56 40.504H109.4C109.56 40.504 109.704 40.576 109.832 40.72C109.96 40.864 110.024 41.032 110.024 41.224C110.024 41.416 109.96 41.584 109.832 41.728C109.704 41.872 109.56 41.944 109.4 41.944H108.56C107.728 41.944 106.992 42.272 106.352 42.928C105.712 43.568 105.392 44.408 105.392 45.448V51.376C105.392 51.536 105.312 51.68 105.152 51.808C105.008 51.936 104.824 52 104.6 52C104.392 52 104.208 51.936 104.048 51.808C103.904 51.68 103.832 51.536 103.832 51.376ZM116.702 47.008V39.568C116.702 37.824 117.166 36.536 118.094 35.704C119.038 34.872 120.254 34.456 121.742 34.456C123.262 34.456 124.462 34.848 125.342 35.632C126.238 36.4 126.686 37.344 126.686 38.464C126.686 38.848 126.622 39.104 126.494 39.232C126.382 39.36 126.182 39.424 125.894 39.424C125.398 39.424 125.134 39.224 125.102 38.824C125.086 38.584 125.054 38.352 125.006 38.128C124.958 37.904 124.862 37.656 124.718 37.384C124.574 37.096 124.382 36.848 124.142 36.64C123.918 36.432 123.598 36.264 123.182 36.136C122.766 35.992 122.286 35.92 121.742 35.92C119.438 35.92 118.286 37.136 118.286 39.568V47.008C118.286 49.456 119.47 50.68 121.838 50.68C122.51 50.68 123.07 50.592 123.518 50.416C123.966 50.224 124.294 49.952 124.502 49.6C124.71 49.248 124.846 48.952 124.91 48.712C124.99 48.456 125.054 48.128 125.102 47.728C125.15 47.312 125.414 47.104 125.894 47.104C126.182 47.104 126.382 47.176 126.494 47.32C126.622 47.448 126.686 47.704 126.686 48.088C126.686 49.224 126.23 50.184 125.318 50.968C124.422 51.752 123.206 52.144 121.67 52.144C120.198 52.144 118.998 51.728 118.07 50.896C117.158 50.064 116.702 48.768 116.702 47.008ZM129.337 51.376V34.264C129.337 34.104 129.409 33.968 129.553 33.856C129.697 33.744 129.881 33.688 130.105 33.688C130.329 33.688 130.513 33.744 130.657 33.856C130.817 33.968 130.897 34.104 130.897 34.264V51.376C130.897 51.536 130.817 51.68 130.657 51.808C130.513 51.936 130.329 52 130.105 52C129.897 52 129.713 51.936 129.553 51.808C129.409 51.68 129.337 51.536 129.337 51.376ZM133.322 49C133.322 47.768 133.794 46.912 134.738 46.432C135.698 45.952 137.09 45.712 138.914 45.712H140.138V45.136C140.138 44.256 139.906 43.496 139.442 42.856C138.978 42.2 138.266 41.872 137.306 41.872C136.666 41.872 136.082 41.992 135.554 42.232C135.042 42.456 134.77 42.568 134.738 42.568C134.546 42.568 134.394 42.48 134.282 42.304C134.17 42.128 134.114 41.936 134.114 41.728C134.114 41.424 134.458 41.144 135.146 40.888C135.834 40.632 136.57 40.504 137.354 40.504C138.858 40.504 139.954 40.944 140.642 41.824C141.346 42.688 141.698 43.792 141.698 45.136V51.376C141.698 51.552 141.626 51.704 141.482 51.832C141.338 51.944 141.154 52 140.93 52C140.722 52 140.546 51.944 140.402 51.832C140.274 51.704 140.21 51.552 140.21 51.376V50.32C139.138 51.552 137.93 52.168 136.586 52.168C135.626 52.168 134.842 51.904 134.234 51.376C133.626 50.832 133.322 50.04 133.322 49ZM134.882 48.856C134.882 49.528 135.074 50.032 135.458 50.368C135.842 50.688 136.346 50.848 136.97 50.848C137.722 50.848 138.434 50.568 139.106 50.008C139.794 49.448 140.138 48.888 140.138 48.328V46.792H139.13C138.49 46.792 137.946 46.816 137.498 46.864C137.066 46.912 136.634 47 136.202 47.128C135.77 47.256 135.442 47.464 135.218 47.752C134.994 48.04 134.882 48.408 134.882 48.856ZM143.917 50.44C143.917 50.28 143.973 50.12 144.085 49.96C144.197 49.8 144.325 49.72 144.469 49.72C144.581 49.72 144.757 49.816 144.997 50.008C145.237 50.184 145.581 50.368 146.029 50.56C146.477 50.752 147.013 50.848 147.637 50.848C148.485 50.848 149.109 50.688 149.509 50.368C149.909 50.048 150.109 49.64 150.109 49.144C150.109 48.568 149.901 48.112 149.485 47.776C149.085 47.424 148.597 47.168 148.021 47.008C147.445 46.848 146.861 46.672 146.269 46.48C145.693 46.288 145.197 45.976 144.781 45.544C144.381 45.096 144.181 44.504 144.181 43.768C144.181 42.888 144.493 42.128 145.117 41.488C145.757 40.832 146.709 40.504 147.973 40.504C148.757 40.504 149.485 40.632 150.157 40.888C150.845 41.128 151.189 41.392 151.189 41.68C151.189 41.84 151.125 42.016 150.997 42.208C150.869 42.4 150.717 42.496 150.541 42.496C150.493 42.496 150.197 42.384 149.653 42.16C149.109 41.936 148.557 41.824 147.997 41.824C147.197 41.824 146.597 42.016 146.197 42.4C145.797 42.784 145.597 43.216 145.597 43.696C145.597 44.192 145.797 44.584 146.197 44.872C146.613 45.16 147.109 45.384 147.685 45.544C148.277 45.688 148.861 45.864 149.437 46.072C150.029 46.264 150.525 46.616 150.925 47.128C151.341 47.624 151.549 48.272 151.549 49.072C151.549 50.032 151.205 50.792 150.517 51.352C149.845 51.896 148.901 52.168 147.685 52.168C146.629 52.168 145.733 51.984 144.997 51.616C144.277 51.232 143.917 50.84 143.917 50.44ZM153.151 50.44C153.151 50.28 153.207 50.12 153.319 49.96C153.431 49.8 153.559 49.72 153.703 49.72C153.815 49.72 153.991 49.816 154.231 50.008C154.471 50.184 154.815 50.368 155.263 50.56C155.711 50.752 156.247 50.848 156.871 50.848C157.719 50.848 158.343 50.688 158.743 50.368C159.143 50.048 159.343 49.64 159.343 49.144C159.343 48.568 159.135 48.112 158.719 47.776C158.319 47.424 157.831 47.168 157.255 47.008C156.679 46.848 156.095 46.672 155.503 46.48C154.927 46.288 154.431 45.976 154.015 45.544C153.615 45.096 153.415 44.504 153.415 43.768C153.415 42.888 153.727 42.128 154.351 41.488C154.991 40.832 155.943 40.504 157.207 40.504C157.991 40.504 158.719 40.632 159.391 40.888C160.079 41.128 160.423 41.392 160.423 41.68C160.423 41.84 160.359 42.016 160.231 42.208C160.103 42.4 159.951 42.496 159.775 42.496C159.727 42.496 159.431 42.384 158.887 42.16C158.343 41.936 157.791 41.824 157.231 41.824C156.431 41.824 155.831 42.016 155.431 42.4C155.031 42.784 154.831 43.216 154.831 43.696C154.831 44.192 155.031 44.584 155.431 44.872C155.847 45.16 156.343 45.384 156.919 45.544C157.511 45.688 158.095 45.864 158.671 46.072C159.263 46.264 159.759 46.616 160.159 47.128C160.575 47.624 160.783 48.272 160.783 49.072C160.783 50.032 160.439 50.792 159.751 51.352C159.079 51.896 158.135 52.168 156.919 52.168C155.863 52.168 154.967 51.984 154.231 51.616C153.511 51.232 153.151 50.84 153.151 50.44Z" fill="black"/>
</svg>
