<svg width="165" height="25" viewBox="0 0 165 25" fill="none" xmlns="http://www.w3.org/2000/svg">
<path d="M0.872906 16.12C0.872906 15.816 0.984906 15.512 1.20891 15.208C1.43291 14.904 1.68891 14.752 1.97691 14.752C2.16891 14.752 2.41691 14.896 2.72091 15.184C3.04091 15.456 3.46491 15.752 3.99291 16.072C4.53691 16.392 5.16091 16.576 5.86491 16.624V10.984C5.38491 10.808 5.01691 10.672 4.76091 10.576C4.50491 10.464 4.16091 10.312 3.72891 10.12C3.31291 9.912 2.98491 9.704 2.74491 9.496C2.52091 9.272 2.28091 9.008 2.02491 8.704C1.76891 8.4 1.58491 8.048 1.47291 7.648C1.36091 7.232 1.30491 6.776 1.30491 6.28C1.30491 4.888 1.73691 3.832 2.60091 3.112C3.48091 2.392 4.56891 1.96 5.86491 1.816V1.12C5.86491 0.975999 5.92891 0.848 6.05691 0.735999C6.20091 0.624 6.36891 0.568 6.56091 0.568C6.73691 0.568 6.89691 0.624 7.04091 0.735999C7.20091 0.848 7.28091 0.975999 7.28091 1.12V1.768C8.25691 1.8 9.15291 1.968 9.96891 2.272C10.8009 2.56 11.2169 2.968 11.2169 3.496C11.2169 3.784 11.1209 4.088 10.9289 4.408C10.7369 4.712 10.4809 4.864 10.1609 4.864C10.0329 4.864 9.68091 4.728 9.10491 4.456C8.52891 4.184 7.92091 4.024 7.28091 3.976V8.848C7.92091 9.088 8.44891 9.32 8.86491 9.544C9.29691 9.752 9.74491 10.048 10.2089 10.432C10.6889 10.816 11.0489 11.304 11.2889 11.896C11.5289 12.472 11.6489 13.152 11.6489 13.936C11.6489 15.36 11.2569 16.496 10.4729 17.344C9.68891 18.176 8.62491 18.688 7.28091 18.88V19.696C7.28091 19.84 7.20091 19.968 7.04091 20.08C6.89691 20.192 6.73691 20.248 6.56091 20.248C6.36891 20.248 6.20091 20.192 6.05691 20.08C5.92891 19.968 5.86491 19.84 5.86491 19.696V18.952C4.47291 18.936 3.28891 18.624 2.31291 18.016C1.35291 17.392 0.872906 16.76 0.872906 16.12ZM3.70491 6.04C3.70491 6.664 3.89691 7.144 4.28091 7.48C4.66491 7.8 5.24091 8.104 6.00891 8.392V4.024C4.47291 4.216 3.70491 4.888 3.70491 6.04ZM7.13691 16.576C8.54491 16.32 9.24891 15.528 9.24891 14.2C9.24891 13.496 9.06491 12.944 8.69691 12.544C8.32891 12.144 7.80891 11.8 7.13691 11.512V16.576ZM13.0565 14.92C13.0565 14.504 13.1445 14.224 13.3205 14.08C13.4965 13.92 13.8005 13.84 14.2325 13.84C14.7445 13.84 15.0885 13.92 15.2645 14.08C15.4565 14.224 15.5525 14.464 15.5525 14.8C15.5525 15.376 15.7925 15.872 16.2725 16.288C16.7685 16.688 17.4725 16.888 18.3845 16.888C19.3765 16.888 20.1045 16.656 20.5685 16.192C21.0485 15.712 21.2885 14.952 21.2885 13.912V13.456C21.2885 11.712 20.3125 10.84 18.3605 10.84C17.8165 10.84 17.5445 10.504 17.5445 9.832C17.5445 9.144 17.8165 8.8 18.3605 8.8C19.1765 8.8 19.7925 8.616 20.2085 8.248C20.6405 7.88 20.8565 7.184 20.8565 6.16C20.8565 4.512 20.0565 3.688 18.4565 3.688C17.5605 3.688 16.9205 3.88 16.5365 4.264C16.1525 4.632 15.9605 5.096 15.9605 5.656C15.9605 6.344 15.5605 6.688 14.7605 6.688C14.2165 6.688 13.8565 6.608 13.6805 6.448C13.5205 6.288 13.4405 5.976 13.4405 5.512C13.4405 5.08 13.5205 4.648 13.6805 4.216C13.8405 3.784 14.0965 3.352 14.4485 2.92C14.8165 2.488 15.3445 2.136 16.0325 1.864C16.7365 1.592 17.5525 1.456 18.4805 1.456C21.6965 1.456 23.3045 2.88 23.3045 5.728C23.3045 6.704 23.1285 7.544 22.7765 8.248C22.4405 8.952 21.9765 9.448 21.3845 9.736C23.0165 10.376 23.8325 11.616 23.8325 13.456V13.912C23.8325 15.72 23.3285 17.048 22.3205 17.896C21.3125 18.728 19.9925 19.144 18.3605 19.144C16.6325 19.144 15.3125 18.712 14.4005 17.848C13.5045 16.984 13.0565 16.008 13.0565 14.92ZM25.2194 14.896C25.2194 14.112 25.6354 13.72 26.4674 13.72C27.3314 13.72 27.7634 14.056 27.7634 14.728C27.7634 15.4 28.0274 15.928 28.5554 16.312C29.0994 16.696 29.7714 16.888 30.5714 16.888C32.4914 16.888 33.4514 15.88 33.4514 13.864V13.408C33.4514 12.4 33.2034 11.648 32.7074 11.152C32.2114 10.64 31.5074 10.384 30.5954 10.384H27.1154C26.3954 10.384 26.0354 10.056 26.0354 9.4C26.0354 9.24 26.0514 9.048 26.0834 8.824L26.6354 2.296C26.6834 1.736 26.8754 1.456 27.2114 1.456H34.3394C34.5954 1.456 34.7874 1.568 34.9154 1.792C35.0594 2.016 35.1314 2.28 35.1314 2.584C35.1314 2.888 35.0594 3.152 34.9154 3.376C34.7874 3.6 34.5954 3.712 34.3394 3.712H28.7954L28.4594 8.368H30.5954C32.2434 8.368 33.5554 8.776 34.5314 9.592C35.5074 10.392 35.9954 11.664 35.9954 13.408V13.864C35.9954 15.672 35.4994 17.008 34.5074 17.872C33.5314 18.72 32.2354 19.144 30.6194 19.144C28.9554 19.144 27.6354 18.736 26.6594 17.92C25.6994 17.088 25.2194 16.08 25.2194 14.896ZM37.8691 13.792V6.808C37.8691 4.968 38.3571 3.616 39.3331 2.752C40.3091 1.888 41.6131 1.456 43.2451 1.456C44.8771 1.456 46.1811 1.888 47.1571 2.752C48.1491 3.616 48.6451 4.968 48.6451 6.808V13.792C48.6451 15.632 48.1491 16.984 47.1571 17.848C46.1811 18.712 44.8771 19.144 43.2451 19.144C41.6131 19.144 40.3091 18.712 39.3331 17.848C38.3571 16.984 37.8691 15.632 37.8691 13.792ZM40.4131 13.792C40.4131 15.856 41.3571 16.888 43.2451 16.888C44.1571 16.888 44.8611 16.632 45.3571 16.12C45.8531 15.608 46.1011 14.832 46.1011 13.792V6.808C46.1011 5.768 45.8531 4.992 45.3571 4.48C44.8611 3.968 44.1571 3.712 43.2451 3.712C41.3571 3.712 40.4131 4.744 40.4131 6.808V13.792ZM42.5251 11.056C42.3331 10.864 42.2371 10.616 42.2371 10.312C42.2371 10.008 42.3331 9.768 42.5251 9.592C42.7171 9.4 42.9651 9.304 43.2691 9.304C43.5731 9.304 43.8131 9.4 43.9891 9.592C44.1811 9.768 44.2771 10.008 44.2771 10.312C44.2771 10.616 44.1811 10.864 43.9891 11.056C43.8131 11.248 43.5731 11.344 43.2691 11.344C42.9651 11.344 42.7171 11.248 42.5251 11.056ZM55.9885 23.56V8.44C55.9885 8.2 56.1005 8.008 56.3245 7.864C56.5645 7.704 56.8525 7.624 57.1885 7.624C57.5245 7.624 57.8045 7.704 58.0285 7.864C58.2525 8.008 58.3645 8.2 58.3645 8.44V9.304C58.6525 8.792 59.0765 8.36 59.6365 8.008C60.2125 7.656 60.8605 7.48 61.5805 7.48C62.7805 7.48 63.7965 7.944 64.6285 8.872C65.4765 9.8 65.9005 10.912 65.9005 12.208V14.416C65.9005 15.664 65.4765 16.776 64.6285 17.752C63.7805 18.712 62.7965 19.192 61.6765 19.192C60.9885 19.192 60.3485 19.008 59.7565 18.64C59.1805 18.272 58.7645 17.832 58.5085 17.32V23.56C58.5085 23.784 58.3805 23.976 58.1245 24.136C57.8685 24.312 57.5645 24.4 57.2125 24.4C56.8605 24.4 56.5645 24.312 56.3245 24.136C56.1005 23.976 55.9885 23.784 55.9885 23.56ZM58.5085 14.968C58.5085 15.32 58.7485 15.744 59.2285 16.24C59.7245 16.72 60.2925 16.96 60.9325 16.96C61.5725 16.96 62.1405 16.704 62.6365 16.192C63.1325 15.664 63.3805 15.072 63.3805 14.416V12.208C63.3805 11.568 63.1325 10.992 62.6365 10.48C62.1405 9.968 61.5565 9.712 60.8845 9.712C60.2605 9.712 59.7085 9.944 59.2285 10.408C58.7485 10.856 58.5085 11.456 58.5085 12.208V14.968ZM67.6732 14.416V12.136C67.6732 10.872 68.1612 9.784 69.1372 8.872C70.1132 7.944 71.2892 7.48 72.6652 7.48C73.9772 7.48 75.0972 7.904 76.0252 8.752C76.9692 9.584 77.4412 10.64 77.4412 11.92C77.4412 12.4 77.3852 12.792 77.2732 13.096C77.1612 13.384 76.9852 13.592 76.7452 13.72C76.5052 13.832 76.2812 13.904 76.0732 13.936C75.8652 13.968 75.5932 13.984 75.2572 13.984H70.1932V14.536C70.1932 15.336 70.4812 15.976 71.0572 16.456C71.6332 16.92 72.3852 17.152 73.3132 17.152C73.9692 17.152 74.5852 17 75.1612 16.696C75.7532 16.392 76.1132 16.24 76.2412 16.24C76.5132 16.24 76.7452 16.368 76.9372 16.624C77.1292 16.88 77.2252 17.128 77.2252 17.368C77.2252 17.768 76.8412 18.176 76.0732 18.592C75.3052 18.992 74.3612 19.192 73.2412 19.192C71.6092 19.192 70.2732 18.752 69.2332 17.872C68.1932 16.992 67.6732 15.84 67.6732 14.416ZM70.1932 12.424H74.1772C74.5292 12.424 74.7612 12.376 74.8732 12.28C75.0012 12.184 75.0652 11.992 75.0652 11.704C75.0652 11.064 74.8332 10.52 74.3692 10.072C73.9052 9.624 73.3292 9.4 72.6412 9.4C71.9692 9.4 71.3932 9.616 70.9132 10.048C70.4332 10.464 70.1932 11 70.1932 11.656V12.424ZM79.4723 18.16V8.44C79.4723 8.2 79.5843 8.008 79.8083 7.864C80.0483 7.704 80.3443 7.624 80.6963 7.624C81.0163 7.624 81.2883 7.704 81.5123 7.864C81.7363 8.008 81.8483 8.2 81.8483 8.44V9.496C82.1203 8.936 82.5283 8.464 83.0723 8.08C83.6323 7.68 84.2403 7.48 84.8963 7.48H85.6643C85.9203 7.48 86.1443 7.592 86.3363 7.816C86.5283 8.024 86.6243 8.28 86.6243 8.584C86.6243 8.888 86.5283 9.152 86.3363 9.376C86.1443 9.6 85.9203 9.712 85.6643 9.712H84.8963C84.1283 9.712 83.4483 10.04 82.8563 10.696C82.2803 11.352 81.9923 12.2 81.9923 13.24V18.16C81.9923 18.368 81.8643 18.56 81.6083 18.736C81.3523 18.912 81.0483 19 80.6963 19C80.3443 19 80.0483 18.912 79.8083 18.736C79.5843 18.56 79.4723 18.368 79.4723 18.16ZM93.0215 13.792V6.808C93.0215 4.952 93.5095 3.6 94.4855 2.752C95.4615 1.888 96.7655 1.456 98.3975 1.456C100.029 1.456 101.333 1.888 102.309 2.752C103.301 3.6 103.797 4.952 103.797 6.808V13.792C103.797 15.472 103.389 16.744 102.573 17.608C101.757 18.472 100.653 18.968 99.2615 19.096V20.776C99.2615 21.032 99.1735 21.232 98.9975 21.376C98.8375 21.536 98.6375 21.616 98.3975 21.616C98.1735 21.616 97.9735 21.536 97.7975 21.376C97.6375 21.232 97.5575 21.032 97.5575 20.776V19.096C96.1655 18.968 95.0615 18.48 94.2455 17.632C93.4295 16.768 93.0215 15.488 93.0215 13.792ZM95.5655 13.792C95.5655 15.488 96.2295 16.472 97.5575 16.744V15.28C97.5575 14.736 97.8375 14.464 98.3975 14.464C98.6375 14.464 98.8375 14.536 98.9975 14.68C99.1735 14.808 99.2615 15.008 99.2615 15.28V16.72C100.589 16.432 101.253 15.456 101.253 13.792V6.808C101.253 5.768 101.005 4.992 100.509 4.48C100.013 3.968 99.3095 3.712 98.3975 3.712C96.5095 3.712 95.5655 4.744 95.5655 6.808V13.792ZM106.306 14.464V8.464C106.306 8.24 106.434 8.048 106.69 7.888C106.946 7.712 107.242 7.624 107.578 7.624C107.914 7.624 108.202 7.712 108.442 7.888C108.698 8.048 108.826 8.24 108.826 8.464V14.464C108.826 15.104 109.066 15.68 109.546 16.192C110.042 16.704 110.618 16.96 111.274 16.96C111.946 16.96 112.522 16.712 113.002 16.216C113.482 15.704 113.722 15.12 113.722 14.464V8.44C113.722 8.216 113.842 8.024 114.082 7.864C114.338 7.704 114.642 7.624 114.994 7.624C115.346 7.624 115.634 7.704 115.858 7.864C116.098 8.024 116.218 8.216 116.218 8.44V14.464C116.218 15.728 115.73 16.832 114.754 17.776C113.778 18.72 112.618 19.192 111.274 19.192C109.93 19.192 108.762 18.72 107.77 17.776C106.794 16.832 106.306 15.728 106.306 14.464ZM118.034 16.024C118.034 14.744 118.514 13.856 119.474 13.36C120.434 12.848 121.826 12.592 123.65 12.592H124.706V12.16C124.706 11.456 124.506 10.848 124.106 10.336C123.722 9.824 123.13 9.568 122.33 9.568C121.642 9.568 121.034 9.688 120.506 9.928C119.994 10.168 119.714 10.288 119.666 10.288C119.394 10.288 119.17 10.16 118.994 9.904C118.834 9.632 118.754 9.336 118.754 9.016C118.754 8.6 119.138 8.24 119.906 7.936C120.69 7.632 121.514 7.48 122.378 7.48C124.026 7.48 125.242 7.928 126.026 8.824C126.826 9.704 127.226 10.808 127.226 12.136V18.16C127.226 18.384 127.106 18.584 126.866 18.76C126.642 18.92 126.354 19 126.002 19C125.682 19 125.41 18.92 125.186 18.76C124.962 18.584 124.85 18.384 124.85 18.16V17.32C123.778 18.568 122.57 19.192 121.226 19.192C120.298 19.192 119.53 18.92 118.922 18.376C118.33 17.832 118.034 17.048 118.034 16.024ZM120.578 15.712C120.578 16.224 120.722 16.616 121.01 16.888C121.298 17.144 121.674 17.272 122.138 17.272C122.746 17.272 123.322 17.016 123.866 16.504C124.426 15.992 124.706 15.448 124.706 14.872V13.984H124.106C123.386 13.984 122.794 14.016 122.33 14.08C121.882 14.144 121.474 14.312 121.106 14.584C120.754 14.856 120.578 15.232 120.578 15.712ZM129.793 18.16V8.44C129.793 8.2 129.905 8.008 130.129 7.864C130.369 7.704 130.665 7.624 131.017 7.624C131.337 7.624 131.609 7.704 131.833 7.864C132.057 8.008 132.169 8.2 132.169 8.44V9.496C132.441 8.936 132.849 8.464 133.393 8.08C133.953 7.68 134.561 7.48 135.217 7.48H135.985C136.241 7.48 136.465 7.592 136.657 7.816C136.849 8.024 136.945 8.28 136.945 8.584C136.945 8.888 136.849 9.152 136.657 9.376C136.465 9.6 136.241 9.712 135.985 9.712H135.217C134.449 9.712 133.769 10.04 133.177 10.696C132.601 11.352 132.313 12.2 132.313 13.24V18.16C132.313 18.368 132.185 18.56 131.929 18.736C131.673 18.912 131.369 19 131.017 19C130.665 19 130.369 18.912 130.129 18.736C129.905 18.56 129.793 18.368 129.793 18.16ZM138.417 15.256V3.232C138.417 3.008 138.545 2.816 138.801 2.656C139.057 2.496 139.345 2.416 139.665 2.416C139.985 2.416 140.273 2.496 140.529 2.656C140.801 2.816 140.937 3.008 140.937 3.232V7.624H143.865C144.073 7.624 144.241 7.72 144.369 7.912C144.497 8.088 144.561 8.304 144.561 8.56C144.561 8.816 144.497 9.04 144.369 9.232C144.241 9.408 144.073 9.496 143.865 9.496H140.937V15.256C140.937 15.832 141.057 16.24 141.297 16.48C141.553 16.72 141.993 16.84 142.617 16.84H143.457C143.793 16.84 144.057 16.944 144.249 17.152C144.441 17.36 144.537 17.616 144.537 17.92C144.537 18.224 144.441 18.48 144.249 18.688C144.057 18.896 143.793 19 143.457 19H142.617C139.817 19 138.417 17.752 138.417 15.256ZM145.743 14.416V12.136C145.743 10.872 146.231 9.784 147.207 8.872C148.183 7.944 149.359 7.48 150.735 7.48C152.047 7.48 153.167 7.904 154.095 8.752C155.039 9.584 155.511 10.64 155.511 11.92C155.511 12.4 155.455 12.792 155.343 13.096C155.231 13.384 155.055 13.592 154.815 13.72C154.575 13.832 154.351 13.904 154.143 13.936C153.935 13.968 153.663 13.984 153.327 13.984H148.263V14.536C148.263 15.336 148.551 15.976 149.127 16.456C149.703 16.92 150.455 17.152 151.383 17.152C152.039 17.152 152.655 17 153.231 16.696C153.823 16.392 154.183 16.24 154.311 16.24C154.583 16.24 154.815 16.368 155.007 16.624C155.199 16.88 155.295 17.128 155.295 17.368C155.295 17.768 154.911 18.176 154.143 18.592C153.375 18.992 152.431 19.192 151.311 19.192C149.679 19.192 148.343 18.752 147.303 17.872C146.263 16.992 145.743 15.84 145.743 14.416ZM148.263 12.424H152.247C152.599 12.424 152.831 12.376 152.943 12.28C153.071 12.184 153.135 11.992 153.135 11.704C153.135 11.064 152.903 10.52 152.439 10.072C151.975 9.624 151.399 9.4 150.711 9.4C150.039 9.4 149.463 9.616 148.983 10.048C148.503 10.464 148.263 11 148.263 11.656V12.424ZM157.543 18.16V8.44C157.543 8.2 157.655 8.008 157.879 7.864C158.119 7.704 158.415 7.624 158.767 7.624C159.087 7.624 159.359 7.704 159.583 7.864C159.807 8.008 159.919 8.2 159.919 8.44V9.496C160.191 8.936 160.599 8.464 161.143 8.08C161.703 7.68 162.311 7.48 162.967 7.48H163.735C163.991 7.48 164.215 7.592 164.407 7.816C164.599 8.024 164.695 8.28 164.695 8.584C164.695 8.888 164.599 9.152 164.407 9.376C164.215 9.6 163.991 9.712 163.735 9.712H162.967C162.199 9.712 161.519 10.04 160.927 10.696C160.351 11.352 160.063 12.2 160.063 13.24V18.16C160.063 18.368 159.935 18.56 159.679 18.736C159.423 18.912 159.119 19 158.767 19C158.415 19 158.119 18.912 157.879 18.736C157.655 18.56 157.543 18.368 157.543 18.16Z" fill="#982649"/>
</svg>
