<svg width="481" height="64" viewBox="0 0 481 64" fill="none" xmlns="http://www.w3.org/2000/svg">
<path d="M199.174 30.1V9.94C199.174 9.66 199.294 9.45 199.534 9.31C199.794 9.15 200.094 9.07 200.434 9.07C200.774 9.07 201.064 9.15 201.304 9.31C201.564 9.45 201.694 9.66 201.694 9.94V28.72H209.884C210.144 28.72 210.344 28.84 210.484 29.08C210.624 29.3 210.694 29.56 210.694 29.86C210.694 30.16 210.624 30.43 210.484 30.67C210.344 30.89 210.144 31 209.884 31H200.314C200.014 31 199.744 30.92 199.504 30.76C199.284 30.6 199.174 30.38 199.174 30.1ZM211.956 25.42V22.36C211.956 20.82 212.536 19.48 213.696 18.34C214.876 17.18 216.266 16.6 217.866 16.6C219.466 16.6 220.856 17.17 222.036 18.31C223.216 19.45 223.806 20.8 223.806 22.36V25.42C223.806 26.94 223.206 28.29 222.006 29.47C220.826 30.65 219.446 31.24 217.866 31.24C216.286 31.24 214.906 30.66 213.726 29.5C212.546 28.32 211.956 26.96 211.956 25.42ZM214.446 25.42C214.446 26.36 214.786 27.19 215.466 27.91C216.146 28.63 216.946 28.99 217.866 28.99C218.806 28.99 219.616 28.63 220.296 27.91C220.976 27.17 221.316 26.34 221.316 25.42V22.36C221.316 21.46 220.976 20.65 220.296 19.93C219.616 19.21 218.806 18.85 217.866 18.85C216.926 18.85 216.116 19.21 215.436 19.93C214.776 20.65 214.446 21.46 214.446 22.36V25.42ZM226.282 25.42V22.42C226.282 20.7 226.782 19.3 227.782 18.22C228.802 17.14 230.292 16.6 232.252 16.6C233.492 16.6 234.532 16.82 235.372 17.26C236.232 17.7 236.662 18.17 236.662 18.67C236.662 18.95 236.552 19.23 236.332 19.51C236.132 19.77 235.892 19.9 235.612 19.9C235.532 19.9 235.182 19.73 234.562 19.39C233.962 19.03 233.252 18.85 232.432 18.85C231.232 18.85 230.322 19.16 229.702 19.78C229.082 20.4 228.772 21.28 228.772 22.42V25.42C228.772 27.8 230.002 28.99 232.462 28.99C233.302 28.99 234.032 28.81 234.652 28.45C235.272 28.09 235.632 27.91 235.732 27.91C236.052 27.91 236.312 28.04 236.512 28.3C236.732 28.56 236.842 28.83 236.842 29.11C236.842 29.61 236.402 30.09 235.522 30.55C234.642 31.01 233.562 31.24 232.282 31.24C230.302 31.24 228.802 30.71 227.782 29.65C226.782 28.57 226.282 27.16 226.282 25.42ZM238.372 27.25C238.372 25.69 238.972 24.61 240.172 24.01C241.372 23.39 243.112 23.08 245.392 23.08H246.832V22.45C246.832 21.45 246.552 20.58 245.992 19.84C245.452 19.1 244.632 18.73 243.532 18.73C242.692 18.73 241.952 18.88 241.312 19.18C240.672 19.46 240.322 19.6 240.262 19.6C239.982 19.6 239.752 19.47 239.572 19.21C239.412 18.93 239.332 18.64 239.332 18.34C239.332 17.88 239.782 17.48 240.682 17.14C241.602 16.78 242.572 16.6 243.592 16.6C245.552 16.6 246.992 17.16 247.912 18.28C248.852 19.38 249.322 20.76 249.322 22.42V30.1C249.322 30.36 249.202 30.58 248.962 30.76C248.742 30.92 248.452 31 248.092 31C247.772 31 247.502 30.92 247.282 30.76C247.062 30.58 246.952 30.36 246.952 30.1V28.9C245.592 30.46 244.082 31.24 242.422 31.24C241.222 31.24 240.242 30.9 239.482 30.22C238.742 29.54 238.372 28.55 238.372 27.25ZM240.892 26.98C240.892 27.72 241.102 28.28 241.522 28.66C241.942 29.04 242.502 29.23 243.202 29.23C244.042 29.23 244.852 28.9 245.632 28.24C246.432 27.56 246.832 26.87 246.832 26.17V24.61H245.782C245.202 24.61 244.702 24.63 244.282 24.67C243.862 24.69 243.422 24.75 242.962 24.85C242.522 24.93 242.152 25.06 241.852 25.24C241.572 25.4 241.342 25.63 241.162 25.93C240.982 26.21 240.892 26.56 240.892 26.98ZM252.689 26.47V11.02C252.689 10.78 252.819 10.58 253.079 10.42C253.339 10.24 253.619 10.15 253.919 10.15C254.239 10.15 254.529 10.24 254.789 10.42C255.049 10.58 255.179 10.78 255.179 11.02V16.78H258.959C259.179 16.78 259.359 16.88 259.499 17.08C259.639 17.28 259.709 17.51 259.709 17.77C259.709 18.03 259.639 18.26 259.499 18.46C259.359 18.64 259.179 18.73 258.959 18.73H255.179V26.47C255.179 27.33 255.359 27.94 255.719 28.3C256.099 28.64 256.749 28.81 257.669 28.81H258.599C258.939 28.81 259.199 28.92 259.379 29.14C259.579 29.34 259.679 29.59 259.679 29.89C259.679 30.19 259.579 30.45 259.379 30.67C259.179 30.89 258.919 31 258.599 31H257.669C254.349 31 252.689 29.49 252.689 26.47ZM262.157 12.46C261.857 12.16 261.707 11.82 261.707 11.44C261.707 11.06 261.857 10.73 262.157 10.45C262.457 10.17 262.827 10.03 263.267 10.03C263.687 10.03 264.047 10.17 264.347 10.45C264.647 10.73 264.797 11.06 264.797 11.44C264.797 11.82 264.647 12.16 264.347 12.46C264.047 12.74 263.687 12.88 263.267 12.88C262.847 12.88 262.477 12.74 262.157 12.46ZM262.037 30.1V17.65C262.037 17.39 262.157 17.18 262.397 17.02C262.637 16.86 262.927 16.78 263.267 16.78C263.627 16.78 263.927 16.86 264.167 17.02C264.407 17.18 264.527 17.39 264.527 17.65V30.1C264.527 30.32 264.397 30.53 264.137 30.73C263.897 30.91 263.607 31 263.267 31C262.927 31 262.637 30.91 262.397 30.73C262.157 30.55 262.037 30.34 262.037 30.1ZM267.532 25.42V22.36C267.532 20.82 268.112 19.48 269.272 18.34C270.452 17.18 271.842 16.6 273.442 16.6C275.042 16.6 276.432 17.17 277.612 18.31C278.792 19.45 279.382 20.8 279.382 22.36V25.42C279.382 26.94 278.782 28.29 277.582 29.47C276.402 30.65 275.022 31.24 273.442 31.24C271.862 31.24 270.482 30.66 269.302 29.5C268.122 28.32 267.532 26.96 267.532 25.42ZM270.022 25.42C270.022 26.36 270.362 27.19 271.042 27.91C271.722 28.63 272.522 28.99 273.442 28.99C274.382 28.99 275.192 28.63 275.872 27.91C276.552 27.17 276.892 26.34 276.892 25.42V22.36C276.892 21.46 276.552 20.65 275.872 19.93C275.192 19.21 274.382 18.85 273.442 18.85C272.502 18.85 271.692 19.21 271.012 19.93C270.352 20.65 270.022 21.46 270.022 22.36V25.42ZM282.369 30.1V17.65C282.369 17.39 282.479 17.18 282.699 17.02C282.939 16.86 283.239 16.78 283.599 16.78C283.899 16.78 284.159 16.87 284.379 17.05C284.619 17.21 284.739 17.41 284.739 17.65V18.88C285.059 18.24 285.569 17.7 286.269 17.26C286.989 16.82 287.819 16.6 288.759 16.6C290.179 16.6 291.409 17.17 292.449 18.31C293.509 19.43 294.039 20.78 294.039 22.36V30.1C294.039 30.38 293.909 30.6 293.649 30.76C293.409 30.92 293.119 31 292.779 31C292.459 31 292.169 30.92 291.909 30.76C291.669 30.6 291.549 30.38 291.549 30.1V22.36C291.549 21.46 291.209 20.65 290.529 19.93C289.849 19.21 289.049 18.85 288.129 18.85C287.269 18.85 286.509 19.18 285.849 19.84C285.189 20.48 284.859 21.32 284.859 22.36V30.1C284.859 30.32 284.729 30.53 284.469 30.73C284.209 30.91 283.919 31 283.599 31C283.259 31 282.969 30.91 282.729 30.73C282.489 30.55 282.369 30.34 282.369 30.1ZM297.277 29.62C297.277 29.18 297.427 28.81 297.727 28.51C298.027 28.19 298.397 28.03 298.837 28.03C299.257 28.03 299.617 28.19 299.917 28.51C300.217 28.81 300.367 29.18 300.367 29.62C300.367 30.04 300.217 30.41 299.917 30.73C299.617 31.03 299.257 31.18 298.837 31.18C298.397 31.18 298.027 31.03 297.727 30.73C297.427 30.41 297.277 30.04 297.277 29.62ZM297.277 19.93C297.277 19.49 297.427 19.12 297.727 18.82C298.027 18.5 298.397 18.34 298.837 18.34C299.257 18.34 299.617 18.5 299.917 18.82C300.217 19.12 300.367 19.49 300.367 19.93C300.367 20.35 300.217 20.72 299.917 21.04C299.617 21.34 299.257 21.49 298.837 21.49C298.397 21.49 298.027 21.34 297.727 21.04C297.427 20.72 297.277 20.35 297.277 19.93Z" fill="#596F62"/>
<circle cx="218" cy="49" r="5" fill="#596F62"/>
<circle cx="403" cy="49" r="5" fill="#596F62"/>
<path d="M0.198 45.35C0.198 45.042 0.33 44.7853 0.594 44.58L2.618 42.182C2.80867 41.9913 2.99933 41.896 3.19 41.896C3.39533 41.896 3.57867 41.9547 3.74 42.072C3.916 42.1893 4.004 42.3507 4.004 42.556V57.34C4.004 57.5453 3.90867 57.7067 3.718 57.824C3.542 57.9413 3.32933 58 3.08 58C2.83067 58 2.61067 57.9413 2.42 57.824C2.244 57.7067 2.156 57.5453 2.156 57.34V44.668L1.342 45.878C1.19533 46.0393 1.04133 46.12 0.88 46.12C0.689333 46.12 0.528 46.0467 0.396 45.9C0.264 45.7387 0.198 45.5553 0.198 45.35ZM6.00703 54.326C6.00703 53.7393 6.31503 53.446 6.93103 53.446C7.54703 53.446 7.85503 53.6953 7.85503 54.194C7.85503 54.898 8.12636 55.4553 8.66903 55.866C9.2117 56.262 9.90103 56.46 10.737 56.46C11.661 56.46 12.3724 56.2033 12.871 55.69C13.3844 55.1767 13.641 54.4067 13.641 53.38V52.962C13.641 51.9647 13.3844 51.2167 12.871 50.718C12.3724 50.2047 11.6684 49.948 10.759 49.948H7.63503C7.06303 49.948 6.77703 49.706 6.77703 49.222C6.77703 49.0753 6.7917 48.914 6.82103 48.738L7.28303 42.578C7.31236 42.138 7.4737 41.918 7.76703 41.918H14.103C14.2937 41.918 14.4404 42.006 14.543 42.182C14.6457 42.3433 14.697 42.534 14.697 42.754C14.697 42.974 14.6457 43.172 14.543 43.348C14.4404 43.5093 14.2937 43.59 14.103 43.59H8.88903L8.55903 48.408H10.759C12.1964 48.408 13.3404 48.7747 14.191 49.508C15.0564 50.2413 15.489 51.3927 15.489 52.962V53.38C15.489 55.008 15.0564 56.2107 14.191 56.988C13.3257 57.7507 12.1817 58.132 10.759 58.132C9.29236 58.132 8.1337 57.7653 7.28303 57.032C6.43236 56.284 6.00703 55.382 6.00703 54.326ZM17.3448 53.336V46.714C17.3448 45.0567 17.7774 43.8467 18.6428 43.084C19.5228 42.3067 20.6961 41.918 22.1628 41.918C23.6294 41.918 24.7734 42.2993 25.5948 43.062C26.4161 43.8247 26.8268 44.7193 26.8268 45.746C26.8268 46.2887 26.5408 46.56 25.9688 46.56C25.3234 46.56 25.0008 46.318 25.0008 45.834C25.0008 45.1593 24.7221 44.6167 24.1648 44.206C23.6221 43.7953 22.9401 43.59 22.1188 43.59C20.1681 43.59 19.1928 44.6313 19.1928 46.714V49.794C19.8968 48.8847 20.9674 48.43 22.4048 48.43C25.3528 48.43 26.8268 49.9113 26.8268 52.874V53.336C26.8268 54.9933 26.3941 56.2107 25.5288 56.988C24.6781 57.7507 23.5341 58.132 22.0968 58.132C20.6594 58.132 19.5081 57.7507 18.6428 56.988C17.7774 56.2107 17.3448 54.9933 17.3448 53.336ZM19.1928 53.424C19.1928 55.5067 20.1608 56.548 22.0968 56.548C24.0181 56.548 24.9788 55.5067 24.9788 53.424V52.962C24.9788 50.9673 24.0181 49.97 22.0968 49.97C20.1608 49.97 19.1928 50.9013 19.1928 52.764V53.424ZM28.9248 53.336V46.714C28.9248 45.0567 29.3502 43.8467 30.2008 43.084C31.0662 42.3067 32.2175 41.918 33.6548 41.918C35.0922 41.918 36.2435 42.3067 37.1088 43.084C37.9742 43.8467 38.4068 45.0567 38.4068 46.714V53.336C38.4068 54.9933 37.9742 56.2107 37.1088 56.988C36.2435 57.7507 35.0922 58.132 33.6548 58.132C32.2175 58.132 31.0662 57.7507 30.2008 56.988C29.3502 56.2107 28.9248 54.9933 28.9248 53.336ZM30.7728 53.336C30.7728 55.4187 31.7335 56.46 33.6548 56.46C34.5788 56.46 35.2902 56.2033 35.7888 55.69C36.3022 55.162 36.5588 54.3773 36.5588 53.336V46.714C36.5588 45.6727 36.3022 44.8953 35.7888 44.382C35.2902 43.854 34.5788 43.59 33.6548 43.59C31.7335 43.59 30.7728 44.6313 30.7728 46.714V53.336ZM33.0388 50.674C32.8775 50.498 32.7968 50.2853 32.7968 50.036C32.7968 49.7867 32.8775 49.5813 33.0388 49.42C33.2002 49.2587 33.4128 49.178 33.6768 49.178C33.9262 49.178 34.1315 49.2587 34.2928 49.42C34.4542 49.5813 34.5348 49.7867 34.5348 50.036C34.5348 50.2853 34.4542 50.498 34.2928 50.674C34.1315 50.8353 33.9262 50.916 33.6768 50.916C33.4128 50.916 33.2002 50.8353 33.0388 50.674ZM40.1672 54.326C40.1672 53.7393 40.4752 53.446 41.0912 53.446C41.7072 53.446 42.0152 53.6953 42.0152 54.194C42.0152 54.898 42.2865 55.4553 42.8292 55.866C43.3719 56.262 44.0612 56.46 44.8972 56.46C45.8212 56.46 46.5325 56.2033 47.0312 55.69C47.5445 55.1767 47.8012 54.4067 47.8012 53.38V52.962C47.8012 51.9647 47.5445 51.2167 47.0312 50.718C46.5325 50.2047 45.8285 49.948 44.9192 49.948H41.7952C41.2232 49.948 40.9372 49.706 40.9372 49.222C40.9372 49.0753 40.9519 48.914 40.9812 48.738L41.4432 42.578C41.4725 42.138 41.6339 41.918 41.9272 41.918H48.2632C48.4539 41.918 48.6005 42.006 48.7032 42.182C48.8059 42.3433 48.8572 42.534 48.8572 42.754C48.8572 42.974 48.8059 43.172 48.7032 43.348C48.6005 43.5093 48.4539 43.59 48.2632 43.59H43.0492L42.7192 48.408H44.9192C46.3565 48.408 47.5005 48.7747 48.3512 49.508C49.2165 50.2413 49.6492 51.3927 49.6492 52.962V53.38C49.6492 55.008 49.2165 56.2107 48.3512 56.988C47.4859 57.7507 46.3419 58.132 44.9192 58.132C43.4525 58.132 42.2939 57.7653 41.4432 57.032C40.5925 56.284 40.1672 55.382 40.1672 54.326ZM56.1072 53.336V46.714C56.1072 45.0713 56.5399 43.8613 57.4052 43.084C58.2852 42.3067 59.4292 41.918 60.8372 41.918C62.2746 41.918 63.4259 42.2847 64.2912 43.018C65.1566 43.7367 65.5892 44.646 65.5892 45.746C65.5892 46.142 65.5159 46.4133 65.3692 46.56C65.2226 46.692 64.9879 46.758 64.6652 46.758C64.0786 46.758 63.7706 46.5453 63.7412 46.12C63.6532 44.4333 62.6999 43.59 60.8812 43.59C58.9306 43.59 57.9552 44.6313 57.9552 46.714V53.336C57.9552 55.4187 58.9526 56.46 60.9472 56.46C61.5192 56.46 61.9959 56.3793 62.3772 56.218C62.7586 56.0567 63.0372 55.822 63.2132 55.514C63.4039 55.206 63.5286 54.942 63.5872 54.722C63.6459 54.502 63.6972 54.2087 63.7412 53.842C63.7852 53.4167 64.0932 53.204 64.6652 53.204C64.9879 53.204 65.2226 53.2773 65.3692 53.424C65.5159 53.5707 65.5892 53.842 65.5892 54.238C65.5892 55.3527 65.1492 56.284 64.2692 57.032C63.4039 57.7653 62.2526 58.132 60.8152 58.132C59.4219 58.132 58.2852 57.7433 57.4052 56.966C56.5399 56.1887 56.1072 54.9787 56.1072 53.336ZM67.6847 57.34V48.21C67.6847 48.0193 67.7654 47.8653 67.9267 47.748C68.1027 47.6307 68.3227 47.572 68.5867 47.572C68.8214 47.572 69.0194 47.6307 69.1807 47.748C69.3421 47.8653 69.4227 48.0193 69.4227 48.21V49.244C69.6867 48.7453 70.0754 48.32 70.5887 47.968C71.1021 47.616 71.6741 47.44 72.3047 47.44H73.0527C73.2434 47.44 73.4047 47.528 73.5367 47.704C73.6834 47.8653 73.7567 48.056 73.7567 48.276C73.7567 48.496 73.6834 48.6867 73.5367 48.848C73.4047 49.0093 73.2434 49.09 73.0527 49.09H72.3047C71.5567 49.09 70.9041 49.3907 70.3467 49.992C69.7894 50.5933 69.5107 51.3707 69.5107 52.324V57.34C69.5107 57.5013 69.4154 57.6553 69.2247 57.802C69.0487 57.934 68.8361 58 68.5867 58C68.3374 58 68.1247 57.934 67.9487 57.802C67.7727 57.67 67.6847 57.516 67.6847 57.34ZM75.3352 44.404C75.1152 44.184 75.0052 43.9347 75.0052 43.656C75.0052 43.3773 75.1152 43.1353 75.3352 42.93C75.5552 42.7247 75.8266 42.622 76.1492 42.622C76.4572 42.622 76.7212 42.7247 76.9412 42.93C77.1612 43.1353 77.2712 43.3773 77.2712 43.656C77.2712 43.9347 77.1612 44.184 76.9412 44.404C76.7212 44.6093 76.4572 44.712 76.1492 44.712C75.8412 44.712 75.5699 44.6093 75.3352 44.404ZM75.2472 57.34V48.21C75.2472 48.0193 75.3352 47.8653 75.5112 47.748C75.6872 47.6307 75.8999 47.572 76.1492 47.572C76.4132 47.572 76.6332 47.6307 76.8092 47.748C76.9852 47.8653 77.0732 48.0193 77.0732 48.21V57.34C77.0732 57.5013 76.9779 57.6553 76.7872 57.802C76.6112 57.934 76.3986 58 76.1492 58C75.8999 58 75.6872 57.934 75.5112 57.802C75.3352 57.67 75.2472 57.516 75.2472 57.34ZM79.673 57.34V48.21C79.673 48.0193 79.7537 47.8653 79.915 47.748C80.091 47.6307 80.311 47.572 80.575 47.572C80.8097 47.572 81.0077 47.6307 81.169 47.748C81.3303 47.8653 81.411 48.0193 81.411 48.21V49.112C81.675 48.628 82.0563 48.232 82.555 47.924C83.0683 47.6013 83.6623 47.44 84.337 47.44C85.0117 47.44 85.613 47.6453 86.141 48.056C86.6837 48.452 87.087 48.98 87.351 49.64C87.7177 48.9213 88.2017 48.3787 88.803 48.012C89.4043 47.6307 90.035 47.44 90.695 47.44C91.7217 47.44 92.6017 47.8213 93.335 48.584C94.083 49.3467 94.457 50.3733 94.457 51.664V57.34C94.457 57.5013 94.3617 57.6553 94.171 57.802C93.995 57.934 93.7823 58 93.533 58C93.2983 58 93.0857 57.934 92.895 57.802C92.719 57.6553 92.631 57.5013 92.631 57.34V51.664C92.631 50.872 92.3963 50.2487 91.927 49.794C91.4723 49.3247 90.937 49.09 90.321 49.09C89.705 49.09 89.155 49.3247 88.671 49.794C88.2017 50.2633 87.967 50.8647 87.967 51.598V57.362C87.967 57.5673 87.8717 57.7287 87.681 57.846C87.505 57.9487 87.2923 58 87.043 58C86.8083 58 86.5957 57.9487 86.405 57.846C86.229 57.7287 86.141 57.5673 86.141 57.362V51.62C86.141 50.8867 85.9137 50.2853 85.459 49.816C85.019 49.332 84.4837 49.09 83.853 49.09C83.2223 49.09 82.6723 49.3247 82.203 49.794C81.7337 50.2633 81.499 50.8867 81.499 51.664V57.34C81.499 57.5013 81.4037 57.6553 81.213 57.802C81.037 57.934 80.8243 58 80.575 58C80.3257 58 80.113 57.934 79.937 57.802C79.761 57.67 79.673 57.516 79.673 57.34ZM96.3299 56.504C96.3299 56.3133 96.3886 56.13 96.5059 55.954C96.6379 55.7633 96.7919 55.668 96.9679 55.668C97.0853 55.668 97.2539 55.756 97.4739 55.932C97.6939 56.108 98.0093 56.284 98.4199 56.46C98.8306 56.6213 99.3146 56.702 99.8719 56.702C100.605 56.702 101.133 56.57 101.456 56.306C101.793 56.042 101.962 55.712 101.962 55.316C101.962 54.832 101.779 54.4507 101.412 54.172C101.045 53.8787 100.598 53.6587 100.07 53.512C99.5419 53.3653 99.0139 53.204 98.4859 53.028C97.9579 52.852 97.5106 52.5587 97.1439 52.148C96.7773 51.7373 96.5939 51.1947 96.5939 50.52C96.5939 49.684 96.8873 48.9653 97.4739 48.364C98.0753 47.748 98.9846 47.44 100.202 47.44C100.979 47.44 101.691 47.5647 102.336 47.814C102.981 48.0487 103.304 48.32 103.304 48.628C103.304 48.804 103.231 49.002 103.084 49.222C102.952 49.442 102.783 49.552 102.578 49.552C102.519 49.552 102.233 49.4493 101.72 49.244C101.221 49.024 100.723 48.914 100.224 48.914C99.5493 48.914 99.0433 49.0753 98.7059 49.398C98.3833 49.706 98.2219 50.058 98.2219 50.454C98.2219 50.8647 98.4053 51.1873 98.7719 51.422C99.1386 51.6567 99.5859 51.84 100.114 51.972C100.657 52.104 101.192 52.2653 101.72 52.456C102.248 52.6467 102.695 52.9767 103.062 53.446C103.429 53.9007 103.612 54.4947 103.612 55.228C103.612 56.1373 103.289 56.856 102.644 57.384C101.999 57.912 101.097 58.176 99.9379 58.176C98.9406 58.176 98.0899 58 97.3859 57.648C96.6819 57.2813 96.3299 56.9 96.3299 56.504ZM105.187 53.908V51.664C105.187 50.5347 105.612 49.552 106.463 48.716C107.328 47.8653 108.348 47.44 109.521 47.44C110.694 47.44 111.714 47.858 112.579 48.694C113.444 49.53 113.877 50.52 113.877 51.664V53.908C113.877 55.0227 113.437 56.0127 112.557 56.878C111.692 57.7433 110.68 58.176 109.521 58.176C108.362 58.176 107.35 57.7507 106.485 56.9C105.62 56.0347 105.187 55.0373 105.187 53.908ZM107.013 53.908C107.013 54.5973 107.262 55.206 107.761 55.734C108.26 56.262 108.846 56.526 109.521 56.526C110.21 56.526 110.804 56.262 111.303 55.734C111.802 55.1913 112.051 54.5827 112.051 53.908V51.664C112.051 51.004 111.802 50.41 111.303 49.882C110.804 49.354 110.21 49.09 109.521 49.09C108.832 49.09 108.238 49.354 107.739 49.882C107.255 50.41 107.013 51.004 107.013 51.664V53.908ZM116.068 57.34V48.21C116.068 48.0193 116.148 47.8653 116.31 47.748C116.486 47.6307 116.706 47.572 116.97 47.572C117.19 47.572 117.38 47.638 117.542 47.77C117.718 47.8873 117.806 48.034 117.806 48.21V49.112C118.04 48.6427 118.414 48.2467 118.928 47.924C119.456 47.6013 120.064 47.44 120.754 47.44C121.795 47.44 122.697 47.858 123.46 48.694C124.237 49.5153 124.626 50.5053 124.626 51.664V57.34C124.626 57.5453 124.53 57.7067 124.34 57.824C124.164 57.9413 123.951 58 123.702 58C123.467 58 123.254 57.9413 123.064 57.824C122.888 57.7067 122.8 57.5453 122.8 57.34V51.664C122.8 51.004 122.55 50.41 122.052 49.882C121.553 49.354 120.966 49.09 120.292 49.09C119.661 49.09 119.104 49.332 118.62 49.816C118.136 50.2853 117.894 50.9013 117.894 51.664V57.34C117.894 57.5013 117.798 57.6553 117.608 57.802C117.417 57.934 117.204 58 116.97 58C116.72 58 116.508 57.934 116.332 57.802C116.156 57.67 116.068 57.516 116.068 57.34ZM130.964 55.69C130.964 55.4553 131.045 55.228 131.206 55.008C131.382 54.788 131.573 54.678 131.778 54.678C131.91 54.678 132.079 54.7733 132.284 54.964C132.49 55.14 132.702 55.3453 132.922 55.58C133.142 55.8 133.487 56.0053 133.956 56.196C134.426 56.372 134.954 56.46 135.54 56.46C136.494 56.46 137.242 56.2327 137.784 55.778C138.327 55.3087 138.598 54.6267 138.598 53.732C138.598 52.9253 138.349 52.2727 137.85 51.774C137.352 51.2607 136.75 50.872 136.046 50.608C135.342 50.344 134.631 50.0653 133.912 49.772C133.208 49.464 132.607 49.002 132.108 48.386C131.61 47.7553 131.36 46.9487 131.36 45.966C131.36 45.2033 131.507 44.5433 131.8 43.986C132.094 43.414 132.482 42.9887 132.966 42.71C133.465 42.4167 133.978 42.204 134.506 42.072C135.034 41.94 135.599 41.874 136.2 41.874C137.11 41.874 137.975 42.006 138.796 42.27C139.632 42.5193 140.05 42.8713 140.05 43.326C140.05 43.5313 139.977 43.7513 139.83 43.986C139.684 44.2207 139.493 44.338 139.258 44.338C139.2 44.338 138.862 44.1987 138.246 43.92C137.63 43.6413 136.948 43.502 136.2 43.502C135.306 43.502 134.58 43.6853 134.022 44.052C133.48 44.4187 133.208 44.998 133.208 45.79C133.208 46.4647 133.458 47.0147 133.956 47.44C134.455 47.8507 135.056 48.1807 135.76 48.43C136.479 48.6793 137.19 48.9653 137.894 49.288C138.598 49.6107 139.2 50.1313 139.698 50.85C140.197 51.554 140.446 52.456 140.446 53.556C140.446 55.0813 140.006 56.2327 139.126 57.01C138.246 57.7873 137.08 58.176 135.628 58.176C134.323 58.176 133.216 57.8973 132.306 57.34C131.412 56.7827 130.964 56.2327 130.964 55.69ZM142.601 62.378V48.21C142.601 48.0193 142.682 47.8653 142.843 47.748C143.019 47.6307 143.232 47.572 143.481 47.572C143.731 47.572 143.936 47.6307 144.097 47.748C144.259 47.8653 144.339 48.0193 144.339 48.21V49.112C144.603 48.6427 144.992 48.2467 145.505 47.924C146.019 47.6013 146.613 47.44 147.287 47.44C148.387 47.44 149.319 47.858 150.081 48.694C150.859 49.5153 151.247 50.5053 151.247 51.664V53.908C151.247 55.0227 150.859 56.0127 150.081 56.878C149.304 57.7433 148.402 58.176 147.375 58.176C146.73 58.176 146.136 58.0147 145.593 57.692C145.065 57.3547 144.677 56.944 144.427 56.46V62.378C144.427 62.5393 144.332 62.686 144.141 62.818C143.965 62.9647 143.753 63.038 143.503 63.038C143.254 63.038 143.041 62.972 142.865 62.84C142.689 62.708 142.601 62.554 142.601 62.378ZM144.427 54.502C144.427 54.8687 144.677 55.3013 145.175 55.8C145.689 56.284 146.268 56.526 146.913 56.526C147.573 56.526 148.153 56.262 148.651 55.734C149.165 55.1913 149.421 54.5827 149.421 53.908V51.664C149.421 51.004 149.165 50.41 148.651 49.882C148.153 49.354 147.559 49.09 146.869 49.09C146.224 49.09 145.652 49.332 145.153 49.816C144.669 50.2853 144.427 50.9013 144.427 51.664V54.502ZM153.538 44.404C153.318 44.184 153.208 43.9347 153.208 43.656C153.208 43.3773 153.318 43.1353 153.538 42.93C153.758 42.7247 154.03 42.622 154.352 42.622C154.66 42.622 154.924 42.7247 155.144 42.93C155.364 43.1353 155.474 43.3773 155.474 43.656C155.474 43.9347 155.364 44.184 155.144 44.404C154.924 44.6093 154.66 44.712 154.352 44.712C154.044 44.712 153.773 44.6093 153.538 44.404ZM153.45 57.34V48.21C153.45 48.0193 153.538 47.8653 153.714 47.748C153.89 47.6307 154.103 47.572 154.352 47.572C154.616 47.572 154.836 47.6307 155.012 47.748C155.188 47.8653 155.276 48.0193 155.276 48.21V57.34C155.276 57.5013 155.181 57.6553 154.99 57.802C154.814 57.934 154.602 58 154.352 58C154.103 58 153.89 57.934 153.714 57.802C153.538 57.67 153.45 57.516 153.45 57.34ZM157.876 57.34V48.21C157.876 48.0193 157.957 47.8653 158.118 47.748C158.294 47.6307 158.514 47.572 158.778 47.572C159.013 47.572 159.211 47.6307 159.372 47.748C159.533 47.8653 159.614 48.0193 159.614 48.21V49.244C159.878 48.7453 160.267 48.32 160.78 47.968C161.293 47.616 161.865 47.44 162.496 47.44H163.244C163.435 47.44 163.596 47.528 163.728 47.704C163.875 47.8653 163.948 48.056 163.948 48.276C163.948 48.496 163.875 48.6867 163.728 48.848C163.596 49.0093 163.435 49.09 163.244 49.09H162.496C161.748 49.09 161.095 49.3907 160.538 49.992C159.981 50.5933 159.702 51.3707 159.702 52.324V57.34C159.702 57.5013 159.607 57.6553 159.416 57.802C159.24 57.934 159.027 58 158.778 58C158.529 58 158.316 57.934 158.14 57.802C157.964 57.67 157.876 57.516 157.876 57.34ZM164.72 53.908V51.598C164.72 50.4687 165.146 49.4933 165.996 48.672C166.862 47.8507 167.896 47.44 169.098 47.44C170.242 47.44 171.232 47.8287 172.068 48.606C172.904 49.3687 173.322 50.3293 173.322 51.488C173.322 51.9133 173.271 52.258 173.168 52.522C173.066 52.7713 172.904 52.9547 172.684 53.072C172.479 53.1747 172.281 53.2407 172.09 53.27C171.914 53.2993 171.672 53.314 171.364 53.314H166.546V53.974C166.546 54.7807 166.832 55.426 167.404 55.91C167.991 56.394 168.746 56.636 169.67 56.636C170.154 56.636 170.572 56.5627 170.924 56.416C171.291 56.2693 171.584 56.13 171.804 55.998C172.024 55.8513 172.2 55.778 172.332 55.778C172.538 55.778 172.714 55.8733 172.86 56.064C173.007 56.24 173.08 56.4233 173.08 56.614C173.08 56.9513 172.743 57.296 172.068 57.648C171.408 58 170.587 58.176 169.604 58.176C168.167 58.176 166.994 57.7873 166.084 57.01C165.175 56.218 164.72 55.184 164.72 53.908ZM166.546 52.082H170.616C170.998 52.082 171.254 52.038 171.386 51.95C171.518 51.8473 171.584 51.6567 171.584 51.378C171.584 50.718 171.342 50.1387 170.858 49.64C170.374 49.1413 169.78 48.892 169.076 48.892C168.387 48.892 167.793 49.1267 167.294 49.596C166.796 50.0507 166.546 50.6153 166.546 51.29V52.082ZM179.857 53.336V46.714C179.857 45.0713 180.29 43.8613 181.155 43.084C182.035 42.3067 183.179 41.918 184.587 41.918C186.025 41.918 187.176 42.2847 188.041 43.018C188.907 43.7367 189.339 44.646 189.339 45.746C189.339 46.142 189.266 46.4133 189.119 46.56C188.973 46.692 188.738 46.758 188.415 46.758C187.829 46.758 187.521 46.5453 187.491 46.12C187.403 44.4333 186.45 43.59 184.631 43.59C182.681 43.59 181.705 44.6313 181.705 46.714V53.336C181.705 55.4187 182.703 56.46 184.697 56.46C185.269 56.46 185.746 56.3793 186.127 56.218C186.509 56.0567 186.787 55.822 186.963 55.514C187.154 55.206 187.279 54.942 187.337 54.722C187.396 54.502 187.447 54.2087 187.491 53.842C187.535 53.4167 187.843 53.204 188.415 53.204C188.738 53.204 188.973 53.2773 189.119 53.424C189.266 53.5707 189.339 53.842 189.339 54.238C189.339 55.3527 188.899 56.284 188.019 57.032C187.154 57.7653 186.003 58.132 184.565 58.132C183.172 58.132 182.035 57.7433 181.155 56.966C180.29 56.1887 179.857 54.9787 179.857 53.336ZM191.391 54.678V43.348C191.391 43.172 191.486 43.0253 191.677 42.908C191.867 42.776 192.073 42.71 192.293 42.71C192.527 42.71 192.74 42.776 192.931 42.908C193.121 43.0253 193.217 43.172 193.217 43.348V47.572H195.989C196.15 47.572 196.282 47.6453 196.385 47.792C196.487 47.9387 196.539 48.1073 196.539 48.298C196.539 48.4887 196.487 48.6573 196.385 48.804C196.282 48.936 196.15 49.002 195.989 49.002H193.217V54.678C193.217 55.3087 193.349 55.756 193.613 56.02C193.891 56.2693 194.368 56.394 195.043 56.394H195.725C195.974 56.394 196.165 56.4747 196.297 56.636C196.443 56.7827 196.517 56.966 196.517 57.186C196.517 57.406 196.443 57.5967 196.297 57.758C196.15 57.9193 195.959 58 195.725 58H195.043C192.608 58 191.391 56.8927 191.391 54.678Z" fill="black"/>
<path d="M239.726 55.69C239.726 55.4553 239.807 55.228 239.968 55.008C240.144 54.788 240.335 54.678 240.54 54.678C240.672 54.678 240.841 54.7733 241.046 54.964C241.251 55.14 241.464 55.3453 241.684 55.58C241.904 55.8 242.249 56.0053 242.718 56.196C243.187 56.372 243.715 56.46 244.302 56.46C245.255 56.46 246.003 56.2327 246.546 55.778C247.089 55.3087 247.36 54.6267 247.36 53.732C247.36 52.9253 247.111 52.2727 246.612 51.774C246.113 51.2607 245.512 50.872 244.808 50.608C244.104 50.344 243.393 50.0653 242.674 49.772C241.97 49.464 241.369 49.002 240.87 48.386C240.371 47.7553 240.122 46.9487 240.122 45.966C240.122 45.2033 240.269 44.5433 240.562 43.986C240.855 43.414 241.244 42.9887 241.728 42.71C242.227 42.4167 242.74 42.204 243.268 42.072C243.796 41.94 244.361 41.874 244.962 41.874C245.871 41.874 246.737 42.006 247.558 42.27C248.394 42.5193 248.812 42.8713 248.812 43.326C248.812 43.5313 248.739 43.7513 248.592 43.986C248.445 44.2207 248.255 44.338 248.02 44.338C247.961 44.338 247.624 44.1987 247.008 43.92C246.392 43.6413 245.71 43.502 244.962 43.502C244.067 43.502 243.341 43.6853 242.784 44.052C242.241 44.4187 241.97 44.998 241.97 45.79C241.97 46.4647 242.219 47.0147 242.718 47.44C243.217 47.8507 243.818 48.1807 244.522 48.43C245.241 48.6793 245.952 48.9653 246.656 49.288C247.36 49.6107 247.961 50.1313 248.46 50.85C248.959 51.554 249.208 52.456 249.208 53.556C249.208 55.0813 248.768 56.2327 247.888 57.01C247.008 57.7873 245.842 58.176 244.39 58.176C243.085 58.176 241.977 57.8973 241.068 57.34C240.173 56.7827 239.726 56.2327 239.726 55.69ZM251.429 44.404C251.209 44.184 251.099 43.9347 251.099 43.656C251.099 43.3773 251.209 43.1353 251.429 42.93C251.649 42.7247 251.92 42.622 252.243 42.622C252.551 42.622 252.815 42.7247 253.035 42.93C253.255 43.1353 253.365 43.3773 253.365 43.656C253.365 43.9347 253.255 44.184 253.035 44.404C252.815 44.6093 252.551 44.712 252.243 44.712C251.935 44.712 251.664 44.6093 251.429 44.404ZM251.341 57.34V48.21C251.341 48.0193 251.429 47.8653 251.605 47.748C251.781 47.6307 251.994 47.572 252.243 47.572C252.507 47.572 252.727 47.6307 252.903 47.748C253.079 47.8653 253.167 48.0193 253.167 48.21V57.34C253.167 57.5013 253.072 57.6553 252.881 57.802C252.705 57.934 252.492 58 252.243 58C251.994 58 251.781 57.934 251.605 57.802C251.429 57.67 251.341 57.516 251.341 57.34ZM255.965 57.34V41.918C255.965 41.7273 256.045 41.5733 256.207 41.456C256.383 41.3387 256.603 41.28 256.867 41.28C257.131 41.28 257.351 41.3387 257.527 41.456C257.703 41.5733 257.791 41.7273 257.791 41.918V57.34C257.791 57.5013 257.695 57.6553 257.505 57.802C257.329 57.934 257.116 58 256.867 58C256.617 58 256.405 57.934 256.229 57.802C256.053 57.67 255.965 57.516 255.965 57.34ZM259.545 48.32C259.545 48.1147 259.67 47.9313 259.919 47.77C260.183 47.6087 260.447 47.528 260.711 47.528C261.019 47.528 261.217 47.6453 261.305 47.88L264.099 55.36L266.849 47.968C266.967 47.6747 267.165 47.528 267.443 47.528C267.678 47.528 267.935 47.6087 268.213 47.77C268.492 47.9313 268.631 48.1147 268.631 48.32C268.631 48.4373 268.602 48.5547 268.543 48.672L264.935 57.802C264.818 58.066 264.539 58.198 264.099 58.198C263.645 58.198 263.359 58.066 263.241 57.802L259.633 48.672C259.575 48.496 259.545 48.3787 259.545 48.32ZM269.787 53.908V51.598C269.787 50.4687 270.212 49.4933 271.063 48.672C271.928 47.8507 272.962 47.44 274.165 47.44C275.309 47.44 276.299 47.8287 277.135 48.606C277.971 49.3687 278.389 50.3293 278.389 51.488C278.389 51.9133 278.337 52.258 278.235 52.522C278.132 52.7713 277.971 52.9547 277.751 53.072C277.545 53.1747 277.347 53.2407 277.157 53.27C276.981 53.2993 276.739 53.314 276.431 53.314H271.613V53.974C271.613 54.7807 271.899 55.426 272.471 55.91C273.057 56.394 273.813 56.636 274.737 56.636C275.221 56.636 275.639 56.5627 275.991 56.416C276.357 56.2693 276.651 56.13 276.871 55.998C277.091 55.8513 277.267 55.778 277.399 55.778C277.604 55.778 277.78 55.8733 277.927 56.064C278.073 56.24 278.147 56.4233 278.147 56.614C278.147 56.9513 277.809 57.296 277.135 57.648C276.475 58 275.653 58.176 274.671 58.176C273.233 58.176 272.06 57.7873 271.151 57.01C270.241 56.218 269.787 55.184 269.787 53.908ZM271.613 52.082H275.683C276.064 52.082 276.321 52.038 276.453 51.95C276.585 51.8473 276.651 51.6567 276.651 51.378C276.651 50.718 276.409 50.1387 275.925 49.64C275.441 49.1413 274.847 48.892 274.143 48.892C273.453 48.892 272.859 49.1267 272.361 49.596C271.862 50.0507 271.613 50.6153 271.613 51.29V52.082ZM280.409 57.34V48.21C280.409 48.0193 280.49 47.8653 280.651 47.748C280.827 47.6307 281.047 47.572 281.311 47.572C281.546 47.572 281.744 47.6307 281.905 47.748C282.067 47.8653 282.147 48.0193 282.147 48.21V49.244C282.411 48.7453 282.8 48.32 283.313 47.968C283.827 47.616 284.399 47.44 285.029 47.44H285.777C285.968 47.44 286.129 47.528 286.261 47.704C286.408 47.8653 286.481 48.056 286.481 48.276C286.481 48.496 286.408 48.6867 286.261 48.848C286.129 49.0093 285.968 49.09 285.777 49.09H285.029C284.281 49.09 283.629 49.3907 283.071 49.992C282.514 50.5933 282.235 51.3707 282.235 52.324V57.34C282.235 57.5013 282.14 57.6553 281.949 57.802C281.773 57.934 281.561 58 281.311 58C281.062 58 280.849 57.934 280.673 57.802C280.497 57.67 280.409 57.516 280.409 57.34ZM291.804 55.69C291.804 55.4553 291.885 55.228 292.046 55.008C292.222 54.788 292.413 54.678 292.618 54.678C292.75 54.678 292.919 54.7733 293.124 54.964C293.329 55.14 293.542 55.3453 293.762 55.58C293.982 55.8 294.327 56.0053 294.796 56.196C295.265 56.372 295.793 56.46 296.38 56.46C297.333 56.46 298.081 56.2327 298.624 55.778C299.167 55.3087 299.438 54.6267 299.438 53.732C299.438 52.9253 299.189 52.2727 298.69 51.774C298.191 51.2607 297.59 50.872 296.886 50.608C296.182 50.344 295.471 50.0653 294.752 49.772C294.048 49.464 293.447 49.002 292.948 48.386C292.449 47.7553 292.2 46.9487 292.2 45.966C292.2 45.2033 292.347 44.5433 292.64 43.986C292.933 43.414 293.322 42.9887 293.806 42.71C294.305 42.4167 294.818 42.204 295.346 42.072C295.874 41.94 296.439 41.874 297.04 41.874C297.949 41.874 298.815 42.006 299.636 42.27C300.472 42.5193 300.89 42.8713 300.89 43.326C300.89 43.5313 300.817 43.7513 300.67 43.986C300.523 44.2207 300.333 44.338 300.098 44.338C300.039 44.338 299.702 44.1987 299.086 43.92C298.47 43.6413 297.788 43.502 297.04 43.502C296.145 43.502 295.419 43.6853 294.862 44.052C294.319 44.4187 294.048 44.998 294.048 45.79C294.048 46.4647 294.297 47.0147 294.796 47.44C295.295 47.8507 295.896 48.1807 296.6 48.43C297.319 48.6793 298.03 48.9653 298.734 49.288C299.438 49.6107 300.039 50.1313 300.538 50.85C301.037 51.554 301.286 52.456 301.286 53.556C301.286 55.0813 300.846 56.2327 299.966 57.01C299.086 57.7873 297.92 58.176 296.468 58.176C295.163 58.176 294.055 57.8973 293.146 57.34C292.251 56.7827 291.804 56.2327 291.804 55.69ZM303.441 62.378V48.21C303.441 48.0193 303.522 47.8653 303.683 47.748C303.859 47.6307 304.072 47.572 304.321 47.572C304.57 47.572 304.776 47.6307 304.937 47.748C305.098 47.8653 305.179 48.0193 305.179 48.21V49.112C305.443 48.6427 305.832 48.2467 306.345 47.924C306.858 47.6013 307.452 47.44 308.127 47.44C309.227 47.44 310.158 47.858 310.921 48.694C311.698 49.5153 312.087 50.5053 312.087 51.664V53.908C312.087 55.0227 311.698 56.0127 310.921 56.878C310.144 57.7433 309.242 58.176 308.215 58.176C307.57 58.176 306.976 58.0147 306.433 57.692C305.905 57.3547 305.516 56.944 305.267 56.46V62.378C305.267 62.5393 305.172 62.686 304.981 62.818C304.805 62.9647 304.592 63.038 304.343 63.038C304.094 63.038 303.881 62.972 303.705 62.84C303.529 62.708 303.441 62.554 303.441 62.378ZM305.267 54.502C305.267 54.8687 305.516 55.3013 306.015 55.8C306.528 56.284 307.108 56.526 307.753 56.526C308.413 56.526 308.992 56.262 309.491 55.734C310.004 55.1913 310.261 54.5827 310.261 53.908V51.664C310.261 51.004 310.004 50.41 309.491 49.882C308.992 49.354 308.398 49.09 307.709 49.09C307.064 49.09 306.492 49.332 305.993 49.816C305.509 50.2853 305.267 50.9013 305.267 51.664V54.502ZM314.29 57.34V48.21C314.29 48.0193 314.371 47.8653 314.532 47.748C314.708 47.6307 314.928 47.572 315.192 47.572C315.427 47.572 315.625 47.6307 315.786 47.748C315.948 47.8653 316.028 48.0193 316.028 48.21V49.244C316.292 48.7453 316.681 48.32 317.194 47.968C317.708 47.616 318.28 47.44 318.91 47.44H319.658C319.849 47.44 320.01 47.528 320.142 47.704C320.289 47.8653 320.362 48.056 320.362 48.276C320.362 48.496 320.289 48.6867 320.142 48.848C320.01 49.0093 319.849 49.09 319.658 49.09H318.91C318.162 49.09 317.51 49.3907 316.952 49.992C316.395 50.5933 316.116 51.3707 316.116 52.324V57.34C316.116 57.5013 316.021 57.6553 315.83 57.802C315.654 57.934 315.442 58 315.192 58C314.943 58 314.73 57.934 314.554 57.802C314.378 57.67 314.29 57.516 314.29 57.34ZM321.941 44.404C321.721 44.184 321.611 43.9347 321.611 43.656C321.611 43.3773 321.721 43.1353 321.941 42.93C322.161 42.7247 322.432 42.622 322.755 42.622C323.063 42.622 323.327 42.7247 323.547 42.93C323.767 43.1353 323.877 43.3773 323.877 43.656C323.877 43.9347 323.767 44.184 323.547 44.404C323.327 44.6093 323.063 44.712 322.755 44.712C322.447 44.712 322.175 44.6093 321.941 44.404ZM321.853 57.34V48.21C321.853 48.0193 321.941 47.8653 322.117 47.748C322.293 47.6307 322.505 47.572 322.755 47.572C323.019 47.572 323.239 47.6307 323.415 47.748C323.591 47.8653 323.679 48.0193 323.679 48.21V57.34C323.679 57.5013 323.583 57.6553 323.393 57.802C323.217 57.934 323.004 58 322.755 58C322.505 58 322.293 57.934 322.117 57.802C321.941 57.67 321.853 57.516 321.853 57.34ZM326.278 57.34V48.21C326.278 48.0193 326.359 47.8653 326.52 47.748C326.696 47.6307 326.916 47.572 327.18 47.572C327.4 47.572 327.591 47.638 327.752 47.77C327.928 47.8873 328.016 48.034 328.016 48.21V49.112C328.251 48.6427 328.625 48.2467 329.138 47.924C329.666 47.6013 330.275 47.44 330.964 47.44C332.006 47.44 332.908 47.858 333.67 48.694C334.448 49.5153 334.836 50.5053 334.836 51.664V57.34C334.836 57.5453 334.741 57.7067 334.55 57.824C334.374 57.9413 334.162 58 333.912 58C333.678 58 333.465 57.9413 333.274 57.824C333.098 57.7067 333.01 57.5453 333.01 57.34V51.664C333.01 51.004 332.761 50.41 332.262 49.882C331.764 49.354 331.177 49.09 330.502 49.09C329.872 49.09 329.314 49.332 328.83 49.816C328.346 50.2853 328.104 50.9013 328.104 51.664V57.34C328.104 57.5013 328.009 57.6553 327.818 57.802C327.628 57.934 327.415 58 327.18 58C326.931 58 326.718 57.934 326.542 57.802C326.366 57.67 326.278 57.516 326.278 57.34ZM336.529 60.068C336.529 58.9973 337.123 58.198 338.311 57.67C337.563 57.3913 337.189 56.9 337.189 56.196C337.189 55.5213 337.556 54.9787 338.289 54.568C337.453 53.8933 337.035 52.9693 337.035 51.796V51.07C337.035 49.9993 337.394 49.1267 338.113 48.452C338.832 47.7773 339.778 47.44 340.951 47.44C341.948 47.44 342.806 47.726 343.525 48.298C343.965 47.3447 344.464 46.868 345.021 46.868C345.256 46.868 345.446 46.9413 345.593 47.088C345.74 47.22 345.813 47.374 345.813 47.55C345.813 47.77 345.688 47.9387 345.439 48.056C344.94 48.188 344.544 48.496 344.251 48.98C344.706 49.5227 344.933 50.2193 344.933 51.07V51.796C344.933 52.852 344.559 53.7247 343.811 54.414C343.063 55.1033 342.11 55.448 340.951 55.448C340.35 55.448 339.807 55.338 339.323 55.118C338.956 55.338 338.773 55.5873 338.773 55.866C338.773 56.1447 338.942 56.3647 339.279 56.526C339.616 56.6727 340.034 56.768 340.533 56.812C341.032 56.8413 341.574 56.9073 342.161 57.01C342.748 57.1127 343.29 57.2447 343.789 57.406C344.288 57.5673 344.706 57.8533 345.043 58.264C345.38 58.6747 345.549 59.1953 345.549 59.826C345.549 60.8673 345.131 61.6593 344.295 62.202C343.474 62.7593 342.403 63.038 341.083 63.038C339.763 63.038 338.67 62.7667 337.805 62.224C336.954 61.696 336.529 60.9773 336.529 60.068ZM338.267 59.87C338.267 60.442 338.516 60.8967 339.015 61.234C339.528 61.586 340.21 61.762 341.061 61.762C341.882 61.762 342.535 61.586 343.019 61.234C343.518 60.8967 343.767 60.442 343.767 59.87C343.767 59.6353 343.723 59.43 343.635 59.254C343.562 59.078 343.437 58.9313 343.261 58.814C343.085 58.6967 342.909 58.594 342.733 58.506C342.557 58.4327 342.33 58.3667 342.051 58.308C341.772 58.264 341.538 58.2273 341.347 58.198C341.171 58.1833 340.929 58.1613 340.621 58.132C340.328 58.1027 340.122 58.0807 340.005 58.066C338.846 58.4473 338.267 59.0487 338.267 59.87ZM338.817 51.774C338.817 52.478 339.008 53.0573 339.389 53.512C339.785 53.9667 340.32 54.194 340.995 54.194C341.64 54.194 342.161 53.974 342.557 53.534C342.953 53.0793 343.151 52.5 343.151 51.796V51.07C343.151 50.3953 342.953 49.8307 342.557 49.376C342.161 48.9213 341.633 48.694 340.973 48.694C340.298 48.694 339.77 48.9213 339.389 49.376C339.008 49.816 338.817 50.3807 338.817 51.07V51.774ZM346.892 56.988C346.892 56.6653 346.994 56.394 347.2 56.174C347.42 55.9393 347.691 55.822 348.014 55.822C348.322 55.822 348.586 55.932 348.806 56.152C349.04 56.372 349.158 56.6507 349.158 56.988C349.158 57.252 348.842 58.1393 348.212 59.65C348.124 59.8553 347.962 59.958 347.728 59.958C347.566 59.958 347.42 59.9067 347.288 59.804C347.156 59.716 347.09 59.5913 347.09 59.43C347.09 59.3273 347.104 59.2467 347.134 59.188L347.596 58.044C347.126 57.8533 346.892 57.5013 346.892 56.988ZM355.933 57.34V42.82C355.933 42.2187 356.241 41.918 356.857 41.918C357.444 41.918 357.935 42.3067 358.331 43.084L361.785 49.706L365.261 43.084C365.686 42.3067 366.178 41.918 366.735 41.918C367.351 41.918 367.659 42.2187 367.659 42.82V57.34C367.659 57.5453 367.564 57.7067 367.373 57.824C367.197 57.9413 366.984 58 366.735 58C366.486 58 366.266 57.9413 366.075 57.824C365.899 57.7067 365.811 57.5453 365.811 57.34V45.79L362.489 52.038C362.313 52.3753 362.071 52.544 361.763 52.544C361.484 52.544 361.257 52.3753 361.081 52.038L357.781 45.702V57.34C357.781 57.5453 357.686 57.7067 357.495 57.824C357.319 57.9413 357.106 58 356.857 58C356.608 58 356.388 57.9413 356.197 57.824C356.021 57.7067 355.933 57.5453 355.933 57.34ZM370.779 57.362V42.556C370.779 42.38 370.852 42.2333 370.999 42.116C371.16 41.984 371.365 41.918 371.615 41.918H375.509C376.946 41.918 378.097 42.3067 378.963 43.084C379.828 43.8467 380.261 45.0567 380.261 46.714V53.204C380.261 54.8613 379.828 56.0787 378.963 56.856C378.097 57.6187 376.946 58 375.509 58H371.615C371.365 58 371.16 57.9413 370.999 57.824C370.852 57.692 370.779 57.538 370.779 57.362ZM372.627 56.328H375.509C376.433 56.328 377.144 56.0713 377.643 55.558C378.156 55.03 378.413 54.2453 378.413 53.204V46.714C378.413 45.6727 378.156 44.8953 377.643 44.382C377.144 43.854 376.433 43.59 375.509 43.59H372.627V56.328Z" fill="black"/>
<path d="M424.704 57.34V55.206C424.704 54.546 424.953 53.9007 425.452 53.27C425.965 52.6247 426.581 52.0453 427.3 51.532L429.434 49.948C430.153 49.4347 430.761 48.8627 431.26 48.232C431.773 47.5867 432.03 46.934 432.03 46.274C432.03 45.57 431.795 44.954 431.326 44.426C430.871 43.898 430.211 43.634 429.346 43.634C428.613 43.634 428.011 43.8393 427.542 44.25C427.087 44.6607 426.86 45.2547 426.86 46.032C426.86 46.2227 426.772 46.3913 426.596 46.538C426.42 46.6847 426.185 46.758 425.892 46.758C425.335 46.758 425.056 46.3987 425.056 45.68C425.056 44.58 425.467 43.678 426.288 42.974C427.124 42.27 428.143 41.918 429.346 41.918C430.637 41.918 431.715 42.3287 432.58 43.15C433.445 43.9567 433.878 44.976 433.878 46.208C433.878 46.9413 433.695 47.6453 433.328 48.32C432.976 48.9947 432.529 49.5667 431.986 50.036C431.458 50.5053 430.879 50.9747 430.248 51.444L428.488 52.698C427.96 53.0647 427.513 53.468 427.146 53.908C426.794 54.348 426.618 54.7807 426.618 55.206V56.328H433.372C433.548 56.328 433.695 56.4087 433.812 56.57C433.944 56.7313 434.01 56.9293 434.01 57.164C434.01 57.384 433.944 57.582 433.812 57.758C433.695 57.9193 433.548 58 433.372 58H425.54C425.349 58 425.159 57.9413 424.968 57.824C424.792 57.692 424.704 57.5307 424.704 57.34ZM435.866 53.336V46.714C435.866 45.0567 436.292 43.8467 437.142 43.084C438.008 42.3067 439.159 41.918 440.596 41.918C442.034 41.918 443.185 42.3067 444.05 43.084C444.916 43.8467 445.348 45.0567 445.348 46.714V53.336C445.348 54.9933 444.916 56.2107 444.05 56.988C443.185 57.7507 442.034 58.132 440.596 58.132C439.159 58.132 438.008 57.7507 437.142 56.988C436.292 56.2107 435.866 54.9933 435.866 53.336ZM437.714 53.336C437.714 55.4187 438.675 56.46 440.596 56.46C441.52 56.46 442.232 56.2033 442.73 55.69C443.244 55.162 443.5 54.3773 443.5 53.336V46.714C443.5 45.6727 443.244 44.8953 442.73 44.382C442.232 43.854 441.52 43.59 440.596 43.59C438.675 43.59 437.714 44.6313 437.714 46.714V53.336ZM439.98 50.674C439.819 50.498 439.738 50.2853 439.738 50.036C439.738 49.7867 439.819 49.5813 439.98 49.42C440.142 49.2587 440.354 49.178 440.618 49.178C440.868 49.178 441.073 49.2587 441.234 49.42C441.396 49.5813 441.476 49.7867 441.476 50.036C441.476 50.2853 441.396 50.498 441.234 50.674C441.073 50.8353 440.868 50.916 440.618 50.916C440.354 50.916 440.142 50.8353 439.98 50.674ZM447.439 54.304C447.439 53.7613 447.732 53.49 448.319 53.49C448.964 53.49 449.287 53.732 449.287 54.216C449.287 54.8907 449.558 55.4333 450.101 55.844C450.658 56.2547 451.34 56.46 452.147 56.46C454.097 56.46 455.073 55.4187 455.073 53.336V50.256C454.383 51.1653 453.313 51.62 451.861 51.62C448.913 51.62 447.439 50.1387 447.439 47.176V46.714C447.439 45.0567 447.864 43.8467 448.715 43.084C449.58 42.3067 450.731 41.918 452.169 41.918C453.606 41.918 454.757 42.3067 455.623 43.084C456.488 43.8467 456.921 45.0567 456.921 46.714V53.336C456.921 54.9933 456.481 56.2107 455.601 56.988C454.735 57.7507 453.569 58.132 452.103 58.132C450.636 58.132 449.492 57.7507 448.671 56.988C447.849 56.2253 447.439 55.3307 447.439 54.304ZM449.287 47.088C449.287 49.0827 450.255 50.08 452.191 50.08C454.112 50.08 455.073 49.1487 455.073 47.286V46.626C455.073 44.5433 454.105 43.502 452.169 43.502C450.247 43.502 449.287 44.5433 449.287 46.626V47.088ZM459.349 53.336V46.714C459.349 45.0567 459.774 43.8467 460.625 43.084C461.49 42.3067 462.641 41.918 464.079 41.918C465.516 41.918 466.667 42.3067 467.533 43.084C468.398 43.8467 468.831 45.0567 468.831 46.714V53.336C468.831 54.9933 468.398 56.2107 467.533 56.988C466.667 57.7507 465.516 58.132 464.079 58.132C462.641 58.132 461.49 57.7507 460.625 56.988C459.774 56.2107 459.349 54.9933 459.349 53.336ZM461.197 53.336C461.197 55.4187 462.157 56.46 464.079 56.46C465.003 56.46 465.714 56.2033 466.213 55.69C466.726 55.162 466.983 54.3773 466.983 53.336V46.714C466.983 45.6727 466.726 44.8953 466.213 44.382C465.714 43.854 465.003 43.59 464.079 43.59C462.157 43.59 461.197 44.6313 461.197 46.714V53.336ZM463.463 50.674C463.301 50.498 463.221 50.2853 463.221 50.036C463.221 49.7867 463.301 49.5813 463.463 49.42C463.624 49.2587 463.837 49.178 464.101 49.178C464.35 49.178 464.555 49.2587 464.717 49.42C464.878 49.5813 464.959 49.7867 464.959 50.036C464.959 50.2853 464.878 50.498 464.717 50.674C464.555 50.8353 464.35 50.916 464.101 50.916C463.837 50.916 463.624 50.8353 463.463 50.674ZM470.591 54.326C470.591 53.7393 470.899 53.446 471.515 53.446C472.131 53.446 472.439 53.6953 472.439 54.194C472.439 54.898 472.71 55.4553 473.253 55.866C473.796 56.262 474.485 56.46 475.321 56.46C476.245 56.46 476.956 56.2033 477.455 55.69C477.968 55.1767 478.225 54.4067 478.225 53.38V52.962C478.225 51.9647 477.968 51.2167 477.455 50.718C476.956 50.2047 476.252 49.948 475.343 49.948H472.219C471.647 49.948 471.361 49.706 471.361 49.222C471.361 49.0753 471.376 48.914 471.405 48.738L471.867 42.578C471.896 42.138 472.058 41.918 472.351 41.918H478.687C478.878 41.918 479.024 42.006 479.127 42.182C479.23 42.3433 479.281 42.534 479.281 42.754C479.281 42.974 479.23 43.172 479.127 43.348C479.024 43.5093 478.878 43.59 478.687 43.59H473.473L473.143 48.408H475.343C476.78 48.408 477.924 48.7747 478.775 49.508C479.64 50.2413 480.073 51.3927 480.073 52.962V53.38C480.073 55.008 479.64 56.2107 478.775 56.988C477.91 57.7507 476.766 58.132 475.343 58.132C473.876 58.132 472.718 57.7653 471.867 57.032C471.016 56.284 470.591 55.382 470.591 54.326Z" fill="black"/>
</svg>
