<svg width="252" height="37" viewBox="0 0 252 37" fill="none" xmlns="http://www.w3.org/2000/svg">
<path d="M0.376 26.74V3.592C0.376 2.944 0.556 2.464 0.916 2.152C1.276 1.84 1.732 1.684 2.284 1.684C2.98 1.684 3.544 1.84 3.976 2.152C4.432 2.44 4.876 3.004 5.308 3.844L10.348 13.384L15.46 3.844C15.892 3.004 16.324 2.44 16.756 2.152C17.188 1.84 17.752 1.684 18.448 1.684C19 1.684 19.456 1.84 19.816 2.152C20.176 2.464 20.356 2.944 20.356 3.592V26.74C20.356 27.124 20.164 27.436 19.78 27.676C19.42 27.892 18.976 28 18.448 28C17.944 28 17.5 27.892 17.116 27.676C16.732 27.436 16.54 27.124 16.54 26.74V9.46L11.716 18.388C11.356 18.964 10.888 19.252 10.312 19.252C9.736 19.252 9.304 18.964 9.016 18.388L4.192 9.244V26.74C4.192 27.124 4 27.436 3.616 27.676C3.256 27.892 2.812 28 2.284 28C1.78 28 1.336 27.892 0.952 27.676C0.568 27.436 0.376 27.124 0.376 26.74ZM23.8351 21.124V17.812C23.8351 15.916 24.5671 14.26 26.0311 12.844C27.4951 11.428 29.2471 10.72 31.2871 10.72C33.2791 10.72 35.0191 11.428 36.5071 12.844C37.9951 14.236 38.7391 15.892 38.7391 17.812V21.124C38.7391 22.996 37.9831 24.664 36.4711 26.128C34.9831 27.568 33.2551 28.288 31.2871 28.288C29.2951 28.288 27.5551 27.568 26.0671 26.128C24.5791 24.688 23.8351 23.02 23.8351 21.124ZM27.6151 21.124C27.6151 22.108 27.9751 22.996 28.6951 23.788C29.4151 24.556 30.2791 24.94 31.2871 24.94C32.2711 24.94 33.1231 24.556 33.8431 23.788C34.5871 22.996 34.9591 22.108 34.9591 21.124V17.812C34.9591 16.852 34.5871 15.988 33.8431 15.22C33.1231 14.452 32.2711 14.068 31.2871 14.068C30.2791 14.068 29.4151 14.452 28.6951 15.22C27.9751 15.988 27.6151 16.852 27.6151 17.812V21.124ZM42.062 26.74V12.16C42.062 11.8 42.23 11.512 42.566 11.296C42.926 11.056 43.382 10.936 43.934 10.936C44.414 10.936 44.81 11.056 45.122 11.296C45.458 11.512 45.626 11.8 45.626 12.16V13.456C46.01 12.688 46.622 12.04 47.462 11.512C48.326 10.984 49.322 10.72 50.45 10.72C52.154 10.72 53.618 11.416 54.842 12.808C56.09 14.2 56.714 15.868 56.714 17.812V26.74C56.714 27.124 56.522 27.436 56.138 27.676C55.778 27.892 55.334 28 54.806 28C54.326 28 53.894 27.892 53.51 27.676C53.126 27.436 52.934 27.124 52.934 26.74V17.812C52.934 16.852 52.574 15.988 51.854 15.22C51.134 14.452 50.282 14.068 49.298 14.068C48.386 14.068 47.582 14.416 46.886 15.112C46.19 15.784 45.842 16.684 45.842 17.812V26.74C45.842 27.052 45.65 27.34 45.266 27.604C44.882 27.868 44.438 28 43.934 28C43.406 28 42.962 27.868 42.602 27.604C42.242 27.34 42.062 27.052 42.062 26.74ZM60.4831 22.384V4.348C60.4831 4.012 60.6751 3.724 61.0591 3.484C61.4431 3.244 61.8751 3.124 62.3551 3.124C62.8351 3.124 63.2671 3.244 63.6511 3.484C64.0591 3.724 64.2631 4.012 64.2631 4.348V10.936H68.6551C68.9671 10.936 69.2191 11.08 69.4111 11.368C69.6031 11.632 69.6991 11.956 69.6991 12.34C69.6991 12.724 69.6031 13.06 69.4111 13.348C69.2191 13.612 68.9671 13.744 68.6551 13.744H64.2631V22.384C64.2631 23.248 64.4431 23.86 64.8031 24.22C65.1871 24.58 65.8471 24.76 66.7831 24.76H68.0431C68.5471 24.76 68.9431 24.916 69.2311 25.228C69.5191 25.54 69.6631 25.924 69.6631 26.38C69.6631 26.836 69.5191 27.22 69.2311 27.532C68.9431 27.844 68.5471 28 68.0431 28H66.7831C62.5831 28 60.4831 26.128 60.4831 22.384ZM72.4027 26.74V2.008C72.4027 1.648 72.5707 1.36 72.9067 1.144C73.2667 0.903998 73.7227 0.783998 74.2747 0.783998C74.8027 0.783998 75.2467 0.903998 75.6067 1.144C75.9907 1.36 76.1827 1.648 76.1827 2.008V13.456C76.5667 12.688 77.1547 12.04 77.9467 11.512C78.7627 10.984 79.7107 10.72 80.7907 10.72C82.4947 10.72 83.9587 11.416 85.1827 12.808C86.4307 14.2 87.0547 15.868 87.0547 17.812V26.74C87.0547 27.124 86.8627 27.436 86.4787 27.676C86.0947 27.892 85.6507 28 85.1467 28C84.6667 28 84.2347 27.892 83.8507 27.676C83.4667 27.436 83.2747 27.124 83.2747 26.74V17.812C83.2747 16.852 82.9147 15.988 82.1947 15.22C81.4747 14.452 80.6227 14.068 79.6387 14.068C78.7267 14.068 77.9227 14.416 77.2267 15.112C76.5307 15.784 76.1827 16.684 76.1827 17.812V26.74C76.1827 27.052 75.9907 27.34 75.6067 27.604C75.2227 27.868 74.7787 28 74.2747 28C73.7467 28 73.3027 27.868 72.9427 27.604C72.5827 27.34 72.4027 27.052 72.4027 26.74ZM91.1829 26.74V2.008C91.1829 1.648 91.3509 1.36 91.6869 1.144C92.0469 0.903998 92.5029 0.783998 93.0549 0.783998C93.5829 0.783998 94.0269 0.903998 94.3869 1.144C94.7709 1.36 94.9629 1.648 94.9629 2.008V26.74C94.9629 27.052 94.7709 27.34 94.3869 27.604C94.0029 27.868 93.5589 28 93.0549 28C92.5269 28 92.0829 27.868 91.7229 27.604C91.3629 27.34 91.1829 27.052 91.1829 26.74ZM99.4053 36.1C98.2293 36.1 97.6413 35.56 97.6413 34.48C97.6413 33.4 97.9893 32.86 98.6853 32.86C99.7653 32.86 100.833 32.344 101.889 31.312C102.945 30.28 103.593 28.828 103.833 26.956L97.7853 12.988C97.6893 12.868 97.6413 12.7 97.6413 12.484C97.6413 12.028 97.9173 11.62 98.4692 11.26C99.0213 10.876 99.5733 10.684 100.125 10.684C100.725 10.684 101.109 10.912 101.277 11.368L105.813 23.068L109.701 11.368C109.917 10.912 110.277 10.684 110.781 10.684C111.285 10.684 111.825 10.876 112.401 11.26C113.001 11.62 113.301 12.052 113.301 12.556C113.301 12.772 113.277 12.916 113.229 12.988L107.901 27.064L107.289 28.684C107.145 29.02 106.917 29.536 106.605 30.232C106.317 30.928 106.065 31.456 105.849 31.816L104.985 33.148C104.625 33.7 104.265 34.108 103.905 34.372C103.545 34.66 103.137 34.948 102.681 35.236C102.225 35.548 101.721 35.764 101.169 35.884C100.617 36.028 100.029 36.1 99.4053 36.1ZM121.985 24.04C121.985 23.584 122.153 23.128 122.489 22.672C122.825 22.216 123.209 21.988 123.641 21.988C123.905 21.988 124.217 22.144 124.577 22.456C124.961 22.744 125.333 23.068 125.693 23.428C126.053 23.764 126.593 24.088 127.313 24.4C128.057 24.688 128.885 24.832 129.797 24.832C131.165 24.832 132.257 24.508 133.073 23.86C133.913 23.212 134.333 22.264 134.333 21.016C134.333 19.864 133.925 18.904 133.109 18.136C132.317 17.368 131.345 16.756 130.193 16.3C129.065 15.844 127.925 15.352 126.773 14.824C125.621 14.296 124.637 13.504 123.821 12.448C123.029 11.392 122.633 10.072 122.633 8.488C122.633 7.216 122.873 6.112 123.353 5.176C123.857 4.24 124.529 3.52 125.369 3.016C126.209 2.512 127.085 2.152 127.997 1.936C128.933 1.696 129.917 1.576 130.949 1.576C131.597 1.576 132.269 1.624 132.965 1.72C133.685 1.792 134.393 1.924 135.089 2.116C135.785 2.308 136.361 2.584 136.817 2.944C137.273 3.304 137.501 3.712 137.501 4.168C137.501 4.624 137.357 5.08 137.069 5.536C136.781 5.992 136.397 6.22 135.917 6.22C135.677 6.22 135.353 6.112 134.945 5.896C134.537 5.656 133.985 5.428 133.289 5.212C132.617 4.972 131.837 4.852 130.949 4.852C129.581 4.852 128.489 5.128 127.673 5.68C126.857 6.208 126.449 7.024 126.449 8.128C126.449 8.848 126.665 9.472 127.097 10C127.529 10.504 128.081 10.924 128.753 11.26C129.449 11.596 130.217 11.932 131.057 12.268C131.897 12.58 132.725 12.952 133.541 13.384C134.381 13.816 135.137 14.32 135.809 14.896C136.505 15.448 137.069 16.216 137.501 17.2C137.933 18.184 138.149 19.324 138.149 20.62C138.149 23.116 137.393 25.024 135.881 26.344C134.393 27.64 132.413 28.288 129.941 28.288C127.733 28.288 125.849 27.832 124.289 26.92C122.753 25.984 121.985 25.024 121.985 24.04ZM140.767 21.124V17.884C140.767 15.748 141.391 14.02 142.639 12.7C143.887 11.38 145.747 10.72 148.219 10.72C149.779 10.72 151.087 10.996 152.143 11.548C153.199 12.076 153.727 12.676 153.727 13.348C153.727 13.756 153.571 14.164 153.259 14.572C152.971 14.98 152.623 15.184 152.215 15.184C152.095 15.184 151.663 15.004 150.919 14.644C150.199 14.26 149.395 14.068 148.507 14.068C145.867 14.068 144.547 15.34 144.547 17.884V21.124C144.547 23.668 145.879 24.94 148.543 24.94C149.455 24.94 150.271 24.748 150.991 24.364C151.735 23.956 152.179 23.752 152.323 23.752C152.803 23.752 153.187 23.944 153.475 24.328C153.787 24.712 153.943 25.12 153.943 25.552C153.943 26.224 153.391 26.848 152.287 27.424C151.183 28 149.839 28.288 148.255 28.288C145.759 28.288 143.887 27.64 142.639 26.344C141.391 25.024 140.767 23.284 140.767 21.124ZM156.707 26.74V2.008C156.707 1.648 156.875 1.36 157.211 1.144C157.571 0.903998 158.027 0.783998 158.579 0.783998C159.107 0.783998 159.551 0.903998 159.911 1.144C160.295 1.36 160.487 1.648 160.487 2.008V13.456C160.871 12.688 161.459 12.04 162.251 11.512C163.067 10.984 164.015 10.72 165.095 10.72C166.799 10.72 168.263 11.416 169.487 12.808C170.735 14.2 171.359 15.868 171.359 17.812V26.74C171.359 27.124 171.167 27.436 170.783 27.676C170.399 27.892 169.955 28 169.451 28C168.971 28 168.539 27.892 168.155 27.676C167.771 27.436 167.579 27.124 167.579 26.74V17.812C167.579 16.852 167.219 15.988 166.499 15.22C165.779 14.452 164.927 14.068 163.943 14.068C163.031 14.068 162.227 14.416 161.531 15.112C160.835 15.784 160.487 16.684 160.487 17.812V26.74C160.487 27.052 160.295 27.34 159.911 27.604C159.527 27.868 159.083 28 158.579 28C158.051 28 157.607 27.868 157.247 27.604C156.887 27.34 156.707 27.052 156.707 26.74ZM174.516 21.124V17.704C174.516 15.808 175.248 14.176 176.712 12.808C178.176 11.416 179.94 10.72 182.004 10.72C183.972 10.72 185.652 11.356 187.044 12.628C188.46 13.876 189.168 15.46 189.168 17.38C189.168 18.1 189.084 18.688 188.916 19.144C188.748 19.576 188.484 19.888 188.124 20.08C187.764 20.248 187.428 20.356 187.116 20.404C186.804 20.452 186.396 20.476 185.892 20.476H178.296V21.304C178.296 22.504 178.728 23.464 179.592 24.184C180.456 24.88 181.584 25.228 182.976 25.228C183.96 25.228 184.884 25 185.748 24.544C186.636 24.088 187.176 23.86 187.368 23.86C187.776 23.86 188.124 24.052 188.412 24.436C188.7 24.82 188.844 25.192 188.844 25.552C188.844 26.152 188.268 26.764 187.116 27.388C185.964 27.988 184.548 28.288 182.868 28.288C180.42 28.288 178.416 27.628 176.856 26.308C175.296 24.988 174.516 23.26 174.516 21.124ZM178.296 18.136H184.272C184.8 18.136 185.148 18.064 185.316 17.92C185.508 17.776 185.604 17.488 185.604 17.056C185.604 16.096 185.256 15.28 184.56 14.608C183.864 13.936 183 13.6 181.968 13.6C180.96 13.6 180.096 13.924 179.376 14.572C178.656 15.196 178.296 16 178.296 16.984V18.136ZM191.566 21.124V17.812C191.566 15.868 192.19 14.2 193.438 12.808C194.71 11.416 196.234 10.72 198.01 10.72C199.066 10.72 200.002 10.984 200.818 11.512C201.634 12.04 202.258 12.688 202.69 13.456V2.008C202.69 1.648 202.87 1.36 203.23 1.144C203.59 0.903998 204.046 0.783998 204.598 0.783998C205.15 0.783998 205.594 0.903998 205.93 1.144C206.29 1.36 206.47 1.648 206.47 2.008V26.74C206.47 27.052 206.29 27.34 205.93 27.604C205.57 27.868 205.126 28 204.598 28C204.142 28 203.734 27.868 203.374 27.604C203.038 27.34 202.87 27.052 202.87 26.74V25.48C202.486 26.248 201.826 26.908 200.89 27.46C199.978 28.012 198.982 28.288 197.902 28.288C196.222 28.288 194.746 27.568 193.474 26.128C192.202 24.664 191.566 22.996 191.566 21.124ZM195.346 21.124C195.346 22.108 195.706 22.996 196.426 23.788C197.146 24.556 197.998 24.94 198.982 24.94C199.918 24.94 200.77 24.58 201.538 23.86C202.306 23.116 202.69 22.48 202.69 21.952V17.812C202.69 16.708 202.318 15.808 201.574 15.112C200.83 14.416 199.978 14.068 199.018 14.068C198.034 14.068 197.17 14.452 196.426 15.22C195.706 15.988 195.346 16.852 195.346 17.812V21.124ZM210.316 21.196V12.196C210.316 11.86 210.508 11.572 210.892 11.332C211.276 11.068 211.72 10.936 212.224 10.936C212.728 10.936 213.16 11.068 213.52 11.332C213.904 11.572 214.096 11.86 214.096 12.196V21.196C214.096 22.156 214.456 23.02 215.176 23.788C215.92 24.556 216.784 24.94 217.768 24.94C218.776 24.94 219.64 24.568 220.36 23.824C221.08 23.056 221.44 22.18 221.44 21.196V12.16C221.44 11.824 221.62 11.536 221.98 11.296C222.364 11.056 222.82 10.936 223.348 10.936C223.876 10.936 224.308 11.056 224.644 11.296C225.004 11.536 225.184 11.824 225.184 12.16V21.196C225.184 23.092 224.452 24.748 222.988 26.164C221.524 27.58 219.784 28.288 217.768 28.288C215.752 28.288 214 27.58 212.512 26.164C211.048 24.748 210.316 23.092 210.316 21.196ZM229.312 26.74V2.008C229.312 1.648 229.48 1.36 229.816 1.144C230.176 0.903998 230.632 0.783998 231.184 0.783998C231.712 0.783998 232.156 0.903998 232.516 1.144C232.9 1.36 233.092 1.648 233.092 2.008V26.74C233.092 27.052 232.9 27.34 232.516 27.604C232.132 27.868 231.688 28 231.184 28C230.656 28 230.212 27.868 229.852 27.604C229.492 27.34 229.312 27.052 229.312 26.74ZM236.742 21.124V17.704C236.742 15.808 237.474 14.176 238.938 12.808C240.402 11.416 242.166 10.72 244.23 10.72C246.198 10.72 247.878 11.356 249.27 12.628C250.686 13.876 251.394 15.46 251.394 17.38C251.394 18.1 251.31 18.688 251.142 19.144C250.974 19.576 250.71 19.888 250.35 20.08C249.99 20.248 249.654 20.356 249.342 20.404C249.03 20.452 248.622 20.476 248.118 20.476H240.522V21.304C240.522 22.504 240.954 23.464 241.818 24.184C242.682 24.88 243.81 25.228 245.202 25.228C246.186 25.228 247.11 25 247.974 24.544C248.862 24.088 249.402 23.86 249.594 23.86C250.002 23.86 250.35 24.052 250.638 24.436C250.926 24.82 251.07 25.192 251.07 25.552C251.07 26.152 250.494 26.764 249.342 27.388C248.19 27.988 246.774 28.288 245.094 28.288C242.646 28.288 240.642 27.628 239.082 26.308C237.522 24.988 236.742 23.26 236.742 21.124ZM240.522 18.136H246.498C247.026 18.136 247.374 18.064 247.542 17.92C247.734 17.776 247.83 17.488 247.83 17.056C247.83 16.096 247.482 15.28 246.786 14.608C246.09 13.936 245.226 13.6 244.194 13.6C243.186 13.6 242.322 13.924 241.602 14.572C240.882 15.196 240.522 16 240.522 16.984V18.136Z" fill="#982649"/>
</svg>
