<svg width="709" height="64" viewBox="0 0 709 64" fill="none" xmlns="http://www.w3.org/2000/svg">
<path d="M0.364 2.596C0.364 2.316 0.438667 2.07333 0.588 1.868C0.737333 1.644 0.942667 1.532 1.204 1.532H12.6C12.8613 1.532 13.0667 1.644 13.216 1.868C13.3653 2.07333 13.44 2.316 13.44 2.596C13.44 2.89467 13.3653 3.156 13.216 3.38C13.0667 3.604 12.8613 3.716 12.6 3.716H8.092V21.16C8.092 21.4213 7.97067 21.6267 7.728 21.776C7.504 21.9253 7.23333 22 6.916 22C6.59867 22 6.31867 21.9253 6.076 21.776C5.852 21.6267 5.74 21.4213 5.74 21.16V3.716H1.204C0.942667 3.716 0.737333 3.61333 0.588 3.408C0.438667 3.184 0.364 2.91333 0.364 2.596ZM15.5159 21.16V1.532C15.5159 1.28933 15.6186 1.09333 15.8239 0.943999C16.0479 0.794665 16.3279 0.719999 16.6639 0.719999C16.9999 0.719999 17.2799 0.794665 17.5039 0.943999C17.7279 1.09333 17.8399 1.28933 17.8399 1.532V10.688C18.1573 10.0907 18.6239 9.58667 19.2399 9.176C19.8746 8.76533 20.6213 8.56 21.4799 8.56C22.8053 8.56 23.9533 9.092 24.9239 10.156C25.9133 11.2013 26.4079 12.4613 26.4079 13.936V21.16C26.4079 21.4213 26.2866 21.6267 26.0439 21.776C25.8199 21.9253 25.5493 22 25.2319 22C24.9333 22 24.6626 21.9253 24.4199 21.776C24.1959 21.6267 24.0839 21.4213 24.0839 21.16V13.936C24.0839 13.096 23.7666 12.34 23.1319 11.668C22.4973 10.996 21.7506 10.66 20.8919 10.66C20.0893 10.66 19.3799 10.968 18.7639 11.584C18.1479 12.1813 17.8399 12.9653 17.8399 13.936V21.16C17.8399 21.3653 17.7186 21.5613 17.4759 21.748C17.2519 21.916 16.9813 22 16.6639 22C16.3466 22 16.0759 21.916 15.8519 21.748C15.6279 21.58 15.5159 21.384 15.5159 21.16ZM29.0933 16.792V13.852C29.0933 12.4147 29.6346 11.1733 30.7173 10.128C31.8186 9.08267 33.1346 8.56 34.6653 8.56C36.1213 8.56 37.3813 9.05467 38.4453 10.044C39.5093 11.0147 40.0413 12.2373 40.0413 13.712C40.0413 14.2533 39.976 14.692 39.8453 15.028C39.7146 15.3453 39.5093 15.5787 39.2293 15.728C38.968 15.8587 38.716 15.9427 38.4733 15.98C38.2493 16.0173 37.9413 16.036 37.5493 16.036H31.4173V16.876C31.4173 17.9027 31.7813 18.724 32.5093 19.34C33.256 19.956 34.2173 20.264 35.3933 20.264C36.0093 20.264 36.5413 20.1707 36.9893 19.984C37.456 19.7973 37.8293 19.62 38.1093 19.452C38.3893 19.2653 38.6133 19.172 38.7813 19.172C39.0426 19.172 39.2666 19.2933 39.4533 19.536C39.64 19.76 39.7333 19.9933 39.7333 20.236C39.7333 20.6653 39.304 21.104 38.4453 21.552C37.6053 22 36.56 22.224 35.3093 22.224C33.48 22.224 31.9866 21.7293 30.8293 20.74C29.672 19.732 29.0933 18.416 29.0933 16.792ZM31.4173 14.468H36.5973C37.0826 14.468 37.4093 14.412 37.5773 14.3C37.7453 14.1693 37.8293 13.9267 37.8293 13.572C37.8293 12.732 37.5213 11.9947 36.9053 11.36C36.2893 10.7253 35.5333 10.408 34.6373 10.408C33.76 10.408 33.004 10.7067 32.3693 11.304C31.7346 11.8827 31.4173 12.6013 31.4173 13.46V14.468ZM47.7424 16.792V13.992C47.7424 12.3867 48.2091 11.08 49.1424 10.072C50.0944 9.064 51.4851 8.56 53.3144 8.56C54.4717 8.56 55.4424 8.76533 56.2264 9.176C57.0291 9.58667 57.4304 10.0253 57.4304 10.492C57.4304 10.7533 57.3277 11.0147 57.1224 11.276C56.9357 11.5187 56.7117 11.64 56.4504 11.64C56.3757 11.64 56.0491 11.4813 55.4704 11.164C54.9104 10.828 54.2477 10.66 53.4824 10.66C52.3624 10.66 51.5131 10.9493 50.9344 11.528C50.3557 12.1067 50.0664 12.928 50.0664 13.992V16.792C50.0664 19.0133 51.2144 20.124 53.5104 20.124C54.2944 20.124 54.9757 19.956 55.5544 19.62C56.1331 19.284 56.4691 19.116 56.5624 19.116C56.8611 19.116 57.1037 19.2373 57.2904 19.48C57.4957 19.7227 57.5984 19.9747 57.5984 20.236C57.5984 20.7027 57.1877 21.1507 56.3664 21.58C55.5451 22.0093 54.5371 22.224 53.3424 22.224C51.4944 22.224 50.0944 21.7293 49.1424 20.74C48.2091 19.732 47.7424 18.416 47.7424 16.792ZM60.1462 21.16V1.532C60.1462 1.28933 60.2489 1.09333 60.4542 0.943999C60.6782 0.794665 60.9582 0.719999 61.2942 0.719999C61.6302 0.719999 61.9102 0.794665 62.1342 0.943999C62.3582 1.09333 62.4702 1.28933 62.4702 1.532V21.16C62.4702 21.3653 62.3489 21.5613 62.1062 21.748C61.8822 21.916 61.6115 22 61.2942 22C60.9769 22 60.7062 21.916 60.4822 21.748C60.2582 21.58 60.1462 21.384 60.1462 21.16ZM65.1512 18.5C65.1512 17.044 65.7112 16.036 66.8312 15.476C67.9512 14.8973 69.5752 14.608 71.7032 14.608H73.0472V14.02C73.0472 13.0867 72.7859 12.2747 72.2632 11.584C71.7592 10.8933 70.9939 10.548 69.9672 10.548C69.1832 10.548 68.4925 10.688 67.8952 10.968C67.2979 11.2293 66.9712 11.36 66.9152 11.36C66.6539 11.36 66.4392 11.2387 66.2712 10.996C66.1219 10.7347 66.0472 10.464 66.0472 10.184C66.0472 9.75467 66.4672 9.38133 67.3072 9.064C68.1659 8.728 69.0712 8.56 70.0232 8.56C71.8525 8.56 73.1965 9.08267 74.0552 10.128C74.9325 11.1547 75.3712 12.4427 75.3712 13.992V21.16C75.3712 21.4027 75.2592 21.608 75.0352 21.776C74.8299 21.9253 74.5592 22 74.2232 22C73.9245 22 73.6725 21.9253 73.4672 21.776C73.2619 21.608 73.1592 21.4027 73.1592 21.16V20.04C71.8899 21.496 70.4805 22.224 68.9312 22.224C67.8112 22.224 66.8965 21.9067 66.1872 21.272C65.4965 20.6373 65.1512 19.7133 65.1512 18.5ZM67.5032 18.248C67.5032 18.9387 67.6992 19.4613 68.0912 19.816C68.4832 20.1707 69.0059 20.348 69.6592 20.348C70.4432 20.348 71.1992 20.04 71.9272 19.424C72.6739 18.7893 73.0472 18.1453 73.0472 17.492V16.036H72.0672C71.5259 16.036 71.0592 16.0547 70.6672 16.092C70.2752 16.1107 69.8645 16.1667 69.4352 16.26C69.0245 16.3347 68.6792 16.456 68.3992 16.624C68.1379 16.7733 67.9232 16.988 67.7552 17.268C67.5872 17.5293 67.5032 17.856 67.5032 18.248ZM77.758 20.096C77.758 19.8533 77.8326 19.62 77.982 19.396C78.15 19.1533 78.346 19.032 78.57 19.032C78.7193 19.032 78.934 19.144 79.214 19.368C79.494 19.592 79.8953 19.816 80.418 20.04C80.9406 20.2453 81.5566 20.348 82.266 20.348C83.1993 20.348 83.8713 20.18 84.282 19.844C84.7113 19.508 84.926 19.088 84.926 18.584C84.926 17.968 84.6926 17.4827 84.226 17.128C83.7593 16.7547 83.19 16.4747 82.518 16.288C81.846 16.1013 81.174 15.896 80.502 15.672C79.83 15.448 79.2606 15.0747 78.794 14.552C78.3273 14.0293 78.094 13.3387 78.094 12.48C78.094 11.416 78.4673 10.5013 79.214 9.736C79.9793 8.952 81.1366 8.56 82.686 8.56C83.6753 8.56 84.5806 8.71867 85.402 9.036C86.2233 9.33467 86.634 9.68 86.634 10.072C86.634 10.296 86.5406 10.548 86.354 10.828C86.186 11.108 85.9713 11.248 85.71 11.248C85.6353 11.248 85.2713 11.1173 84.618 10.856C83.9833 10.576 83.3486 10.436 82.714 10.436C81.8553 10.436 81.2113 10.6413 80.782 11.052C80.3713 11.444 80.166 11.892 80.166 12.396C80.166 12.9187 80.3993 13.3293 80.866 13.628C81.3326 13.9267 81.902 14.16 82.574 14.328C83.2646 14.496 83.946 14.7013 84.618 14.944C85.29 15.1867 85.8593 15.6067 86.326 16.204C86.7926 16.7827 87.026 17.5387 87.026 18.472C87.026 19.6293 86.6153 20.544 85.794 21.216C84.9726 21.888 83.8246 22.224 82.35 22.224C81.0806 22.224 79.998 22 79.102 21.552C78.206 21.0853 77.758 20.6 77.758 20.096ZM88.7228 20.096C88.7228 19.8533 88.7975 19.62 88.9468 19.396C89.1148 19.1533 89.3108 19.032 89.5348 19.032C89.6841 19.032 89.8988 19.144 90.1788 19.368C90.4588 19.592 90.8601 19.816 91.3828 20.04C91.9055 20.2453 92.5215 20.348 93.2308 20.348C94.1641 20.348 94.8361 20.18 95.2468 19.844C95.6761 19.508 95.8908 19.088 95.8908 18.584C95.8908 17.968 95.6575 17.4827 95.1908 17.128C94.7241 16.7547 94.1548 16.4747 93.4828 16.288C92.8108 16.1013 92.1388 15.896 91.4668 15.672C90.7948 15.448 90.2255 15.0747 89.7588 14.552C89.2921 14.0293 89.0588 13.3387 89.0588 12.48C89.0588 11.416 89.4321 10.5013 90.1788 9.736C90.9441 8.952 92.1015 8.56 93.6508 8.56C94.6401 8.56 95.5455 8.71867 96.3668 9.036C97.1881 9.33467 97.5988 9.68 97.5988 10.072C97.5988 10.296 97.5055 10.548 97.3188 10.828C97.1508 11.108 96.9361 11.248 96.6748 11.248C96.6001 11.248 96.2361 11.1173 95.5828 10.856C94.9481 10.576 94.3135 10.436 93.6788 10.436C92.8201 10.436 92.1761 10.6413 91.7468 11.052C91.3361 11.444 91.1308 11.892 91.1308 12.396C91.1308 12.9187 91.3641 13.3293 91.8308 13.628C92.2975 13.9267 92.8668 14.16 93.5388 14.328C94.2295 14.496 94.9108 14.7013 95.5828 14.944C96.2548 15.1867 96.8241 15.6067 97.2908 16.204C97.7575 16.7827 97.9908 17.5387 97.9908 18.472C97.9908 19.6293 97.5801 20.544 96.7588 21.216C95.9375 21.888 94.7895 22.224 93.3148 22.224C92.0455 22.224 90.9628 22 90.0668 21.552C89.1708 21.0853 88.7228 20.6 88.7228 20.096ZM105.629 16.792V13.992C105.629 12.3867 106.096 11.08 107.029 10.072C107.981 9.064 109.372 8.56 111.201 8.56C112.358 8.56 113.329 8.76533 114.113 9.176C114.916 9.58667 115.317 10.0253 115.317 10.492C115.317 10.7533 115.214 11.0147 115.009 11.276C114.822 11.5187 114.598 11.64 114.337 11.64C114.262 11.64 113.936 11.4813 113.357 11.164C112.797 10.828 112.134 10.66 111.369 10.66C110.249 10.66 109.4 10.9493 108.821 11.528C108.242 12.1067 107.953 12.928 107.953 13.992V16.792C107.953 19.0133 109.101 20.124 111.397 20.124C112.181 20.124 112.862 19.956 113.441 19.62C114.02 19.284 114.356 19.116 114.449 19.116C114.748 19.116 114.99 19.2373 115.177 19.48C115.382 19.7227 115.485 19.9747 115.485 20.236C115.485 20.7027 115.074 21.1507 114.253 21.58C113.432 22.0093 112.424 22.224 111.229 22.224C109.381 22.224 107.981 21.7293 107.029 20.74C106.096 19.732 105.629 18.416 105.629 16.792ZM116.913 18.5C116.913 17.044 117.473 16.036 118.593 15.476C119.713 14.8973 121.337 14.608 123.465 14.608H124.809V14.02C124.809 13.0867 124.548 12.2747 124.025 11.584C123.521 10.8933 122.756 10.548 121.729 10.548C120.945 10.548 120.254 10.688 119.657 10.968C119.06 11.2293 118.733 11.36 118.677 11.36C118.416 11.36 118.201 11.2387 118.033 10.996C117.884 10.7347 117.809 10.464 117.809 10.184C117.809 9.75467 118.229 9.38133 119.069 9.064C119.928 8.728 120.833 8.56 121.785 8.56C123.614 8.56 124.958 9.08267 125.817 10.128C126.694 11.1547 127.133 12.4427 127.133 13.992V21.16C127.133 21.4027 127.021 21.608 126.797 21.776C126.592 21.9253 126.321 22 125.985 22C125.686 22 125.434 21.9253 125.229 21.776C125.024 21.608 124.921 21.4027 124.921 21.16V20.04C123.652 21.496 122.242 22.224 120.693 22.224C119.573 22.224 118.658 21.9067 117.949 21.272C117.258 20.6373 116.913 19.7133 116.913 18.5ZM119.265 18.248C119.265 18.9387 119.461 19.4613 119.853 19.816C120.245 20.1707 120.768 20.348 121.421 20.348C122.205 20.348 122.961 20.04 123.689 19.424C124.436 18.7893 124.809 18.1453 124.809 17.492V16.036H123.829C123.288 16.036 122.821 16.0547 122.429 16.092C122.037 16.1107 121.626 16.1667 121.197 16.26C120.786 16.3347 120.441 16.456 120.161 16.624C119.9 16.7733 119.685 16.988 119.517 17.268C119.349 17.5293 119.265 17.856 119.265 18.248ZM130.584 21.16V1.532C130.584 1.28933 130.686 1.09333 130.892 0.943999C131.116 0.794665 131.396 0.719999 131.732 0.719999C132.068 0.719999 132.348 0.794665 132.572 0.943999C132.796 1.09333 132.908 1.28933 132.908 1.532V21.16C132.908 21.3653 132.786 21.5613 132.544 21.748C132.32 21.916 132.049 22 131.732 22C131.414 22 131.144 21.916 130.92 21.748C130.696 21.58 130.584 21.384 130.584 21.16ZM135.953 16.792V13.852C135.953 12.4147 136.494 11.1733 137.577 10.128C138.678 9.08267 139.994 8.56 141.525 8.56C142.981 8.56 144.241 9.05467 145.305 10.044C146.369 11.0147 146.901 12.2373 146.901 13.712C146.901 14.2533 146.835 14.692 146.705 15.028C146.574 15.3453 146.369 15.5787 146.089 15.728C145.827 15.8587 145.575 15.9427 145.333 15.98C145.109 16.0173 144.801 16.036 144.409 16.036H138.277V16.876C138.277 17.9027 138.641 18.724 139.369 19.34C140.115 19.956 141.077 20.264 142.253 20.264C142.869 20.264 143.401 20.1707 143.849 19.984C144.315 19.7973 144.689 19.62 144.969 19.452C145.249 19.2653 145.473 19.172 145.641 19.172C145.902 19.172 146.126 19.2933 146.313 19.536C146.499 19.76 146.593 19.9933 146.593 20.236C146.593 20.6653 146.163 21.104 145.305 21.552C144.465 22 143.419 22.224 142.169 22.224C140.339 22.224 138.846 21.7293 137.689 20.74C136.531 19.732 135.953 18.416 135.953 16.792ZM138.277 14.468H143.457C143.942 14.468 144.269 14.412 144.437 14.3C144.605 14.1693 144.689 13.9267 144.689 13.572C144.689 12.732 144.381 11.9947 143.765 11.36C143.149 10.7253 142.393 10.408 141.497 10.408C140.619 10.408 139.863 10.7067 139.229 11.304C138.594 11.8827 138.277 12.6013 138.277 13.46V14.468ZM149.472 21.16V9.54C149.472 9.29733 149.575 9.10133 149.78 8.952C150.004 8.80267 150.284 8.728 150.62 8.728C150.9 8.728 151.143 8.812 151.348 8.98C151.572 9.12933 151.684 9.316 151.684 9.54V10.688C151.983 10.0907 152.459 9.58667 153.112 9.176C153.784 8.76533 154.559 8.56 155.436 8.56C156.762 8.56 157.91 9.092 158.88 10.156C159.87 11.2013 160.364 12.4613 160.364 13.936V21.16C160.364 21.4213 160.243 21.6267 160 21.776C159.776 21.9253 159.506 22 159.188 22C158.89 22 158.619 21.9253 158.376 21.776C158.152 21.6267 158.04 21.4213 158.04 21.16V13.936C158.04 13.096 157.723 12.34 157.088 11.668C156.454 10.996 155.707 10.66 154.848 10.66C154.046 10.66 153.336 10.968 152.72 11.584C152.104 12.1813 151.796 12.9653 151.796 13.936V21.16C151.796 21.3653 151.675 21.5613 151.432 21.748C151.19 21.916 150.919 22 150.62 22C150.303 22 150.032 21.916 149.808 21.748C149.584 21.58 149.472 21.384 149.472 21.16ZM163.05 16.792V13.936C163.05 12.4613 163.545 11.2013 164.534 10.156C165.524 9.092 166.7 8.56 168.062 8.56C168.902 8.56 169.64 8.76533 170.274 9.176C170.909 9.58667 171.394 10.0907 171.73 10.688V1.532C171.73 1.28933 171.842 1.09333 172.066 0.943999C172.29 0.794665 172.57 0.719999 172.906 0.719999C173.242 0.719999 173.513 0.794665 173.718 0.943999C173.942 1.09333 174.054 1.28933 174.054 1.532V21.16C174.054 21.384 173.942 21.58 173.718 21.748C173.494 21.916 173.224 22 172.906 22C172.626 22 172.374 21.916 172.15 21.748C171.945 21.58 171.842 21.384 171.842 21.16V20.04C171.525 20.6373 171.012 21.1507 170.302 21.58C169.593 22.0093 168.818 22.224 167.978 22.224C166.672 22.224 165.524 21.6733 164.534 20.572C163.545 19.4707 163.05 18.2107 163.05 16.792ZM165.374 16.792C165.374 17.6507 165.692 18.4253 166.326 19.116C166.961 19.788 167.698 20.124 168.538 20.124C169.36 20.124 170.097 19.816 170.75 19.2C171.404 18.5653 171.73 18.0147 171.73 17.548V13.936C171.73 12.9653 171.413 12.1813 170.778 11.584C170.144 10.968 169.406 10.66 168.566 10.66C167.708 10.66 166.961 10.996 166.326 11.668C165.692 12.34 165.374 13.096 165.374 13.936V16.792ZM176.522 18.5C176.522 17.044 177.082 16.036 178.202 15.476C179.322 14.8973 180.946 14.608 183.074 14.608H184.418V14.02C184.418 13.0867 184.157 12.2747 183.634 11.584C183.13 10.8933 182.365 10.548 181.338 10.548C180.554 10.548 179.864 10.688 179.266 10.968C178.669 11.2293 178.342 11.36 178.286 11.36C178.025 11.36 177.81 11.2387 177.642 10.996C177.493 10.7347 177.418 10.464 177.418 10.184C177.418 9.75467 177.838 9.38133 178.678 9.064C179.537 8.728 180.442 8.56 181.394 8.56C183.224 8.56 184.568 9.08267 185.426 10.128C186.304 11.1547 186.742 12.4427 186.742 13.992V21.16C186.742 21.4027 186.63 21.608 186.406 21.776C186.201 21.9253 185.93 22 185.594 22C185.296 22 185.044 21.9253 184.838 21.776C184.633 21.608 184.53 21.4027 184.53 21.16V20.04C183.261 21.496 181.852 22.224 180.302 22.224C179.182 22.224 178.268 21.9067 177.558 21.272C176.868 20.6373 176.522 19.7133 176.522 18.5ZM178.874 18.248C178.874 18.9387 179.07 19.4613 179.462 19.816C179.854 20.1707 180.377 20.348 181.03 20.348C181.814 20.348 182.57 20.04 183.298 19.424C184.045 18.7893 184.418 18.1453 184.418 17.492V16.036H183.438C182.897 16.036 182.43 16.0547 182.038 16.092C181.646 16.1107 181.236 16.1667 180.806 16.26C180.396 16.3347 180.05 16.456 179.77 16.624C179.509 16.7733 179.294 16.988 179.126 17.268C178.958 17.5293 178.874 17.856 178.874 18.248ZM189.941 21.16V9.54C189.941 9.29733 190.044 9.10133 190.249 8.952C190.473 8.80267 190.753 8.728 191.089 8.728C191.388 8.728 191.64 8.80267 191.845 8.952C192.05 9.10133 192.153 9.29733 192.153 9.54V10.856C192.489 10.2213 192.984 9.68 193.637 9.232C194.29 8.784 195.018 8.56 195.821 8.56H196.773C197.016 8.56 197.221 8.672 197.389 8.896C197.576 9.10133 197.669 9.344 197.669 9.624C197.669 9.904 197.576 10.1467 197.389 10.352C197.221 10.5573 197.016 10.66 196.773 10.66H195.821C194.869 10.66 194.038 11.0427 193.329 11.808C192.62 12.5733 192.265 13.5627 192.265 14.776V21.16C192.265 21.3653 192.144 21.5613 191.901 21.748C191.677 21.916 191.406 22 191.089 22C190.772 22 190.501 21.916 190.277 21.748C190.053 21.58 189.941 21.384 189.941 21.16ZM205.2 21.16V1.532C205.2 1.28933 205.302 1.09333 205.508 0.943999C205.732 0.794665 206.012 0.719999 206.348 0.719999C206.684 0.719999 206.964 0.794665 207.188 0.943999C207.412 1.09333 207.524 1.28933 207.524 1.532V10.688C207.86 10.0907 208.345 9.58667 208.98 9.176C209.614 8.76533 210.352 8.56 211.192 8.56C212.554 8.56 213.73 9.092 214.72 10.156C215.709 11.2013 216.204 12.4613 216.204 13.936V16.792C216.204 18.2107 215.709 19.4707 214.72 20.572C213.73 21.6733 212.582 22.224 211.276 22.224C210.436 22.224 209.661 22.0093 208.952 21.58C208.242 21.1507 207.729 20.6373 207.412 20.04V21.16C207.412 21.384 207.3 21.58 207.076 21.748C206.87 21.916 206.628 22 206.348 22C206.03 22 205.76 21.916 205.536 21.748C205.312 21.58 205.2 21.384 205.2 21.16ZM207.524 17.548C207.524 18.0147 207.85 18.5653 208.504 19.2C209.157 19.816 209.894 20.124 210.716 20.124C211.556 20.124 212.293 19.788 212.928 19.116C213.562 18.4253 213.88 17.6507 213.88 16.792V13.936C213.88 13.096 213.562 12.34 212.928 11.668C212.293 10.996 211.546 10.66 210.688 10.66C209.848 10.66 209.11 10.968 208.476 11.584C207.841 12.1813 207.524 12.9653 207.524 13.936V17.548ZM218.503 16.792V13.852C218.503 12.4147 219.045 11.1733 220.127 10.128C221.229 9.08267 222.545 8.56 224.075 8.56C225.531 8.56 226.791 9.05467 227.855 10.044C228.919 11.0147 229.451 12.2373 229.451 13.712C229.451 14.2533 229.386 14.692 229.255 15.028C229.125 15.3453 228.919 15.5787 228.639 15.728C228.378 15.8587 228.126 15.9427 227.883 15.98C227.659 16.0173 227.351 16.036 226.959 16.036H220.827V16.876C220.827 17.9027 221.191 18.724 221.919 19.34C222.666 19.956 223.627 20.264 224.803 20.264C225.419 20.264 225.951 20.1707 226.399 19.984C226.866 19.7973 227.239 19.62 227.519 19.452C227.799 19.2653 228.023 19.172 228.191 19.172C228.453 19.172 228.677 19.2933 228.863 19.536C229.05 19.76 229.143 19.9933 229.143 20.236C229.143 20.6653 228.714 21.104 227.855 21.552C227.015 22 225.97 22.224 224.719 22.224C222.89 22.224 221.397 21.7293 220.239 20.74C219.082 19.732 218.503 18.416 218.503 16.792ZM220.827 14.468H226.007C226.493 14.468 226.819 14.412 226.987 14.3C227.155 14.1693 227.239 13.9267 227.239 13.572C227.239 12.732 226.931 11.9947 226.315 11.36C225.699 10.7253 224.943 10.408 224.047 10.408C223.17 10.408 222.414 10.7067 221.779 11.304C221.145 11.8827 220.827 12.6013 220.827 13.46V14.468ZM232.275 21.16V1.532C232.275 1.28933 232.378 1.09333 232.583 0.943999C232.807 0.794665 233.087 0.719999 233.423 0.719999C233.759 0.719999 234.039 0.794665 234.263 0.943999C234.487 1.09333 234.599 1.28933 234.599 1.532V21.16C234.599 21.3653 234.478 21.5613 234.235 21.748C234.011 21.916 233.74 22 233.423 22C233.106 22 232.835 21.916 232.611 21.748C232.387 21.58 232.275 21.384 232.275 21.16ZM237.644 16.792V13.936C237.644 12.4987 238.185 11.248 239.268 10.184C240.369 9.10133 241.667 8.56 243.16 8.56C244.653 8.56 245.951 9.092 247.052 10.156C248.153 11.22 248.704 12.48 248.704 13.936V16.792C248.704 18.2107 248.144 19.4707 247.024 20.572C245.923 21.6733 244.635 22.224 243.16 22.224C241.685 22.224 240.397 21.6827 239.296 20.6C238.195 19.4987 237.644 18.2293 237.644 16.792ZM239.968 16.792C239.968 17.6693 240.285 18.444 240.92 19.116C241.555 19.788 242.301 20.124 243.16 20.124C244.037 20.124 244.793 19.788 245.428 19.116C246.063 18.4253 246.38 17.6507 246.38 16.792V13.936C246.38 13.096 246.063 12.34 245.428 11.668C244.793 10.996 244.037 10.66 243.16 10.66C242.283 10.66 241.527 10.996 240.892 11.668C240.276 12.34 239.968 13.096 239.968 13.936V16.792ZM250.232 9.68C250.232 9.4 250.381 9.16667 250.68 8.98C250.997 8.77467 251.324 8.672 251.66 8.672C252.052 8.672 252.304 8.82133 252.416 9.12L255.804 18.528L258.436 10.044C258.567 9.67067 258.856 9.484 259.304 9.484C259.771 9.484 260.069 9.67067 260.2 10.044L262.776 18.612L266.192 9.12C266.285 8.82133 266.528 8.672 266.92 8.672C267.256 8.672 267.583 8.77467 267.9 8.98C268.217 9.16667 268.376 9.4 268.376 9.68C268.376 9.82933 268.339 9.97867 268.264 10.128L263.896 21.748C263.765 22.084 263.457 22.252 262.972 22.252C262.468 22.252 262.151 22.084 262.02 21.748L259.304 13.516L256.644 21.664C256.513 22.056 256.177 22.252 255.636 22.252C255.151 22.252 254.833 22.056 254.684 21.664L250.344 10.128C250.269 9.904 250.232 9.75467 250.232 9.68ZM276.104 4.696C275.824 4.416 275.684 4.09867 275.684 3.744C275.684 3.38933 275.824 3.08133 276.104 2.82C276.384 2.55866 276.729 2.428 277.14 2.428C277.532 2.428 277.868 2.55866 278.148 2.82C278.428 3.08133 278.568 3.38933 278.568 3.744C278.568 4.09867 278.428 4.416 278.148 4.696C277.868 4.95733 277.532 5.088 277.14 5.088C276.748 5.088 276.403 4.95733 276.104 4.696ZM275.992 21.16V9.54C275.992 9.29733 276.104 9.10133 276.328 8.952C276.552 8.80267 276.823 8.728 277.14 8.728C277.476 8.728 277.756 8.80267 277.98 8.952C278.204 9.10133 278.316 9.29733 278.316 9.54V21.16C278.316 21.3653 278.195 21.5613 277.952 21.748C277.728 21.916 277.457 22 277.14 22C276.823 22 276.552 21.916 276.328 21.748C276.104 21.58 275.992 21.384 275.992 21.16ZM280.813 20.096C280.813 19.8533 280.887 19.62 281.037 19.396C281.205 19.1533 281.401 19.032 281.625 19.032C281.774 19.032 281.989 19.144 282.269 19.368C282.549 19.592 282.95 19.816 283.473 20.04C283.995 20.2453 284.611 20.348 285.321 20.348C286.254 20.348 286.926 20.18 287.337 19.844C287.766 19.508 287.981 19.088 287.981 18.584C287.981 17.968 287.747 17.4827 287.281 17.128C286.814 16.7547 286.245 16.4747 285.573 16.288C284.901 16.1013 284.229 15.896 283.557 15.672C282.885 15.448 282.315 15.0747 281.849 14.552C281.382 14.0293 281.149 13.3387 281.149 12.48C281.149 11.416 281.522 10.5013 282.269 9.736C283.034 8.952 284.191 8.56 285.741 8.56C286.73 8.56 287.635 8.71867 288.457 9.036C289.278 9.33467 289.689 9.68 289.689 10.072C289.689 10.296 289.595 10.548 289.409 10.828C289.241 11.108 289.026 11.248 288.765 11.248C288.69 11.248 288.326 11.1173 287.673 10.856C287.038 10.576 286.403 10.436 285.769 10.436C284.91 10.436 284.266 10.6413 283.837 11.052C283.426 11.444 283.221 11.892 283.221 12.396C283.221 12.9187 283.454 13.3293 283.921 13.628C284.387 13.9267 284.957 14.16 285.629 14.328C286.319 14.496 287.001 14.7013 287.673 14.944C288.345 15.1867 288.914 15.6067 289.381 16.204C289.847 16.7827 290.081 17.5387 290.081 18.472C290.081 19.6293 289.67 20.544 288.849 21.216C288.027 21.888 286.879 22.224 285.405 22.224C284.135 22.224 283.053 22 282.157 21.552C281.261 21.0853 280.813 20.6 280.813 20.096ZM297.719 16.792V13.992C297.719 12.3867 298.186 11.08 299.119 10.072C300.071 9.064 301.462 8.56 303.291 8.56C304.448 8.56 305.419 8.76533 306.203 9.176C307.006 9.58667 307.407 10.0253 307.407 10.492C307.407 10.7533 307.304 11.0147 307.099 11.276C306.912 11.5187 306.688 11.64 306.427 11.64C306.352 11.64 306.026 11.4813 305.447 11.164C304.887 10.828 304.224 10.66 303.459 10.66C302.339 10.66 301.49 10.9493 300.911 11.528C300.332 12.1067 300.043 12.928 300.043 13.992V16.792C300.043 19.0133 301.191 20.124 303.487 20.124C304.271 20.124 304.952 19.956 305.531 19.62C306.11 19.284 306.446 19.116 306.539 19.116C306.838 19.116 307.08 19.2373 307.267 19.48C307.472 19.7227 307.575 19.9747 307.575 20.236C307.575 20.7027 307.164 21.1507 306.343 21.58C305.522 22.0093 304.514 22.224 303.319 22.224C301.471 22.224 300.071 21.7293 299.119 20.74C298.186 19.732 297.719 18.416 297.719 16.792ZM309.23 16.792V13.936C309.23 12.4987 309.771 11.248 310.854 10.184C311.955 9.10133 313.253 8.56 314.746 8.56C316.239 8.56 317.537 9.092 318.638 10.156C319.739 11.22 320.29 12.48 320.29 13.936V16.792C320.29 18.2107 319.73 19.4707 318.61 20.572C317.509 21.6733 316.221 22.224 314.746 22.224C313.271 22.224 311.983 21.6827 310.882 20.6C309.781 19.4987 309.23 18.2293 309.23 16.792ZM311.554 16.792C311.554 17.6693 311.871 18.444 312.506 19.116C313.141 19.788 313.887 20.124 314.746 20.124C315.623 20.124 316.379 19.788 317.014 19.116C317.649 18.4253 317.966 17.6507 317.966 16.792V13.936C317.966 13.096 317.649 12.34 317.014 11.668C316.379 10.996 315.623 10.66 314.746 10.66C313.869 10.66 313.113 10.996 312.478 11.668C311.862 12.34 311.554 13.096 311.554 13.936V16.792ZM323.078 21.16V9.54C323.078 9.29733 323.18 9.10133 323.386 8.952C323.61 8.80267 323.89 8.728 324.226 8.728C324.506 8.728 324.748 8.812 324.954 8.98C325.178 9.12933 325.29 9.316 325.29 9.54V10.688C325.588 10.0907 326.064 9.58667 326.718 9.176C327.39 8.76533 328.164 8.56 329.042 8.56C330.367 8.56 331.515 9.092 332.486 10.156C333.475 11.2013 333.97 12.4613 333.97 13.936V21.16C333.97 21.4213 333.848 21.6267 333.606 21.776C333.382 21.9253 333.111 22 332.794 22C332.495 22 332.224 21.9253 331.982 21.776C331.758 21.6267 331.646 21.4213 331.646 21.16V13.936C331.646 13.096 331.328 12.34 330.694 11.668C330.059 10.996 329.312 10.66 328.454 10.66C327.651 10.66 326.942 10.968 326.326 11.584C325.71 12.1813 325.402 12.9653 325.402 13.936V21.16C325.402 21.3653 325.28 21.5613 325.038 21.748C324.795 21.916 324.524 22 324.226 22C323.908 22 323.638 21.916 323.414 21.748C323.19 21.58 323.078 21.384 323.078 21.16ZM336.348 20.096C336.348 19.8533 336.422 19.62 336.572 19.396C336.74 19.1533 336.936 19.032 337.16 19.032C337.309 19.032 337.524 19.144 337.804 19.368C338.084 19.592 338.485 19.816 339.008 20.04C339.53 20.2453 340.146 20.348 340.856 20.348C341.789 20.348 342.461 20.18 342.872 19.844C343.301 19.508 343.516 19.088 343.516 18.584C343.516 17.968 343.282 17.4827 342.816 17.128C342.349 16.7547 341.78 16.4747 341.108 16.288C340.436 16.1013 339.764 15.896 339.092 15.672C338.42 15.448 337.85 15.0747 337.384 14.552C336.917 14.0293 336.684 13.3387 336.684 12.48C336.684 11.416 337.057 10.5013 337.804 9.736C338.569 8.952 339.726 8.56 341.276 8.56C342.265 8.56 343.17 8.71867 343.992 9.036C344.813 9.33467 345.224 9.68 345.224 10.072C345.224 10.296 345.13 10.548 344.944 10.828C344.776 11.108 344.561 11.248 344.3 11.248C344.225 11.248 343.861 11.1173 343.208 10.856C342.573 10.576 341.938 10.436 341.304 10.436C340.445 10.436 339.801 10.6413 339.372 11.052C338.961 11.444 338.756 11.892 338.756 12.396C338.756 12.9187 338.989 13.3293 339.456 13.628C339.922 13.9267 340.492 14.16 341.164 14.328C341.854 14.496 342.536 14.7013 343.208 14.944C343.88 15.1867 344.449 15.6067 344.916 16.204C345.382 16.7827 345.616 17.5387 345.616 18.472C345.616 19.6293 345.205 20.544 344.384 21.216C343.562 21.888 342.414 22.224 340.94 22.224C339.67 22.224 338.588 22 337.692 21.552C336.796 21.0853 336.348 20.6 336.348 20.096ZM348.237 4.696C347.957 4.416 347.817 4.09867 347.817 3.744C347.817 3.38933 347.957 3.08133 348.237 2.82C348.517 2.55866 348.862 2.428 349.273 2.428C349.665 2.428 350.001 2.55866 350.281 2.82C350.561 3.08133 350.701 3.38933 350.701 3.744C350.701 4.09867 350.561 4.416 350.281 4.696C350.001 4.95733 349.665 5.088 349.273 5.088C348.881 5.088 348.535 4.95733 348.237 4.696ZM348.125 21.16V9.54C348.125 9.29733 348.237 9.10133 348.461 8.952C348.685 8.80267 348.955 8.728 349.273 8.728C349.609 8.728 349.889 8.80267 350.113 8.952C350.337 9.10133 350.449 9.29733 350.449 9.54V21.16C350.449 21.3653 350.327 21.5613 350.085 21.748C349.861 21.916 349.59 22 349.273 22C348.955 22 348.685 21.916 348.461 21.748C348.237 21.58 348.125 21.384 348.125 21.16ZM352.945 20.096C352.945 19.8533 353.02 19.62 353.169 19.396C353.337 19.1533 353.533 19.032 353.757 19.032C353.907 19.032 354.121 19.144 354.401 19.368C354.681 19.592 355.083 19.816 355.605 20.04C356.128 20.2453 356.744 20.348 357.453 20.348C358.387 20.348 359.059 20.18 359.469 19.844C359.899 19.508 360.113 19.088 360.113 18.584C360.113 17.968 359.88 17.4827 359.413 17.128C358.947 16.7547 358.377 16.4747 357.705 16.288C357.033 16.1013 356.361 15.896 355.689 15.672C355.017 15.448 354.448 15.0747 353.981 14.552C353.515 14.0293 353.281 13.3387 353.281 12.48C353.281 11.416 353.655 10.5013 354.401 9.736C355.167 8.952 356.324 8.56 357.873 8.56C358.863 8.56 359.768 8.71867 360.589 9.036C361.411 9.33467 361.821 9.68 361.821 10.072C361.821 10.296 361.728 10.548 361.541 10.828C361.373 11.108 361.159 11.248 360.897 11.248C360.823 11.248 360.459 11.1173 359.805 10.856C359.171 10.576 358.536 10.436 357.901 10.436C357.043 10.436 356.399 10.6413 355.969 11.052C355.559 11.444 355.353 11.892 355.353 12.396C355.353 12.9187 355.587 13.3293 356.053 13.628C356.52 13.9267 357.089 14.16 357.761 14.328C358.452 14.496 359.133 14.7013 359.805 14.944C360.477 15.1867 361.047 15.6067 361.513 16.204C361.98 16.7827 362.213 17.5387 362.213 18.472C362.213 19.6293 361.803 20.544 360.981 21.216C360.16 21.888 359.012 22.224 357.537 22.224C356.268 22.224 355.185 22 354.289 21.552C353.393 21.0853 352.945 20.6 352.945 20.096ZM364.666 17.772V3.352C364.666 3.128 364.788 2.94133 365.03 2.792C365.273 2.624 365.534 2.54 365.814 2.54C366.113 2.54 366.384 2.624 366.626 2.792C366.869 2.94133 366.99 3.128 366.99 3.352V8.728H370.518C370.724 8.728 370.892 8.82133 371.022 9.008C371.153 9.19467 371.218 9.40933 371.218 9.652C371.218 9.89467 371.153 10.1093 371.022 10.296C370.892 10.464 370.724 10.548 370.518 10.548H366.99V17.772C366.99 18.5747 367.158 19.144 367.494 19.48C367.849 19.7973 368.456 19.956 369.314 19.956H370.182C370.5 19.956 370.742 20.0587 370.91 20.264C371.097 20.4507 371.19 20.684 371.19 20.964C371.19 21.244 371.097 21.4867 370.91 21.692C370.724 21.8973 370.481 22 370.182 22H369.314C366.216 22 364.666 20.5907 364.666 17.772ZM372.668 16.792V13.852C372.668 12.4147 373.209 11.1733 374.292 10.128C375.393 9.08267 376.709 8.56 378.24 8.56C379.696 8.56 380.956 9.05467 382.02 10.044C383.084 11.0147 383.616 12.2373 383.616 13.712C383.616 14.2533 383.55 14.692 383.42 15.028C383.289 15.3453 383.084 15.5787 382.804 15.728C382.542 15.8587 382.29 15.9427 382.048 15.98C381.824 16.0173 381.516 16.036 381.124 16.036H374.992V16.876C374.992 17.9027 375.356 18.724 376.084 19.34C376.83 19.956 377.792 20.264 378.968 20.264C379.584 20.264 380.116 20.1707 380.564 19.984C381.03 19.7973 381.404 19.62 381.684 19.452C381.964 19.2653 382.188 19.172 382.356 19.172C382.617 19.172 382.841 19.2933 383.028 19.536C383.214 19.76 383.308 19.9933 383.308 20.236C383.308 20.6653 382.878 21.104 382.02 21.552C381.18 22 380.134 22.224 378.884 22.224C377.054 22.224 375.561 21.7293 374.404 20.74C373.246 19.732 372.668 18.416 372.668 16.792ZM374.992 14.468H380.172C380.657 14.468 380.984 14.412 381.152 14.3C381.32 14.1693 381.404 13.9267 381.404 13.572C381.404 12.732 381.096 11.9947 380.48 11.36C379.864 10.7253 379.108 10.408 378.212 10.408C377.334 10.408 376.578 10.7067 375.944 11.304C375.309 11.8827 374.992 12.6013 374.992 13.46V14.468ZM386.187 21.16V9.54C386.187 9.29733 386.29 9.10133 386.495 8.952C386.719 8.80267 386.999 8.728 387.335 8.728C387.615 8.728 387.858 8.812 388.063 8.98C388.287 9.12933 388.399 9.316 388.399 9.54V10.688C388.698 10.0907 389.174 9.58667 389.827 9.176C390.499 8.76533 391.274 8.56 392.151 8.56C393.476 8.56 394.624 9.092 395.595 10.156C396.584 11.2013 397.079 12.4613 397.079 13.936V21.16C397.079 21.4213 396.958 21.6267 396.715 21.776C396.491 21.9253 396.22 22 395.903 22C395.604 22 395.334 21.9253 395.091 21.776C394.867 21.6267 394.755 21.4213 394.755 21.16V13.936C394.755 13.096 394.438 12.34 393.803 11.668C393.168 10.996 392.422 10.66 391.563 10.66C390.76 10.66 390.051 10.968 389.435 11.584C388.819 12.1813 388.511 12.9653 388.511 13.936V21.16C388.511 21.3653 388.39 21.5613 388.147 21.748C387.904 21.916 387.634 22 387.335 22C387.018 22 386.747 21.916 386.523 21.748C386.299 21.58 386.187 21.384 386.187 21.16ZM400.213 17.772V3.352C400.213 3.128 400.335 2.94133 400.577 2.792C400.82 2.624 401.081 2.54 401.361 2.54C401.66 2.54 401.931 2.624 402.173 2.792C402.416 2.94133 402.537 3.128 402.537 3.352V8.728H406.065C406.271 8.728 406.439 8.82133 406.569 9.008C406.7 9.19467 406.765 9.40933 406.765 9.652C406.765 9.89467 406.7 10.1093 406.569 10.296C406.439 10.464 406.271 10.548 406.065 10.548H402.537V17.772C402.537 18.5747 402.705 19.144 403.041 19.48C403.396 19.7973 404.003 19.956 404.861 19.956H405.729C406.047 19.956 406.289 20.0587 406.457 20.264C406.644 20.4507 406.737 20.684 406.737 20.964C406.737 21.244 406.644 21.4867 406.457 21.692C406.271 21.8973 406.028 22 405.729 22H404.861C401.763 22 400.213 20.5907 400.213 17.772ZM409.189 21.16V1.532C409.189 1.28933 409.292 1.09333 409.497 0.943999C409.721 0.794665 410.001 0.719999 410.337 0.719999C410.673 0.719999 410.953 0.794665 411.177 0.943999C411.401 1.09333 411.513 1.28933 411.513 1.532V21.16C411.513 21.3653 411.392 21.5613 411.149 21.748C410.925 21.916 410.654 22 410.337 22C410.02 22 409.749 21.916 409.525 21.748C409.301 21.58 409.189 21.384 409.189 21.16ZM413.746 9.68C413.746 9.38133 413.914 9.12 414.25 8.896C414.586 8.672 414.922 8.56 415.258 8.56C415.65 8.56 415.902 8.71867 416.014 9.036L419.71 18.78L423.042 9.036C423.173 8.71867 423.415 8.56 423.77 8.56C424.087 8.56 424.414 8.672 424.75 8.896C425.105 9.12 425.282 9.39067 425.282 9.708C425.282 9.80133 425.254 9.89467 425.198 9.988L420.942 21.384L420.41 22.784C420.317 23.0453 420.13 23.4933 419.85 24.128C419.57 24.7627 419.337 25.22 419.15 25.5C418.963 25.78 418.702 26.144 418.366 26.592C418.03 27.0587 417.703 27.3947 417.386 27.6C417.069 27.8053 416.686 27.992 416.238 28.16C415.809 28.328 415.351 28.412 414.866 28.412C414.138 28.412 413.774 28.0667 413.774 27.376C413.774 26.704 413.998 26.368 414.446 26.368C415.286 26.368 416.098 25.892 416.882 24.94C417.685 24.0067 418.226 22.8027 418.506 21.328L413.858 9.988C413.783 9.876 413.746 9.77333 413.746 9.68ZM432.778 16.848V9.568C432.778 9.344 432.89 9.148 433.114 8.98C433.357 8.812 433.637 8.728 433.954 8.728C434.253 8.728 434.514 8.82133 434.738 9.008C434.981 9.176 435.102 9.36267 435.102 9.568V16.848C435.102 17.688 435.42 18.444 436.054 19.116C436.689 19.788 437.445 20.124 438.322 20.124C439.181 20.124 439.928 19.7973 440.562 19.144C441.197 18.472 441.514 17.7067 441.514 16.848V9.54C441.514 9.33467 441.626 9.148 441.85 8.98C442.093 8.812 442.373 8.728 442.69 8.728C443.026 8.728 443.297 8.812 443.502 8.98C443.726 9.12933 443.838 9.316 443.838 9.54V16.848C443.838 18.2853 443.288 19.5453 442.186 20.628C441.104 21.692 439.816 22.224 438.322 22.224C436.81 22.224 435.504 21.692 434.402 20.628C433.32 19.5453 432.778 18.2853 432.778 16.848ZM447.055 27.572V9.54C447.055 9.29733 447.158 9.10133 447.363 8.952C447.587 8.80267 447.858 8.728 448.175 8.728C448.492 8.728 448.754 8.80267 448.959 8.952C449.164 9.10133 449.267 9.29733 449.267 9.54V10.688C449.603 10.0907 450.098 9.58667 450.751 9.176C451.404 8.76533 452.16 8.56 453.019 8.56C454.419 8.56 455.604 9.092 456.575 10.156C457.564 11.2013 458.059 12.4613 458.059 13.936V16.792C458.059 18.2107 457.564 19.4707 456.575 20.572C455.586 21.6733 454.438 22.224 453.131 22.224C452.31 22.224 451.554 22.0187 450.863 21.608C450.191 21.1787 449.696 20.656 449.379 20.04V27.572C449.379 27.7773 449.258 27.964 449.015 28.132C448.791 28.3187 448.52 28.412 448.203 28.412C447.886 28.412 447.615 28.328 447.391 28.16C447.167 27.992 447.055 27.796 447.055 27.572ZM449.379 17.548C449.379 18.0147 449.696 18.5653 450.331 19.2C450.984 19.816 451.722 20.124 452.543 20.124C453.383 20.124 454.12 19.788 454.755 19.116C455.408 18.4253 455.735 17.6507 455.735 16.792V13.936C455.735 13.096 455.408 12.34 454.755 11.668C454.12 10.996 453.364 10.66 452.487 10.66C451.666 10.66 450.938 10.968 450.303 11.584C449.687 12.1813 449.379 12.9653 449.379 13.936V17.548ZM466.412 17.772V3.352C466.412 3.128 466.534 2.94133 466.776 2.792C467.019 2.624 467.28 2.54 467.56 2.54C467.859 2.54 468.13 2.624 468.372 2.792C468.615 2.94133 468.736 3.128 468.736 3.352V8.728H472.264C472.47 8.728 472.638 8.82133 472.768 9.008C472.899 9.19467 472.964 9.40933 472.964 9.652C472.964 9.89467 472.899 10.1093 472.768 10.296C472.638 10.464 472.47 10.548 472.264 10.548H468.736V17.772C468.736 18.5747 468.904 19.144 469.24 19.48C469.595 19.7973 470.202 19.956 471.06 19.956H471.928C472.246 19.956 472.488 20.0587 472.656 20.264C472.843 20.4507 472.936 20.684 472.936 20.964C472.936 21.244 472.843 21.4867 472.656 21.692C472.47 21.8973 472.227 22 471.928 22H471.06C467.962 22 466.412 20.5907 466.412 17.772ZM474.414 16.792V13.936C474.414 12.4987 474.955 11.248 476.038 10.184C477.139 9.10133 478.436 8.56 479.93 8.56C481.423 8.56 482.72 9.092 483.822 10.156C484.923 11.22 485.474 12.48 485.474 13.936V16.792C485.474 18.2107 484.914 19.4707 483.794 20.572C482.692 21.6733 481.404 22.224 479.93 22.224C478.455 22.224 477.167 21.6827 476.066 20.6C474.964 19.4987 474.414 18.2293 474.414 16.792ZM476.738 16.792C476.738 17.6693 477.055 18.444 477.69 19.116C478.324 19.788 479.071 20.124 479.93 20.124C480.807 20.124 481.563 19.788 482.198 19.116C482.832 18.4253 483.15 17.6507 483.15 16.792V13.936C483.15 13.096 482.832 12.34 482.198 11.668C481.563 10.996 480.807 10.66 479.93 10.66C479.052 10.66 478.296 10.996 477.662 11.668C477.046 12.34 476.738 13.096 476.738 13.936V16.792ZM493.363 16.792V13.936C493.363 12.4613 493.858 11.2013 494.847 10.156C495.836 9.092 497.012 8.56 498.375 8.56C499.215 8.56 499.952 8.76533 500.587 9.176C501.222 9.58667 501.707 10.0907 502.043 10.688V1.532C502.043 1.28933 502.155 1.09333 502.379 0.943999C502.603 0.794665 502.883 0.719999 503.219 0.719999C503.555 0.719999 503.826 0.794665 504.031 0.943999C504.255 1.09333 504.367 1.28933 504.367 1.532V21.16C504.367 21.384 504.255 21.58 504.031 21.748C503.807 21.916 503.536 22 503.219 22C502.939 22 502.687 21.916 502.463 21.748C502.258 21.58 502.155 21.384 502.155 21.16V20.04C501.838 20.6373 501.324 21.1507 500.615 21.58C499.906 22.0093 499.131 22.224 498.291 22.224C496.984 22.224 495.836 21.6733 494.847 20.572C493.858 19.4707 493.363 18.2107 493.363 16.792ZM495.687 16.792C495.687 17.6507 496.004 18.4253 496.639 19.116C497.274 19.788 498.011 20.124 498.851 20.124C499.672 20.124 500.41 19.816 501.063 19.2C501.716 18.5653 502.043 18.0147 502.043 17.548V13.936C502.043 12.9653 501.726 12.1813 501.091 11.584C500.456 10.968 499.719 10.66 498.879 10.66C498.02 10.66 497.274 10.996 496.639 11.668C496.004 12.34 495.687 13.096 495.687 13.936V16.792ZM506.835 18.5C506.835 17.044 507.395 16.036 508.515 15.476C509.635 14.8973 511.259 14.608 513.387 14.608H514.731V14.02C514.731 13.0867 514.469 12.2747 513.947 11.584C513.443 10.8933 512.677 10.548 511.651 10.548C510.867 10.548 510.176 10.688 509.579 10.968C508.981 11.2293 508.655 11.36 508.599 11.36C508.337 11.36 508.123 11.2387 507.955 10.996C507.805 10.7347 507.731 10.464 507.731 10.184C507.731 9.75467 508.151 9.38133 508.991 9.064C509.849 8.728 510.755 8.56 511.707 8.56C513.536 8.56 514.88 9.08267 515.739 10.128C516.616 11.1547 517.055 12.4427 517.055 13.992V21.16C517.055 21.4027 516.943 21.608 516.719 21.776C516.513 21.9253 516.243 22 515.907 22C515.608 22 515.356 21.9253 515.151 21.776C514.945 21.608 514.843 21.4027 514.843 21.16V20.04C513.573 21.496 512.164 22.224 510.615 22.224C509.495 22.224 508.58 21.9067 507.871 21.272C507.18 20.6373 506.835 19.7133 506.835 18.5ZM509.187 18.248C509.187 18.9387 509.383 19.4613 509.775 19.816C510.167 20.1707 510.689 20.348 511.343 20.348C512.127 20.348 512.883 20.04 513.611 19.424C514.357 18.7893 514.731 18.1453 514.731 17.492V16.036H513.751C513.209 16.036 512.743 16.0547 512.351 16.092C511.959 16.1107 511.548 16.1667 511.119 16.26C510.708 16.3347 510.363 16.456 510.083 16.624C509.821 16.7733 509.607 16.988 509.439 17.268C509.271 17.5293 509.187 17.856 509.187 18.248ZM520.198 17.772V3.352C520.198 3.128 520.319 2.94133 520.562 2.792C520.804 2.624 521.066 2.54 521.346 2.54C521.644 2.54 521.915 2.624 522.158 2.792C522.4 2.94133 522.522 3.128 522.522 3.352V8.728H526.05C526.255 8.728 526.423 8.82133 526.554 9.008C526.684 9.19467 526.75 9.40933 526.75 9.652C526.75 9.89467 526.684 10.1093 526.554 10.296C526.423 10.464 526.255 10.548 526.05 10.548H522.522V17.772C522.522 18.5747 522.69 19.144 523.026 19.48C523.38 19.7973 523.987 19.956 524.846 19.956H525.714C526.031 19.956 526.274 20.0587 526.442 20.264C526.628 20.4507 526.722 20.684 526.722 20.964C526.722 21.244 526.628 21.4867 526.442 21.692C526.255 21.8973 526.012 22 525.714 22H524.846C521.747 22 520.198 20.5907 520.198 17.772ZM528.199 16.792V13.852C528.199 12.4147 528.74 11.1733 529.823 10.128C530.924 9.08267 532.24 8.56 533.771 8.56C535.227 8.56 536.487 9.05467 537.551 10.044C538.615 11.0147 539.147 12.2373 539.147 13.712C539.147 14.2533 539.081 14.692 538.951 15.028C538.82 15.3453 538.615 15.5787 538.335 15.728C538.073 15.8587 537.821 15.9427 537.579 15.98C537.355 16.0173 537.047 16.036 536.655 16.036H530.523V16.876C530.523 17.9027 530.887 18.724 531.615 19.34C532.361 19.956 533.323 20.264 534.499 20.264C535.115 20.264 535.647 20.1707 536.095 19.984C536.561 19.7973 536.935 19.62 537.215 19.452C537.495 19.2653 537.719 19.172 537.887 19.172C538.148 19.172 538.372 19.2933 538.559 19.536C538.745 19.76 538.839 19.9933 538.839 20.236C538.839 20.6653 538.409 21.104 537.551 21.552C536.711 22 535.665 22.224 534.415 22.224C532.585 22.224 531.092 21.7293 529.935 20.74C528.777 19.732 528.199 18.416 528.199 16.792ZM530.523 14.468H535.703C536.188 14.468 536.515 14.412 536.683 14.3C536.851 14.1693 536.935 13.9267 536.935 13.572C536.935 12.732 536.627 11.9947 536.011 11.36C535.395 10.7253 534.639 10.408 533.743 10.408C532.865 10.408 532.109 10.7067 531.475 11.304C530.84 11.8827 530.523 12.6013 530.523 13.46V14.468ZM541.102 20.712C541.102 20.3013 541.242 19.956 541.522 19.676C541.802 19.3773 542.148 19.228 542.558 19.228C542.95 19.228 543.286 19.3773 543.566 19.676C543.846 19.956 543.986 20.3013 543.986 20.712C543.986 21.104 543.846 21.4493 543.566 21.748C543.286 22.028 542.95 22.168 542.558 22.168C542.148 22.168 541.802 22.028 541.522 21.748C541.242 21.4493 541.102 21.104 541.102 20.712ZM0.476 56.02C0.476 55.9827 0.494667 55.908 0.532 55.796L6.244 37.176C6.412 36.6347 6.89733 36.364 7.7 36.364C8.50267 36.364 8.988 36.6347 9.156 37.176L14.868 55.796C14.868 55.8333 14.868 55.8707 14.868 55.908C14.8867 55.9453 14.896 55.9733 14.896 55.992C14.896 56.2533 14.7373 56.4867 14.42 56.692C14.1213 56.8973 13.7947 57 13.44 57C12.992 57 12.712 56.8227 12.6 56.468L11.368 52.296H4.004L2.772 56.468C2.66 56.8227 2.37067 57 1.904 57C1.568 57 1.24133 56.9067 0.924 56.72C0.625333 56.5333 0.476 56.3 0.476 56.02ZM4.536 50.364H10.808L7.7 39.836L4.536 50.364ZM17.0465 56.16V44.54C17.0465 44.2973 17.1492 44.1013 17.3545 43.952C17.5785 43.8027 17.8585 43.728 18.1945 43.728C18.4745 43.728 18.7172 43.812 18.9225 43.98C19.1465 44.1293 19.2585 44.316 19.2585 44.54V45.688C19.5572 45.0907 20.0332 44.5867 20.6865 44.176C21.3585 43.7653 22.1332 43.56 23.0105 43.56C24.3359 43.56 25.4839 44.092 26.4545 45.156C27.4439 46.2013 27.9385 47.4613 27.9385 48.936V56.16C27.9385 56.4213 27.8172 56.6267 27.5745 56.776C27.3505 56.9253 27.0799 57 26.7625 57C26.4639 57 26.1932 56.9253 25.9505 56.776C25.7265 56.6267 25.6145 56.4213 25.6145 56.16V48.936C25.6145 48.096 25.2972 47.34 24.6625 46.668C24.0279 45.996 23.2812 45.66 22.4225 45.66C21.6199 45.66 20.9105 45.968 20.2945 46.584C19.6785 47.1813 19.3705 47.9653 19.3705 48.936V56.16C19.3705 56.3653 19.2492 56.5613 19.0065 56.748C18.7639 56.916 18.4932 57 18.1945 57C17.8772 57 17.6065 56.916 17.3825 56.748C17.1585 56.58 17.0465 56.384 17.0465 56.16ZM29.5665 44.68C29.5665 44.3813 29.7345 44.12 30.0705 43.896C30.4065 43.672 30.7425 43.56 31.0785 43.56C31.4705 43.56 31.7225 43.7187 31.8345 44.036L35.5305 53.78L38.8625 44.036C38.9931 43.7187 39.2358 43.56 39.5905 43.56C39.9078 43.56 40.2345 43.672 40.5705 43.896C40.9251 44.12 41.1025 44.3907 41.1025 44.708C41.1025 44.8013 41.0745 44.8947 41.0185 44.988L36.7625 56.384L36.2305 57.784C36.1371 58.0453 35.9505 58.4933 35.6705 59.128C35.3905 59.7627 35.1571 60.22 34.9705 60.5C34.7838 60.78 34.5225 61.144 34.1865 61.592C33.8505 62.0587 33.5238 62.3947 33.2065 62.6C32.8891 62.8053 32.5065 62.992 32.0585 63.16C31.6291 63.328 31.1718 63.412 30.6865 63.412C29.9585 63.412 29.5945 63.0667 29.5945 62.376C29.5945 61.704 29.8185 61.368 30.2665 61.368C31.1065 61.368 31.9185 60.892 32.7025 59.94C33.5051 59.0067 34.0465 57.8027 34.3265 56.328L29.6785 44.988C29.6038 44.876 29.5665 44.7733 29.5665 44.68ZM48.2346 51.792V48.992C48.2346 47.3867 48.7013 46.08 49.6346 45.072C50.5866 44.064 51.9773 43.56 53.8066 43.56C54.9639 43.56 55.9346 43.7653 56.7186 44.176C57.5213 44.5867 57.9226 45.0253 57.9226 45.492C57.9226 45.7533 57.8199 46.0147 57.6146 46.276C57.4279 46.5187 57.2039 46.64 56.9426 46.64C56.8679 46.64 56.5413 46.4813 55.9626 46.164C55.4026 45.828 54.7399 45.66 53.9746 45.66C52.8546 45.66 52.0053 45.9493 51.4266 46.528C50.8479 47.1067 50.5586 47.928 50.5586 48.992V51.792C50.5586 54.0133 51.7066 55.124 54.0026 55.124C54.7866 55.124 55.4679 54.956 56.0466 54.62C56.6253 54.284 56.9613 54.116 57.0546 54.116C57.3533 54.116 57.5959 54.2373 57.7826 54.48C57.9879 54.7227 58.0906 54.9747 58.0906 55.236C58.0906 55.7027 57.6799 56.1507 56.8586 56.58C56.0373 57.0093 55.0293 57.224 53.8346 57.224C51.9866 57.224 50.5866 56.7293 49.6346 55.74C48.7013 54.732 48.2346 53.416 48.2346 51.792ZM60.4144 56.16V36.532C60.4144 36.2893 60.517 36.0933 60.7224 35.944C60.9464 35.7947 61.2264 35.72 61.5624 35.72C61.8984 35.72 62.1784 35.7947 62.4024 35.944C62.6264 36.0933 62.7384 36.2893 62.7384 36.532V45.688C63.0557 45.0907 63.5224 44.5867 64.1384 44.176C64.773 43.7653 65.5197 43.56 66.3784 43.56C67.7037 43.56 68.8517 44.092 69.8224 45.156C70.8117 46.2013 71.3064 47.4613 71.3064 48.936V56.16C71.3064 56.4213 71.185 56.6267 70.9424 56.776C70.7184 56.9253 70.4477 57 70.1304 57C69.8317 57 69.561 56.9253 69.3184 56.776C69.0944 56.6267 68.9824 56.4213 68.9824 56.16V48.936C68.9824 48.096 68.665 47.34 68.0304 46.668C67.3957 45.996 66.649 45.66 65.7904 45.66C64.9877 45.66 64.2784 45.968 63.6624 46.584C63.0464 47.1813 62.7384 47.9653 62.7384 48.936V56.16C62.7384 56.3653 62.617 56.5613 62.3744 56.748C62.1504 56.916 61.8797 57 61.5624 57C61.245 57 60.9744 56.916 60.7504 56.748C60.5264 56.58 60.4144 56.384 60.4144 56.16ZM73.6278 53.5C73.6278 52.044 74.1878 51.036 75.3078 50.476C76.4278 49.8973 78.0518 49.608 80.1798 49.608H81.5238V49.02C81.5238 48.0867 81.2624 47.2747 80.7398 46.584C80.2358 45.8933 79.4704 45.548 78.4438 45.548C77.6598 45.548 76.9691 45.688 76.3718 45.968C75.7744 46.2293 75.4478 46.36 75.3918 46.36C75.1304 46.36 74.9158 46.2387 74.7478 45.996C74.5984 45.7347 74.5238 45.464 74.5238 45.184C74.5238 44.7547 74.9438 44.3813 75.7838 44.064C76.6424 43.728 77.5478 43.56 78.4998 43.56C80.3291 43.56 81.6731 44.0827 82.5318 45.128C83.4091 46.1547 83.8478 47.4427 83.8478 48.992V56.16C83.8478 56.4027 83.7358 56.608 83.5118 56.776C83.3064 56.9253 83.0358 57 82.6998 57C82.4011 57 82.1491 56.9253 81.9438 56.776C81.7384 56.608 81.6358 56.4027 81.6358 56.16V55.04C80.3664 56.496 78.9571 57.224 77.4078 57.224C76.2878 57.224 75.3731 56.9067 74.6638 56.272C73.9731 55.6373 73.6278 54.7133 73.6278 53.5ZM75.9798 53.248C75.9798 53.9387 76.1758 54.4613 76.5678 54.816C76.9598 55.1707 77.4824 55.348 78.1358 55.348C78.9198 55.348 79.6758 55.04 80.4038 54.424C81.1504 53.7893 81.5238 53.1453 81.5238 52.492V51.036H80.5438C80.0024 51.036 79.5358 51.0547 79.1438 51.092C78.7518 51.1107 78.3411 51.1667 77.9118 51.26C77.5011 51.3347 77.1558 51.456 76.8758 51.624C76.6144 51.7733 76.3998 51.988 76.2318 52.268C76.0638 52.5293 75.9798 52.856 75.9798 53.248ZM87.0465 56.16V44.54C87.0465 44.2973 87.1492 44.1013 87.3545 43.952C87.5785 43.8027 87.8585 43.728 88.1945 43.728C88.4745 43.728 88.7172 43.812 88.9225 43.98C89.1465 44.1293 89.2585 44.316 89.2585 44.54V45.688C89.5572 45.0907 90.0332 44.5867 90.6865 44.176C91.3585 43.7653 92.1332 43.56 93.0105 43.56C94.3359 43.56 95.4839 44.092 96.4545 45.156C97.4439 46.2013 97.9385 47.4613 97.9385 48.936V56.16C97.9385 56.4213 97.8172 56.6267 97.5745 56.776C97.3505 56.9253 97.0799 57 96.7625 57C96.4639 57 96.1932 56.9253 95.9505 56.776C95.7265 56.6267 95.6145 56.4213 95.6145 56.16V48.936C95.6145 48.096 95.2972 47.34 94.6625 46.668C94.0279 45.996 93.2812 45.66 92.4225 45.66C91.6199 45.66 90.9105 45.968 90.2945 46.584C89.6785 47.1813 89.3705 47.9653 89.3705 48.936V56.16C89.3705 56.3653 89.2492 56.5613 89.0065 56.748C88.7639 56.916 88.4932 57 88.1945 57C87.8772 57 87.6065 56.916 87.3825 56.748C87.1585 56.58 87.0465 56.384 87.0465 56.16ZM100.093 59.632C100.093 58.2693 100.849 57.252 102.361 56.58C101.409 56.2253 100.933 55.6 100.933 54.704C100.933 53.8453 101.399 53.1547 102.333 52.632C101.269 51.7733 100.737 50.5973 100.737 49.104V48.18C100.737 46.8173 101.194 45.7067 102.109 44.848C103.023 43.9893 104.227 43.56 105.721 43.56C106.99 43.56 108.082 43.924 108.997 44.652C109.557 43.4387 110.191 42.832 110.901 42.832C111.199 42.832 111.442 42.9253 111.629 43.112C111.815 43.28 111.909 43.476 111.909 43.7C111.909 43.98 111.75 44.1947 111.433 44.344C110.798 44.512 110.294 44.904 109.921 45.52C110.499 46.2107 110.789 47.0973 110.789 48.18V49.104C110.789 50.448 110.313 51.5587 109.361 52.436C108.409 53.3133 107.195 53.752 105.721 53.752C104.955 53.752 104.265 53.612 103.649 53.332C103.182 53.612 102.949 53.9293 102.949 54.284C102.949 54.6387 103.163 54.9187 103.593 55.124C104.022 55.3107 104.554 55.432 105.189 55.488C105.823 55.5253 106.514 55.6093 107.261 55.74C108.007 55.8707 108.698 56.0387 109.333 56.244C109.967 56.4493 110.499 56.8133 110.929 57.336C111.358 57.8587 111.573 58.5213 111.573 59.324C111.573 60.6493 111.041 61.6573 109.977 62.348C108.931 63.0573 107.569 63.412 105.889 63.412C104.209 63.412 102.818 63.0667 101.717 62.376C100.634 61.704 100.093 60.7893 100.093 59.632ZM102.305 59.38C102.305 60.108 102.622 60.6867 103.257 61.116C103.91 61.564 104.778 61.788 105.861 61.788C106.906 61.788 107.737 61.564 108.353 61.116C108.987 60.6867 109.305 60.108 109.305 59.38C109.305 59.0813 109.249 58.82 109.137 58.596C109.043 58.372 108.885 58.1853 108.661 58.036C108.437 57.8867 108.213 57.756 107.989 57.644C107.765 57.5507 107.475 57.4667 107.121 57.392C106.766 57.336 106.467 57.2893 106.225 57.252C106.001 57.2333 105.693 57.2053 105.301 57.168C104.927 57.1307 104.666 57.1027 104.517 57.084C103.042 57.5693 102.305 58.3347 102.305 59.38ZM103.005 49.076C103.005 49.972 103.247 50.7093 103.733 51.288C104.237 51.8667 104.918 52.156 105.777 52.156C106.598 52.156 107.261 51.876 107.765 51.316C108.269 50.7373 108.521 50 108.521 49.104V48.18C108.521 47.3213 108.269 46.6027 107.765 46.024C107.261 45.4453 106.589 45.156 105.749 45.156C104.89 45.156 104.218 45.4453 103.733 46.024C103.247 46.584 103.005 47.3027 103.005 48.18V49.076ZM113.421 51.792V48.852C113.421 47.4147 113.963 46.1733 115.045 45.128C116.147 44.0827 117.463 43.56 118.993 43.56C120.449 43.56 121.709 44.0547 122.773 45.044C123.837 46.0147 124.369 47.2373 124.369 48.712C124.369 49.2533 124.304 49.692 124.173 50.028C124.043 50.3453 123.837 50.5787 123.557 50.728C123.296 50.8587 123.044 50.9427 122.801 50.98C122.577 51.0173 122.269 51.036 121.877 51.036H115.745V51.876C115.745 52.9027 116.109 53.724 116.837 54.34C117.584 54.956 118.545 55.264 119.721 55.264C120.337 55.264 120.869 55.1707 121.317 54.984C121.784 54.7973 122.157 54.62 122.437 54.452C122.717 54.2653 122.941 54.172 123.109 54.172C123.371 54.172 123.595 54.2933 123.781 54.536C123.968 54.76 124.061 54.9933 124.061 55.236C124.061 55.6653 123.632 56.104 122.773 56.552C121.933 57 120.888 57.224 119.637 57.224C117.808 57.224 116.315 56.7293 115.157 55.74C114 54.732 113.421 53.416 113.421 51.792ZM115.745 49.468H120.925C121.411 49.468 121.737 49.412 121.905 49.3C122.073 49.1693 122.157 48.9267 122.157 48.572C122.157 47.732 121.849 46.9947 121.233 46.36C120.617 45.7253 119.861 45.408 118.965 45.408C118.088 45.408 117.332 45.7067 116.697 46.304C116.063 46.8827 115.745 47.6013 115.745 48.46V49.468ZM126.129 55.096C126.129 54.8533 126.204 54.62 126.353 54.396C126.521 54.1533 126.717 54.032 126.941 54.032C127.09 54.032 127.305 54.144 127.585 54.368C127.865 54.592 128.266 54.816 128.789 55.04C129.312 55.2453 129.928 55.348 130.637 55.348C131.57 55.348 132.242 55.18 132.653 54.844C133.082 54.508 133.297 54.088 133.297 53.584C133.297 52.968 133.064 52.4827 132.597 52.128C132.13 51.7547 131.561 51.4747 130.889 51.288C130.217 51.1013 129.545 50.896 128.873 50.672C128.201 50.448 127.632 50.0747 127.165 49.552C126.698 49.0293 126.465 48.3387 126.465 47.48C126.465 46.416 126.838 45.5013 127.585 44.736C128.35 43.952 129.508 43.56 131.057 43.56C132.046 43.56 132.952 43.7187 133.773 44.036C134.594 44.3347 135.005 44.68 135.005 45.072C135.005 45.296 134.912 45.548 134.725 45.828C134.557 46.108 134.342 46.248 134.081 46.248C134.006 46.248 133.642 46.1173 132.989 45.856C132.354 45.576 131.72 45.436 131.085 45.436C130.226 45.436 129.582 45.6413 129.153 46.052C128.742 46.444 128.537 46.892 128.537 47.396C128.537 47.9187 128.77 48.3293 129.237 48.628C129.704 48.9267 130.273 49.16 130.945 49.328C131.636 49.496 132.317 49.7013 132.989 49.944C133.661 50.1867 134.23 50.6067 134.697 51.204C135.164 51.7827 135.397 52.5387 135.397 53.472C135.397 54.6293 134.986 55.544 134.165 56.216C133.344 56.888 132.196 57.224 130.721 57.224C129.452 57.224 128.369 57 127.473 56.552C126.577 56.0853 126.129 55.6 126.129 55.096ZM143.623 39.696C143.343 39.416 143.203 39.0987 143.203 38.744C143.203 38.3893 143.343 38.0813 143.623 37.82C143.903 37.5587 144.249 37.428 144.659 37.428C145.051 37.428 145.387 37.5587 145.667 37.82C145.947 38.0813 146.087 38.3893 146.087 38.744C146.087 39.0987 145.947 39.416 145.667 39.696C145.387 39.9573 145.051 40.088 144.659 40.088C144.267 40.088 143.922 39.9573 143.623 39.696ZM143.511 56.16V44.54C143.511 44.2973 143.623 44.1013 143.847 43.952C144.071 43.8027 144.342 43.728 144.659 43.728C144.995 43.728 145.275 43.8027 145.499 43.952C145.723 44.1013 145.835 44.2973 145.835 44.54V56.16C145.835 56.3653 145.714 56.5613 145.471 56.748C145.247 56.916 144.977 57 144.659 57C144.342 57 144.071 56.916 143.847 56.748C143.623 56.58 143.511 56.384 143.511 56.16ZM149.144 56.16V44.54C149.144 44.2973 149.247 44.1013 149.452 43.952C149.676 43.8027 149.956 43.728 150.292 43.728C150.572 43.728 150.815 43.812 151.02 43.98C151.244 44.1293 151.356 44.316 151.356 44.54V45.688C151.655 45.0907 152.131 44.5867 152.784 44.176C153.456 43.7653 154.231 43.56 155.108 43.56C156.434 43.56 157.582 44.092 158.552 45.156C159.542 46.2013 160.036 47.4613 160.036 48.936V56.16C160.036 56.4213 159.915 56.6267 159.672 56.776C159.448 56.9253 159.178 57 158.86 57C158.562 57 158.291 56.9253 158.048 56.776C157.824 56.6267 157.712 56.4213 157.712 56.16V48.936C157.712 48.096 157.395 47.34 156.76 46.668C156.126 45.996 155.379 45.66 154.52 45.66C153.718 45.66 153.008 45.968 152.392 46.584C151.776 47.1813 151.468 47.9653 151.468 48.936V56.16C151.468 56.3653 151.347 56.5613 151.104 56.748C150.862 56.916 150.591 57 150.292 57C149.975 57 149.704 56.916 149.48 56.748C149.256 56.58 149.144 56.384 149.144 56.16ZM168.776 52.772V38.352C168.776 38.128 168.897 37.9413 169.14 37.792C169.382 37.624 169.644 37.54 169.924 37.54C170.222 37.54 170.493 37.624 170.736 37.792C170.978 37.9413 171.1 38.128 171.1 38.352V43.728H174.628C174.833 43.728 175.001 43.8213 175.132 44.008C175.262 44.1947 175.328 44.4093 175.328 44.652C175.328 44.8947 175.262 45.1093 175.132 45.296C175.001 45.464 174.833 45.548 174.628 45.548H171.1V52.772C171.1 53.5747 171.268 54.144 171.604 54.48C171.958 54.7973 172.565 54.956 173.424 54.956H174.292C174.609 54.956 174.852 55.0587 175.02 55.264C175.206 55.4507 175.3 55.684 175.3 55.964C175.3 56.244 175.206 56.4867 175.02 56.692C174.833 56.8973 174.59 57 174.292 57H173.424C170.325 57 168.776 55.5907 168.776 52.772ZM177.528 56.16V36.532C177.528 36.2893 177.63 36.0933 177.836 35.944C178.06 35.7947 178.34 35.72 178.676 35.72C179.012 35.72 179.292 35.7947 179.516 35.944C179.74 36.0933 179.852 36.2893 179.852 36.532V45.688C180.169 45.0907 180.636 44.5867 181.252 44.176C181.886 43.7653 182.633 43.56 183.492 43.56C184.817 43.56 185.965 44.092 186.936 45.156C187.925 46.2013 188.42 47.4613 188.42 48.936V56.16C188.42 56.4213 188.298 56.6267 188.056 56.776C187.832 56.9253 187.561 57 187.244 57C186.945 57 186.674 56.9253 186.432 56.776C186.208 56.6267 186.096 56.4213 186.096 56.16V48.936C186.096 48.096 185.778 47.34 185.144 46.668C184.509 45.996 183.762 45.66 182.904 45.66C182.101 45.66 181.392 45.968 180.776 46.584C180.16 47.1813 179.852 47.9653 179.852 48.936V56.16C179.852 56.3653 179.73 56.5613 179.488 56.748C179.264 56.916 178.993 57 178.676 57C178.358 57 178.088 56.916 177.864 56.748C177.64 56.58 177.528 56.384 177.528 56.16ZM191.105 51.792V48.852C191.105 47.4147 191.646 46.1733 192.729 45.128C193.83 44.0827 195.146 43.56 196.677 43.56C198.133 43.56 199.393 44.0547 200.457 45.044C201.521 46.0147 202.053 47.2373 202.053 48.712C202.053 49.2533 201.988 49.692 201.857 50.028C201.726 50.3453 201.521 50.5787 201.241 50.728C200.98 50.8587 200.728 50.9427 200.485 50.98C200.261 51.0173 199.953 51.036 199.561 51.036H193.429V51.876C193.429 52.9027 193.793 53.724 194.521 54.34C195.268 54.956 196.229 55.264 197.405 55.264C198.021 55.264 198.553 55.1707 199.001 54.984C199.468 54.7973 199.841 54.62 200.121 54.452C200.401 54.2653 200.625 54.172 200.793 54.172C201.054 54.172 201.278 54.2933 201.465 54.536C201.652 54.76 201.745 54.9933 201.745 55.236C201.745 55.6653 201.316 56.104 200.457 56.552C199.617 57 198.572 57.224 197.321 57.224C195.492 57.224 193.998 56.7293 192.841 55.74C191.684 54.732 191.105 53.416 191.105 51.792ZM193.429 49.468H198.609C199.094 49.468 199.421 49.412 199.589 49.3C199.757 49.1693 199.841 48.9267 199.841 48.572C199.841 47.732 199.533 46.9947 198.917 46.36C198.301 45.7253 197.545 45.408 196.649 45.408C195.772 45.408 195.016 45.7067 194.381 46.304C193.746 46.8827 193.429 47.6013 193.429 48.46V49.468ZM209.418 55.096C209.418 54.8533 209.493 54.62 209.642 54.396C209.81 54.1533 210.006 54.032 210.23 54.032C210.379 54.032 210.594 54.144 210.874 54.368C211.154 54.592 211.555 54.816 212.078 55.04C212.601 55.2453 213.217 55.348 213.926 55.348C214.859 55.348 215.531 55.18 215.942 54.844C216.371 54.508 216.586 54.088 216.586 53.584C216.586 52.968 216.353 52.4827 215.886 52.128C215.419 51.7547 214.85 51.4747 214.178 51.288C213.506 51.1013 212.834 50.896 212.162 50.672C211.49 50.448 210.921 50.0747 210.454 49.552C209.987 49.0293 209.754 48.3387 209.754 47.48C209.754 46.416 210.127 45.5013 210.874 44.736C211.639 43.952 212.797 43.56 214.346 43.56C215.335 43.56 216.241 43.7187 217.062 44.036C217.883 44.3347 218.294 44.68 218.294 45.072C218.294 45.296 218.201 45.548 218.014 45.828C217.846 46.108 217.631 46.248 217.37 46.248C217.295 46.248 216.931 46.1173 216.278 45.856C215.643 45.576 215.009 45.436 214.374 45.436C213.515 45.436 212.871 45.6413 212.442 46.052C212.031 46.444 211.826 46.892 211.826 47.396C211.826 47.9187 212.059 48.3293 212.526 48.628C212.993 48.9267 213.562 49.16 214.234 49.328C214.925 49.496 215.606 49.7013 216.278 49.944C216.95 50.1867 217.519 50.6067 217.986 51.204C218.453 51.7827 218.686 52.5387 218.686 53.472C218.686 54.6293 218.275 55.544 217.454 56.216C216.633 56.888 215.485 57.224 214.01 57.224C212.741 57.224 211.658 57 210.762 56.552C209.866 56.0853 209.418 55.6 209.418 55.096ZM220.719 51.792V48.992C220.719 47.3867 221.186 46.08 222.119 45.072C223.071 44.064 224.462 43.56 226.291 43.56C227.448 43.56 228.419 43.7653 229.203 44.176C230.006 44.5867 230.407 45.0253 230.407 45.492C230.407 45.7533 230.304 46.0147 230.099 46.276C229.912 46.5187 229.688 46.64 229.427 46.64C229.352 46.64 229.026 46.4813 228.447 46.164C227.887 45.828 227.224 45.66 226.459 45.66C225.339 45.66 224.49 45.9493 223.911 46.528C223.332 47.1067 223.043 47.928 223.043 48.992V51.792C223.043 54.0133 224.191 55.124 226.487 55.124C227.271 55.124 227.952 54.956 228.531 54.62C229.11 54.284 229.446 54.116 229.539 54.116C229.838 54.116 230.08 54.2373 230.267 54.48C230.472 54.7227 230.575 54.9747 230.575 55.236C230.575 55.7027 230.164 56.1507 229.343 56.58C228.522 57.0093 227.514 57.224 226.319 57.224C224.471 57.224 223.071 56.7293 222.119 55.74C221.186 54.732 220.719 53.416 220.719 51.792ZM232.899 56.16V36.532C232.899 36.2893 233.001 36.0933 233.207 35.944C233.431 35.7947 233.711 35.72 234.047 35.72C234.383 35.72 234.663 35.7947 234.887 35.944C235.111 36.0933 235.223 36.2893 235.223 36.532V45.688C235.54 45.0907 236.007 44.5867 236.623 44.176C237.257 43.7653 238.004 43.56 238.863 43.56C240.188 43.56 241.336 44.092 242.307 45.156C243.296 46.2013 243.791 47.4613 243.791 48.936V56.16C243.791 56.4213 243.669 56.6267 243.427 56.776C243.203 56.9253 242.932 57 242.615 57C242.316 57 242.045 56.9253 241.803 56.776C241.579 56.6267 241.467 56.4213 241.467 56.16V48.936C241.467 48.096 241.149 47.34 240.515 46.668C239.88 45.996 239.133 45.66 238.275 45.66C237.472 45.66 236.763 45.968 236.147 46.584C235.531 47.1813 235.223 47.9653 235.223 48.936V56.16C235.223 56.3653 235.101 56.5613 234.859 56.748C234.635 56.916 234.364 57 234.047 57C233.729 57 233.459 56.916 233.235 56.748C233.011 56.58 232.899 56.384 232.899 56.16ZM246.476 51.792V48.852C246.476 47.4147 247.017 46.1733 248.1 45.128C249.201 44.0827 250.517 43.56 252.048 43.56C253.504 43.56 254.764 44.0547 255.828 45.044C256.892 46.0147 257.424 47.2373 257.424 48.712C257.424 49.2533 257.359 49.692 257.228 50.028C257.097 50.3453 256.892 50.5787 256.612 50.728C256.351 50.8587 256.099 50.9427 255.856 50.98C255.632 51.0173 255.324 51.036 254.932 51.036H248.8V51.876C248.8 52.9027 249.164 53.724 249.892 54.34C250.639 54.956 251.6 55.264 252.776 55.264C253.392 55.264 253.924 55.1707 254.372 54.984C254.839 54.7973 255.212 54.62 255.492 54.452C255.772 54.2653 255.996 54.172 256.164 54.172C256.425 54.172 256.649 54.2933 256.836 54.536C257.023 54.76 257.116 54.9933 257.116 55.236C257.116 55.6653 256.687 56.104 255.828 56.552C254.988 57 253.943 57.224 252.692 57.224C250.863 57.224 249.369 56.7293 248.212 55.74C247.055 54.732 246.476 53.416 246.476 51.792ZM248.8 49.468H253.98C254.465 49.468 254.792 49.412 254.96 49.3C255.128 49.1693 255.212 48.9267 255.212 48.572C255.212 47.732 254.904 46.9947 254.288 46.36C253.672 45.7253 252.916 45.408 252.02 45.408C251.143 45.408 250.387 45.7067 249.752 46.304C249.117 46.8827 248.8 47.6013 248.8 48.46V49.468ZM259.492 51.792V48.936C259.492 47.4613 259.986 46.2013 260.976 45.156C261.965 44.092 263.141 43.56 264.504 43.56C265.344 43.56 266.081 43.7653 266.716 44.176C267.35 44.5867 267.836 45.0907 268.172 45.688V36.532C268.172 36.2893 268.284 36.0933 268.508 35.944C268.732 35.7947 269.012 35.72 269.348 35.72C269.684 35.72 269.954 35.7947 270.16 35.944C270.384 36.0933 270.496 36.2893 270.496 36.532V56.16C270.496 56.384 270.384 56.58 270.16 56.748C269.936 56.916 269.665 57 269.348 57C269.068 57 268.816 56.916 268.592 56.748C268.386 56.58 268.284 56.384 268.284 56.16V55.04C267.966 55.6373 267.453 56.1507 266.744 56.58C266.034 57.0093 265.26 57.224 264.42 57.224C263.113 57.224 261.965 56.6733 260.976 55.572C259.986 54.4707 259.492 53.2107 259.492 51.792ZM261.816 51.792C261.816 52.6507 262.133 53.4253 262.768 54.116C263.402 54.788 264.14 55.124 264.98 55.124C265.801 55.124 266.538 54.816 267.192 54.2C267.845 53.5653 268.172 53.0147 268.172 52.548V48.936C268.172 47.9653 267.854 47.1813 267.22 46.584C266.585 45.968 265.848 45.66 265.008 45.66C264.149 45.66 263.402 45.996 262.768 46.668C262.133 47.34 261.816 48.096 261.816 48.936V51.792ZM273.72 51.848V44.568C273.72 44.344 273.832 44.148 274.056 43.98C274.298 43.812 274.578 43.728 274.896 43.728C275.194 43.728 275.456 43.8213 275.68 44.008C275.922 44.176 276.044 44.3627 276.044 44.568V51.848C276.044 52.688 276.361 53.444 276.996 54.116C277.63 54.788 278.386 55.124 279.264 55.124C280.122 55.124 280.869 54.7973 281.504 54.144C282.138 53.472 282.456 52.7067 282.456 51.848V44.54C282.456 44.3347 282.568 44.148 282.792 43.98C283.034 43.812 283.314 43.728 283.632 43.728C283.968 43.728 284.238 43.812 284.444 43.98C284.668 44.1293 284.78 44.316 284.78 44.54V51.848C284.78 53.2853 284.229 54.5453 283.128 55.628C282.045 56.692 280.757 57.224 279.264 57.224C277.752 57.224 276.445 56.692 275.344 55.628C274.261 54.5453 273.72 53.2853 273.72 51.848ZM288.22 56.16V36.532C288.22 36.2893 288.323 36.0933 288.528 35.944C288.752 35.7947 289.032 35.72 289.368 35.72C289.704 35.72 289.984 35.7947 290.208 35.944C290.432 36.0933 290.544 36.2893 290.544 36.532V56.16C290.544 56.3653 290.423 56.5613 290.18 56.748C289.956 56.916 289.686 57 289.368 57C289.051 57 288.78 56.916 288.556 56.748C288.332 56.58 288.22 56.384 288.22 56.16ZM293.589 51.792V48.852C293.589 47.4147 294.131 46.1733 295.213 45.128C296.315 44.0827 297.631 43.56 299.161 43.56C300.617 43.56 301.877 44.0547 302.941 45.044C304.005 46.0147 304.537 47.2373 304.537 48.712C304.537 49.2533 304.472 49.692 304.341 50.028C304.211 50.3453 304.005 50.5787 303.725 50.728C303.464 50.8587 303.212 50.9427 302.969 50.98C302.745 51.0173 302.437 51.036 302.045 51.036H295.913V51.876C295.913 52.9027 296.277 53.724 297.005 54.34C297.752 54.956 298.713 55.264 299.889 55.264C300.505 55.264 301.037 55.1707 301.485 54.984C301.952 54.7973 302.325 54.62 302.605 54.452C302.885 54.2653 303.109 54.172 303.277 54.172C303.539 54.172 303.763 54.2933 303.949 54.536C304.136 54.76 304.229 54.9933 304.229 55.236C304.229 55.6653 303.8 56.104 302.941 56.552C302.101 57 301.056 57.224 299.805 57.224C297.976 57.224 296.483 56.7293 295.325 55.74C294.168 54.732 293.589 53.416 293.589 51.792ZM295.913 49.468H301.093C301.579 49.468 301.905 49.412 302.073 49.3C302.241 49.1693 302.325 48.9267 302.325 48.572C302.325 47.732 302.017 46.9947 301.401 46.36C300.785 45.7253 300.029 45.408 299.133 45.408C298.256 45.408 297.5 45.7067 296.865 46.304C296.231 46.8827 295.913 47.6013 295.913 48.46V49.468ZM311.847 53.5C311.847 52.044 312.407 51.036 313.527 50.476C314.647 49.8973 316.271 49.608 318.399 49.608H319.743V49.02C319.743 48.0867 319.481 47.2747 318.959 46.584C318.455 45.8933 317.689 45.548 316.663 45.548C315.879 45.548 315.188 45.688 314.591 45.968C313.993 46.2293 313.667 46.36 313.611 46.36C313.349 46.36 313.135 46.2387 312.967 45.996C312.817 45.7347 312.743 45.464 312.743 45.184C312.743 44.7547 313.163 44.3813 314.003 44.064C314.861 43.728 315.767 43.56 316.719 43.56C318.548 43.56 319.892 44.0827 320.751 45.128C321.628 46.1547 322.067 47.4427 322.067 48.992V56.16C322.067 56.4027 321.955 56.608 321.731 56.776C321.525 56.9253 321.255 57 320.919 57C320.62 57 320.368 56.9253 320.163 56.776C319.957 56.608 319.855 56.4027 319.855 56.16V55.04C318.585 56.496 317.176 57.224 315.627 57.224C314.507 57.224 313.592 56.9067 312.883 56.272C312.192 55.6373 311.847 54.7133 311.847 53.5ZM314.199 53.248C314.199 53.9387 314.395 54.4613 314.787 54.816C315.179 55.1707 315.701 55.348 316.355 55.348C317.139 55.348 317.895 55.04 318.623 54.424C319.369 53.7893 319.743 53.1453 319.743 52.492V51.036H318.763C318.221 51.036 317.755 51.0547 317.363 51.092C316.971 51.1107 316.56 51.1667 316.131 51.26C315.72 51.3347 315.375 51.456 315.095 51.624C314.833 51.7733 314.619 51.988 314.451 52.268C314.283 52.5293 314.199 52.856 314.199 53.248ZM325.265 56.16V44.54C325.265 44.2973 325.368 44.1013 325.573 43.952C325.797 43.8027 326.077 43.728 326.413 43.728C326.712 43.728 326.964 43.8027 327.169 43.952C327.375 44.1013 327.477 44.2973 327.477 44.54V45.856C327.813 45.2213 328.308 44.68 328.961 44.232C329.615 43.784 330.343 43.56 331.145 43.56H332.097C332.34 43.56 332.545 43.672 332.713 43.896C332.9 44.1013 332.993 44.344 332.993 44.624C332.993 44.904 332.9 45.1467 332.713 45.352C332.545 45.5573 332.34 45.66 332.097 45.66H331.145C330.193 45.66 329.363 46.0427 328.653 46.808C327.944 47.5733 327.589 48.5627 327.589 49.776V56.16C327.589 56.3653 327.468 56.5613 327.225 56.748C327.001 56.916 326.731 57 326.413 57C326.096 57 325.825 56.916 325.601 56.748C325.377 56.58 325.265 56.384 325.265 56.16ZM333.976 51.792V48.852C333.976 47.4147 334.517 46.1733 335.6 45.128C336.701 44.0827 338.017 43.56 339.548 43.56C341.004 43.56 342.264 44.0547 343.328 45.044C344.392 46.0147 344.924 47.2373 344.924 48.712C344.924 49.2533 344.859 49.692 344.728 50.028C344.597 50.3453 344.392 50.5787 344.112 50.728C343.851 50.8587 343.599 50.9427 343.356 50.98C343.132 51.0173 342.824 51.036 342.432 51.036H336.3V51.876C336.3 52.9027 336.664 53.724 337.392 54.34C338.139 54.956 339.1 55.264 340.276 55.264C340.892 55.264 341.424 55.1707 341.872 54.984C342.339 54.7973 342.712 54.62 342.992 54.452C343.272 54.2653 343.496 54.172 343.664 54.172C343.925 54.172 344.149 54.2933 344.336 54.536C344.523 54.76 344.616 54.9933 344.616 55.236C344.616 55.6653 344.187 56.104 343.328 56.552C342.488 57 341.443 57.224 340.192 57.224C338.363 57.224 336.869 56.7293 335.712 55.74C334.555 54.732 333.976 53.416 333.976 51.792ZM336.3 49.468H341.48C341.965 49.468 342.292 49.412 342.46 49.3C342.628 49.1693 342.712 48.9267 342.712 48.572C342.712 47.732 342.404 46.9947 341.788 46.36C341.172 45.7253 340.416 45.408 339.52 45.408C338.643 45.408 337.887 45.7067 337.252 46.304C336.617 46.8827 336.3 47.6013 336.3 48.46V49.468ZM352.989 51.848V44.568C352.989 44.344 353.101 44.148 353.325 43.98C353.568 43.812 353.848 43.728 354.165 43.728C354.464 43.728 354.725 43.8213 354.949 44.008C355.192 44.176 355.313 44.3627 355.313 44.568V51.848C355.313 52.688 355.631 53.444 356.265 54.116C356.9 54.788 357.656 55.124 358.533 55.124C359.392 55.124 360.139 54.7973 360.773 54.144C361.408 53.472 361.725 52.7067 361.725 51.848V44.54C361.725 44.3347 361.837 44.148 362.061 43.98C362.304 43.812 362.584 43.728 362.901 43.728C363.237 43.728 363.508 43.812 363.713 43.98C363.937 44.1293 364.049 44.316 364.049 44.54V51.848C364.049 53.2853 363.499 54.5453 362.397 55.628C361.315 56.692 360.027 57.224 358.533 57.224C357.021 57.224 355.715 56.692 354.613 55.628C353.531 54.5453 352.989 53.2853 352.989 51.848ZM367.266 62.572V44.54C367.266 44.2973 367.369 44.1013 367.574 43.952C367.798 43.8027 368.069 43.728 368.386 43.728C368.703 43.728 368.965 43.8027 369.17 43.952C369.375 44.1013 369.478 44.2973 369.478 44.54V45.688C369.814 45.0907 370.309 44.5867 370.962 44.176C371.615 43.7653 372.371 43.56 373.23 43.56C374.63 43.56 375.815 44.092 376.786 45.156C377.775 46.2013 378.27 47.4613 378.27 48.936V51.792C378.27 53.2107 377.775 54.4707 376.786 55.572C375.797 56.6733 374.649 57.224 373.342 57.224C372.521 57.224 371.765 57.0187 371.074 56.608C370.402 56.1787 369.907 55.656 369.59 55.04V62.572C369.59 62.7773 369.469 62.964 369.226 63.132C369.002 63.3187 368.731 63.412 368.414 63.412C368.097 63.412 367.826 63.328 367.602 63.16C367.378 62.992 367.266 62.796 367.266 62.572ZM369.59 52.548C369.59 53.0147 369.907 53.5653 370.542 54.2C371.195 54.816 371.933 55.124 372.754 55.124C373.594 55.124 374.331 54.788 374.966 54.116C375.619 53.4253 375.946 52.6507 375.946 51.792V48.936C375.946 48.096 375.619 47.34 374.966 46.668C374.331 45.996 373.575 45.66 372.698 45.66C371.877 45.66 371.149 45.968 370.514 46.584C369.898 47.1813 369.59 47.9653 369.59 48.936V52.548ZM380.57 51.792V48.936C380.57 47.4613 381.065 46.2013 382.054 45.156C383.043 44.092 384.219 43.56 385.582 43.56C386.422 43.56 387.159 43.7653 387.794 44.176C388.429 44.5867 388.914 45.0907 389.25 45.688V36.532C389.25 36.2893 389.362 36.0933 389.586 35.944C389.81 35.7947 390.09 35.72 390.426 35.72C390.762 35.72 391.033 35.7947 391.238 35.944C391.462 36.0933 391.574 36.2893 391.574 36.532V56.16C391.574 56.384 391.462 56.58 391.238 56.748C391.014 56.916 390.743 57 390.426 57C390.146 57 389.894 56.916 389.67 56.748C389.465 56.58 389.362 56.384 389.362 56.16V55.04C389.045 55.6373 388.531 56.1507 387.822 56.58C387.113 57.0093 386.338 57.224 385.498 57.224C384.191 57.224 383.043 56.6733 382.054 55.572C381.065 54.4707 380.57 53.2107 380.57 51.792ZM382.894 51.792C382.894 52.6507 383.211 53.4253 383.846 54.116C384.481 54.788 385.218 55.124 386.058 55.124C386.879 55.124 387.617 54.816 388.27 54.2C388.923 53.5653 389.25 53.0147 389.25 52.548V48.936C389.25 47.9653 388.933 47.1813 388.298 46.584C387.663 45.968 386.926 45.66 386.086 45.66C385.227 45.66 384.481 45.996 383.846 46.668C383.211 47.34 382.894 48.096 382.894 48.936V51.792ZM394.042 53.5C394.042 52.044 394.602 51.036 395.722 50.476C396.842 49.8973 398.466 49.608 400.594 49.608H401.938V49.02C401.938 48.0867 401.676 47.2747 401.154 46.584C400.65 45.8933 399.884 45.548 398.858 45.548C398.074 45.548 397.383 45.688 396.786 45.968C396.188 46.2293 395.862 46.36 395.806 46.36C395.544 46.36 395.33 46.2387 395.162 45.996C395.012 45.7347 394.938 45.464 394.938 45.184C394.938 44.7547 395.358 44.3813 396.198 44.064C397.056 43.728 397.962 43.56 398.914 43.56C400.743 43.56 402.087 44.0827 402.946 45.128C403.823 46.1547 404.262 47.4427 404.262 48.992V56.16C404.262 56.4027 404.15 56.608 403.926 56.776C403.72 56.9253 403.45 57 403.114 57C402.815 57 402.563 56.9253 402.358 56.776C402.152 56.608 402.05 56.4027 402.05 56.16V55.04C400.78 56.496 399.371 57.224 397.822 57.224C396.702 57.224 395.787 56.9067 395.078 56.272C394.387 55.6373 394.042 54.7133 394.042 53.5ZM396.394 53.248C396.394 53.9387 396.59 54.4613 396.982 54.816C397.374 55.1707 397.896 55.348 398.55 55.348C399.334 55.348 400.09 55.04 400.818 54.424C401.564 53.7893 401.938 53.1453 401.938 52.492V51.036H400.958C400.416 51.036 399.95 51.0547 399.558 51.092C399.166 51.1107 398.755 51.1667 398.326 51.26C397.915 51.3347 397.57 51.456 397.29 51.624C397.028 51.7733 396.814 51.988 396.646 52.268C396.478 52.5293 396.394 52.856 396.394 53.248ZM407.405 52.772V38.352C407.405 38.128 407.526 37.9413 407.769 37.792C408.011 37.624 408.273 37.54 408.553 37.54C408.851 37.54 409.122 37.624 409.365 37.792C409.607 37.9413 409.729 38.128 409.729 38.352V43.728H413.257C413.462 43.728 413.63 43.8213 413.761 44.008C413.891 44.1947 413.957 44.4093 413.957 44.652C413.957 44.8947 413.891 45.1093 413.761 45.296C413.63 45.464 413.462 45.548 413.257 45.548H409.729V52.772C409.729 53.5747 409.897 54.144 410.233 54.48C410.587 54.7973 411.194 54.956 412.053 54.956H412.921C413.238 54.956 413.481 55.0587 413.649 55.264C413.835 55.4507 413.929 55.684 413.929 55.964C413.929 56.244 413.835 56.4867 413.649 56.692C413.462 56.8973 413.219 57 412.921 57H412.053C408.954 57 407.405 55.5907 407.405 52.772ZM415.406 51.792V48.852C415.406 47.4147 415.947 46.1733 417.03 45.128C418.131 44.0827 419.447 43.56 420.978 43.56C422.434 43.56 423.694 44.0547 424.758 45.044C425.822 46.0147 426.354 47.2373 426.354 48.712C426.354 49.2533 426.288 49.692 426.158 50.028C426.027 50.3453 425.822 50.5787 425.542 50.728C425.28 50.8587 425.028 50.9427 424.786 50.98C424.562 51.0173 424.254 51.036 423.862 51.036H417.73V51.876C417.73 52.9027 418.094 53.724 418.822 54.34C419.568 54.956 420.53 55.264 421.706 55.264C422.322 55.264 422.854 55.1707 423.302 54.984C423.768 54.7973 424.142 54.62 424.422 54.452C424.702 54.2653 424.926 54.172 425.094 54.172C425.355 54.172 425.579 54.2933 425.766 54.536C425.952 54.76 426.046 54.9933 426.046 55.236C426.046 55.6653 425.616 56.104 424.758 56.552C423.918 57 422.872 57.224 421.622 57.224C419.792 57.224 418.299 56.7293 417.142 55.74C415.984 54.732 415.406 53.416 415.406 51.792ZM417.73 49.468H422.91C423.395 49.468 423.722 49.412 423.89 49.3C424.058 49.1693 424.142 48.9267 424.142 48.572C424.142 47.732 423.834 46.9947 423.218 46.36C422.602 45.7253 421.846 45.408 420.95 45.408C420.072 45.408 419.316 45.7067 418.682 46.304C418.047 46.8827 417.73 47.6013 417.73 48.46V49.468ZM428.421 51.792V48.936C428.421 47.4613 428.916 46.2013 429.905 45.156C430.895 44.092 432.071 43.56 433.433 43.56C434.273 43.56 435.011 43.7653 435.645 44.176C436.28 44.5867 436.765 45.0907 437.101 45.688V36.532C437.101 36.2893 437.213 36.0933 437.437 35.944C437.661 35.7947 437.941 35.72 438.277 35.72C438.613 35.72 438.884 35.7947 439.089 35.944C439.313 36.0933 439.425 36.2893 439.425 36.532V56.16C439.425 56.384 439.313 56.58 439.089 56.748C438.865 56.916 438.595 57 438.277 57C437.997 57 437.745 56.916 437.521 56.748C437.316 56.58 437.213 56.384 437.213 56.16V55.04C436.896 55.6373 436.383 56.1507 435.673 56.58C434.964 57.0093 434.189 57.224 433.349 57.224C432.043 57.224 430.895 56.6733 429.905 55.572C428.916 54.4707 428.421 53.2107 428.421 51.792ZM430.745 51.792C430.745 52.6507 431.063 53.4253 431.697 54.116C432.332 54.788 433.069 55.124 433.909 55.124C434.731 55.124 435.468 54.816 436.121 54.2C436.775 53.5653 437.101 53.0147 437.101 52.548V48.936C437.101 47.9653 436.784 47.1813 436.149 46.584C435.515 45.968 434.777 45.66 433.937 45.66C433.079 45.66 432.332 45.996 431.697 46.668C431.063 47.34 430.745 48.096 430.745 48.936V51.792ZM448.479 39.696C448.199 39.416 448.059 39.0987 448.059 38.744C448.059 38.3893 448.199 38.0813 448.479 37.82C448.759 37.5587 449.104 37.428 449.515 37.428C449.907 37.428 450.243 37.5587 450.523 37.82C450.803 38.0813 450.943 38.3893 450.943 38.744C450.943 39.0987 450.803 39.416 450.523 39.696C450.243 39.9573 449.907 40.088 449.515 40.088C449.123 40.088 448.778 39.9573 448.479 39.696ZM448.367 56.16V44.54C448.367 44.2973 448.479 44.1013 448.703 43.952C448.927 43.8027 449.198 43.728 449.515 43.728C449.851 43.728 450.131 43.8027 450.355 43.952C450.579 44.1013 450.691 44.2973 450.691 44.54V56.16C450.691 56.3653 450.57 56.5613 450.327 56.748C450.103 56.916 449.832 57 449.515 57C449.198 57 448.927 56.916 448.703 56.748C448.479 56.58 448.367 56.384 448.367 56.16ZM454 56.16V44.54C454 44.2973 454.102 44.1013 454.308 43.952C454.532 43.8027 454.812 43.728 455.148 43.728C455.428 43.728 455.67 43.812 455.876 43.98C456.1 44.1293 456.212 44.316 456.212 44.54V45.688C456.51 45.0907 456.986 44.5867 457.64 44.176C458.312 43.7653 459.086 43.56 459.964 43.56C461.289 43.56 462.437 44.092 463.408 45.156C464.397 46.2013 464.892 47.4613 464.892 48.936V56.16C464.892 56.4213 464.77 56.6267 464.528 56.776C464.304 56.9253 464.033 57 463.716 57C463.417 57 463.146 56.9253 462.904 56.776C462.68 56.6267 462.568 56.4213 462.568 56.16V48.936C462.568 48.096 462.25 47.34 461.616 46.668C460.981 45.996 460.234 45.66 459.376 45.66C458.573 45.66 457.864 45.968 457.248 46.584C456.632 47.1813 456.324 47.9653 456.324 48.936V56.16C456.324 56.3653 456.202 56.5613 455.96 56.748C455.717 56.916 455.446 57 455.148 57C454.83 57 454.56 56.916 454.336 56.748C454.112 56.58 454 56.384 454 56.16ZM473.631 52.772V38.352C473.631 38.128 473.752 37.9413 473.995 37.792C474.238 37.624 474.499 37.54 474.779 37.54C475.078 37.54 475.348 37.624 475.591 37.792C475.834 37.9413 475.955 38.128 475.955 38.352V43.728H479.483C479.688 43.728 479.856 43.8213 479.987 44.008C480.118 44.1947 480.183 44.4093 480.183 44.652C480.183 44.8947 480.118 45.1093 479.987 45.296C479.856 45.464 479.688 45.548 479.483 45.548H475.955V52.772C475.955 53.5747 476.123 54.144 476.459 54.48C476.814 54.7973 477.42 54.956 478.279 54.956H479.147C479.464 54.956 479.707 55.0587 479.875 55.264C480.062 55.4507 480.155 55.684 480.155 55.964C480.155 56.244 480.062 56.4867 479.875 56.692C479.688 56.8973 479.446 57 479.147 57H478.279C475.18 57 473.631 55.5907 473.631 52.772ZM482.383 56.16V36.532C482.383 36.2893 482.486 36.0933 482.691 35.944C482.915 35.7947 483.195 35.72 483.531 35.72C483.867 35.72 484.147 35.7947 484.371 35.944C484.595 36.0933 484.707 36.2893 484.707 36.532V45.688C485.024 45.0907 485.491 44.5867 486.107 44.176C486.742 43.7653 487.488 43.56 488.347 43.56C489.672 43.56 490.82 44.092 491.791 45.156C492.78 46.2013 493.275 47.4613 493.275 48.936V56.16C493.275 56.4213 493.154 56.6267 492.911 56.776C492.687 56.9253 492.416 57 492.099 57C491.8 57 491.53 56.9253 491.287 56.776C491.063 56.6267 490.951 56.4213 490.951 56.16V48.936C490.951 48.096 490.634 47.34 489.999 46.668C489.364 45.996 488.618 45.66 487.759 45.66C486.956 45.66 486.247 45.968 485.631 46.584C485.015 47.1813 484.707 47.9653 484.707 48.936V56.16C484.707 56.3653 484.586 56.5613 484.343 56.748C484.119 56.916 483.848 57 483.531 57C483.214 57 482.943 56.916 482.719 56.748C482.495 56.58 482.383 56.384 482.383 56.16ZM495.961 51.792V48.852C495.961 47.4147 496.502 46.1733 497.585 45.128C498.686 44.0827 500.002 43.56 501.533 43.56C502.989 43.56 504.249 44.0547 505.313 45.044C506.377 46.0147 506.909 47.2373 506.909 48.712C506.909 49.2533 506.843 49.692 506.713 50.028C506.582 50.3453 506.377 50.5787 506.097 50.728C505.835 50.8587 505.583 50.9427 505.341 50.98C505.117 51.0173 504.809 51.036 504.417 51.036H498.285V51.876C498.285 52.9027 498.649 53.724 499.377 54.34C500.123 54.956 501.085 55.264 502.261 55.264C502.877 55.264 503.409 55.1707 503.857 54.984C504.323 54.7973 504.697 54.62 504.977 54.452C505.257 54.2653 505.481 54.172 505.649 54.172C505.91 54.172 506.134 54.2933 506.321 54.536C506.507 54.76 506.601 54.9933 506.601 55.236C506.601 55.6653 506.171 56.104 505.313 56.552C504.473 57 503.427 57.224 502.177 57.224C500.347 57.224 498.854 56.7293 497.697 55.74C496.539 54.732 495.961 53.416 495.961 51.792ZM498.285 49.468H503.465C503.95 49.468 504.277 49.412 504.445 49.3C504.613 49.1693 504.697 48.9267 504.697 48.572C504.697 47.732 504.389 46.9947 503.773 46.36C503.157 45.7253 502.401 45.408 501.505 45.408C500.627 45.408 499.871 45.7067 499.237 46.304C498.602 46.8827 498.285 47.6013 498.285 48.46V49.468ZM514.61 51.792V48.992C514.61 47.3867 515.076 46.08 516.01 45.072C516.962 44.064 518.352 43.56 520.182 43.56C521.339 43.56 522.31 43.7653 523.094 44.176C523.896 44.5867 524.298 45.0253 524.298 45.492C524.298 45.7533 524.195 46.0147 523.99 46.276C523.803 46.5187 523.579 46.64 523.318 46.64C523.243 46.64 522.916 46.4813 522.338 46.164C521.778 45.828 521.115 45.66 520.35 45.66C519.23 45.66 518.38 45.9493 517.802 46.528C517.223 47.1067 516.934 47.928 516.934 48.992V51.792C516.934 54.0133 518.082 55.124 520.378 55.124C521.162 55.124 521.843 54.956 522.422 54.62C523 54.284 523.336 54.116 523.43 54.116C523.728 54.116 523.971 54.2373 524.158 54.48C524.363 54.7227 524.466 54.9747 524.466 55.236C524.466 55.7027 524.055 56.1507 523.234 56.58C522.412 57.0093 521.404 57.224 520.21 57.224C518.362 57.224 516.962 56.7293 516.01 55.74C515.076 54.732 514.61 53.416 514.61 51.792ZM525.893 53.5C525.893 52.044 526.453 51.036 527.573 50.476C528.693 49.8973 530.317 49.608 532.445 49.608H533.789V49.02C533.789 48.0867 533.528 47.2747 533.005 46.584C532.501 45.8933 531.736 45.548 530.709 45.548C529.925 45.548 529.235 45.688 528.637 45.968C528.04 46.2293 527.713 46.36 527.657 46.36C527.396 46.36 527.181 46.2387 527.013 45.996C526.864 45.7347 526.789 45.464 526.789 45.184C526.789 44.7547 527.209 44.3813 528.049 44.064C528.908 43.728 529.813 43.56 530.765 43.56C532.595 43.56 533.939 44.0827 534.797 45.128C535.675 46.1547 536.113 47.4427 536.113 48.992V56.16C536.113 56.4027 536.001 56.608 535.777 56.776C535.572 56.9253 535.301 57 534.965 57C534.667 57 534.415 56.9253 534.209 56.776C534.004 56.608 533.901 56.4027 533.901 56.16V55.04C532.632 56.496 531.223 57.224 529.673 57.224C528.553 57.224 527.639 56.9067 526.929 56.272C526.239 55.6373 525.893 54.7133 525.893 53.5ZM528.245 53.248C528.245 53.9387 528.441 54.4613 528.833 54.816C529.225 55.1707 529.748 55.348 530.401 55.348C531.185 55.348 531.941 55.04 532.669 54.424C533.416 53.7893 533.789 53.1453 533.789 52.492V51.036H532.809C532.268 51.036 531.801 51.0547 531.409 51.092C531.017 51.1107 530.607 51.1667 530.177 51.26C529.767 51.3347 529.421 51.456 529.141 51.624C528.88 51.7733 528.665 51.988 528.497 52.268C528.329 52.5293 528.245 52.856 528.245 53.248ZM539.564 56.16V36.532C539.564 36.2893 539.667 36.0933 539.872 35.944C540.096 35.7947 540.376 35.72 540.712 35.72C541.048 35.72 541.328 35.7947 541.552 35.944C541.776 36.0933 541.888 36.2893 541.888 36.532V56.16C541.888 56.3653 541.767 56.5613 541.524 56.748C541.3 56.916 541.029 57 540.712 57C540.395 57 540.124 56.916 539.9 56.748C539.676 56.58 539.564 56.384 539.564 56.16ZM544.933 51.792V48.852C544.933 47.4147 545.474 46.1733 546.557 45.128C547.658 44.0827 548.974 43.56 550.505 43.56C551.961 43.56 553.221 44.0547 554.285 45.044C555.349 46.0147 555.881 47.2373 555.881 48.712C555.881 49.2533 555.816 49.692 555.685 50.028C555.554 50.3453 555.349 50.5787 555.069 50.728C554.808 50.8587 554.556 50.9427 554.313 50.98C554.089 51.0173 553.781 51.036 553.389 51.036H547.257V51.876C547.257 52.9027 547.621 53.724 548.349 54.34C549.096 54.956 550.057 55.264 551.233 55.264C551.849 55.264 552.381 55.1707 552.829 54.984C553.296 54.7973 553.669 54.62 553.949 54.452C554.229 54.2653 554.453 54.172 554.621 54.172C554.882 54.172 555.106 54.2933 555.293 54.536C555.48 54.76 555.573 54.9933 555.573 55.236C555.573 55.6653 555.144 56.104 554.285 56.552C553.445 57 552.4 57.224 551.149 57.224C549.32 57.224 547.826 56.7293 546.669 55.74C545.512 54.732 544.933 53.416 544.933 51.792ZM547.257 49.468H552.437C552.922 49.468 553.249 49.412 553.417 49.3C553.585 49.1693 553.669 48.9267 553.669 48.572C553.669 47.732 553.361 46.9947 552.745 46.36C552.129 45.7253 551.373 45.408 550.477 45.408C549.6 45.408 548.844 45.7067 548.209 46.304C547.574 46.8827 547.257 47.6013 547.257 48.46V49.468ZM558.453 56.16V44.54C558.453 44.2973 558.555 44.1013 558.761 43.952C558.985 43.8027 559.265 43.728 559.601 43.728C559.881 43.728 560.123 43.812 560.329 43.98C560.553 44.1293 560.665 44.316 560.665 44.54V45.688C560.963 45.0907 561.439 44.5867 562.093 44.176C562.765 43.7653 563.539 43.56 564.417 43.56C565.742 43.56 566.89 44.092 567.861 45.156C568.85 46.2013 569.345 47.4613 569.345 48.936V56.16C569.345 56.4213 569.223 56.6267 568.981 56.776C568.757 56.9253 568.486 57 568.169 57C567.87 57 567.599 56.9253 567.357 56.776C567.133 56.6267 567.021 56.4213 567.021 56.16V48.936C567.021 48.096 566.703 47.34 566.069 46.668C565.434 45.996 564.687 45.66 563.829 45.66C563.026 45.66 562.317 45.968 561.701 46.584C561.085 47.1813 560.777 47.9653 560.777 48.936V56.16C560.777 56.3653 560.655 56.5613 560.413 56.748C560.17 56.916 559.899 57 559.601 57C559.283 57 559.013 56.916 558.789 56.748C558.565 56.58 558.453 56.384 558.453 56.16ZM572.031 51.792V48.936C572.031 47.4613 572.525 46.2013 573.515 45.156C574.504 44.092 575.68 43.56 577.043 43.56C577.883 43.56 578.62 43.7653 579.255 44.176C579.889 44.5867 580.375 45.0907 580.711 45.688V36.532C580.711 36.2893 580.823 36.0933 581.047 35.944C581.271 35.7947 581.551 35.72 581.887 35.72C582.223 35.72 582.493 35.7947 582.699 35.944C582.923 36.0933 583.035 36.2893 583.035 36.532V56.16C583.035 56.384 582.923 56.58 582.699 56.748C582.475 56.916 582.204 57 581.887 57C581.607 57 581.355 56.916 581.131 56.748C580.925 56.58 580.823 56.384 580.823 56.16V55.04C580.505 55.6373 579.992 56.1507 579.283 56.58C578.573 57.0093 577.799 57.224 576.959 57.224C575.652 57.224 574.504 56.6733 573.515 55.572C572.525 54.4707 572.031 53.2107 572.031 51.792ZM574.355 51.792C574.355 52.6507 574.672 53.4253 575.307 54.116C575.941 54.788 576.679 55.124 577.519 55.124C578.34 55.124 579.077 54.816 579.731 54.2C580.384 53.5653 580.711 53.0147 580.711 52.548V48.936C580.711 47.9653 580.393 47.1813 579.759 46.584C579.124 45.968 578.387 45.66 577.547 45.66C576.688 45.66 575.941 45.996 575.307 46.668C574.672 47.34 574.355 48.096 574.355 48.936V51.792ZM585.503 53.5C585.503 52.044 586.063 51.036 587.183 50.476C588.303 49.8973 589.927 49.608 592.055 49.608H593.399V49.02C593.399 48.0867 593.137 47.2747 592.615 46.584C592.111 45.8933 591.345 45.548 590.319 45.548C589.535 45.548 588.844 45.688 588.247 45.968C587.649 46.2293 587.323 46.36 587.267 46.36C587.005 46.36 586.791 46.2387 586.623 45.996C586.473 45.7347 586.399 45.464 586.399 45.184C586.399 44.7547 586.819 44.3813 587.659 44.064C588.517 43.728 589.423 43.56 590.375 43.56C592.204 43.56 593.548 44.0827 594.407 45.128C595.284 46.1547 595.723 47.4427 595.723 48.992V56.16C595.723 56.4027 595.611 56.608 595.387 56.776C595.181 56.9253 594.911 57 594.575 57C594.276 57 594.024 56.9253 593.819 56.776C593.613 56.608 593.511 56.4027 593.511 56.16V55.04C592.241 56.496 590.832 57.224 589.283 57.224C588.163 57.224 587.248 56.9067 586.539 56.272C585.848 55.6373 585.503 54.7133 585.503 53.5ZM587.855 53.248C587.855 53.9387 588.051 54.4613 588.443 54.816C588.835 55.1707 589.357 55.348 590.011 55.348C590.795 55.348 591.551 55.04 592.279 54.424C593.025 53.7893 593.399 53.1453 593.399 52.492V51.036H592.419C591.877 51.036 591.411 51.0547 591.019 51.092C590.627 51.1107 590.216 51.1667 589.787 51.26C589.376 51.3347 589.031 51.456 588.751 51.624C588.489 51.7733 588.275 51.988 588.107 52.268C587.939 52.5293 587.855 52.856 587.855 53.248ZM598.922 56.16V44.54C598.922 44.2973 599.024 44.1013 599.23 43.952C599.454 43.8027 599.734 43.728 600.07 43.728C600.368 43.728 600.62 43.8027 600.826 43.952C601.031 44.1013 601.134 44.2973 601.134 44.54V45.856C601.47 45.2213 601.964 44.68 602.618 44.232C603.271 43.784 603.999 43.56 604.802 43.56H605.754C605.996 43.56 606.202 43.672 606.37 43.896C606.556 44.1013 606.65 44.344 606.65 44.624C606.65 44.904 606.556 45.1467 606.37 45.352C606.202 45.5573 605.996 45.66 605.754 45.66H604.802C603.85 45.66 603.019 46.0427 602.31 46.808C601.6 47.5733 601.246 48.5627 601.246 49.776V56.16C601.246 56.3653 601.124 56.5613 600.882 56.748C600.658 56.916 600.387 57 600.07 57C599.752 57 599.482 56.916 599.258 56.748C599.034 56.58 598.922 56.384 598.922 56.16ZM614.264 39.696C613.984 39.416 613.844 39.0987 613.844 38.744C613.844 38.3893 613.984 38.0813 614.264 37.82C614.544 37.5587 614.889 37.428 615.3 37.428C615.692 37.428 616.028 37.5587 616.308 37.82C616.588 38.0813 616.728 38.3893 616.728 38.744C616.728 39.0987 616.588 39.416 616.308 39.696C616.028 39.9573 615.692 40.088 615.3 40.088C614.908 40.088 614.563 39.9573 614.264 39.696ZM614.152 56.16V44.54C614.152 44.2973 614.264 44.1013 614.488 43.952C614.712 43.8027 614.983 43.728 615.3 43.728C615.636 43.728 615.916 43.8027 616.14 43.952C616.364 44.1013 616.476 44.2973 616.476 44.54V56.16C616.476 56.3653 616.355 56.5613 616.112 56.748C615.888 56.916 615.617 57 615.3 57C614.983 57 614.712 56.916 614.488 56.748C614.264 56.58 614.152 56.384 614.152 56.16ZM619.785 56.16V44.54C619.785 44.2973 619.887 44.1013 620.093 43.952C620.317 43.8027 620.597 43.728 620.933 43.728C621.213 43.728 621.455 43.812 621.661 43.98C621.885 44.1293 621.997 44.316 621.997 44.54V45.688C622.295 45.0907 622.771 44.5867 623.425 44.176C624.097 43.7653 624.871 43.56 625.749 43.56C627.074 43.56 628.222 44.092 629.193 45.156C630.182 46.2013 630.677 47.4613 630.677 48.936V56.16C630.677 56.4213 630.555 56.6267 630.313 56.776C630.089 56.9253 629.818 57 629.501 57C629.202 57 628.931 56.9253 628.689 56.776C628.465 56.6267 628.353 56.4213 628.353 56.16V48.936C628.353 48.096 628.035 47.34 627.401 46.668C626.766 45.996 626.019 45.66 625.161 45.66C624.358 45.66 623.649 45.968 623.033 46.584C622.417 47.1813 622.109 47.9653 622.109 48.936V56.16C622.109 56.3653 621.987 56.5613 621.745 56.748C621.502 56.916 621.231 57 620.933 57C620.615 57 620.345 56.916 620.121 56.748C619.897 56.58 619.785 56.384 619.785 56.16ZM633.055 55.096C633.055 54.8533 633.13 54.62 633.279 54.396C633.447 54.1533 633.643 54.032 633.867 54.032C634.016 54.032 634.231 54.144 634.511 54.368C634.791 54.592 635.192 54.816 635.715 55.04C636.238 55.2453 636.854 55.348 637.563 55.348C638.496 55.348 639.168 55.18 639.579 54.844C640.008 54.508 640.223 54.088 640.223 53.584C640.223 52.968 639.99 52.4827 639.523 52.128C639.056 51.7547 638.487 51.4747 637.815 51.288C637.143 51.1013 636.471 50.896 635.799 50.672C635.127 50.448 634.558 50.0747 634.091 49.552C633.624 49.0293 633.391 48.3387 633.391 47.48C633.391 46.416 633.764 45.5013 634.511 44.736C635.276 43.952 636.434 43.56 637.983 43.56C638.972 43.56 639.878 43.7187 640.699 44.036C641.52 44.3347 641.931 44.68 641.931 45.072C641.931 45.296 641.838 45.548 641.651 45.828C641.483 46.108 641.268 46.248 641.007 46.248C640.932 46.248 640.568 46.1173 639.915 45.856C639.28 45.576 638.646 45.436 638.011 45.436C637.152 45.436 636.508 45.6413 636.079 46.052C635.668 46.444 635.463 46.892 635.463 47.396C635.463 47.9187 635.696 48.3293 636.163 48.628C636.63 48.9267 637.199 49.16 637.871 49.328C638.562 49.496 639.243 49.7013 639.915 49.944C640.587 50.1867 641.156 50.6067 641.623 51.204C642.09 51.7827 642.323 52.5387 642.323 53.472C642.323 54.6293 641.912 55.544 641.091 56.216C640.27 56.888 639.122 57.224 637.647 57.224C636.378 57.224 635.295 57 634.399 56.552C633.503 56.0853 633.055 55.6 633.055 55.096ZM644.776 52.772V38.352C644.776 38.128 644.897 37.9413 645.14 37.792C645.382 37.624 645.644 37.54 645.924 37.54C646.222 37.54 646.493 37.624 646.736 37.792C646.978 37.9413 647.1 38.128 647.1 38.352V43.728H650.628C650.833 43.728 651.001 43.8213 651.132 44.008C651.262 44.1947 651.328 44.4093 651.328 44.652C651.328 44.8947 651.262 45.1093 651.132 45.296C651.001 45.464 650.833 45.548 650.628 45.548H647.1V52.772C647.1 53.5747 647.268 54.144 647.604 54.48C647.958 54.7973 648.565 54.956 649.424 54.956H650.292C650.609 54.956 650.852 55.0587 651.02 55.264C651.206 55.4507 651.3 55.684 651.3 55.964C651.3 56.244 651.206 56.4867 651.02 56.692C650.833 56.8973 650.59 57 650.292 57H649.424C646.325 57 644.776 55.5907 644.776 52.772ZM652.632 53.5C652.632 52.044 653.192 51.036 654.312 50.476C655.432 49.8973 657.056 49.608 659.184 49.608H660.528V49.02C660.528 48.0867 660.266 47.2747 659.744 46.584C659.24 45.8933 658.474 45.548 657.448 45.548C656.664 45.548 655.973 45.688 655.376 45.968C654.778 46.2293 654.452 46.36 654.396 46.36C654.134 46.36 653.92 46.2387 653.752 45.996C653.602 45.7347 653.528 45.464 653.528 45.184C653.528 44.7547 653.948 44.3813 654.788 44.064C655.646 43.728 656.552 43.56 657.504 43.56C659.333 43.56 660.677 44.0827 661.536 45.128C662.413 46.1547 662.852 47.4427 662.852 48.992V56.16C662.852 56.4027 662.74 56.608 662.516 56.776C662.31 56.9253 662.04 57 661.704 57C661.405 57 661.153 56.9253 660.948 56.776C660.742 56.608 660.64 56.4027 660.64 56.16V55.04C659.37 56.496 657.961 57.224 656.412 57.224C655.292 57.224 654.377 56.9067 653.668 56.272C652.977 55.6373 652.632 54.7133 652.632 53.5ZM654.984 53.248C654.984 53.9387 655.18 54.4613 655.572 54.816C655.964 55.1707 656.486 55.348 657.14 55.348C657.924 55.348 658.68 55.04 659.408 54.424C660.154 53.7893 660.528 53.1453 660.528 52.492V51.036H659.548C659.006 51.036 658.54 51.0547 658.148 51.092C657.756 51.1107 657.345 51.1667 656.916 51.26C656.505 51.3347 656.16 51.456 655.88 51.624C655.618 51.7733 655.404 51.988 655.236 52.268C655.068 52.5293 654.984 52.856 654.984 53.248ZM666.05 56.16V44.54C666.05 44.2973 666.153 44.1013 666.358 43.952C666.582 43.8027 666.862 43.728 667.198 43.728C667.478 43.728 667.721 43.812 667.926 43.98C668.15 44.1293 668.262 44.316 668.262 44.54V45.688C668.561 45.0907 669.037 44.5867 669.69 44.176C670.362 43.7653 671.137 43.56 672.014 43.56C673.34 43.56 674.488 44.092 675.458 45.156C676.448 46.2013 676.942 47.4613 676.942 48.936V56.16C676.942 56.4213 676.821 56.6267 676.578 56.776C676.354 56.9253 676.084 57 675.766 57C675.468 57 675.197 56.9253 674.954 56.776C674.73 56.6267 674.618 56.4213 674.618 56.16V48.936C674.618 48.096 674.301 47.34 673.666 46.668C673.032 45.996 672.285 45.66 671.426 45.66C670.624 45.66 669.914 45.968 669.298 46.584C668.682 47.1813 668.374 47.9653 668.374 48.936V56.16C668.374 56.3653 668.253 56.5613 668.01 56.748C667.768 56.916 667.497 57 667.198 57C666.881 57 666.61 56.916 666.386 56.748C666.162 56.58 666.05 56.384 666.05 56.16ZM680.076 52.772V38.352C680.076 38.128 680.198 37.9413 680.44 37.792C680.683 37.624 680.944 37.54 681.224 37.54C681.523 37.54 681.794 37.624 682.036 37.792C682.279 37.9413 682.4 38.128 682.4 38.352V43.728H685.928C686.134 43.728 686.302 43.8213 686.432 44.008C686.563 44.1947 686.628 44.4093 686.628 44.652C686.628 44.8947 686.563 45.1093 686.432 45.296C686.302 45.464 686.134 45.548 685.928 45.548H682.4V52.772C682.4 53.5747 682.568 54.144 682.904 54.48C683.259 54.7973 683.866 54.956 684.724 54.956H685.592C685.91 54.956 686.152 55.0587 686.32 55.264C686.507 55.4507 686.6 55.684 686.6 55.964C686.6 56.244 686.507 56.4867 686.32 56.692C686.134 56.8973 685.891 57 685.592 57H684.724C681.626 57 680.076 55.5907 680.076 52.772ZM689.052 56.16V36.532C689.052 36.2893 689.155 36.0933 689.36 35.944C689.584 35.7947 689.864 35.72 690.2 35.72C690.536 35.72 690.816 35.7947 691.04 35.944C691.264 36.0933 691.376 36.2893 691.376 36.532V56.16C691.376 56.3653 691.255 56.5613 691.012 56.748C690.788 56.916 690.518 57 690.2 57C689.883 57 689.612 56.916 689.388 56.748C689.164 56.58 689.052 56.384 689.052 56.16ZM693.609 44.68C693.609 44.3813 693.777 44.12 694.113 43.896C694.449 43.672 694.785 43.56 695.121 43.56C695.513 43.56 695.765 43.7187 695.877 44.036L699.573 53.78L702.905 44.036C703.036 43.7187 703.279 43.56 703.633 43.56C703.951 43.56 704.277 43.672 704.613 43.896C704.968 44.12 705.145 44.3907 705.145 44.708C705.145 44.8013 705.117 44.8947 705.061 44.988L700.805 56.384L700.273 57.784C700.18 58.0453 699.993 58.4933 699.713 59.128C699.433 59.7627 699.2 60.22 699.013 60.5C698.827 60.78 698.565 61.144 698.229 61.592C697.893 62.0587 697.567 62.3947 697.249 62.6C696.932 62.8053 696.549 62.992 696.101 63.16C695.672 63.328 695.215 63.412 694.729 63.412C694.001 63.412 693.637 63.0667 693.637 62.376C693.637 61.704 693.861 61.368 694.309 61.368C695.149 61.368 695.961 60.892 696.745 59.94C697.548 59.0067 698.089 57.8027 698.369 56.328L693.721 44.988C693.647 44.876 693.609 44.7733 693.609 44.68ZM705.821 55.712C705.821 55.3013 705.961 54.956 706.241 54.676C706.521 54.3773 706.866 54.228 707.277 54.228C707.669 54.228 708.005 54.3773 708.285 54.676C708.565 54.956 708.705 55.3013 708.705 55.712C708.705 56.104 708.565 56.4493 708.285 56.748C708.005 57.028 707.669 57.168 707.277 57.168C706.866 57.168 706.521 57.028 706.241 56.748C705.961 56.4493 705.821 56.104 705.821 55.712Z" fill="black"/>
</svg>
