<svg width="131" height="63" viewBox="0 0 131 63" fill="none" xmlns="http://www.w3.org/2000/svg">
<path d="M27.2443 30.1V9.94C27.2443 9.7 27.3343 9.5 27.5143 9.34C27.7143 9.16 27.9643 9.07 28.2643 9.07H33.9343C35.8543 9.07 37.3943 9.59 38.5543 10.63C39.7143 11.67 40.2943 13.31 40.2943 15.55V15.82C40.2943 18.06 39.7043 19.71 38.5243 20.77C37.3443 21.81 35.7743 22.33 33.8143 22.33H29.7643V30.1C29.7643 30.38 29.6343 30.6 29.3743 30.76C29.1343 30.92 28.8443 31 28.5043 31C28.1643 31 27.8643 30.92 27.6043 30.76C27.3643 30.6 27.2443 30.38 27.2443 30.1ZM29.7643 20.23H33.8143C35.0743 20.23 36.0443 19.88 36.7243 19.18C37.4243 18.46 37.7743 17.39 37.7743 15.97V15.61C37.7743 14.19 37.4243 13.13 36.7243 12.43C36.0443 11.71 35.0743 11.35 33.8143 11.35H29.7643V20.23ZM42.9689 30.1V9.07C42.9689 8.81 43.0789 8.6 43.2989 8.44C43.5389 8.28 43.8389 8.2 44.1989 8.2C44.5589 8.2 44.8589 8.28 45.0989 8.44C45.3389 8.6 45.4589 8.81 45.4589 9.07V18.88C45.7989 18.24 46.2989 17.7 46.9589 17.26C47.6389 16.82 48.4389 16.6 49.3589 16.6C50.7789 16.6 52.0089 17.17 53.0489 18.31C54.1089 19.43 54.6389 20.78 54.6389 22.36V30.1C54.6389 30.38 54.5089 30.6 54.2489 30.76C54.0089 30.92 53.7189 31 53.3789 31C53.0589 31 52.7689 30.92 52.5089 30.76C52.2689 30.6 52.1489 30.38 52.1489 30.1V22.36C52.1489 21.46 51.8089 20.65 51.1289 19.93C50.4489 19.21 49.6489 18.85 48.7289 18.85C47.8689 18.85 47.1089 19.18 46.4489 19.84C45.7889 20.48 45.4589 21.32 45.4589 22.36V30.1C45.4589 30.32 45.3289 30.53 45.0689 30.73C44.8289 30.91 44.5389 31 44.1989 31C43.8589 31 43.5689 30.91 43.3289 30.73C43.0889 30.55 42.9689 30.34 42.9689 30.1ZM57.5161 25.42V22.36C57.5161 20.82 58.0961 19.48 59.2561 18.34C60.4361 17.18 61.8261 16.6 63.4261 16.6C65.0261 16.6 66.4161 17.17 67.5961 18.31C68.7761 19.45 69.3661 20.8 69.3661 22.36V25.42C69.3661 26.94 68.7661 28.29 67.5661 29.47C66.3861 30.65 65.0061 31.24 63.4261 31.24C61.8461 31.24 60.4661 30.66 59.2861 29.5C58.1061 28.32 57.5161 26.96 57.5161 25.42ZM60.0061 25.42C60.0061 26.36 60.3461 27.19 61.0261 27.91C61.7061 28.63 62.5061 28.99 63.4261 28.99C64.3661 28.99 65.1761 28.63 65.8561 27.91C66.5361 27.17 66.8761 26.34 66.8761 25.42V22.36C66.8761 21.46 66.5361 20.65 65.8561 19.93C65.1761 19.21 64.3661 18.85 63.4261 18.85C62.4861 18.85 61.6761 19.21 60.9961 19.93C60.3361 20.65 60.0061 21.46 60.0061 22.36V25.42ZM72.353 30.1V17.65C72.353 17.39 72.463 17.18 72.683 17.02C72.923 16.86 73.223 16.78 73.583 16.78C73.883 16.78 74.143 16.87 74.363 17.05C74.603 17.21 74.723 17.41 74.723 17.65V18.88C75.043 18.24 75.553 17.7 76.253 17.26C76.973 16.82 77.803 16.6 78.743 16.6C80.163 16.6 81.393 17.17 82.433 18.31C83.493 19.43 84.023 20.78 84.023 22.36V30.1C84.023 30.38 83.893 30.6 83.633 30.76C83.393 30.92 83.103 31 82.763 31C82.443 31 82.153 30.92 81.893 30.76C81.653 30.6 81.533 30.38 81.533 30.1V22.36C81.533 21.46 81.193 20.65 80.513 19.93C79.833 19.21 79.033 18.85 78.113 18.85C77.253 18.85 76.493 19.18 75.833 19.84C75.173 20.48 74.843 21.32 74.843 22.36V30.1C74.843 30.32 74.713 30.53 74.453 30.73C74.193 30.91 73.903 31 73.583 31C73.243 31 72.953 30.91 72.713 30.73C72.473 30.55 72.353 30.34 72.353 30.1ZM86.9009 25.42V22.27C86.9009 20.73 87.4809 19.4 88.6409 18.28C89.8209 17.16 91.2309 16.6 92.8709 16.6C94.4309 16.6 95.7809 17.13 96.9209 18.19C98.0609 19.23 98.6309 20.54 98.6309 22.12C98.6309 22.7 98.5609 23.17 98.4209 23.53C98.2809 23.87 98.0609 24.12 97.7609 24.28C97.4809 24.42 97.2109 24.51 96.9509 24.55C96.7109 24.59 96.3809 24.61 95.9609 24.61H89.3909V25.51C89.3909 26.61 89.7809 27.49 90.5609 28.15C91.3609 28.81 92.3909 29.14 93.6509 29.14C94.3109 29.14 94.8809 29.04 95.3609 28.84C95.8609 28.64 96.2609 28.45 96.5609 28.27C96.8609 28.07 97.1009 27.97 97.2809 27.97C97.5609 27.97 97.8009 28.1 98.0009 28.36C98.2009 28.6 98.3009 28.85 98.3009 29.11C98.3009 29.57 97.8409 30.04 96.9209 30.52C96.0209 31 94.9009 31.24 93.5609 31.24C91.6009 31.24 90.0009 30.71 88.7609 29.65C87.5209 28.57 86.9009 27.16 86.9009 25.42ZM89.3909 22.93H94.9409C95.4609 22.93 95.8109 22.87 95.9909 22.75C96.1709 22.61 96.2609 22.35 96.2609 21.97C96.2609 21.07 95.9309 20.28 95.2709 19.6C94.6109 18.92 93.8009 18.58 92.8409 18.58C91.9009 18.58 91.0909 18.9 90.4109 19.54C89.7309 20.16 89.3909 20.93 89.3909 21.85V22.93ZM101.206 29.62C101.206 29.18 101.356 28.81 101.656 28.51C101.956 28.19 102.326 28.03 102.766 28.03C103.186 28.03 103.546 28.19 103.846 28.51C104.146 28.81 104.296 29.18 104.296 29.62C104.296 30.04 104.146 30.41 103.846 30.73C103.546 31.03 103.186 31.18 102.766 31.18C102.326 31.18 101.956 31.03 101.656 30.73C101.356 30.41 101.206 30.04 101.206 29.62ZM101.206 19.93C101.206 19.49 101.356 19.12 101.656 18.82C101.956 18.5 102.326 18.34 102.766 18.34C103.186 18.34 103.546 18.5 103.846 18.82C104.146 19.12 104.296 19.49 104.296 19.93C104.296 20.35 104.146 20.72 103.846 21.04C103.546 21.34 103.186 21.49 102.766 21.49C102.326 21.49 101.956 21.34 101.656 21.04C101.356 20.72 101.206 20.35 101.206 19.93Z" fill="#596F62"/>
<path d="M1.254 54.59V45.262C1.254 44.1033 1.67933 43.1207 2.53 42.314C3.38067 41.5073 4.378 41.104 5.522 41.104C6.12333 41.104 6.424 41.3753 6.424 41.918C6.424 42.1673 6.36533 42.3727 6.248 42.534C6.13067 42.6807 5.97667 42.754 5.786 42.754C4.97933 42.754 4.32667 43.0107 3.828 43.524C3.344 44.0227 3.102 44.602 3.102 45.262V54.59C3.102 55.3967 3.366 55.9687 3.894 56.306C4.422 56.6287 5.05267 56.79 5.786 56.79C6.21133 56.79 6.424 57.0687 6.424 57.626C6.424 58.1687 6.10867 58.44 5.478 58.44C4.29 58.44 3.28533 58.11 2.464 57.45C1.65733 56.7753 1.254 55.822 1.254 54.59ZM7.51455 57.34V55.206C7.51455 54.546 7.76388 53.9007 8.26255 53.27C8.77588 52.6247 9.39188 52.0453 10.1105 51.532L12.2445 49.948C12.9632 49.4347 13.5719 48.8627 14.0705 48.232C14.5839 47.5867 14.8405 46.934 14.8405 46.274C14.8405 45.57 14.6059 44.954 14.1365 44.426C13.6819 43.898 13.0219 43.634 12.1565 43.634C11.4232 43.634 10.8219 43.8393 10.3525 44.25C9.89788 44.6607 9.67055 45.2547 9.67055 46.032C9.67055 46.2227 9.58255 46.3913 9.40655 46.538C9.23055 46.6847 8.99588 46.758 8.70255 46.758C8.14521 46.758 7.86655 46.3987 7.86655 45.68C7.86655 44.58 8.27721 43.678 9.09855 42.974C9.93455 42.27 10.9539 41.918 12.1565 41.918C13.4472 41.918 14.5252 42.3287 15.3905 43.15C16.2559 43.9567 16.6885 44.976 16.6885 46.208C16.6885 46.9413 16.5052 47.6453 16.1385 48.32C15.7865 48.9947 15.3392 49.5667 14.7965 50.036C14.2685 50.5053 13.6892 50.9747 13.0585 51.444L11.2985 52.698C10.7705 53.0647 10.3232 53.468 9.95655 53.908C9.60455 54.348 9.42855 54.7807 9.42855 55.206V56.328H16.1825C16.3585 56.328 16.5052 56.4087 16.6225 56.57C16.7545 56.7313 16.8205 56.9293 16.8205 57.164C16.8205 57.384 16.7545 57.582 16.6225 57.758C16.5052 57.9193 16.3585 58 16.1825 58H8.35055C8.15988 58 7.96921 57.9413 7.77855 57.824C7.60255 57.692 7.51455 57.5307 7.51455 57.34ZM16.9108 53.578C16.9108 53.4167 16.9474 53.2773 17.0208 53.16L22.4548 42.446C22.6454 42.094 22.9241 41.918 23.2908 41.918C23.4961 41.918 23.6941 41.9913 23.8848 42.138C24.0901 42.27 24.1928 42.4387 24.1928 42.644C24.1928 42.7467 24.1634 42.8493 24.1048 42.952L19.2868 52.544H23.0928V48.848C23.0928 48.6427 23.1808 48.4887 23.3568 48.386C23.5474 48.2687 23.7674 48.21 24.0168 48.21C24.2661 48.21 24.4788 48.2687 24.6548 48.386C24.8454 48.4887 24.9408 48.6427 24.9408 48.848V52.544H26.1068C26.3121 52.544 26.4734 52.632 26.5908 52.808C26.7081 52.984 26.7668 53.1893 26.7668 53.424C26.7668 53.644 26.7008 53.8493 26.5688 54.04C26.4368 54.216 26.2828 54.304 26.1068 54.304H24.9408V57.34C24.9408 57.5453 24.8454 57.7067 24.6548 57.824C24.4788 57.9413 24.2661 58 24.0168 58C23.7674 58 23.5474 57.9413 23.3568 57.824C23.1808 57.7067 23.0928 57.5453 23.0928 57.34V54.304H17.5928C17.3874 54.304 17.2188 54.238 17.0868 54.106C16.9694 53.974 16.9108 53.798 16.9108 53.578ZM28.1299 53.336V46.714C28.1299 45.0567 28.5553 43.8467 29.4059 43.084C30.2713 42.3067 31.4226 41.918 32.8599 41.918C34.2973 41.918 35.4486 42.3067 36.3139 43.084C37.1793 43.8467 37.6119 45.0567 37.6119 46.714V53.336C37.6119 54.9933 37.1793 56.2107 36.3139 56.988C35.4486 57.7507 34.2973 58.132 32.8599 58.132C31.4226 58.132 30.2713 57.7507 29.4059 56.988C28.5553 56.2107 28.1299 54.9933 28.1299 53.336ZM29.9779 53.336C29.9779 55.4187 30.9386 56.46 32.8599 56.46C33.7839 56.46 34.4953 56.2033 34.9939 55.69C35.5073 55.162 35.7639 54.3773 35.7639 53.336V46.714C35.7639 45.6727 35.5073 44.8953 34.9939 44.382C34.4953 43.854 33.7839 43.59 32.8599 43.59C30.9386 43.59 29.9779 44.6313 29.9779 46.714V53.336ZM32.2439 50.674C32.0826 50.498 32.0019 50.2853 32.0019 50.036C32.0019 49.7867 32.0826 49.5813 32.2439 49.42C32.4053 49.2587 32.6179 49.178 32.8819 49.178C33.1313 49.178 33.3366 49.2587 33.4979 49.42C33.6593 49.5813 33.7399 49.7867 33.7399 50.036C33.7399 50.2853 33.6593 50.498 33.4979 50.674C33.3366 50.8353 33.1313 50.916 32.8819 50.916C32.6179 50.916 32.4053 50.8353 32.2439 50.674ZM38.7456 57.626C38.7456 57.0687 38.9583 56.79 39.3836 56.79C40.1169 56.79 40.7476 56.6287 41.2756 56.306C41.8036 55.9687 42.0676 55.3967 42.0676 54.59V45.262C42.0676 44.602 41.8183 44.0227 41.3196 43.524C40.8356 43.0107 40.1903 42.754 39.3836 42.754C39.1929 42.754 39.0389 42.6807 38.9216 42.534C38.8043 42.3727 38.7456 42.1673 38.7456 41.918C38.7456 41.3753 39.0463 41.104 39.6476 41.104C40.7916 41.104 41.7889 41.5073 42.6396 42.314C43.4903 43.1207 43.9156 44.1033 43.9156 45.262V54.59C43.9156 55.822 43.5049 56.7753 42.6836 57.45C41.8769 58.11 40.8723 58.44 39.6696 58.44C39.0536 58.44 38.7456 58.1687 38.7456 57.626ZM50.2685 57.34V55.206C50.2685 54.546 50.5178 53.9007 51.0165 53.27C51.5298 52.6247 52.1458 52.0453 52.8645 51.532L54.9985 49.948C55.7171 49.4347 56.3258 48.8627 56.8245 48.232C57.3378 47.5867 57.5945 46.934 57.5945 46.274C57.5945 45.57 57.3598 44.954 56.8905 44.426C56.4358 43.898 55.7758 43.634 54.9105 43.634C54.1771 43.634 53.5758 43.8393 53.1065 44.25C52.6518 44.6607 52.4245 45.2547 52.4245 46.032C52.4245 46.2227 52.3365 46.3913 52.1605 46.538C51.9845 46.6847 51.7498 46.758 51.4565 46.758C50.8991 46.758 50.6205 46.3987 50.6205 45.68C50.6205 44.58 51.0311 43.678 51.8525 42.974C52.6885 42.27 53.7078 41.918 54.9105 41.918C56.2011 41.918 57.2791 42.3287 58.1445 43.15C59.0098 43.9567 59.4425 44.976 59.4425 46.208C59.4425 46.9413 59.2591 47.6453 58.8925 48.32C58.5405 48.9947 58.0931 49.5667 57.5505 50.036C57.0225 50.5053 56.4431 50.9747 55.8125 51.444L54.0525 52.698C53.5245 53.0647 53.0771 53.468 52.7105 53.908C52.3585 54.348 52.1825 54.7807 52.1825 55.206V56.328H58.9365C59.1125 56.328 59.2591 56.4087 59.3765 56.57C59.5085 56.7313 59.5745 56.9293 59.5745 57.164C59.5745 57.384 59.5085 57.582 59.3765 57.758C59.2591 57.9193 59.1125 58 58.9365 58H51.1045C50.9138 58 50.7231 57.9413 50.5325 57.824C50.3565 57.692 50.2685 57.5307 50.2685 57.34ZM60.7707 54.326C60.7707 53.7393 61.0787 53.446 61.6947 53.446C62.3107 53.446 62.6187 53.6953 62.6187 54.194C62.6187 54.898 62.89 55.4553 63.4327 55.866C63.9754 56.262 64.6647 56.46 65.5007 56.46C66.4247 56.46 67.136 56.2033 67.6347 55.69C68.148 55.1767 68.4047 54.4067 68.4047 53.38V52.962C68.4047 51.9647 68.148 51.2167 67.6347 50.718C67.136 50.2047 66.432 49.948 65.5227 49.948H62.3987C61.8267 49.948 61.5407 49.706 61.5407 49.222C61.5407 49.0753 61.5554 48.914 61.5847 48.738L62.0467 42.578C62.076 42.138 62.2374 41.918 62.5307 41.918H68.8667C69.0574 41.918 69.204 42.006 69.3067 42.182C69.4094 42.3433 69.4607 42.534 69.4607 42.754C69.4607 42.974 69.4094 43.172 69.3067 43.348C69.204 43.5093 69.0574 43.59 68.8667 43.59H63.6527L63.3227 48.408H65.5227C66.96 48.408 68.104 48.7747 68.9547 49.508C69.82 50.2413 70.2527 51.3927 70.2527 52.962V53.38C70.2527 55.008 69.82 56.2107 68.9547 56.988C68.0894 57.7507 66.9454 58.132 65.5227 58.132C64.056 58.132 62.8974 57.7653 62.0467 57.032C61.196 56.284 60.7707 55.382 60.7707 54.326ZM71.4264 45.9V42.578C71.4264 42.4167 71.5144 42.27 71.6904 42.138C71.8664 41.9913 72.0571 41.918 72.2624 41.918H80.0724C80.2631 41.918 80.4464 41.9913 80.6224 42.138C80.8131 42.27 80.9084 42.4167 80.9084 42.578V44.624C80.9084 44.8733 80.8058 45.1887 80.6004 45.57L74.3524 57.736C74.2498 57.9413 74.0518 58.044 73.7584 58.044C73.4651 58.044 73.2011 57.9633 72.9664 57.802C72.7464 57.626 72.6364 57.4133 72.6364 57.164C72.6364 57.032 72.6658 56.9073 72.7244 56.79L79.0604 44.844V43.59H73.2744V45.9C73.2744 46.0907 73.1791 46.252 72.9884 46.384C72.8124 46.5013 72.5998 46.56 72.3504 46.56C72.1011 46.56 71.8811 46.5013 71.6904 46.384C71.5144 46.252 71.4264 46.0907 71.4264 45.9ZM82.2664 52.72C82.2664 52.5 82.3251 52.3167 82.4424 52.17C82.5598 52.0087 82.7138 51.928 82.9044 51.928H88.6244C88.8004 51.928 88.9544 52.0087 89.0864 52.17C89.2184 52.3167 89.2844 52.5 89.2844 52.72C89.2844 52.94 89.2184 53.1233 89.0864 53.27C88.9544 53.4167 88.8004 53.49 88.6244 53.49H82.9044C82.4791 53.49 82.2664 53.2333 82.2664 52.72ZM91.0243 57.34V55.206C91.0243 54.546 91.2736 53.9007 91.7723 53.27C92.2856 52.6247 92.9016 52.0453 93.6203 51.532L95.7543 49.948C96.473 49.4347 97.0816 48.8627 97.5803 48.232C98.0936 47.5867 98.3503 46.934 98.3503 46.274C98.3503 45.57 98.1156 44.954 97.6463 44.426C97.1916 43.898 96.5316 43.634 95.6663 43.634C94.933 43.634 94.3316 43.8393 93.8623 44.25C93.4076 44.6607 93.1803 45.2547 93.1803 46.032C93.1803 46.2227 93.0923 46.3913 92.9163 46.538C92.7403 46.6847 92.5056 46.758 92.2123 46.758C91.655 46.758 91.3763 46.3987 91.3763 45.68C91.3763 44.58 91.787 43.678 92.6083 42.974C93.4443 42.27 94.4636 41.918 95.6663 41.918C96.957 41.918 98.035 42.3287 98.9003 43.15C99.7656 43.9567 100.198 44.976 100.198 46.208C100.198 46.9413 100.015 47.6453 99.6483 48.32C99.2963 48.9947 98.849 49.5667 98.3063 50.036C97.7783 50.5053 97.199 50.9747 96.5683 51.444L94.8083 52.698C94.2803 53.0647 93.833 53.468 93.4663 53.908C93.1143 54.348 92.9383 54.7807 92.9383 55.206V56.328H99.6923C99.8683 56.328 100.015 56.4087 100.132 56.57C100.264 56.7313 100.33 56.9293 100.33 57.164C100.33 57.384 100.264 57.582 100.132 57.758C100.015 57.9193 99.8683 58 99.6923 58H91.8603C91.6696 58 91.479 57.9413 91.2883 57.824C91.1123 57.692 91.0243 57.5307 91.0243 57.34ZM101.505 45.9V42.578C101.505 42.4167 101.593 42.27 101.769 42.138C101.945 41.9913 102.135 41.918 102.341 41.918H110.151C110.341 41.918 110.525 41.9913 110.701 42.138C110.891 42.27 110.987 42.4167 110.987 42.578V44.624C110.987 44.8733 110.884 45.1887 110.679 45.57L104.431 57.736C104.328 57.9413 104.13 58.044 103.837 58.044C103.543 58.044 103.279 57.9633 103.045 57.802C102.825 57.626 102.715 57.4133 102.715 57.164C102.715 57.032 102.744 56.9073 102.803 56.79L109.139 44.844V43.59H103.353V45.9C103.353 46.0907 103.257 46.252 103.067 46.384C102.891 46.5013 102.678 46.56 102.429 46.56C102.179 46.56 101.959 46.5013 101.769 46.384C101.593 46.252 101.505 46.0907 101.505 45.9ZM110.26 53.578C110.26 53.4167 110.297 53.2773 110.37 53.16L115.804 42.446C115.995 42.094 116.274 41.918 116.64 41.918C116.846 41.918 117.044 41.9913 117.234 42.138C117.44 42.27 117.542 42.4387 117.542 42.644C117.542 42.7467 117.513 42.8493 117.454 42.952L112.636 52.544H116.442V48.848C116.442 48.6427 116.53 48.4887 116.706 48.386C116.897 48.2687 117.117 48.21 117.366 48.21C117.616 48.21 117.828 48.2687 118.004 48.386C118.195 48.4887 118.29 48.6427 118.29 48.848V52.544H119.456C119.662 52.544 119.823 52.632 119.94 52.808C120.058 52.984 120.116 53.1893 120.116 53.424C120.116 53.644 120.05 53.8493 119.918 54.04C119.786 54.216 119.632 54.304 119.456 54.304H118.29V57.34C118.29 57.5453 118.195 57.7067 118.004 57.824C117.828 57.9413 117.616 58 117.366 58C117.117 58 116.897 57.9413 116.706 57.824C116.53 57.7067 116.442 57.5453 116.442 57.34V54.304H110.942C110.737 54.304 110.568 54.238 110.436 54.106C110.319 53.974 110.26 53.798 110.26 53.578ZM120.723 53.578C120.723 53.4167 120.76 53.2773 120.833 53.16L126.267 42.446C126.458 42.094 126.737 41.918 127.103 41.918C127.309 41.918 127.507 41.9913 127.697 42.138C127.903 42.27 128.005 42.4387 128.005 42.644C128.005 42.7467 127.976 42.8493 127.917 42.952L123.099 52.544H126.905V48.848C126.905 48.6427 126.993 48.4887 127.169 48.386C127.36 48.2687 127.58 48.21 127.829 48.21C128.079 48.21 128.291 48.2687 128.467 48.386C128.658 48.4887 128.753 48.6427 128.753 48.848V52.544H129.919C130.125 52.544 130.286 52.632 130.403 52.808C130.521 52.984 130.579 53.1893 130.579 53.424C130.579 53.644 130.513 53.8493 130.381 54.04C130.249 54.216 130.095 54.304 129.919 54.304H128.753V57.34C128.753 57.5453 128.658 57.7067 128.467 57.824C128.291 57.9413 128.079 58 127.829 58C127.58 58 127.36 57.9413 127.169 57.824C126.993 57.7067 126.905 57.5453 126.905 57.34V54.304H121.405C121.2 54.304 121.031 54.238 120.899 54.106C120.782 53.974 120.723 53.798 120.723 53.578Z" fill="black"/>
</svg>
