<svg width="170" height="44" viewBox="0 0 170 44" fill="none" xmlns="http://www.w3.org/2000/svg">
<path d="M1.1635 16.405V5.151C1.1635 4.99233 1.22584 4.85633 1.3505 4.743C1.4865 4.62967 1.6565 4.573 1.8605 4.573H5.1755C6.30884 4.573 7.20984 4.87333 7.8785 5.474C8.5585 6.07467 8.8985 7.021 8.8985 8.313V8.449C8.8985 9.741 8.54717 10.693 7.8445 11.305C7.15317 11.9057 6.2295 12.206 5.0735 12.206H2.9655V16.405C2.9655 16.5863 2.87484 16.7337 2.6935 16.847C2.5235 16.949 2.31384 17 2.0645 17C1.8265 17 1.61684 16.949 1.4355 16.847C1.25417 16.7337 1.1635 16.5863 1.1635 16.405ZM2.9655 10.778H5.0735C5.7195 10.778 6.21817 10.5967 6.5695 10.234C6.92084 9.86 7.0965 9.30467 7.0965 8.568V8.364C7.0965 7.62733 6.92084 7.07767 6.5695 6.715C6.21817 6.35233 5.7195 6.171 5.0735 6.171H2.9655V10.778ZM10.124 16.405V9.52C10.124 9.35 10.2033 9.214 10.362 9.112C10.532 8.99867 10.7416 8.942 10.991 8.942C11.2176 8.942 11.4103 8.99867 11.569 9.112C11.7276 9.214 11.807 9.35 11.807 9.52V10.268C11.9996 9.87133 12.2886 9.537 12.674 9.265C13.0706 8.98167 13.5013 8.84 13.966 8.84H14.51C14.6913 8.84 14.85 8.91933 14.986 9.078C15.122 9.22533 15.19 9.40667 15.19 9.622C15.19 9.83733 15.122 10.0243 14.986 10.183C14.85 10.3417 14.6913 10.421 14.51 10.421H13.966C13.422 10.421 12.9403 10.6533 12.521 11.118C12.113 11.5827 11.909 12.1833 11.909 12.92V16.405C11.909 16.5523 11.8183 16.6883 11.637 16.813C11.4556 16.9377 11.2403 17 10.991 17C10.7416 17 10.532 16.9377 10.362 16.813C10.2033 16.6883 10.124 16.5523 10.124 16.405ZM16.0969 5.984C16.0969 5.72333 16.1989 5.50233 16.4029 5.321C16.6069 5.13967 16.8506 5.049 17.1339 5.049C17.4173 5.049 17.6609 5.13967 17.8649 5.321C18.0689 5.50233 18.1709 5.72333 18.1709 5.984C18.1709 6.23333 18.0689 6.45433 17.8649 6.647C17.6609 6.82833 17.4173 6.919 17.1339 6.919C16.8506 6.919 16.6069 6.82833 16.4029 6.647C16.1989 6.45433 16.0969 6.23333 16.0969 5.984ZM16.2499 16.405V9.52C16.2499 9.35 16.3293 9.214 16.4879 9.112C16.6579 8.99867 16.8733 8.942 17.1339 8.942C17.3946 8.942 17.6099 8.99867 17.7799 9.112C17.9499 9.214 18.0349 9.35 18.0349 9.52V16.405C18.0349 16.5523 17.9443 16.6883 17.7629 16.813C17.5929 16.9377 17.3833 17 17.1339 17C16.8846 17 16.6749 16.9377 16.5049 16.813C16.3349 16.6883 16.2499 16.5523 16.2499 16.405ZM19.1203 9.639C19.1203 9.435 19.2506 9.25933 19.5113 9.112C19.772 8.95333 20.0326 8.874 20.2933 8.874C20.5766 8.874 20.758 8.98167 20.8373 9.197L22.8603 14.569L24.8833 9.231C24.974 8.993 25.1553 8.874 25.4273 8.874C25.6426 8.874 25.892 8.95333 26.1753 9.112C26.4586 9.27067 26.6003 9.44633 26.6003 9.639C26.6003 9.71833 26.5776 9.81467 26.5323 9.928L23.6763 16.813C23.5743 17.051 23.3023 17.17 22.8603 17.17C22.4183 17.17 22.1463 17.051 22.0443 16.813L19.2053 9.928C19.1486 9.81467 19.1203 9.71833 19.1203 9.639ZM27.195 14.892C27.195 13.9853 27.535 13.3563 28.215 13.005C28.895 12.6423 29.881 12.461 31.173 12.461H31.921V12.155C31.921 11.6563 31.7794 11.2257 31.496 10.863C31.224 10.5003 30.8047 10.319 30.238 10.319C29.7507 10.319 29.32 10.404 28.946 10.574C28.5834 10.744 28.385 10.829 28.351 10.829C28.1584 10.829 27.9997 10.7383 27.875 10.557C27.7617 10.3643 27.705 10.1547 27.705 9.928C27.705 9.63333 27.977 9.37833 28.521 9.163C29.0764 8.94767 29.66 8.84 30.272 8.84C31.4394 8.84 32.3007 9.15733 32.856 9.792C33.4227 10.4153 33.706 11.1973 33.706 12.138V16.405C33.706 16.5637 33.621 16.7053 33.451 16.83C33.2924 16.9433 33.0884 17 32.839 17C32.6124 17 32.4197 16.9433 32.261 16.83C32.1024 16.7053 32.023 16.5637 32.023 16.405V15.81C31.2637 16.694 30.408 17.136 29.456 17.136C28.7987 17.136 28.2547 16.9433 27.824 16.558C27.4047 16.1727 27.195 15.6173 27.195 14.892ZM28.997 14.671C28.997 15.0337 29.099 15.3113 29.303 15.504C29.507 15.6853 29.7734 15.776 30.102 15.776C30.5327 15.776 30.9407 15.5947 31.326 15.232C31.7227 14.8693 31.921 14.484 31.921 14.076V13.447H31.496C30.986 13.447 30.5667 13.4697 30.238 13.515C29.9207 13.5603 29.6317 13.6793 29.371 13.872C29.1217 14.0647 28.997 14.331 28.997 14.671ZM35.5074 14.348V5.831C35.5074 5.67233 35.598 5.53633 35.7794 5.423C35.9607 5.30967 36.1647 5.253 36.3914 5.253C36.618 5.253 36.822 5.30967 37.0034 5.423C37.196 5.53633 37.2924 5.67233 37.2924 5.831V8.942H39.3664C39.5137 8.942 39.6327 9.01 39.7234 9.146C39.814 9.27067 39.8594 9.42367 39.8594 9.605C39.8594 9.78633 39.814 9.945 39.7234 10.081C39.6327 10.2057 39.5137 10.268 39.3664 10.268H37.2924V14.348C37.2924 14.756 37.3774 15.045 37.5474 15.215C37.7287 15.385 38.0404 15.47 38.4824 15.47H39.0774C39.3154 15.47 39.5024 15.5437 39.6384 15.691C39.7744 15.8383 39.8424 16.0197 39.8424 16.235C39.8424 16.4503 39.7744 16.6317 39.6384 16.779C39.5024 16.9263 39.3154 17 39.0774 17H38.4824C36.499 17 35.5074 16.116 35.5074 14.348ZM40.6969 13.753V12.138C40.6969 11.2427 41.0425 10.472 41.7339 9.826C42.4252 9.16867 43.2582 8.84 44.2329 8.84C45.1622 8.84 45.9555 9.14033 46.6129 9.741C47.2815 10.3303 47.6159 11.0783 47.6159 11.985C47.6159 12.325 47.5762 12.6027 47.4969 12.818C47.4175 13.022 47.2929 13.1693 47.1229 13.26C46.9529 13.3393 46.7942 13.3903 46.6469 13.413C46.4995 13.4357 46.3069 13.447 46.0689 13.447H42.4819V13.838C42.4819 14.4047 42.6859 14.858 43.0939 15.198C43.5019 15.5267 44.0345 15.691 44.6919 15.691C45.1565 15.691 45.5929 15.5833 46.0009 15.368C46.4202 15.1527 46.6752 15.045 46.7659 15.045C46.9585 15.045 47.1229 15.1357 47.2589 15.317C47.3949 15.4983 47.4629 15.674 47.4629 15.844C47.4629 16.1273 47.1909 16.4163 46.6469 16.711C46.1029 16.9943 45.4342 17.136 44.6409 17.136C43.4849 17.136 42.5385 16.8243 41.8019 16.201C41.0652 15.5777 40.6969 14.7617 40.6969 13.753ZM42.4819 12.342H45.3039C45.5532 12.342 45.7175 12.308 45.7969 12.24C45.8875 12.172 45.9329 12.036 45.9329 11.832C45.9329 11.3787 45.7685 10.9933 45.4399 10.676C45.1112 10.3587 44.7032 10.2 44.2159 10.2C43.7399 10.2 43.3319 10.353 42.9919 10.659C42.6519 10.9537 42.4819 11.3333 42.4819 11.798V12.342ZM51.7609 16.252C51.7609 16.184 51.7666 16.133 51.7779 16.099L55.1609 5.083C55.2969 4.675 55.6766 4.471 56.2999 4.471C56.9346 4.471 57.3199 4.675 57.4559 5.083L60.822 16.099C60.8446 16.167 60.8559 16.218 60.8559 16.252C60.8559 16.456 60.7313 16.6317 60.4819 16.779C60.2439 16.9263 59.9889 17 59.7169 17C59.3883 17 59.1843 16.8753 59.1049 16.626L58.4079 14.212H54.2089L53.5119 16.626C53.4326 16.8753 53.2229 17 52.8829 17C52.6109 17 52.3559 16.9263 52.1179 16.779C51.8799 16.6317 51.7609 16.456 51.7609 16.252ZM54.5999 12.767H57.9999L56.2999 6.936L54.5999 12.767ZM61.6978 13.753V12.189C61.6978 11.271 61.9925 10.4833 62.5818 9.826C63.1825 9.16867 63.9022 8.84 64.7408 8.84C65.2395 8.84 65.6815 8.96467 66.0668 9.214C66.4522 9.46333 66.7468 9.76933 66.9508 10.132V4.726C66.9508 4.556 67.0358 4.42 67.2058 4.318C67.3758 4.20467 67.5912 4.148 67.8518 4.148C68.1125 4.148 68.3222 4.20467 68.4808 4.318C68.6508 4.42 68.7358 4.556 68.7358 4.726V16.405C68.7358 16.5523 68.6508 16.6883 68.4808 16.813C68.3108 16.9377 68.1012 17 67.8518 17C67.6365 17 67.4438 16.9377 67.2738 16.813C67.1152 16.6883 67.0358 16.5523 67.0358 16.405V15.81C66.8545 16.1727 66.5428 16.4843 66.1008 16.745C65.6702 17.0057 65.1998 17.136 64.6898 17.136C63.8965 17.136 63.1995 16.796 62.5988 16.116C61.9982 15.4247 61.6978 14.637 61.6978 13.753ZM63.4828 13.753C63.4828 14.2177 63.6528 14.637 63.9928 15.011C64.3328 15.3737 64.7352 15.555 65.1998 15.555C65.6418 15.555 66.0442 15.385 66.4068 15.045C66.7695 14.6937 66.9508 14.3933 66.9508 14.144V12.189C66.9508 11.6677 66.7752 11.2427 66.4238 10.914C66.0725 10.5853 65.6702 10.421 65.2168 10.421C64.7522 10.421 64.3442 10.6023 63.9928 10.965C63.6528 11.3277 63.4828 11.7357 63.4828 12.189V13.753ZM69.8381 9.639C69.8381 9.435 69.9684 9.25933 70.2291 9.112C70.4897 8.95333 70.7504 8.874 71.0111 8.874C71.2944 8.874 71.4757 8.98167 71.5551 9.197L73.5781 14.569L75.6011 9.231C75.6917 8.993 75.8731 8.874 76.1451 8.874C76.3604 8.874 76.6097 8.95333 76.8931 9.112C77.1764 9.27067 77.3181 9.44633 77.3181 9.639C77.3181 9.71833 77.2954 9.81467 77.2501 9.928L74.3941 16.813C74.2921 17.051 74.0201 17.17 73.5781 17.17C73.1361 17.17 72.8641 17.051 72.7621 16.813L69.9231 9.928C69.8664 9.81467 69.8381 9.71833 69.8381 9.639ZM77.9128 14.892C77.9128 13.9853 78.2528 13.3563 78.9328 13.005C79.6128 12.6423 80.5988 12.461 81.8908 12.461H82.6388V12.155C82.6388 11.6563 82.4971 11.2257 82.2138 10.863C81.9418 10.5003 81.5225 10.319 80.9558 10.319C80.4685 10.319 80.0378 10.404 79.6638 10.574C79.3011 10.744 79.1028 10.829 79.0688 10.829C78.8761 10.829 78.7175 10.7383 78.5928 10.557C78.4795 10.3643 78.4228 10.1547 78.4228 9.928C78.4228 9.63333 78.6948 9.37833 79.2388 9.163C79.7941 8.94767 80.3778 8.84 80.9898 8.84C82.1571 8.84 83.0185 9.15733 83.5738 9.792C84.1405 10.4153 84.4238 11.1973 84.4238 12.138V16.405C84.4238 16.5637 84.3388 16.7053 84.1688 16.83C84.0101 16.9433 83.8061 17 83.5568 17C83.3301 17 83.1375 16.9433 82.9788 16.83C82.8201 16.7053 82.7408 16.5637 82.7408 16.405V15.81C81.9815 16.694 81.1258 17.136 80.1738 17.136C79.5165 17.136 78.9725 16.9433 78.5418 16.558C78.1225 16.1727 77.9128 15.6173 77.9128 14.892ZM79.7148 14.671C79.7148 15.0337 79.8168 15.3113 80.0208 15.504C80.2248 15.6853 80.4911 15.776 80.8198 15.776C81.2505 15.776 81.6585 15.5947 82.0438 15.232C82.4405 14.8693 82.6388 14.484 82.6388 14.076V13.447H82.2138C81.7038 13.447 81.2845 13.4697 80.9558 13.515C80.6385 13.5603 80.3495 13.6793 80.0888 13.872C79.8395 14.0647 79.7148 14.331 79.7148 14.671ZM86.2421 16.405V9.52C86.2421 9.35 86.3215 9.214 86.4801 9.112C86.6501 8.99867 86.8655 8.942 87.1261 8.942C87.3528 8.942 87.5398 8.99867 87.6871 9.112C87.8458 9.214 87.9251 9.35 87.9251 9.52V10.132C88.1065 9.76933 88.3955 9.46333 88.7921 9.214C89.2001 8.96467 89.6705 8.84 90.2031 8.84C91.0078 8.84 91.6991 9.16867 92.2771 9.826C92.8665 10.4833 93.1611 11.271 93.1611 12.189V16.405C93.1611 16.5863 93.0705 16.7337 92.8891 16.847C92.7191 16.949 92.5095 17 92.2601 17C92.0335 17 91.8295 16.949 91.6481 16.847C91.4668 16.7337 91.3761 16.5863 91.3761 16.405V12.189C91.3761 11.7357 91.2061 11.3277 90.8661 10.965C90.5261 10.6023 90.1238 10.421 89.6591 10.421C89.2285 10.421 88.8488 10.5853 88.5201 10.914C88.1915 11.2313 88.0271 11.6563 88.0271 12.189V16.405C88.0271 16.5523 87.9365 16.6883 87.7551 16.813C87.5738 16.9377 87.3641 17 87.1261 17C86.8768 17 86.6671 16.9377 86.4971 16.813C86.3271 16.6883 86.2421 16.5523 86.2421 16.405ZM94.6859 13.753V12.223C94.6859 11.2143 94.9806 10.3983 95.5699 9.775C96.1593 9.15167 97.0376 8.84 98.2049 8.84C98.9416 8.84 99.5593 8.97033 100.058 9.231C100.557 9.48033 100.806 9.76367 100.806 10.081C100.806 10.2737 100.732 10.4663 100.585 10.659C100.449 10.8517 100.285 10.948 100.092 10.948C100.035 10.948 99.8313 10.863 99.4799 10.693C99.1399 10.5117 98.7603 10.421 98.3409 10.421C97.0943 10.421 96.4709 11.0217 96.4709 12.223V13.753C96.4709 14.9543 97.0999 15.555 98.3579 15.555C98.7886 15.555 99.1739 15.4643 99.5139 15.283C99.8653 15.0903 100.075 14.994 100.143 14.994C100.37 14.994 100.551 15.0847 100.687 15.266C100.834 15.4473 100.908 15.64 100.908 15.844C100.908 16.1613 100.647 16.456 100.126 16.728C99.6046 17 98.9699 17.136 98.2219 17.136C97.0433 17.136 96.1593 16.83 95.5699 16.218C94.9806 15.5947 94.6859 14.773 94.6859 13.753ZM101.807 13.753V12.138C101.807 11.2427 102.153 10.472 102.844 9.826C103.536 9.16867 104.369 8.84 105.343 8.84C106.273 8.84 107.066 9.14033 107.723 9.741C108.392 10.3303 108.726 11.0783 108.726 11.985C108.726 12.325 108.687 12.6027 108.607 12.818C108.528 13.022 108.403 13.1693 108.233 13.26C108.063 13.3393 107.905 13.3903 107.757 13.413C107.61 13.4357 107.417 13.447 107.179 13.447H103.592V13.838C103.592 14.4047 103.796 14.858 104.204 15.198C104.612 15.5267 105.145 15.691 105.802 15.691C106.267 15.691 106.703 15.5833 107.111 15.368C107.531 15.1527 107.786 15.045 107.876 15.045C108.069 15.045 108.233 15.1357 108.369 15.317C108.505 15.4983 108.573 15.674 108.573 15.844C108.573 16.1273 108.301 16.4163 107.757 16.711C107.213 16.9943 106.545 17.136 105.751 17.136C104.595 17.136 103.649 16.8243 102.912 16.201C102.176 15.5777 101.807 14.7617 101.807 13.753ZM103.592 12.342H106.414C106.664 12.342 106.828 12.308 106.907 12.24C106.998 12.172 107.043 12.036 107.043 11.832C107.043 11.3787 106.879 10.9933 106.55 10.676C106.222 10.3587 105.814 10.2 105.326 10.2C104.85 10.2 104.442 10.353 104.102 10.659C103.762 10.9537 103.592 11.3333 103.592 11.798V12.342ZM113.755 16.405V5.151C113.755 4.95833 113.84 4.81667 114.01 4.726C114.192 4.624 114.407 4.573 114.656 4.573C114.906 4.573 115.115 4.624 115.285 4.726C115.467 4.81667 115.557 4.95833 115.557 5.151V15.402H119.977C120.147 15.402 120.278 15.4813 120.368 15.64C120.47 15.7987 120.521 15.9857 120.521 16.201C120.521 16.4163 120.47 16.6033 120.368 16.762C120.278 16.9207 120.147 17 119.977 17H114.554C114.339 17 114.152 16.949 113.993 16.847C113.835 16.7337 113.755 16.5863 113.755 16.405ZM121.198 13.753V12.138C121.198 11.2427 121.544 10.472 122.235 9.826C122.926 9.16867 123.759 8.84 124.734 8.84C125.663 8.84 126.457 9.14033 127.114 9.741C127.783 10.3303 128.117 11.0783 128.117 11.985C128.117 12.325 128.077 12.6027 127.998 12.818C127.919 13.022 127.794 13.1693 127.624 13.26C127.454 13.3393 127.295 13.3903 127.148 13.413C127.001 13.4357 126.808 13.447 126.57 13.447H122.983V13.838C122.983 14.4047 123.187 14.858 123.595 15.198C124.003 15.5267 124.536 15.691 125.193 15.691C125.658 15.691 126.094 15.5833 126.502 15.368C126.921 15.1527 127.176 15.045 127.267 15.045C127.46 15.045 127.624 15.1357 127.76 15.317C127.896 15.4983 127.964 15.674 127.964 15.844C127.964 16.1273 127.692 16.4163 127.148 16.711C126.604 16.9943 125.935 17.136 125.142 17.136C123.986 17.136 123.04 16.8243 122.303 16.201C121.566 15.5777 121.198 14.7617 121.198 13.753ZM122.983 12.342H125.805C126.054 12.342 126.219 12.308 126.298 12.24C126.389 12.172 126.434 12.036 126.434 11.832C126.434 11.3787 126.27 10.9933 125.941 10.676C125.612 10.3587 125.204 10.2 124.717 10.2C124.241 10.2 123.833 10.353 123.493 10.659C123.153 10.9537 122.983 11.3333 122.983 11.798V12.342ZM129.08 15.776C129.08 15.606 129.136 15.4303 129.25 15.249C129.374 15.0677 129.522 14.977 129.692 14.977C129.794 14.977 129.935 15.045 130.117 15.181C130.298 15.3057 130.542 15.436 130.848 15.572C131.154 15.6967 131.522 15.759 131.953 15.759C132.916 15.759 133.398 15.453 133.398 14.841C133.398 14.5123 133.256 14.2573 132.973 14.076C132.689 13.8833 132.344 13.736 131.936 13.634C131.539 13.5207 131.142 13.396 130.746 13.26C130.349 13.124 130.009 12.8917 129.726 12.563C129.442 12.2343 129.301 11.8093 129.301 11.288C129.301 10.6193 129.539 10.047 130.015 9.571C130.491 9.08367 131.222 8.84 132.208 8.84C132.854 8.84 133.437 8.942 133.959 9.146C134.491 9.33867 134.758 9.571 134.758 9.843C134.758 10.0017 134.69 10.1887 134.554 10.404C134.429 10.608 134.27 10.71 134.078 10.71C134.01 10.71 133.777 10.6307 133.381 10.472C132.984 10.302 132.604 10.217 132.242 10.217C131.788 10.217 131.443 10.319 131.205 10.523C130.978 10.727 130.865 10.9537 130.865 11.203C130.865 11.475 131.006 11.6903 131.29 11.849C131.573 12.0077 131.919 12.138 132.327 12.24C132.735 12.342 133.137 12.4667 133.534 12.614C133.942 12.7613 134.287 13.0163 134.571 13.379C134.854 13.7417 134.996 14.2063 134.996 14.773C134.996 15.5097 134.735 16.0877 134.214 16.507C133.692 16.9263 132.956 17.136 132.004 17.136C131.199 17.136 130.508 16.9943 129.93 16.711C129.363 16.4277 129.08 16.116 129.08 15.776ZM135.953 15.776C135.953 15.606 136.009 15.4303 136.123 15.249C136.247 15.0677 136.395 14.977 136.565 14.977C136.667 14.977 136.808 15.045 136.99 15.181C137.171 15.3057 137.415 15.436 137.721 15.572C138.027 15.6967 138.395 15.759 138.826 15.759C139.789 15.759 140.271 15.453 140.271 14.841C140.271 14.5123 140.129 14.2573 139.846 14.076C139.562 13.8833 139.217 13.736 138.809 13.634C138.412 13.5207 138.015 13.396 137.619 13.26C137.222 13.124 136.882 12.8917 136.599 12.563C136.315 12.2343 136.174 11.8093 136.174 11.288C136.174 10.6193 136.412 10.047 136.888 9.571C137.364 9.08367 138.095 8.84 139.081 8.84C139.727 8.84 140.31 8.942 140.832 9.146C141.364 9.33867 141.631 9.571 141.631 9.843C141.631 10.0017 141.563 10.1887 141.427 10.404C141.302 10.608 141.143 10.71 140.951 10.71C140.883 10.71 140.65 10.6307 140.254 10.472C139.857 10.302 139.477 10.217 139.115 10.217C138.661 10.217 138.316 10.319 138.078 10.523C137.851 10.727 137.738 10.9537 137.738 11.203C137.738 11.475 137.879 11.6903 138.163 11.849C138.446 12.0077 138.792 12.138 139.2 12.24C139.608 12.342 140.01 12.4667 140.407 12.614C140.815 12.7613 141.16 13.0163 141.444 13.379C141.727 13.7417 141.869 14.2063 141.869 14.773C141.869 15.5097 141.608 16.0877 141.087 16.507C140.565 16.9263 139.829 17.136 138.877 17.136C138.072 17.136 137.381 16.9943 136.803 16.711C136.236 16.4277 135.953 16.116 135.953 15.776ZM142.979 13.753V12.189C142.979 11.2937 143.324 10.5117 144.016 9.843C144.707 9.17433 145.534 8.84 146.498 8.84C147.438 8.84 148.26 9.17433 148.963 9.843C149.665 10.5003 150.017 11.2823 150.017 12.189V13.753C150.017 14.637 149.66 15.4247 148.946 16.116C148.243 16.796 147.427 17.136 146.498 17.136C145.557 17.136 144.735 16.796 144.033 16.116C143.33 15.436 142.979 14.6483 142.979 13.753ZM144.764 13.753C144.764 14.2177 144.934 14.637 145.274 15.011C145.614 15.3737 146.022 15.555 146.498 15.555C146.962 15.555 147.365 15.3737 147.705 15.011C148.056 14.637 148.232 14.2177 148.232 13.753V12.189C148.232 11.7357 148.056 11.3277 147.705 10.965C147.365 10.6023 146.962 10.421 146.498 10.421C146.022 10.421 145.614 10.6023 145.274 10.965C144.934 11.3277 144.764 11.7357 144.764 12.189V13.753ZM151.586 16.405V9.52C151.586 9.35 151.665 9.214 151.824 9.112C151.994 8.99867 152.209 8.942 152.47 8.942C152.697 8.942 152.884 8.99867 153.031 9.112C153.19 9.214 153.269 9.35 153.269 9.52V10.132C153.45 9.76933 153.739 9.46333 154.136 9.214C154.544 8.96467 155.014 8.84 155.547 8.84C156.352 8.84 157.043 9.16867 157.621 9.826C158.21 10.4833 158.505 11.271 158.505 12.189V16.405C158.505 16.5863 158.414 16.7337 158.233 16.847C158.063 16.949 157.853 17 157.604 17C157.377 17 157.173 16.949 156.992 16.847C156.811 16.7337 156.72 16.5863 156.72 16.405V12.189C156.72 11.7357 156.55 11.3277 156.21 10.965C155.87 10.6023 155.468 10.421 155.003 10.421C154.572 10.421 154.193 10.5853 153.864 10.914C153.535 11.2313 153.371 11.6563 153.371 12.189V16.405C153.371 16.5523 153.28 16.6883 153.099 16.813C152.918 16.9377 152.708 17 152.47 17C152.221 17 152.011 16.9377 151.841 16.813C151.671 16.6883 151.586 16.5523 151.586 16.405ZM159.826 15.776C159.826 15.606 159.882 15.4303 159.996 15.249C160.12 15.0677 160.268 14.977 160.438 14.977C160.54 14.977 160.681 15.045 160.863 15.181C161.044 15.3057 161.288 15.436 161.594 15.572C161.9 15.6967 162.268 15.759 162.699 15.759C163.662 15.759 164.144 15.453 164.144 14.841C164.144 14.5123 164.002 14.2573 163.719 14.076C163.435 13.8833 163.09 13.736 162.682 13.634C162.285 13.5207 161.888 13.396 161.492 13.26C161.095 13.124 160.755 12.8917 160.472 12.563C160.188 12.2343 160.047 11.8093 160.047 11.288C160.047 10.6193 160.285 10.047 160.761 9.571C161.237 9.08367 161.968 8.84 162.954 8.84C163.6 8.84 164.183 8.942 164.705 9.146C165.237 9.33867 165.504 9.571 165.504 9.843C165.504 10.0017 165.436 10.1887 165.3 10.404C165.175 10.608 165.016 10.71 164.824 10.71C164.756 10.71 164.523 10.6307 164.127 10.472C163.73 10.302 163.35 10.217 162.988 10.217C162.534 10.217 162.189 10.319 161.951 10.523C161.724 10.727 161.611 10.9537 161.611 11.203C161.611 11.475 161.752 11.6903 162.036 11.849C162.319 12.0077 162.665 12.138 163.073 12.24C163.481 12.342 163.883 12.4667 164.28 12.614C164.688 12.7613 165.033 13.0163 165.317 13.379C165.6 13.7417 165.742 14.2063 165.742 14.773C165.742 15.5097 165.481 16.0877 164.96 16.507C164.438 16.9263 163.702 17.136 162.75 17.136C161.945 17.136 161.254 16.9943 160.676 16.711C160.109 16.4277 159.826 16.116 159.826 15.776ZM167.379 16.813C167.186 16.609 167.09 16.3653 167.09 16.082C167.09 15.7987 167.186 15.5607 167.379 15.368C167.571 15.164 167.815 15.062 168.11 15.062C168.382 15.062 168.614 15.164 168.807 15.368C169.011 15.5607 169.113 15.7987 169.113 16.082C169.113 16.354 169.011 16.592 168.807 16.796C168.614 17 168.382 17.102 168.11 17.102C167.815 17.102 167.571 17.0057 167.379 16.813ZM167.379 11.577C167.186 11.373 167.09 11.1293 167.09 10.846C167.09 10.5627 167.186 10.3247 167.379 10.132C167.571 9.928 167.815 9.826 168.11 9.826C168.382 9.826 168.614 9.928 168.807 10.132C169.011 10.3247 169.113 10.5627 169.113 10.846C169.113 11.118 169.011 11.356 168.807 11.56C168.614 11.764 168.382 11.866 168.11 11.866C167.815 11.866 167.571 11.7697 167.379 11.577Z" fill="#596F62"/>
<path d="M57.3077 32.577C57.3077 32.4297 57.3727 32.2997 57.5027 32.187L58.5687 30.679C58.664 30.549 58.7723 30.484 58.8937 30.484C58.989 30.484 59.0757 30.5143 59.1537 30.575C59.2317 30.6357 59.2707 30.7137 59.2707 30.809V39.662C59.2707 39.766 59.2273 39.8483 59.1407 39.909C59.054 39.9697 58.9543 40 58.8417 40C58.7203 40 58.6163 39.9697 58.5297 39.909C58.4517 39.8483 58.4127 39.766 58.4127 39.662V31.953L57.8927 32.798C57.8233 32.902 57.741 32.954 57.6457 32.954C57.5503 32.954 57.468 32.9193 57.3987 32.85C57.338 32.772 57.3077 32.681 57.3077 32.577ZM63.5944 39.662V30.393C63.5944 30.3063 63.6334 30.2327 63.7114 30.172C63.7894 30.1113 63.8891 30.081 64.0104 30.081C64.1317 30.081 64.2314 30.1113 64.3094 30.172C64.3961 30.2327 64.4394 30.3063 64.4394 30.393V34.761C64.5867 34.4837 64.8077 34.2497 65.1024 34.059C65.4057 33.8683 65.7567 33.773 66.1554 33.773C66.7794 33.773 67.3167 34.0113 67.7674 34.488C68.2267 34.9647 68.4564 35.5367 68.4564 36.204V39.662C68.4564 39.766 68.4131 39.8483 68.3264 39.909C68.2484 39.9697 68.1487 40 68.0274 40C67.9234 40 67.8281 39.9697 67.7414 39.909C67.6547 39.8483 67.6114 39.766 67.6114 39.662V36.204C67.6114 35.7793 67.4511 35.398 67.1304 35.06C66.8097 34.722 66.4327 34.553 65.9994 34.553C65.5921 34.553 65.2281 34.7047 64.9074 35.008C64.5954 35.3113 64.4394 35.71 64.4394 36.204V39.662C64.4394 39.7487 64.3961 39.8267 64.3094 39.896C64.2227 39.9653 64.1231 40 64.0104 40C63.8977 40 63.7981 39.9653 63.7114 39.896C63.6334 39.8267 63.5944 39.7487 63.5944 39.662ZM69.7966 37.621V36.204C69.7966 35.5453 70.0393 34.9777 70.5246 34.501C71.0099 34.0157 71.5863 33.773 72.2536 33.773C72.9209 33.773 73.5016 34.0113 73.9956 34.488C74.4896 34.9647 74.7366 35.5367 74.7366 36.204V37.621C74.7366 38.271 74.4853 38.8473 73.9826 39.35C73.4886 39.844 72.9123 40.091 72.2536 40.091C71.6036 40.091 71.0316 39.844 70.5376 39.35C70.0436 38.8473 69.7966 38.271 69.7966 37.621ZM70.6416 37.621C70.6416 38.063 70.7976 38.4573 71.1096 38.804C71.4303 39.142 71.8116 39.311 72.2536 39.311C72.7043 39.311 73.0899 39.142 73.4106 38.804C73.7313 38.4573 73.8916 38.063 73.8916 37.621V36.204C73.8916 35.7793 73.7269 35.398 73.3976 35.06C73.0769 34.722 72.6956 34.553 72.2536 34.553C71.8116 34.553 71.4303 34.722 71.1096 35.06C70.7976 35.398 70.6416 35.7793 70.6416 36.204V37.621ZM76.0597 37.647V34.176C76.0597 34.098 76.0987 34.0243 76.1767 33.955C76.2633 33.8857 76.3673 33.851 76.4887 33.851C76.5927 33.851 76.688 33.8857 76.7747 33.955C76.8613 34.0243 76.9047 34.098 76.9047 34.176V37.647C76.9047 38.0803 77.065 38.466 77.3857 38.804C77.7063 39.142 78.0877 39.311 78.5297 39.311C78.9717 39.311 79.353 39.142 79.6737 38.804C79.9943 38.466 80.1547 38.0803 80.1547 37.647V34.163C80.1547 34.0763 80.198 34.0027 80.2847 33.942C80.3713 33.8813 80.471 33.851 80.5837 33.851C80.6963 33.851 80.7917 33.8813 80.8697 33.942C80.9563 34.0027 80.9997 34.0763 80.9997 34.163V37.647C80.9997 38.297 80.7527 38.869 80.2587 39.363C79.7733 39.8483 79.197 40.091 78.5297 40.091C77.8537 40.091 77.273 39.8483 76.7877 39.363C76.3023 38.869 76.0597 38.297 76.0597 37.647ZM82.5739 39.662V34.163C82.5739 34.0763 82.6129 34.0027 82.6909 33.942C82.7689 33.8813 82.8685 33.851 82.9899 33.851C83.1025 33.851 83.1979 33.8813 83.2759 33.942C83.3539 34.0027 83.3929 34.0763 83.3929 34.163V34.8C83.5489 34.514 83.7785 34.2713 84.0819 34.072C84.3852 33.8727 84.7362 33.773 85.1349 33.773H85.5899C85.6765 33.773 85.7545 33.812 85.8239 33.89C85.8932 33.968 85.9279 34.059 85.9279 34.163C85.9279 34.267 85.8932 34.358 85.8239 34.436C85.7545 34.514 85.6765 34.553 85.5899 34.553H85.1349C84.6842 34.553 84.2855 34.7307 83.9389 35.086C83.5922 35.4327 83.4189 35.8877 83.4189 36.451V39.662C83.4189 39.7487 83.3755 39.8267 83.2889 39.896C83.2109 39.9653 83.1112 40 82.9899 40C82.8772 40 82.7775 39.9653 82.6909 39.896C82.6129 39.8267 82.5739 39.7487 82.5739 39.662ZM89.5451 37.296V33.266C89.5451 32.3213 89.7965 31.6237 90.2991 31.173C90.8105 30.7223 91.4691 30.497 92.2751 30.497C93.0985 30.497 93.7485 30.7093 94.2251 31.134C94.7105 31.55 94.9531 32.0613 94.9531 32.668C94.9531 32.876 94.9185 33.0147 94.8491 33.084C94.7885 33.1533 94.6801 33.188 94.5241 33.188C94.2555 33.188 94.1125 33.0797 94.0951 32.863C94.0865 32.733 94.0691 32.6073 94.0431 32.486C94.0171 32.3647 93.9651 32.2303 93.8871 32.083C93.8091 31.927 93.7051 31.7927 93.5751 31.68C93.4538 31.5673 93.2805 31.4763 93.0551 31.407C92.8298 31.329 92.5698 31.29 92.2751 31.29C91.0271 31.29 90.4031 31.9487 90.4031 33.266V37.296C90.4031 38.622 91.0445 39.285 92.3271 39.285C92.6911 39.285 92.9945 39.2373 93.2371 39.142C93.4798 39.038 93.6575 38.8907 93.7701 38.7C93.8828 38.5093 93.9565 38.349 93.9911 38.219C94.0345 38.0803 94.0691 37.9027 94.0951 37.686C94.1211 37.4607 94.2641 37.348 94.5241 37.348C94.6801 37.348 94.7885 37.387 94.8491 37.465C94.9185 37.5343 94.9531 37.673 94.9531 37.881C94.9531 38.4963 94.7061 39.0163 94.2121 39.441C93.7268 39.8657 93.0681 40.078 92.2361 40.078C91.4388 40.078 90.7888 39.8527 90.2861 39.402C89.7921 38.9513 89.5451 38.2493 89.5451 37.296ZM96.3888 39.662V30.393C96.3888 30.3063 96.4278 30.2327 96.5058 30.172C96.5838 30.1113 96.6835 30.081 96.8048 30.081C96.9262 30.081 97.0258 30.1113 97.1038 30.172C97.1905 30.2327 97.2338 30.3063 97.2338 30.393V39.662C97.2338 39.7487 97.1905 39.8267 97.1038 39.896C97.0258 39.9653 96.9262 40 96.8048 40C96.6922 40 96.5925 39.9653 96.5058 39.896C96.4278 39.8267 96.3888 39.7487 96.3888 39.662ZM98.5472 38.375C98.5472 37.7077 98.8029 37.244 99.3142 36.984C99.8342 36.724 100.588 36.594 101.576 36.594H102.239V36.282C102.239 35.8053 102.114 35.3937 101.862 35.047C101.611 34.6917 101.225 34.514 100.705 34.514C100.359 34.514 100.042 34.579 99.7562 34.709C99.4789 34.8303 99.3316 34.891 99.3142 34.891C99.2102 34.891 99.1279 34.8433 99.0672 34.748C99.0066 34.6527 98.9762 34.5487 98.9762 34.436C98.9762 34.2713 99.1626 34.1197 99.5352 33.981C99.9079 33.8423 100.307 33.773 100.731 33.773C101.546 33.773 102.14 34.0113 102.512 34.488C102.894 34.956 103.084 35.554 103.084 36.282V39.662C103.084 39.7573 103.045 39.8397 102.967 39.909C102.889 39.9697 102.79 40 102.668 40C102.556 40 102.46 39.9697 102.382 39.909C102.313 39.8397 102.278 39.7573 102.278 39.662V39.09C101.698 39.7573 101.043 40.091 100.315 40.091C99.7952 40.091 99.3706 39.948 99.0412 39.662C98.7119 39.3673 98.5472 38.9383 98.5472 38.375ZM99.3922 38.297C99.3922 38.661 99.4962 38.934 99.7042 39.116C99.9122 39.2893 100.185 39.376 100.523 39.376C100.931 39.376 101.316 39.2243 101.68 38.921C102.053 38.6177 102.239 38.3143 102.239 38.011V37.179H101.693C101.347 37.179 101.052 37.192 100.809 37.218C100.575 37.244 100.341 37.2917 100.107 37.361C99.8732 37.4303 99.6956 37.543 99.5742 37.699C99.4529 37.855 99.3922 38.0543 99.3922 38.297ZM104.286 39.155C104.286 39.0683 104.317 38.9817 104.377 38.895C104.438 38.8083 104.507 38.765 104.585 38.765C104.646 38.765 104.741 38.817 104.871 38.921C105.001 39.0163 105.188 39.116 105.43 39.22C105.673 39.324 105.963 39.376 106.301 39.376C106.761 39.376 107.099 39.2893 107.315 39.116C107.532 38.9427 107.64 38.7217 107.64 38.453C107.64 38.141 107.528 37.894 107.302 37.712C107.086 37.5213 106.821 37.3827 106.509 37.296C106.197 37.2093 105.881 37.114 105.56 37.01C105.248 36.906 104.98 36.737 104.754 36.503C104.538 36.2603 104.429 35.9397 104.429 35.541C104.429 35.0643 104.598 34.6527 104.936 34.306C105.283 33.9507 105.799 33.773 106.483 33.773C106.908 33.773 107.302 33.8423 107.666 33.981C108.039 34.111 108.225 34.254 108.225 34.41C108.225 34.4967 108.191 34.592 108.121 34.696C108.052 34.8 107.97 34.852 107.874 34.852C107.848 34.852 107.688 34.7913 107.393 34.67C107.099 34.5487 106.8 34.488 106.496 34.488C106.063 34.488 105.738 34.592 105.521 34.8C105.305 35.008 105.196 35.242 105.196 35.502C105.196 35.7707 105.305 35.983 105.521 36.139C105.747 36.295 106.015 36.4163 106.327 36.503C106.648 36.581 106.964 36.6763 107.276 36.789C107.597 36.893 107.866 37.0837 108.082 37.361C108.308 37.6297 108.42 37.9807 108.42 38.414C108.42 38.934 108.234 39.3457 107.861 39.649C107.497 39.9437 106.986 40.091 106.327 40.091C105.755 40.091 105.27 39.9913 104.871 39.792C104.481 39.584 104.286 39.3717 104.286 39.155ZM109.288 39.155C109.288 39.0683 109.319 38.9817 109.379 38.895C109.44 38.8083 109.509 38.765 109.587 38.765C109.648 38.765 109.743 38.817 109.873 38.921C110.003 39.0163 110.19 39.116 110.432 39.22C110.675 39.324 110.965 39.376 111.303 39.376C111.763 39.376 112.101 39.2893 112.317 39.116C112.534 38.9427 112.642 38.7217 112.642 38.453C112.642 38.141 112.53 37.894 112.304 37.712C112.088 37.5213 111.823 37.3827 111.511 37.296C111.199 37.2093 110.883 37.114 110.562 37.01C110.25 36.906 109.982 36.737 109.756 36.503C109.54 36.2603 109.431 35.9397 109.431 35.541C109.431 35.0643 109.6 34.6527 109.938 34.306C110.285 33.9507 110.801 33.773 111.485 33.773C111.91 33.773 112.304 33.8423 112.668 33.981C113.041 34.111 113.227 34.254 113.227 34.41C113.227 34.4967 113.193 34.592 113.123 34.696C113.054 34.8 112.972 34.852 112.876 34.852C112.85 34.852 112.69 34.7913 112.395 34.67C112.101 34.5487 111.802 34.488 111.498 34.488C111.065 34.488 110.74 34.592 110.523 34.8C110.307 35.008 110.198 35.242 110.198 35.502C110.198 35.7707 110.307 35.983 110.523 36.139C110.749 36.295 111.017 36.4163 111.329 36.503C111.65 36.581 111.966 36.6763 112.278 36.789C112.599 36.893 112.868 37.0837 113.084 37.361C113.31 37.6297 113.422 37.9807 113.422 38.414C113.422 38.934 113.236 39.3457 112.863 39.649C112.499 39.9437 111.988 40.091 111.329 40.091C110.757 40.091 110.272 39.9913 109.873 39.792C109.483 39.584 109.288 39.3717 109.288 39.155Z" fill="black"/>
</svg>
