<svg width="167" height="44" viewBox="0 0 167 44" fill="none" xmlns="http://www.w3.org/2000/svg">
<path d="M1.52288 16.405V5.151C1.52288 4.99233 1.58521 4.85633 1.70988 4.743C1.84588 4.62967 2.01588 4.573 2.21988 4.573H5.53488C6.66821 4.573 7.56921 4.87333 8.23788 5.474C8.91788 6.07467 9.25788 7.021 9.25788 8.313V8.449C9.25788 9.741 8.90655 10.693 8.20388 11.305C7.51255 11.9057 6.58888 12.206 5.43288 12.206H3.32488V16.405C3.32488 16.5863 3.23421 16.7337 3.05288 16.847C2.88288 16.949 2.67321 17 2.42388 17C2.18588 17 1.97621 16.949 1.79488 16.847C1.61355 16.7337 1.52288 16.5863 1.52288 16.405ZM3.32488 10.778H5.43288C6.07888 10.778 6.57755 10.5967 6.92888 10.234C7.28021 9.86 7.45588 9.30467 7.45588 8.568V8.364C7.45588 7.62733 7.28021 7.07767 6.92888 6.715C6.57755 6.35233 6.07888 6.171 5.43288 6.171H3.32488V10.778ZM10.4833 16.405V9.52C10.4833 9.35 10.5627 9.214 10.7213 9.112C10.8913 8.99867 11.101 8.942 11.3503 8.942C11.577 8.942 11.7697 8.99867 11.9283 9.112C12.087 9.214 12.1663 9.35 12.1663 9.52V10.268C12.359 9.87133 12.648 9.537 13.0333 9.265C13.43 8.98167 13.8607 8.84 14.3253 8.84H14.8693C15.0507 8.84 15.2093 8.91933 15.3453 9.078C15.4813 9.22533 15.5493 9.40667 15.5493 9.622C15.5493 9.83733 15.4813 10.0243 15.3453 10.183C15.2093 10.3417 15.0507 10.421 14.8693 10.421H14.3253C13.7813 10.421 13.2997 10.6533 12.8803 11.118C12.4723 11.5827 12.2683 12.1833 12.2683 12.92V16.405C12.2683 16.5523 12.1777 16.6883 11.9963 16.813C11.815 16.9377 11.5997 17 11.3503 17C11.101 17 10.8913 16.9377 10.7213 16.813C10.5627 16.6883 10.4833 16.5523 10.4833 16.405ZM16.4563 5.984C16.4563 5.72333 16.5583 5.50233 16.7623 5.321C16.9663 5.13967 17.21 5.049 17.4933 5.049C17.7766 5.049 18.0203 5.13967 18.2243 5.321C18.4283 5.50233 18.5303 5.72333 18.5303 5.984C18.5303 6.23333 18.4283 6.45433 18.2243 6.647C18.0203 6.82833 17.7766 6.919 17.4933 6.919C17.21 6.919 16.9663 6.82833 16.7623 6.647C16.5583 6.45433 16.4563 6.23333 16.4563 5.984ZM16.6093 16.405V9.52C16.6093 9.35 16.6886 9.214 16.8473 9.112C17.0173 8.99867 17.2326 8.942 17.4933 8.942C17.754 8.942 17.9693 8.99867 18.1393 9.112C18.3093 9.214 18.3943 9.35 18.3943 9.52V16.405C18.3943 16.5523 18.3036 16.6883 18.1223 16.813C17.9523 16.9377 17.7426 17 17.4933 17C17.244 17 17.0343 16.9377 16.8643 16.813C16.6943 16.6883 16.6093 16.5523 16.6093 16.405ZM19.4797 9.639C19.4797 9.435 19.61 9.25933 19.8707 9.112C20.1313 8.95333 20.392 8.874 20.6527 8.874C20.936 8.874 21.1173 8.98167 21.1967 9.197L23.2197 14.569L25.2427 9.231C25.3333 8.993 25.5147 8.874 25.7867 8.874C26.002 8.874 26.2513 8.95333 26.5347 9.112C26.818 9.27067 26.9597 9.44633 26.9597 9.639C26.9597 9.71833 26.937 9.81467 26.8917 9.928L24.0357 16.813C23.9337 17.051 23.6617 17.17 23.2197 17.17C22.7777 17.17 22.5057 17.051 22.4037 16.813L19.5647 9.928C19.508 9.81467 19.4797 9.71833 19.4797 9.639ZM27.5544 14.892C27.5544 13.9853 27.8944 13.3563 28.5744 13.005C29.2544 12.6423 30.2404 12.461 31.5324 12.461H32.2804V12.155C32.2804 11.6563 32.1387 11.2257 31.8554 10.863C31.5834 10.5003 31.1641 10.319 30.5974 10.319C30.1101 10.319 29.6794 10.404 29.3054 10.574C28.9427 10.744 28.7444 10.829 28.7104 10.829C28.5177 10.829 28.3591 10.7383 28.2344 10.557C28.1211 10.3643 28.0644 10.1547 28.0644 9.928C28.0644 9.63333 28.3364 9.37833 28.8804 9.163C29.4357 8.94767 30.0194 8.84 30.6314 8.84C31.7987 8.84 32.6601 9.15733 33.2154 9.792C33.7821 10.4153 34.0654 11.1973 34.0654 12.138V16.405C34.0654 16.5637 33.9804 16.7053 33.8104 16.83C33.6517 16.9433 33.4477 17 33.1984 17C32.9717 17 32.7791 16.9433 32.6204 16.83C32.4617 16.7053 32.3824 16.5637 32.3824 16.405V15.81C31.6231 16.694 30.7674 17.136 29.8154 17.136C29.1581 17.136 28.6141 16.9433 28.1834 16.558C27.7641 16.1727 27.5544 15.6173 27.5544 14.892ZM29.3564 14.671C29.3564 15.0337 29.4584 15.3113 29.6624 15.504C29.8664 15.6853 30.1327 15.776 30.4614 15.776C30.8921 15.776 31.3001 15.5947 31.6854 15.232C32.0821 14.8693 32.2804 14.484 32.2804 14.076V13.447H31.8554C31.3454 13.447 30.9261 13.4697 30.5974 13.515C30.2801 13.5603 29.9911 13.6793 29.7304 13.872C29.4811 14.0647 29.3564 14.331 29.3564 14.671ZM35.8667 14.348V5.831C35.8667 5.67233 35.9574 5.53633 36.1387 5.423C36.3201 5.30967 36.5241 5.253 36.7507 5.253C36.9774 5.253 37.1814 5.30967 37.3627 5.423C37.5554 5.53633 37.6517 5.67233 37.6517 5.831V8.942H39.7257C39.8731 8.942 39.9921 9.01 40.0827 9.146C40.1734 9.27067 40.2187 9.42367 40.2187 9.605C40.2187 9.78633 40.1734 9.945 40.0827 10.081C39.9921 10.2057 39.8731 10.268 39.7257 10.268H37.6517V14.348C37.6517 14.756 37.7367 15.045 37.9067 15.215C38.0881 15.385 38.3997 15.47 38.8417 15.47H39.4367C39.6747 15.47 39.8617 15.5437 39.9977 15.691C40.1337 15.8383 40.2017 16.0197 40.2017 16.235C40.2017 16.4503 40.1337 16.6317 39.9977 16.779C39.8617 16.9263 39.6747 17 39.4367 17H38.8417C36.8584 17 35.8667 16.116 35.8667 14.348ZM41.0562 13.753V12.138C41.0562 11.2427 41.4019 10.472 42.0932 9.826C42.7846 9.16867 43.6176 8.84 44.5922 8.84C45.5216 8.84 46.3149 9.14033 46.9722 9.741C47.6409 10.3303 47.9752 11.0783 47.9752 11.985C47.9752 12.325 47.9356 12.6027 47.8562 12.818C47.7769 13.022 47.6522 13.1693 47.4822 13.26C47.3122 13.3393 47.1536 13.3903 47.0062 13.413C46.8589 13.4357 46.6662 13.447 46.4282 13.447H42.8412V13.838C42.8412 14.4047 43.0452 14.858 43.4532 15.198C43.8612 15.5267 44.3939 15.691 45.0512 15.691C45.5159 15.691 45.9522 15.5833 46.3602 15.368C46.7796 15.1527 47.0346 15.045 47.1252 15.045C47.3179 15.045 47.4822 15.1357 47.6182 15.317C47.7542 15.4983 47.8222 15.674 47.8222 15.844C47.8222 16.1273 47.5502 16.4163 47.0062 16.711C46.4622 16.9943 45.7936 17.136 45.0002 17.136C43.8442 17.136 42.8979 16.8243 42.1612 16.201C41.4246 15.5777 41.0562 14.7617 41.0562 13.753ZM42.8412 12.342H45.6632C45.9126 12.342 46.0769 12.308 46.1562 12.24C46.2469 12.172 46.2922 12.036 46.2922 11.832C46.2922 11.3787 46.1279 10.9933 45.7992 10.676C45.4706 10.3587 45.0626 10.2 44.5752 10.2C44.0992 10.2 43.6912 10.353 43.3512 10.659C43.0112 10.9537 42.8412 11.3333 42.8412 11.798V12.342ZM52.1203 16.252C52.1203 16.184 52.126 16.133 52.1373 16.099L55.5203 5.083C55.6563 4.675 56.036 4.471 56.6593 4.471C57.294 4.471 57.6793 4.675 57.8153 5.083L61.1813 16.099C61.204 16.167 61.2153 16.218 61.2153 16.252C61.2153 16.456 61.0907 16.6317 60.8413 16.779C60.6033 16.9263 60.3483 17 60.0763 17C59.7477 17 59.5437 16.8753 59.4643 16.626L58.7673 14.212H54.5683L53.8713 16.626C53.792 16.8753 53.5823 17 53.2423 17C52.9703 17 52.7153 16.9263 52.4773 16.779C52.2393 16.6317 52.1203 16.456 52.1203 16.252ZM54.9593 12.767H58.3593L56.6593 6.936L54.9593 12.767ZM62.0572 13.753V12.189C62.0572 11.271 62.3519 10.4833 62.9412 9.826C63.5419 9.16867 64.2616 8.84 65.1002 8.84C65.5989 8.84 66.0409 8.96467 66.4262 9.214C66.8116 9.46333 67.1062 9.76933 67.3102 10.132V4.726C67.3102 4.556 67.3952 4.42 67.5652 4.318C67.7352 4.20467 67.9506 4.148 68.2112 4.148C68.4719 4.148 68.6816 4.20467 68.8402 4.318C69.0102 4.42 69.0952 4.556 69.0952 4.726V16.405C69.0952 16.5523 69.0102 16.6883 68.8402 16.813C68.6702 16.9377 68.4606 17 68.2112 17C67.9959 17 67.8032 16.9377 67.6332 16.813C67.4746 16.6883 67.3952 16.5523 67.3952 16.405V15.81C67.2139 16.1727 66.9022 16.4843 66.4602 16.745C66.0296 17.0057 65.5592 17.136 65.0492 17.136C64.2559 17.136 63.5589 16.796 62.9582 16.116C62.3576 15.4247 62.0572 14.637 62.0572 13.753ZM63.8422 13.753C63.8422 14.2177 64.0122 14.637 64.3522 15.011C64.6922 15.3737 65.0946 15.555 65.5592 15.555C66.0012 15.555 66.4036 15.385 66.7662 15.045C67.1289 14.6937 67.3102 14.3933 67.3102 14.144V12.189C67.3102 11.6677 67.1346 11.2427 66.7832 10.914C66.4319 10.5853 66.0296 10.421 65.5762 10.421C65.1116 10.421 64.7036 10.6023 64.3522 10.965C64.0122 11.3277 63.8422 11.7357 63.8422 12.189V13.753ZM70.1974 9.639C70.1974 9.435 70.3278 9.25933 70.5884 9.112C70.8491 8.95333 71.1098 8.874 71.3704 8.874C71.6538 8.874 71.8351 8.98167 71.9144 9.197L73.9374 14.569L75.9604 9.231C76.0511 8.993 76.2324 8.874 76.5044 8.874C76.7198 8.874 76.9691 8.95333 77.2524 9.112C77.5358 9.27067 77.6774 9.44633 77.6774 9.639C77.6774 9.71833 77.6548 9.81467 77.6094 9.928L74.7534 16.813C74.6514 17.051 74.3794 17.17 73.9374 17.17C73.4954 17.17 73.2234 17.051 73.1214 16.813L70.2824 9.928C70.2258 9.81467 70.1974 9.71833 70.1974 9.639ZM78.2722 14.892C78.2722 13.9853 78.6122 13.3563 79.2922 13.005C79.9722 12.6423 80.9582 12.461 82.2502 12.461H82.9982V12.155C82.9982 11.6563 82.8565 11.2257 82.5732 10.863C82.3012 10.5003 81.8818 10.319 81.3152 10.319C80.8278 10.319 80.3972 10.404 80.0232 10.574C79.6605 10.744 79.4622 10.829 79.4282 10.829C79.2355 10.829 79.0768 10.7383 78.9522 10.557C78.8388 10.3643 78.7822 10.1547 78.7822 9.928C78.7822 9.63333 79.0542 9.37833 79.5982 9.163C80.1535 8.94767 80.7372 8.84 81.3492 8.84C82.5165 8.84 83.3778 9.15733 83.9332 9.792C84.4998 10.4153 84.7832 11.1973 84.7832 12.138V16.405C84.7832 16.5637 84.6982 16.7053 84.5282 16.83C84.3695 16.9433 84.1655 17 83.9162 17C83.6895 17 83.4968 16.9433 83.3382 16.83C83.1795 16.7053 83.1002 16.5637 83.1002 16.405V15.81C82.3408 16.694 81.4852 17.136 80.5332 17.136C79.8758 17.136 79.3318 16.9433 78.9012 16.558C78.4818 16.1727 78.2722 15.6173 78.2722 14.892ZM80.0742 14.671C80.0742 15.0337 80.1762 15.3113 80.3802 15.504C80.5842 15.6853 80.8505 15.776 81.1792 15.776C81.6098 15.776 82.0178 15.5947 82.4032 15.232C82.7998 14.8693 82.9982 14.484 82.9982 14.076V13.447H82.5732C82.0632 13.447 81.6438 13.4697 81.3152 13.515C80.9978 13.5603 80.7088 13.6793 80.4482 13.872C80.1988 14.0647 80.0742 14.331 80.0742 14.671ZM86.6015 16.405V9.52C86.6015 9.35 86.6808 9.214 86.8395 9.112C87.0095 8.99867 87.2248 8.942 87.4855 8.942C87.7122 8.942 87.8992 8.99867 88.0465 9.112C88.2052 9.214 88.2845 9.35 88.2845 9.52V10.132C88.4658 9.76933 88.7548 9.46333 89.1515 9.214C89.5595 8.96467 90.0298 8.84 90.5625 8.84C91.3672 8.84 92.0585 9.16867 92.6365 9.826C93.2258 10.4833 93.5205 11.271 93.5205 12.189V16.405C93.5205 16.5863 93.4298 16.7337 93.2485 16.847C93.0785 16.949 92.8688 17 92.6195 17C92.3928 17 92.1888 16.949 92.0075 16.847C91.8262 16.7337 91.7355 16.5863 91.7355 16.405V12.189C91.7355 11.7357 91.5655 11.3277 91.2255 10.965C90.8855 10.6023 90.4832 10.421 90.0185 10.421C89.5878 10.421 89.2082 10.5853 88.8795 10.914C88.5508 11.2313 88.3865 11.6563 88.3865 12.189V16.405C88.3865 16.5523 88.2958 16.6883 88.1145 16.813C87.9332 16.9377 87.7235 17 87.4855 17C87.2362 17 87.0265 16.9377 86.8565 16.813C86.6865 16.6883 86.6015 16.5523 86.6015 16.405ZM95.0453 13.753V12.223C95.0453 11.2143 95.34 10.3983 95.9293 9.775C96.5187 9.15167 97.397 8.84 98.5643 8.84C99.301 8.84 99.9187 8.97033 100.417 9.231C100.916 9.48033 101.165 9.76367 101.165 10.081C101.165 10.2737 101.092 10.4663 100.944 10.659C100.808 10.8517 100.644 10.948 100.451 10.948C100.395 10.948 100.191 10.863 99.8393 10.693C99.4993 10.5117 99.1197 10.421 98.7003 10.421C97.4537 10.421 96.8303 11.0217 96.8303 12.223V13.753C96.8303 14.9543 97.4593 15.555 98.7173 15.555C99.148 15.555 99.5333 15.4643 99.8733 15.283C100.225 15.0903 100.434 14.994 100.502 14.994C100.729 14.994 100.91 15.0847 101.046 15.266C101.194 15.4473 101.267 15.64 101.267 15.844C101.267 16.1613 101.007 16.456 100.485 16.728C99.964 17 99.3293 17.136 98.5813 17.136C97.4027 17.136 96.5187 16.83 95.9293 16.218C95.34 15.5947 95.0453 14.773 95.0453 13.753ZM102.167 13.753V12.138C102.167 11.2427 102.512 10.472 103.204 9.826C103.895 9.16867 104.728 8.84 105.703 8.84C106.632 8.84 107.425 9.14033 108.083 9.741C108.751 10.3303 109.086 11.0783 109.086 11.985C109.086 12.325 109.046 12.6027 108.967 12.818C108.887 13.022 108.763 13.1693 108.593 13.26C108.423 13.3393 108.264 13.3903 108.117 13.413C107.969 13.4357 107.777 13.447 107.539 13.447H103.952V13.838C103.952 14.4047 104.156 14.858 104.564 15.198C104.972 15.5267 105.504 15.691 106.162 15.691C106.626 15.691 107.063 15.5833 107.471 15.368C107.89 15.1527 108.145 15.045 108.236 15.045C108.428 15.045 108.593 15.1357 108.729 15.317C108.865 15.4983 108.933 15.674 108.933 15.844C108.933 16.1273 108.661 16.4163 108.117 16.711C107.573 16.9943 106.904 17.136 106.111 17.136C104.955 17.136 104.008 16.8243 103.272 16.201C102.535 15.5777 102.167 14.7617 102.167 13.753ZM103.952 12.342H106.774C107.023 12.342 107.187 12.308 107.267 12.24C107.357 12.172 107.403 12.036 107.403 11.832C107.403 11.3787 107.238 10.9933 106.91 10.676C106.581 10.3587 106.173 10.2 105.686 10.2C105.21 10.2 104.802 10.353 104.462 10.659C104.122 10.9537 103.952 11.3333 103.952 11.798V12.342ZM114.115 16.405V5.151C114.115 4.95833 114.2 4.81667 114.37 4.726C114.551 4.624 114.766 4.573 115.016 4.573C115.265 4.573 115.475 4.624 115.645 4.726C115.826 4.81667 115.917 4.95833 115.917 5.151V15.402H120.337C120.507 15.402 120.637 15.4813 120.728 15.64C120.83 15.7987 120.881 15.9857 120.881 16.201C120.881 16.4163 120.83 16.6033 120.728 16.762C120.637 16.9207 120.507 17 120.337 17H114.914C114.698 17 114.511 16.949 114.353 16.847C114.194 16.7337 114.115 16.5863 114.115 16.405ZM121.557 13.753V12.138C121.557 11.2427 121.903 10.472 122.594 9.826C123.286 9.16867 124.119 8.84 125.093 8.84C126.023 8.84 126.816 9.14033 127.473 9.741C128.142 10.3303 128.476 11.0783 128.476 11.985C128.476 12.325 128.437 12.6027 128.357 12.818C128.278 13.022 128.153 13.1693 127.983 13.26C127.813 13.3393 127.655 13.3903 127.507 13.413C127.36 13.4357 127.167 13.447 126.929 13.447H123.342V13.838C123.342 14.4047 123.546 14.858 123.954 15.198C124.362 15.5267 124.895 15.691 125.552 15.691C126.017 15.691 126.453 15.5833 126.861 15.368C127.281 15.1527 127.536 15.045 127.626 15.045C127.819 15.045 127.983 15.1357 128.119 15.317C128.255 15.4983 128.323 15.674 128.323 15.844C128.323 16.1273 128.051 16.4163 127.507 16.711C126.963 16.9943 126.295 17.136 125.501 17.136C124.345 17.136 123.399 16.8243 122.662 16.201C121.926 15.5777 121.557 14.7617 121.557 13.753ZM123.342 12.342H126.164C126.414 12.342 126.578 12.308 126.657 12.24C126.748 12.172 126.793 12.036 126.793 11.832C126.793 11.3787 126.629 10.9933 126.3 10.676C125.972 10.3587 125.564 10.2 125.076 10.2C124.6 10.2 124.192 10.353 123.852 10.659C123.512 10.9537 123.342 11.3333 123.342 11.798V12.342ZM129.439 15.776C129.439 15.606 129.496 15.4303 129.609 15.249C129.734 15.0677 129.881 14.977 130.051 14.977C130.153 14.977 130.295 15.045 130.476 15.181C130.657 15.3057 130.901 15.436 131.207 15.572C131.513 15.6967 131.881 15.759 132.312 15.759C133.275 15.759 133.757 15.453 133.757 14.841C133.757 14.5123 133.615 14.2573 133.332 14.076C133.049 13.8833 132.703 13.736 132.295 13.634C131.898 13.5207 131.502 13.396 131.105 13.26C130.708 13.124 130.368 12.8917 130.085 12.563C129.802 12.2343 129.66 11.8093 129.66 11.288C129.66 10.6193 129.898 10.047 130.374 9.571C130.85 9.08367 131.581 8.84 132.567 8.84C133.213 8.84 133.797 8.942 134.318 9.146C134.851 9.33867 135.117 9.571 135.117 9.843C135.117 10.0017 135.049 10.1887 134.913 10.404C134.788 10.608 134.63 10.71 134.437 10.71C134.369 10.71 134.137 10.6307 133.74 10.472C133.343 10.302 132.964 10.217 132.601 10.217C132.148 10.217 131.802 10.319 131.564 10.523C131.337 10.727 131.224 10.9537 131.224 11.203C131.224 11.475 131.366 11.6903 131.649 11.849C131.932 12.0077 132.278 12.138 132.686 12.24C133.094 12.342 133.496 12.4667 133.893 12.614C134.301 12.7613 134.647 13.0163 134.93 13.379C135.213 13.7417 135.355 14.2063 135.355 14.773C135.355 15.5097 135.094 16.0877 134.573 16.507C134.052 16.9263 133.315 17.136 132.363 17.136C131.558 17.136 130.867 16.9943 130.289 16.711C129.722 16.4277 129.439 16.116 129.439 15.776ZM136.312 15.776C136.312 15.606 136.369 15.4303 136.482 15.249C136.607 15.0677 136.754 14.977 136.924 14.977C137.026 14.977 137.168 15.045 137.349 15.181C137.53 15.3057 137.774 15.436 138.08 15.572C138.386 15.6967 138.754 15.759 139.185 15.759C140.148 15.759 140.63 15.453 140.63 14.841C140.63 14.5123 140.488 14.2573 140.205 14.076C139.922 13.8833 139.576 13.736 139.168 13.634C138.771 13.5207 138.375 13.396 137.978 13.26C137.581 13.124 137.241 12.8917 136.958 12.563C136.675 12.2343 136.533 11.8093 136.533 11.288C136.533 10.6193 136.771 10.047 137.247 9.571C137.723 9.08367 138.454 8.84 139.44 8.84C140.086 8.84 140.67 8.942 141.191 9.146C141.724 9.33867 141.99 9.571 141.99 9.843C141.99 10.0017 141.922 10.1887 141.786 10.404C141.661 10.608 141.503 10.71 141.31 10.71C141.242 10.71 141.01 10.6307 140.613 10.472C140.216 10.302 139.837 10.217 139.474 10.217C139.021 10.217 138.675 10.319 138.437 10.523C138.21 10.727 138.097 10.9537 138.097 11.203C138.097 11.475 138.239 11.6903 138.522 11.849C138.805 12.0077 139.151 12.138 139.559 12.24C139.967 12.342 140.369 12.4667 140.766 12.614C141.174 12.7613 141.52 13.0163 141.803 13.379C142.086 13.7417 142.228 14.2063 142.228 14.773C142.228 15.5097 141.967 16.0877 141.446 16.507C140.925 16.9263 140.188 17.136 139.236 17.136C138.431 17.136 137.74 16.9943 137.162 16.711C136.595 16.4277 136.312 16.116 136.312 15.776ZM143.338 13.753V12.189C143.338 11.2937 143.684 10.5117 144.375 9.843C145.066 9.17433 145.894 8.84 146.857 8.84C147.798 8.84 148.619 9.17433 149.322 9.843C150.025 10.5003 150.376 11.2823 150.376 12.189V13.753C150.376 14.637 150.019 15.4247 149.305 16.116C148.602 16.796 147.786 17.136 146.857 17.136C145.916 17.136 145.095 16.796 144.392 16.116C143.689 15.436 143.338 14.6483 143.338 13.753ZM145.123 13.753C145.123 14.2177 145.293 14.637 145.633 15.011C145.973 15.3737 146.381 15.555 146.857 15.555C147.322 15.555 147.724 15.3737 148.064 15.011C148.415 14.637 148.591 14.2177 148.591 13.753V12.189C148.591 11.7357 148.415 11.3277 148.064 10.965C147.724 10.6023 147.322 10.421 146.857 10.421C146.381 10.421 145.973 10.6023 145.633 10.965C145.293 11.3277 145.123 11.7357 145.123 12.189V13.753ZM151.945 16.405V9.52C151.945 9.35 152.025 9.214 152.183 9.112C152.353 8.99867 152.569 8.942 152.829 8.942C153.056 8.942 153.243 8.99867 153.39 9.112C153.549 9.214 153.628 9.35 153.628 9.52V10.132C153.81 9.76933 154.099 9.46333 154.495 9.214C154.903 8.96467 155.374 8.84 155.906 8.84C156.711 8.84 157.402 9.16867 157.98 9.826C158.57 10.4833 158.864 11.271 158.864 12.189V16.405C158.864 16.5863 158.774 16.7337 158.592 16.847C158.422 16.949 158.213 17 157.963 17C157.737 17 157.533 16.949 157.351 16.847C157.17 16.7337 157.079 16.5863 157.079 16.405V12.189C157.079 11.7357 156.909 11.3277 156.569 10.965C156.229 10.6023 155.827 10.421 155.362 10.421C154.932 10.421 154.552 10.5853 154.223 10.914C153.895 11.2313 153.73 11.6563 153.73 12.189V16.405C153.73 16.5523 153.64 16.6883 153.458 16.813C153.277 16.9377 153.067 17 152.829 17C152.58 17 152.37 16.9377 152.2 16.813C152.03 16.6883 151.945 16.5523 151.945 16.405ZM160.185 15.776C160.185 15.606 160.242 15.4303 160.355 15.249C160.48 15.0677 160.627 14.977 160.797 14.977C160.899 14.977 161.041 15.045 161.222 15.181C161.403 15.3057 161.647 15.436 161.953 15.572C162.259 15.6967 162.627 15.759 163.058 15.759C164.021 15.759 164.503 15.453 164.503 14.841C164.503 14.5123 164.361 14.2573 164.078 14.076C163.795 13.8833 163.449 13.736 163.041 13.634C162.644 13.5207 162.248 13.396 161.851 13.26C161.454 13.124 161.114 12.8917 160.831 12.563C160.548 12.2343 160.406 11.8093 160.406 11.288C160.406 10.6193 160.644 10.047 161.12 9.571C161.596 9.08367 162.327 8.84 163.313 8.84C163.959 8.84 164.543 8.942 165.064 9.146C165.597 9.33867 165.863 9.571 165.863 9.843C165.863 10.0017 165.795 10.1887 165.659 10.404C165.534 10.608 165.376 10.71 165.183 10.71C165.115 10.71 164.883 10.6307 164.486 10.472C164.089 10.302 163.71 10.217 163.347 10.217C162.894 10.217 162.548 10.319 162.31 10.523C162.083 10.727 161.97 10.9537 161.97 11.203C161.97 11.475 162.112 11.6903 162.395 11.849C162.678 12.0077 163.024 12.138 163.432 12.24C163.84 12.342 164.242 12.4667 164.639 12.614C165.047 12.7613 165.393 13.0163 165.676 13.379C165.959 13.7417 166.101 14.2063 166.101 14.773C166.101 15.5097 165.84 16.0877 165.319 16.507C164.798 16.9263 164.061 17.136 163.109 17.136C162.304 17.136 161.613 16.9943 161.035 16.711C160.468 16.4277 160.185 16.116 160.185 15.776Z" fill="#596F62"/>
<path d="M55.3077 32.577C55.3077 32.4297 55.3727 32.2997 55.5027 32.187L56.5687 30.679C56.664 30.549 56.7723 30.484 56.8937 30.484C56.989 30.484 57.0757 30.5143 57.1537 30.575C57.2317 30.6357 57.2707 30.7137 57.2707 30.809V39.662C57.2707 39.766 57.2273 39.8483 57.1407 39.909C57.054 39.9697 56.9543 40 56.8417 40C56.7203 40 56.6163 39.9697 56.5297 39.909C56.4517 39.8483 56.4127 39.766 56.4127 39.662V31.953L55.8927 32.798C55.8233 32.902 55.741 32.954 55.6457 32.954C55.5503 32.954 55.468 32.9193 55.3987 32.85C55.338 32.772 55.3077 32.681 55.3077 32.577ZM61.5944 39.662V30.393C61.5944 30.3063 61.6334 30.2327 61.7114 30.172C61.7894 30.1113 61.8891 30.081 62.0104 30.081C62.1317 30.081 62.2314 30.1113 62.3094 30.172C62.3961 30.2327 62.4394 30.3063 62.4394 30.393V34.761C62.5867 34.4837 62.8077 34.2497 63.1024 34.059C63.4057 33.8683 63.7567 33.773 64.1554 33.773C64.7794 33.773 65.3167 34.0113 65.7674 34.488C66.2267 34.9647 66.4564 35.5367 66.4564 36.204V39.662C66.4564 39.766 66.4131 39.8483 66.3264 39.909C66.2484 39.9697 66.1487 40 66.0274 40C65.9234 40 65.8281 39.9697 65.7414 39.909C65.6547 39.8483 65.6114 39.766 65.6114 39.662V36.204C65.6114 35.7793 65.4511 35.398 65.1304 35.06C64.8097 34.722 64.4327 34.553 63.9994 34.553C63.5921 34.553 63.2281 34.7047 62.9074 35.008C62.5954 35.3113 62.4394 35.71 62.4394 36.204V39.662C62.4394 39.7487 62.3961 39.8267 62.3094 39.896C62.2227 39.9653 62.1231 40 62.0104 40C61.8977 40 61.7981 39.9653 61.7114 39.896C61.6334 39.8267 61.5944 39.7487 61.5944 39.662ZM67.7966 37.621V36.204C67.7966 35.5453 68.0393 34.9777 68.5246 34.501C69.0099 34.0157 69.5863 33.773 70.2536 33.773C70.9209 33.773 71.5016 34.0113 71.9956 34.488C72.4896 34.9647 72.7366 35.5367 72.7366 36.204V37.621C72.7366 38.271 72.4853 38.8473 71.9826 39.35C71.4886 39.844 70.9123 40.091 70.2536 40.091C69.6036 40.091 69.0316 39.844 68.5376 39.35C68.0436 38.8473 67.7966 38.271 67.7966 37.621ZM68.6416 37.621C68.6416 38.063 68.7976 38.4573 69.1096 38.804C69.4303 39.142 69.8116 39.311 70.2536 39.311C70.7043 39.311 71.0899 39.142 71.4106 38.804C71.7313 38.4573 71.8916 38.063 71.8916 37.621V36.204C71.8916 35.7793 71.7269 35.398 71.3976 35.06C71.0769 34.722 70.6956 34.553 70.2536 34.553C69.8116 34.553 69.4303 34.722 69.1096 35.06C68.7976 35.398 68.6416 35.7793 68.6416 36.204V37.621ZM74.0597 37.647V34.176C74.0597 34.098 74.0987 34.0243 74.1767 33.955C74.2633 33.8857 74.3673 33.851 74.4887 33.851C74.5927 33.851 74.688 33.8857 74.7747 33.955C74.8613 34.0243 74.9047 34.098 74.9047 34.176V37.647C74.9047 38.0803 75.065 38.466 75.3857 38.804C75.7063 39.142 76.0877 39.311 76.5297 39.311C76.9717 39.311 77.353 39.142 77.6737 38.804C77.9943 38.466 78.1547 38.0803 78.1547 37.647V34.163C78.1547 34.0763 78.198 34.0027 78.2847 33.942C78.3713 33.8813 78.471 33.851 78.5837 33.851C78.6963 33.851 78.7917 33.8813 78.8697 33.942C78.9563 34.0027 78.9997 34.0763 78.9997 34.163V37.647C78.9997 38.297 78.7527 38.869 78.2587 39.363C77.7733 39.8483 77.197 40.091 76.5297 40.091C75.8537 40.091 75.273 39.8483 74.7877 39.363C74.3023 38.869 74.0597 38.297 74.0597 37.647ZM80.5739 39.662V34.163C80.5739 34.0763 80.6129 34.0027 80.6909 33.942C80.7689 33.8813 80.8685 33.851 80.9899 33.851C81.1025 33.851 81.1979 33.8813 81.2759 33.942C81.3539 34.0027 81.3929 34.0763 81.3929 34.163V34.8C81.5489 34.514 81.7785 34.2713 82.0819 34.072C82.3852 33.8727 82.7362 33.773 83.1349 33.773H83.5899C83.6765 33.773 83.7545 33.812 83.8239 33.89C83.8932 33.968 83.9279 34.059 83.9279 34.163C83.9279 34.267 83.8932 34.358 83.8239 34.436C83.7545 34.514 83.6765 34.553 83.5899 34.553H83.1349C82.6842 34.553 82.2855 34.7307 81.9389 35.086C81.5922 35.4327 81.4189 35.8877 81.4189 36.451V39.662C81.4189 39.7487 81.3755 39.8267 81.2889 39.896C81.2109 39.9653 81.1112 40 80.9899 40C80.8772 40 80.7775 39.9653 80.6909 39.896C80.6129 39.8267 80.5739 39.7487 80.5739 39.662ZM87.5451 37.296V33.266C87.5451 32.3213 87.7965 31.6237 88.2991 31.173C88.8105 30.7223 89.4691 30.497 90.2751 30.497C91.0985 30.497 91.7485 30.7093 92.2251 31.134C92.7105 31.55 92.9531 32.0613 92.9531 32.668C92.9531 32.876 92.9185 33.0147 92.8491 33.084C92.7885 33.1533 92.6801 33.188 92.5241 33.188C92.2555 33.188 92.1125 33.0797 92.0951 32.863C92.0865 32.733 92.0691 32.6073 92.0431 32.486C92.0171 32.3647 91.9651 32.2303 91.8871 32.083C91.8091 31.927 91.7051 31.7927 91.5751 31.68C91.4538 31.5673 91.2805 31.4763 91.0551 31.407C90.8298 31.329 90.5698 31.29 90.2751 31.29C89.0271 31.29 88.4031 31.9487 88.4031 33.266V37.296C88.4031 38.622 89.0445 39.285 90.3271 39.285C90.6911 39.285 90.9945 39.2373 91.2371 39.142C91.4798 39.038 91.6575 38.8907 91.7701 38.7C91.8828 38.5093 91.9565 38.349 91.9911 38.219C92.0345 38.0803 92.0691 37.9027 92.0951 37.686C92.1211 37.4607 92.2641 37.348 92.5241 37.348C92.6801 37.348 92.7885 37.387 92.8491 37.465C92.9185 37.5343 92.9531 37.673 92.9531 37.881C92.9531 38.4963 92.7061 39.0163 92.2121 39.441C91.7268 39.8657 91.0681 40.078 90.2361 40.078C89.4388 40.078 88.7888 39.8527 88.2861 39.402C87.7921 38.9513 87.5451 38.2493 87.5451 37.296ZM94.3888 39.662V30.393C94.3888 30.3063 94.4278 30.2327 94.5058 30.172C94.5838 30.1113 94.6835 30.081 94.8048 30.081C94.9262 30.081 95.0258 30.1113 95.1038 30.172C95.1905 30.2327 95.2338 30.3063 95.2338 30.393V39.662C95.2338 39.7487 95.1905 39.8267 95.1038 39.896C95.0258 39.9653 94.9262 40 94.8048 40C94.6922 40 94.5925 39.9653 94.5058 39.896C94.4278 39.8267 94.3888 39.7487 94.3888 39.662ZM96.5472 38.375C96.5472 37.7077 96.8029 37.244 97.3142 36.984C97.8342 36.724 98.5882 36.594 99.5762 36.594H100.239V36.282C100.239 35.8053 100.114 35.3937 99.8622 35.047C99.6109 34.6917 99.2252 34.514 98.7052 34.514C98.3586 34.514 98.0422 34.579 97.7562 34.709C97.4789 34.8303 97.3316 34.891 97.3142 34.891C97.2102 34.891 97.1279 34.8433 97.0672 34.748C97.0066 34.6527 96.9762 34.5487 96.9762 34.436C96.9762 34.2713 97.1626 34.1197 97.5352 33.981C97.9079 33.8423 98.3066 33.773 98.7312 33.773C99.5459 33.773 100.14 34.0113 100.512 34.488C100.894 34.956 101.084 35.554 101.084 36.282V39.662C101.084 39.7573 101.045 39.8397 100.967 39.909C100.889 39.9697 100.79 40 100.668 40C100.556 40 100.46 39.9697 100.382 39.909C100.313 39.8397 100.278 39.7573 100.278 39.662V39.09C99.6976 39.7573 99.0432 40.091 98.3152 40.091C97.7952 40.091 97.3706 39.948 97.0412 39.662C96.7119 39.3673 96.5472 38.9383 96.5472 38.375ZM97.3922 38.297C97.3922 38.661 97.4962 38.934 97.7042 39.116C97.9122 39.2893 98.1852 39.376 98.5232 39.376C98.9306 39.376 99.3162 39.2243 99.6802 38.921C100.053 38.6177 100.239 38.3143 100.239 38.011V37.179H99.6932C99.3466 37.179 99.0519 37.192 98.8092 37.218C98.5752 37.244 98.3412 37.2917 98.1072 37.361C97.8732 37.4303 97.6956 37.543 97.5742 37.699C97.4529 37.855 97.3922 38.0543 97.3922 38.297ZM102.286 39.155C102.286 39.0683 102.317 38.9817 102.377 38.895C102.438 38.8083 102.507 38.765 102.585 38.765C102.646 38.765 102.741 38.817 102.871 38.921C103.001 39.0163 103.188 39.116 103.43 39.22C103.673 39.324 103.963 39.376 104.301 39.376C104.761 39.376 105.099 39.2893 105.315 39.116C105.532 38.9427 105.64 38.7217 105.64 38.453C105.64 38.141 105.528 37.894 105.302 37.712C105.086 37.5213 104.821 37.3827 104.509 37.296C104.197 37.2093 103.881 37.114 103.56 37.01C103.248 36.906 102.98 36.737 102.754 36.503C102.538 36.2603 102.429 35.9397 102.429 35.541C102.429 35.0643 102.598 34.6527 102.936 34.306C103.283 33.9507 103.799 33.773 104.483 33.773C104.908 33.773 105.302 33.8423 105.666 33.981C106.039 34.111 106.225 34.254 106.225 34.41C106.225 34.4967 106.191 34.592 106.121 34.696C106.052 34.8 105.97 34.852 105.874 34.852C105.848 34.852 105.688 34.7913 105.393 34.67C105.099 34.5487 104.8 34.488 104.496 34.488C104.063 34.488 103.738 34.592 103.521 34.8C103.305 35.008 103.196 35.242 103.196 35.502C103.196 35.7707 103.305 35.983 103.521 36.139C103.747 36.295 104.015 36.4163 104.327 36.503C104.648 36.581 104.964 36.6763 105.276 36.789C105.597 36.893 105.866 37.0837 106.082 37.361C106.308 37.6297 106.42 37.9807 106.42 38.414C106.42 38.934 106.234 39.3457 105.861 39.649C105.497 39.9437 104.986 40.091 104.327 40.091C103.755 40.091 103.27 39.9913 102.871 39.792C102.481 39.584 102.286 39.3717 102.286 39.155ZM107.288 39.155C107.288 39.0683 107.319 38.9817 107.379 38.895C107.44 38.8083 107.509 38.765 107.587 38.765C107.648 38.765 107.743 38.817 107.873 38.921C108.003 39.0163 108.19 39.116 108.432 39.22C108.675 39.324 108.965 39.376 109.303 39.376C109.763 39.376 110.101 39.2893 110.317 39.116C110.534 38.9427 110.642 38.7217 110.642 38.453C110.642 38.141 110.53 37.894 110.304 37.712C110.088 37.5213 109.823 37.3827 109.511 37.296C109.199 37.2093 108.883 37.114 108.562 37.01C108.25 36.906 107.982 36.737 107.756 36.503C107.54 36.2603 107.431 35.9397 107.431 35.541C107.431 35.0643 107.6 34.6527 107.938 34.306C108.285 33.9507 108.801 33.773 109.485 33.773C109.91 33.773 110.304 33.8423 110.668 33.981C111.041 34.111 111.227 34.254 111.227 34.41C111.227 34.4967 111.193 34.592 111.123 34.696C111.054 34.8 110.972 34.852 110.876 34.852C110.85 34.852 110.69 34.7913 110.395 34.67C110.101 34.5487 109.802 34.488 109.498 34.488C109.065 34.488 108.74 34.592 108.523 34.8C108.307 35.008 108.198 35.242 108.198 35.502C108.198 35.7707 108.307 35.983 108.523 36.139C108.749 36.295 109.017 36.4163 109.329 36.503C109.65 36.581 109.966 36.6763 110.278 36.789C110.599 36.893 110.868 37.0837 111.084 37.361C111.31 37.6297 111.422 37.9807 111.422 38.414C111.422 38.934 111.236 39.3457 110.863 39.649C110.499 39.9437 109.988 40.091 109.329 40.091C108.757 40.091 108.272 39.9913 107.873 39.792C107.483 39.584 107.288 39.3717 107.288 39.155Z" fill="black"/>
</svg>
