<svg width="253" height="58" viewBox="0 0 253 58" fill="none" xmlns="http://www.w3.org/2000/svg">
<path d="M2.06056 24.16V8.272C2.06056 8.048 2.14856 7.856 2.32456 7.696C2.51656 7.536 2.75656 7.456 3.04456 7.456H7.72456C9.32456 7.456 10.5966 7.88 11.5406 8.728C12.5006 9.576 12.9806 10.912 12.9806 12.736V12.928C12.9806 14.752 12.4846 16.096 11.4926 16.96C10.5166 17.808 9.21256 18.232 7.58056 18.232H4.60456V24.16C4.60456 24.416 4.47656 24.624 4.22056 24.784C3.98056 24.928 3.68456 25 3.33256 25C2.99656 25 2.70056 24.928 2.44456 24.784C2.18856 24.624 2.06056 24.416 2.06056 24.16ZM4.60456 16.216H7.58056C8.49256 16.216 9.19656 15.96 9.69256 15.448C10.1886 14.92 10.4366 14.136 10.4366 13.096V12.808C10.4366 11.768 10.1886 10.992 9.69256 10.48C9.19656 9.968 8.49256 9.712 7.58056 9.712H4.60456V16.216ZM14.7106 24.16V14.44C14.7106 14.2 14.8226 14.008 15.0466 13.864C15.2866 13.704 15.5826 13.624 15.9346 13.624C16.2546 13.624 16.5266 13.704 16.7506 13.864C16.9746 14.008 17.0866 14.2 17.0866 14.44V15.496C17.3586 14.936 17.7666 14.464 18.3106 14.08C18.8706 13.68 19.4786 13.48 20.1346 13.48H20.9026C21.1586 13.48 21.3826 13.592 21.5746 13.816C21.7666 14.024 21.8626 14.28 21.8626 14.584C21.8626 14.888 21.7666 15.152 21.5746 15.376C21.3826 15.6 21.1586 15.712 20.9026 15.712H20.1346C19.3666 15.712 18.6866 16.04 18.0946 16.696C17.5186 17.352 17.2306 18.2 17.2306 19.24V24.16C17.2306 24.368 17.1026 24.56 16.8466 24.736C16.5906 24.912 16.2866 25 15.9346 25C15.5826 25 15.2866 24.912 15.0466 24.736C14.8226 24.56 14.7106 24.368 14.7106 24.16ZM23.1431 9.448C23.1431 9.08 23.2871 8.768 23.5751 8.512C23.8631 8.256 24.2071 8.128 24.6071 8.128C25.0071 8.128 25.3511 8.256 25.6391 8.512C25.9271 8.768 26.0711 9.08 26.0711 9.448C26.0711 9.8 25.9271 10.112 25.6391 10.384C25.3511 10.64 25.0071 10.768 24.6071 10.768C24.2071 10.768 23.8631 10.64 23.5751 10.384C23.2871 10.112 23.1431 9.8 23.1431 9.448ZM23.3591 24.16V14.44C23.3591 14.2 23.4711 14.008 23.6951 13.864C23.9351 13.704 24.2391 13.624 24.6071 13.624C24.9751 13.624 25.2791 13.704 25.5191 13.864C25.7591 14.008 25.8791 14.2 25.8791 14.44V24.16C25.8791 24.368 25.7511 24.56 25.4951 24.736C25.2551 24.912 24.9591 25 24.6071 25C24.2551 25 23.9591 24.912 23.7191 24.736C23.4791 24.56 23.3591 24.368 23.3591 24.16ZM27.4113 14.608C27.4113 14.32 27.5953 14.072 27.9633 13.864C28.3313 13.64 28.6993 13.528 29.0673 13.528C29.4673 13.528 29.7233 13.68 29.8353 13.984L32.6913 21.568L35.5473 14.032C35.6753 13.696 35.9313 13.528 36.3153 13.528C36.6193 13.528 36.9713 13.64 37.3713 13.864C37.7713 14.088 37.9713 14.336 37.9713 14.608C37.9713 14.72 37.9393 14.856 37.8753 15.016L33.8433 24.736C33.6993 25.072 33.3153 25.24 32.6913 25.24C32.0673 25.24 31.6833 25.072 31.5393 24.736L27.5313 15.016C27.4513 14.856 27.4113 14.72 27.4113 14.608ZM38.8109 22.024C38.8109 20.744 39.2909 19.856 40.2509 19.36C41.2109 18.848 42.6029 18.592 44.4269 18.592H45.4829V18.16C45.4829 17.456 45.2829 16.848 44.8829 16.336C44.4989 15.824 43.9069 15.568 43.1069 15.568C42.4189 15.568 41.8109 15.688 41.2829 15.928C40.7709 16.168 40.4909 16.288 40.4429 16.288C40.1709 16.288 39.9469 16.16 39.7709 15.904C39.6109 15.632 39.5309 15.336 39.5309 15.016C39.5309 14.6 39.9149 14.24 40.6829 13.936C41.4669 13.632 42.2909 13.48 43.1549 13.48C44.8029 13.48 46.0189 13.928 46.8029 14.824C47.6029 15.704 48.0029 16.808 48.0029 18.136V24.16C48.0029 24.384 47.8829 24.584 47.6429 24.76C47.4189 24.92 47.1309 25 46.7789 25C46.4589 25 46.1869 24.92 45.9629 24.76C45.7389 24.584 45.6269 24.384 45.6269 24.16V23.32C44.5549 24.568 43.3469 25.192 42.0029 25.192C41.0749 25.192 40.3069 24.92 39.6989 24.376C39.1069 23.832 38.8109 23.048 38.8109 22.024ZM41.3549 21.712C41.3549 22.224 41.4989 22.616 41.7869 22.888C42.0749 23.144 42.4509 23.272 42.9149 23.272C43.5229 23.272 44.0989 23.016 44.6429 22.504C45.2029 21.992 45.4829 21.448 45.4829 20.872V19.984H44.8829C44.1629 19.984 43.5709 20.016 43.1069 20.08C42.6589 20.144 42.2509 20.312 41.8829 20.584C41.5309 20.856 41.3549 21.232 41.3549 21.712ZM50.546 21.256V9.232C50.546 9.008 50.674 8.816 50.93 8.656C51.186 8.496 51.474 8.416 51.794 8.416C52.114 8.416 52.402 8.496 52.658 8.656C52.93 8.816 53.066 9.008 53.066 9.232V13.624H55.994C56.202 13.624 56.37 13.72 56.498 13.912C56.626 14.088 56.69 14.304 56.69 14.56C56.69 14.816 56.626 15.04 56.498 15.232C56.37 15.408 56.202 15.496 55.994 15.496H53.066V21.256C53.066 21.832 53.186 22.24 53.426 22.48C53.682 22.72 54.122 22.84 54.746 22.84H55.586C55.922 22.84 56.186 22.944 56.378 23.152C56.57 23.36 56.666 23.616 56.666 23.92C56.666 24.224 56.57 24.48 56.378 24.688C56.186 24.896 55.922 25 55.586 25H54.746C51.946 25 50.546 23.752 50.546 21.256ZM57.8724 20.416V18.136C57.8724 16.872 58.3604 15.784 59.3364 14.872C60.3124 13.944 61.4884 13.48 62.8644 13.48C64.1764 13.48 65.2964 13.904 66.2244 14.752C67.1684 15.584 67.6404 16.64 67.6404 17.92C67.6404 18.4 67.5844 18.792 67.4724 19.096C67.3604 19.384 67.1844 19.592 66.9444 19.72C66.7044 19.832 66.4804 19.904 66.2724 19.936C66.0644 19.968 65.7924 19.984 65.4564 19.984H60.3924V20.536C60.3924 21.336 60.6804 21.976 61.2564 22.456C61.8324 22.92 62.5844 23.152 63.5124 23.152C64.1684 23.152 64.7844 23 65.3604 22.696C65.9524 22.392 66.3124 22.24 66.4404 22.24C66.7124 22.24 66.9444 22.368 67.1364 22.624C67.3284 22.88 67.4244 23.128 67.4244 23.368C67.4244 23.768 67.0404 24.176 66.2724 24.592C65.5044 24.992 64.5604 25.192 63.4404 25.192C61.8084 25.192 60.4724 24.752 59.4324 23.872C58.3924 22.992 57.8724 21.84 57.8724 20.416ZM60.3924 18.424H64.3764C64.7284 18.424 64.9604 18.376 65.0724 18.28C65.2004 18.184 65.2644 17.992 65.2644 17.704C65.2644 17.064 65.0324 16.52 64.5684 16.072C64.1044 15.624 63.5284 15.4 62.8404 15.4C62.1684 15.4 61.5924 15.616 61.1124 16.048C60.6324 16.464 60.3924 17 60.3924 17.656V18.424ZM73.4923 23.944C73.4923 23.848 73.5003 23.776 73.5163 23.728L78.2923 8.176C78.4843 7.6 79.0203 7.312 79.9003 7.312C80.7963 7.312 81.3403 7.6 81.5323 8.176L86.2843 23.728C86.3163 23.824 86.3323 23.896 86.3323 23.944C86.3323 24.232 86.1563 24.48 85.8043 24.688C85.4683 24.896 85.1083 25 84.7243 25C84.2603 25 83.9723 24.824 83.8603 24.472L82.8763 21.064H76.9483L75.9643 24.472C75.8523 24.824 75.5563 25 75.0763 25C74.6923 25 74.3323 24.896 73.9963 24.688C73.6603 24.48 73.4923 24.232 73.4923 23.944ZM77.5003 19.024H82.3003L79.9003 10.792L77.5003 19.024ZM87.5208 20.416V18.208C87.5208 16.912 87.9368 15.8 88.7688 14.872C89.6168 13.944 90.6328 13.48 91.8168 13.48C92.5208 13.48 93.1448 13.656 93.6888 14.008C94.2328 14.36 94.6488 14.792 94.9368 15.304V7.672C94.9368 7.432 95.0568 7.24 95.2968 7.096C95.5368 6.936 95.8408 6.856 96.2088 6.856C96.5768 6.856 96.8728 6.936 97.0968 7.096C97.3368 7.24 97.4568 7.432 97.4568 7.672V24.16C97.4568 24.368 97.3368 24.56 97.0968 24.736C96.8568 24.912 96.5608 25 96.2088 25C95.9048 25 95.6328 24.912 95.3928 24.736C95.1688 24.56 95.0568 24.368 95.0568 24.16V23.32C94.8008 23.832 94.3608 24.272 93.7368 24.64C93.1288 25.008 92.4648 25.192 91.7448 25.192C90.6248 25.192 89.6408 24.712 88.7928 23.752C87.9448 22.776 87.5208 21.664 87.5208 20.416ZM90.0408 20.416C90.0408 21.072 90.2808 21.664 90.7608 22.192C91.2408 22.704 91.8088 22.96 92.4648 22.96C93.0888 22.96 93.6568 22.72 94.1688 22.24C94.6808 21.744 94.9368 21.32 94.9368 20.968V18.208C94.9368 17.472 94.6888 16.872 94.1928 16.408C93.6968 15.944 93.1288 15.712 92.4888 15.712C91.8328 15.712 91.2568 15.968 90.7608 16.48C90.2808 16.992 90.0408 17.568 90.0408 18.208V20.416ZM99.0129 14.608C99.0129 14.32 99.1969 14.072 99.5649 13.864C99.9329 13.64 100.301 13.528 100.669 13.528C101.069 13.528 101.325 13.68 101.437 13.984L104.293 21.568L107.149 14.032C107.277 13.696 107.533 13.528 107.917 13.528C108.221 13.528 108.573 13.64 108.973 13.864C109.373 14.088 109.573 14.336 109.573 14.608C109.573 14.72 109.541 14.856 109.477 15.016L105.445 24.736C105.301 25.072 104.917 25.24 104.293 25.24C103.669 25.24 103.285 25.072 103.141 24.736L99.1329 15.016C99.0529 14.856 99.0129 14.72 99.0129 14.608ZM110.413 22.024C110.413 20.744 110.893 19.856 111.853 19.36C112.813 18.848 114.205 18.592 116.029 18.592H117.085V18.16C117.085 17.456 116.885 16.848 116.485 16.336C116.101 15.824 115.509 15.568 114.709 15.568C114.021 15.568 113.413 15.688 112.885 15.928C112.373 16.168 112.093 16.288 112.045 16.288C111.773 16.288 111.549 16.16 111.373 15.904C111.213 15.632 111.133 15.336 111.133 15.016C111.133 14.6 111.517 14.24 112.285 13.936C113.069 13.632 113.893 13.48 114.757 13.48C116.405 13.48 117.621 13.928 118.405 14.824C119.205 15.704 119.605 16.808 119.605 18.136V24.16C119.605 24.384 119.485 24.584 119.245 24.76C119.021 24.92 118.733 25 118.381 25C118.061 25 117.789 24.92 117.565 24.76C117.341 24.584 117.229 24.384 117.229 24.16V23.32C116.157 24.568 114.949 25.192 113.605 25.192C112.677 25.192 111.909 24.92 111.301 24.376C110.709 23.832 110.413 23.048 110.413 22.024ZM112.957 21.712C112.957 22.224 113.101 22.616 113.389 22.888C113.677 23.144 114.053 23.272 114.517 23.272C115.125 23.272 115.701 23.016 116.245 22.504C116.805 21.992 117.085 21.448 117.085 20.872V19.984H116.485C115.765 19.984 115.173 20.016 114.709 20.08C114.261 20.144 113.853 20.312 113.485 20.584C113.133 20.856 112.957 21.232 112.957 21.712ZM122.172 24.16V14.44C122.172 14.2 122.284 14.008 122.508 13.864C122.748 13.704 123.052 13.624 123.42 13.624C123.74 13.624 124.004 13.704 124.212 13.864C124.436 14.008 124.548 14.2 124.548 14.44V15.304C124.804 14.792 125.212 14.36 125.772 14.008C126.348 13.656 127.012 13.48 127.764 13.48C128.9 13.48 129.876 13.944 130.692 14.872C131.524 15.8 131.94 16.912 131.94 18.208V24.16C131.94 24.416 131.812 24.624 131.556 24.784C131.316 24.928 131.02 25 130.668 25C130.348 25 130.06 24.928 129.804 24.784C129.548 24.624 129.42 24.416 129.42 24.16V18.208C129.42 17.568 129.18 16.992 128.7 16.48C128.22 15.968 127.652 15.712 126.996 15.712C126.388 15.712 125.852 15.944 125.388 16.408C124.924 16.856 124.692 17.456 124.692 18.208V24.16C124.692 24.368 124.564 24.56 124.308 24.736C124.052 24.912 123.756 25 123.42 25C123.068 25 122.772 24.912 122.532 24.736C122.292 24.56 122.172 24.368 122.172 24.16ZM134.092 20.416V18.256C134.092 16.832 134.508 15.68 135.34 14.8C136.172 13.92 137.412 13.48 139.06 13.48C140.1 13.48 140.972 13.664 141.676 14.032C142.38 14.384 142.732 14.784 142.732 15.232C142.732 15.504 142.628 15.776 142.42 16.048C142.228 16.32 141.996 16.456 141.724 16.456C141.644 16.456 141.356 16.336 140.86 16.096C140.38 15.84 139.844 15.712 139.252 15.712C137.492 15.712 136.612 16.56 136.612 18.256V20.416C136.612 22.112 137.5 22.96 139.276 22.96C139.884 22.96 140.428 22.832 140.908 22.576C141.404 22.304 141.7 22.168 141.796 22.168C142.116 22.168 142.372 22.296 142.564 22.552C142.772 22.808 142.876 23.08 142.876 23.368C142.876 23.816 142.508 24.232 141.772 24.616C141.036 25 140.14 25.192 139.084 25.192C137.42 25.192 136.172 24.76 135.34 23.896C134.508 23.016 134.092 21.856 134.092 20.416ZM144.146 20.416V18.136C144.146 16.872 144.634 15.784 145.61 14.872C146.586 13.944 147.762 13.48 149.138 13.48C150.45 13.48 151.57 13.904 152.498 14.752C153.442 15.584 153.914 16.64 153.914 17.92C153.914 18.4 153.858 18.792 153.746 19.096C153.634 19.384 153.458 19.592 153.218 19.72C152.978 19.832 152.754 19.904 152.546 19.936C152.338 19.968 152.066 19.984 151.73 19.984H146.666V20.536C146.666 21.336 146.954 21.976 147.53 22.456C148.106 22.92 148.858 23.152 149.786 23.152C150.442 23.152 151.058 23 151.634 22.696C152.226 22.392 152.586 22.24 152.714 22.24C152.986 22.24 153.218 22.368 153.41 22.624C153.602 22.88 153.698 23.128 153.698 23.368C153.698 23.768 153.314 24.176 152.546 24.592C151.778 24.992 150.834 25.192 149.714 25.192C148.082 25.192 146.746 24.752 145.706 23.872C144.666 22.992 144.146 21.84 144.146 20.416ZM146.666 18.424H150.65C151.002 18.424 151.234 18.376 151.346 18.28C151.474 18.184 151.538 17.992 151.538 17.704C151.538 17.064 151.306 16.52 150.842 16.072C150.378 15.624 149.802 15.4 149.114 15.4C148.442 15.4 147.866 15.616 147.386 16.048C146.906 16.464 146.666 17 146.666 17.656V18.424ZM155.513 20.416V18.208C155.513 16.912 155.929 15.8 156.761 14.872C157.609 13.944 158.625 13.48 159.809 13.48C160.513 13.48 161.137 13.656 161.681 14.008C162.225 14.36 162.641 14.792 162.929 15.304V7.672C162.929 7.432 163.049 7.24 163.289 7.096C163.529 6.936 163.833 6.856 164.201 6.856C164.569 6.856 164.865 6.936 165.089 7.096C165.329 7.24 165.449 7.432 165.449 7.672V24.16C165.449 24.368 165.329 24.56 165.089 24.736C164.849 24.912 164.553 25 164.201 25C163.897 25 163.625 24.912 163.385 24.736C163.161 24.56 163.049 24.368 163.049 24.16V23.32C162.793 23.832 162.353 24.272 161.729 24.64C161.121 25.008 160.457 25.192 159.737 25.192C158.617 25.192 157.633 24.712 156.785 23.752C155.937 22.776 155.513 21.664 155.513 20.416ZM158.033 20.416C158.033 21.072 158.273 21.664 158.753 22.192C159.233 22.704 159.801 22.96 160.457 22.96C161.081 22.96 161.649 22.72 162.161 22.24C162.673 21.744 162.929 21.32 162.929 20.968V18.208C162.929 17.472 162.681 16.872 162.185 16.408C161.689 15.944 161.121 15.712 160.481 15.712C159.825 15.712 159.249 15.968 158.753 16.48C158.273 16.992 158.033 17.568 158.033 18.208V20.416ZM173.178 24.16V8.272C173.178 8 173.298 7.8 173.538 7.672C173.794 7.528 174.098 7.456 174.45 7.456C174.802 7.456 175.098 7.528 175.338 7.672C175.594 7.8 175.722 8 175.722 8.272V22.744H181.962C182.202 22.744 182.386 22.856 182.514 23.08C182.658 23.304 182.73 23.568 182.73 23.872C182.73 24.176 182.658 24.44 182.514 24.664C182.386 24.888 182.202 25 181.962 25H174.306C174.002 25 173.738 24.928 173.514 24.784C173.29 24.624 173.178 24.416 173.178 24.16ZM183.685 20.416V18.136C183.685 16.872 184.173 15.784 185.149 14.872C186.125 13.944 187.301 13.48 188.677 13.48C189.989 13.48 191.109 13.904 192.037 14.752C192.981 15.584 193.453 16.64 193.453 17.92C193.453 18.4 193.397 18.792 193.285 19.096C193.173 19.384 192.997 19.592 192.757 19.72C192.517 19.832 192.293 19.904 192.085 19.936C191.877 19.968 191.605 19.984 191.269 19.984H186.205V20.536C186.205 21.336 186.493 21.976 187.069 22.456C187.645 22.92 188.397 23.152 189.325 23.152C189.981 23.152 190.597 23 191.173 22.696C191.765 22.392 192.125 22.24 192.253 22.24C192.525 22.24 192.757 22.368 192.949 22.624C193.141 22.88 193.237 23.128 193.237 23.368C193.237 23.768 192.853 24.176 192.085 24.592C191.317 24.992 190.373 25.192 189.253 25.192C187.621 25.192 186.285 24.752 185.245 23.872C184.205 22.992 183.685 21.84 183.685 20.416ZM186.205 18.424H190.189C190.541 18.424 190.773 18.376 190.885 18.28C191.013 18.184 191.077 17.992 191.077 17.704C191.077 17.064 190.845 16.52 190.381 16.072C189.917 15.624 189.341 15.4 188.653 15.4C187.981 15.4 187.405 15.616 186.925 16.048C186.445 16.464 186.205 17 186.205 17.656V18.424ZM194.812 23.272C194.812 23.032 194.892 22.784 195.052 22.528C195.228 22.272 195.436 22.144 195.676 22.144C195.82 22.144 196.02 22.24 196.276 22.432C196.532 22.608 196.876 22.792 197.308 22.984C197.74 23.16 198.26 23.248 198.868 23.248C200.228 23.248 200.908 22.816 200.908 21.952C200.908 21.488 200.708 21.128 200.308 20.872C199.908 20.6 199.42 20.392 198.844 20.248C198.284 20.088 197.724 19.912 197.164 19.72C196.604 19.528 196.124 19.2 195.724 18.736C195.324 18.272 195.124 17.672 195.124 16.936C195.124 15.992 195.46 15.184 196.132 14.512C196.804 13.824 197.836 13.48 199.228 13.48C200.14 13.48 200.964 13.624 201.7 13.912C202.452 14.184 202.828 14.512 202.828 14.896C202.828 15.12 202.732 15.384 202.54 15.688C202.364 15.976 202.14 16.12 201.868 16.12C201.772 16.12 201.444 16.008 200.884 15.784C200.324 15.544 199.788 15.424 199.276 15.424C198.636 15.424 198.148 15.568 197.812 15.856C197.492 16.144 197.332 16.464 197.332 16.816C197.332 17.2 197.532 17.504 197.932 17.728C198.332 17.952 198.82 18.136 199.396 18.28C199.972 18.424 200.54 18.6 201.1 18.808C201.676 19.016 202.164 19.376 202.564 19.888C202.964 20.4 203.164 21.056 203.164 21.856C203.164 22.896 202.796 23.712 202.06 24.304C201.324 24.896 200.284 25.192 198.94 25.192C197.804 25.192 196.828 24.992 196.012 24.592C195.212 24.192 194.812 23.752 194.812 23.272ZM204.515 23.272C204.515 23.032 204.595 22.784 204.755 22.528C204.931 22.272 205.139 22.144 205.379 22.144C205.523 22.144 205.723 22.24 205.979 22.432C206.235 22.608 206.579 22.792 207.011 22.984C207.443 23.16 207.963 23.248 208.571 23.248C209.931 23.248 210.611 22.816 210.611 21.952C210.611 21.488 210.411 21.128 210.011 20.872C209.611 20.6 209.123 20.392 208.547 20.248C207.987 20.088 207.427 19.912 206.867 19.72C206.307 19.528 205.827 19.2 205.427 18.736C205.027 18.272 204.827 17.672 204.827 16.936C204.827 15.992 205.163 15.184 205.835 14.512C206.507 13.824 207.539 13.48 208.931 13.48C209.843 13.48 210.667 13.624 211.403 13.912C212.155 14.184 212.531 14.512 212.531 14.896C212.531 15.12 212.435 15.384 212.243 15.688C212.067 15.976 211.843 16.12 211.571 16.12C211.475 16.12 211.147 16.008 210.587 15.784C210.027 15.544 209.491 15.424 208.979 15.424C208.339 15.424 207.851 15.568 207.515 15.856C207.195 16.144 207.035 16.464 207.035 16.816C207.035 17.2 207.235 17.504 207.635 17.728C208.035 17.952 208.523 18.136 209.099 18.28C209.675 18.424 210.243 18.6 210.803 18.808C211.379 19.016 211.867 19.376 212.267 19.888C212.667 20.4 212.867 21.056 212.867 21.856C212.867 22.896 212.499 23.712 211.763 24.304C211.027 24.896 209.987 25.192 208.643 25.192C207.507 25.192 206.531 24.992 205.715 24.592C204.915 24.192 204.515 23.752 204.515 23.272ZM214.434 20.416V18.208C214.434 16.944 214.922 15.84 215.898 14.896C216.874 13.952 218.042 13.48 219.402 13.48C220.73 13.48 221.89 13.952 222.882 14.896C223.874 15.824 224.37 16.928 224.37 18.208V20.416C224.37 21.664 223.866 22.776 222.858 23.752C221.866 24.712 220.714 25.192 219.402 25.192C218.074 25.192 216.914 24.712 215.922 23.752C214.93 22.792 214.434 21.68 214.434 20.416ZM216.954 20.416C216.954 21.072 217.194 21.664 217.674 22.192C218.154 22.704 218.73 22.96 219.402 22.96C220.058 22.96 220.626 22.704 221.106 22.192C221.602 21.664 221.85 21.072 221.85 20.416V18.208C221.85 17.568 221.602 16.992 221.106 16.48C220.626 15.968 220.058 15.712 219.402 15.712C218.73 15.712 218.154 15.968 217.674 16.48C217.194 16.992 216.954 17.568 216.954 18.208V20.416ZM226.586 24.16V14.44C226.586 14.2 226.698 14.008 226.922 13.864C227.162 13.704 227.466 13.624 227.834 13.624C228.154 13.624 228.418 13.704 228.626 13.864C228.85 14.008 228.962 14.2 228.962 14.44V15.304C229.218 14.792 229.626 14.36 230.186 14.008C230.762 13.656 231.426 13.48 232.178 13.48C233.314 13.48 234.29 13.944 235.106 14.872C235.938 15.8 236.354 16.912 236.354 18.208V24.16C236.354 24.416 236.226 24.624 235.97 24.784C235.73 24.928 235.434 25 235.082 25C234.762 25 234.474 24.928 234.218 24.784C233.962 24.624 233.834 24.416 233.834 24.16V18.208C233.834 17.568 233.594 16.992 233.114 16.48C232.634 15.968 232.066 15.712 231.41 15.712C230.802 15.712 230.266 15.944 229.802 16.408C229.338 16.856 229.106 17.456 229.106 18.208V24.16C229.106 24.368 228.978 24.56 228.722 24.736C228.466 24.912 228.17 25 227.834 25C227.482 25 227.186 24.912 226.946 24.736C226.706 24.56 226.586 24.368 226.586 24.16ZM238.218 23.272C238.218 23.032 238.298 22.784 238.458 22.528C238.634 22.272 238.842 22.144 239.082 22.144C239.226 22.144 239.426 22.24 239.682 22.432C239.938 22.608 240.282 22.792 240.714 22.984C241.146 23.16 241.666 23.248 242.274 23.248C243.634 23.248 244.314 22.816 244.314 21.952C244.314 21.488 244.114 21.128 243.714 20.872C243.314 20.6 242.826 20.392 242.25 20.248C241.69 20.088 241.13 19.912 240.57 19.72C240.01 19.528 239.53 19.2 239.13 18.736C238.73 18.272 238.53 17.672 238.53 16.936C238.53 15.992 238.866 15.184 239.538 14.512C240.21 13.824 241.242 13.48 242.634 13.48C243.546 13.48 244.37 13.624 245.106 13.912C245.858 14.184 246.234 14.512 246.234 14.896C246.234 15.12 246.138 15.384 245.946 15.688C245.77 15.976 245.546 16.12 245.274 16.12C245.178 16.12 244.85 16.008 244.29 15.784C243.73 15.544 243.194 15.424 242.682 15.424C242.042 15.424 241.554 15.568 241.218 15.856C240.898 16.144 240.738 16.464 240.738 16.816C240.738 17.2 240.938 17.504 241.338 17.728C241.738 17.952 242.226 18.136 242.802 18.28C243.378 18.424 243.946 18.6 244.506 18.808C245.082 19.016 245.57 19.376 245.97 19.888C246.37 20.4 246.57 21.056 246.57 21.856C246.57 22.896 246.202 23.712 245.466 24.304C244.73 24.896 243.69 25.192 242.346 25.192C241.21 25.192 240.234 24.992 239.418 24.592C238.618 24.192 238.218 23.752 238.218 23.272ZM248.881 24.736C248.609 24.448 248.473 24.104 248.473 23.704C248.473 23.304 248.609 22.968 248.881 22.696C249.153 22.408 249.497 22.264 249.913 22.264C250.297 22.264 250.625 22.408 250.897 22.696C251.185 22.968 251.329 23.304 251.329 23.704C251.329 24.088 251.185 24.424 250.897 24.712C250.625 25 250.297 25.144 249.913 25.144C249.497 25.144 249.153 25.008 248.881 24.736ZM248.881 17.344C248.609 17.056 248.473 16.712 248.473 16.312C248.473 15.912 248.609 15.576 248.881 15.304C249.153 15.016 249.497 14.872 249.913 14.872C250.297 14.872 250.625 15.016 250.897 15.304C251.185 15.576 251.329 15.912 251.329 16.312C251.329 16.696 251.185 17.032 250.897 17.32C250.625 17.608 250.297 17.752 249.913 17.752C249.497 17.752 249.153 17.616 248.881 17.344Z" fill="#596F62"/>
<path d="M73.4526 38.296C73.4526 38.024 73.5726 37.784 73.8126 37.576L75.7806 34.792C75.9566 34.552 76.1566 34.432 76.3806 34.432C76.5566 34.432 76.7166 34.488 76.8606 34.6C77.0046 34.712 77.0766 34.856 77.0766 35.032V51.376C77.0766 51.568 76.9966 51.72 76.8366 51.832C76.6766 51.944 76.4926 52 76.2846 52C76.0606 52 75.8686 51.944 75.7086 51.832C75.5646 51.72 75.4926 51.568 75.4926 51.376V37.144L74.5326 38.704C74.4046 38.896 74.2526 38.992 74.0766 38.992C73.9006 38.992 73.7486 38.928 73.6206 38.8C73.5086 38.656 73.4526 38.488 73.4526 38.296ZM85.0589 51.376V34.264C85.0589 34.104 85.1309 33.968 85.2749 33.856C85.4189 33.744 85.6029 33.688 85.8269 33.688C86.0509 33.688 86.2349 33.744 86.3789 33.856C86.5389 33.968 86.6189 34.104 86.6189 34.264V42.328C86.8909 41.816 87.2989 41.384 87.8429 41.032C88.4029 40.68 89.0509 40.504 89.7869 40.504C90.9389 40.504 91.9309 40.944 92.7629 41.824C93.6109 42.704 94.0349 43.76 94.0349 44.992V51.376C94.0349 51.568 93.9549 51.72 93.7949 51.832C93.6509 51.944 93.4669 52 93.2429 52C93.0509 52 92.8749 51.944 92.7149 51.832C92.5549 51.72 92.4749 51.568 92.4749 51.376V44.992C92.4749 44.208 92.1789 43.504 91.5869 42.88C90.9949 42.256 90.2989 41.944 89.4989 41.944C88.7469 41.944 88.0749 42.224 87.4829 42.784C86.9069 43.344 86.6189 44.08 86.6189 44.992V51.376C86.6189 51.536 86.5389 51.68 86.3789 51.808C86.2189 51.936 86.0349 52 85.8269 52C85.6189 52 85.4349 51.936 85.2749 51.808C85.1309 51.68 85.0589 51.536 85.0589 51.376ZM96.5091 47.608V44.992C96.5091 43.776 96.9571 42.728 97.8531 41.848C98.7491 40.952 99.8131 40.504 101.045 40.504C102.277 40.504 103.349 40.944 104.261 41.824C105.173 42.704 105.629 43.76 105.629 44.992V47.608C105.629 48.808 105.165 49.872 104.237 50.8C103.325 51.712 102.261 52.168 101.045 52.168C99.8451 52.168 98.7891 51.712 97.8771 50.8C96.9651 49.872 96.5091 48.808 96.5091 47.608ZM98.0691 47.608C98.0691 48.424 98.3571 49.152 98.9331 49.792C99.5251 50.416 100.229 50.728 101.045 50.728C101.877 50.728 102.589 50.416 103.181 49.792C103.773 49.152 104.069 48.424 104.069 47.608V44.992C104.069 44.208 103.765 43.504 103.157 42.88C102.565 42.256 101.861 41.944 101.045 41.944C100.229 41.944 99.5251 42.256 98.9331 42.88C98.3571 43.504 98.0691 44.208 98.0691 44.992V47.608ZM108.072 47.656V41.248C108.072 41.104 108.144 40.968 108.288 40.84C108.448 40.712 108.64 40.648 108.864 40.648C109.056 40.648 109.232 40.712 109.392 40.84C109.552 40.968 109.632 41.104 109.632 41.248V47.656C109.632 48.456 109.928 49.168 110.52 49.792C111.112 50.416 111.816 50.728 112.632 50.728C113.448 50.728 114.152 50.416 114.744 49.792C115.336 49.168 115.632 48.456 115.632 47.656V41.224C115.632 41.064 115.712 40.928 115.872 40.816C116.032 40.704 116.216 40.648 116.424 40.648C116.632 40.648 116.808 40.704 116.952 40.816C117.112 40.928 117.192 41.064 117.192 41.224V47.656C117.192 48.856 116.736 49.912 115.824 50.824C114.928 51.72 113.864 52.168 112.632 52.168C111.384 52.168 110.312 51.72 109.416 50.824C108.52 49.912 108.072 48.856 108.072 47.656ZM120.098 51.376V41.224C120.098 41.064 120.17 40.928 120.314 40.816C120.458 40.704 120.642 40.648 120.866 40.648C121.074 40.648 121.25 40.704 121.394 40.816C121.538 40.928 121.61 41.064 121.61 41.224V42.4C121.898 41.872 122.322 41.424 122.882 41.056C123.442 40.688 124.09 40.504 124.826 40.504H125.666C125.826 40.504 125.97 40.576 126.098 40.72C126.226 40.864 126.29 41.032 126.29 41.224C126.29 41.416 126.226 41.584 126.098 41.728C125.97 41.872 125.826 41.944 125.666 41.944H124.826C123.994 41.944 123.258 42.272 122.618 42.928C121.978 43.568 121.658 44.408 121.658 45.448V51.376C121.658 51.536 121.578 51.68 121.418 51.808C121.274 51.936 121.09 52 120.866 52C120.658 52 120.474 51.936 120.314 51.808C120.17 51.68 120.098 51.536 120.098 51.376ZM132.968 47.008V39.568C132.968 37.824 133.432 36.536 134.36 35.704C135.304 34.872 136.52 34.456 138.008 34.456C139.528 34.456 140.728 34.848 141.608 35.632C142.504 36.4 142.952 37.344 142.952 38.464C142.952 38.848 142.888 39.104 142.76 39.232C142.648 39.36 142.448 39.424 142.16 39.424C141.664 39.424 141.4 39.224 141.368 38.824C141.352 38.584 141.32 38.352 141.272 38.128C141.224 37.904 141.128 37.656 140.984 37.384C140.84 37.096 140.648 36.848 140.408 36.64C140.184 36.432 139.864 36.264 139.448 36.136C139.032 35.992 138.552 35.92 138.008 35.92C135.704 35.92 134.552 37.136 134.552 39.568V47.008C134.552 49.456 135.736 50.68 138.104 50.68C138.776 50.68 139.336 50.592 139.784 50.416C140.232 50.224 140.56 49.952 140.768 49.6C140.976 49.248 141.112 48.952 141.176 48.712C141.256 48.456 141.32 48.128 141.368 47.728C141.416 47.312 141.68 47.104 142.16 47.104C142.448 47.104 142.648 47.176 142.76 47.32C142.888 47.448 142.952 47.704 142.952 48.088C142.952 49.224 142.496 50.184 141.584 50.968C140.688 51.752 139.472 52.144 137.936 52.144C136.464 52.144 135.264 51.728 134.336 50.896C133.424 50.064 132.968 48.768 132.968 47.008ZM145.602 51.376V34.264C145.602 34.104 145.674 33.968 145.818 33.856C145.962 33.744 146.146 33.688 146.37 33.688C146.594 33.688 146.778 33.744 146.922 33.856C147.082 33.968 147.162 34.104 147.162 34.264V51.376C147.162 51.536 147.082 51.68 146.922 51.808C146.778 51.936 146.594 52 146.37 52C146.162 52 145.978 51.936 145.818 51.808C145.674 51.68 145.602 51.536 145.602 51.376ZM149.587 49C149.587 47.768 150.059 46.912 151.003 46.432C151.963 45.952 153.355 45.712 155.179 45.712H156.403V45.136C156.403 44.256 156.171 43.496 155.707 42.856C155.243 42.2 154.531 41.872 153.571 41.872C152.931 41.872 152.347 41.992 151.819 42.232C151.307 42.456 151.035 42.568 151.003 42.568C150.811 42.568 150.659 42.48 150.547 42.304C150.435 42.128 150.379 41.936 150.379 41.728C150.379 41.424 150.723 41.144 151.411 40.888C152.099 40.632 152.835 40.504 153.619 40.504C155.123 40.504 156.219 40.944 156.907 41.824C157.611 42.688 157.963 43.792 157.963 45.136V51.376C157.963 51.552 157.891 51.704 157.747 51.832C157.603 51.944 157.419 52 157.195 52C156.987 52 156.811 51.944 156.667 51.832C156.539 51.704 156.475 51.552 156.475 51.376V50.32C155.403 51.552 154.195 52.168 152.851 52.168C151.891 52.168 151.107 51.904 150.499 51.376C149.891 50.832 149.587 50.04 149.587 49ZM151.147 48.856C151.147 49.528 151.339 50.032 151.723 50.368C152.107 50.688 152.611 50.848 153.235 50.848C153.987 50.848 154.699 50.568 155.371 50.008C156.059 49.448 156.403 48.888 156.403 48.328V46.792H155.395C154.755 46.792 154.211 46.816 153.763 46.864C153.331 46.912 152.899 47 152.467 47.128C152.035 47.256 151.707 47.464 151.483 47.752C151.259 48.04 151.147 48.408 151.147 48.856ZM160.183 50.44C160.183 50.28 160.239 50.12 160.351 49.96C160.463 49.8 160.591 49.72 160.735 49.72C160.847 49.72 161.023 49.816 161.263 50.008C161.503 50.184 161.847 50.368 162.295 50.56C162.743 50.752 163.279 50.848 163.903 50.848C164.751 50.848 165.375 50.688 165.775 50.368C166.175 50.048 166.375 49.64 166.375 49.144C166.375 48.568 166.167 48.112 165.751 47.776C165.351 47.424 164.863 47.168 164.287 47.008C163.711 46.848 163.127 46.672 162.535 46.48C161.959 46.288 161.463 45.976 161.047 45.544C160.647 45.096 160.447 44.504 160.447 43.768C160.447 42.888 160.759 42.128 161.383 41.488C162.023 40.832 162.975 40.504 164.239 40.504C165.023 40.504 165.751 40.632 166.423 40.888C167.111 41.128 167.455 41.392 167.455 41.68C167.455 41.84 167.391 42.016 167.263 42.208C167.135 42.4 166.983 42.496 166.807 42.496C166.759 42.496 166.463 42.384 165.919 42.16C165.375 41.936 164.823 41.824 164.263 41.824C163.463 41.824 162.863 42.016 162.463 42.4C162.063 42.784 161.863 43.216 161.863 43.696C161.863 44.192 162.063 44.584 162.463 44.872C162.879 45.16 163.375 45.384 163.951 45.544C164.543 45.688 165.127 45.864 165.703 46.072C166.295 46.264 166.791 46.616 167.191 47.128C167.607 47.624 167.815 48.272 167.815 49.072C167.815 50.032 167.471 50.792 166.783 51.352C166.111 51.896 165.167 52.168 163.951 52.168C162.895 52.168 161.999 51.984 161.263 51.616C160.543 51.232 160.183 50.84 160.183 50.44ZM169.417 50.44C169.417 50.28 169.473 50.12 169.585 49.96C169.697 49.8 169.825 49.72 169.969 49.72C170.081 49.72 170.257 49.816 170.497 50.008C170.737 50.184 171.081 50.368 171.529 50.56C171.977 50.752 172.513 50.848 173.137 50.848C173.985 50.848 174.609 50.688 175.009 50.368C175.409 50.048 175.609 49.64 175.609 49.144C175.609 48.568 175.401 48.112 174.985 47.776C174.585 47.424 174.097 47.168 173.521 47.008C172.945 46.848 172.361 46.672 171.769 46.48C171.193 46.288 170.697 45.976 170.281 45.544C169.881 45.096 169.681 44.504 169.681 43.768C169.681 42.888 169.993 42.128 170.617 41.488C171.257 40.832 172.209 40.504 173.473 40.504C174.257 40.504 174.985 40.632 175.657 40.888C176.345 41.128 176.689 41.392 176.689 41.68C176.689 41.84 176.625 42.016 176.497 42.208C176.369 42.4 176.217 42.496 176.041 42.496C175.993 42.496 175.697 42.384 175.153 42.16C174.609 41.936 174.057 41.824 173.497 41.824C172.697 41.824 172.097 42.016 171.697 42.4C171.297 42.784 171.097 43.216 171.097 43.696C171.097 44.192 171.297 44.584 171.697 44.872C172.113 45.16 172.609 45.384 173.185 45.544C173.777 45.688 174.361 45.864 174.937 46.072C175.529 46.264 176.025 46.616 176.425 47.128C176.841 47.624 177.049 48.272 177.049 49.072C177.049 50.032 176.705 50.792 176.017 51.352C175.345 51.896 174.401 52.168 173.185 52.168C172.129 52.168 171.233 51.984 170.497 51.616C169.777 51.232 169.417 50.84 169.417 50.44Z" fill="black"/>
</svg>
